<svg width="222" height="96" viewBox="0 0 222 96" fill="none" xmlns="http://www.w3.org/2000/svg">
<mask id="mask0_1012_9081" style="mask-type:alpha" maskUnits="userSpaceOnUse" x="0" y="0" width="222" height="96">
<rect width="222" height="96" rx="16" fill="#C4C4C4"/>
</mask>
<g mask="url(#mask0_1012_9081)">
</g>
<path d="M114 48.0357C114 46.8228 114 47.0278 114 45.9806H100.343C101.905 51.7403 98.2606 55.4056 98.2606 55.4056C98.2606 55.4056 95.6574 58.5472 90.4508 58.5472C85.5366 58.5472 80.6331 54.4286 80.5219 48.1546C80.4058 41.6545 85.8377 37.4178 90.9714 37.6029C95.1406 37.7532 97.175 39.7019 99.5 42.0117C99.5 42.0117 112.646 42.0117 113 42.0117C112.597 40.4468 111.678 37.3362 109.969 34.8885C109.826 34.6847 109.681 34.4793 109.527 34.2756C106.109 29.6836 100.17 25.0217 90.9428 25.0117C80.1009 24.9964 71.7331 32.3123 68.9736 41.2698C68.9408 41.3778 68.9092 41.4859 68.8767 41.5948C68.8767 41.5998 68.8747 41.6072 68.8726 41.6114C68.3061 43.6156 68 45.7309 68 47.9152C68.0205 50.0069 68.2897 52.009 68.7787 53.8982C70.5199 60.4335 75.0517 65.8272 81.0183 68.7201C81.0663 68.7429 81.1139 68.7665 81.1631 68.788C81.1939 68.8046 81.2255 68.8166 81.2538 68.8311C84.2648 70.2133 87.6471 70.9831 91.2382 71.0117C98.8528 70.9496 105.588 67.1887 109.737 61.4332C109.822 61.3143 114 55.2146 114 48.0357Z" fill="#F1EEED"/>
<path d="M148.729 34.8184C148.729 34.8184 152.98 40.2709 152.996 47.531C153.03 61.7891 143.086 70.991 129.214 71.0117C121.178 71.0241 113.769 66.7309 109.974 61.5799C106.599 56.9972 106.043 53.1791 106.043 50.4019C105.883 46.9466 106.221 45.3126 106.221 45.3126C107 41.5117 108.102 38.1759 110.236 35.0892C114.277 29.2461 120.985 25.0117 129.294 25.0117C134.808 25.0109 138.709 27.6125 139.414 27.9886L140.875 26.2887H155L148.729 34.8184ZM140.131 44.8234L138.925 46.3116H124.596L130.421 38.0061C124.359 36.8127 118.63 41.9865 118.713 47.9129C118.798 53.9681 123.664 58.4655 129.481 58.4262C135.868 58.3856 142.24 51.4307 140.131 44.8234Z" fill="#C7B9B6"/>
<path opacity="0.5" d="M113 42.0117C112.638 40.3747 111.741 37.8981 110.207 35.3388C110.143 35.23 110.073 35.1213 110.007 35.0117C110.154 35.251 110.3 35.4358 110.124 35.2022C108.505 37.7745 107.5 39.5117 107 42.0117C109.958 42.0126 112.847 42.0117 113 42.0117Z" fill="#8F726D"/>
<path opacity="0.5" d="M114 48.291C114 47.0133 114 46.0111 114 46.0111H106C106 45.608 106 46.4124 106 46.0111C105.846 49.6505 106 52.0098 106 52.0098C106.5 55.5098 107.5 58.0098 110 61.5098C110.881 59.9961 114 56.5117 114 48.291Z" fill="#8F726D"/>
</svg>
