<svg width="221" height="96" viewBox="0 0 221 96" fill="none" xmlns="http://www.w3.org/2000/svg">
<mask id="mask0_1012_9088" style="mask-type:alpha" maskUnits="userSpaceOnUse" x="0" y="0" width="221" height="96">
<rect width="221" height="96" rx="16" fill="#C4C4C4"/>
</mask>
<g mask="url(#mask0_1012_9088)">
</g>
<path d="M35.903 32.5332C35.903 29.7155 35.903 28.7376 37.6874 28.7376C38.8963 28.7376 38.8964 29.1975 38.8964 31.5553V67.6498C38.8964 68.5128 38.6082 68.685 38.1478 68.685H37.8605V70.9846H47.1283V68.685H46.7252C46.0925 68.685 45.9198 68.4544 45.9198 67.5345V30.2907C45.9198 26.1497 45.0562 24.5393 40.9689 24.5393C38.6082 24.5393 36.8819 25.2871 35.788 27.8742C35.3267 25.5745 34.1182 24.5393 30.9525 24.5393C28.3618 24.5393 26.9801 25.3447 25.9443 27.8742V24.5393L18 25.1722V27.4719H18.345C18.8631 27.4719 19.2659 27.8742 19.2659 29.1403V67.3616C19.2659 68.3967 19.0359 68.685 18.345 68.685H18V70.9846H26.8651V68.685H26.5201C26.0593 68.685 25.9443 68.5124 25.9443 67.8219V32.5332C25.9443 29.7155 25.8862 28.7376 27.6706 28.7376C28.8796 28.7376 28.8795 29.1975 28.8795 31.5553V67.6498C28.8795 68.5128 28.5918 68.685 28.1887 68.685H27.786V70.9846H36.8819V68.685H36.7665C36.1338 68.685 35.903 68.4544 35.903 67.5345V32.5332ZM100.666 70.985H111.777V68.6854H111.028C110.05 68.6854 109.762 68.2823 109.762 66.27V48.9032H115.634V66.2696C115.634 68.2819 115.346 68.685 114.425 68.685H113.561V70.9846H124.614V68.685H123.694C122.714 68.685 122.542 68.2819 122.542 66.2696V30.6166C122.542 28.5466 122.714 28.2012 123.694 28.2012H124.614V25.9015H113.561V28.2012H114.425C115.346 28.2012 115.634 28.5466 115.634 30.6166V46.1996H109.762V30.6166C109.762 28.5466 110.05 28.2012 111.028 28.2012H111.777V25.9015H100.666V28.2012H101.645C102.566 28.2012 102.854 28.5466 102.854 30.6166V67.4192C102.854 68.3971 102.566 68.6854 101.645 68.6854H100.666V70.985ZM184.6 70.985H193.408V68.6854H193.12C192.544 68.6854 192.486 68.5128 192.486 67.8223V44.5332C192.486 41.7155 192.545 40.7376 194.329 40.7376C195.652 40.7376 195.652 41.1975 195.652 43.5553V67.6498C195.652 68.5128 195.423 68.685 195.02 68.685H194.617V70.9846H203.943V68.685H203.54C202.906 68.685 202.791 68.4544 202.791 67.5345V42.2907C202.791 38.1497 201.755 36.5393 197.725 36.5393C195.077 36.5393 193.581 37.3447 192.486 39.8742V25.211L184.025 25.9015V28.2012H184.889C185.463 28.2012 185.809 28.5466 185.809 29.812V67.3616C185.809 68.3967 185.636 68.685 184.889 68.685H184.6V70.985ZM64.4563 70.985H73.3214V68.6854H72.9179C72.401 68.6854 72.401 68.5128 72.401 67.8223V44.5332C72.401 41.7155 72.401 40.7376 74.2419 40.7376C75.5085 40.7376 75.5666 41.1975 75.5666 43.5553V67.6498C75.5666 68.5128 75.2216 68.685 74.8754 68.685H74.4719V70.9846H83.7982V68.685H83.3955C82.762 68.685 82.5901 68.4544 82.5901 67.5345V42.2907C82.5901 38.1497 81.6111 36.5393 77.5229 36.5393C74.9339 36.5393 73.3787 37.3447 72.401 39.8742V36.5393L63.8804 37.1722V39.4719H64.8017C65.3202 39.4719 65.7221 39.8742 65.7221 41.1403V67.3616C65.7221 68.3967 65.4929 68.685 64.8017 68.685H64.4567L64.4563 70.985ZM146.144 71.3873C149.195 71.3873 150.347 69.8931 150.979 68.1097C151.555 70.7549 152.188 71.3873 155.642 71.3873C159.672 71.3873 160.19 68.9728 160.133 64.2569H158.233C158.233 67.6502 158.175 67.9949 157.542 67.9949C156.966 67.9949 156.966 67.7074 156.966 65.8092V43.4404C156.966 38.8974 155.47 36.5397 150.174 36.5397C145.972 36.5397 141.826 37.805 142.056 42.3476C142.172 44.4183 142.978 46.6031 145.165 46.4878C147.18 46.3729 148.101 45.2809 148.101 43.6125C148.101 42.4629 147.237 40.5647 145.857 39.5295C146.374 39.2997 147.18 39.0688 148.504 39.0688C150.002 39.0688 150.289 40.2192 150.289 42.4044V48.6722C142.632 51.2601 141.021 52.2953 141.021 61.8988C141.021 68.8002 142.691 71.3873 146.144 71.3873ZM132.962 71.3873C138.66 71.3873 139.984 69.6625 139.696 60.2319H137.336C137.336 67.7074 137.106 68.2823 134.458 68.2823C131.292 68.2823 131.292 66.902 131.292 54.0794V53.0434H140.501C140.501 40.1055 139.063 36.5401 132.961 36.5401C127.435 36.5401 124.556 39.9334 124.556 54.1939C124.557 67.7647 126.744 71.4454 132.962 71.3873ZM56.4539 71.3873C62.0387 71.3873 63.5927 69.6625 63.3619 60.2319H61.0029C61.0029 67.7074 60.6575 68.2823 57.9514 68.2823C54.5549 68.2823 54.7276 66.902 54.7276 54.0794V53.0434H63.6504C63.6504 40.1055 62.4419 36.5401 56.4543 36.5401C50.8715 36.5401 47.9927 39.9334 47.9927 54.1939C47.9923 67.7647 50.1794 71.4454 56.4539 71.3873ZM161.4 70.985H170.611V68.6854H169.92C169.344 68.6854 169.114 68.3971 169.114 67.4777V25.211L160.537 25.9015V28.2012H161.516C162.091 28.2012 162.321 28.4309 162.321 29.3516V67.5926C162.321 68.4548 162.263 68.6854 161.861 68.6854H161.4L161.4 70.985ZM94.1609 71.3873C98.364 71.3873 100.552 68.6269 100.552 64.4875C100.552 54.7691 91.7437 49.1334 91.7437 42.1751C91.7437 40.0471 92.4923 39.4146 93.989 39.4146C96.1761 39.4146 96.5219 40.3349 96.9246 43.6125L97.2692 46.8325H99.8022V36.8267H97.7886C97.6728 38.0929 97.3859 38.5524 97.2692 38.3795C96.6373 37.6321 95.1398 36.5397 92.665 36.5397C88.9804 36.5397 85.757 38.2073 85.757 43.6702C85.757 52.1808 94.5071 58.6792 94.5071 65.1772C94.5071 67.9949 93.8743 68.4548 91.8591 68.4548C89.8447 68.4548 89.327 67.5353 88.9243 63.2798L88.6357 60.4613H85.9878V70.985H88.2899C88.4634 69.8346 88.867 69.0877 89.2112 69.4323C89.9593 70.2953 90.7648 71.3873 94.1609 71.3873ZM172.338 63.855C172.338 69.3174 173.144 71.3873 178.555 71.3873C182.354 71.3873 183.218 69.893 183.218 65.6952V60.0014H180.915V65.9826C180.915 67.9949 180.742 68.2246 179.995 68.2246C179.246 68.2246 179.073 67.9949 179.073 66.2123V39.4146H183.276V36.8267H179.131V28.2012H176.771C175.101 35.85 173.663 36.8267 171.417 36.8267H170.785V39.357H172.338L172.338 63.855ZM84.6053 38.2654C90.3612 34.009 91.5133 30.7891 89.6131 27.8565C88.5768 26.2465 86.2162 25.2114 84.4895 26.6488C82.4165 28.3737 82.9351 31.3647 86.7924 33.09C86.1012 33.8946 84.4895 35.4481 83.1655 36.7707L84.6053 38.2654ZM148.908 67.3616C147.526 67.3616 147.526 65.9249 147.526 61.382C147.526 53.1011 147.526 52.0083 150.289 50.5132V64.7168C150.289 66.8444 150.002 67.3616 148.908 67.3616ZM54.7272 50.6285C54.8422 39.8746 55.0153 39.3574 56.512 39.3574C57.951 39.3574 57.8364 39.933 57.8364 50.6285H54.7272ZM131.293 50.6285C131.465 39.8746 131.581 39.3574 133.077 39.3574C134.574 39.3574 134.343 39.933 134.343 50.6285H131.293Z" fill="#F1EEED"/>
</svg>
