<svg width="222" height="96" viewBox="0 0 222 96" fill="none" xmlns="http://www.w3.org/2000/svg">
<mask id="mask0_1012_9100" style="mask-type:alpha" maskUnits="userSpaceOnUse" x="0" y="0" width="222" height="96">
<rect width="222" height="96" rx="16" fill="#C4C4C4"/>
</mask>
<g mask="url(#mask0_1012_9100)">
</g>
<g clip-path="url(#clip0_1012_9100)">
<path d="M67.7955 61.3484L65.5215 53.4534L64.567 49.2007C64.7078 49.1639 64.5931 48.8797 64.5878 48.8375C63.7794 42.0952 58.6213 42.8531 55.2729 44.0111C55.2729 44.0111 55.0954 44.1795 55.1007 43.9585C55.1112 43.6848 55.1163 40.953 55.1163 40.2162C55.1163 40.0425 55.2677 39.9899 55.2677 39.9899C59.4506 38.1372 65.5057 38.2951 69.2298 40.1741C72.0252 41.5899 73.6525 43.7322 75.1912 50.1639C75.6136 51.9429 76.0986 54.3904 77.4442 59.7063C78.091 62.259 78.7742 63.2117 80.1667 62.9433C80.339 62.9117 80.3441 63.0012 80.3441 63.1538C80.339 64.3644 80.339 66.3907 80.339 66.5328C80.339 66.9539 80.339 66.9539 80.1981 66.9487C80.0208 66.9434 76.349 66.9539 76.349 66.9539C74.6747 66.9434 72.6355 66.9434 69.986 64.6065L67.7955 61.3484Z" fill="#F1EEED"/>
<path d="M67.7947 61.3392C67.8573 61.5287 67.586 61.7181 67.4087 61.8024C61.6246 65.1235 59.5226 55.2864 65.1556 53.3916C65.3851 53.3284 65.5207 53.4442 65.5207 53.4442L64.5662 49.1914C61.5568 49.8598 56.8262 51.2336 54.7766 53.1863C50.1921 57.5549 52.1688 64.5919 57.2018 66.413C60.013 67.4289 65.8231 68.2342 69.9852 64.5972L67.7947 61.3392Z" fill="#F1EEED"/>
<path d="M107.112 38.1413C110.298 38.1413 112.885 36.036 112.885 33.4359C112.885 30.8358 110.298 28.7305 107.112 28.7305C103.92 28.7305 101.338 30.8358 101.338 33.4359C101.338 36.036 103.92 38.1413 107.112 38.1413Z" fill="#F1EEED"/>
<path d="M205.774 38.1413C208.96 38.1413 211.547 36.036 211.547 33.4359C211.547 30.8358 208.96 28.7305 205.774 28.7305C202.582 28.7305 200 30.8358 200 33.4359C200 36.036 202.582 38.1413 205.774 38.1413Z" fill="#F1EEED"/>
<path d="M49.479 64.8048C49.4738 66.0734 49.7659 66.5576 49.8649 66.7681C49.9484 66.9576 49.698 66.9313 49.698 66.9313H39.6163C39.6163 66.9313 39.4181 66.9418 39.4807 66.7681C39.6007 66.426 39.8458 65.8102 39.8458 64.8048L39.8353 63.489V48.6306C39.8302 47.7464 39.2878 45.8464 37.165 45.8411C35.4073 45.8569 33.7696 47.4675 33.7645 49.6991L33.7593 63.6838C33.7593 63.6838 33.7645 64.7575 33.7645 64.8048C33.7593 66.0734 34.0513 66.5576 34.1503 66.7681C34.2339 66.9576 33.9835 66.9313 33.9835 66.9313H23.9018C23.9018 66.9313 23.7036 66.9418 23.7661 66.7681C23.8862 66.426 24.126 65.8102 24.1313 64.8048V48.6465C24.126 47.7569 23.5836 45.8621 21.4557 45.8516C19.7033 45.8674 18.0603 47.478 18.0603 49.7096V64.0522L18.05 64.8048C18.05 66.0734 18.3421 66.5576 18.4358 66.7681C18.5194 66.9576 18.2743 66.9313 18.2743 66.9313H8.19249C8.19249 66.9313 7.98907 66.9418 8.05163 66.7681C8.17689 66.426 8.4115 65.8102 8.42201 64.8048V63.9206C8.42201 60.6521 8.41676 46.299 8.4115 44.9779C8.42201 44.1147 8.15079 43.4989 8.02043 43.162C7.94212 42.9884 8.11418 42.9095 8.11418 42.9095C8.11418 42.9095 11.8226 41.2305 17.8986 38.3987C17.9612 38.3725 18.0656 38.4093 18.0603 38.5198V43.1094C18.0603 43.2252 18.1856 43.2884 18.2794 43.1884C18.3316 43.1358 18.3941 43.0515 18.4777 42.9568C21.8103 37.8303 32.1842 36.9987 33.8166 43.1358C33.8479 43.241 33.9627 43.2305 34.0305 43.1358C36.0853 40.3567 38.1456 38.9567 42.3805 38.9567C50.6629 38.9567 49.4685 46.0832 49.4633 50.4728L49.4685 63.489L49.479 64.8048Z" fill="#F1EEED"/>
<path d="M92.6462 64.8293C92.6409 66.0926 92.933 66.5821 93.0269 66.7926C93.1156 66.9821 92.8652 66.9557 92.8652 66.9557H82.2671C82.2671 66.9557 82.0637 66.9611 82.1262 66.7926C82.2462 66.4452 82.4861 65.8347 82.4914 64.8293L82.4966 64.0714C82.4966 60.8135 82.4914 46.9025 82.4914 45.5814C82.4914 44.8445 82.0011 43.4708 81.9072 43.2234C81.8447 43.0918 82.0481 43.0392 82.0481 43.0392C82.0481 43.0392 86.4396 40.776 92.4896 37.9495C92.5523 37.9232 92.6513 37.9601 92.6513 38.0706V40.8181C92.6513 41.1865 92.6879 42.3392 92.6879 42.4918C92.6879 42.6129 92.813 42.676 92.9016 42.576C92.9539 42.5181 93.0217 42.4391 93.0998 42.3392C95.3582 37.8654 98.9465 38.0075 101.674 38.418C102.024 38.4706 101.977 38.5864 101.883 39.0496C101.706 39.9338 100.501 44.9393 100.396 45.3077C100.313 45.6182 100.23 45.7551 99.8593 45.6761C96.4326 44.9498 92.6513 46.0762 92.6513 50.3868V51.0079C92.6513 54.1501 92.6513 61.8346 92.6565 64.0767L92.6462 64.8293Z" fill="#F1EEED"/>
<path d="M112.512 64.8224C112.506 66.0857 112.798 66.5752 112.892 66.7857C112.981 66.9752 112.731 66.9489 112.731 66.9489H102.117C102.117 66.9489 101.914 66.9594 101.971 66.7857C102.096 66.4383 102.336 65.8278 102.341 64.8224L102.347 64.6751V43.3376C102.347 42.8112 102.346 42.8059 102.717 42.6375C102.91 42.5481 102.842 42.5796 102.842 42.5796C102.842 42.5796 106.347 40.8322 112.193 38.0532C112.256 38.0216 112.501 38.0637 112.496 38.1743C112.496 39.0163 112.506 62.4593 112.512 64.7224V64.8224Z" fill="#F1EEED"/>
<path d="M211.174 64.8224C211.169 66.0857 211.461 66.5752 211.554 66.7857C211.643 66.9752 211.393 66.9489 211.393 66.9489H200.779C200.779 66.9489 200.576 66.9594 200.633 66.7857C200.758 66.4383 200.998 65.8278 201.003 64.8224L201.009 64.6751V43.3376C201.009 42.8112 201.009 42.8059 201.379 42.6375C201.572 42.5481 201.504 42.5796 201.504 42.5796C201.504 42.5796 205.009 40.8322 210.856 38.0532C210.918 38.0216 211.163 38.0637 211.158 38.1743C211.158 39.0163 211.169 62.4593 211.174 64.7224V64.8224Z" fill="#F1EEED"/>
<path d="M148.623 62.093C146.187 63.3457 142.552 63.751 140.382 60.9667C138.223 58.1929 137.159 55.7665 137.164 51.7928C137.169 42.7609 143.381 41.5766 148.096 44.2346V39.5923C145.436 38.2291 141.926 37.9923 139.287 38.2713C131.427 39.1187 126.837 45.7662 126.832 53.3296C126.827 61.572 132.042 71.4355 148.623 66.8511V62.093Z" fill="#F1EEED"/>
<path d="M165.644 61.631C165.706 61.8311 165.602 61.8942 165.419 61.989C164.157 62.7995 161.993 62.9785 160.72 61.7837C159.52 60.3521 158.895 58.7152 159.4 56.6677C159.802 55.4098 161.08 53.215 163.213 52.8308L162.53 48.7148C162.535 48.7886 162.53 48.7833 162.316 48.8307C161.669 48.9938 161.325 49.057 160.204 49.2464C157.841 49.6412 155.171 50.4517 152.949 52.1992C146.612 57.1678 149.585 64.4785 154.733 66.6259C157.737 67.8786 163.041 68.6102 167.422 64.9206L165.644 61.631Z" fill="#F1EEED"/>
<path d="M165.644 61.632L163.291 52.8686C163.291 52.8686 163.291 52.8055 163.213 52.8318L162.53 48.7159C162.06 41.363 156.209 42.042 152.959 43.2683C152.959 43.2683 152.777 43.442 152.787 43.2104C152.792 42.9263 152.803 40.0893 152.803 39.3261C152.798 39.1419 152.954 39.0945 152.954 39.0945C157.09 37.2629 163.411 37.5103 167.062 39.3577C170.265 40.9736 171.855 43.9421 172.497 46.4948C172.497 46.4948 175.371 59.7267 175.694 61.1584C175.955 62.3058 176.695 63.3058 177.853 63.3005C178.312 63.3005 178.375 63.3901 178.38 63.869C178.385 65.0269 178.39 66.8112 178.385 67.0586C178.38 67.3586 178.359 67.4691 178.135 67.4691C177.952 67.4691 174.161 67.4743 174.161 67.4743C172.121 67.4638 170.442 67.4586 167.422 64.9216L165.644 61.632Z" fill="#F1EEED"/>
<path d="M197.735 45.4511C195.242 45.4143 194.616 45.2564 193.302 45.7248C191.664 46.3564 190.538 47.6722 190.506 49.6776V65.3886C190.506 66.1991 190.866 66.8097 190.95 67.0255C190.96 67.0465 190.929 67.0623 190.929 67.0623H179.794C179.794 67.0623 179.762 67.0465 179.767 67.0202C179.846 66.8254 180.211 66.1886 180.211 65.3886V44.8984C180.153 44.1458 179.851 43.2353 179.762 42.9984C179.7 42.8668 179.903 42.8194 179.903 42.8194C179.903 42.8194 184.206 40.8089 190.339 37.9561C190.397 37.9245 190.506 37.9614 190.501 38.0772V40.5667C190.501 40.9352 190.543 42.1089 190.543 42.2668C190.543 42.3826 190.668 42.4457 190.762 42.3457C190.814 42.2878 190.877 42.2089 190.96 42.1089C193.432 37.4877 197.469 38.0719 199.524 38.3982C199.879 38.4509 199.826 38.5666 199.733 39.0351C199.55 39.9299 198.387 44.7037 198.283 45.0774C198.194 45.3932 198.116 45.4617 197.735 45.4511Z" fill="#F1EEED"/>
</g>
<defs>
<clipPath id="clip0_1012_9100">
<rect width="205" height="40" fill="white" transform="translate(8 28)"/>
</clipPath>
</defs>
</svg>
