<svg width="261" height="96" viewBox="0 0 261 96" fill="none" xmlns="http://www.w3.org/2000/svg">
<mask id="mask0_1012_9032" style="mask-type:alpha" maskUnits="userSpaceOnUse" x="0" y="0" width="261" height="96">
<rect width="261" height="96" rx="16" fill="#C4C4C4"/>
</mask>
<g mask="url(#mask0_1012_9032)">
</g>
<path d="M134 48.0357C134 46.8228 134 47.0278 134 45.9806H120.343C121.905 51.7403 118.261 55.4056 118.261 55.4056C118.261 55.4056 115.657 58.5472 110.451 58.5472C105.537 58.5472 100.633 54.4286 100.522 48.1546C100.406 41.6545 105.838 37.4178 110.971 37.6029C115.141 37.7532 117.175 39.7019 119.5 42.0117C119.5 42.0117 132.646 42.0117 133 42.0117C132.597 40.4468 131.678 37.3362 129.969 34.8885C129.826 34.6847 129.681 34.4793 129.527 34.2756C126.109 29.6836 120.17 25.0217 110.943 25.0117C100.101 24.9964 91.7331 32.3123 88.9736 41.2698C88.9408 41.3778 88.9092 41.4859 88.8767 41.5948C88.8767 41.5998 88.8747 41.6072 88.8726 41.6114C88.3061 43.6156 88 45.7309 88 47.9152C88.0205 50.0069 88.2897 52.009 88.7787 53.8982C90.5199 60.4335 95.0517 65.8272 101.018 68.7201C101.066 68.7429 101.114 68.7665 101.163 68.788C101.194 68.8046 101.225 68.8166 101.254 68.8311C104.265 70.2133 107.647 70.9831 111.238 71.0117C118.853 70.9496 125.588 67.1887 129.737 61.4332C129.822 61.3143 134 55.2146 134 48.0357Z" fill="#9E9E9E"/>
<path d="M168.729 34.8184C168.729 34.8184 172.98 40.2709 172.996 47.531C173.03 61.7891 163.086 70.991 149.214 71.0117C141.178 71.0241 133.769 66.7309 129.974 61.5799C126.599 56.9972 126.043 53.1791 126.043 50.4019C125.883 46.9466 126.221 45.3126 126.221 45.3126C127 41.5117 128.102 38.1759 130.236 35.0892C134.277 29.2461 140.985 25.0117 149.294 25.0117C154.808 25.0109 158.709 27.6125 159.414 27.9886L160.875 26.2887H175L168.729 34.8184ZM160.131 44.8234L158.925 46.3116H144.596L150.421 38.0061C144.359 36.8127 138.63 41.9865 138.713 47.9129C138.798 53.9681 143.664 58.4655 149.481 58.4262C155.868 58.3856 162.24 51.4307 160.131 44.8234Z" fill="#3D3D3D"/>
<path opacity="0.5" d="M133 42.0117C132.638 40.3747 131.741 37.8981 130.207 35.3388C130.143 35.23 130.073 35.1213 130.007 35.0117C130.154 35.251 130.3 35.4358 130.124 35.2022C128.505 37.7745 127.5 39.5117 127 42.0117C129.958 42.0126 132.847 42.0117 133 42.0117Z" fill="#6E6E6E"/>
<path opacity="0.5" d="M134 48.291C134 47.0133 134 46.0111 134 46.0111H126C126 45.608 126 46.4124 126 46.0111C125.846 49.6505 126 52.0098 126 52.0098C126.5 55.5098 127.5 58.0098 130 61.5098C130.881 59.9961 134 56.5117 134 48.291Z" fill="#6E6E6E"/>
</svg>
