<svg width="261" height="96" viewBox="0 0 261 96" fill="none" xmlns="http://www.w3.org/2000/svg">
<mask id="mask0_1012_9025" style="mask-type:alpha" maskUnits="userSpaceOnUse" x="0" y="0" width="261" height="96">
<rect width="261" height="96" rx="16" fill="#C4C4C4"/>
</mask>
<g mask="url(#mask0_1012_9025)">
<path d="M203.58 25.2113C193.176 25.2857 184.666 36.8479 184.666 46.9329C184.666 57.5456 190.904 70.4914 203.58 70.4494C216.255 70.4074 222.834 56.4701 222.834 46.9329C222.834 36.3983 213.983 25.1369 203.58 25.2113ZM203.58 25.6069C212.287 25.6069 214.636 35.2231 214.636 46.9329C214.636 62.3837 211.803 70.0064 203.58 69.9919C195.357 69.9773 192.682 63.7385 192.682 46.9329C192.682 36.4055 194.872 25.6069 203.58 25.6069Z" fill="#3D3D3D"/>
<path d="M146.9 47.2169C146.853 35.7418 156.038 25.5771 163.813 25.0728C166.621 24.8738 170.231 26.1598 172.339 27.0759C173.869 27.7411 176.993 26.7782 177.548 25.0117H177.85V40.643H177.548C177.548 39.9766 174.653 25.4658 163.813 25.4658C155.806 25.4658 155.032 39.5439 155.032 47.2169C155.032 54.8898 155.266 70.0797 164.609 70.0797C169.136 70.0797 172.486 68.0995 173.354 64.0935V51.9127H169.555V51.3939H184.282V51.9127H180.649V69.7209H180.354C180.354 69.7209 179.763 67.1514 176.767 67.16C172.937 67.171 169.325 70.4981 164.923 70.4576C153.279 70.3505 146.947 58.692 146.9 47.2169Z" fill="#3D3D3D"/>
<path d="M44.5854 26.7498H40V26.2344H56.0628V26.7498H52.0331L63.5104 57.9171C67.0994 46.8682 69.8797 38.7008 73.6213 26.7498H69.6354V26.2344H78.1166V26.7498H74.2543L60.3049 70.2341L44.5854 26.7498Z" fill="#3D3D3D"/>
<path d="M82.0442 59.588L81.9716 26.6997H77.607V26.207H93.6871V26.6997H89.325L89.4219 62.7599C90.3875 66.8891 92.1044 70.0223 97.9699 70.0689C103.835 70.1156 107.823 66.5992 109.305 61.7938V26.6997H104.312L104.312 26.2215H145.178L145.263 42.0092H144.87C144.112 31.8157 140.179 27.9633 133.3 26.8394C130.933 26.4527 128.449 26.7394 125.31 26.715V46.8642C128.044 47.0754 130.956 46.9026 132.918 45.2172C134.703 43.6846 135.207 40.1436 135.338 38.7051H135.684V56.2488H135.31C135.202 56.2488 135.058 51.8463 132.918 49.7576C130.764 47.6552 128.021 47.1383 125.31 47.6392V69.163C129.139 69.163 132.191 69.4873 134.842 68.7606C142.9 66.5517 145.736 59.7544 145.714 52.9369H146.162V69.6725H114.108V69.163H117.732V26.6997H109.902V61.7938C109.014 65.1517 105.77 70.7068 97.4568 70.6689C89.7272 70.6336 82.0609 67.149 82.0442 59.588Z" fill="#3D3D3D"/>
</g>
</svg>
