<svg width="221" height="96" viewBox="0 0 221 96" fill="none" xmlns="http://www.w3.org/2000/svg">
<mask id="mask0_1012_9074" style="mask-type:alpha" maskUnits="userSpaceOnUse" x="0" y="0" width="221" height="96">
<rect width="221" height="96" rx="16" fill="#C4C4C4"/>
</mask>
<g mask="url(#mask0_1012_9074)">
<path d="M182.579 25.2113C172.176 25.2857 163.666 36.8479 163.666 46.9329C163.666 57.5456 169.904 70.4914 182.579 70.4494C195.255 70.4074 201.834 56.4701 201.834 46.9329C201.834 36.3983 192.983 25.1369 182.579 25.2113ZM182.579 25.6069C191.287 25.6069 193.636 35.2231 193.636 46.9329C193.636 62.3837 190.802 70.0064 182.579 69.9919C174.357 69.9773 171.682 63.7385 171.682 46.9329C171.682 36.4055 173.872 25.6069 182.579 25.6069Z" fill="#F1EEED"/>
<path d="M125.9 47.2169C125.853 35.7418 135.037 25.5771 142.812 25.0728C145.621 24.8738 149.231 26.1598 151.338 27.0759C152.868 27.7411 155.993 26.7782 156.547 25.0117H156.85V40.643H156.547C156.547 39.9766 153.652 25.4658 142.812 25.4658C134.806 25.4658 134.032 39.5439 134.032 47.2169C134.032 54.8898 134.265 70.0797 143.609 70.0797C148.135 70.0797 151.485 68.0995 152.354 64.0935V51.9127H148.555V51.3939H163.281V51.9127H159.649V69.7209H159.353C159.353 69.7209 158.763 67.1514 155.766 67.16C151.937 67.171 148.325 70.4981 143.922 70.4576C132.279 70.3505 125.946 58.692 125.9 47.2169Z" fill="#F1EEED"/>
<path d="M23.5854 26.7498H19V26.2344H35.0628V26.7498H31.0331L42.5104 57.9171C46.0994 46.8682 48.8797 38.7008 52.6213 26.7498H48.6354V26.2344H57.1166V26.7498H53.2543L39.3049 70.2341L23.5854 26.7498Z" fill="#F1EEED"/>
<path d="M61.0446 59.588L60.972 26.6997H56.6074V26.207H72.6875V26.6997H68.3254L68.4223 62.7599C69.3879 66.8891 71.1048 70.0223 76.9703 70.0689C82.8359 70.1156 86.8234 66.5992 88.3053 61.7938V26.6997H83.3124L83.3123 26.2215H124.179L124.264 42.0092H123.871C123.113 31.8157 119.179 27.9633 112.3 26.8394C109.933 26.4527 107.45 26.7394 104.31 26.715V46.8642C107.044 47.0754 109.956 46.9026 111.919 45.2172C113.703 43.6846 114.208 40.1436 114.339 38.7051H114.684V56.2488H114.31C114.202 56.2488 114.059 51.8463 111.919 49.7576C109.764 47.6552 107.021 47.1383 104.31 47.6392V69.163C108.14 69.163 111.192 69.4873 113.843 68.7606C121.9 66.5517 124.737 59.7544 124.715 52.9369H125.163V69.6725H93.1084V69.163H96.7328V26.6997H88.9021V61.7938C88.0145 65.1517 84.7706 70.7068 76.4572 70.6689C68.7276 70.6336 61.0613 67.149 61.0446 59.588Z" fill="#F1EEED"/>
</g>
</svg>
