<svg width="221" height="96" viewBox="0 0 221 96" fill="none" xmlns="http://www.w3.org/2000/svg">
<mask id="mask0_1012_9115" style="mask-type:alpha" maskUnits="userSpaceOnUse" x="0" y="0" width="221" height="96">
<rect width="221" height="96" rx="16" fill="#C4C4C4"/>
</mask>
<g mask="url(#mask0_1012_9115)">
</g>
<g clip-path="url(#clip0_1012_9115)">
<path d="M56.4679 69.149C56.1018 70.68 56.0352 70.8131 55.6359 70.8131H51.2759V71.1126H61.1274V70.8131H56.6343C56.3348 70.8131 56.4013 70.6134 56.7342 69.2155L59.7628 57.4669H71.7444L75.4055 70.8131H70.5463V71.1126H86.9211V70.8131H81.829L68.2498 23.7188H68.1833L56.4679 69.149ZM65.554 34.9681L71.6446 57.1674H59.8294L65.554 34.9681ZM162.485 47.6154H166.246C169.574 47.6154 174.466 49.0465 174.466 54.8376V65.3548C174.466 69.6482 176.829 72.3774 181.023 72.3774C185.416 72.3774 185.35 67.9175 185.35 64.7224V61.3277H185.05V64.7224C185.05 68.3835 184.617 71.5453 182.454 71.5453C180.557 71.5453 180.158 70.3804 180.158 65.4214V54.8709C180.158 49.9784 176.197 48.1812 170.073 47.4823C177.695 46.5836 180.557 41.7244 180.557 36.3327C180.557 28.3783 176.896 25.0168 167.41 25.0168H152.4V25.3163H156.327C156.627 25.3163 156.76 25.3829 156.76 25.5493V70.5801C156.76 70.7465 156.627 70.8131 156.327 70.8131H152.4V71.1126H166.212V70.8131H162.884C162.584 70.8131 162.451 70.7465 162.451 70.5801V47.6154H162.485ZM162.485 25.3163H166.512C172.736 25.3163 174.5 30.0424 174.5 36.3327C174.5 42.1904 172.736 47.3491 166.512 47.3491H162.485V25.3163ZM109.786 70.5801C109.819 70.68 109.786 70.8131 109.553 70.8131H98.8029C95.5079 70.8131 91.2145 65.9206 91.2145 50.1448V48.514H90.915V71.1126H116.576L97.1388 25.5493C97.1055 25.4494 97.1388 25.3163 97.3717 25.3163H108.788C111.783 25.3163 116.143 30.7746 116.143 45.9846V47.6154H116.442V25.0168H90.3159L109.786 70.5801ZM33.5697 25.3163C39.7935 25.3163 42.323 30.0424 42.323 36.3327C42.323 42.1904 39.7935 46.8832 33.5697 46.8832H30.7408V25.3163H33.5697ZM20.6562 25.0168V25.3163H24.5836C24.8831 25.3163 25.0162 25.3829 25.0162 25.5493V70.5801C25.0162 70.7465 24.8831 70.8131 24.5836 70.8131H20.6562V71.1126H35.3337C44.7859 71.1126 49.8447 67.1853 49.8447 59.2309C49.8447 53.706 46.8493 48.1146 37.4305 46.983C45.4182 46.2508 48.1806 41.2252 48.1806 36.2994C48.1806 29.1437 43.8872 24.9835 34.4018 24.9835L20.6562 25.0168ZM33.5697 47.1827C40.5923 47.1827 43.388 51.9754 43.388 59.2309C43.388 65.4879 40.8918 70.8464 35.0674 70.8464H31.1734C30.8739 70.8464 30.7408 70.7798 30.7408 70.6134V47.1827H33.5697ZM124.197 69.149C123.798 70.68 123.765 70.8131 123.365 70.8131H119.005V71.1126H128.857V70.8131H124.364C124.064 70.8131 124.131 70.6134 124.463 69.2155L127.492 57.4669H139.474L143.135 70.8131H138.276V71.1126H154.65V70.8131H149.558L135.979 23.7188H135.879L124.197 69.149ZM133.317 34.9681L139.407 57.1674H127.592L133.317 34.9681Z" fill="#F1EEED"/>
<path d="M200.662 25.1511H186.55V25.4507H190.478C190.777 25.4507 190.91 25.5172 190.91 25.6836V70.7145C190.91 70.8809 190.777 70.9474 190.478 70.9474H187.254V71.247H200.362V70.9474H197.034C196.735 70.9474 196.602 70.8809 196.602 70.7145L196.634 48.2304L196.635 47.7497V25.4507H200.662V25.1511Z" fill="#F1EEED"/>
</g>
<defs>
<clipPath id="clip0_1012_9115">
<rect width="181" height="48" fill="white" transform="translate(20 24.0117)"/>
</clipPath>
</defs>
</svg>
