<svg width="261" height="96" viewBox="0 0 261 96" fill="none" xmlns="http://www.w3.org/2000/svg">
<mask id="mask0_1012_9039" style="mask-type:alpha" maskUnits="userSpaceOnUse" x="0" y="0" width="261" height="96">
<rect width="261" height="96" rx="16" fill="#C4C4C4"/>
</mask>
<g mask="url(#mask0_1012_9039)">
</g>
<g clip-path="url(#clip0_1012_9039)">
<path d="M55.903 32.5329C55.903 29.7153 55.903 28.7374 57.6874 28.7374C58.8963 28.7374 58.8964 29.1973 58.8964 31.555V67.6496C58.8964 68.5126 58.6082 68.6847 58.1478 68.6847H57.8605V70.9844H67.1283V68.6847H66.7252C66.0925 68.6847 65.9198 68.4541 65.9198 67.5343V30.2905C65.9198 26.1494 65.0562 24.5391 60.9689 24.5391C58.6082 24.5391 56.8819 25.2868 55.788 27.8739C55.3267 25.5742 54.1182 24.5391 50.9525 24.5391C48.3618 24.5391 46.9801 25.3445 45.9443 27.8739V24.5391L38 25.1719V27.4716H38.345C38.8631 27.4716 39.2659 27.8739 39.2659 29.1401V67.3613C39.2659 68.3965 39.0359 68.6847 38.345 68.6847H38V70.9844H46.8651V68.6847H46.5201C46.0593 68.6847 45.9443 68.5122 45.9443 67.8217V32.5329C45.9443 29.7153 45.8862 28.7374 47.6706 28.7374C48.8796 28.7374 48.8795 29.1973 48.8795 31.555V67.6496C48.8795 68.5126 48.5918 68.6847 48.1887 68.6847H47.786V70.9844H56.8819V68.6847H56.7665C56.1338 68.6847 55.903 68.4541 55.903 67.5343V32.5329ZM120.666 70.9848H131.777V68.6851H131.028C130.05 68.6851 129.762 68.282 129.762 66.2697V48.903H135.634V66.2693C135.634 68.2816 135.346 68.6847 134.425 68.6847H133.561V70.9844H144.614V68.6847H143.694C142.714 68.6847 142.542 68.2816 142.542 66.2693V30.6163C142.542 28.5464 142.714 28.2009 143.694 28.2009H144.614V25.9012H133.561V28.2009H134.425C135.346 28.2009 135.634 28.5464 135.634 30.6163V46.1994H129.762V30.6163C129.762 28.5464 130.05 28.2009 131.028 28.2009H131.777V25.9012H120.666V28.2009H121.645C122.566 28.2009 122.854 28.5464 122.854 30.6163V67.419C122.854 68.3969 122.566 68.6851 121.645 68.6851H120.666V70.9848ZM204.6 70.9848H213.408V68.6851H213.12C212.544 68.6851 212.486 68.5126 212.486 67.8221V44.5329C212.486 41.7153 212.545 40.7374 214.329 40.7374C215.652 40.7374 215.652 41.1973 215.652 43.555V67.6496C215.652 68.5126 215.423 68.6847 215.02 68.6847H214.617V70.9844H223.943V68.6847H223.54C222.906 68.6847 222.791 68.4541 222.791 67.5343V42.2905C222.791 38.1494 221.755 36.5391 217.725 36.5391C215.077 36.5391 213.581 37.3445 212.486 39.8739V25.2107L204.025 25.9012V28.2009H204.889C205.463 28.2009 205.809 28.5464 205.809 29.8117V67.3613C205.809 68.3965 205.636 68.6847 204.889 68.6847H204.6V70.9848ZM84.4563 70.9848H93.3214V68.6851H92.9179C92.401 68.6851 92.401 68.5126 92.401 67.8221V44.5329C92.401 41.7153 92.401 40.7374 94.2419 40.7374C95.5085 40.7374 95.5666 41.1973 95.5666 43.555V67.6496C95.5666 68.5126 95.2216 68.6847 94.8754 68.6847H94.4719V70.9844H103.798V68.6847H103.396C102.762 68.6847 102.59 68.4541 102.59 67.5343V42.2905C102.59 38.1494 101.611 36.5391 97.5229 36.5391C94.9339 36.5391 93.3787 37.3445 92.401 39.8739V36.5391L83.8804 37.1719V39.4716H84.8017C85.3202 39.4716 85.7221 39.8739 85.7221 41.1401V67.3613C85.7221 68.3965 85.4929 68.6847 84.8017 68.6847H84.4567L84.4563 70.9848ZM166.144 71.3871C169.195 71.3871 170.347 69.8928 170.979 68.1095C171.555 70.7546 172.188 71.3871 175.642 71.3871C179.672 71.3871 180.19 68.9725 180.133 64.2567H178.233C178.233 67.65 178.175 67.9946 177.542 67.9946C176.966 67.9946 176.966 67.7072 176.966 65.809V43.4401C176.966 38.8972 175.47 36.5395 170.174 36.5395C165.972 36.5395 161.826 37.8048 162.056 42.3473C162.172 44.4181 162.978 46.6029 165.165 46.4876C167.18 46.3727 168.101 45.2807 168.101 43.6123C168.101 42.4626 167.237 40.5644 165.857 39.5293C166.374 39.2995 167.18 39.0685 168.504 39.0685C170.002 39.0685 170.289 40.219 170.289 42.4042V48.672C162.632 51.2599 161.021 52.2951 161.021 61.8985C161.021 68.8 162.691 71.3871 166.144 71.3871ZM152.962 71.3871C158.66 71.3871 159.984 69.6622 159.696 60.2317H157.336C157.336 67.7072 157.106 68.282 154.458 68.282C151.292 68.282 151.292 66.9018 151.292 54.0792V53.0432H160.501C160.501 40.1053 159.063 36.5399 152.961 36.5399C147.435 36.5399 144.556 39.9332 144.556 54.1937C144.557 67.7644 146.744 71.4451 152.962 71.3871ZM76.4539 71.3871C82.0387 71.3871 83.5927 69.6622 83.3619 60.2317H81.0029C81.0029 67.7072 80.6575 68.282 77.9514 68.282C74.5549 68.282 74.7276 66.9018 74.7276 54.0792V53.0432H83.6504C83.6504 40.1053 82.4419 36.5399 76.4543 36.5399C70.8715 36.5399 67.9927 39.9332 67.9927 54.1937C67.9923 67.7644 70.1794 71.4451 76.4539 71.3871ZM181.4 70.9848H190.611V68.6851H189.92C189.344 68.6851 189.114 68.3969 189.114 67.4774V25.2107L180.537 25.9012V28.2009H181.516C182.091 28.2009 182.321 28.4307 182.321 29.3514V67.5923C182.321 68.4545 182.263 68.6851 181.861 68.6851H181.4L181.4 70.9848ZM114.161 71.3871C118.364 71.3871 120.552 68.6267 120.552 64.4872C120.552 54.7689 111.744 49.1331 111.744 42.1748C111.744 40.0468 112.492 39.4144 113.989 39.4144C116.176 39.4144 116.522 40.3347 116.925 43.6123L117.269 46.8322H119.802V36.8265H117.789C117.673 38.0926 117.386 38.5521 117.269 38.3792C116.637 37.6319 115.14 36.5395 112.665 36.5395C108.98 36.5395 105.757 38.2071 105.757 43.6699C105.757 52.1806 114.507 58.679 114.507 65.1769C114.507 67.9946 113.874 68.4545 111.859 68.4545C109.845 68.4545 109.327 67.5351 108.924 63.2795L108.636 60.4611H105.988V70.9848H108.29C108.463 69.8344 108.867 69.0874 109.211 69.4321C109.959 70.2951 110.765 71.3871 114.161 71.3871ZM192.338 63.8548C192.338 69.3172 193.144 71.3871 198.555 71.3871C202.354 71.3871 203.218 69.8928 203.218 65.6949V60.0011H200.915V65.9823C200.915 67.9946 200.742 68.2244 199.995 68.2244C199.246 68.2244 199.073 67.9946 199.073 66.2121V39.4144H203.276V36.8265H199.131V28.2009H196.771C195.101 35.8498 193.663 36.8265 191.417 36.8265H190.785V39.3567H192.338L192.338 63.8548ZM104.605 38.2651C110.361 34.0088 111.513 30.7888 109.613 27.8563C108.577 26.2463 106.216 25.2111 104.489 26.6486C102.417 28.3735 102.935 31.3645 106.792 33.0897C106.101 33.8943 104.489 35.4479 103.165 36.7704L104.605 38.2651ZM168.908 67.3613C167.526 67.3613 167.526 65.9247 167.526 61.3817C167.526 53.1009 167.526 52.008 170.289 50.5129V64.7166C170.289 66.8442 170.002 67.3613 168.908 67.3613ZM74.7272 50.6282C74.8422 39.8743 75.0153 39.3571 76.512 39.3571C77.951 39.3571 77.8364 39.9328 77.8364 50.6282H74.7272ZM151.293 50.6282C151.465 39.8743 151.581 39.3571 153.077 39.3571C154.574 39.3571 154.343 39.9328 154.343 50.6282H151.293Z" fill="#3D3D3D"/>
</g>
<defs>
<clipPath id="clip0_1012_9039">
<rect width="186" height="48" fill="white" transform="translate(38 24)"/>
</clipPath>
</defs>
</svg>
