<svg width="262" height="96" viewBox="0 0 262 96" fill="none" xmlns="http://www.w3.org/2000/svg">
<mask id="mask0_1012_9051" style="mask-type:alpha" maskUnits="userSpaceOnUse" x="0" y="0" width="262" height="96">
<rect width="262" height="96" rx="16" fill="#C4C4C4"/>
</mask>
<g mask="url(#mask0_1012_9051)">
</g>
<g clip-path="url(#clip0_1012_9051)">
<path d="M88.7955 61.3484L86.5215 53.4534L85.567 49.2007C85.7078 49.1639 85.5931 48.8797 85.5878 48.8375C84.7794 42.0952 79.6213 42.8531 76.2729 44.0111C76.2729 44.0111 76.0954 44.1795 76.1007 43.9585C76.1112 43.6848 76.1163 40.953 76.1163 40.2162C76.1163 40.0425 76.2677 39.9899 76.2677 39.9899C80.4506 38.1372 86.5057 38.2951 90.2298 40.1741C93.0252 41.5899 94.6525 43.7322 96.1912 50.1639C96.6136 51.9429 97.0986 54.3904 98.4442 59.7063C99.091 62.259 99.7742 63.2117 101.167 62.9433C101.339 62.9117 101.344 63.0012 101.344 63.1538C101.339 64.3644 101.339 66.3907 101.339 66.5328C101.339 66.9539 101.339 66.9539 101.198 66.9487C101.021 66.9434 97.349 66.9539 97.349 66.9539C95.6747 66.9434 93.6355 66.9434 90.986 64.6065L88.7955 61.3484Z" fill="#3D3D3D"/>
<path d="M88.7947 61.3392C88.8573 61.5287 88.586 61.7181 88.4087 61.8024C82.6246 65.1235 80.5226 55.2864 86.1556 53.3916C86.3851 53.3284 86.5207 53.4442 86.5207 53.4442L85.5662 49.1914C82.5568 49.8598 77.8262 51.2336 75.7766 53.1863C71.1921 57.5549 73.1688 64.5919 78.2018 66.413C81.013 67.4289 86.8231 68.2342 90.9852 64.5972L88.7947 61.3392Z" fill="#3D3D3D"/>
<path d="M128.112 38.1413C131.298 38.1413 133.885 36.036 133.885 33.4359C133.885 30.8358 131.298 28.7305 128.112 28.7305C124.92 28.7305 122.338 30.8358 122.338 33.4359C122.338 36.036 124.92 38.1413 128.112 38.1413Z" fill="#3D3D3D"/>
<path d="M226.774 38.1413C229.96 38.1413 232.547 36.036 232.547 33.4359C232.547 30.8358 229.96 28.7305 226.774 28.7305C223.582 28.7305 221 30.8358 221 33.4359C221 36.036 223.582 38.1413 226.774 38.1413Z" fill="#3D3D3D"/>
<path d="M70.479 64.8048C70.4738 66.0734 70.7659 66.5576 70.8649 66.7681C70.9484 66.9576 70.698 66.9313 70.698 66.9313H60.6163C60.6163 66.9313 60.4181 66.9418 60.4807 66.7681C60.6007 66.426 60.8458 65.8102 60.8458 64.8048L60.8353 63.489V48.6306C60.8302 47.7464 60.2878 45.8464 58.165 45.8411C56.4073 45.8569 54.7696 47.4675 54.7645 49.6991L54.7593 63.6838C54.7593 63.6838 54.7645 64.7575 54.7645 64.8048C54.7593 66.0734 55.0513 66.5576 55.1503 66.7681C55.2339 66.9576 54.9835 66.9313 54.9835 66.9313H44.9018C44.9018 66.9313 44.7036 66.9418 44.7661 66.7681C44.8862 66.426 45.126 65.8102 45.1313 64.8048V48.6465C45.126 47.7569 44.5836 45.8621 42.4557 45.8516C40.7033 45.8674 39.0603 47.478 39.0603 49.7096V64.0522L39.05 64.8048C39.05 66.0734 39.3421 66.5576 39.4358 66.7681C39.5194 66.9576 39.2743 66.9313 39.2743 66.9313H29.1925C29.1925 66.9313 28.9891 66.9418 29.0516 66.7681C29.1769 66.426 29.4115 65.8102 29.422 64.8048V63.9206C29.422 60.6521 29.4168 46.299 29.4115 44.9779C29.422 44.1147 29.1508 43.4989 29.0204 43.162C28.9421 42.9884 29.1142 42.9095 29.1142 42.9095C29.1142 42.9095 32.8226 41.2305 38.8986 38.3987C38.9612 38.3725 39.0656 38.4093 39.0603 38.5198V43.1094C39.0603 43.2252 39.1856 43.2884 39.2794 43.1884C39.3316 43.1358 39.3941 43.0515 39.4777 42.9568C42.8103 37.8303 53.1842 36.9987 54.8166 43.1358C54.8479 43.241 54.9627 43.2305 55.0305 43.1358C57.0853 40.3567 59.1456 38.9567 63.3805 38.9567C71.6629 38.9567 70.4685 46.0832 70.4633 50.4728L70.4685 63.489L70.479 64.8048Z" fill="#3D3D3D"/>
<path d="M113.646 64.8293C113.641 66.0926 113.933 66.5821 114.027 66.7926C114.116 66.9821 113.865 66.9557 113.865 66.9557H103.267C103.267 66.9557 103.064 66.9611 103.126 66.7926C103.246 66.4452 103.486 65.8347 103.491 64.8293L103.497 64.0714C103.497 60.8135 103.491 46.9025 103.491 45.5814C103.491 44.8445 103.001 43.4708 102.907 43.2234C102.845 43.0918 103.048 43.0392 103.048 43.0392C103.048 43.0392 107.44 40.776 113.49 37.9495C113.552 37.9232 113.651 37.9601 113.651 38.0706V40.8181C113.651 41.1865 113.688 42.3392 113.688 42.4918C113.688 42.6129 113.813 42.676 113.902 42.576C113.954 42.5181 114.022 42.4391 114.1 42.3392C116.358 37.8654 119.946 38.0075 122.674 38.418C123.024 38.4706 122.977 38.5864 122.883 39.0496C122.706 39.9338 121.501 44.9393 121.396 45.3077C121.313 45.6182 121.23 45.7551 120.859 45.6761C117.433 44.9498 113.651 46.0762 113.651 50.3868V51.0079C113.651 54.1501 113.651 61.8346 113.657 64.0767L113.646 64.8293Z" fill="#3D3D3D"/>
<path d="M133.512 64.8224C133.506 66.0857 133.798 66.5752 133.892 66.7857C133.981 66.9752 133.731 66.9489 133.731 66.9489H123.117C123.117 66.9489 122.914 66.9594 122.971 66.7857C123.096 66.4383 123.336 65.8278 123.341 64.8224L123.347 64.6751V43.3376C123.347 42.8112 123.346 42.8059 123.717 42.6375C123.91 42.5481 123.842 42.5796 123.842 42.5796C123.842 42.5796 127.347 40.8322 133.193 38.0532C133.256 38.0216 133.501 38.0637 133.496 38.1743C133.496 39.0163 133.506 62.4593 133.512 64.7224V64.8224Z" fill="#3D3D3D"/>
<path d="M232.174 64.8224C232.169 66.0857 232.461 66.5752 232.554 66.7857C232.643 66.9752 232.393 66.9489 232.393 66.9489H221.779C221.779 66.9489 221.576 66.9594 221.633 66.7857C221.758 66.4383 221.998 65.8278 222.003 64.8224L222.009 64.6751V43.3376C222.009 42.8112 222.009 42.8059 222.379 42.6375C222.572 42.5481 222.504 42.5796 222.504 42.5796C222.504 42.5796 226.009 40.8322 231.856 38.0532C231.918 38.0216 232.163 38.0637 232.158 38.1743C232.158 39.0163 232.169 62.4593 232.174 64.7224V64.8224Z" fill="#3D3D3D"/>
<path d="M169.623 62.093C167.187 63.3457 163.552 63.751 161.382 60.9667C159.223 58.1929 158.159 55.7665 158.164 51.7928C158.169 42.7609 164.381 41.5766 169.096 44.2346V39.5923C166.436 38.2291 162.926 37.9923 160.287 38.2713C152.427 39.1187 147.837 45.7662 147.832 53.3296C147.827 61.572 153.042 71.4355 169.623 66.8511V62.093Z" fill="#3D3D3D"/>
<path d="M186.644 61.631C186.706 61.8311 186.602 61.8942 186.419 61.989C185.157 62.7995 182.993 62.9785 181.72 61.7837C180.52 60.3521 179.895 58.7152 180.4 56.6677C180.802 55.4098 182.08 53.215 184.213 52.8308L183.53 48.7148C183.535 48.7886 183.53 48.7833 183.316 48.8307C182.669 48.9938 182.325 49.057 181.204 49.2464C178.841 49.6412 176.171 50.4517 173.949 52.1992C167.612 57.1678 170.585 64.4785 175.733 66.6259C178.737 67.8786 184.041 68.6102 188.422 64.9206L186.644 61.631Z" fill="#3D3D3D"/>
<path d="M186.644 61.632L184.291 52.8686C184.291 52.8686 184.291 52.8055 184.213 52.8318L183.53 48.7159C183.06 41.363 177.209 42.042 173.959 43.2683C173.959 43.2683 173.777 43.442 173.787 43.2104C173.792 42.9263 173.803 40.0893 173.803 39.3261C173.798 39.1419 173.954 39.0945 173.954 39.0945C178.09 37.2629 184.411 37.5103 188.062 39.3577C191.265 40.9736 192.855 43.9421 193.497 46.4948C193.497 46.4948 196.371 59.7267 196.694 61.1584C196.955 62.3058 197.695 63.3058 198.853 63.3005C199.312 63.3005 199.375 63.3901 199.38 63.869C199.385 65.0269 199.39 66.8112 199.385 67.0586C199.38 67.3586 199.359 67.4691 199.135 67.4691C198.952 67.4691 195.161 67.4743 195.161 67.4743C193.121 67.4638 191.442 67.4586 188.422 64.9216L186.644 61.632Z" fill="#3D3D3D"/>
<path d="M218.735 45.4511C216.242 45.4143 215.616 45.2564 214.302 45.7248C212.664 46.3564 211.538 47.6722 211.506 49.6776V65.3886C211.506 66.1991 211.866 66.8097 211.95 67.0255C211.96 67.0465 211.929 67.0623 211.929 67.0623H200.794C200.794 67.0623 200.762 67.0465 200.767 67.0202C200.846 66.8254 201.211 66.1886 201.211 65.3886V44.8984C201.153 44.1458 200.851 43.2353 200.762 42.9984C200.7 42.8668 200.903 42.8194 200.903 42.8194C200.903 42.8194 205.206 40.8089 211.339 37.9561C211.397 37.9245 211.506 37.9614 211.501 38.0772V40.5667C211.501 40.9352 211.543 42.1089 211.543 42.2668C211.543 42.3826 211.668 42.4457 211.762 42.3457C211.814 42.2878 211.877 42.2089 211.96 42.1089C214.432 37.4877 218.469 38.0719 220.524 38.3982C220.879 38.4509 220.826 38.5666 220.733 39.0351C220.55 39.9299 219.387 44.7037 219.283 45.0774C219.194 45.3932 219.116 45.4617 218.735 45.4511Z" fill="#3D3D3D"/>
</g>
<defs>
<clipPath id="clip0_1012_9051">
<rect width="205" height="40" fill="white" transform="translate(29 28)"/>
</clipPath>
</defs>
</svg>
