<svg width="262" height="96" viewBox="0 0 262 96" fill="none" xmlns="http://www.w3.org/2000/svg">
<mask id="mask0_1012_9046" style="mask-type:alpha" maskUnits="userSpaceOnUse" x="0" y="0" width="262" height="96">
<rect width="262" height="96" rx="16" fill="#C4C4C4"/>
</mask>
<g mask="url(#mask0_1012_9046)">
</g>
<path d="M25.9158 53.3895V39.3693H22V35.5365L25.9158 35.0153V30.2337L34.3642 29.0571V35.0184H39.9672V39.388H34.3642V52.6841C34.3642 55.181 35.0662 56.4607 37.5434 56.4607C38.4248 56.4607 39.6272 56.367 40.241 56.2422V59.485C38.8875 60.2778 35.9916 60.952 33.316 60.952C28.2797 60.952 25.9189 58.7516 25.9189 53.3895H25.9158ZM82.2441 37.2407C84.3657 37.2407 85.5115 37.6152 85.5115 45.0498L78.4291 45.4618C78.5235 38.7201 79.5497 37.2407 82.2441 37.2407ZM78.4984 48.4861H93.727C93.727 37.8555 90.0442 34.466 82.3858 34.466C74.7778 34.466 69.7855 39.3225 69.7855 47.6622C69.7855 56.2765 74.3119 61.0425 83.0877 61.0425C87.803 61.0425 91.6117 58.9513 92.7953 57.3595V54.8938C91.0231 55.4244 89.2006 55.7678 85.9333 55.7678C81.3219 55.7678 78.9453 53.3957 78.4984 48.4643V48.4861ZM40.9713 58.1117L43.6783 56.8758V29.3161L40.8296 28.0052V25.7049L51.3619 24.0195H52.0764V37.8087H52.3597C54.6576 35.7488 57.7423 34.4629 61.1733 34.4629C65.4857 34.4629 67.6261 36.5915 67.6261 41.2357V56.8727L70.3647 58.1117V60.4432H56.4203V58.1117L59.1588 56.8727V43.1303C59.1588 40.5585 58.0256 39.5971 55.7278 39.5971C54.4687 39.5971 53.2726 39.825 52.2338 40.2401V56.8758L54.9723 58.118V60.4495H40.9933V58.1086L40.9713 58.1117Z" fill="#9E9E9E"/>
<path d="M194.796 36.1194V38.4228L197.642 39.7337V56.8999L194.928 58.1484V60.4892H208.851V58.1796L206.137 56.9311V34.4589H205.423L194.796 36.1412V36.1194ZM209.534 58.1172L212.241 56.8999V39.7337L209.392 38.4228V36.1444L219.928 34.4901H220.642V37.861H220.925C223.223 35.801 226.308 34.5214 229.739 34.5214C234.051 34.5214 236.192 36.6437 236.192 41.2942V56.9311L238.93 58.1796V60.5205H224.986V58.2108L227.725 56.9873V43.1326C227.725 40.5608 226.591 39.5995 224.294 39.5995C223.034 39.5995 221.838 39.8273 220.8 40.2424V56.8781L223.507 58.1203V60.4518H209.594V58.1109L209.534 58.1172ZM182.967 29.3403L180.128 28.0606V25.751L190.748 24.0655H191.463V56.1196L194.17 57.5866V59.7714L184.097 60.9262H183.405V58.3044H183.121C182.051 59.6465 179.879 61.051 176.7 61.051C172.041 61.051 166.47 58.1172 166.47 48.4104C166.47 38.2043 172.167 34.5214 178.935 34.5214C180.351 34.5214 182.02 34.8335 183.058 35.5825V29.3403H182.967ZM182.967 55.9948V38.8566C182.306 38.3572 181.614 37.9421 180.071 37.9421C177.414 37.9421 175.381 40.3142 175.381 47.4616C175.381 53.7226 176.986 56.4505 180.348 56.4505C181.654 56.4505 182.388 56.1883 182.961 55.9573L182.967 55.9948ZM108.6 68.8851C103.961 68.8851 102.368 67.2621 102.368 65.5143C102.368 64.297 102.695 63.4543 103.35 62.674H112.33C114.43 62.674 115.384 63.2983 115.384 64.6091C115.39 67.2309 113.92 68.8851 108.6 68.8851ZM108.673 37.424C110.53 37.424 111.726 38.2355 111.726 43.2918C111.726 48.348 110.527 48.8755 108.701 48.8755C106.875 48.8755 105.698 48.4541 105.698 43.298C105.698 38.1481 106.863 37.4303 108.714 37.4303L108.673 37.424ZM114.307 54.996H105.179C104.203 54.996 103.385 54.247 103.385 53.373C103.385 52.6864 103.888 51.9685 104.518 51.5004C105.903 51.9061 107.036 52.031 108.736 52.031C115.314 52.031 119.816 49.0659 119.816 43.5415C119.816 41.0758 118.777 39.6712 117.14 38.2355V38.0482L121.358 39.5152L121.925 39.5464V34.4558H121.453L114.959 35.7355H114.597C112.979 35.1425 110.725 34.5182 108.679 34.5182C102.1 34.5182 97.5487 37.7549 97.5487 43.2512C97.5487 46.6002 99.2485 49.094 101.789 50.4735V50.7388C100.322 51.7625 97.5078 53.8662 97.5078 56.5597C97.5078 58.526 98.8173 60.4705 101.556 61.0542V61.3257C98.6756 61.9187 95.4492 62.8551 95.4492 66.1323C95.4492 69.5031 100.375 72 108.405 72C118.383 72 122.702 68.1922 122.702 62.1684C122.702 57.2058 119.932 54.8962 114.298 54.8962L114.307 54.996ZM147.237 36.1444V38.454L150.102 39.7649V56.9311L147.395 58.1796V60.5205H162.06V58.2108L158.566 56.9624V42.8205C160.014 42.1338 161.918 41.9029 164.2 41.9029C164.95 41.9029 165.837 41.9965 166.35 42.1307V34.7367C166.067 34.6431 165.51 34.5994 165.091 34.5994C162.29 34.5994 160.001 36.3878 158.506 39.7805H158.254V34.4371H157.53L147.237 36.1163V36.1444ZM135.528 55.5891V48.7225L133.576 48.9098C131.625 49.0971 130.019 50.408 130.019 52.8425C130.019 55.6515 131.562 56.5566 133.198 56.5566C134.143 56.5566 135.106 56.0884 135.572 55.5891H135.528ZM129.516 37.8922L127.721 43.0733H123.315V36.3909C125.707 35.6606 128.603 34.4683 133.073 34.4683C139.903 34.4683 143.995 36.4658 143.995 42.1463V56.8781L146.702 58.1265V60.0367C145.884 60.4799 143.995 61.0448 141.949 61.0448C139.305 61.0448 136.913 60.2021 136.535 57.4555H136.283C135.15 59.7027 132.128 61.076 128.968 61.076C124.445 61.076 121.602 58.1734 121.602 53.9598C121.602 48.7787 125.055 47.936 130.655 46.7812L135.559 45.9385V42.6332C135.559 39.381 134.571 37.7642 131.31 37.7642C130.885 37.7642 130.082 37.8204 129.572 37.8703L129.516 37.8922ZM201.721 24C204.239 24 206.27 26.0194 206.27 28.5132C206.27 31.0038 204.233 33.0263 201.718 33.0263C199.2 33.0263 197.154 31.0288 197.154 28.5319C197.154 26.035 199.2 24.0375 201.718 24.0375L201.721 24ZM237.574 59.0691L238.93 59.35L237.574 59.0691Z" fill="#3D3D3D"/>
</svg>
