<svg width="261" height="96" viewBox="0 0 261 96" fill="none" xmlns="http://www.w3.org/2000/svg">
<mask id="mask0_1012_9066" style="mask-type:alpha" maskUnits="userSpaceOnUse" x="0" y="0" width="261" height="96">
<rect width="261" height="96" rx="16" fill="#C4C4C4"/>
</mask>
<g mask="url(#mask0_1012_9066)">
</g>
<g clip-path="url(#clip0_1012_9066)">
<path d="M77.4679 69.149C77.1018 70.68 77.0352 70.8131 76.6359 70.8131H72.2759V71.1126H82.1274V70.8131H77.6343C77.3348 70.8131 77.4013 70.6134 77.7342 69.2155L80.7628 57.4669H92.7444L96.4055 70.8131H91.5463V71.1126H107.921V70.8131H102.829L89.2498 23.7188H89.1833L77.4679 69.149ZM86.554 34.9681L92.6446 57.1674H80.8294L86.554 34.9681ZM183.485 47.6154H187.246C190.574 47.6154 195.466 49.0465 195.466 54.8376V65.3548C195.466 69.6482 197.829 72.3774 202.023 72.3774C206.416 72.3774 206.35 67.9175 206.35 64.7224V61.3277H206.05V64.7224C206.05 68.3835 205.617 71.5453 203.454 71.5453C201.557 71.5453 201.158 70.3804 201.158 65.4214V54.8709C201.158 49.9784 197.197 48.1812 191.073 47.4823C198.695 46.5836 201.557 41.7244 201.557 36.3327C201.557 28.3783 197.896 25.0168 188.41 25.0168H173.4V25.3163H177.327C177.627 25.3163 177.76 25.3829 177.76 25.5493V70.5801C177.76 70.7465 177.627 70.8131 177.327 70.8131H173.4V71.1126H187.212V70.8131H183.884C183.584 70.8131 183.451 70.7465 183.451 70.5801V47.6154H183.485ZM183.485 25.3163H187.512C193.736 25.3163 195.5 30.0424 195.5 36.3327C195.5 42.1904 193.736 47.3491 187.512 47.3491H183.485V25.3163ZM130.786 70.5801C130.819 70.68 130.786 70.8131 130.553 70.8131H119.803C116.508 70.8131 112.215 65.9206 112.215 50.1448V48.514H111.915V71.1126H137.576L118.139 25.5493C118.105 25.4494 118.139 25.3163 118.372 25.3163H129.788C132.783 25.3163 137.143 30.7746 137.143 45.9846V47.6154H137.442V25.0168H111.316L130.786 70.5801ZM54.5697 25.3163C60.7935 25.3163 63.323 30.0424 63.323 36.3327C63.323 42.1904 60.7935 46.8832 54.5697 46.8832H51.7408V25.3163H54.5697ZM41.6562 25.0168V25.3163H45.5836C45.8831 25.3163 46.0162 25.3829 46.0162 25.5493V70.5801C46.0162 70.7465 45.8831 70.8131 45.5836 70.8131H41.6562V71.1126H56.3337C65.7859 71.1126 70.8447 67.1853 70.8447 59.2309C70.8447 53.706 67.8493 48.1146 58.4305 46.983C66.4182 46.2508 69.1806 41.2252 69.1806 36.2994C69.1806 29.1437 64.8872 24.9835 55.4018 24.9835L41.6562 25.0168ZM54.5697 47.1827C61.5923 47.1827 64.388 51.9754 64.388 59.2309C64.388 65.4879 61.8918 70.8464 56.0674 70.8464H52.1734C51.8739 70.8464 51.7408 70.7798 51.7408 70.6134V47.1827H54.5697ZM145.197 69.149C144.798 70.68 144.765 70.8131 144.365 70.8131H140.005V71.1126H149.857V70.8131H145.364C145.064 70.8131 145.131 70.6134 145.463 69.2155L148.492 57.4669H160.474L164.135 70.8131H159.276V71.1126H175.65V70.8131H170.558L156.979 23.7188H156.879L145.197 69.149ZM154.317 34.9681L160.407 57.1674H148.592L154.317 34.9681Z" fill="#3D3D3D"/>
<path d="M221.662 25.1511H207.55V25.4507H211.478C211.777 25.4507 211.91 25.5172 211.91 25.6836V70.7145C211.91 70.8809 211.777 70.9474 211.478 70.9474H208.254V71.247H221.362V70.9474H218.034C217.735 70.9474 217.602 70.8809 217.602 70.7145L217.634 48.2304L217.635 47.7497V25.4507H221.662V25.1511Z" fill="#3D3D3D"/>
</g>
<defs>
<clipPath id="clip0_1012_9066">
<rect width="181" height="48" fill="white" transform="translate(46 24.0117)"/>
</clipPath>
</defs>
</svg>
