<svg width="221" height="96" viewBox="0 0 221 96" fill="none" xmlns="http://www.w3.org/2000/svg">
<mask id="mask0_1012_9095" style="mask-type:alpha" maskUnits="userSpaceOnUse" x="0" y="0" width="221" height="96">
<rect width="221" height="96" rx="16" fill="#C4C4C4"/>
</mask>
<g mask="url(#mask0_1012_9095)">
</g>
<path d="M4.91576 53.3895V39.3693H1V35.5365L4.91576 35.0153V30.2337L13.3642 29.0571V35.0184H18.9672V39.388H13.3642V52.6841C13.3642 55.181 14.0662 56.4607 16.5434 56.4607C17.4248 56.4607 18.6272 56.367 19.241 56.2422V59.485C17.8875 60.2778 14.9916 60.952 12.316 60.952C7.27969 60.952 4.91891 58.7516 4.91891 53.3895H4.91576ZM61.2441 37.2407C63.3657 37.2407 64.5115 37.6152 64.5115 45.0498L57.4291 45.4618C57.5235 38.7201 58.5497 37.2407 61.2441 37.2407ZM57.4984 48.4861H72.727C72.727 37.8555 69.0442 34.466 61.3858 34.466C53.7778 34.466 48.7855 39.3225 48.7855 47.6622C48.7855 56.2765 53.3119 61.0425 62.0877 61.0425C66.803 61.0425 70.6117 58.9513 71.7953 57.3595V54.8938C70.0231 55.4244 68.2006 55.7678 64.9333 55.7678C60.3219 55.7678 57.9453 53.3957 57.4984 48.4643V48.4861ZM19.9713 58.1117L22.6783 56.8758V29.3161L19.8296 28.0052V25.7049L30.3619 24.0195H31.0764V37.8087H31.3597C33.6576 35.7488 36.7423 34.4629 40.1733 34.4629C44.4857 34.4629 46.6261 36.5915 46.6261 41.2357V56.8727L49.3647 58.1117V60.4432H35.4203V58.1117L38.1588 56.8727V43.1303C38.1588 40.5585 37.0256 39.5971 34.7278 39.5971C33.4687 39.5971 32.2726 39.825 31.2338 40.2401V56.8758L33.9723 58.118V60.4495H19.9933V58.1086L19.9713 58.1117Z" fill="#F1EEED"/>
<path d="M173.796 36.1194V38.4228L176.642 39.7337V56.8999L173.928 58.1484V60.4892H187.851V58.1796L185.137 56.9311V34.4589H184.423L173.796 36.1412V36.1194ZM188.534 58.1172L191.241 56.8999V39.7337L188.392 38.4228V36.1444L198.928 34.4901H199.642V37.861H199.925C202.223 35.801 205.308 34.5214 208.739 34.5214C213.051 34.5214 215.192 36.6437 215.192 41.2942V56.9311L217.93 58.1796V60.5205H203.986V58.2108L206.725 56.9873V43.1326C206.725 40.5608 205.591 39.5995 203.294 39.5995C202.034 39.5995 200.838 39.8273 199.8 40.2424V56.8781L202.507 58.1203V60.4518H188.594V58.1109L188.534 58.1172ZM161.967 29.3403L159.128 28.0606V25.751L169.748 24.0655H170.463V56.1196L173.17 57.5866V59.7714L163.097 60.9262H162.405V58.3044H162.121C161.051 59.6465 158.879 61.051 155.7 61.051C151.041 61.051 145.47 58.1172 145.47 48.4104C145.47 38.2043 151.167 34.5214 157.935 34.5214C159.351 34.5214 161.02 34.8335 162.058 35.5825V29.3403H161.967ZM161.967 55.9948V38.8566C161.306 38.3572 160.614 37.9421 159.071 37.9421C156.414 37.9421 154.381 40.3142 154.381 47.4616C154.381 53.7226 155.986 56.4505 159.348 56.4505C160.654 56.4505 161.388 56.1883 161.961 55.9573L161.967 55.9948ZM87.6004 68.8851C82.9606 68.8851 81.3679 67.2621 81.3679 65.5143C81.3679 64.297 81.6953 63.4543 82.35 62.674H91.3304C93.43 62.674 94.3837 63.2983 94.3837 64.6091C94.39 67.2309 92.92 68.8851 87.6004 68.8851ZM87.6728 37.424C89.5299 37.424 90.7261 38.2355 90.7261 43.2918C90.7261 48.348 89.5268 48.8755 87.7011 48.8755C85.8754 48.8755 84.6982 48.4541 84.6982 43.298C84.6982 38.1481 85.8628 37.4303 87.7137 37.4303L87.6728 37.424ZM93.3072 54.996H84.1788C83.203 54.996 82.3846 54.247 82.3846 53.373C82.3846 52.6864 82.8882 51.9685 83.5178 51.5004C84.9028 51.9061 86.036 52.031 87.7357 52.031C94.3145 52.031 98.8157 49.0659 98.8157 43.5415C98.8157 41.0758 97.7769 39.6712 96.1401 38.2355V38.0482L100.358 39.5152L100.925 39.5464V34.4558H100.453L93.9588 35.7355H93.5968C91.9789 35.1425 89.7251 34.5182 87.6791 34.5182C81.1003 34.5182 76.5487 37.7549 76.5487 43.2512C76.5487 46.6002 78.2485 49.094 80.7887 50.4735V50.7388C79.3219 51.7625 76.5078 53.8662 76.5078 56.5597C76.5078 58.526 77.8173 60.4705 80.5558 61.0542V61.3257C77.6756 61.9187 74.4492 62.8551 74.4492 66.1323C74.4492 69.5031 79.3754 72 87.4052 72C97.3835 72 101.702 68.1922 101.702 62.1684C101.702 57.2058 98.9322 54.8962 93.2977 54.8962L93.3072 54.996ZM126.237 36.1444V38.454L129.102 39.7649V56.9311L126.395 58.1796V60.5205H141.06V58.2108L137.566 56.9624V42.8205C139.014 42.1338 140.918 41.9029 143.2 41.9029C143.95 41.9029 144.837 41.9965 145.35 42.1307V34.7367C145.067 34.6431 144.51 34.5994 144.091 34.5994C141.29 34.5994 139.001 36.3878 137.506 39.7805H137.254V34.4371H136.53L126.237 36.1163V36.1444ZM114.528 55.5891V48.7225L112.576 48.9098C110.625 49.0971 109.019 50.408 109.019 52.8425C109.019 55.6515 110.562 56.5566 112.198 56.5566C113.143 56.5566 114.106 56.0884 114.572 55.5891H114.528ZM108.516 37.8922L106.721 43.0733H102.315V36.3909C104.707 35.6606 107.603 34.4683 112.073 34.4683C118.903 34.4683 122.995 36.4658 122.995 42.1463V56.8781L125.702 58.1265V60.0367C124.884 60.4799 122.995 61.0448 120.949 61.0448C118.305 61.0448 115.913 60.2021 115.535 57.4555H115.283C114.15 59.7027 111.128 61.076 107.968 61.076C103.445 61.076 100.602 58.1734 100.602 53.9598C100.602 48.7787 104.055 47.936 109.655 46.7812L114.559 45.9385V42.6332C114.559 39.381 113.571 37.7642 110.31 37.7642C109.885 37.7642 109.082 37.8204 108.572 37.8703L108.516 37.8922ZM180.721 24C183.239 24 185.27 26.0194 185.27 28.5132C185.27 31.0038 183.233 33.0263 180.718 33.0263C178.2 33.0263 176.154 31.0288 176.154 28.5319C176.154 26.035 178.2 24.0375 180.718 24.0375L180.721 24ZM216.574 59.0691L217.93 59.35Z" fill="#C7B9B6"/>
</svg>
