<svg width="348" height="424" viewBox="0 0 348 424" fill="none" xmlns="http://www.w3.org/2000/svg">
<g clip-path="url(#clip0_1491_13911)">
<path opacity="0.1" d="M276.002 198.349C242.037 177.614 199.762 157.904 178.072 123.079C178.225 122.912 178.365 122.735 178.491 122.547C201.467 86.6392 220.11 48.1556 234.032 7.89472C234.305 6.88841 234.283 5.82538 233.97 4.83085C233.657 3.83632 233.065 2.95173 232.263 2.28129C231.462 1.61084 230.485 1.18247 229.448 1.04664C228.411 0.9108 227.356 1.07316 226.408 1.51459C180.74 19.5536 144.984 52.2898 107.398 82.6713C78.9221 58.8218 50.5609 34.2887 26.8122 5.54015C25.0205 3.22355 20.0649 3.52737 20.5605 7.32506C25.8211 46.8591 46.6727 81.8738 55.3259 120.648C55.4525 121.275 55.7256 121.862 56.123 122.364C56.5204 122.865 57.0309 123.266 57.6131 123.534C36.4946 126.573 15.6812 138.27 -2.99762 147.954C-21.9187 157.181 -39.4886 168.936 -55.2219 182.892C-55.5766 183.388 -55.8182 183.956 -55.9297 184.554C-56.0412 185.153 -56.0199 185.769 -55.8674 186.359C-55.7148 186.948 -55.4347 187.498 -55.0467 187.968C-54.6586 188.439 -54.172 188.819 -53.6209 189.083C-16.1109 203.21 33.4069 215.667 73.5853 209.248C74.0403 209.194 74.4735 209.024 74.8433 208.755C90.4725 247.567 124.742 275.025 140.295 313.837C140.84 314.941 141.731 315.838 142.833 316.393C143.935 316.947 145.189 317.129 146.404 316.91C147.619 316.691 148.729 316.083 149.567 315.179C150.404 314.275 150.923 313.124 151.045 311.9C150.702 272.936 144.679 234.047 150.473 195.273C191.147 201.197 231.745 207.729 272.991 206.172C276.955 206.02 280.272 201.007 276.002 198.349ZM145.784 184.943C144.394 184.743 142.979 185.085 141.835 185.899C140.692 186.713 139.908 187.935 139.647 189.311C133.853 222.199 137.36 255.201 138.999 288.354C121.693 260.517 97.5246 237.048 85.1357 206.286C84.6742 205.417 84.0141 204.669 83.2086 204.102C82.4031 203.534 81.4749 203.163 80.499 203.019C79.5231 202.875 78.5268 202.961 77.5907 203.272C76.6545 203.582 75.8048 204.107 75.1101 204.805C74.7997 203.99 74.2874 203.267 73.6209 202.703C72.9543 202.138 72.1553 201.751 71.2981 201.577C31.2341 199.147 -7.49577 197.4 -46.1875 184.601C-15.6916 157.524 23.9913 142.827 60.5483 125.699C61.3869 125.319 62.2256 122.965 60.5483 123.117C60.8523 122.752 61.0687 122.323 61.181 121.862C61.2933 121.402 61.2986 120.921 61.1964 120.458C56.8126 85.4816 37.9051 54.6063 30.7004 20.3512C53.0006 46.3274 78.6934 69.2275 104.424 91.7858C105.444 92.7265 106.756 93.2921 108.142 93.3888C109.529 93.4855 110.907 93.1075 112.048 92.3174C146.433 64.8221 179.292 34.1368 219.547 15.2622C205.928 51.374 188.606 85.9896 167.856 118.56C165.492 122.357 170.067 125.243 174.069 124.94C189.661 156.992 226.294 177.804 256.828 197.096C219.623 196.526 182.723 190.298 145.784 184.943Z" fill="#0D0D0D"/>
<path opacity="0.1" d="M432.903 126C421.793 109.066 377.776 90.6933 382.488 68.4564C384.94 57.0917 397.39 45.727 404.171 36.4459C411.48 27.5087 416.053 16.6911 417.349 5.26876C417.315 4.2653 417.001 3.29076 416.442 2.45249C415.883 1.61421 415.101 0.944732 414.182 0.517775C413.263 0.0908187 412.243 -0.0770467 411.233 0.0326681C410.224 0.142383 409.265 0.525421 408.462 1.13959C387.851 17.9972 370.153 38.6809 348.125 53.8338C347.678 54.1356 347.31 54.5381 347.052 55.0082C329.123 39.628 312.191 23.869 287.941 18.9443C284.11 18.1109 279.398 21.8991 281.007 25.9525C288.065 44.4846 296.65 62.4126 306.674 79.5559C285.413 89.5947 259.209 84.9352 236.377 88.0037C229.903 88.875 228.715 97.5121 235.917 98.194C256.757 100.202 278.287 99.8229 298.361 106.339C324.565 114.824 315.715 157.518 326.902 177.898C327.559 178.947 328.502 179.791 329.623 180.333C330.743 180.875 331.996 181.094 333.237 180.963C334.477 180.833 335.655 180.358 336.636 179.595C337.616 178.832 338.358 177.81 338.777 176.648C344.332 157.177 351.113 138.16 358.507 119.294C381.99 125.772 404.094 134.031 429.034 133.197C429.922 133.31 430.823 133.152 431.618 132.746C432.413 132.339 433.064 131.703 433.485 130.921C433.905 130.139 434.074 129.25 433.97 128.371C433.866 127.491 433.494 126.664 432.903 126ZM349.006 110.847C343.03 125.734 337.513 140.774 332.533 156.002C328.702 136.038 330.426 114.332 312.038 100.959C307.227 97.642 301.875 95.1688 296.216 93.6481C304.019 92.1435 311.506 89.3382 318.359 85.3519C320.197 84.2533 321.883 81.5637 320.542 79.2907C311.336 64.4646 303.453 48.874 296.982 32.6955C316.137 40.5372 330.771 56.5614 346.784 69.5171C351.956 73.7221 360.805 66.4487 354.791 61.524L353.909 60.8042C371.493 49.4395 386.396 34.2866 401.949 20.1565C391.069 39.0976 369.003 54.2506 371.685 76.1465C374.175 96.2999 402.332 108.839 417.656 123.689C396.777 121.946 377.508 113.764 357.281 108.081C354.561 107.134 350.232 107.627 349.006 110.657V110.847Z" fill="#C7B9B6"/>
<path opacity="0.1" d="M152.79 344.728C120.699 336.026 87.7662 333.278 55.0246 329.652C53.4181 307.821 52.7296 285.951 50.8554 264.158C50.3964 259.005 42.211 258.814 39.9926 262.631C30.2166 280.387 21.667 298.788 14.4036 317.706C3.84676 314.576 -17.6112 306.256 -20.6712 305.34C-39.5433 299.53 -58.8787 295.342 -78.4662 292.821C-82.2912 292.401 -89.9411 297.096 -85.8101 301.638C-68.7992 319.897 -49.6669 336.066 -28.8183 349.804C-44.1181 372.399 -59.9152 393.963 -80.6847 411.94C-86.6134 417.054 -78.6575 423.123 -73.0348 420.184C-45.0361 405.452 -12.4858 404.497 12.2999 384.422C34.4557 410.411 50.9934 440.686 60.8768 473.351C62.9423 480.488 75.0674 476.137 73.4226 469.038C69.2534 451.443 41.7138 385.948 63.0188 375.643C91.0174 362.132 125.327 367.628 153.708 354.652C154.755 354.239 155.64 353.499 156.229 352.543C156.819 351.586 157.081 350.465 156.978 349.346C156.875 348.228 156.41 347.174 155.655 346.341C154.9 345.508 153.895 344.942 152.79 344.728ZM47.413 373.735C41.4078 382.628 42.3258 394.956 44.2383 405.91C36.716 394.191 28.2882 383.076 19.0318 372.666C18.4063 371.95 17.6417 371.368 16.7841 370.955C15.9266 370.542 14.994 370.307 14.0429 370.264C13.0917 370.221 12.1417 370.372 11.2504 370.706C10.3591 371.04 9.54504 371.551 8.85744 372.208C-8.0871 388.964 -30.8073 393.849 -52.839 400.604C-38.9812 384.843 -26.3115 368.081 -14.9338 350.453C-14.2024 349.437 -13.8862 348.181 -14.0496 346.94C-14.213 345.699 -14.8437 344.567 -15.8135 343.774C-32.7609 332.931 -48.6302 320.496 -63.2047 306.638C-42.3913 310.523 -21.9254 316.075 -2.00542 323.24C5.03249 325.721 21.4415 334.309 27.179 324.919C28.7089 322.439 26.6052 319.271 24.0425 318.278C29.3592 306.447 34.5229 294.615 40.6045 283.203C41.4078 300.302 41.8668 317.553 43.129 334.461C43.2854 335.65 43.8382 336.753 44.6986 337.59C45.5589 338.428 46.6767 338.953 47.872 339.079C75.6794 342.324 103.831 344.346 131.141 350.529C116.606 353.888 101.001 355.033 86.8482 357.629C74.4171 360.033 55.1776 362.247 47.413 373.735Z" fill="#FF8870"/>
</g>
<defs>
<clipPath id="clip0_1491_13911">
<rect width="348" height="424" rx="16" fill="white"/>
</clipPath>
</defs>
</svg>
