<svg width="348" height="424" viewBox="0 0 348 424" fill="none" xmlns="http://www.w3.org/2000/svg">
<g clip-path="url(#clip0_1491_13895)">
<g opacity="0.12">
<path d="M41.2322 222.686C39.3961 229.538 32.3525 233.605 25.5 231.769C18.6474 229.932 14.5808 222.889 16.4169 216.036C18.2531 209.184 25.2966 205.117 32.1492 206.953C39.0017 208.789 43.0683 215.833 41.2322 222.686Z" fill="#0D0D0D"/>
<path d="M15.0885 58.3151C6.28908 74.6975 31.011 91.3946 37.6372 76.1776C45.9919 56.9912 56.4742 47.24 81.9788 54.074C107.483 60.9079 108.032 91.9467 103.565 108.619C94.8839 141.017 57.2287 146.442 47.3936 144.546C40.3864 143.195 36.635 146.096 35.5268 150.232L27.7694 179.183C26.6612 183.319 28.6797 186.815 32.8156 187.923L41.0874 190.139C45.2233 191.247 48.7192 189.229 49.8274 185.093L54.2602 168.55C56.1072 161.657 60.508 161.872 65.4379 162.679C79.5934 164.994 124.51 160.043 136.332 115.921C148.153 71.8052 116.342 51.55 85.3033 41.6665C56.0323 32.3458 26.8832 36.3561 15.0885 58.3151Z" fill="#0D0D0D"/>
</g>
<g opacity="0.1">
<path d="M375.443 474.467C380.622 483.437 377.548 494.906 368.579 500.085C359.609 505.263 348.14 502.19 342.962 493.22C337.783 484.251 340.856 472.782 349.826 467.603C358.795 462.425 370.264 465.498 375.443 474.467Z" fill="white"/>
<path d="M178.771 331.773C186.599 357.768 229.357 349.484 220.488 326.935C209.306 298.504 210.061 277.616 243.445 258.342C276.829 239.068 309.437 270.543 322.037 292.366C346.52 334.773 313.249 379.246 301.138 387.441C292.51 393.28 291.632 400.148 294.758 405.561L316.636 443.456C319.762 448.87 325.455 450.395 330.868 447.269L341.695 441.018C347.109 437.893 348.634 432.2 345.509 426.787L333.007 405.132C327.797 396.11 332.563 391.789 338.485 387.533C355.488 375.31 396.745 323.83 363.401 266.078C330.062 208.334 276.313 220.263 234.069 242.102C194.229 262.697 168.278 296.928 178.771 331.773Z" fill="white"/>
</g>
<g opacity="0.2">
<path d="M299.523 116.101C300.448 119.554 298.399 123.104 294.946 124.029C291.492 124.954 287.943 122.905 287.018 119.452C286.092 115.998 288.142 112.449 291.595 111.523C295.048 110.598 298.598 112.647 299.523 116.101Z" fill="#734F48"/>
<path d="M246.696 50.9518C246.984 60.3188 261.98 61.3767 261.038 53.0659C259.85 42.5872 261.968 35.6902 274.821 32.2463C287.674 28.8023 295.734 42.2103 297.985 50.6123C302.36 66.939 287.293 78.7951 282.523 80.4456C279.124 81.6215 278.218 83.8329 278.777 85.9172L282.686 100.507C283.245 102.591 285.006 103.608 287.091 103.05L291.259 101.933C293.343 101.374 294.361 99.6128 293.802 97.5285L291.568 89.1914C290.637 85.7177 292.612 84.7029 294.967 83.8127C301.729 81.2565 320.084 67.7777 314.126 45.5428C308.169 23.3106 289.182 22.4862 273.145 25.9936C258.022 29.3013 246.311 38.3963 246.696 50.9518Z" fill="#734F48"/>
</g>
</g>
<defs>
<clipPath id="clip0_1491_13895">
<rect width="348" height="424" fill="white"/>
</clipPath>
</defs>
</svg>
