<svg width="348" height="424" viewBox="0 0 348 424" fill="none" xmlns="http://www.w3.org/2000/svg">
<path opacity="0.15" d="M-68.0306 310.149C-6.50219 391.586 103.881 327.338 147.493 261.68C170.715 226.874 182.2 182.694 166.849 142.494C145.6 87.0296 79.1749 65.1011 25.9644 54.6325C23.8779 54.2367 22.2942 58.4009 24.6273 58.8732C103.337 74.9271 190.965 122.347 164.616 215.632C146.881 277.952 84.8278 334.045 19.8223 341.846C-13.664 345.796 -43.9512 331.446 -64.8075 305.681C-101.45 260.683 -95.0778 206.246 -65.7842 159.184C-51.7508 136.818 -31.0636 116.821 -5.66635 108.479C28.1754 97.3705 57.188 122.873 72.9751 150.075C101.877 200.039 60.3064 262.673 10.539 278.403C-27.3742 290.371 -48.5676 258.672 -37.4154 224.531C-31.7908 207.268 -14.5001 182.092 7.38094 190.627C10.44 191.859 13.1889 193.745 15.4335 196.151C17.6781 198.558 19.3637 201.425 20.3712 204.551C5.42414 206.088 -8.01336 215.676 -19.5281 226.388C-20.3061 227.092 -20.8874 227.985 -21.2149 228.978C-21.5425 229.972 -21.6051 231.033 -21.3967 232.058C-21.1883 233.082 -20.716 234.035 -20.026 234.823C-19.336 235.611 -18.4519 236.207 -17.4604 236.553C-1.31658 242.014 13.9651 243.733 28.1867 233.149C32.9054 229.313 35.9968 223.848 36.8429 217.847C43.0669 216.699 46.4823 209.124 38.6132 206.542L36.9956 206.064C36.3687 202.024 34.8792 198.164 32.627 194.746C9.16007 160.501 -32.2804 178.291 -47.6363 210.016C-65.0048 245.713 -55.88 283.399 -13.094 290.972C22.7032 297.228 56.7488 268.532 74.2091 240.694C117.194 172.251 50.7111 64.8393 -28.6477 115.114C-60.6635 135.361 -84.5028 175.113 -92.3803 211.258C-100.258 247.403 -90.6539 280.463 -68.0306 310.149ZM1.23872 227.068C7.05817 222.109 14.0315 218.676 21.5229 217.082C19.4862 225.464 10.2071 227.74 1.23872 227.068Z" fill="#0D0D0D"/>
<path opacity="0.1" d="M264.043 109.571C272.754 95.2923 269.619 76.4811 258.595 63.7277C247.023 50.287 224.997 50.8627 212.456 62.6437C209.171 65.5221 206.766 69.2655 205.513 73.4491C204.26 77.6327 204.21 82.0889 205.369 86.3118C206.528 90.5348 208.848 94.3554 212.068 97.34C215.287 100.325 219.277 102.354 223.583 103.197C229.743 104.678 241.541 103.314 242.658 96.4602C244.067 87.7002 235.583 83.2617 226.702 80.9541C221.579 79.6242 220.315 86.4531 224.291 88.2371C226.789 89.0199 229.005 90.5168 230.664 92.5417C230.808 92.6403 230.957 92.7312 231.11 92.8142C230.296 93.9223 229.326 94.9071 228.23 95.7384C224.735 95.76 221.303 94.7793 218.342 92.9129C210.113 88.3736 211.679 77.4004 214.929 71.1743C219.05 63.2029 230.69 59.4018 240.437 61.0833C257.152 63.8732 262.75 82.2951 262.056 94.3772C260.633 116.853 233.48 126.838 210.347 118.178C182.768 107.766 175.696 79.1775 182.87 56.8435C191.878 27.6439 228.315 23.4827 256.954 35.278C288.153 47.8982 304.86 75.9192 300.401 104.431C300.255 105.304 302.197 106.296 302.542 105.256C313.382 70.5684 286.188 37.8491 246.864 27.3911C207.54 16.9331 177.832 39.565 174.07 72.0612C171.77 91.693 183.116 112.852 204.234 122.753C225.352 132.654 252.326 128.46 264.043 109.571Z" fill="#FF8870"/>
<path opacity="0.1" d="M241.07 364.609C309.785 412.732 412.233 367.83 401.451 280.263C400.509 272.633 392.172 276.566 392.885 283.068C400.8 353.717 326.403 381.785 268.719 362.316C211.034 342.847 187.269 250.218 232.033 206.984C258.241 181.732 308.017 195.853 325.763 224.108C336.412 241.01 330.038 259.032 318.378 273.352C285.241 314.161 241.703 268.587 281.522 252.038C281.321 253.16 281.342 254.31 281.586 255.423C281.83 256.536 282.291 257.591 282.943 258.526C283.596 259.462 284.426 260.26 285.388 260.876C286.35 261.491 287.424 261.911 288.548 262.113C308.571 263.976 310.873 249.225 303.105 233.873C301.649 231.75 299.598 230.102 297.209 229.136C294.819 228.17 292.196 227.929 289.67 228.443C259.646 233.69 217.433 262.435 249.15 295.112C279.118 326.063 322.408 307.81 344.099 276.68C384.504 218.943 307.921 172.314 256.215 176.577C160.907 184.483 184.036 324.631 241.07 364.609Z" fill="#CFCFCF"/>
</svg>
