<svg width="348" height="424" viewBox="0 0 348 424" fill="none" xmlns="http://www.w3.org/2000/svg">
<g clip-path="url(#clip0_1491_13908)">
<path opacity="0.07" d="M319.914 112.631C315.786 78.0374 294.949 43.2476 248.69 37.1005C189.719 29.1224 143.853 74.2445 116.727 113.939C108.864 84.119 94.6456 51.1603 64.8326 34.8117C18.9665 9.83113 -37.973 31.0189 -59.0059 68.9475C-83.7081 113.546 -51.9294 173.578 -30.831 214.711C5.03351 284.087 36.0772 355.841 62.0807 429.466C65.1602 438.229 85.6689 439.864 90.7797 431.624C160.3 320.846 336.426 250.809 319.914 112.631ZM283.417 176.063C270.313 224.586 218.681 265.13 177.991 300.312C143.002 330.59 108.864 360.671 81.8686 395.33C65.0665 348.312 44.8763 302.569 21.4564 258.46C0.685585 220.728 -22.6406 184.172 -37.5143 144.413C-53.5019 100.206 -34.8279 12.6431 52.1212 42.2013C86.5207 53.9069 103.098 91.3124 111.092 122.048C107.554 127.606 104.54 132.969 101.525 137.939C93.5972 152.194 123.541 159.061 130.487 146.636C148.768 113.939 218.025 20.6212 270.182 72.5442C296.915 98.8981 291.673 145.72 283.417 175.998V176.063Z" fill="#0D0D0D"/>
<path opacity="0.1" d="M393.441 206.496C391.319 188.738 380.606 170.88 356.823 167.725C326.504 163.629 302.922 186.791 288.975 207.167C284.933 191.86 277.622 174.942 262.294 166.55C238.713 153.727 209.438 164.603 198.624 184.072C185.924 206.966 202.263 237.781 213.11 258.895C231.549 294.507 247.51 331.34 260.88 369.133C262.463 373.631 273.007 374.47 275.635 370.241C311.378 313.376 401.931 277.425 393.441 206.496ZM374.677 239.057C367.94 263.964 341.394 284.776 320.473 302.836C302.484 318.378 284.933 333.819 271.053 351.61C262.415 327.475 252.034 303.994 239.993 281.352C229.314 261.984 217.321 243.219 209.674 222.81C201.454 200.118 211.055 155.17 255.759 170.343C273.445 176.352 281.968 195.553 286.078 211.33C284.259 214.183 282.709 216.935 281.16 219.487C277.083 226.804 292.479 230.329 296.05 223.951C305.449 207.167 341.057 159.266 367.872 185.919C381.617 199.446 378.922 223.481 374.677 239.023V239.057Z" fill="#FEF7F6"/>
</g>
<defs>
<clipPath id="clip0_1491_13908">
<rect width="348" height="424" rx="16" fill="white"/>
</clipPath>
</defs>
</svg>
