<svg width="1792" height="632" viewBox="0 0 1792 632" fill="none" xmlns="http://www.w3.org/2000/svg">
<path d="M1634.68 87.6447C1634.12 83.7966 1635.33 79.4497 1640.09 77.4647C1646.15 74.9188 1652.35 78.4732 1656.39 81.978C1656.37 78.5379 1656.93 74.5776 1659.64 71.9626C1663.81 67.958 1670.5 68.6151 1673.84 72.1037C1677.76 76.2066 1676.1 83.588 1675.04 88.6263C1673.22 97.1321 1671.98 105.756 1671.33 114.439C1671.26 115.471 1669.12 116.234 1668.34 115.492C1657.72 105.534 1636.91 103.016 1634.68 87.6447ZM1640.4 93.4413C1643.2 98.2988 1649.88 101.195 1655.24 103.825C1659.85 106.09 1664.36 108.358 1668.24 111.323C1668.67 105.773 1669.5 100.264 1670.73 94.8382C1671.85 90.1759 1673.29 85.5675 1673.72 80.8552C1674.15 75.6315 1669.63 66.7236 1661.21 72.3961C1657.88 74.6415 1657.19 79.1487 1657.22 82.6913C1657.76 83.1895 1658.24 83.6816 1658.7 84.1313C1659.96 85.4419 1656.97 87.0382 1655.87 85.8969C1652.97 82.8938 1642.89 74.8112 1638.82 81.9008C1636.73 85.5066 1638.64 90.4055 1640.4 93.4343L1640.4 93.4413Z" fill="#F36A4F"/>
<path d="M1762.01 74.6353C1763.09 67.1593 1760.73 58.7143 1751.48 54.8578C1739.71 49.9118 1727.67 56.8172 1719.82 63.6261C1719.87 56.9427 1718.77 49.2489 1713.51 44.1685C1705.41 36.3885 1692.42 37.6651 1685.93 44.4426C1678.31 52.4136 1681.52 66.754 1683.59 76.5423C1687.12 93.067 1689.53 109.822 1690.79 126.689C1690.93 128.696 1695.09 130.178 1696.61 128.735C1717.24 109.39 1757.67 104.498 1762.01 74.6353ZM1750.88 85.8967C1745.44 95.3337 1732.47 100.96 1722.06 106.07C1713.11 110.47 1704.34 114.876 1696.8 120.637C1695.96 109.855 1694.34 99.1512 1691.97 88.6106C1689.78 79.5528 1687 70.5997 1686.15 61.4447C1685.32 51.2964 1694.1 33.9903 1710.46 45.0107C1716.93 49.373 1718.27 58.1294 1718.2 65.0119C1717.15 65.9798 1716.23 66.9358 1715.33 67.8095C1712.88 70.3557 1718.7 73.4569 1720.84 71.2398C1726.46 65.4054 1746.05 49.7028 1753.95 63.4761C1758.01 70.4814 1754.3 79.9988 1750.89 85.883L1750.88 85.8967Z" fill="#F36A4F"/>
<g clip-path="url(#clip0_980_21076)">
<path opacity="0.07" d="M911.368 104.714C963.361 -54.7464 1073.34 -238.876 1240.57 -295.425C1282.66 -308.376 1327.3 -310.764 1370.53 -302.378C1413.77 -293.992 1454.29 -275.09 1488.49 -247.34C1602.06 -233.997 1736.55 -153.083 1772.77 -47.9489C1785.01 -13.3779 1788.43 23.6961 1782.74 59.9196C1777.04 96.1431 1762.4 130.373 1740.15 159.513C1728.76 258.058 1654.72 347.235 1574.9 408.305C1463.43 493.164 1291.5 563.748 1186.71 432.107C995.014 439.097 832.806 346.238 911.368 104.714ZM1396.15 122.52C1399.09 111.142 1401.4 99.6091 1403.06 87.9752C1409.78 37.6222 1397.2 7.5804 1372.31 -9.4968C1357.39 -12.7967 1341.96 -13.0303 1326.96 -10.1835C1311.95 -7.33663 1297.68 -1.46872 1285.02 7.06376C1293.12 14.5943 1299.63 23.6698 1304.17 33.7555C1308.71 43.8411 1311.18 54.7329 1311.45 65.7889C1311.71 76.8449 1309.76 87.8415 1305.71 98.1307C1301.65 108.42 1295.58 117.793 1287.85 125.699C1299.94 139.005 1314.12 150.252 1329.82 158.998C1331.55 160.641 1333.44 160.382 1335.57 161.171C1356.55 149.569 1376.78 136.66 1396.15 122.52ZM1106.04 312.291C1094.91 297.294 1085.19 281.308 1076.98 264.536C1064.36 246.266 1056.1 225.339 1052.85 203.372C1049.93 193.466 1047.35 183.482 1045.12 173.418C1030.99 150.749 1021.59 125.455 1017.49 99.0593C1000.36 142.36 994.528 189.308 1000.54 235.488C1011.08 284.558 1055.04 304.945 1106.04 312.291Z" fill="#F36A4F"/>
</g>
<g clip-path="url(#clip1_980_21076)">
<path opacity="0.2" d="M1252.15 483.088C1254.51 323.381 1134.09 215.63 989.481 155.703C787.023 -29.9824 485.107 68.3216 370.892 288.546C316.484 320.564 272.588 367.755 244.577 424.342C231.971 449.595 222.078 476.116 215.065 503.457C206.895 528.393 203.198 554.578 204.145 580.802C200.013 732.833 300.357 862.429 440.247 932.393C517.571 1040.73 636.508 1097.41 792.335 1039.85C851.26 1017.68 902.51 978.924 939.899 928.26C1111.66 841.469 1249.19 665.231 1252.15 483.088ZM879.988 711.283C846.206 756.566 798.686 789.704 744.525 805.749C706.611 795.27 671.916 775.483 643.591 748.184C693.518 733.756 739.744 708.722 779.115 674.792C818.487 640.861 850.075 598.833 871.725 551.576C895.428 569.854 914.278 593.676 926.619 620.95C915.587 653.185 899.875 683.622 879.988 711.283ZM796.762 501.391C776.718 548.132 746.465 589.792 708.224 623.311C688.304 637.93 665.494 648.126 641.318 653.217C617.143 658.308 592.159 658.177 568.038 652.832C535.388 601.525 511.175 545.312 496.322 486.335C523.161 455.199 558.097 432.107 597.256 419.618C667.731 435.938 735.103 463.552 796.762 501.391ZM845.753 414.895C854.734 421.335 863.218 428.44 871.135 436.15C854.017 422.57 832.473 417.552 821.258 432.017C798.112 417.142 774.17 403.542 749.542 391.278C772.642 390.018 795.804 392.106 818.307 397.478C827.751 403.087 837.195 408.696 845.753 414.895ZM546.494 752.907C532.688 758.596 519.278 765.203 506.356 772.686C488.397 755.042 472.73 735.205 459.726 713.645C484.699 734.127 514.626 747.669 546.494 752.907ZM558.299 815.786C567.153 811.654 579.843 806.34 595.78 800.141C606.405 810.768 616.734 820.215 627.359 829.661L591.648 833.794C580.154 828.52 569.014 822.505 558.299 815.786ZM1038.77 537.111C1033.3 508.936 1023.33 481.825 1009.25 456.814C1023.7 466.353 1037.06 477.44 1049.1 489.878C1046.96 505.905 1043.81 521.78 1039.65 537.406L1038.77 537.111ZM317.179 530.911C316.511 600.05 329.032 668.682 354.07 733.128C359.088 755.874 365.294 778.34 372.663 800.436C336.418 766.944 311.574 722.935 301.622 674.592C291.67 626.249 297.111 576.002 317.179 530.911ZM936.948 344.045C910.415 310.023 876.509 282.467 837.785 263.454C776.977 233.153 711.546 213.199 644.181 204.412C740.022 180.357 840.871 185.601 933.702 219.468C945.507 223.305 955.541 227.734 966.461 232.162C1011.97 276.972 1040.98 335.857 1048.8 399.249C1013.94 375.985 976.381 357.051 936.948 342.864V344.045ZM1157.11 527.074C1147.65 500.097 1133.01 475.229 1114.03 453.862C1114.18 402.017 1105.19 350.551 1087.46 301.831C1119.03 328.86 1142.32 364.264 1154.64 403.96C1166.97 443.655 1167.82 486.027 1157.11 526.188V527.074Z" fill="#3D3D3D"/>
</g>
<g clip-path="url(#clip2_980_21076)">
<path d="M79.4985 509.083C77.7113 505.401 78.8228 500.667 80.2142 496.701C78.0032 497.936 75.2204 498.824 73.833 496.469C71.9579 493.29 73.6291 489.324 75.6522 486.653C80.9539 479.68 91.1453 481.603 99.6615 482.451C91.6451 479.904 82.3612 478.449 79.2866 469.929C77.9112 466.106 79.0347 462.304 82.6331 460.409C86.1036 458.578 90.4416 459.797 93.5403 461.976C92.5727 454.283 100.429 446.899 108.014 450.157C108.222 450.168 108.418 450.258 108.562 450.409C108.741 450.501 108.917 450.589 109.089 450.681C120.784 457.378 107.326 472.371 107.31 481.319C111.388 473.243 113.535 460.301 124.554 459.597C131.695 459.141 129.7 469.749 127.725 474.962C131.135 473.903 134.53 474.275 136.973 477.405C139.076 480.1 138.616 484.11 136.745 486.773C133.954 490.747 128.205 490.699 124.027 489.624C118.841 488.292 114.511 485.266 109.389 485.014C113.088 491.565 117.459 497.713 122.431 503.358C129.648 511.374 137.505 515.976 148.148 517.207C148.4 517.235 148.276 517.495 148.108 517.543C139.228 520.09 129.78 512.953 123.807 507.244C117.602 501.319 112.648 494.03 108.346 486.577C108.347 487.238 108.314 487.899 108.246 488.556L108.941 488.564C109.573 488.564 109.941 489.868 109.201 489.968C108.805 490.02 108.414 490.092 108.014 490.148C106.522 498.38 99.8974 505.964 92.4887 510.015C92.4685 510.089 92.4334 510.158 92.3855 510.218C92.3376 510.278 92.278 510.328 92.2103 510.364C92.1426 510.401 92.0682 510.423 91.9916 510.429C91.9151 510.436 91.838 510.427 91.765 510.402C90.6903 510.965 89.5805 511.458 88.4425 511.878C84.9961 513.141 81.2217 512.637 79.4985 509.083ZM91.3053 508.471C92.4437 507.866 93.5416 507.188 94.5918 506.44C92.9165 507.076 91.2133 507.604 89.4941 508.084C90.1001 508.167 90.6998 508.291 91.2893 508.455L91.3053 508.471ZM81.0178 507.412C81.1204 507.767 81.2639 508.109 81.4456 508.431C85.9836 507.372 90.4936 506.34 94.8037 504.605C93.1573 503.806 91.3324 503.447 89.5061 503.562C88.7464 503.602 88.6224 502.326 89.1382 501.97C90.1565 501.291 91.229 500.698 92.3448 500.195C88.5532 501.07 84.6837 501.564 80.7939 501.67C80.4499 503.578 80.5263 505.537 81.0178 507.412ZM101.001 495.697C98.6002 495.582 96.1942 495.652 93.8041 495.905C89.7819 496.912 85.6838 497.628 81.6016 498.312C81.4496 498.81 81.3097 499.31 81.1818 499.811C85.3759 499.295 89.4981 498.316 93.6922 498.056C96.1737 497.417 98.6144 496.63 101.001 495.697ZM83.6447 494.693L82.817 494.881C82.6171 495.393 82.4172 495.921 82.2213 496.453C86.379 495.19 90.6603 494.378 94.9916 494.03C96.407 493.606 97.7984 493.137 99.1657 492.622C93.9584 493.031 88.777 493.722 83.6447 494.693ZM84.2884 484.142C80.3621 484.646 77.0636 486.841 75.4363 490.483C74.8046 491.915 74.4648 494.03 75.5883 495.305C76.272 496.077 77.3395 495.953 78.399 495.509C78.0512 495.105 78.0232 494.334 78.5669 494.19C82.667 493.057 86.8462 492.232 91.0694 491.723C94.5358 491.031 98.0183 490.371 101.489 489.756C97.9463 489.572 94.3999 489.368 90.8774 489.452C87.395 489.968 83.8966 490.403 80.4061 490.895C79.7544 490.987 79.1147 489.844 79.8783 489.616C80.642 489.388 81.4017 489.212 82.1653 489.04C81.7095 488.816 81.2537 488.592 80.7779 488.396C80.4661 488.268 79.9583 487.665 80.4581 487.413C83.7312 485.784 87.2171 484.624 90.8135 483.966C88.6375 483.831 86.4539 483.89 84.2884 484.142ZM104.523 485.186C104.467 485.078 104.433 484.959 104.423 484.838C102.042 484.85 99.6625 484.731 97.2946 484.482C92.0498 484.807 86.8947 485.995 82.0374 488C82.4452 488.256 82.841 488.532 83.2329 488.812C86.0702 488.305 88.9467 488.048 91.829 488.044C96.1262 487.412 100.37 486.456 104.523 485.186ZM95.4354 463.719C95.6833 464.383 95.0156 465.363 94.3519 464.715C91.1453 461.58 85.9037 460.089 81.9614 462.832C76.7637 466.43 82.5092 473.199 86.0236 475.298C89.8499 477.581 94.184 478.661 98.4381 479.924C98.2062 479.692 98.0423 479.024 98.4341 478.857C99.7637 478.242 101.06 477.558 102.316 476.805C98.586 476.538 94.8237 477.005 91.1213 476.214C90.6855 476.122 90.1658 475.258 90.7695 475.062L91.6051 474.77L91.3732 474.738C91.1173 474.698 90.8934 474.419 91.1773 474.223C92.6029 473.39 94.1034 472.692 95.6593 472.14C93.0397 472.107 90.4292 471.826 87.8628 471.3C87.375 471.148 87.0232 470.084 87.6909 469.953L90.1178 469.517C88.1152 469.324 86.1277 468.998 84.1684 468.541C83.8046 468.449 83.1449 467.726 83.7566 467.466C85.4399 466.75 87.0511 465.962 88.7064 465.155C87.271 465.119 85.8397 465.143 84.3963 465.115C83.8406 465.103 83.2848 465.091 82.7291 465.047C82.1733 465.003 81.9694 464.287 82.4612 464.227C83.3208 464.167 84.1684 464.119 85.0161 464.071C85.6308 463.962 86.2334 463.794 86.8153 463.567C87.0871 463.479 87.5509 463.815 87.2591 464.011C88.5065 464.011 89.7499 464.047 90.9974 464.159C91.4372 464.199 91.949 464.983 91.4052 465.239C89.602 466.106 87.8148 466.998 85.9956 467.825C88.7264 468.293 91.5212 468.449 94.3039 468.761C94.5034 468.821 94.6813 468.938 94.8161 469.097C94.9509 469.255 95.0369 469.45 95.0636 469.657C97.4505 468.933 99.8934 468.401 102.316 467.793C99.2657 468.157 96.2111 468.213 93.2644 467.122C93.0245 467.034 92.7486 466.606 93.1204 466.466C97.6904 464.479 102.588 463.587 107.346 462.236C104.987 462.554 102.59 462.465 100.261 461.972C99.9734 461.908 99.5976 461.532 99.9614 461.288C100.64 460.83 101.351 460.421 102.088 460.065C100.349 460.385 98.5679 460.403 96.8228 460.117C96.4949 460.053 96.1911 459.629 96.5389 459.393C99.4616 457.446 102.696 456.387 106.051 455.623C104.445 455.509 102.855 455.242 101.301 454.823C101.069 454.759 100.741 454.447 100.905 454.18C101.716 452.809 102.921 451.716 104.363 451.041C98.8099 451.349 93.0845 457.49 95.4354 463.719ZM92.8006 474.351C94.7277 473.671 96.6469 472.967 98.542 472.208L97.5225 472.172C96.2395 472.553 94.9804 473.011 93.7522 473.543C92.6686 474.019 92.4567 474.239 92.7926 474.343L92.8006 474.351ZM112.352 460.637C112.534 458.646 112.101 456.648 111.112 454.911C110.431 453.655 109.417 452.611 108.182 451.893C107.748 452.713 107.216 453.479 106.598 454.172C106.435 454.335 105.847 454.291 105.991 453.98C106.415 453.145 106.821 452.302 107.21 451.449C107.002 451.369 106.79 451.301 106.594 451.265C106.047 451.377 105.513 451.545 104.999 451.765C104.374 451.895 103.805 452.216 103.37 452.684C102.935 453.151 102.656 453.742 102.572 454.375C104.719 454.995 107.23 454.915 109.453 454.931C109.945 454.935 110.497 455.687 109.801 455.823C106.984 456.31 104.203 456.986 101.477 457.846C99.5296 458.506 94.7437 460.085 101.021 459.629C104.076 459.405 106.998 458.194 110.021 457.714C110.409 457.654 110.877 458.29 110.361 458.422C107.322 459.197 104.295 459.745 101.505 461.256C100.585 461.752 106.93 461.492 107.022 461.48C108.745 461.292 110.461 460.921 112.156 460.609C112.219 460.601 112.284 460.608 112.344 460.629L112.352 460.637ZM112.26 461.528C108.122 463.116 103.788 463.971 99.5136 465.111C97.9275 465.543 96.366 466.061 94.8357 466.662L95.4914 467.094C96.6166 467.281 97.7582 467.35 98.8979 467.302C101.729 467.294 104.575 466.67 107.37 466.29C107.798 466.23 108.394 466.802 107.798 467.022C103.496 468.621 98.9498 469.217 94.6158 470.656C95.3435 470.68 96.0711 470.699 96.7988 470.712C100.7 470.394 104.572 469.793 108.386 468.913C108.809 468.817 109.393 469.457 108.833 469.593C107.293 469.961 105.747 470.28 104.196 470.552C103.465 470.702 102.737 470.856 102.012 471.016C102.436 471.28 102.668 472.112 102.144 472.323C100.317 473.071 98.4741 473.755 96.6149 474.407C97.6624 474.327 98.706 474.211 99.7375 474.099C102.256 473.774 104.795 473.64 107.334 473.699C107.65 473.711 107.826 474.127 107.462 474.227C104.853 474.966 102.157 475.357 99.4456 475.39C99.0738 475.394 99.0458 474.99 99.4136 474.958C100.765 474.962 102.113 474.847 103.444 474.614C106.285 474.055 106.765 473.921 104.883 474.215C103.224 474.235 101.557 474.47 99.9094 474.654C98.2803 474.856 96.6411 474.965 94.9996 474.982L93.8561 475.374C97.4265 475.618 101.033 475.138 104.611 475.734C105.035 475.806 105.739 476.725 105.087 477.009C103.348 477.757 101.797 478.837 100.105 479.68C101.462 480.554 102.932 481.236 104.475 481.707C104.575 481.754 104.664 481.82 104.737 481.902C104.811 481.984 104.867 482.079 104.903 482.183C105.379 482.395 105.855 482.615 106.323 482.859C106.332 482.867 106.342 482.877 106.351 482.887L106.299 482.795C106.222 482.633 106.183 482.455 106.185 482.276C106.187 482.096 106.23 481.92 106.311 481.759C106.257 481.675 106.224 481.579 106.215 481.479C105.743 474.906 111.332 468.053 112.248 461.516L112.26 461.528ZM128.117 466.99C128.329 461.38 124.147 460.829 119.916 462.996C115.77 465.119 113.555 469.725 111.672 474.439C114.127 473.583 116.533 472.633 118.889 471.588C117.705 471.692 116.522 471.796 115.327 471.952C114.815 472.024 114.179 471.092 114.795 470.844C117.338 469.805 119.944 468.949 122.455 467.861C120.755 467.915 119.062 468.008 117.378 468.141C116.918 468.177 116.366 467.402 116.962 467.19C119.773 466.194 122.539 465.275 125.098 463.779C123.506 463.798 121.923 464.014 120.384 464.423C119.916 464.547 119.385 463.823 119.976 463.639C122.128 463.06 124.355 462.812 126.582 462.904C126.901 462.912 127.601 463.395 127.137 463.723C125.16 465.068 123.016 466.15 120.76 466.942C122.12 466.87 123.483 466.826 124.862 466.838C125.234 466.834 125.87 467.518 125.362 467.785C123.501 468.728 121.591 469.57 119.641 470.308C120.608 470.204 121.572 470.096 122.531 469.937C123.183 469.829 123.799 470.836 123.095 471.172C121.42 471.976 119.721 472.723 118.009 473.435C120.036 473.063 122.1 472.663 124.159 472.387C124.722 472.311 125.442 473.383 124.778 473.663L124.638 473.715C123.151 474.331 121.644 474.902 120.132 475.454C121.568 475.242 123.007 475.042 124.45 474.886C124.548 474.89 124.644 474.913 124.733 474.954C124.822 474.995 124.902 475.054 124.968 475.126C125.034 475.198 125.085 475.282 125.119 475.374C125.152 475.466 125.167 475.564 125.162 475.662L125.85 475.55C127.255 472.898 128.034 469.958 128.125 466.958L128.117 466.99ZM131.371 476.53C130.928 476.526 130.48 476.534 130.036 476.554C128.776 476.655 127.541 476.958 126.378 477.453C126.303 477.489 126.221 477.509 126.138 477.51C126.055 477.511 125.973 477.493 125.897 477.459C125.822 477.425 125.755 477.374 125.701 477.311C125.647 477.248 125.608 477.173 125.586 477.093C120.648 478.033 115.842 479.904 110.881 480.7C110.189 480.808 109.613 479.568 110.405 479.36C113.387 478.497 116.446 477.805 119.401 476.833C117.55 477.085 115.706 477.329 113.875 477.561C113.331 477.625 112.756 476.594 113.399 476.374C114.999 475.841 116.589 475.282 118.169 474.698C116.062 475.062 113.959 475.43 111.836 475.706C111.726 475.708 111.617 475.684 111.519 475.634C111.421 475.585 111.336 475.512 111.272 475.422C110.364 477.927 109.31 480.376 108.118 482.759L108.194 482.899C108.522 482.883 108.841 482.891 109.161 482.891C114.795 481.152 120.896 479.168 126.925 478.881C128.781 478.292 130.577 477.531 132.291 476.61C131.994 476.561 131.695 476.529 131.395 476.514L131.371 476.53ZM128.329 488.248C132.683 488.604 137.153 486.013 136.729 481.239C136.704 480.378 136.442 479.541 135.972 478.819C135.502 478.097 134.843 477.518 134.066 477.145C132.869 477.812 131.631 478.404 130.36 478.917C132.152 479.036 133.923 479.366 135.637 479.9C136.133 480.06 136.617 481.176 135.897 481.375C134.494 481.763 133.079 482.099 131.663 482.411C132.123 482.615 132.535 483.283 132.051 483.67C130.678 484.734 129.221 485.683 127.693 486.509C127.009 486.897 126.35 485.518 127.045 485.126C127.741 484.734 128.569 484.25 129.272 483.802C126.514 483.866 123.767 484.118 121.008 484.422C120.276 484.49 119.817 483.127 120.64 482.975C124.546 482.267 128.461 481.655 132.311 480.716C129.851 480.409 127.364 480.403 124.902 480.696C121.008 481.751 116.994 482.463 113.052 483.407C118.137 484.678 122.787 487.801 128.329 488.248ZM106.415 485.989C103.698 486.882 100.932 487.613 98.1302 488.18C100.881 488.3 103.636 488.472 106.371 488.536C106.453 487.69 106.468 486.838 106.415 485.989ZM104.815 490.643C105.175 491.043 105.215 491.843 104.667 492.095C103.269 492.776 101.837 493.386 100.377 493.922C101.793 493.978 103.204 494.094 104.607 494.29C104.682 494.301 104.754 494.326 104.819 494.366C105.369 493.11 105.788 491.801 106.071 490.459L104.815 490.643ZM103.832 496.425C102.046 497.203 100.224 497.903 98.3661 498.524C98.546 498.976 98.4301 499.643 98.0023 499.807C96.0871 500.555 94.156 501.255 92.2888 502.13C93.9197 502.471 95.4698 503.123 96.8548 504.049C96.9941 504.141 97.1017 504.274 97.1626 504.429C99.8309 502.164 102.082 499.45 103.816 496.409L103.832 496.425ZM88.2306 509.779C86.5003 509.691 84.7656 509.748 83.0449 509.951C84.5043 510.602 86.4714 510.315 88.2186 509.759L88.2306 509.779Z" fill="#F9B5A7"/>
</g>
<defs>
<clipPath id="clip0_980_21076">
<rect width="1792" height="632" fill="white"/>
</clipPath>
<clipPath id="clip1_980_21076">
<path d="M0 0H1792V616C1792 624.837 1784.84 632 1776 632H16C7.16349 632 0 624.837 0 616V0Z" fill="white"/>
</clipPath>
<clipPath id="clip2_980_21076">
<path d="M127.416 451.677C122.998 444.024 113.212 441.402 105.56 445.82L73.6148 464.264C65.9621 468.682 63.3401 478.467 67.7583 486.12L103.325 547.723L162.983 513.28L127.416 451.677Z" fill="white"/>
</clipPath>
</defs>
</svg>
