<svg width="1792" height="204" viewBox="0 0 1792 204" fill="none" xmlns="http://www.w3.org/2000/svg">
<path d="M1634.68 87.6447C1634.12 83.7966 1635.33 79.4497 1640.09 77.4647C1646.15 74.9188 1652.35 78.4732 1656.39 81.978C1656.37 78.5379 1656.93 74.5776 1659.64 71.9626C1663.81 67.958 1670.5 68.6151 1673.84 72.1037C1677.76 76.2066 1676.1 83.588 1675.04 88.6263C1673.22 97.1321 1671.98 105.756 1671.33 114.439C1671.26 115.471 1669.12 116.234 1668.34 115.492C1657.72 105.534 1636.91 103.016 1634.68 87.6447ZM1640.4 93.4413C1643.2 98.2988 1649.88 101.195 1655.24 103.825C1659.85 106.09 1664.36 108.358 1668.24 111.323C1668.67 105.773 1669.5 100.264 1670.73 94.8382C1671.85 90.1759 1673.29 85.5675 1673.72 80.8552C1674.15 75.6315 1669.63 66.7236 1661.21 72.3961C1657.88 74.6415 1657.19 79.1487 1657.22 82.6913C1657.76 83.1895 1658.24 83.6816 1658.7 84.1313C1659.96 85.4419 1656.97 87.0382 1655.87 85.8969C1652.97 82.8938 1642.89 74.8112 1638.82 81.9008C1636.73 85.5066 1638.64 90.4055 1640.4 93.4343L1640.4 93.4413Z" fill="#F36A4F"/>
<path d="M1762 74.6353C1763.09 67.1593 1760.72 58.7143 1751.48 54.8578C1739.71 49.9118 1727.67 56.8172 1719.82 63.6261C1719.87 56.9427 1718.77 49.2489 1713.51 44.1685C1705.4 36.3885 1692.41 37.6651 1685.93 44.4426C1678.3 52.4136 1681.52 66.754 1683.58 76.5423C1687.12 93.067 1689.53 109.822 1690.79 126.689C1690.93 128.696 1695.09 130.178 1696.61 128.735C1717.24 109.39 1757.67 104.498 1762 74.6353ZM1750.88 85.8967C1745.44 95.3337 1732.46 100.96 1722.06 106.07C1713.11 110.47 1704.34 114.876 1696.8 120.637C1695.96 109.855 1694.34 99.1512 1691.96 88.6106C1689.78 79.5528 1687 70.5997 1686.15 61.4447C1685.31 51.2964 1694.1 33.9903 1710.46 45.0107C1716.93 49.373 1718.27 58.1294 1718.2 65.0119C1717.15 65.9798 1716.23 66.9358 1715.32 67.8095C1712.88 70.3557 1718.7 73.4569 1720.84 71.2398C1726.46 65.4054 1746.05 49.7028 1753.95 63.4761C1758.01 70.4814 1754.29 79.9988 1750.88 85.883L1750.88 85.8967Z" fill="#F36A4F"/>
<g clip-path="url(#clip0_1475_25354)">
<path opacity="0.07" d="M911.368 104.714C963.361 -54.7464 1073.34 -238.876 1240.57 -295.425C1282.66 -308.376 1327.3 -310.764 1370.53 -302.378C1413.77 -293.992 1454.29 -275.09 1488.49 -247.34C1602.06 -233.997 1736.55 -153.083 1772.77 -47.9489C1785.01 -13.3779 1788.43 23.6961 1782.74 59.9196C1777.04 96.1431 1762.4 130.373 1740.15 159.513C1728.76 258.058 1654.72 347.235 1574.9 408.305C1463.43 493.164 1291.5 563.748 1186.71 432.107C995.014 439.097 832.806 346.238 911.368 104.714ZM1396.15 122.519C1399.09 111.142 1401.4 99.6091 1403.06 87.9752C1409.78 37.6222 1397.2 7.5804 1372.31 -9.49681C1357.39 -12.7967 1341.96 -13.0303 1326.96 -10.1835C1311.95 -7.33661 1297.68 -1.46871 1285.02 7.06375C1293.12 14.5943 1299.63 23.6698 1304.17 33.7555C1308.71 43.8411 1311.18 54.7329 1311.45 65.7889C1311.71 76.8449 1309.76 87.8415 1305.71 98.1307C1301.65 108.42 1295.58 117.793 1287.85 125.699C1299.94 139.005 1314.12 150.252 1329.82 158.998C1331.55 160.641 1333.44 160.382 1335.57 161.171C1356.55 149.569 1376.78 136.66 1396.15 122.519V122.519ZM1106.04 312.291C1094.91 297.294 1085.19 281.308 1076.98 264.536C1064.36 246.266 1056.1 225.339 1052.85 203.372C1049.93 193.466 1047.35 183.482 1045.12 173.417C1030.99 150.749 1021.59 125.455 1017.49 99.0593C1000.36 142.36 994.528 189.308 1000.54 235.488C1011.08 284.558 1055.04 304.945 1106.04 312.291Z" fill="#F36A4F"/>
</g>
<g clip-path="url(#clip1_1475_25354)">
<path opacity="0.2" d="M1252.14 483.088C1254.51 323.381 1134.09 215.63 989.481 155.703C787.023 -29.9824 485.107 68.3216 370.892 288.546C316.484 320.564 272.588 367.755 244.577 424.342C231.971 449.595 222.078 476.116 215.065 503.457C206.895 528.393 203.198 554.578 204.145 580.801C200.013 732.833 300.357 862.429 440.247 932.393C517.571 1040.73 636.508 1097.41 792.335 1039.85C851.26 1017.68 902.51 978.924 939.899 928.26C1111.66 841.469 1249.19 665.231 1252.14 483.088ZM879.988 711.283C846.206 756.566 798.686 789.704 744.525 805.749C706.611 795.27 671.916 775.483 643.591 748.184C693.518 733.756 739.744 708.722 779.115 674.792C818.487 640.861 850.075 598.833 871.725 551.576C895.428 569.854 914.278 593.676 926.619 620.95C915.587 653.185 899.876 683.622 879.988 711.283V711.283ZM796.762 501.391C776.718 548.132 746.465 589.792 708.224 623.311C688.304 637.93 665.494 648.126 641.318 653.217C617.143 658.308 592.159 658.177 568.038 652.832C535.388 601.525 511.175 545.312 496.322 486.335C523.161 455.199 558.097 432.107 597.256 419.618C667.731 435.938 735.103 463.552 796.762 501.391V501.391ZM845.753 414.895C854.734 421.335 863.218 428.44 871.135 436.15C854.017 422.57 832.473 417.552 821.258 432.017C798.112 417.142 774.17 403.542 749.542 391.278C772.642 390.018 795.804 392.106 818.307 397.478C827.751 403.087 837.195 408.696 845.753 414.895ZM546.494 752.907C532.688 758.596 519.278 765.204 506.356 772.686C488.397 755.042 472.73 735.205 459.726 713.645C484.699 734.127 514.626 747.669 546.494 752.907V752.907ZM558.299 815.786C567.153 811.654 579.843 806.34 595.78 800.141C606.405 810.768 616.734 820.215 627.359 829.661L591.648 833.794C580.154 828.52 569.014 822.505 558.299 815.786V815.786ZM1038.77 537.111C1033.3 508.936 1023.33 481.825 1009.25 456.814C1023.7 466.353 1037.06 477.44 1049.1 489.878C1046.96 505.905 1043.81 521.78 1039.65 537.406L1038.77 537.111ZM317.179 530.911C316.511 600.05 329.032 668.682 354.07 733.128C359.088 755.874 365.294 778.34 372.663 800.436C336.418 766.944 311.574 722.935 301.622 674.592C291.67 626.249 297.111 576.002 317.179 530.911V530.911ZM936.948 344.045C910.415 310.023 876.509 282.467 837.785 263.454C776.977 233.153 711.546 213.199 644.181 204.412C740.022 180.357 840.871 185.601 933.702 219.468C945.507 223.305 955.541 227.734 966.461 232.162C1011.97 276.972 1040.98 335.857 1048.8 399.249C1013.94 375.985 976.381 357.051 936.948 342.864V344.045ZM1157.11 527.074C1147.65 500.097 1133.01 475.229 1114.02 453.862C1114.18 402.017 1105.19 350.551 1087.46 301.831C1119.03 328.86 1142.32 364.264 1154.64 403.96C1166.97 443.655 1167.82 486.027 1157.11 526.188V527.074Z" fill="#3D3D3D"/>
</g>
<g clip-path="url(#clip2_1475_25354)">
<path d="M79.4956 165.083C77.7084 161.401 78.8199 156.667 80.2113 152.701C78.0003 153.936 75.2175 154.824 73.8301 152.469C71.9549 149.29 73.6262 145.324 75.6493 142.653C80.9509 135.68 91.1424 137.603 99.6586 138.451C91.6422 135.904 82.3583 134.449 79.2837 125.929C77.9083 122.106 79.0318 118.304 82.6302 116.409C86.1006 114.578 90.4387 115.797 93.5373 117.976C92.5698 110.283 100.426 102.899 108.011 106.157C108.219 106.168 108.415 106.258 108.559 106.409C108.739 106.501 108.914 106.589 109.086 106.681C120.781 113.378 107.323 128.371 107.307 137.319C111.385 129.243 113.532 116.301 124.552 115.597C131.692 115.141 129.697 125.749 127.722 130.962C131.133 129.903 134.527 130.275 136.97 133.405C139.073 136.1 138.613 140.11 136.742 142.773C133.951 146.747 128.202 146.699 124.024 145.624C118.838 144.292 114.508 141.266 109.386 141.014C113.085 147.565 117.456 153.713 122.428 159.358C129.645 167.374 137.502 171.976 148.145 173.207C148.397 173.235 148.273 173.495 148.105 173.543C139.225 176.09 129.777 168.953 123.804 163.244C117.599 157.319 112.645 150.03 108.343 142.577C108.344 143.238 108.311 143.899 108.243 144.556L108.938 144.564C109.57 144.564 109.938 145.868 109.198 145.968C108.803 146.02 108.411 146.092 108.011 146.148C106.52 154.38 99.8945 161.964 92.4858 166.015C92.4656 166.089 92.4305 166.158 92.3826 166.218C92.3347 166.278 92.2751 166.328 92.2074 166.364C92.1396 166.401 92.0652 166.423 91.9887 166.429C91.9121 166.436 91.835 166.427 91.7621 166.402C90.6874 166.965 89.5776 167.458 88.4396 167.878C84.9931 169.141 81.2188 168.637 79.4956 165.083ZM91.3023 164.471C92.4408 163.866 93.5386 163.188 94.5889 162.44C92.9136 163.076 91.2104 163.604 89.4911 164.084C90.0972 164.167 90.6969 164.291 91.2863 164.455L91.3023 164.471ZM81.0149 163.412C81.1174 163.767 81.261 164.109 81.4427 164.431C85.9807 163.372 90.4907 162.34 94.8008 160.605C93.1544 159.806 91.3294 159.447 89.5031 159.562C88.7435 159.602 88.6195 158.326 89.1353 157.97C90.1535 157.291 91.226 156.698 92.3419 156.195C88.5503 157.07 84.6808 157.564 80.791 157.67C80.4469 159.578 80.5233 161.537 81.0149 163.412ZM100.998 151.697C98.5973 151.582 96.1913 151.652 93.8012 151.905C89.779 152.912 85.6808 153.628 81.5986 154.312C81.4467 154.81 81.3068 155.31 81.1788 155.811C85.373 155.295 89.4951 154.316 93.6893 154.056C96.1708 153.417 98.6114 152.63 100.998 151.697ZM83.6417 150.693L82.8141 150.881C82.6142 151.393 82.4143 151.921 82.2184 152.453C86.376 151.19 90.6574 150.378 94.9887 150.03C96.404 149.606 97.7954 149.137 99.1628 148.622C93.9554 149.031 88.7741 149.722 83.6417 150.693ZM84.2855 140.142C80.3592 140.646 77.0607 142.841 75.4334 146.483C74.8017 147.915 74.4618 150.03 75.5853 151.305C76.269 152.077 77.3365 151.953 78.3961 151.509C78.0482 151.105 78.0202 150.334 78.564 150.19C82.6641 149.057 86.8432 148.232 91.0664 147.723C94.5329 147.031 98.0153 146.371 101.486 145.756C97.9434 145.572 94.3969 145.368 90.8745 145.452C87.3921 145.968 83.8936 146.403 80.4032 146.895C79.7515 146.987 79.1118 145.844 79.8754 145.616C80.6391 145.388 81.3987 145.212 82.1624 145.04C81.7066 144.816 81.2508 144.592 80.775 144.396C80.4632 144.268 79.9554 143.665 80.4552 143.413C83.7282 141.784 87.2142 140.624 90.8105 139.966C88.6346 139.831 86.4509 139.89 84.2855 140.142ZM104.52 141.186C104.464 141.078 104.43 140.959 104.42 140.838C102.039 140.85 99.6596 140.731 97.2917 140.482C92.0469 140.807 86.8917 141.995 82.0345 144C82.4423 144.256 82.8381 144.532 83.2299 144.812C86.0673 144.305 88.9437 144.048 91.8261 144.044C96.1233 143.412 100.367 142.456 104.52 141.186ZM95.4325 119.719C95.6804 120.383 95.0127 121.363 94.349 120.715C91.1424 117.58 85.9007 116.089 81.9585 118.832C76.7608 122.43 82.5062 129.199 86.0207 131.298C89.847 133.581 94.181 134.661 98.4351 135.924C98.2032 135.692 98.0393 135.024 98.4311 134.857C99.7608 134.242 101.057 133.558 102.313 132.805C98.5831 132.538 94.8208 133.005 91.1184 132.214C90.6826 132.122 90.1628 131.258 90.7666 131.062L91.6022 130.77L91.3703 130.738C91.1144 130.698 90.8905 130.419 91.1744 130.223C92.5999 129.39 94.1005 128.692 95.6564 128.14C93.0368 128.107 90.4262 127.826 87.8599 127.3C87.3721 127.148 87.0202 126.084 87.6879 125.953L90.1149 125.517C88.1123 125.324 86.1248 124.998 84.1655 124.541C83.8017 124.449 83.142 123.726 83.7537 123.466C85.4369 122.75 87.0482 121.962 88.7035 121.155C87.2681 121.119 85.8368 121.143 84.3934 121.115C83.8376 121.103 83.2819 121.091 82.7261 121.047C82.1704 121.003 81.9665 120.287 82.4583 120.227C83.3179 120.167 84.1655 120.119 85.0131 120.071C85.6278 119.962 86.2304 119.794 86.8123 119.567C87.0842 119.479 87.548 119.815 87.2561 120.011C88.5036 120.011 89.747 120.047 90.9945 120.159C91.4343 120.199 91.946 120.983 91.4023 121.239C89.5991 122.106 87.8119 122.998 85.9927 123.825C88.7235 124.293 91.5182 124.449 94.301 124.761C94.5005 124.821 94.6784 124.938 94.8132 125.097C94.948 125.255 95.0339 125.45 95.0606 125.657C97.4476 124.933 99.8905 124.401 102.313 123.793C99.2628 124.157 96.2081 124.213 93.2614 123.122C93.0216 123.034 92.7457 122.606 93.1175 122.466C97.6875 120.479 102.585 119.587 107.343 118.236C104.984 118.554 102.587 118.465 100.258 117.972C99.9705 117.908 99.5946 117.532 99.9585 117.288C100.637 116.83 101.348 116.421 102.086 116.065C100.346 116.385 98.565 116.403 96.8199 116.117C96.492 116.053 96.1881 115.629 96.536 115.393C99.4587 113.446 102.693 112.387 106.048 111.623C104.442 111.509 102.852 111.242 101.298 110.823C101.066 110.759 100.738 110.447 100.902 110.18C101.713 108.809 102.918 107.716 104.361 107.041C98.807 107.349 93.0815 113.49 95.4325 119.719ZM92.7977 130.351C94.7248 129.671 96.6439 128.967 98.5391 128.208L97.5196 128.172C96.2365 128.553 94.9775 129.011 93.7492 129.543C92.6657 130.019 92.4538 130.239 92.7897 130.343L92.7977 130.351ZM112.349 116.637C112.531 114.646 112.099 112.648 111.109 110.911C110.428 109.655 109.414 108.611 108.179 107.893C107.745 108.713 107.213 109.479 106.596 110.172C106.432 110.335 105.844 110.291 105.988 109.98C106.412 109.145 106.818 108.302 107.207 107.449C106.999 107.369 106.787 107.301 106.592 107.265C106.044 107.377 105.51 107.545 104.996 107.765C104.371 107.895 103.802 108.216 103.367 108.684C102.932 109.151 102.653 109.742 102.569 110.375C104.716 110.995 107.227 110.915 109.45 110.931C109.942 110.935 110.494 111.687 109.798 111.823C106.981 112.31 104.2 112.986 101.474 113.846C99.5267 114.506 94.7408 116.085 101.018 115.629C104.073 115.405 106.995 114.194 110.018 113.714C110.406 113.654 110.874 114.29 110.358 114.422C107.319 115.197 104.293 115.745 101.502 117.256C100.582 117.752 106.927 117.492 107.019 117.48C108.743 117.292 110.458 116.921 112.153 116.609C112.216 116.601 112.281 116.608 112.341 116.629L112.349 116.637ZM112.257 117.528C108.119 119.116 103.785 119.971 99.5107 121.111C97.9246 121.543 96.363 122.061 94.8327 122.662L95.4885 123.094C96.6137 123.281 97.7553 123.35 98.8949 123.302C101.726 123.294 104.572 122.67 107.367 122.29C107.795 122.23 108.391 122.802 107.795 123.022C103.493 124.621 98.9469 125.217 94.6128 126.656C95.3405 126.68 96.0682 126.699 96.7959 126.712C100.697 126.394 104.569 125.793 108.383 124.913C108.807 124.817 109.39 125.457 108.831 125.593C107.29 125.961 105.744 126.28 104.193 126.552C103.462 126.702 102.735 126.856 102.01 127.016C102.433 127.28 102.665 128.112 102.141 128.323C100.314 129.071 98.4711 129.755 96.612 130.407C97.6595 130.327 98.703 130.211 99.7346 130.099C102.253 129.774 104.793 129.64 107.331 129.699C107.647 129.711 107.823 130.127 107.459 130.227C104.85 130.966 102.154 131.357 99.4427 131.39C99.0709 131.394 99.0429 130.99 99.4107 130.958C100.762 130.962 102.11 130.847 103.441 130.614C106.282 130.055 106.762 129.921 104.88 130.215C103.221 130.235 101.554 130.47 99.9065 130.654C98.2773 130.856 96.6381 130.965 94.9967 130.982L93.8532 131.374C97.4236 131.618 101.03 131.138 104.608 131.734C105.032 131.806 105.736 132.725 105.084 133.009C103.345 133.757 101.794 134.837 100.102 135.68C101.459 136.554 102.929 137.236 104.472 137.707C104.572 137.754 104.661 137.82 104.734 137.902C104.808 137.984 104.864 138.079 104.9 138.183C105.376 138.395 105.852 138.615 106.32 138.859C106.33 138.867 106.339 138.877 106.348 138.887L106.296 138.795C106.219 138.633 106.18 138.455 106.182 138.276C106.184 138.096 106.227 137.92 106.308 137.759C106.254 137.675 106.221 137.579 106.212 137.479C105.74 130.906 111.329 124.053 112.245 117.516L112.257 117.528ZM128.114 122.99C128.326 117.38 124.144 116.829 119.914 118.996C115.767 121.119 113.552 125.725 111.669 130.439C114.124 129.583 116.53 128.633 118.886 127.588C117.703 127.692 116.519 127.796 115.324 127.952C114.812 128.024 114.176 127.092 114.792 126.844C117.335 125.805 119.942 124.949 122.452 123.861C120.752 123.915 119.059 124.008 117.375 124.141C116.915 124.177 116.363 123.402 116.959 123.19C119.77 122.194 122.536 121.275 125.095 119.779C123.503 119.798 121.92 120.014 120.381 120.423C119.914 120.547 119.382 119.823 119.974 119.639C122.125 119.06 124.352 118.812 126.579 118.904C126.898 118.912 127.598 119.395 127.134 119.723C125.157 121.068 123.014 122.15 120.757 122.942C122.117 122.87 123.48 122.826 124.859 122.838C125.231 122.834 125.867 123.518 125.359 123.785C123.498 124.728 121.588 125.57 119.638 126.308C120.605 126.204 121.569 126.096 122.528 125.937C123.18 125.829 123.796 126.836 123.092 127.172C121.417 127.976 119.718 128.723 118.006 129.435C120.034 129.063 122.097 128.663 124.156 128.387C124.719 128.311 125.439 129.383 124.775 129.663L124.635 129.715C123.148 130.331 121.641 130.902 120.129 131.454C121.565 131.242 123.004 131.042 124.448 130.886C124.545 130.89 124.641 130.913 124.73 130.954C124.819 130.995 124.899 131.054 124.965 131.126C125.031 131.198 125.083 131.282 125.116 131.374C125.149 131.466 125.164 131.564 125.159 131.662L125.847 131.55C127.253 128.898 128.031 125.958 128.122 122.958L128.114 122.99ZM131.368 132.53C130.925 132.526 130.477 132.534 130.033 132.554C128.773 132.655 127.538 132.958 126.375 133.453C126.3 133.489 126.218 133.509 126.135 133.51C126.052 133.511 125.97 133.493 125.894 133.459C125.819 133.425 125.752 133.374 125.698 133.311C125.644 133.248 125.605 133.173 125.583 133.093C120.645 134.033 115.839 135.904 110.878 136.7C110.186 136.808 109.61 135.568 110.402 135.36C113.384 134.497 116.443 133.805 119.398 132.833C117.547 133.085 115.703 133.329 113.872 133.561C113.329 133.625 112.753 132.594 113.396 132.374C114.996 131.841 116.586 131.282 118.166 130.698C116.059 131.062 113.956 131.43 111.833 131.706C111.723 131.708 111.614 131.684 111.516 131.634C111.418 131.585 111.333 131.512 111.269 131.422C110.361 133.927 109.307 136.376 108.115 138.759L108.191 138.899C108.519 138.883 108.839 138.891 109.158 138.891C114.792 137.152 120.893 135.168 126.922 134.881C128.778 134.292 130.574 133.531 132.288 132.61C131.991 132.561 131.693 132.529 131.392 132.514L131.368 132.53ZM128.326 144.248C132.68 144.604 137.15 142.013 136.726 137.239C136.701 136.378 136.439 135.541 135.969 134.819C135.5 134.097 134.84 133.518 134.063 133.145C132.866 133.812 131.628 134.404 130.357 134.917C132.149 135.036 133.92 135.366 135.635 135.9C136.13 136.06 136.614 137.176 135.894 137.375C134.491 137.763 133.076 138.099 131.66 138.411C132.12 138.615 132.532 139.283 132.048 139.67C130.675 140.734 129.218 141.683 127.69 142.509C127.006 142.897 126.347 141.518 127.042 141.126C127.738 140.734 128.566 140.25 129.269 139.802C126.511 139.866 123.764 140.118 121.005 140.422C120.273 140.49 119.814 139.127 120.637 138.975C124.544 138.267 128.458 137.655 132.308 136.716C129.848 136.409 127.361 136.403 124.899 136.696C121.005 137.751 116.991 138.463 113.049 139.407C118.134 140.678 122.784 143.801 128.326 144.248ZM106.412 141.989C103.696 142.882 100.929 143.613 98.1273 144.18C100.878 144.3 103.633 144.472 106.368 144.536C106.45 143.69 106.465 142.838 106.412 141.989ZM104.812 146.643C105.172 147.043 105.212 147.843 104.664 148.095C103.266 148.776 101.835 149.386 100.374 149.922C101.79 149.978 103.201 150.094 104.604 150.29C104.679 150.301 104.751 150.326 104.816 150.366C105.366 149.11 105.785 147.801 106.068 146.459L104.812 146.643ZM103.829 152.425C102.043 153.203 100.221 153.903 98.3632 154.524C98.5431 154.976 98.4271 155.643 97.9993 155.807C96.0842 156.555 94.1531 157.255 92.2859 158.13C93.9168 158.471 95.4669 159.123 96.8518 160.049C96.9912 160.141 97.0987 160.274 97.1597 160.429C99.8279 158.164 102.08 155.45 103.813 152.409L103.829 152.425ZM88.2277 165.779C86.4974 165.691 84.7627 165.748 83.042 165.951C84.5014 166.602 86.4685 166.315 88.2157 165.759L88.2277 165.779Z" fill="#F9B5A7"/>
</g>
<defs>
<clipPath id="clip0_1475_25354">
<rect width="1792" height="200" fill="white"/>
</clipPath>
<clipPath id="clip1_1475_25354">
<path d="M0 0H1792V184C1792 192.837 1784.84 200 1776 200H16C7.16349 200 0 192.837 0 184V0Z" fill="white"/>
</clipPath>
<clipPath id="clip2_1475_25354">
<path d="M127.414 107.677C122.996 100.024 113.21 97.402 105.558 101.82L73.6128 120.264C65.9601 124.682 63.3381 134.467 67.7564 142.12L103.323 203.723L162.981 169.28L127.414 107.677Z" fill="white"/>
</clipPath>
</defs>
</svg>
