<svg width="326" height="744" viewBox="0 0 326 744" fill="none" xmlns="http://www.w3.org/2000/svg">
<path opacity="0.05" d="M293.622 -0.35074L292.659 0.496468C294.558 1.27631 296.129 2.68937 297.106 4.49585C298.082 6.30233 298.404 8.39103 298.016 10.4079C277.909 85.4485 254.972 159.363 254.027 237.142C272.569 228.085 289.773 216.511 305.152 202.75C313.122 194.659 326.408 207.985 325.142 216.49C315.048 286.475 285.865 345.541 250.829 406.171C220.147 459.491 265.287 444.685 266.21 489.707C267.347 547.684 193.013 576.226 140.245 595.438C153.701 600.341 167.562 604.055 181.667 606.537C188.578 607.559 197.219 613.467 193.781 621.483C166.553 684.942 85.6255 706.466 25.668 723.29C-55.8694 746.401 -140.219 754.571 -223.585 768.347C-224.288 768.417 -224.997 768.412 -225.7 768.334C-266.326 790.213 -304.827 815.828 -340.705 844.848C-354.715 856.571 -373.468 829.62 -360.457 819.563C-323.31 791.486 -282.706 768.306 -239.644 750.594C-239.522 749.224 -239.163 747.887 -238.585 746.639C-198.844 659.171 -222.382 562.762 -223.413 470.357C-223.602 461.094 -213.437 458.566 -206.461 462.094C-188.654 470.919 -171.103 478.293 -154.741 488.389C-156.973 436.766 -155.732 385.051 -151.029 333.594C-150.645 331.465 -149.676 329.484 -148.231 327.874C-146.786 326.264 -144.921 325.087 -142.845 324.477C-140.77 323.866 -138.565 323.846 -136.479 324.417C-134.392 324.989 -132.506 326.13 -131.031 327.713C-98.6095 359.34 -58.8774 374.685 -50.576 317.579C-47.3912 287.723 -48.6203 257.562 -54.2236 228.065C-55.4288 220.188 -51.6257 208.401 -41.1182 211.124C-30.6107 213.848 -17.9148 217.342 -6.31308 220.45C-3.52402 194.573 6.7692 171.627 9.72568 144.78C9.76734 142.234 10.5771 139.76 12.0488 137.682C13.5205 135.604 15.5854 134.019 17.9731 133.135C20.3607 132.251 22.9596 132.109 25.4291 132.728C27.8986 133.347 30.1236 134.697 31.8123 136.603C46.1636 154.544 65.0924 164.683 82.5674 177.841C92.3866 153.571 103.614 130.23 107.751 103.792C108.152 100.516 109.736 97.4999 112.206 95.3109C114.676 93.1219 117.86 91.9114 121.16 91.9074C163.044 90.9693 162.77 67.5872 188.983 41.2603C205.096 25.1253 228.042 17.178 249.135 10.3005L249.737 10.4616C257.562 0.641504 266.362 -8.35975 276.002 -16.404C285.411 -24.0171 304.018 -8.89706 293.622 -0.35074ZM177.137 122.937C176.222 125.38 174.547 127.464 172.359 128.885C170.172 130.305 167.586 130.986 164.983 130.828C119.983 120.705 114.618 176.479 101.901 212.595C98.0474 223.539 86.0665 221.158 79.5466 214.897C63.9763 200.13 47.305 190.503 32.0014 177.835C26.3125 199.066 19.2547 219.562 19.8561 242.756C19.975 244.594 19.6698 246.434 18.9642 248.135C18.2586 249.836 17.1715 251.352 15.7868 252.566C14.4021 253.78 12.757 254.66 10.9784 255.136C9.19994 255.613 7.33563 255.675 5.52968 255.316C-5.12669 252.461 -15.7831 249.605 -26.4394 246.75C-19.8949 329.577 -40.1463 437.469 -126.531 367.981C-130.559 417.389 -128.632 466.917 -127.634 516.474C-127.394 526.58 -137.87 534.736 -146.737 526.925C-162.342 514.64 -179.342 504.24 -197.385 495.941C-195.27 573.988 -181.687 651.515 -202.591 726.434C-197.695 728.102 -192.542 728.89 -187.372 728.762C-173.579 723.122 -159.764 717.396 -145.925 711.584C-130.97 698.739 -117.737 684.015 -106.555 667.777C-122.208 659.43 -134.617 646.084 -141.806 629.864C-149.345 613.656 -155.195 589.425 -147.872 572.409C-146.211 568.616 -136.975 566.116 -135.961 571.27C-131.998 587.073 -132.832 603.248 -128.227 619.407C-123.58 635.401 -113.474 649.258 -99.6659 658.568C-88.4927 642.307 -79.0568 626.686 -72.1662 616.094C-61.0834 598.796 -50.4933 581.273 -40.2008 563.486C-40.8284 563.203 -41.4111 562.83 -41.9302 562.378C-76.7317 527.257 -110.408 476.591 -100.531 424.605C-99.4944 420.737 -90.4072 418.105 -89.3244 423.002C-85.7464 443.605 -81.0986 464.009 -75.3997 484.129C-66.0167 508.721 -51.4849 531.022 -32.7787 549.537C-0.412035 492.337 28.5587 433.03 57.5001 374.176C98.3649 290.417 138.119 205.993 181.446 123.355C190.322 106.386 199.481 88.0188 209.413 69.8589C194.114 84.3567 182.971 102.683 177.137 122.937ZM267.535 26.1941C268.428 29.8742 267.957 33.7534 266.21 37.1133C264.463 40.4733 261.558 43.0864 258.033 44.469C255.711 45.2287 253.624 46.1435 251.388 46.9263C221.855 88.3939 200.597 139.541 179.638 180.635C148.97 240.777 119.608 301.545 89.839 362.112C121.908 345.554 151.043 320.01 184.616 306.434C188.223 305.005 191.009 308.7 187.876 311.454C174.134 322.02 159.633 331.56 144.49 339.997C127.381 350.984 109.06 359.955 89.8905 366.732C89.6928 366.858 89.4712 366.941 89.2397 366.977C89.0082 367.013 88.7718 367 88.5456 366.939C88.3193 366.879 88.1082 366.771 87.9255 366.625C87.7428 366.478 87.5925 366.295 87.4842 366.088C71.4822 398.651 55.5094 430.762 38.912 462.798C35.6545 469.111 31.3623 477.911 26.2197 488.51C38.9349 485.744 52.6397 484.442 64.1748 481.268C96.9345 471.161 129.165 459.411 160.743 446.062C165.783 444.096 169.938 448.526 165.148 452.309C139.848 473.168 107.026 481.878 76.2329 490.579C61.1833 494.838 38.1912 502.957 19.7952 502.174C-2.2291 548.57 -27.0831 593.569 -54.6263 636.917C-33.6735 631.548 -13.0244 625.056 7.2315 617.469C27.4786 608.551 48.5506 601.638 70.1453 596.831C74.6681 596.108 77.7629 600.714 73.226 603.552C52.239 616.907 26.6873 623.235 3.30537 631.434C-18.5158 639.306 -40.8635 645.632 -63.5722 650.366C-86.1365 683.014 -110.701 711.441 -136.112 728.585C-97.775 723.012 -58.8134 717.513 -20.6635 710.231C40.3874 698.951 131.976 681.297 166.941 622.306C146.832 616.918 127.757 609.043 106.946 605.586C99.8003 604.408 91.7067 591.645 101.311 587.769C145.704 569.907 303.775 519.672 210.14 450.085C205.537 446.64 201.75 440.835 204.932 435.146C241.793 372.518 278.154 311.414 295.349 241.397C280.873 250.047 265.43 257.149 251.14 267.508C249.119 268.524 246.882 269.037 244.619 269.003C242.357 268.969 240.137 268.389 238.147 267.313C236.156 266.238 234.455 264.697 233.188 262.823C231.92 260.949 231.124 258.796 230.866 256.548C227.53 174.12 251.441 96.2294 273.781 18.0099C271.56 20.455 269.528 23.2271 267.284 25.7581L267.535 26.1941Z" fill="#3D3D3D"/>
</svg>
