<svg width="686" height="168" viewBox="0 0 686 168" fill="none" xmlns="http://www.w3.org/2000/svg">
<path opacity="0.4" d="M0.0223389 107.393C-1.52289 2.79939 77.2831 -67.7672 171.928 -107.014C304.43 -228.62 502.024 -164.24 576.774 -20.0139C612.383 0.954987 641.111 31.8604 659.443 68.9193C667.694 85.4581 674.169 102.826 678.759 120.732C684.105 137.063 686.525 154.212 685.905 171.386C688.609 270.952 622.938 355.825 531.384 401.645C480.778 472.598 402.937 509.718 300.953 472.018C262.389 457.5 228.847 432.118 204.377 398.939C91.9627 342.099 1.95386 226.679 0.0223389 107.393ZM243.587 256.839C265.697 286.495 296.797 308.197 332.244 318.705C357.057 311.843 379.764 298.884 398.302 281.006C365.626 271.556 335.372 255.162 309.605 232.94C283.838 210.719 263.164 183.195 248.995 152.246C233.483 164.216 221.146 179.818 213.069 197.679C220.289 218.79 230.572 238.723 243.587 256.839ZM298.056 119.379C311.174 149.991 330.974 177.273 356.002 199.226C369.038 208.799 383.967 215.477 399.789 218.811C415.611 222.145 431.962 222.059 447.749 218.559C469.117 184.957 484.963 148.143 494.685 109.519C477.119 89.1281 454.255 74.0047 428.627 65.8259C382.503 76.5136 338.41 94.5981 298.056 119.379ZM265.993 62.7326C260.115 66.9499 254.563 71.603 249.382 76.6526C260.584 67.7593 274.685 64.4726 282.024 73.9459C297.173 64.2042 312.841 55.2976 328.96 47.266C313.842 46.4405 298.683 47.808 283.956 51.3259C277.775 54.9993 271.594 58.6726 265.993 62.7326ZM461.849 284.099C470.884 287.824 479.66 292.152 488.118 297.052C499.871 285.497 510.125 272.506 518.636 258.386C502.291 271.8 482.705 280.668 461.849 284.099ZM454.123 325.279C448.328 322.572 440.023 319.092 429.592 315.032C422.639 321.992 415.879 328.179 408.925 334.365L432.297 337.072C439.819 333.618 447.11 329.678 454.123 325.279ZM139.671 142.772C143.252 124.321 149.774 106.565 158.986 90.1859C149.534 96.4326 140.79 103.693 132.911 111.839C134.308 122.336 136.372 132.732 139.092 142.966L139.671 142.772ZM611.928 138.712C612.365 183.992 604.17 228.939 587.784 271.146C584.5 286.042 580.438 300.755 575.615 315.225C599.337 293.291 615.596 264.47 622.11 232.81C628.623 201.15 625.062 168.243 611.928 138.712ZM206.309 16.3327C223.674 -5.94864 245.864 -23.9951 271.208 -36.4472C311.005 -56.2916 353.827 -69.3594 397.915 -75.1138C335.191 -90.8676 269.188 -87.433 208.433 -65.2538C200.707 -62.7405 194.14 -59.8405 186.994 -56.9405C157.212 -27.5943 138.22 10.97 133.104 52.4859C155.919 37.25 180.501 24.85 206.309 15.5593V16.3327ZM62.2172 136.199C68.4102 118.532 77.9894 102.245 90.4175 88.2525C90.3163 54.2986 96.201 20.5932 107.801 -11.3139C87.1407 6.38794 71.8992 29.574 63.834 55.571C55.7689 81.5679 55.2084 109.317 62.2172 135.619V136.199Z" fill="#FF8870"/>
</svg>
