<svg width="242" height="57" viewBox="0 0 242 57" fill="none" xmlns="http://www.w3.org/2000/svg">
<path d="M40.6061 39.8306C40.8082 34.1448 51.477 29.2294 52.6849 27.1092C53.8928 24.989 51.477 24.0046 50.2691 24.0803C49.0613 24.156 37.8884 29.608 39.3983 27.715C40.1337 24.8312 50.1936 15.145 49.6652 12.5705C49.4949 11.7412 48.9531 10.7376 47.1413 10.6619C45.3295 10.5862 35.2047 22.7453 33.9628 21.6572C32.5069 20.0885 38.2536 7.34385 38.7943 6.51267C39.3417 4.88094 39.934 3.47492 36.9143 2.79341C35.2012 2.40678 29.2994 19.9746 25.5077 19.8398C23.8028 19.7792 25.2812 7.42134 24.9037 4.69533C24.5263 1.96931 23.308 0.911165 21.8841 1.06064C20.4601 1.21012 19.0154 2.5751 18.8644 5.30111C18.7134 8.02712 17.8075 28.4722 13.4289 27.715C11.0277 27.2997 8.52193 19.8398 4.97379 19.8398C4.12828 19.8398 1.96196 19.4612 1.9541 23.4745C1.95048 25.4051 5.35911 30.3495 7.99348 34.9843C10.6707 39.6949 13.9186 44.5031 13.9186 44.5031C13.4209 42.7328 13.5931 38.8707 13.5931 38.8707C13.6808 36.4029 16.1466 33.6971 19.4683 33.7728C22.79 33.8485 24.7528 37.5589 24.9037 36.8017C25.0547 36.0445 27.9234 33.7728 30.3392 33.7728C32.7549 33.7728 35.8501 36.6502 36.3786 40.4364C36.907 44.2225 31.4716 48.6901 31.5471 47.0999C31.6226 45.5098 30.5089 42.2537 27.9234 42.2537C25.8851 42.2537 24.2998 44.071 24.2998 44.071C24.2998 44.071 22.2879 42.0534 21.0117 42.0081C19.7355 41.9627 17.5922 42.8467 17.6565 46.4942C17.7207 50.1417 24.9037 54.9751 24.9037 54.9751L28.9996 52C30.6816 51.3373 34.2458 49.7283 38.1723 51.869C41.3682 53.6115 42.5022 54.8579 46.4996 55C50.4971 55.1421 52.0015 51.3935 54.9996 51.5" stroke="#FF8870" stroke-width="2"/>
<path d="M75.42 32.504C72.036 32.504 69.408 31.376 67.536 29.12C65.688 26.84 64.764 23.612 64.764 19.436C64.764 15.284 65.724 12.08 67.644 9.824C69.564 7.544 72.252 6.404 75.708 6.404C77.004 6.404 78.252 6.572 79.452 6.908C80.652 7.244 81.636 7.736 82.404 8.384C83.172 9.032 83.556 9.776 83.556 10.616C83.556 11.384 83.22 12.044 82.548 12.596C81.876 13.124 80.94 13.376 79.74 13.352C79.38 9.8 78.06 8.024 75.78 8.024C73.788 8.024 72.312 8.972 71.352 10.868C70.416 12.74 69.948 15.596 69.948 19.436C69.948 23.276 70.404 26.144 71.316 28.04C72.252 29.912 73.704 30.848 75.672 30.848C77.28 30.848 78.396 30.164 79.02 28.796C79.644 27.428 79.956 25.832 79.956 24.008C79.956 22.832 79.8 21.824 79.488 20.984C79.176 20.144 78.6 19.532 77.76 19.148C77.952 18.692 78.312 18.344 78.84 18.104C79.368 17.84 79.944 17.708 80.568 17.708C81.816 17.708 82.824 18.152 83.592 19.04C84.36 19.904 84.744 21.176 84.744 22.856C84.744 24.92 84.324 26.684 83.484 28.148C82.668 29.588 81.552 30.68 80.136 31.424C78.72 32.144 77.148 32.504 75.42 32.504ZM93.5404 32.36C92.1484 32.36 91.0804 31.928 90.3364 31.064C89.5924 30.176 89.2204 28.952 89.2204 27.392V8.06C89.2204 7.292 89.4724 6.692 89.9764 6.26C90.4804 5.828 91.1284 5.612 91.9204 5.612C92.4964 5.612 93.0124 5.72 93.4684 5.936C93.9244 6.152 94.2844 6.392 94.5484 6.656C94.2844 7.688 94.1044 8.708 94.0084 9.716C93.9124 10.724 93.8644 12.044 93.8644 13.676V26.996C93.8644 28.268 94.2964 28.904 95.1604 28.904C95.3524 28.904 95.5564 28.868 95.7724 28.796C95.9884 28.7 96.1444 28.568 96.2404 28.4C96.5524 28.856 96.7084 29.348 96.7084 29.876C96.7084 30.596 96.3964 31.196 95.7724 31.676C95.1724 32.132 94.4284 32.36 93.5404 32.36ZM107.726 32.504C104.966 32.504 102.806 31.652 101.246 29.948C99.6858 28.22 98.9058 25.82 98.9058 22.748C98.9058 19.652 99.6738 17.24 101.21 15.512C102.77 13.784 104.942 12.92 107.726 12.92C110.486 12.92 112.634 13.784 114.17 15.512C115.73 17.24 116.51 19.652 116.51 22.748C116.51 25.82 115.73 28.22 114.17 29.948C112.634 31.652 110.486 32.504 107.726 32.504ZM107.726 30.884C110.246 30.884 111.506 28.172 111.506 22.748C111.506 17.276 110.246 14.54 107.726 14.54C106.43 14.54 105.47 15.224 104.846 16.592C104.222 17.96 103.91 20.012 103.91 22.748C103.91 25.46 104.222 27.5 104.846 28.868C105.47 30.212 106.43 30.884 107.726 30.884ZM128.086 32.504C126.526 32.504 125.05 32.3 123.658 31.892C122.266 31.46 121.15 30.872 120.31 30.128V8.06C120.31 7.316 120.538 6.728 120.994 6.296C121.474 5.84 122.074 5.612 122.794 5.612C123.418 5.612 123.97 5.72 124.45 5.936C124.954 6.152 125.362 6.392 125.674 6.656C125.17 8.672 124.918 11.156 124.918 14.108V16.664C125.35 15.512 126.034 14.6 126.97 13.928C127.93 13.256 129.082 12.92 130.426 12.92C132.442 12.92 134.002 13.664 135.106 15.152C136.234 16.616 136.798 18.908 136.798 22.028C136.798 25.364 136.09 27.944 134.674 29.768C133.282 31.592 131.086 32.504 128.086 32.504ZM127.762 30.632C129.346 30.608 130.414 29.84 130.966 28.328C131.542 26.816 131.83 24.716 131.83 22.028C131.83 19.7 131.638 18.008 131.254 16.952C130.87 15.896 130.234 15.368 129.346 15.368C127.93 15.368 126.838 16.124 126.07 17.636C125.326 19.124 124.954 20.96 124.954 23.144V29.768C125.29 30.032 125.71 30.248 126.214 30.416C126.742 30.56 127.258 30.632 127.762 30.632ZM158.1 28.4C158.412 28.856 158.568 29.348 158.568 29.876C158.568 30.572 158.268 31.16 157.668 31.64C157.068 32.12 156.264 32.36 155.256 32.36C154.104 32.36 153.204 31.988 152.556 31.244C151.908 30.476 151.536 29.24 151.44 27.536C150.768 29 149.832 30.176 148.632 31.064C147.432 31.928 146.04 32.36 144.456 32.36C143.04 32.36 141.9 31.988 141.036 31.244C140.172 30.5 139.74 29.456 139.74 28.112C139.74 26.576 140.328 25.316 141.504 24.332C142.68 23.348 144.168 22.592 145.968 22.064C147.528 21.632 149.244 21.392 151.116 21.344V20.444C151.116 18.404 150.876 16.904 150.396 15.944C149.916 14.984 149.088 14.504 147.912 14.504C147.144 14.504 146.52 14.732 146.04 15.188C145.56 15.62 145.32 16.292 145.32 17.204C145.32 18.476 145.752 19.364 146.616 19.868C146.352 20.132 145.992 20.336 145.536 20.48C145.104 20.624 144.636 20.696 144.132 20.696C143.028 20.696 142.152 20.384 141.504 19.76C140.88 19.136 140.568 18.344 140.568 17.384C140.568 15.968 141.252 14.876 142.62 14.108C143.988 13.316 145.848 12.92 148.2 12.92C150.864 12.92 152.808 13.532 154.032 14.756C155.28 15.98 155.904 17.972 155.904 20.732V26.996C155.904 28.268 156.3 28.904 157.092 28.904C157.26 28.904 157.44 28.868 157.632 28.796C157.824 28.7 157.98 28.568 158.1 28.4ZM146.616 29.336C147.312 29.336 148.02 29.048 148.74 28.472C149.46 27.896 150.06 27.116 150.54 26.132C151.02 25.124 151.26 24.032 151.26 22.856C149.364 22.856 147.948 23.12 147.012 23.648C146.34 23.984 145.8 24.44 145.392 25.016C145.008 25.592 144.816 26.252 144.816 26.996C144.816 27.644 144.96 28.196 145.248 28.652C145.56 29.108 146.016 29.336 146.616 29.336ZM165.855 32.36C164.463 32.36 163.395 31.928 162.651 31.064C161.907 30.176 161.535 28.952 161.535 27.392V8.06C161.535 7.292 161.787 6.692 162.291 6.26C162.795 5.828 163.443 5.612 164.235 5.612C164.811 5.612 165.327 5.72 165.783 5.936C166.239 6.152 166.599 6.392 166.863 6.656C166.599 7.688 166.419 8.708 166.323 9.716C166.227 10.724 166.179 12.044 166.179 13.676V26.996C166.179 28.268 166.611 28.904 167.475 28.904C167.667 28.904 167.871 28.868 168.087 28.796C168.303 28.7 168.459 28.568 168.555 28.4C168.867 28.856 169.023 29.348 169.023 29.876C169.023 30.596 168.711 31.196 168.087 31.676C167.487 32.132 166.743 32.36 165.855 32.36Z" fill="#FF8870"/>
<path d="M182.381 32.504C178.997 32.504 176.369 31.376 174.497 29.12C172.649 26.84 171.725 23.612 171.725 19.436C171.725 15.284 172.685 12.08 174.605 9.824C176.525 7.544 179.213 6.404 182.669 6.404C183.965 6.404 185.213 6.572 186.413 6.908C187.613 7.244 188.597 7.736 189.365 8.384C190.133 9.032 190.517 9.776 190.517 10.616C190.517 11.384 190.181 12.044 189.509 12.596C188.837 13.124 187.901 13.376 186.701 13.352C186.341 9.8 185.021 8.024 182.741 8.024C180.749 8.024 179.273 8.972 178.313 10.868C177.377 12.74 176.909 15.596 176.909 19.436C176.909 23.276 177.365 26.144 178.277 28.04C179.213 29.912 180.665 30.848 182.633 30.848C184.241 30.848 185.357 30.164 185.981 28.796C186.605 27.428 186.917 25.832 186.917 24.008C186.917 22.832 186.761 21.824 186.449 20.984C186.137 20.144 185.561 19.532 184.721 19.148C184.913 18.692 185.273 18.344 185.801 18.104C186.329 17.84 186.905 17.708 187.529 17.708C188.777 17.708 189.785 18.152 190.553 19.04C191.321 19.904 191.705 21.176 191.705 22.856C191.705 24.92 191.285 26.684 190.445 28.148C189.629 29.588 188.513 30.68 187.097 31.424C185.681 32.144 184.109 32.504 182.381 32.504ZM198.665 11.156C197.921 11.156 197.285 10.904 196.757 10.4C196.229 9.872 195.965 9.236 195.965 8.492C195.965 7.724 196.229 7.088 196.757 6.584C197.285 6.056 197.921 5.792 198.665 5.792C199.409 5.792 200.033 6.056 200.537 6.584C201.041 7.088 201.293 7.724 201.293 8.492C201.293 9.236 201.041 9.872 200.537 10.4C200.033 10.904 199.409 11.156 198.665 11.156ZM201.149 26.924C201.149 28.82 201.377 30.332 201.833 31.46C201.065 32.156 200.165 32.504 199.133 32.504C198.389 32.504 197.765 32.288 197.261 31.856C196.781 31.424 196.541 30.836 196.541 30.092V18.5C196.541 16.676 196.313 15.152 195.857 13.928C196.601 13.256 197.465 12.92 198.449 12.92C199.241 12.92 199.877 13.136 200.357 13.568C200.861 13.976 201.113 14.564 201.113 15.332L201.149 26.924ZM219.274 12.992C220.162 12.992 220.81 13.148 221.218 13.46C221.626 13.772 221.83 14.276 221.83 14.972C221.83 15.836 221.662 16.652 221.326 17.42L215.89 31.82C214.882 32.276 213.838 32.504 212.758 32.504C211.438 32.504 210.622 32 210.31 30.992L205.378 16.304C205.21 15.776 205.042 15.344 204.874 15.008C204.73 14.648 204.538 14.336 204.298 14.072C204.874 13.352 205.75 12.992 206.926 12.992C207.67 12.992 208.282 13.148 208.762 13.46C209.242 13.772 209.542 14.228 209.662 14.828L213.586 29.696L216.97 16.232C217.114 15.512 217.186 14.984 217.186 14.648C217.186 14.12 217.078 13.736 216.862 13.496C217.294 13.328 217.678 13.208 218.014 13.136C218.35 13.04 218.77 12.992 219.274 12.992ZM239.533 26.816C239.917 26.984 240.109 27.308 240.109 27.788C240.109 28.1 240.025 28.46 239.857 28.868C239.401 30.02 238.573 30.92 237.373 31.568C236.173 32.192 234.721 32.504 233.017 32.504C230.233 32.504 228.025 31.652 226.393 29.948C224.761 28.22 223.945 25.796 223.945 22.676C223.945 19.628 224.737 17.24 226.321 15.512C227.905 13.784 230.161 12.92 233.089 12.92C235.225 12.92 236.977 13.4 238.345 14.36C239.713 15.296 240.397 16.628 240.397 18.356C240.397 20.108 239.689 21.464 238.273 22.424C236.857 23.384 234.961 23.864 232.585 23.864C231.049 23.864 229.861 23.816 229.021 23.72C229.189 25.808 229.717 27.308 230.605 28.22C231.517 29.132 232.765 29.588 234.349 29.588C235.621 29.588 236.701 29.336 237.589 28.832C238.477 28.328 239.125 27.656 239.533 26.816ZM232.909 14.54C231.661 14.54 230.689 15.212 229.993 16.556C229.297 17.876 228.949 19.712 228.949 22.064V22.1L230.173 22.136C231.661 22.136 232.897 21.824 233.881 21.2C234.889 20.576 235.393 19.376 235.393 17.6C235.393 15.56 234.565 14.54 232.909 14.54Z" fill="#FCD9D3"/>
<path d="M64.92 42.03C64.68 42.03 64.48 41.95 64.32 41.79C64.16 41.63 64.08 41.43 64.08 41.19C64.08 40.94 64.16 40.74 64.32 40.59C64.48 40.43 64.68 40.35 64.92 40.35C65.16 40.35 65.36 40.43 65.52 40.59C65.68 40.74 65.76 40.94 65.76 41.19C65.76 41.43 65.68 41.63 65.52 41.79C65.36 41.95 65.16 42.03 64.92 42.03ZM64.5 50.985C64.4 50.985 64.35 50.935 64.35 50.835V43.545C64.35 43.445 64.4 43.395 64.5 43.395H65.265C65.365 43.395 65.415 43.445 65.415 43.545V50.835C65.415 50.935 65.365 50.985 65.265 50.985H64.5ZM71.6232 43.305C72.4232 43.305 73.0582 43.54 73.5282 44.01C74.0082 44.48 74.2482 45.11 74.2482 45.9V50.85C74.2482 50.95 74.1982 51 74.0982 51H73.3332C73.2332 51 73.1832 50.95 73.1832 50.85V46.11C73.1832 45.56 73.0132 45.11 72.6732 44.76C72.3432 44.41 71.9132 44.235 71.3832 44.235C70.8332 44.235 70.3882 44.405 70.0482 44.745C69.7082 45.085 69.5382 45.53 69.5382 46.08V50.85C69.5382 50.95 69.4882 51 69.3882 51H68.6232C68.5232 51 68.4732 50.95 68.4732 50.85V43.56C68.4732 43.46 68.5232 43.41 68.6232 43.41H69.3882C69.4882 43.41 69.5382 43.46 69.5382 43.56V44.205C69.5382 44.225 69.5432 44.24 69.5532 44.25C69.5732 44.26 69.5882 44.255 69.5982 44.235C70.0382 43.615 70.7132 43.305 71.6232 43.305ZM80.4142 44.145C80.4142 44.245 80.3642 44.295 80.2642 44.295H78.5692C78.5292 44.295 78.5092 44.315 78.5092 44.355V48.78C78.5092 49.26 78.6142 49.6 78.8242 49.8C79.0442 49.99 79.3842 50.085 79.8442 50.085H80.2192C80.3192 50.085 80.3692 50.135 80.3692 50.235V50.85C80.3692 50.95 80.3192 51 80.2192 51C80.0992 51.01 79.9142 51.015 79.6642 51.015C78.9442 51.015 78.3992 50.88 78.0292 50.61C77.6592 50.34 77.4742 49.84 77.4742 49.11V44.355C77.4742 44.315 77.4542 44.295 77.4142 44.295H76.4992C76.3992 44.295 76.3492 44.245 76.3492 44.145V43.56C76.3492 43.46 76.3992 43.41 76.4992 43.41H77.4142C77.4542 43.41 77.4742 43.39 77.4742 43.35V41.61C77.4742 41.51 77.5242 41.46 77.6242 41.46H78.3592C78.4592 41.46 78.5092 41.51 78.5092 41.61V43.35C78.5092 43.39 78.5292 43.41 78.5692 43.41H80.2642C80.3642 43.41 80.4142 43.46 80.4142 43.56V44.145ZM88.5233 45.93C88.5633 46.21 88.5833 46.56 88.5833 46.98V47.46C88.5833 47.56 88.5333 47.61 88.4333 47.61H83.5883C83.5483 47.61 83.5283 47.63 83.5283 47.67C83.5483 48.22 83.5783 48.575 83.6183 48.735C83.7283 49.185 83.9633 49.54 84.3233 49.8C84.6833 50.06 85.1433 50.19 85.7033 50.19C86.1233 50.19 86.4933 50.095 86.8133 49.905C87.1333 49.715 87.3833 49.445 87.5633 49.095C87.6233 49.005 87.6933 48.985 87.7733 49.035L88.3583 49.38C88.4383 49.43 88.4583 49.5 88.4183 49.59C88.1683 50.07 87.7933 50.45 87.2933 50.73C86.7933 51 86.2183 51.135 85.5683 51.135C84.8583 51.125 84.2633 50.955 83.7833 50.625C83.3033 50.295 82.9583 49.835 82.7483 49.245C82.5683 48.765 82.4783 48.075 82.4783 47.175C82.4783 46.755 82.4833 46.415 82.4933 46.155C82.5133 45.885 82.5533 45.645 82.6133 45.435C82.7833 44.785 83.1233 44.265 83.6333 43.875C84.1533 43.485 84.7783 43.29 85.5083 43.29C86.4183 43.29 87.1183 43.52 87.6083 43.98C88.0983 44.44 88.4033 45.09 88.5233 45.93ZM85.5083 44.22C85.0183 44.22 84.6083 44.35 84.2783 44.61C83.9583 44.86 83.7483 45.2 83.6483 45.63C83.5883 45.84 83.5483 46.18 83.5283 46.65C83.5283 46.69 83.5483 46.71 83.5883 46.71H87.4733C87.5133 46.71 87.5333 46.69 87.5333 46.65C87.5133 46.2 87.4833 45.88 87.4433 45.69C87.3333 45.24 87.1083 44.885 86.7683 44.625C86.4383 44.355 86.0183 44.22 85.5083 44.22ZM94.2114 43.335C94.5414 43.335 94.8264 43.4 95.0664 43.53C95.1464 43.57 95.1764 43.635 95.1564 43.725L94.9914 44.46C94.9614 44.56 94.8964 44.59 94.7964 44.55C94.6264 44.48 94.4314 44.445 94.2114 44.445L94.0164 44.46C93.4964 44.48 93.0664 44.675 92.7264 45.045C92.3864 45.405 92.2164 45.865 92.2164 46.425V50.85C92.2164 50.95 92.1664 51 92.0664 51H91.3014C91.2014 51 91.1514 50.95 91.1514 50.85V43.56C91.1514 43.46 91.2014 43.41 91.3014 43.41H92.0664C92.1664 43.41 92.2164 43.46 92.2164 43.56V44.475C92.2164 44.505 92.2214 44.525 92.2314 44.535C92.2514 44.535 92.2664 44.525 92.2764 44.505C92.4864 44.135 92.7514 43.85 93.0714 43.65C93.4014 43.44 93.7814 43.335 94.2114 43.335ZM100.215 43.305C101.015 43.305 101.65 43.54 102.12 44.01C102.6 44.48 102.84 45.11 102.84 45.9V50.85C102.84 50.95 102.79 51 102.69 51H101.925C101.825 51 101.775 50.95 101.775 50.85V46.11C101.775 45.56 101.605 45.11 101.265 44.76C100.935 44.41 100.505 44.235 99.9752 44.235C99.4252 44.235 98.9802 44.405 98.6402 44.745C98.3002 45.085 98.1302 45.53 98.1302 46.08V50.85C98.1302 50.95 98.0802 51 97.9802 51H97.2152C97.1152 51 97.0652 50.95 97.0652 50.85V43.56C97.0652 43.46 97.1152 43.41 97.2152 43.41H97.9802C98.0802 43.41 98.1302 43.46 98.1302 43.56V44.205C98.1302 44.225 98.1352 44.24 98.1452 44.25C98.1652 44.26 98.1802 44.255 98.1902 44.235C98.6302 43.615 99.3052 43.305 100.215 43.305ZM108.226 43.29C109.126 43.29 109.821 43.52 110.311 43.98C110.801 44.44 111.046 45.05 111.046 45.81V50.85C111.046 50.95 110.996 51 110.896 51H110.131C110.031 51 109.981 50.95 109.981 50.85V50.235C109.981 50.215 109.971 50.2 109.951 50.19C109.941 50.18 109.926 50.185 109.906 50.205C109.656 50.505 109.331 50.735 108.931 50.895C108.531 51.045 108.086 51.12 107.596 51.12C106.886 51.12 106.291 50.94 105.811 50.58C105.331 50.22 105.091 49.67 105.091 48.93C105.091 48.18 105.361 47.59 105.901 47.16C106.451 46.72 107.211 46.5 108.181 46.5H109.921C109.961 46.5 109.981 46.48 109.981 46.44V45.87C109.981 45.36 109.836 44.96 109.546 44.67C109.266 44.37 108.826 44.22 108.226 44.22C107.746 44.22 107.356 44.315 107.056 44.505C106.756 44.685 106.571 44.94 106.501 45.27C106.471 45.37 106.411 45.415 106.321 45.405L105.511 45.3C105.401 45.28 105.356 45.24 105.376 45.18C105.456 44.62 105.756 44.165 106.276 43.815C106.796 43.465 107.446 43.29 108.226 43.29ZM107.806 50.205C108.396 50.205 108.906 50.06 109.336 49.77C109.766 49.47 109.981 49.07 109.981 48.57V47.4C109.981 47.36 109.961 47.34 109.921 47.34H108.346C107.686 47.34 107.156 47.475 106.756 47.745C106.356 48.015 106.156 48.39 106.156 48.87C106.156 49.31 106.306 49.645 106.606 49.875C106.916 50.095 107.316 50.205 107.806 50.205ZM117.059 44.145C117.059 44.245 117.009 44.295 116.909 44.295H115.214C115.174 44.295 115.154 44.315 115.154 44.355V48.78C115.154 49.26 115.259 49.6 115.469 49.8C115.689 49.99 116.029 50.085 116.489 50.085H116.864C116.964 50.085 117.014 50.135 117.014 50.235V50.85C117.014 50.95 116.964 51 116.864 51C116.744 51.01 116.559 51.015 116.309 51.015C115.589 51.015 115.044 50.88 114.674 50.61C114.304 50.34 114.119 49.84 114.119 49.11V44.355C114.119 44.315 114.099 44.295 114.059 44.295H113.144C113.044 44.295 112.994 44.245 112.994 44.145V43.56C112.994 43.46 113.044 43.41 113.144 43.41H114.059C114.099 43.41 114.119 43.39 114.119 43.35V41.61C114.119 41.51 114.169 41.46 114.269 41.46H115.004C115.104 41.46 115.154 41.51 115.154 41.61V43.35C115.154 43.39 115.174 43.41 115.214 43.41H116.909C117.009 43.41 117.059 43.46 117.059 43.56V44.145ZM120.288 42.03C120.048 42.03 119.848 41.95 119.688 41.79C119.528 41.63 119.448 41.43 119.448 41.19C119.448 40.94 119.528 40.74 119.688 40.59C119.848 40.43 120.048 40.35 120.288 40.35C120.528 40.35 120.728 40.43 120.888 40.59C121.048 40.74 121.128 40.94 121.128 41.19C121.128 41.43 121.048 41.63 120.888 41.79C120.728 41.95 120.528 42.03 120.288 42.03ZM119.868 50.985C119.768 50.985 119.718 50.935 119.718 50.835V43.545C119.718 43.445 119.768 43.395 119.868 43.395H120.633C120.733 43.395 120.783 43.445 120.783 43.545V50.835C120.783 50.935 120.733 50.985 120.633 50.985H119.868ZM126.736 51.12C126.016 51.12 125.396 50.935 124.876 50.565C124.356 50.195 123.996 49.685 123.796 49.035C123.656 48.575 123.586 47.96 123.586 47.19C123.586 46.42 123.656 45.81 123.796 45.36C123.986 44.72 124.341 44.215 124.861 43.845C125.381 43.475 126.011 43.29 126.751 43.29C127.461 43.29 128.071 43.475 128.581 43.845C129.101 44.215 129.456 44.715 129.646 45.345C129.786 45.775 129.856 46.39 129.856 47.19C129.856 48 129.786 48.615 129.646 49.035C129.456 49.685 129.101 50.195 128.581 50.565C128.071 50.935 127.456 51.12 126.736 51.12ZM126.736 50.19C127.216 50.19 127.626 50.06 127.966 49.8C128.306 49.53 128.536 49.17 128.656 48.72C128.746 48.36 128.791 47.855 128.791 47.205C128.791 46.545 128.751 46.04 128.671 45.69C128.551 45.24 128.316 44.885 127.966 44.625C127.626 44.355 127.211 44.22 126.721 44.22C126.231 44.22 125.816 44.355 125.476 44.625C125.136 44.885 124.906 45.24 124.786 45.69C124.706 46.04 124.666 46.545 124.666 47.205C124.666 47.865 124.706 48.37 124.786 48.72C124.896 49.17 125.121 49.53 125.461 49.8C125.811 50.06 126.236 50.19 126.736 50.19ZM135.615 43.305C136.415 43.305 137.05 43.54 137.52 44.01C138 44.48 138.24 45.11 138.24 45.9V50.85C138.24 50.95 138.19 51 138.09 51H137.325C137.225 51 137.175 50.95 137.175 50.85V46.11C137.175 45.56 137.005 45.11 136.665 44.76C136.335 44.41 135.905 44.235 135.375 44.235C134.825 44.235 134.38 44.405 134.04 44.745C133.7 45.085 133.53 45.53 133.53 46.08V50.85C133.53 50.95 133.48 51 133.38 51H132.615C132.515 51 132.465 50.95 132.465 50.85V43.56C132.465 43.46 132.515 43.41 132.615 43.41H133.38C133.48 43.41 133.53 43.46 133.53 43.56V44.205C133.53 44.225 133.535 44.24 133.545 44.25C133.565 44.26 133.58 44.255 133.59 44.235C134.03 43.615 134.705 43.305 135.615 43.305ZM143.626 43.29C144.526 43.29 145.221 43.52 145.711 43.98C146.201 44.44 146.446 45.05 146.446 45.81V50.85C146.446 50.95 146.396 51 146.296 51H145.531C145.431 51 145.381 50.95 145.381 50.85V50.235C145.381 50.215 145.371 50.2 145.351 50.19C145.341 50.18 145.326 50.185 145.306 50.205C145.056 50.505 144.731 50.735 144.331 50.895C143.931 51.045 143.486 51.12 142.996 51.12C142.286 51.12 141.691 50.94 141.211 50.58C140.731 50.22 140.491 49.67 140.491 48.93C140.491 48.18 140.761 47.59 141.301 47.16C141.851 46.72 142.611 46.5 143.581 46.5H145.321C145.361 46.5 145.381 46.48 145.381 46.44V45.87C145.381 45.36 145.236 44.96 144.946 44.67C144.666 44.37 144.226 44.22 143.626 44.22C143.146 44.22 142.756 44.315 142.456 44.505C142.156 44.685 141.971 44.94 141.901 45.27C141.871 45.37 141.811 45.415 141.721 45.405L140.911 45.3C140.801 45.28 140.756 45.24 140.776 45.18C140.856 44.62 141.156 44.165 141.676 43.815C142.196 43.465 142.846 43.29 143.626 43.29ZM143.206 50.205C143.796 50.205 144.306 50.06 144.736 49.77C145.166 49.47 145.381 49.07 145.381 48.57V47.4C145.381 47.36 145.361 47.34 145.321 47.34H143.746C143.086 47.34 142.556 47.475 142.156 47.745C141.756 48.015 141.556 48.39 141.556 48.87C141.556 49.31 141.706 49.645 142.006 49.875C142.316 50.095 142.716 50.205 143.206 50.205ZM149.262 51C149.162 51 149.112 50.95 149.112 50.85V40.65C149.112 40.55 149.162 40.5 149.262 40.5H150.027C150.127 40.5 150.177 40.55 150.177 40.65V50.85C150.177 50.95 150.127 51 150.027 51H149.262ZM159.367 51.12C158.647 51.12 158.027 50.935 157.507 50.565C156.987 50.195 156.627 49.685 156.427 49.035C156.287 48.575 156.217 47.96 156.217 47.19C156.217 46.42 156.287 45.81 156.427 45.36C156.617 44.72 156.972 44.215 157.492 43.845C158.012 43.475 158.642 43.29 159.382 43.29C160.092 43.29 160.702 43.475 161.212 43.845C161.732 44.215 162.087 44.715 162.277 45.345C162.417 45.775 162.487 46.39 162.487 47.19C162.487 48 162.417 48.615 162.277 49.035C162.087 49.685 161.732 50.195 161.212 50.565C160.702 50.935 160.087 51.12 159.367 51.12ZM159.367 50.19C159.847 50.19 160.257 50.06 160.597 49.8C160.937 49.53 161.167 49.17 161.287 48.72C161.377 48.36 161.422 47.855 161.422 47.205C161.422 46.545 161.382 46.04 161.302 45.69C161.182 45.24 160.947 44.885 160.597 44.625C160.257 44.355 159.842 44.22 159.352 44.22C158.862 44.22 158.447 44.355 158.107 44.625C157.767 44.885 157.537 45.24 157.417 45.69C157.337 46.04 157.297 46.545 157.297 47.205C157.297 47.865 157.337 48.37 157.417 48.72C157.527 49.17 157.752 49.53 158.092 49.8C158.442 50.06 158.867 50.19 159.367 50.19ZM168.156 43.335C168.486 43.335 168.771 43.4 169.011 43.53C169.091 43.57 169.121 43.635 169.101 43.725L168.936 44.46C168.906 44.56 168.841 44.59 168.741 44.55C168.571 44.48 168.376 44.445 168.156 44.445L167.961 44.46C167.441 44.48 167.011 44.675 166.671 45.045C166.331 45.405 166.161 45.865 166.161 46.425V50.85C166.161 50.95 166.111 51 166.011 51H165.246C165.146 51 165.096 50.95 165.096 50.85V43.56C165.096 43.46 165.146 43.41 165.246 43.41H166.011C166.111 43.41 166.161 43.46 166.161 43.56V44.475C166.161 44.505 166.166 44.525 166.176 44.535C166.196 44.535 166.211 44.525 166.221 44.505C166.431 44.135 166.696 43.85 167.016 43.65C167.346 43.44 167.726 43.335 168.156 43.335ZM175.514 43.56C175.514 43.46 175.564 43.41 175.664 43.41H176.429C176.529 43.41 176.579 43.46 176.579 43.56V50.745C176.579 51.865 176.254 52.685 175.604 53.205C174.964 53.725 174.079 53.985 172.949 53.985C172.719 53.985 172.544 53.98 172.424 53.97C172.324 53.96 172.274 53.905 172.274 53.805L172.304 53.115C172.304 53.065 172.319 53.025 172.349 52.995C172.379 52.975 172.414 52.97 172.454 52.98L172.859 52.995C173.789 52.995 174.464 52.81 174.884 52.44C175.304 52.08 175.514 51.505 175.514 50.715V50.16C175.514 50.14 175.504 50.13 175.484 50.13C175.474 50.12 175.459 50.125 175.439 50.145C174.979 50.745 174.324 51.045 173.474 51.045C172.824 51.045 172.244 50.87 171.734 50.52C171.234 50.17 170.899 49.675 170.729 49.035C170.609 48.625 170.549 48.015 170.549 47.205C170.549 46.765 170.559 46.395 170.579 46.095C170.609 45.795 170.664 45.525 170.744 45.285C170.924 44.685 171.249 44.205 171.719 43.845C172.189 43.475 172.754 43.29 173.414 43.29C174.304 43.29 174.979 43.585 175.439 44.175C175.459 44.195 175.474 44.2 175.484 44.19C175.504 44.18 175.514 44.165 175.514 44.145V43.56ZM175.439 48.705C175.469 48.555 175.489 48.37 175.499 48.15C175.509 47.93 175.514 47.61 175.514 47.19C175.514 46.68 175.509 46.34 175.499 46.17C175.489 45.99 175.464 45.825 175.424 45.675C175.344 45.255 175.144 44.91 174.824 44.64C174.514 44.36 174.119 44.22 173.639 44.22C173.169 44.22 172.769 44.355 172.439 44.625C172.119 44.895 171.894 45.245 171.764 45.675C171.664 45.995 171.614 46.495 171.614 47.175C171.614 47.905 171.664 48.41 171.764 48.69C171.864 49.11 172.079 49.46 172.409 49.74C172.749 50.01 173.159 50.145 173.639 50.145C174.129 50.145 174.529 50.01 174.839 49.74C175.159 49.47 175.359 49.125 175.439 48.705ZM181.936 43.29C182.836 43.29 183.531 43.52 184.021 43.98C184.511 44.44 184.756 45.05 184.756 45.81V50.85C184.756 50.95 184.706 51 184.606 51H183.841C183.741 51 183.691 50.95 183.691 50.85V50.235C183.691 50.215 183.681 50.2 183.661 50.19C183.651 50.18 183.636 50.185 183.616 50.205C183.366 50.505 183.041 50.735 182.641 50.895C182.241 51.045 181.796 51.12 181.306 51.12C180.596 51.12 180.001 50.94 179.521 50.58C179.041 50.22 178.801 49.67 178.801 48.93C178.801 48.18 179.071 47.59 179.611 47.16C180.161 46.72 180.921 46.5 181.891 46.5H183.631C183.671 46.5 183.691 46.48 183.691 46.44V45.87C183.691 45.36 183.546 44.96 183.256 44.67C182.976 44.37 182.536 44.22 181.936 44.22C181.456 44.22 181.066 44.315 180.766 44.505C180.466 44.685 180.281 44.94 180.211 45.27C180.181 45.37 180.121 45.415 180.031 45.405L179.221 45.3C179.111 45.28 179.066 45.24 179.086 45.18C179.166 44.62 179.466 44.165 179.986 43.815C180.506 43.465 181.156 43.29 181.936 43.29ZM181.516 50.205C182.106 50.205 182.616 50.06 183.046 49.77C183.476 49.47 183.691 49.07 183.691 48.57V47.4C183.691 47.36 183.671 47.34 183.631 47.34H182.056C181.396 47.34 180.866 47.475 180.466 47.745C180.066 48.015 179.866 48.39 179.866 48.87C179.866 49.31 180.016 49.645 180.316 49.875C180.626 50.095 181.026 50.205 181.516 50.205ZM190.572 43.305C191.372 43.305 192.007 43.54 192.477 44.01C192.957 44.48 193.197 45.11 193.197 45.9V50.85C193.197 50.95 193.147 51 193.047 51H192.282C192.182 51 192.132 50.95 192.132 50.85V46.11C192.132 45.56 191.962 45.11 191.622 44.76C191.292 44.41 190.862 44.235 190.332 44.235C189.782 44.235 189.337 44.405 188.997 44.745C188.657 45.085 188.487 45.53 188.487 46.08V50.85C188.487 50.95 188.437 51 188.337 51H187.572C187.472 51 187.422 50.95 187.422 50.85V43.56C187.422 43.46 187.472 43.41 187.572 43.41H188.337C188.437 43.41 188.487 43.46 188.487 43.56V44.205C188.487 44.225 188.492 44.24 188.502 44.25C188.522 44.26 188.537 44.255 188.547 44.235C188.987 43.615 189.662 43.305 190.572 43.305ZM196.678 42.03C196.438 42.03 196.238 41.95 196.078 41.79C195.918 41.63 195.838 41.43 195.838 41.19C195.838 40.94 195.918 40.74 196.078 40.59C196.238 40.43 196.438 40.35 196.678 40.35C196.918 40.35 197.118 40.43 197.278 40.59C197.438 40.74 197.518 40.94 197.518 41.19C197.518 41.43 197.438 41.63 197.278 41.79C197.118 41.95 196.918 42.03 196.678 42.03ZM196.258 50.985C196.158 50.985 196.108 50.935 196.108 50.835V43.545C196.108 43.445 196.158 43.395 196.258 43.395H197.023C197.123 43.395 197.173 43.445 197.173 43.545V50.835C197.173 50.935 197.123 50.985 197.023 50.985H196.258ZM199.691 51C199.591 51 199.541 50.95 199.541 50.85V50.13C199.541 50.06 199.561 50 199.601 49.95L203.861 44.46C203.881 44.44 203.886 44.425 203.876 44.415C203.866 44.395 203.851 44.385 203.831 44.385H199.751C199.651 44.385 199.601 44.335 199.601 44.235V43.56C199.601 43.46 199.651 43.41 199.751 43.41H205.016C205.116 43.41 205.166 43.46 205.166 43.56V44.28C205.166 44.35 205.146 44.41 205.106 44.46L200.801 49.95C200.781 49.97 200.776 49.99 200.786 50.01C200.796 50.02 200.811 50.025 200.831 50.025H205.016C205.116 50.025 205.166 50.075 205.166 50.175V50.85C205.166 50.95 205.116 51 205.016 51H199.691ZM209.986 43.29C210.886 43.29 211.581 43.52 212.071 43.98C212.561 44.44 212.806 45.05 212.806 45.81V50.85C212.806 50.95 212.756 51 212.656 51H211.891C211.791 51 211.741 50.95 211.741 50.85V50.235C211.741 50.215 211.731 50.2 211.711 50.19C211.701 50.18 211.686 50.185 211.666 50.205C211.416 50.505 211.091 50.735 210.691 50.895C210.291 51.045 209.846 51.12 209.356 51.12C208.646 51.12 208.051 50.94 207.571 50.58C207.091 50.22 206.851 49.67 206.851 48.93C206.851 48.18 207.121 47.59 207.661 47.16C208.211 46.72 208.971 46.5 209.941 46.5H211.681C211.721 46.5 211.741 46.48 211.741 46.44V45.87C211.741 45.36 211.596 44.96 211.306 44.67C211.026 44.37 210.586 44.22 209.986 44.22C209.506 44.22 209.116 44.315 208.816 44.505C208.516 44.685 208.331 44.94 208.261 45.27C208.231 45.37 208.171 45.415 208.081 45.405L207.271 45.3C207.161 45.28 207.116 45.24 207.136 45.18C207.216 44.62 207.516 44.165 208.036 43.815C208.556 43.465 209.206 43.29 209.986 43.29ZM209.566 50.205C210.156 50.205 210.666 50.06 211.096 49.77C211.526 49.47 211.741 49.07 211.741 48.57V47.4C211.741 47.36 211.721 47.34 211.681 47.34H210.106C209.446 47.34 208.916 47.475 208.516 47.745C208.116 48.015 207.916 48.39 207.916 48.87C207.916 49.31 208.066 49.645 208.366 49.875C208.676 50.095 209.076 50.205 209.566 50.205ZM218.818 44.145C218.818 44.245 218.768 44.295 218.668 44.295H216.973C216.933 44.295 216.913 44.315 216.913 44.355V48.78C216.913 49.26 217.018 49.6 217.228 49.8C217.448 49.99 217.788 50.085 218.248 50.085H218.623C218.723 50.085 218.773 50.135 218.773 50.235V50.85C218.773 50.95 218.723 51 218.623 51C218.503 51.01 218.318 51.015 218.068 51.015C217.348 51.015 216.803 50.88 216.433 50.61C216.063 50.34 215.878 49.84 215.878 49.11V44.355C215.878 44.315 215.858 44.295 215.818 44.295H214.903C214.803 44.295 214.753 44.245 214.753 44.145V43.56C214.753 43.46 214.803 43.41 214.903 43.41H215.818C215.858 43.41 215.878 43.39 215.878 43.35V41.61C215.878 41.51 215.928 41.46 216.028 41.46H216.763C216.863 41.46 216.913 41.51 216.913 41.61V43.35C216.913 43.39 216.933 43.41 216.973 43.41H218.668C218.768 43.41 218.818 43.46 218.818 43.56V44.145ZM222.047 42.03C221.807 42.03 221.607 41.95 221.447 41.79C221.287 41.63 221.207 41.43 221.207 41.19C221.207 40.94 221.287 40.74 221.447 40.59C221.607 40.43 221.807 40.35 222.047 40.35C222.287 40.35 222.487 40.43 222.647 40.59C222.807 40.74 222.887 40.94 222.887 41.19C222.887 41.43 222.807 41.63 222.647 41.79C222.487 41.95 222.287 42.03 222.047 42.03ZM221.627 50.985C221.527 50.985 221.477 50.935 221.477 50.835V43.545C221.477 43.445 221.527 43.395 221.627 43.395H222.392C222.492 43.395 222.542 43.445 222.542 43.545V50.835C222.542 50.935 222.492 50.985 222.392 50.985H221.627ZM228.496 51.12C227.776 51.12 227.156 50.935 226.636 50.565C226.116 50.195 225.756 49.685 225.556 49.035C225.416 48.575 225.346 47.96 225.346 47.19C225.346 46.42 225.416 45.81 225.556 45.36C225.746 44.72 226.101 44.215 226.621 43.845C227.141 43.475 227.771 43.29 228.511 43.29C229.221 43.29 229.831 43.475 230.341 43.845C230.861 44.215 231.216 44.715 231.406 45.345C231.546 45.775 231.616 46.39 231.616 47.19C231.616 48 231.546 48.615 231.406 49.035C231.216 49.685 230.861 50.195 230.341 50.565C229.831 50.935 229.216 51.12 228.496 51.12ZM228.496 50.19C228.976 50.19 229.386 50.06 229.726 49.8C230.066 49.53 230.296 49.17 230.416 48.72C230.506 48.36 230.551 47.855 230.551 47.205C230.551 46.545 230.511 46.04 230.431 45.69C230.311 45.24 230.076 44.885 229.726 44.625C229.386 44.355 228.971 44.22 228.481 44.22C227.991 44.22 227.576 44.355 227.236 44.625C226.896 44.885 226.666 45.24 226.546 45.69C226.466 46.04 226.426 46.545 226.426 47.205C226.426 47.865 226.466 48.37 226.546 48.72C226.656 49.17 226.881 49.53 227.221 49.8C227.571 50.06 227.996 50.19 228.496 50.19ZM237.374 43.305C238.174 43.305 238.809 43.54 239.279 44.01C239.759 44.48 239.999 45.11 239.999 45.9V50.85C239.999 50.95 239.949 51 239.849 51H239.084C238.984 51 238.934 50.95 238.934 50.85V46.11C238.934 45.56 238.764 45.11 238.424 44.76C238.094 44.41 237.664 44.235 237.134 44.235C236.584 44.235 236.139 44.405 235.799 44.745C235.459 45.085 235.289 45.53 235.289 46.08V50.85C235.289 50.95 235.239 51 235.139 51H234.374C234.274 51 234.224 50.95 234.224 50.85V43.56C234.224 43.46 234.274 43.41 234.374 43.41H235.139C235.239 43.41 235.289 43.46 235.289 43.56V44.205C235.289 44.225 235.294 44.24 235.304 44.25C235.324 44.26 235.339 44.255 235.349 44.235C235.789 43.615 236.464 43.305 237.374 43.305Z" fill="#9E9E9E"/>
</svg>
