<svg width="242" height="57" viewBox="0 0 242 57" fill="none" xmlns="http://www.w3.org/2000/svg">
<path d="M40.6061 39.8306C40.8082 34.1448 51.477 29.2294 52.6849 27.1092C53.8928 24.989 51.477 24.0046 50.2691 24.0803C49.0613 24.156 37.8884 29.608 39.3983 27.715C40.1337 24.8312 50.1936 15.145 49.6652 12.5705C49.4949 11.7412 48.9531 10.7376 47.1413 10.6619C45.3295 10.5862 35.2047 22.7453 33.9628 21.6572C32.5069 20.0885 38.2536 7.34385 38.7943 6.51267C39.3417 4.88094 39.934 3.47492 36.9143 2.79341C35.2012 2.40678 29.2994 19.9746 25.5077 19.8398C23.8028 19.7792 25.2812 7.42134 24.9037 4.69533C24.5263 1.96931 23.308 0.911165 21.8841 1.06064C20.4601 1.21012 19.0154 2.5751 18.8644 5.30111C18.7134 8.02712 17.8075 28.4722 13.4289 27.715C11.0277 27.2997 8.52193 19.8398 4.97379 19.8398C4.12828 19.8398 1.96196 19.4612 1.9541 23.4745C1.95048 25.4051 5.35911 30.3495 7.99348 34.9843C10.6707 39.6949 13.9186 44.5031 13.9186 44.5031C13.4209 42.7328 13.5931 38.8707 13.5931 38.8707C13.6808 36.4029 16.1466 33.6971 19.4683 33.7728C22.79 33.8485 24.7528 37.5589 24.9037 36.8017C25.0547 36.0445 27.9234 33.7728 30.3392 33.7728C32.7549 33.7728 35.8501 36.6502 36.3786 40.4364C36.907 44.2225 31.4716 48.6901 31.5471 47.0999C31.6226 45.5098 30.5089 42.2537 27.9234 42.2537C25.8851 42.2537 24.2998 44.071 24.2998 44.071C24.2998 44.071 22.2879 42.0534 21.0117 42.0081C19.7355 41.9627 17.5922 42.8467 17.6565 46.4942C17.7207 50.1417 24.9037 54.9751 24.9037 54.9751L28.9996 52C30.6816 51.3373 34.2458 49.7283 38.1723 51.869C41.3682 53.6115 42.5022 54.8579 46.4996 55C50.4971 55.1421 52.0015 51.3935 54.9996 51.5" stroke="#F36A4F" stroke-width="2"/>
<path d="M75.42 32.4981C72.036 32.4981 69.408 31.3701 67.536 29.1141C65.688 26.8341 64.764 23.6061 64.764 19.4301C64.764 15.2781 65.724 12.0741 67.644 9.81814C69.564 7.53814 72.252 6.39814 75.708 6.39814C77.004 6.39814 78.252 6.56614 79.452 6.90214C80.652 7.23814 81.636 7.73014 82.404 8.37814C83.172 9.02614 83.556 9.77014 83.556 10.6101C83.556 11.3781 83.22 12.0381 82.548 12.5901C81.876 13.1181 80.94 13.3701 79.74 13.3461C79.38 9.79414 78.06 8.01814 75.78 8.01814C73.788 8.01814 72.312 8.96614 71.352 10.8621C70.416 12.7341 69.948 15.5901 69.948 19.4301C69.948 23.2701 70.404 26.1381 71.316 28.0341C72.252 29.9061 73.704 30.8421 75.672 30.8421C77.28 30.8421 78.396 30.1581 79.02 28.7901C79.644 27.4221 79.956 25.8261 79.956 24.0021C79.956 22.8261 79.8 21.8181 79.488 20.9781C79.176 20.1381 78.6 19.5261 77.76 19.1421C77.952 18.6861 78.312 18.3381 78.84 18.0981C79.368 17.8341 79.944 17.7021 80.568 17.7021C81.816 17.7021 82.824 18.1461 83.592 19.0341C84.36 19.8981 84.744 21.1701 84.744 22.8501C84.744 24.9141 84.324 26.6781 83.484 28.1421C82.668 29.5821 81.552 30.6741 80.136 31.4181C78.72 32.1381 77.148 32.4981 75.42 32.4981ZM93.5404 32.3541C92.1484 32.3541 91.0804 31.9221 90.3364 31.0581C89.5924 30.1701 89.2204 28.9461 89.2204 27.3861V8.05414C89.2204 7.28614 89.4724 6.68614 89.9764 6.25414C90.4804 5.82214 91.1284 5.60614 91.9204 5.60614C92.4964 5.60614 93.0124 5.71414 93.4684 5.93014C93.9244 6.14614 94.2844 6.38614 94.5484 6.65014C94.2844 7.68214 94.1044 8.70214 94.0084 9.71014C93.9124 10.7181 93.8644 12.0381 93.8644 13.6701V26.9901C93.8644 28.2621 94.2964 28.8981 95.1604 28.8981C95.3524 28.8981 95.5564 28.8621 95.7724 28.7901C95.9884 28.6941 96.1444 28.5621 96.2404 28.3941C96.5524 28.8501 96.7084 29.3421 96.7084 29.8701C96.7084 30.5901 96.3964 31.1901 95.7724 31.6701C95.1724 32.1261 94.4284 32.3541 93.5404 32.3541ZM107.726 32.4981C104.966 32.4981 102.806 31.6461 101.246 29.9421C99.6858 28.2141 98.9058 25.8141 98.9058 22.7421C98.9058 19.6461 99.6738 17.2341 101.21 15.5061C102.77 13.7781 104.942 12.9141 107.726 12.9141C110.486 12.9141 112.634 13.7781 114.17 15.5061C115.73 17.2341 116.51 19.6461 116.51 22.7421C116.51 25.8141 115.73 28.2141 114.17 29.9421C112.634 31.6461 110.486 32.4981 107.726 32.4981ZM107.726 30.8781C110.246 30.8781 111.506 28.1661 111.506 22.7421C111.506 17.2701 110.246 14.5341 107.726 14.5341C106.43 14.5341 105.47 15.2181 104.846 16.5861C104.222 17.9541 103.91 20.0061 103.91 22.7421C103.91 25.4541 104.222 27.4941 104.846 28.8621C105.47 30.2061 106.43 30.8781 107.726 30.8781ZM128.086 32.4981C126.526 32.4981 125.05 32.2941 123.658 31.8861C122.266 31.4541 121.15 30.8661 120.31 30.1221V8.05414C120.31 7.31014 120.538 6.72214 120.994 6.29014C121.474 5.83414 122.074 5.60614 122.794 5.60614C123.418 5.60614 123.97 5.71414 124.45 5.93014C124.954 6.14614 125.362 6.38614 125.674 6.65014C125.17 8.66614 124.918 11.1501 124.918 14.1021V16.6581C125.35 15.5061 126.034 14.5941 126.97 13.9221C127.93 13.2501 129.082 12.9141 130.426 12.9141C132.442 12.9141 134.002 13.6581 135.106 15.1461C136.234 16.6101 136.798 18.9021 136.798 22.0221C136.798 25.3581 136.09 27.9381 134.674 29.7621C133.282 31.5861 131.086 32.4981 128.086 32.4981ZM127.762 30.6261C129.346 30.6021 130.414 29.8341 130.966 28.3221C131.542 26.8101 131.83 24.7101 131.83 22.0221C131.83 19.6941 131.638 18.0021 131.254 16.9461C130.87 15.8901 130.234 15.3621 129.346 15.3621C127.93 15.3621 126.838 16.1181 126.07 17.6301C125.326 19.1181 124.954 20.9541 124.954 23.1381V29.7621C125.29 30.0261 125.71 30.2421 126.214 30.4101C126.742 30.5541 127.258 30.6261 127.762 30.6261ZM158.1 28.3941C158.412 28.8501 158.568 29.3421 158.568 29.8701C158.568 30.5661 158.268 31.1541 157.668 31.6341C157.068 32.1141 156.264 32.3541 155.256 32.3541C154.104 32.3541 153.204 31.9821 152.556 31.2381C151.908 30.4701 151.536 29.2341 151.44 27.5301C150.768 28.9941 149.832 30.1701 148.632 31.0581C147.432 31.9221 146.04 32.3541 144.456 32.3541C143.04 32.3541 141.9 31.9821 141.036 31.2381C140.172 30.4941 139.74 29.4501 139.74 28.1061C139.74 26.5701 140.328 25.3101 141.504 24.3261C142.68 23.3421 144.168 22.5861 145.968 22.0581C147.528 21.6261 149.244 21.3861 151.116 21.3381V20.4381C151.116 18.3981 150.876 16.8981 150.396 15.9381C149.916 14.9781 149.088 14.4981 147.912 14.4981C147.144 14.4981 146.52 14.7261 146.04 15.1821C145.56 15.6141 145.32 16.2861 145.32 17.1981C145.32 18.4701 145.752 19.3581 146.616 19.8621C146.352 20.1261 145.992 20.3301 145.536 20.4741C145.104 20.6181 144.636 20.6901 144.132 20.6901C143.028 20.6901 142.152 20.3781 141.504 19.7541C140.88 19.1301 140.568 18.3381 140.568 17.3781C140.568 15.9621 141.252 14.8701 142.62 14.1021C143.988 13.3101 145.848 12.9141 148.2 12.9141C150.864 12.9141 152.808 13.5261 154.032 14.7501C155.28 15.9741 155.904 17.9661 155.904 20.7261V26.9901C155.904 28.2621 156.3 28.8981 157.092 28.8981C157.26 28.8981 157.44 28.8621 157.632 28.7901C157.824 28.6941 157.98 28.5621 158.1 28.3941ZM146.616 29.3301C147.312 29.3301 148.02 29.0421 148.74 28.4661C149.46 27.8901 150.06 27.1101 150.54 26.1261C151.02 25.1181 151.26 24.0261 151.26 22.8501C149.364 22.8501 147.948 23.1141 147.012 23.6421C146.34 23.9781 145.8 24.4341 145.392 25.0101C145.008 25.5861 144.816 26.2461 144.816 26.9901C144.816 27.6381 144.96 28.1901 145.248 28.6461C145.56 29.1021 146.016 29.3301 146.616 29.3301ZM165.855 32.3541C164.463 32.3541 163.395 31.9221 162.651 31.0581C161.907 30.1701 161.535 28.9461 161.535 27.3861V8.05414C161.535 7.28614 161.787 6.68614 162.291 6.25414C162.795 5.82214 163.443 5.60614 164.235 5.60614C164.811 5.60614 165.327 5.71414 165.783 5.93014C166.239 6.14614 166.599 6.38614 166.863 6.65014C166.599 7.68214 166.419 8.70214 166.323 9.71014C166.227 10.7181 166.179 12.0381 166.179 13.6701V26.9901C166.179 28.2621 166.611 28.8981 167.475 28.8981C167.667 28.8981 167.871 28.8621 168.087 28.7901C168.303 28.6941 168.459 28.5621 168.555 28.3941C168.867 28.8501 169.023 29.3421 169.023 29.8701C169.023 30.5901 168.711 31.1901 168.087 31.6701C167.487 32.1261 166.743 32.3541 165.855 32.3541Z" fill="#F36A4F"/>
<path d="M182.381 32.4981C178.997 32.4981 176.369 31.3701 174.497 29.1141C172.649 26.8341 171.725 23.6061 171.725 19.4301C171.725 15.2781 172.685 12.0741 174.605 9.81814C176.525 7.53814 179.213 6.39814 182.669 6.39814C183.965 6.39814 185.213 6.56614 186.413 6.90214C187.613 7.23814 188.597 7.73014 189.365 8.37814C190.133 9.02614 190.517 9.77014 190.517 10.6101C190.517 11.3781 190.181 12.0381 189.509 12.5901C188.837 13.1181 187.901 13.3701 186.701 13.3461C186.341 9.79414 185.021 8.01814 182.741 8.01814C180.749 8.01814 179.273 8.96614 178.313 10.8621C177.377 12.7341 176.909 15.5901 176.909 19.4301C176.909 23.2701 177.365 26.1381 178.277 28.0341C179.213 29.9061 180.665 30.8421 182.633 30.8421C184.241 30.8421 185.357 30.1581 185.981 28.7901C186.605 27.4221 186.917 25.8261 186.917 24.0021C186.917 22.8261 186.761 21.8181 186.449 20.9781C186.137 20.1381 185.561 19.5261 184.721 19.1421C184.913 18.6861 185.273 18.3381 185.801 18.0981C186.329 17.8341 186.905 17.7021 187.529 17.7021C188.777 17.7021 189.785 18.1461 190.553 19.0341C191.321 19.8981 191.705 21.1701 191.705 22.8501C191.705 24.9141 191.285 26.6781 190.445 28.1421C189.629 29.5821 188.513 30.6741 187.097 31.4181C185.681 32.1381 184.109 32.4981 182.381 32.4981ZM198.665 11.1501C197.921 11.1501 197.285 10.8981 196.757 10.3941C196.229 9.86614 195.965 9.23014 195.965 8.48614C195.965 7.71814 196.229 7.08214 196.757 6.57814C197.285 6.05014 197.921 5.78614 198.665 5.78614C199.409 5.78614 200.033 6.05014 200.537 6.57814C201.041 7.08214 201.293 7.71814 201.293 8.48614C201.293 9.23014 201.041 9.86614 200.537 10.3941C200.033 10.8981 199.409 11.1501 198.665 11.1501ZM201.149 26.9181C201.149 28.8141 201.377 30.3261 201.833 31.4541C201.065 32.1501 200.165 32.4981 199.133 32.4981C198.389 32.4981 197.765 32.2821 197.261 31.8501C196.781 31.4181 196.541 30.8301 196.541 30.0861V18.4941C196.541 16.6701 196.313 15.1461 195.857 13.9221C196.601 13.2501 197.465 12.9141 198.449 12.9141C199.241 12.9141 199.877 13.1301 200.357 13.5621C200.861 13.9701 201.113 14.5581 201.113 15.3261L201.149 26.9181ZM219.274 12.9861C220.162 12.9861 220.81 13.1421 221.218 13.4541C221.626 13.7661 221.83 14.2701 221.83 14.9661C221.83 15.8301 221.662 16.6461 221.326 17.4141L215.89 31.8141C214.882 32.2701 213.838 32.4981 212.758 32.4981C211.438 32.4981 210.622 31.9941 210.31 30.9861L205.378 16.2981C205.21 15.7701 205.042 15.3381 204.874 15.0021C204.73 14.6421 204.538 14.3301 204.298 14.0661C204.874 13.3461 205.75 12.9861 206.926 12.9861C207.67 12.9861 208.282 13.1421 208.762 13.4541C209.242 13.7661 209.542 14.2221 209.662 14.8221L213.586 29.6901L216.97 16.2261C217.114 15.5061 217.186 14.9781 217.186 14.6421C217.186 14.1141 217.078 13.7301 216.862 13.4901C217.294 13.3221 217.678 13.2021 218.014 13.1301C218.35 13.0341 218.77 12.9861 219.274 12.9861ZM239.533 26.8101C239.917 26.9781 240.109 27.3021 240.109 27.7821C240.109 28.0941 240.025 28.4541 239.857 28.8621C239.401 30.0141 238.573 30.9141 237.373 31.5621C236.173 32.1861 234.721 32.4981 233.017 32.4981C230.233 32.4981 228.025 31.6461 226.393 29.9421C224.761 28.2141 223.945 25.7901 223.945 22.6701C223.945 19.6221 224.737 17.2341 226.321 15.5061C227.905 13.7781 230.161 12.9141 233.089 12.9141C235.225 12.9141 236.977 13.3941 238.345 14.3541C239.713 15.2901 240.397 16.6221 240.397 18.3501C240.397 20.1021 239.689 21.4581 238.273 22.4181C236.857 23.3781 234.961 23.8581 232.585 23.8581C231.049 23.8581 229.861 23.8101 229.021 23.7141C229.189 25.8021 229.717 27.3021 230.605 28.2141C231.517 29.1261 232.765 29.5821 234.349 29.5821C235.621 29.5821 236.701 29.3301 237.589 28.8261C238.477 28.3221 239.125 27.6501 239.533 26.8101ZM232.909 14.5341C231.661 14.5341 230.689 15.2061 229.993 16.5501C229.297 17.8701 228.949 19.7061 228.949 22.0581V22.0941L230.173 22.1301C231.661 22.1301 232.897 21.8181 233.881 21.1941C234.889 20.5701 235.393 19.3701 235.393 17.5941C235.393 15.5541 234.565 14.5341 232.909 14.5341Z" fill="#734F48"/>
<path d="M64.92 42.0241C64.68 42.0241 64.48 41.9441 64.32 41.7841C64.16 41.6241 64.08 41.4241 64.08 41.1841C64.08 40.9341 64.16 40.7341 64.32 40.5841C64.48 40.4241 64.68 40.3441 64.92 40.3441C65.16 40.3441 65.36 40.4241 65.52 40.5841C65.68 40.7341 65.76 40.9341 65.76 41.1841C65.76 41.4241 65.68 41.6241 65.52 41.7841C65.36 41.9441 65.16 42.0241 64.92 42.0241ZM64.5 50.9791C64.4 50.9791 64.35 50.9291 64.35 50.8291V43.5391C64.35 43.4391 64.4 43.3891 64.5 43.3891H65.265C65.365 43.3891 65.415 43.4391 65.415 43.5391V50.8291C65.415 50.9291 65.365 50.9791 65.265 50.9791H64.5ZM71.6232 43.2991C72.4232 43.2991 73.0582 43.5341 73.5282 44.0041C74.0082 44.4741 74.2482 45.1041 74.2482 45.8941V50.8441C74.2482 50.9441 74.1982 50.9941 74.0982 50.9941H73.3332C73.2332 50.9941 73.1832 50.9441 73.1832 50.8441V46.1041C73.1832 45.5541 73.0132 45.1041 72.6732 44.7541C72.3432 44.4041 71.9132 44.2291 71.3832 44.2291C70.8332 44.2291 70.3882 44.3991 70.0482 44.7391C69.7082 45.0791 69.5382 45.5241 69.5382 46.0741V50.8441C69.5382 50.9441 69.4882 50.9941 69.3882 50.9941H68.6232C68.5232 50.9941 68.4732 50.9441 68.4732 50.8441V43.5541C68.4732 43.4541 68.5232 43.4041 68.6232 43.4041H69.3882C69.4882 43.4041 69.5382 43.4541 69.5382 43.5541V44.1991C69.5382 44.2191 69.5432 44.2341 69.5532 44.2441C69.5732 44.2541 69.5882 44.2491 69.5982 44.2291C70.0382 43.6091 70.7132 43.2991 71.6232 43.2991ZM80.4142 44.1391C80.4142 44.2391 80.3642 44.2891 80.2642 44.2891H78.5692C78.5292 44.2891 78.5092 44.3091 78.5092 44.3491V48.7741C78.5092 49.2541 78.6142 49.5941 78.8242 49.7941C79.0442 49.9841 79.3842 50.0791 79.8442 50.0791H80.2192C80.3192 50.0791 80.3692 50.1291 80.3692 50.2291V50.8441C80.3692 50.9441 80.3192 50.9941 80.2192 50.9941C80.0992 51.0041 79.9142 51.0091 79.6642 51.0091C78.9442 51.0091 78.3992 50.8741 78.0292 50.6041C77.6592 50.3341 77.4742 49.8341 77.4742 49.1041V44.3491C77.4742 44.3091 77.4542 44.2891 77.4142 44.2891H76.4992C76.3992 44.2891 76.3492 44.2391 76.3492 44.1391V43.5541C76.3492 43.4541 76.3992 43.4041 76.4992 43.4041H77.4142C77.4542 43.4041 77.4742 43.3841 77.4742 43.3441V41.6041C77.4742 41.5041 77.5242 41.4541 77.6242 41.4541H78.3592C78.4592 41.4541 78.5092 41.5041 78.5092 41.6041V43.3441C78.5092 43.3841 78.5292 43.4041 78.5692 43.4041H80.2642C80.3642 43.4041 80.4142 43.4541 80.4142 43.5541V44.1391ZM88.5233 45.9241C88.5633 46.2041 88.5833 46.5541 88.5833 46.9741V47.4541C88.5833 47.5541 88.5333 47.6041 88.4333 47.6041H83.5883C83.5483 47.6041 83.5283 47.6241 83.5283 47.6641C83.5483 48.2141 83.5783 48.5691 83.6183 48.7291C83.7283 49.1791 83.9633 49.5341 84.3233 49.7941C84.6833 50.0541 85.1433 50.1841 85.7033 50.1841C86.1233 50.1841 86.4933 50.0891 86.8133 49.8991C87.1333 49.7091 87.3833 49.4391 87.5633 49.0891C87.6233 48.9991 87.6933 48.9791 87.7733 49.0291L88.3583 49.3741C88.4383 49.4241 88.4583 49.4941 88.4183 49.5841C88.1683 50.0641 87.7933 50.4441 87.2933 50.7241C86.7933 50.9941 86.2183 51.1291 85.5683 51.1291C84.8583 51.1191 84.2633 50.9491 83.7833 50.6191C83.3033 50.2891 82.9583 49.8291 82.7483 49.2391C82.5683 48.7591 82.4783 48.0691 82.4783 47.1691C82.4783 46.7491 82.4833 46.4091 82.4933 46.1491C82.5133 45.8791 82.5533 45.6391 82.6133 45.4291C82.7833 44.7791 83.1233 44.2591 83.6333 43.8691C84.1533 43.4791 84.7783 43.2841 85.5083 43.2841C86.4183 43.2841 87.1183 43.5141 87.6083 43.9741C88.0983 44.4341 88.4033 45.0841 88.5233 45.9241ZM85.5083 44.2141C85.0183 44.2141 84.6083 44.3441 84.2783 44.6041C83.9583 44.8541 83.7483 45.1941 83.6483 45.6241C83.5883 45.8341 83.5483 46.1741 83.5283 46.6441C83.5283 46.6841 83.5483 46.7041 83.5883 46.7041H87.4733C87.5133 46.7041 87.5333 46.6841 87.5333 46.6441C87.5133 46.1941 87.4833 45.8741 87.4433 45.6841C87.3333 45.2341 87.1083 44.8791 86.7683 44.6191C86.4383 44.3491 86.0183 44.2141 85.5083 44.2141ZM94.2114 43.3291C94.5414 43.3291 94.8264 43.3941 95.0664 43.5241C95.1464 43.5641 95.1764 43.6291 95.1564 43.7191L94.9914 44.4541C94.9614 44.5541 94.8964 44.5841 94.7964 44.5441C94.6264 44.4741 94.4314 44.4391 94.2114 44.4391L94.0164 44.4541C93.4964 44.4741 93.0664 44.6691 92.7264 45.0391C92.3864 45.3991 92.2164 45.8591 92.2164 46.4191V50.8441C92.2164 50.9441 92.1664 50.9941 92.0664 50.9941H91.3014C91.2014 50.9941 91.1514 50.9441 91.1514 50.8441V43.5541C91.1514 43.4541 91.2014 43.4041 91.3014 43.4041H92.0664C92.1664 43.4041 92.2164 43.4541 92.2164 43.5541V44.4691C92.2164 44.4991 92.2214 44.5191 92.2314 44.5291C92.2514 44.5291 92.2664 44.5191 92.2764 44.4991C92.4864 44.1291 92.7514 43.8441 93.0714 43.6441C93.4014 43.4341 93.7814 43.3291 94.2114 43.3291ZM100.215 43.2991C101.015 43.2991 101.65 43.5341 102.12 44.0041C102.6 44.4741 102.84 45.1041 102.84 45.8941V50.8441C102.84 50.9441 102.79 50.9941 102.69 50.9941H101.925C101.825 50.9941 101.775 50.9441 101.775 50.8441V46.1041C101.775 45.5541 101.605 45.1041 101.265 44.7541C100.935 44.4041 100.505 44.2291 99.9752 44.2291C99.4252 44.2291 98.9802 44.3991 98.6402 44.7391C98.3002 45.0791 98.1302 45.5241 98.1302 46.0741V50.8441C98.1302 50.9441 98.0802 50.9941 97.9802 50.9941H97.2152C97.1152 50.9941 97.0652 50.9441 97.0652 50.8441V43.5541C97.0652 43.4541 97.1152 43.4041 97.2152 43.4041H97.9802C98.0802 43.4041 98.1302 43.4541 98.1302 43.5541V44.1991C98.1302 44.2191 98.1352 44.2341 98.1452 44.2441C98.1652 44.2541 98.1802 44.2491 98.1902 44.2291C98.6302 43.6091 99.3052 43.2991 100.215 43.2991ZM108.226 43.2841C109.126 43.2841 109.821 43.5141 110.311 43.9741C110.801 44.4341 111.046 45.0441 111.046 45.8041V50.8441C111.046 50.9441 110.996 50.9941 110.896 50.9941H110.131C110.031 50.9941 109.981 50.9441 109.981 50.8441V50.2291C109.981 50.2091 109.971 50.1941 109.951 50.1841C109.941 50.1741 109.926 50.1791 109.906 50.1991C109.656 50.4991 109.331 50.7291 108.931 50.8891C108.531 51.0391 108.086 51.1141 107.596 51.1141C106.886 51.1141 106.291 50.9341 105.811 50.5741C105.331 50.2141 105.091 49.6641 105.091 48.9241C105.091 48.1741 105.361 47.5841 105.901 47.1541C106.451 46.7141 107.211 46.4941 108.181 46.4941H109.921C109.961 46.4941 109.981 46.4741 109.981 46.4341V45.8641C109.981 45.3541 109.836 44.9541 109.546 44.6641C109.266 44.3641 108.826 44.2141 108.226 44.2141C107.746 44.2141 107.356 44.3091 107.056 44.4991C106.756 44.6791 106.571 44.9341 106.501 45.2641C106.471 45.3641 106.411 45.4091 106.321 45.3991L105.511 45.2941C105.401 45.2741 105.356 45.2341 105.376 45.1741C105.456 44.6141 105.756 44.1591 106.276 43.8091C106.796 43.4591 107.446 43.2841 108.226 43.2841ZM107.806 50.1991C108.396 50.1991 108.906 50.0541 109.336 49.7641C109.766 49.4641 109.981 49.0641 109.981 48.5641V47.3941C109.981 47.3541 109.961 47.3341 109.921 47.3341H108.346C107.686 47.3341 107.156 47.4691 106.756 47.7391C106.356 48.0091 106.156 48.3841 106.156 48.8641C106.156 49.3041 106.306 49.6391 106.606 49.8691C106.916 50.0891 107.316 50.1991 107.806 50.1991ZM117.059 44.1391C117.059 44.2391 117.009 44.2891 116.909 44.2891H115.214C115.174 44.2891 115.154 44.3091 115.154 44.3491V48.7741C115.154 49.2541 115.259 49.5941 115.469 49.7941C115.689 49.9841 116.029 50.0791 116.489 50.0791H116.864C116.964 50.0791 117.014 50.1291 117.014 50.2291V50.8441C117.014 50.9441 116.964 50.9941 116.864 50.9941C116.744 51.0041 116.559 51.0091 116.309 51.0091C115.589 51.0091 115.044 50.8741 114.674 50.6041C114.304 50.3341 114.119 49.8341 114.119 49.1041V44.3491C114.119 44.3091 114.099 44.2891 114.059 44.2891H113.144C113.044 44.2891 112.994 44.2391 112.994 44.1391V43.5541C112.994 43.4541 113.044 43.4041 113.144 43.4041H114.059C114.099 43.4041 114.119 43.3841 114.119 43.3441V41.6041C114.119 41.5041 114.169 41.4541 114.269 41.4541H115.004C115.104 41.4541 115.154 41.5041 115.154 41.6041V43.3441C115.154 43.3841 115.174 43.4041 115.214 43.4041H116.909C117.009 43.4041 117.059 43.4541 117.059 43.5541V44.1391ZM120.288 42.0241C120.048 42.0241 119.848 41.9441 119.688 41.7841C119.528 41.6241 119.448 41.4241 119.448 41.1841C119.448 40.9341 119.528 40.7341 119.688 40.5841C119.848 40.4241 120.048 40.3441 120.288 40.3441C120.528 40.3441 120.728 40.4241 120.888 40.5841C121.048 40.7341 121.128 40.9341 121.128 41.1841C121.128 41.4241 121.048 41.6241 120.888 41.7841C120.728 41.9441 120.528 42.0241 120.288 42.0241ZM119.868 50.9791C119.768 50.9791 119.718 50.9291 119.718 50.8291V43.5391C119.718 43.4391 119.768 43.3891 119.868 43.3891H120.633C120.733 43.3891 120.783 43.4391 120.783 43.5391V50.8291C120.783 50.9291 120.733 50.9791 120.633 50.9791H119.868ZM126.736 51.1141C126.016 51.1141 125.396 50.9291 124.876 50.5591C124.356 50.1891 123.996 49.6791 123.796 49.0291C123.656 48.5691 123.586 47.9541 123.586 47.1841C123.586 46.4141 123.656 45.8041 123.796 45.3541C123.986 44.7141 124.341 44.2091 124.861 43.8391C125.381 43.4691 126.011 43.2841 126.751 43.2841C127.461 43.2841 128.071 43.4691 128.581 43.8391C129.101 44.2091 129.456 44.7091 129.646 45.3391C129.786 45.7691 129.856 46.3841 129.856 47.1841C129.856 47.9941 129.786 48.6091 129.646 49.0291C129.456 49.6791 129.101 50.1891 128.581 50.5591C128.071 50.9291 127.456 51.1141 126.736 51.1141ZM126.736 50.1841C127.216 50.1841 127.626 50.0541 127.966 49.7941C128.306 49.5241 128.536 49.1641 128.656 48.7141C128.746 48.3541 128.791 47.8491 128.791 47.1991C128.791 46.5391 128.751 46.0341 128.671 45.6841C128.551 45.2341 128.316 44.8791 127.966 44.6191C127.626 44.3491 127.211 44.2141 126.721 44.2141C126.231 44.2141 125.816 44.3491 125.476 44.6191C125.136 44.8791 124.906 45.2341 124.786 45.6841C124.706 46.0341 124.666 46.5391 124.666 47.1991C124.666 47.8591 124.706 48.3641 124.786 48.7141C124.896 49.1641 125.121 49.5241 125.461 49.7941C125.811 50.0541 126.236 50.1841 126.736 50.1841ZM135.615 43.2991C136.415 43.2991 137.05 43.5341 137.52 44.0041C138 44.4741 138.24 45.1041 138.24 45.8941V50.8441C138.24 50.9441 138.19 50.9941 138.09 50.9941H137.325C137.225 50.9941 137.175 50.9441 137.175 50.8441V46.1041C137.175 45.5541 137.005 45.1041 136.665 44.7541C136.335 44.4041 135.905 44.2291 135.375 44.2291C134.825 44.2291 134.38 44.3991 134.04 44.7391C133.7 45.0791 133.53 45.5241 133.53 46.0741V50.8441C133.53 50.9441 133.48 50.9941 133.38 50.9941H132.615C132.515 50.9941 132.465 50.9441 132.465 50.8441V43.5541C132.465 43.4541 132.515 43.4041 132.615 43.4041H133.38C133.48 43.4041 133.53 43.4541 133.53 43.5541V44.1991C133.53 44.2191 133.535 44.2341 133.545 44.2441C133.565 44.2541 133.58 44.2491 133.59 44.2291C134.03 43.6091 134.705 43.2991 135.615 43.2991ZM143.626 43.2841C144.526 43.2841 145.221 43.5141 145.711 43.9741C146.201 44.4341 146.446 45.0441 146.446 45.8041V50.8441C146.446 50.9441 146.396 50.9941 146.296 50.9941H145.531C145.431 50.9941 145.381 50.9441 145.381 50.8441V50.2291C145.381 50.2091 145.371 50.1941 145.351 50.1841C145.341 50.1741 145.326 50.1791 145.306 50.1991C145.056 50.4991 144.731 50.7291 144.331 50.8891C143.931 51.0391 143.486 51.1141 142.996 51.1141C142.286 51.1141 141.691 50.9341 141.211 50.5741C140.731 50.2141 140.491 49.6641 140.491 48.9241C140.491 48.1741 140.761 47.5841 141.301 47.1541C141.851 46.7141 142.611 46.4941 143.581 46.4941H145.321C145.361 46.4941 145.381 46.4741 145.381 46.4341V45.8641C145.381 45.3541 145.236 44.9541 144.946 44.6641C144.666 44.3641 144.226 44.2141 143.626 44.2141C143.146 44.2141 142.756 44.3091 142.456 44.4991C142.156 44.6791 141.971 44.9341 141.901 45.2641C141.871 45.3641 141.811 45.4091 141.721 45.3991L140.911 45.2941C140.801 45.2741 140.756 45.2341 140.776 45.1741C140.856 44.6141 141.156 44.1591 141.676 43.8091C142.196 43.4591 142.846 43.2841 143.626 43.2841ZM143.206 50.1991C143.796 50.1991 144.306 50.0541 144.736 49.7641C145.166 49.4641 145.381 49.0641 145.381 48.5641V47.3941C145.381 47.3541 145.361 47.3341 145.321 47.3341H143.746C143.086 47.3341 142.556 47.4691 142.156 47.7391C141.756 48.0091 141.556 48.3841 141.556 48.8641C141.556 49.3041 141.706 49.6391 142.006 49.8691C142.316 50.0891 142.716 50.1991 143.206 50.1991ZM149.262 50.9941C149.162 50.9941 149.112 50.9441 149.112 50.8441V40.6441C149.112 40.5441 149.162 40.4941 149.262 40.4941H150.027C150.127 40.4941 150.177 40.5441 150.177 40.6441V50.8441C150.177 50.9441 150.127 50.9941 150.027 50.9941H149.262ZM159.367 51.1141C158.647 51.1141 158.027 50.9291 157.507 50.5591C156.987 50.1891 156.627 49.6791 156.427 49.0291C156.287 48.5691 156.217 47.9541 156.217 47.1841C156.217 46.4141 156.287 45.8041 156.427 45.3541C156.617 44.7141 156.972 44.2091 157.492 43.8391C158.012 43.4691 158.642 43.2841 159.382 43.2841C160.092 43.2841 160.702 43.4691 161.212 43.8391C161.732 44.2091 162.087 44.7091 162.277 45.3391C162.417 45.7691 162.487 46.3841 162.487 47.1841C162.487 47.9941 162.417 48.6091 162.277 49.0291C162.087 49.6791 161.732 50.1891 161.212 50.5591C160.702 50.9291 160.087 51.1141 159.367 51.1141ZM159.367 50.1841C159.847 50.1841 160.257 50.0541 160.597 49.7941C160.937 49.5241 161.167 49.1641 161.287 48.7141C161.377 48.3541 161.422 47.8491 161.422 47.1991C161.422 46.5391 161.382 46.0341 161.302 45.6841C161.182 45.2341 160.947 44.8791 160.597 44.6191C160.257 44.3491 159.842 44.2141 159.352 44.2141C158.862 44.2141 158.447 44.3491 158.107 44.6191C157.767 44.8791 157.537 45.2341 157.417 45.6841C157.337 46.0341 157.297 46.5391 157.297 47.1991C157.297 47.8591 157.337 48.3641 157.417 48.7141C157.527 49.1641 157.752 49.5241 158.092 49.7941C158.442 50.0541 158.867 50.1841 159.367 50.1841ZM168.156 43.3291C168.486 43.3291 168.771 43.3941 169.011 43.5241C169.091 43.5641 169.121 43.6291 169.101 43.7191L168.936 44.4541C168.906 44.5541 168.841 44.5841 168.741 44.5441C168.571 44.4741 168.376 44.4391 168.156 44.4391L167.961 44.4541C167.441 44.4741 167.011 44.6691 166.671 45.0391C166.331 45.3991 166.161 45.8591 166.161 46.4191V50.8441C166.161 50.9441 166.111 50.9941 166.011 50.9941H165.246C165.146 50.9941 165.096 50.9441 165.096 50.8441V43.5541C165.096 43.4541 165.146 43.4041 165.246 43.4041H166.011C166.111 43.4041 166.161 43.4541 166.161 43.5541V44.4691C166.161 44.4991 166.166 44.5191 166.176 44.5291C166.196 44.5291 166.211 44.5191 166.221 44.4991C166.431 44.1291 166.696 43.8441 167.016 43.6441C167.346 43.4341 167.726 43.3291 168.156 43.3291ZM175.514 43.5541C175.514 43.4541 175.564 43.4041 175.664 43.4041H176.429C176.529 43.4041 176.579 43.4541 176.579 43.5541V50.7391C176.579 51.8591 176.254 52.6791 175.604 53.1991C174.964 53.7191 174.079 53.9791 172.949 53.9791C172.719 53.9791 172.544 53.9741 172.424 53.9641C172.324 53.9541 172.274 53.8991 172.274 53.7991L172.304 53.1091C172.304 53.0591 172.319 53.0191 172.349 52.9891C172.379 52.9691 172.414 52.9641 172.454 52.9741L172.859 52.9891C173.789 52.9891 174.464 52.8041 174.884 52.4341C175.304 52.0741 175.514 51.4991 175.514 50.7091V50.1541C175.514 50.1341 175.504 50.1241 175.484 50.1241C175.474 50.1141 175.459 50.1191 175.439 50.1391C174.979 50.7391 174.324 51.0391 173.474 51.0391C172.824 51.0391 172.244 50.8641 171.734 50.5141C171.234 50.1641 170.899 49.6691 170.729 49.0291C170.609 48.6191 170.549 48.0091 170.549 47.1991C170.549 46.7591 170.559 46.3891 170.579 46.0891C170.609 45.7891 170.664 45.5191 170.744 45.2791C170.924 44.6791 171.249 44.1991 171.719 43.8391C172.189 43.4691 172.754 43.2841 173.414 43.2841C174.304 43.2841 174.979 43.5791 175.439 44.1691C175.459 44.1891 175.474 44.1941 175.484 44.1841C175.504 44.1741 175.514 44.1591 175.514 44.1391V43.5541ZM175.439 48.6991C175.469 48.5491 175.489 48.3641 175.499 48.1441C175.509 47.9241 175.514 47.6041 175.514 47.1841C175.514 46.6741 175.509 46.3341 175.499 46.1641C175.489 45.9841 175.464 45.8191 175.424 45.6691C175.344 45.2491 175.144 44.9041 174.824 44.6341C174.514 44.3541 174.119 44.2141 173.639 44.2141C173.169 44.2141 172.769 44.3491 172.439 44.6191C172.119 44.8891 171.894 45.2391 171.764 45.6691C171.664 45.9891 171.614 46.4891 171.614 47.1691C171.614 47.8991 171.664 48.4041 171.764 48.6841C171.864 49.1041 172.079 49.4541 172.409 49.7341C172.749 50.0041 173.159 50.1391 173.639 50.1391C174.129 50.1391 174.529 50.0041 174.839 49.7341C175.159 49.4641 175.359 49.1191 175.439 48.6991ZM181.936 43.2841C182.836 43.2841 183.531 43.5141 184.021 43.9741C184.511 44.4341 184.756 45.0441 184.756 45.8041V50.8441C184.756 50.9441 184.706 50.9941 184.606 50.9941H183.841C183.741 50.9941 183.691 50.9441 183.691 50.8441V50.2291C183.691 50.2091 183.681 50.1941 183.661 50.1841C183.651 50.1741 183.636 50.1791 183.616 50.1991C183.366 50.4991 183.041 50.7291 182.641 50.8891C182.241 51.0391 181.796 51.1141 181.306 51.1141C180.596 51.1141 180.001 50.9341 179.521 50.5741C179.041 50.2141 178.801 49.6641 178.801 48.9241C178.801 48.1741 179.071 47.5841 179.611 47.1541C180.161 46.7141 180.921 46.4941 181.891 46.4941H183.631C183.671 46.4941 183.691 46.4741 183.691 46.4341V45.8641C183.691 45.3541 183.546 44.9541 183.256 44.6641C182.976 44.3641 182.536 44.2141 181.936 44.2141C181.456 44.2141 181.066 44.3091 180.766 44.4991C180.466 44.6791 180.281 44.9341 180.211 45.2641C180.181 45.3641 180.121 45.4091 180.031 45.3991L179.221 45.2941C179.111 45.2741 179.066 45.2341 179.086 45.1741C179.166 44.6141 179.466 44.1591 179.986 43.8091C180.506 43.4591 181.156 43.2841 181.936 43.2841ZM181.516 50.1991C182.106 50.1991 182.616 50.0541 183.046 49.7641C183.476 49.4641 183.691 49.0641 183.691 48.5641V47.3941C183.691 47.3541 183.671 47.3341 183.631 47.3341H182.056C181.396 47.3341 180.866 47.4691 180.466 47.7391C180.066 48.0091 179.866 48.3841 179.866 48.8641C179.866 49.3041 180.016 49.6391 180.316 49.8691C180.626 50.0891 181.026 50.1991 181.516 50.1991ZM190.572 43.2991C191.372 43.2991 192.007 43.5341 192.477 44.0041C192.957 44.4741 193.197 45.1041 193.197 45.8941V50.8441C193.197 50.9441 193.147 50.9941 193.047 50.9941H192.282C192.182 50.9941 192.132 50.9441 192.132 50.8441V46.1041C192.132 45.5541 191.962 45.1041 191.622 44.7541C191.292 44.4041 190.862 44.2291 190.332 44.2291C189.782 44.2291 189.337 44.3991 188.997 44.7391C188.657 45.0791 188.487 45.5241 188.487 46.0741V50.8441C188.487 50.9441 188.437 50.9941 188.337 50.9941H187.572C187.472 50.9941 187.422 50.9441 187.422 50.8441V43.5541C187.422 43.4541 187.472 43.4041 187.572 43.4041H188.337C188.437 43.4041 188.487 43.4541 188.487 43.5541V44.1991C188.487 44.2191 188.492 44.2341 188.502 44.2441C188.522 44.2541 188.537 44.2491 188.547 44.2291C188.987 43.6091 189.662 43.2991 190.572 43.2991ZM196.678 42.0241C196.438 42.0241 196.238 41.9441 196.078 41.7841C195.918 41.6241 195.838 41.4241 195.838 41.1841C195.838 40.9341 195.918 40.7341 196.078 40.5841C196.238 40.4241 196.438 40.3441 196.678 40.3441C196.918 40.3441 197.118 40.4241 197.278 40.5841C197.438 40.7341 197.518 40.9341 197.518 41.1841C197.518 41.4241 197.438 41.6241 197.278 41.7841C197.118 41.9441 196.918 42.0241 196.678 42.0241ZM196.258 50.9791C196.158 50.9791 196.108 50.9291 196.108 50.8291V43.5391C196.108 43.4391 196.158 43.3891 196.258 43.3891H197.023C197.123 43.3891 197.173 43.4391 197.173 43.5391V50.8291C197.173 50.9291 197.123 50.9791 197.023 50.9791H196.258ZM199.691 50.9941C199.591 50.9941 199.541 50.9441 199.541 50.8441V50.1241C199.541 50.0541 199.561 49.9941 199.601 49.9441L203.861 44.4541C203.881 44.4341 203.886 44.4191 203.876 44.4091C203.866 44.3891 203.851 44.3791 203.831 44.3791H199.751C199.651 44.3791 199.601 44.3291 199.601 44.2291V43.5541C199.601 43.4541 199.651 43.4041 199.751 43.4041H205.016C205.116 43.4041 205.166 43.4541 205.166 43.5541V44.2741C205.166 44.3441 205.146 44.4041 205.106 44.4541L200.801 49.9441C200.781 49.9641 200.776 49.9841 200.786 50.0041C200.796 50.0141 200.811 50.0191 200.831 50.0191H205.016C205.116 50.0191 205.166 50.0691 205.166 50.1691V50.8441C205.166 50.9441 205.116 50.9941 205.016 50.9941H199.691ZM209.986 43.2841C210.886 43.2841 211.581 43.5141 212.071 43.9741C212.561 44.4341 212.806 45.0441 212.806 45.8041V50.8441C212.806 50.9441 212.756 50.9941 212.656 50.9941H211.891C211.791 50.9941 211.741 50.9441 211.741 50.8441V50.2291C211.741 50.2091 211.731 50.1941 211.711 50.1841C211.701 50.1741 211.686 50.1791 211.666 50.1991C211.416 50.4991 211.091 50.7291 210.691 50.8891C210.291 51.0391 209.846 51.1141 209.356 51.1141C208.646 51.1141 208.051 50.9341 207.571 50.5741C207.091 50.2141 206.851 49.6641 206.851 48.9241C206.851 48.1741 207.121 47.5841 207.661 47.1541C208.211 46.7141 208.971 46.4941 209.941 46.4941H211.681C211.721 46.4941 211.741 46.4741 211.741 46.4341V45.8641C211.741 45.3541 211.596 44.9541 211.306 44.6641C211.026 44.3641 210.586 44.2141 209.986 44.2141C209.506 44.2141 209.116 44.3091 208.816 44.4991C208.516 44.6791 208.331 44.9341 208.261 45.2641C208.231 45.3641 208.171 45.4091 208.081 45.3991L207.271 45.2941C207.161 45.2741 207.116 45.2341 207.136 45.1741C207.216 44.6141 207.516 44.1591 208.036 43.8091C208.556 43.4591 209.206 43.2841 209.986 43.2841ZM209.566 50.1991C210.156 50.1991 210.666 50.0541 211.096 49.7641C211.526 49.4641 211.741 49.0641 211.741 48.5641V47.3941C211.741 47.3541 211.721 47.3341 211.681 47.3341H210.106C209.446 47.3341 208.916 47.4691 208.516 47.7391C208.116 48.0091 207.916 48.3841 207.916 48.8641C207.916 49.3041 208.066 49.6391 208.366 49.8691C208.676 50.0891 209.076 50.1991 209.566 50.1991ZM218.818 44.1391C218.818 44.2391 218.768 44.2891 218.668 44.2891H216.973C216.933 44.2891 216.913 44.3091 216.913 44.3491V48.7741C216.913 49.2541 217.018 49.5941 217.228 49.7941C217.448 49.9841 217.788 50.0791 218.248 50.0791H218.623C218.723 50.0791 218.773 50.1291 218.773 50.2291V50.8441C218.773 50.9441 218.723 50.9941 218.623 50.9941C218.503 51.0041 218.318 51.0091 218.068 51.0091C217.348 51.0091 216.803 50.8741 216.433 50.6041C216.063 50.3341 215.878 49.8341 215.878 49.1041V44.3491C215.878 44.3091 215.858 44.2891 215.818 44.2891H214.903C214.803 44.2891 214.753 44.2391 214.753 44.1391V43.5541C214.753 43.4541 214.803 43.4041 214.903 43.4041H215.818C215.858 43.4041 215.878 43.3841 215.878 43.3441V41.6041C215.878 41.5041 215.928 41.4541 216.028 41.4541H216.763C216.863 41.4541 216.913 41.5041 216.913 41.6041V43.3441C216.913 43.3841 216.933 43.4041 216.973 43.4041H218.668C218.768 43.4041 218.818 43.4541 218.818 43.5541V44.1391ZM222.047 42.0241C221.807 42.0241 221.607 41.9441 221.447 41.7841C221.287 41.6241 221.207 41.4241 221.207 41.1841C221.207 40.9341 221.287 40.7341 221.447 40.5841C221.607 40.4241 221.807 40.3441 222.047 40.3441C222.287 40.3441 222.487 40.4241 222.647 40.5841C222.807 40.7341 222.887 40.9341 222.887 41.1841C222.887 41.4241 222.807 41.6241 222.647 41.7841C222.487 41.9441 222.287 42.0241 222.047 42.0241ZM221.627 50.9791C221.527 50.9791 221.477 50.9291 221.477 50.8291V43.5391C221.477 43.4391 221.527 43.3891 221.627 43.3891H222.392C222.492 43.3891 222.542 43.4391 222.542 43.5391V50.8291C222.542 50.9291 222.492 50.9791 222.392 50.9791H221.627ZM228.496 51.1141C227.776 51.1141 227.156 50.9291 226.636 50.5591C226.116 50.1891 225.756 49.6791 225.556 49.0291C225.416 48.5691 225.346 47.9541 225.346 47.1841C225.346 46.4141 225.416 45.8041 225.556 45.3541C225.746 44.7141 226.101 44.2091 226.621 43.8391C227.141 43.4691 227.771 43.2841 228.511 43.2841C229.221 43.2841 229.831 43.4691 230.341 43.8391C230.861 44.2091 231.216 44.7091 231.406 45.3391C231.546 45.7691 231.616 46.3841 231.616 47.1841C231.616 47.9941 231.546 48.6091 231.406 49.0291C231.216 49.6791 230.861 50.1891 230.341 50.5591C229.831 50.9291 229.216 51.1141 228.496 51.1141ZM228.496 50.1841C228.976 50.1841 229.386 50.0541 229.726 49.7941C230.066 49.5241 230.296 49.1641 230.416 48.7141C230.506 48.3541 230.551 47.8491 230.551 47.1991C230.551 46.5391 230.511 46.0341 230.431 45.6841C230.311 45.2341 230.076 44.8791 229.726 44.6191C229.386 44.3491 228.971 44.2141 228.481 44.2141C227.991 44.2141 227.576 44.3491 227.236 44.6191C226.896 44.8791 226.666 45.2341 226.546 45.6841C226.466 46.0341 226.426 46.5391 226.426 47.1991C226.426 47.8591 226.466 48.3641 226.546 48.7141C226.656 49.1641 226.881 49.5241 227.221 49.7941C227.571 50.0541 227.996 50.1841 228.496 50.1841ZM237.374 43.2991C238.174 43.2991 238.809 43.5341 239.279 44.0041C239.759 44.4741 239.999 45.1041 239.999 45.8941V50.8441C239.999 50.9441 239.949 50.9941 239.849 50.9941H239.084C238.984 50.9941 238.934 50.9441 238.934 50.8441V46.1041C238.934 45.5541 238.764 45.1041 238.424 44.7541C238.094 44.4041 237.664 44.2291 237.134 44.2291C236.584 44.2291 236.139 44.3991 235.799 44.7391C235.459 45.0791 235.289 45.5241 235.289 46.0741V50.8441C235.289 50.9441 235.239 50.9941 235.139 50.9941H234.374C234.274 50.9941 234.224 50.9441 234.224 50.8441V43.5541C234.224 43.4541 234.274 43.4041 234.374 43.4041H235.139C235.239 43.4041 235.289 43.4541 235.289 43.5541V44.1991C235.289 44.2191 235.294 44.2341 235.304 44.2441C235.324 44.2541 235.339 44.2491 235.349 44.2291C235.789 43.6091 236.464 43.2991 237.374 43.2991Z" fill="#3D3D3D"/>
</svg>
