<svg width="600" height="624" viewBox="0 0 600 624" fill="none" xmlns="http://www.w3.org/2000/svg">
<path fill-rule="evenodd" clip-rule="evenodd" d="M600 324C600 489.685 465.685 624 300 624C134.315 624 0 489.685 0 324C0 158.315 134.315 24 300 24L292 324L442.016 73L448 62.988C538.772 114.569 600 212.134 600 324ZM328.452 25.3316C327.975 25.2936 327.495 25.2564 327.014 25.22C318.769 24.5964 309.86 24.2011 300 24C309.333 24 318.567 24.4262 327.683 25.2602C327.939 25.2837 328.196 25.3075 328.452 25.3316ZM328.452 25.3316C355.259 27.4661 375.082 32.0812 398.033 40.3831C395.948 39.6626 393.853 38.9643 391.747 38.2887C371.501 31.7926 350.318 27.3887 328.452 25.3316Z" fill="#F36A4F"/>
<path d="M299.001 307L424.001 36.9998C435.015 41.6364 440.407 44.7855 450.001 50.9998L299.001 307Z" fill="#AB9591"/>
<path d="M296.001 308L305.427 0C353.643 1.29963 380.531 6.70553 424.001 24.8224L296.001 308Z" fill="#734F48"/>
</svg>
