<svg width="895" height="319" viewBox="0 0 895 319" fill="none" xmlns="http://www.w3.org/2000/svg">
<g clip-path="url(#clip0_1291_12068)">
<path d="M277.583 39.6687C304.584 28.41 327.436 8.83611 355.387 -0.0582123C355.685 -0.151093 355.992 -0.210434 356.303 -0.23513C364.714 -25.1971 368.397 -55.1773 383.642 -76.6491C385.25 -78.9491 390.686 -78.2575 388.965 -74.9281C387.357 -71.9687 386.022 -68.945 384.704 -65.9051C428.221 -16.4797 478.814 25.8849 530.147 66.7537C532.447 68.5873 529.584 72.6082 527.043 71.5789C523.923 70.3243 520.804 69.118 517.684 67.8957C518.391 68.7803 518.182 70.7264 516.831 70.646C512.264 70.3565 507.702 70.0402 503.146 69.6971C467.01 76.2431 430.778 75.7445 394.304 78.2375C380.394 79.1865 366.29 82.1781 352.942 76.6292C352.296 76.3557 351.677 76.0218 351.093 75.632C350.945 75.73 350.776 75.7927 350.6 75.8153C350.424 75.8379 350.246 75.8197 350.078 75.7622C349.91 75.7047 349.758 75.6094 349.632 75.4836C349.507 75.3578 349.413 75.205 349.356 75.0369C349.131 74.6026 348.97 74.1523 348.793 73.7019C343.647 68.3621 341.203 58.4063 337.536 51.7315C317.418 49.528 297.331 47.5497 277.101 46.07C276.526 46.0168 275.995 45.7418 275.62 45.3034C275.244 44.8651 275.054 44.2978 275.09 43.7218C275.09 43.2714 275.09 42.8372 275.09 42.4029C275.09 41.1162 276.49 40.119 277.583 39.6687ZM384.237 -64.9562C374.974 -43.3074 370.198 -19.9217 361.964 2.19352C411.142 23.3276 462.25 39.8617 512.103 59.4839C466.319 21.4136 422.11 -18.7958 384.237 -64.9562ZM353.248 68.7481C360.694 80.9557 390.011 73.2194 401.943 72.9621C430.504 72.3509 458.68 70.5334 487.016 68.4104C469.567 66.8985 452.151 65.0971 434.75 63.1349C435.03 63.4144 435.331 63.6725 435.651 63.9069C435.651 63.9069 435.651 64.0034 435.651 63.9069C434.877 63.4428 434.036 63.101 433.158 62.8936L429.443 62.4594C428.774 62.5773 428.122 62.7716 427.497 63.0384C427.856 63.5547 428.183 64.0918 428.478 64.6468C429.45 66.0213 430.008 67.6454 430.086 69.3271C430.075 69.4438 430.021 69.5523 429.935 69.6322C429.849 69.7121 429.737 69.7581 429.62 69.7614C426.902 69.7614 426.404 64.9363 424.908 63.3279C424.758 63.1346 424.653 62.9095 424.603 62.6698C424.553 62.4301 424.558 62.1821 424.619 61.9447C403.278 59.4839 381.97 56.9105 360.629 54.4336C366.194 58.3258 371.356 62.7489 376.936 66.5768C375.324 64.2243 373.858 61.7749 372.546 59.2426C372.096 58.358 372.9 56.9426 373.816 57.9077C376.671 60.7805 380.021 63.1127 383.707 64.7915C383.047 63.8908 382.388 62.974 381.68 62.0894C380.973 61.2048 381.809 59.4999 382.854 60.7062C384.591 62.7167 386.071 64.8559 387.904 66.8342C388.628 67.6223 388.467 69.7614 387.035 68.9572C383.819 67.1397 380.699 65.2579 377.676 63.2153C379.207 65.7325 380.933 68.1256 382.838 70.3726C383.53 71.1446 383.626 73.9592 381.97 73.0746C376.133 69.623 370.635 65.6272 365.55 61.1405C366.306 62.1699 367.078 63.1831 367.818 64.2447C368.348 64.9845 368.172 67.4614 366.756 66.6733L365.888 66.1908C365.984 67.4132 365.261 68.8285 364.023 68.3299C362.205 67.574 360.34 66.9628 358.49 66.3355C358.844 66.8341 359.198 67.3167 359.52 67.8474C360.259 69.0215 358.892 72.19 357.316 70.9677C355.933 69.8985 354.452 68.9616 352.894 68.1691C353.007 68.3621 353.103 68.5551 353.248 68.7481ZM349.71 62.0573L350.45 62.2985C350.064 60.8832 350.932 58.6153 352.46 59.516C352.958 59.8055 353.473 60.0307 353.971 60.2881C353.473 59.9021 352.974 59.5 352.46 59.1139C351.125 58.1167 351.8 55.0126 353.666 55.8972C356.786 57.5056 359.857 59.1139 362.865 60.9314C361.661 59.1471 360.328 57.4538 358.876 55.865C358.698 55.6202 358.575 55.3393 358.517 55.042C358.458 54.7447 358.466 54.4382 358.539 54.1441C353.875 53.5972 349.211 53.0343 344.531 52.5357C346.501 55.5654 348.222 58.7496 349.678 62.0573H349.71ZM294.051 42.226C307.785 43.5449 321.486 45.2819 335.188 46.9224C335.381 45.9092 336.169 45.0728 337.262 45.7322C338.124 46.2525 338.951 46.8273 339.739 47.4532C398.63 54.4336 457.297 63.2635 516.478 67.4132C463.408 46.5043 409.132 28.9408 356.673 6.48788C356.366 6.3799 356.078 6.22234 355.821 6.02145C333.805 13.3878 314.651 26.9947 294.244 37.803C291.719 39.1379 289.114 40.3442 286.492 41.5022L294.051 42.226ZM407.684 62.7489C407.845 62.7489 407.781 62.5719 407.684 62.5719C407.588 62.5719 407.54 62.7489 407.684 62.7489ZM396.025 62.7489C396.835 63.0875 397.572 63.5789 398.196 64.1964C398.639 64.78 398.926 65.4661 399.032 66.1908C399.225 66.995 400.85 68.1369 401.011 66.6894C401.364 63.4726 399.032 61.3335 396.411 59.9503C394.932 59.2104 394.787 62.1538 396.025 62.781V62.7489ZM391.538 69.5362C391.666 69.6691 391.83 69.7625 392.01 69.8053C392.189 69.8481 392.377 69.8384 392.552 69.7775L392.873 69.681C393.082 69.681 393.147 69.3111 393.114 69.1341C392.873 67.9278 391.812 67.1719 391.603 65.9978C391.56 65.3026 391.683 64.6072 391.963 63.9694C392.242 63.3316 392.67 62.7698 393.211 62.3307C393.999 61.4622 392.632 59.4034 391.699 60.3685C391.049 60.9405 390.525 61.6419 390.162 62.4279C389.798 63.2138 389.603 64.067 389.587 64.9329C389.572 65.7988 389.738 66.6583 390.074 67.4565C390.41 68.2547 390.909 68.974 391.538 69.5684V69.5362ZM323.593 73.4767C310.133 71.3054 294.388 72.9299 280.944 74.9082C277.245 75.455 279.223 80.1676 282.375 79.7333C289.869 78.5794 297.425 77.8812 305.002 77.6424C311.049 77.4012 317.771 78.2214 323.673 76.8382C325.153 76.5005 325.105 73.7662 323.593 73.525V73.4767ZM266.84 79.9102C249.504 77.5942 232.281 83.2717 215.379 86.4402C211.262 87.2123 213.336 92.343 217.083 91.5871C233.744 88.2095 249.697 84.2689 266.76 83.127C268.272 83.1431 268.256 80.1997 266.84 80.0067V79.9102ZM202.722 94.3856C184.663 90.3647 165.172 101.269 147.803 104.872C144.056 105.644 146.404 110.357 149.604 109.697C157.87 107.848 165.895 105.146 173.984 102.637C183.392 99.7254 192.752 98.3905 202.369 96.5891C203.125 96.4926 203.687 94.6751 202.722 94.466V94.3856ZM127.283 111.097C110.22 112.126 95.7467 120.393 79.3111 124.189C75.6605 125.041 77.7029 129.625 80.9193 129.014C96.792 125.62 111.169 116.404 127.299 114.233C128.762 114.04 128.843 111.081 127.283 111.177V111.097ZM47.3406 136.654C27.1901 142.251 11.3013 156.147 -7.67513 164.318C-9.95874 165.299 -7.86812 169.143 -5.80965 168.323C13.0221 160.281 28.6375 146.047 48.5306 140.24C50.38 139.677 49.206 136.123 47.3406 136.654ZM-28.4688 184.632C-44.4847 194.192 -57.6631 207.85 -66.6469 224.198C-67.3384 225.517 -65.8268 228.122 -64.7814 226.369C-55.4811 210.616 -42.8989 197.05 -27.8899 186.594C-27.0536 185.983 -27.1984 183.892 -28.4688 184.632ZM-76.1352 248.5C-79.6892 259.244 -84.6103 269.409 -88.8719 279.88C-89.7886 282.131 -86.0576 284.512 -85.3822 281.665C-82.7287 270.406 -77.8559 259.936 -74.5431 248.886C-74.1732 247.728 -75.7653 247.455 -76.1352 248.5Z" fill="#F1EEED"/>
</g>
<defs>
<clipPath id="clip0_1291_12068">
<rect width="895" height="319" fill="white"/>
</clipPath>
</defs>
</svg>
