<svg width="829" height="400" viewBox="0 0 829 400" fill="none" xmlns="http://www.w3.org/2000/svg">
<path opacity="0.15" d="M71.7053 382.638C170.151 512.938 346.763 410.141 416.543 305.088C453.699 249.398 472.074 178.711 447.513 114.39C413.514 25.6471 307.234 -9.43853 222.097 -26.1881C218.759 -26.8216 216.225 -20.1588 219.958 -19.4031C345.893 6.28305 486.098 82.1556 443.939 231.411C415.564 331.124 316.279 420.871 212.27 433.353C158.692 439.674 110.232 416.713 76.8624 375.489C18.2343 303.493 28.4299 216.393 75.2996 141.094C97.7531 105.309 130.853 73.3129 171.488 59.9664C225.635 42.1925 272.055 82.9973 297.315 126.52C343.557 206.462 277.045 306.677 197.417 331.844C136.756 350.993 102.846 300.276 120.69 245.649C129.689 218.029 157.354 177.748 192.364 191.403C197.258 193.375 201.657 196.392 205.248 200.242C208.839 204.092 211.536 208.68 213.148 213.682C189.233 216.14 167.733 231.481 149.309 248.621C148.065 249.747 147.135 251.175 146.61 252.765C146.086 254.355 145.986 256.053 146.32 257.692C146.653 259.331 147.409 260.856 148.513 262.116C149.617 263.377 151.031 264.331 152.618 264.884C178.448 273.623 202.898 276.372 225.653 259.438C233.203 253.3 238.149 244.556 239.503 234.955C249.461 233.117 254.926 220.999 242.335 216.867L239.747 216.102C238.744 209.638 236.361 203.463 232.758 197.993C195.21 143.201 128.906 171.665 104.336 222.426C76.5466 279.54 91.1464 339.838 159.604 351.954C216.879 361.964 271.352 316.051 299.289 271.51C368.065 162.002 261.692 -9.8574 134.718 70.5825C83.4926 102.977 45.3499 166.581 32.7458 224.413C20.1417 282.245 35.5081 335.14 71.7053 382.638ZM182.536 249.709C191.847 241.774 203.005 236.281 214.991 233.731C211.732 247.142 196.886 250.784 182.536 249.709Z" fill="#0D0D0D"/>
<path opacity="0.1" d="M603.025 61.713C616.962 38.8679 611.946 8.76998 594.308 -11.6355C575.793 -33.1406 540.552 -32.2194 520.486 -13.3699C515.23 -8.76448 511.381 -2.77497 509.376 3.91878C507.372 10.6125 507.292 17.7424 509.146 24.4991C511 31.2559 514.713 37.3688 519.864 42.1441C525.016 46.9195 531.398 50.1659 538.288 51.5149C548.144 53.8849 567.022 51.7027 568.809 40.7365C571.064 26.7204 557.489 19.6189 543.279 15.9267C535.081 13.7989 533.06 24.7252 539.421 27.5795C543.418 28.832 546.964 31.2271 549.618 34.4669C549.848 34.6246 550.086 34.7701 550.332 34.9028C549.03 36.6758 547.478 38.2516 545.723 39.5816C540.132 39.6162 534.641 38.047 529.903 35.0609C516.736 27.7979 519.241 10.2409 524.441 0.279044C531.035 -12.4751 549.66 -18.5569 565.255 -15.8665C591.999 -11.4027 600.956 18.0724 599.845 37.4037C597.568 73.365 554.123 89.3415 517.112 75.4843C472.985 58.8254 461.669 13.0841 473.148 -22.6503C487.561 -69.3696 545.861 -76.0275 591.682 -57.155C641.6 -36.9628 668.332 7.87097 661.197 53.489C660.964 54.886 664.072 56.4742 664.623 54.8096C681.967 -0.690427 638.456 -53.0412 575.538 -69.774C512.62 -86.5068 465.087 -50.2957 459.068 1.69812C455.387 33.1089 473.542 66.9637 507.33 82.805C541.118 98.6464 584.278 91.9358 603.025 61.713Z" fill="#FF8870"/>
<path opacity="0.1" d="M566.268 469.774C676.212 546.771 840.129 474.928 822.877 334.82C821.37 322.612 808.031 328.906 809.171 339.309C821.836 452.347 702.801 497.257 610.506 466.106C518.211 434.955 480.186 286.749 551.809 217.574C593.741 177.171 673.383 199.765 701.777 244.973C718.815 272.016 708.616 300.851 689.96 323.763C636.942 389.058 567.281 316.14 630.992 289.661C630.669 291.455 630.703 293.296 631.093 295.077C631.483 296.858 632.221 298.545 633.265 300.042C634.309 301.539 635.638 302.816 637.177 303.801C638.716 304.786 640.434 305.458 642.233 305.781C674.269 308.761 677.952 285.16 665.523 260.598C663.195 257.201 659.913 254.564 656.089 253.018C652.266 251.473 648.07 251.087 644.027 251.909C595.99 260.305 528.449 306.296 579.196 358.58C627.144 408.1 696.408 378.897 731.114 329.088C795.763 236.708 673.23 162.103 590.5 168.924C438.008 181.574 475.013 405.809 566.268 469.774Z" fill="#CFCFCF"/>
</svg>
