<svg width="943" height="520" viewBox="0 0 943 520" fill="none" xmlns="http://www.w3.org/2000/svg">
<path opacity="0.07" d="M791.629 55.118C783.205 -15.594 740.683 -86.7071 646.281 -99.2722C525.937 -115.58 432.336 -23.347 376.978 57.7914C360.933 -3.16263 331.916 -70.5329 271.076 -103.951C177.476 -155.013 61.2771 -111.704 18.3546 -34.1743C-32.056 56.9894 32.7958 179.7 75.8521 263.779C149.042 405.588 212.394 552.259 265.46 702.755C271.745 720.667 313.597 724.009 324.027 707.166C465.899 480.727 825.325 337.565 791.629 55.118ZM717.149 184.779C690.406 283.963 585.039 366.839 502.002 438.754C430.598 500.644 360.933 562.133 305.842 632.979C271.553 536.869 230.351 443.367 182.557 353.205C140.169 276.076 92.5665 201.354 62.2131 120.082C29.5867 29.7205 67.6955 -149.265 245.135 -88.8459C315.336 -64.9187 349.166 11.5412 365.479 74.3667C358.258 85.7287 352.107 96.6898 345.956 106.849C329.777 135.989 390.885 150.025 405.059 124.627C442.365 57.7915 583.702 -132.957 690.139 -26.8224C744.695 27.0471 733.998 122.756 717.149 184.645V184.779Z" fill="#0D0D0D"/>
<path opacity="0.1" d="M941.861 248.138C937.531 211.785 915.677 175.226 867.158 168.767C805.307 160.383 757.201 207.799 728.749 249.512C720.503 218.176 705.59 183.541 674.321 166.361C626.214 140.111 566.494 162.376 544.433 202.233C518.525 249.1 551.856 312.184 573.984 355.409C611.601 428.312 644.161 503.714 671.434 581.083C674.664 590.292 696.175 592.009 701.535 583.351C774.451 466.94 959.179 393.342 941.861 248.138ZM903.582 314.795C889.837 365.785 835.683 408.391 793.006 445.362C756.308 477.179 720.503 508.79 692.189 545.212C674.566 495.802 653.39 447.734 628.826 401.382C607.04 361.731 582.575 323.317 566.975 281.535C550.206 235.081 569.792 143.066 660.988 174.127C697.068 186.428 714.455 225.735 722.839 258.033C719.128 263.874 715.967 269.509 712.806 274.732C704.49 289.713 735.897 296.928 743.181 283.872C762.355 249.512 834.996 151.449 889.7 206.013C917.739 233.707 912.241 282.91 903.582 314.727V314.795Z" fill="#FEF7F6"/>
</svg>
