<svg width="213" height="209" viewBox="0 0 213 209" fill="none" xmlns="http://www.w3.org/2000/svg">
<path d="M22.7045 77.5183C20.6154 63.1349 25.1705 46.8865 42.9604 39.4644C65.6235 29.9456 88.7932 43.2283 103.901 56.3266C103.817 43.468 105.93 28.6649 116.058 18.8893C131.657 3.91881 156.659 6.37175 169.146 19.4098C183.816 34.7439 177.622 62.3353 173.647 81.1682C166.832 112.962 162.197 145.199 159.775 177.652C159.492 181.512 151.488 184.363 148.559 181.589C108.863 144.373 31.0395 134.973 22.7045 77.5183ZM44.1137 99.1821C54.5814 117.337 79.557 128.159 99.5883 137.989C116.816 146.451 133.683 154.926 148.194 166.009C149.82 145.263 152.934 124.67 157.513 104.389C161.725 86.9617 167.082 69.7356 168.722 52.1215C170.326 32.5961 153.42 -0.698004 121.927 20.5088C109.468 28.9034 106.894 45.7508 107.025 58.9924C109.036 60.8544 110.818 62.6934 112.557 64.3743C117.259 69.2724 106.055 75.2404 101.943 70.9753C91.1194 59.7515 53.4136 29.545 38.2146 56.0464C30.3961 69.5252 37.5435 87.8356 44.1067 99.1558L44.1137 99.1821Z" fill="#D7563D"/>
<path d="M6.05254 129.576C5.00001 122.221 7.40388 113.897 16.6641 110.059C28.4612 105.137 40.4693 111.88 48.2891 118.547C48.275 111.968 49.4067 104.389 54.6911 99.3644C62.8303 91.6689 75.8155 92.8668 82.2733 99.5093C89.8607 107.322 86.5792 121.453 84.471 131.098C80.8573 147.381 78.3752 163.886 77.0424 180.496C76.8869 182.472 72.7213 183.949 71.206 182.536C50.6659 163.586 10.2519 158.954 6.05254 129.576ZM17.1268 140.611C22.5241 149.877 35.4761 155.356 45.8615 160.34C54.7933 164.631 63.5374 168.928 71.0522 174.566C71.944 163.947 73.6093 153.403 76.035 143.016C78.2629 134.09 81.086 125.264 81.9783 116.247C82.8563 106.253 74.1487 89.2569 57.7367 100.18C51.2443 104.503 49.8686 113.129 49.9059 119.904C50.947 120.852 51.8684 121.789 52.7681 122.645C55.2001 125.14 49.3652 128.22 47.2382 126.047C41.6401 120.329 22.1181 104.96 14.1604 118.554C10.0672 125.468 13.739 134.821 17.1232 140.598L17.1268 140.611Z" fill="#FF8870"/>
</svg>
