<svg width="232" height="176" viewBox="0 0 232 176" fill="none" xmlns="http://www.w3.org/2000/svg">
<path d="M19.3583 138.124C45.5964 172.852 92.6679 145.454 111.266 117.455C121.169 102.612 126.066 83.7725 119.52 66.6295C110.459 42.9773 82.1324 33.6262 59.4414 29.162C58.5516 28.9932 57.8763 30.769 58.8712 30.9704C92.436 37.8164 129.804 58.0382 118.568 97.8184C111.005 124.394 84.543 148.314 56.8222 151.641C42.5423 153.326 29.6267 147.206 20.7328 136.219C5.10697 117.03 7.82434 93.8156 20.3162 73.7467C26.3007 64.2092 35.1225 55.6814 45.9528 52.1243C60.3842 47.3871 72.7564 58.2625 79.4886 69.8623C91.8133 91.169 74.0861 117.878 52.8634 124.586C36.6958 129.69 27.6581 116.172 32.4138 101.613C34.8124 94.2518 42.1858 83.5158 51.5167 87.1552C52.8212 87.6808 53.9934 88.4851 54.9506 89.5111C55.9078 90.5372 56.6266 91.76 57.0563 93.0932C50.6822 93.7484 44.952 97.837 40.0416 102.405C39.7099 102.705 39.462 103.086 39.3223 103.51C39.1826 103.934 39.1559 104.386 39.2448 104.823C39.3337 105.26 39.5351 105.666 39.8293 106.002C40.1236 106.338 40.5006 106.592 40.9234 106.74C47.8077 109.069 54.3244 109.802 60.3891 105.288C62.4013 103.652 63.7196 101.322 64.0804 98.7629C66.7346 98.2732 68.191 95.0433 64.8353 93.9421L64.1455 93.7383C63.8782 92.0152 63.243 90.3695 62.2826 88.9118C52.2754 74.3082 34.6036 81.8946 28.0552 95.4236C20.6486 110.646 24.5398 126.717 42.7854 129.946C58.0507 132.614 72.5691 120.377 80.0148 108.506C98.3453 79.3192 69.9943 33.5145 36.1527 54.9537C22.4999 63.5876 12.3339 80.5396 8.97465 95.9533C5.61535 111.367 9.71085 125.465 19.3583 138.124ZM48.8974 102.695C51.379 100.58 54.3527 99.1163 57.5474 98.4367C56.6788 102.011 52.7219 102.982 48.8974 102.695Z" fill="#F36A4F"/>
<path d="M167.168 50.1194C171.122 43.6381 169.699 35.0991 164.695 29.31C159.442 23.2088 149.444 23.4702 143.751 28.8179C142.26 30.1245 141.168 31.8237 140.599 33.7228C140.031 35.6219 140.008 37.6446 140.534 39.5616C141.06 41.4785 142.113 43.2128 143.575 44.5676C145.036 45.9224 146.847 46.8434 148.802 47.2261C151.598 47.8985 156.954 47.2794 157.461 44.1682C158.1 40.1918 154.249 38.177 150.218 37.1295C147.892 36.5258 147.319 39.6257 149.123 40.4355C150.257 40.7908 151.263 41.4703 152.016 42.3895C152.081 42.4342 152.149 42.4755 152.219 42.5132C151.849 43.0162 151.409 43.4632 150.911 43.8406C149.325 43.8504 147.767 43.4052 146.423 42.558C142.687 40.4975 143.398 35.5164 144.873 32.6902C146.744 29.0717 152.028 27.3463 156.452 28.1096C164.04 29.376 166.581 37.7383 166.266 43.2227C165.62 53.4251 153.294 57.9578 142.794 54.0264C130.275 49.3002 127.064 36.3231 130.321 26.185C134.41 12.9304 150.95 11.0415 163.95 16.3958C178.112 22.1244 185.696 34.8441 183.672 47.7862C183.606 48.1825 184.487 48.6331 184.644 48.1608C189.564 32.4151 177.22 17.5629 159.37 12.8157C141.52 8.06848 128.034 18.3418 126.327 33.0928C125.282 42.0042 130.433 51.609 140.019 56.1033C149.605 60.5976 161.849 58.6938 167.168 50.1194Z" fill="#AB9591"/>
<path d="M156.74 165.889C187.931 187.733 234.436 167.351 229.541 127.602C229.114 124.138 225.329 125.924 225.653 128.875C229.246 160.945 195.475 173.686 169.29 164.848C143.106 156.011 132.318 113.963 152.638 94.3381C164.534 82.8756 187.129 89.2857 195.184 102.111C200.018 109.784 197.125 117.964 191.832 124.465C176.79 142.989 157.027 122.302 175.102 114.79C175.011 115.299 175.02 115.821 175.131 116.326C175.242 116.832 175.451 117.31 175.747 117.735C176.043 118.16 176.42 118.522 176.857 118.801C177.293 119.081 177.781 119.271 178.291 119.363C187.38 120.209 188.425 113.513 184.899 106.544C184.238 105.58 183.307 104.832 182.223 104.394C181.138 103.955 179.947 103.846 178.8 104.079C165.172 106.461 146.01 119.509 160.408 134.342C174.011 148.392 193.661 140.106 203.507 125.975C221.849 99.7667 187.085 78.6005 163.615 80.5358C120.351 84.1246 130.85 147.742 156.74 165.889Z" fill="#CFCFCF"/>
</svg>
