<svg width="1792" height="400" viewBox="0 0 1792 400" fill="none" xmlns="http://www.w3.org/2000/svg">
<g clip-path="url(#clip0_1400_12142)">
<path opacity="0.5" d="M543.039 547.996C748.091 819.395 1115.96 605.281 1261.3 386.466C1338.69 270.471 1376.96 123.237 1325.81 -10.7365C1254.99 -195.579 1033.62 -268.658 856.29 -303.546C849.336 -304.865 844.058 -290.987 851.833 -289.413C1114.14 -235.912 1406.17 -77.8775 1318.36 233.006C1259.26 440.696 1052.46 627.63 835.82 653.628C724.223 666.795 623.287 618.969 553.781 533.104C431.665 383.145 452.901 201.724 550.526 44.885C597.294 -29.6513 666.236 -96.2957 750.876 -124.095C863.658 -161.116 960.346 -76.1244 1012.96 14.5281C1109.28 181.04 970.739 389.776 804.883 442.198C678.532 482.082 607.902 376.443 645.068 262.661C663.813 205.132 721.436 121.23 794.358 149.672C804.553 153.78 813.714 160.065 821.194 168.084C828.674 176.102 834.292 185.659 837.65 196.078C787.837 201.198 743.054 233.151 704.68 268.852C702.087 271.197 700.15 274.172 699.058 277.484C697.967 280.795 697.758 284.332 698.453 287.746C699.147 291.16 700.721 294.335 703.021 296.961C705.32 299.587 708.266 301.573 711.571 302.726C765.372 320.928 816.3 326.655 863.696 291.383C879.421 278.597 889.724 260.385 892.544 240.387C913.286 236.56 924.668 211.318 898.443 202.712L893.052 201.119C890.963 187.654 885.999 174.792 878.494 163.4C800.287 49.2727 662.181 108.561 611.006 214.29C553.123 333.252 583.533 458.848 726.123 484.084C845.421 504.934 958.883 409.302 1017.07 316.527C1160.32 88.4341 938.761 -269.531 674.288 -101.983C567.591 -34.5089 488.144 97.9717 461.891 218.429C435.638 338.887 467.644 449.062 543.039 547.996ZM773.888 271.118C793.282 254.59 816.521 243.149 841.488 237.837C834.7 265.771 803.776 273.357 773.888 271.118Z" fill="#FCD9D3"/>
<path opacity="0.7" d="M1685.27 -75.0435C1657.29 -122.239 1597.96 -142.081 1544.06 -129.751C1487.32 -116.888 1455.11 -52.1819 1469.97 2.27295C1473.25 16.2181 1480.4 28.9446 1490.6 39.0078C1500.79 49.071 1513.63 56.068 1527.65 59.2045C1541.67 62.3409 1556.3 61.4913 1569.9 56.7521C1583.5 52.0128 1595.52 43.5737 1604.58 32.3926C1618.35 16.8215 1632.54 -19.4622 1614.39 -33.2387C1591.18 -50.7924 1565.27 -33.0335 1544.93 -10.8483C1533.2 1.95207 1551.04 16.1133 1562.32 7.3373C1568.43 1.30209 1576.18 -2.81746 1584.6 -4.50885C1585.1 -4.77452 1585.6 -5.06663 1586.07 -5.38396C1588.03 -1.32136 1589.39 3.00401 1590.12 7.45946C1584.8 17.618 1576.68 26.0548 1566.72 31.7648C1540.92 48.6294 1511.53 27.2184 1498.49 8.22721C1481.73 -15.9719 1488.61 -55.5453 1508.47 -81.2022C1542.26 -125.345 1604.25 -113.238 1638.19 -92.647C1701.12 -53.9625 1688.3 40.0708 1627.64 93.7797C1555.06 157.682 1461.35 134.213 1407.66 79.0818C1336.91 8.07902 1380.88 -103.899 1459.1 -168.742C1543.64 -239.737 1650.53 -245.06 1726.28 -188.295C1728.59 -186.53 1734.45 -190.632 1731.97 -193.23C1648.13 -277.98 1511.5 -249.496 1420.73 -151.634C1329.96 -53.773 1349.85 67.1095 1438.23 127.981C1491.57 164.835 1570.33 164.494 1631.49 118.53C1692.65 72.5647 1721.98 -12.046 1685.27 -75.0435Z" fill="#E3DCDA"/>
<path d="M1513.54 514.765C1643.05 605.462 1836.13 520.836 1815.81 355.8C1814.03 341.419 1798.32 348.834 1799.66 361.087C1814.58 494.238 1674.37 547.138 1565.65 510.444C1456.93 473.751 1412.14 299.175 1496.51 217.692C1545.9 170.101 1639.72 196.715 1673.16 249.966C1693.23 281.821 1681.22 315.787 1659.24 342.775C1596.79 419.688 1514.74 333.795 1589.78 302.605C1589.4 304.719 1589.44 306.887 1589.9 308.985C1590.36 311.083 1591.23 313.07 1592.46 314.834C1593.69 316.597 1595.26 318.101 1597.07 319.261C1598.88 320.421 1600.9 321.213 1603.02 321.593C1640.76 325.104 1645.1 297.304 1630.46 268.371C1627.72 264.369 1623.85 261.264 1619.35 259.443C1614.84 257.622 1609.9 257.168 1605.14 258.136C1548.55 268.026 1468.99 322.2 1528.77 383.787C1585.25 442.118 1666.84 407.718 1707.72 349.048C1783.87 240.231 1639.54 152.351 1542.09 160.386C1362.46 175.286 1406.05 439.419 1513.54 514.765Z" fill="white"/>
</g>
<defs>
<clipPath id="clip0_1400_12142">
<rect width="1792" height="400" fill="white"/>
</clipPath>
</defs>
</svg>
