<svg width="1792" height="1192" viewBox="0 0 1792 1192" fill="none" xmlns="http://www.w3.org/2000/svg">
<g clip-path="url(#clip0_1496_14277)">
<path opacity="0.07" d="M1703.29 263.041C1693.01 176.766 1641.11 90.0025 1525.88 74.672C1378.98 54.7751 1264.73 167.307 1197.16 266.303C1177.57 191.934 1142.15 109.736 1067.89 68.9639C953.634 6.66359 811.797 59.5047 759.404 154.097C697.871 265.324 777.032 415.041 829.588 517.624C918.927 690.643 996.257 869.594 1061.03 1053.21C1068.7 1075.07 1119.79 1079.14 1132.52 1058.59C1305.7 782.319 1744.42 607.65 1703.29 263.041ZM1612.38 421.238C1579.74 542.251 1451.12 643.366 1349.76 731.109C1262.61 806.619 1177.57 881.641 1110.32 968.078C1068.47 850.817 1018.18 736.736 959.836 626.731C908.096 532.628 849.99 441.461 812.94 342.302C773.115 232.054 819.632 13.6764 1036.22 87.3931C1121.91 116.586 1163.21 209.874 1183.12 286.526C1174.3 300.388 1166.8 313.762 1159.29 326.157C1139.54 361.71 1214.13 378.835 1231.43 347.848C1276.97 266.303 1449.49 33.5734 1579.41 163.067C1646 228.792 1632.95 345.564 1612.38 421.075V421.238Z" fill="#0D0D0D"/>
<path opacity="0.1" d="M1886.61 498.739C1881.31 454.346 1854.58 409.7 1795.24 401.812C1719.6 391.574 1660.76 449.478 1625.96 500.418C1615.88 462.15 1597.64 419.855 1559.39 398.875C1500.56 366.817 1427.52 394.007 1400.54 442.681C1368.85 499.914 1409.61 576.953 1436.68 629.739C1482.69 718.768 1522.51 810.849 1555.86 905.332C1559.81 916.577 1586.12 918.675 1592.68 908.101C1681.86 765.941 1907.79 676.062 1886.61 498.739ZM1839.79 580.142C1822.98 642.411 1756.75 694.441 1704.55 739.59C1659.67 778.445 1615.88 817.048 1581.25 861.526C1559.69 801.187 1533.8 742.486 1503.75 685.881C1477.11 637.459 1447.19 590.548 1428.11 539.525C1407.6 482.795 1431.55 370.426 1543.09 408.358C1587.22 423.379 1608.48 471.382 1618.73 510.824C1614.2 517.957 1610.33 524.839 1606.46 531.216C1596.29 549.511 1634.7 558.323 1643.61 542.378C1667.06 500.418 1755.91 380.664 1822.81 447.296C1857.1 481.116 1850.38 541.203 1839.79 580.058V580.142Z" fill="#FEF7F6"/>
</g>
<defs>
<clipPath id="clip0_1496_14277">
<rect width="1792" height="1192" fill="white"/>
</clipPath>
</defs>
</svg>
