<svg width="992" height="648" viewBox="0 0 992 648" fill="none" xmlns="http://www.w3.org/2000/svg">
<path opacity="0.2" d="M991.968 284.781C994.202 133.454 880.244 31.3581 743.382 -25.4242C551.775 -201.365 266.04 -108.22 157.947 100.448C106.455 130.786 64.9117 175.5 38.4026 229.117C26.4714 253.046 17.1087 278.174 10.4716 304.081C2.7401 327.709 -0.758583 352.519 0.137091 377.367C-3.77325 521.42 91.1922 644.215 223.585 710.508C296.765 813.164 409.327 866.869 556.802 812.325C612.569 791.319 661.072 754.597 696.457 706.592C859.016 624.356 989.175 457.365 991.968 284.781ZM639.757 501.001C607.785 543.908 562.812 575.307 511.554 590.51C475.673 580.581 442.837 561.832 416.03 535.965C463.281 522.294 507.03 498.574 544.291 466.424C581.552 434.275 611.447 394.452 631.937 349.675C654.369 366.993 672.209 389.566 683.888 415.408C673.448 445.951 658.579 474.791 639.757 501.001ZM560.992 302.123C542.022 346.412 513.391 385.885 477.199 417.646C458.347 431.497 436.759 441.158 413.879 445.982C391 450.806 367.355 450.681 344.527 445.617C313.627 397.002 290.712 343.74 276.654 287.858C302.055 258.355 335.118 236.475 372.178 224.642C438.876 240.105 502.637 266.27 560.992 302.123ZM607.357 220.166C615.856 226.268 623.886 233 631.378 240.306C615.178 227.439 594.789 222.684 584.175 236.39C562.269 222.295 539.611 209.409 516.302 197.789C538.165 196.595 560.085 198.573 581.382 203.663C590.32 208.978 599.257 214.292 607.357 220.166ZM324.137 540.441C311.071 545.831 298.38 552.092 286.151 559.182C269.154 542.463 254.327 523.668 242.02 503.239C265.655 522.646 293.977 535.478 324.137 540.441ZM335.309 600.02C343.689 596.104 355.699 591.069 370.782 585.195C380.837 595.265 390.613 604.216 400.668 613.167L366.871 617.083C355.993 612.085 345.45 606.386 335.309 600.02ZM790.026 335.969C784.848 309.272 775.417 283.584 762.095 259.886C775.765 268.924 788.409 279.429 799.802 291.214C797.782 306.401 794.797 321.442 790.864 336.248L790.026 335.969ZM107.113 330.095C106.481 395.605 118.331 460.635 142.027 521.7C146.776 543.252 152.649 564.539 159.623 585.475C125.321 553.741 101.808 512.041 92.3897 466.235C82.9712 420.429 88.1201 372.819 107.113 330.095ZM693.664 153.035C668.553 120.798 636.465 94.6879 599.816 76.6721C542.267 47.9612 480.343 29.0545 416.589 20.7289C507.292 -2.06377 602.737 2.90537 690.592 34.9944C701.764 38.6307 711.261 42.8265 721.595 47.0222C764.661 89.4806 792.125 145.276 799.523 205.341C766.532 183.298 730.984 165.357 693.664 151.916V153.035ZM902.03 326.458C893.074 300.898 879.222 277.334 861.25 257.089C861.397 207.964 852.887 159.199 836.113 113.035C865.989 138.646 888.029 172.192 899.692 209.805C911.355 247.417 912.165 287.565 902.03 325.619V326.458Z" fill="#FCD9D3"/>
</svg>
