<svg width="1484" height="888" viewBox="0 0 1484 888" fill="none" xmlns="http://www.w3.org/2000/svg">
<path opacity="0.2" d="M1483.95 621.14C1487.29 388.031 1316.82 230.757 1112.07 143.288C825.437 -127.74 397.988 15.7454 236.284 337.186C159.253 383.92 97.1058 452.8 57.449 535.394C39.6004 572.254 25.5941 610.963 15.6651 650.871C4.09911 687.268 -1.13482 725.487 0.205084 763.763C-5.64466 985.669 136.421 1174.83 334.476 1276.95C443.95 1435.08 612.339 1517.81 832.958 1433.79C916.383 1401.43 988.943 1344.86 1041.88 1270.92C1285.06 1144.23 1479.77 886.996 1483.95 621.14ZM957.057 954.214C909.227 1020.31 841.949 1068.68 765.268 1092.1C711.591 1076.8 662.47 1047.92 622.367 1008.08C693.053 987.016 758.501 950.476 814.242 900.951C869.983 851.426 914.706 790.082 945.357 721.105C978.915 747.784 1005.6 782.555 1023.08 822.363C1007.46 869.414 985.213 913.84 957.057 954.214ZM839.226 647.855C810.848 716.079 768.016 776.885 713.874 825.81C685.673 847.148 653.378 862.03 619.15 869.461C584.923 876.891 549.551 876.7 515.401 868.899C469.176 794.011 434.895 711.962 413.866 625.88C451.865 580.433 501.326 546.728 556.767 528.499C656.544 552.319 751.929 592.625 839.226 647.855ZM908.587 521.605C921.301 531.005 933.313 541.375 944.521 552.629C920.287 532.808 889.784 525.483 873.907 546.597C841.136 524.885 807.241 505.035 772.372 487.134C805.077 485.295 837.869 488.342 869.728 496.183C883.099 504.37 896.47 512.557 908.587 521.605ZM484.898 1014.97C465.352 1023.27 446.367 1032.92 428.072 1043.84C402.645 1018.08 380.465 989.131 362.054 957.662C397.411 987.558 439.78 1007.32 484.898 1014.97ZM501.612 1106.75C514.147 1100.72 532.114 1092.96 554.678 1083.91C569.72 1099.42 584.344 1113.21 599.386 1127L548.828 1133.03C532.554 1125.33 516.782 1116.55 501.612 1106.75ZM1181.85 699.992C1174.11 658.868 1160 619.296 1140.07 582.791C1160.52 596.713 1179.43 612.895 1196.48 631.05C1193.46 654.444 1188.99 677.615 1183.11 700.423L1181.85 699.992ZM160.237 690.943C159.292 791.858 177.019 892.033 212.467 986.1C219.571 1019.3 228.358 1052.09 238.791 1084.34C187.475 1035.46 152.302 971.221 138.212 900.66C124.122 830.098 131.825 756.758 160.237 690.943ZM1037.7 418.193C1000.13 368.534 952.131 328.313 897.306 300.561C811.214 256.333 718.578 227.209 623.203 214.384C758.893 179.273 901.675 186.928 1033.1 236.359C1049.82 241.96 1064.02 248.424 1079.48 254.887C1143.91 320.292 1184.99 406.241 1196.06 498.768C1146.71 464.812 1093.53 437.175 1037.7 416.469V418.193ZM1349.41 685.342C1336.01 645.967 1315.29 609.668 1288.4 578.482C1288.62 502.808 1275.89 427.688 1250.8 356.576C1295.49 396.029 1328.46 447.704 1345.91 505.644C1363.36 563.584 1364.57 625.429 1349.41 684.049V685.342Z" fill="#3D3D3D"/>
</svg>
