<svg width="992" height="648" viewBox="0 0 992 648" fill="none" xmlns="http://www.w3.org/2000/svg">
<path opacity="0.2" d="M0.0323486 284.781C-2.20215 133.454 111.756 31.3581 248.618 -25.4242C440.225 -201.365 725.96 -108.22 834.053 100.448C885.545 130.786 927.088 175.5 953.597 229.117C965.529 253.046 974.891 278.174 981.528 304.081C989.26 327.709 992.759 352.519 991.863 377.367C995.773 521.42 900.808 644.215 768.415 710.508C695.235 813.164 582.673 866.869 435.198 812.325C379.431 791.319 330.928 754.597 295.543 706.592C132.984 624.356 2.82544 457.365 0.0323486 284.781ZM352.243 501.001C384.215 543.908 429.188 575.307 480.446 590.51C516.327 580.581 549.163 561.832 575.97 535.965C528.719 522.294 484.97 498.574 447.709 466.424C410.448 434.275 380.553 394.452 360.063 349.675C337.631 366.993 319.791 389.566 308.112 415.408C318.552 445.951 333.421 474.791 352.243 501.001ZM431.008 302.123C449.978 346.412 478.609 385.885 514.801 417.646C533.653 431.497 555.241 441.158 578.121 445.982C601 450.806 624.645 450.681 647.473 445.617C678.373 397.002 701.288 343.74 715.346 287.858C689.945 258.355 656.882 236.475 619.822 224.642C553.124 240.105 489.363 266.27 431.008 302.123ZM384.643 220.166C376.144 226.268 368.114 233 360.622 240.306C376.822 227.439 397.211 222.684 407.825 236.39C429.731 222.295 452.389 209.409 475.698 197.789C453.835 196.595 431.915 198.573 410.618 203.663C401.68 208.978 392.743 214.292 384.643 220.166ZM667.863 540.441C680.929 545.831 693.62 552.092 705.849 559.182C722.846 542.463 737.673 523.668 749.98 503.239C726.345 522.646 698.023 535.478 667.863 540.441ZM656.691 600.02C648.311 596.104 636.301 591.069 621.218 585.195C611.163 595.265 601.387 604.216 591.332 613.167L625.129 617.083C636.007 612.085 646.55 606.386 656.691 600.02ZM201.974 335.969C207.152 309.272 216.583 283.584 229.905 259.886C216.235 268.924 203.591 279.429 192.198 291.214C194.218 306.401 197.203 321.442 201.136 336.248L201.974 335.969ZM884.887 330.095C885.519 395.605 873.669 460.635 849.973 521.7C845.224 543.252 839.351 564.539 832.377 585.475C866.679 553.741 890.192 512.041 899.61 466.235C909.029 420.429 903.88 372.819 884.887 330.095ZM298.336 153.035C323.447 120.798 355.535 94.6879 392.184 76.6721C449.733 47.9612 511.657 29.0545 575.411 20.7289C484.708 -2.06377 389.263 2.90537 301.408 34.9944C290.236 38.6307 280.739 42.8265 270.405 47.0222C227.339 89.4806 199.875 145.276 192.477 205.341C225.468 183.298 261.016 165.357 298.336 151.916V153.035ZM89.9702 326.458C98.9255 300.898 112.778 277.334 130.75 257.089C130.603 207.964 139.113 159.199 155.887 113.035C126.011 138.646 103.971 172.192 92.3082 209.805C80.6454 247.417 79.8349 287.565 89.9702 325.619V326.458Z" fill="#3D3D3D"/>
</svg>
