<svg width="1078" height="708" viewBox="0 0 1078 708" fill="none" xmlns="http://www.w3.org/2000/svg">
<g opacity="0.5">
<path d="M575.605 -85.2953C554.375 -84.0369 533.294 -80.9106 512.607 -75.9531C449.784 -84.2359 385.953 -70.6917 331.883 -37.6053C236.199 22.153 205.405 130.542 224.572 231.257C225.333 258.09 231.696 284.456 243.255 308.679C254.814 332.903 271.317 354.455 291.714 371.964C305.815 388.466 321.896 403.183 339.599 415.788C503.639 531.642 760.67 431.19 837.952 257.498C918.432 76.681 755.834 -95.4208 575.605 -85.2953ZM635.496 338.01C633.026 336.755 630.296 336.087 627.52 336.06C624.744 336.033 621.998 336.647 619.497 337.854C522.04 377.298 348.421 387.08 338.585 244.667C332.619 157.792 399.889 68.5117 476.488 33.7042C574.04 -10.4468 689.486 65.1847 719.438 159.995C742 231.394 691.274 296.959 635.496 338.01ZM316.811 85.6939C298.798 121.751 284.514 159.529 274.181 198.445C275.764 176.529 280.756 154.981 288.98 134.571C296.39 117.297 305.726 100.902 316.811 85.6939ZM506.984 -8.50756C392.489 10.8242 304.974 130.841 301.412 242.011C297.851 353.18 387.826 392.709 482.905 393.815L480.82 394.373C429.916 396.642 379.428 384.691 335.067 359.871C304.215 333.404 283.698 296.979 277.089 256.939C280.977 187.182 318.004 108.306 342.089 61.2262C342.553 60.2555 342.808 59.1989 342.836 58.1251C342.865 57.0513 342.666 55.9842 342.253 54.9929C387.623 8.05273 445.242 -25.361 508.602 -41.4741C519.878 -40.2225 531.062 -38.2632 542.087 -35.6081C583.229 -25.0341 621.33 -5.12597 653.412 22.56C607.703 -3.91455 554.082 -16.4461 506.686 -8.42777L506.984 -8.50756ZM632.297 -37.483C713.884 -9.90979 786.692 70.9571 781.686 156.487C780.317 151.379 779.524 146.037 778.096 140.707C756.538 62.9293 701.059 0.588503 631.925 -37.3833L632.297 -37.483ZM719.932 355.378C653.923 409.569 569.125 435.627 484.05 427.866C604.973 422.998 736.892 363.291 774.926 258.992C800.919 224.097 817.862 184.009 817.676 140.734C825.171 220.217 786.099 300.989 719.932 355.378Z" fill="white"/>
<path d="M473.772 -332.547C472.823 -323.882 472.29 -314.852 471.445 -306.691C444.77 -291.609 455.779 -243.379 466.884 -209.378C466.722 -192.116 466.729 -174.82 467.277 -157.589C467.825 -140.359 497.823 -141.255 498.188 -158.651C498.308 -164.555 498.329 -170.432 498.25 -176.283C499.154 -177.203 499.858 -178.299 500.318 -179.5C500.779 -180.702 500.986 -181.985 500.926 -183.269C501.118 -232.278 506.639 -281.049 501.04 -329.935C499.578 -342.239 475.149 -347.358 473.772 -332.547Z" fill="white"/>
<path d="M719.524 -320.557C712.563 -312.993 706.286 -304.832 700.767 -296.17C699.104 -296.47 697.385 -296.147 695.943 -295.262C694.501 -294.378 693.437 -292.995 692.956 -291.379C681.998 -265.014 674.361 -237.408 670.22 -209.192C670.092 -207.991 670.174 -206.778 670.462 -205.607C664.538 -191.294 659.401 -176.673 655.072 -161.809C651.934 -150.891 671.28 -138.538 677.817 -149.574C691.477 -171.399 703.152 -194.391 712.704 -218.274C712.704 -218.274 712.704 -218.274 712.585 -218.719C722.429 -236.672 731.129 -255.222 738.631 -274.259C739.296 -277.326 738.97 -280.52 737.7 -283.387C736.431 -286.253 734.283 -288.644 731.563 -290.218C733.317 -295.978 735.022 -301.725 736.677 -307.458C739.139 -314.942 726.507 -328.141 719.524 -320.557Z" fill="white"/>
<path d="M925.935 -137.986C910.346 -129.114 895.268 -119.379 880.773 -108.825C870.922 -101.821 858.088 -94.3358 853.674 -82.5205C853.141 -80.9175 853.103 -79.1936 853.564 -77.5714C843.378 -69.7431 833.71 -61.2683 824.62 -52.2004C813.502 -41.2866 836.262 -28.1034 846.426 -34.2388L849.126 -36.0731C850.914 -35.6361 852.777 -35.5937 854.585 -35.9488C882.871 -43.5281 913.547 -64.5228 938.812 -78.9101C950.574 -85.6324 937.402 -102.337 926.564 -98.7185L923.437 -97.8808L923.611 -98.7209C931.09 -105.645 938.644 -112.588 946.446 -119.202C957.797 -129.543 936.069 -143.638 925.935 -137.986Z" fill="white"/>
<path d="M1068.74 129.966L1042.17 132.641C1040.57 131.406 1038.6 130.759 1036.57 130.809C1001.16 132.919 965.898 136.812 930.561 139.218C914.339 140.312 923.169 161.354 935.991 161.568L937.917 161.608C938.515 162.053 939.223 162.329 939.966 162.407L941.574 162.453C950.571 162.978 959.577 162.945 968.643 163.134C976.818 163.463 985.007 163.022 993.103 161.818C1020 159.433 1046.68 154.939 1072.87 148.378C1080.81 145.537 1076.59 129.21 1068.74 129.966Z" fill="white"/>
<path d="M994.353 372.23L941.668 341.753C939.7 340.669 937.516 340.029 935.27 339.876C933.023 339.724 930.77 340.064 928.667 340.872C930.489 333.084 919.991 322.487 912.864 329.237C907.088 334.01 902.905 340.418 900.872 347.606L893.027 345.423C879.475 341.595 879.13 359.065 887.595 365.049C904.887 377.048 924.715 384.952 945.566 388.159L946.355 388.423C949.818 390.171 953.068 392.309 956.04 394.795C956.443 395.283 956.967 395.657 957.562 395.879C958.156 396.101 958.799 396.163 959.426 396.06C960.053 395.956 960.642 395.69 961.134 395.288C961.626 394.887 962.003 394.363 962.228 393.771C970.902 396.367 978.762 398.308 984.091 399.736C992.254 401.913 995.381 397.505 995.129 392.097C1003.43 388.841 1003.05 377.28 994.353 372.23Z" fill="white"/>
<path d="M781.778 491.804C779.913 489.606 778.122 487.388 776.222 485.358C775.339 484.197 774.19 483.265 772.87 482.639C771.55 482.012 770.098 481.71 768.635 481.757C764.24 474.286 754.23 478.317 756.431 487.725C756.431 487.725 756.178 488.268 756.183 488.585C755.249 525.891 768.804 567.249 799.438 590.463C799.955 590.934 800.587 591.261 801.271 591.412C801.956 591.563 802.669 591.532 803.338 591.322C812.652 601.237 824.019 609.019 836.657 614.134C842.184 616.303 849.167 614.67 848.885 607.366C848.169 584.061 841.666 561.311 829.956 541.146C818.247 520.981 801.695 504.029 781.778 491.804Z" fill="white"/>
<path d="M609.801 588.103C602.279 580.28 595.818 579.392 590.652 582.443C589.819 579.333 589.804 576.005 589.08 572.707C586.264 562.195 569.234 558.188 565.048 569.069C563.122 573.791 561.236 578.661 559.518 583.564C554.139 580.165 547.649 579.762 546.491 587.055C541.521 617.669 538.338 648.54 536.958 679.511C536.793 688.125 551.088 697.705 558.066 690.995C562.427 695.063 568.908 696.025 570.954 688.176C572.944 680.072 574.093 671.787 574.382 663.453L575.995 660.244C576.435 671.711 577.043 683.212 578.396 694.514C579.59 707.604 604.669 713.659 603.247 697.932C602.534 688.125 601.26 678.31 599.912 668.515C598.659 655.203 597.703 641.81 597.14 628.393C596.928 621.943 596.164 588.425 604.912 594.571C608.038 596.114 612.004 590.37 609.801 588.103Z" fill="white"/>
<path d="M360.544 527.308C348.554 532.608 337.651 540.077 328.39 549.333C316.109 555.721 305.419 564.768 297.108 575.807C294.213 579.589 291.692 583.639 289.578 587.902C265.24 604.262 253.465 631.777 257.076 666.993C257.869 674.715 265.381 683.097 273.55 678.448L275.381 677.244L274.76 680.584C273.195 689.335 285.689 699.635 291.348 689.787C297.006 679.939 303.38 667.996 308.944 656.903C309.137 660.898 309.291 664.746 309.712 668.997C310.256 675.199 319.709 682.188 323.873 674.803C348.707 632.601 369.873 587.731 371.981 538.129C372.16 532.844 366.817 524.516 360.544 527.308ZM276.11 649.594C276.667 643.541 278.052 637.59 280.227 631.907L279.903 639.928C279.821 640.754 279.973 641.584 280.341 642.327C280.71 643.07 281.279 643.694 281.986 644.131C280.001 646.25 278.16 648.013 276.11 649.594Z" fill="white"/>
<path d="M236.301 356.91C198.835 372.656 163.387 392.81 130.718 416.941C122.499 423.19 110.641 438.19 112.089 449.545C101.888 452.833 92.2222 457.588 83.399 463.66C82.2623 464.672 81.3822 465.937 80.8309 467.351C80.2796 468.766 80.0728 470.289 80.2275 471.796C80.3822 473.304 80.8941 474.752 81.721 476.023C82.5479 477.293 83.6663 478.349 84.9844 479.105C79.0835 482.987 73.2025 486.944 67.4951 491.25C57.7777 498.456 72.3647 512.401 81.2377 509.785C90.1108 507.17 97.396 504.583 105.292 501.594C107.219 502.064 109.257 501.774 110.978 500.785L117.788 496.421C137.801 487.994 156.236 476.239 172.3 461.66C182.88 458.27 193.401 454.657 203.911 450.413C210.04 447.977 208.037 439.309 203.517 434.648C220.933 416.138 236.787 396.231 250.917 375.132C252.125 372.941 252.656 370.446 252.443 367.96C252.229 365.474 251.282 363.108 249.72 361.16C248.157 359.212 246.05 357.769 243.662 357.013C241.274 356.257 238.713 356.221 236.301 356.91Z" fill="white"/>
<path d="M131.28 228.179C77.136 218.545 21.7324 217.97 -32.651 226.479C-44.3425 228.104 -37.1597 244.191 -30.2774 246.949C-28.3223 247.695 -26.3127 248.347 -24.3577 249.092L-49.3731 250.717C-62.7417 251.443 -53.6587 269.56 -44.9947 271.523C-23.1929 276.501 -1.00219 279.633 21.3402 280.886C14.257 283.215 8.28217 288.066 4.56529 294.506C3.42357 296.796 3.85411 304.06 8.18645 302.661C49.9566 289.723 94.812 284.131 137.366 273.523C148.234 270.61 139.553 251.909 130.119 253.326C118.447 255.025 106.994 256.348 95.2581 257.509C108.825 255.144 122.368 252.388 135.846 249.094C149.325 245.799 141.1 229.991 131.28 228.179Z" fill="white"/>
<path d="M173.248 76.6354C166.287 71.2006 159.107 66.1417 151.798 61.1967C151.139 60.0756 150.303 59.0674 149.323 58.2101C140.441 50.6712 131.158 43.7162 121.745 36.8751C121.358 35.9116 120.72 35.0691 119.895 34.4351C116.759 32.2601 113.062 30.0766 109.346 27.8191C103.958 23.7879 98.5493 19.6826 93.2502 15.3894C92.0643 14.2924 90.6719 13.4397 89.1529 12.88C87.6339 12.3202 86.0181 12.0646 84.3979 12.1276C74.2445 6.42513 63.6308 1.57226 52.6662 -2.38101C39.9633 -6.91216 38.755 7.93242 45.0858 14.8851C52.9115 23.5596 61.4827 31.5377 70.7025 38.7291C70.0272 39.6593 69.4951 40.6845 69.1239 41.7705C66.5323 49.3683 76.2325 56.6877 80.8766 60.9184C83.9478 63.7455 87.055 59.2629 87.3285 55.2222C93.1986 57.7754 98.9594 60.5166 104.775 63.1639C116.953 74.1915 130.257 83.9235 144.469 92.2023C145.457 92.94 146.585 93.4707 147.786 93.7625C148.987 94.0542 150.235 94.101 151.456 93.8999C152.676 93.6989 153.844 93.2541 154.889 92.5925C155.934 91.9309 156.834 91.0661 157.535 90.0501L164 93.6341C175.884 100.765 183.613 84.6495 173.248 76.6354Z" fill="white"/>
<path d="M339.063 -87.9293C317.836 -134.691 275.314 -161.781 226.685 -175.333C225.53 -175.637 224.32 -175.67 223.149 -175.428C221.978 -175.186 220.879 -174.677 219.939 -173.94C218.998 -173.203 218.243 -172.259 217.731 -171.182C217.22 -170.106 216.967 -168.926 216.992 -167.737L212.472 -168.827C207.639 -171.975 203.803 -173.487 202.433 -171.453C205.555 -176.178 202.009 -187.924 195.23 -182.854L194.634 -182.694C193.541 -181.595 192.761 -180.225 192.377 -178.727C191.993 -177.229 192.018 -175.657 192.45 -174.174C194.554 -167.15 198.246 -160.702 203.244 -155.325C223.513 -127.192 250.45 -104.486 281.673 -89.2151L283.028 -88.6259C298.659 -81.3278 315.537 -77.0216 332.783 -75.9314C339.07 -75.3943 341.384 -82.8383 339.063 -87.9293ZM305.598 -99.6726C301.587 -108.119 296.617 -116.079 290.785 -123.396C299.908 -116.148 307.9 -107.594 314.501 -98.0112C311.211 -98.0818 308.526 -98.8701 305.598 -99.6726Z" fill="white"/>
</g>
</svg>
