<svg width="178" height="163" viewBox="0 0 178 163" fill="none" xmlns="http://www.w3.org/2000/svg">
<g clip-path="url(#clip0_1291_11802)">
<path d="M124.42 67.9482C112.796 60.8544 98.3279 54.1115 90.9047 42.1976C90.9571 42.1407 91.0051 42.0799 91.0482 42.0157C98.9114 29.7314 105.292 16.5659 110.056 2.79233C110.15 2.44806 110.142 2.08439 110.035 1.74416C109.928 1.40392 109.725 1.1013 109.451 0.871932C109.177 0.642567 108.842 0.496018 108.487 0.449548C108.132 0.403078 107.771 0.458623 107.447 0.60964C91.8179 6.78093 79.5808 17.9802 66.7174 28.3739C56.972 20.2149 47.2658 11.8219 39.1381 1.98681C38.5249 1.19429 36.8289 1.29823 36.9985 2.59744C38.7989 16.1223 45.9351 28.1011 48.8965 41.3661C48.9399 41.5804 49.0333 41.7815 49.1693 41.9531C49.3053 42.1246 49.48 42.2618 49.6793 42.3535C42.4518 43.3929 35.3286 47.3945 28.9361 50.7075C22.4606 53.8643 16.4476 57.8857 11.063 62.6603C10.9417 62.83 10.859 63.0241 10.8208 63.2289C10.7827 63.4338 10.7899 63.6444 10.8421 63.8462C10.8943 64.0479 10.9902 64.2359 11.123 64.3968C11.2558 64.5578 11.4224 64.6879 11.611 64.7781C24.4483 69.6112 41.3951 73.8726 55.1456 71.6769C55.3013 71.6583 55.4495 71.6002 55.5761 71.508C60.9249 84.786 72.6533 94.1794 77.9761 107.457C78.1625 107.835 78.4674 108.142 78.8446 108.332C79.2218 108.521 79.6508 108.584 80.0667 108.509C80.4825 108.434 80.8625 108.226 81.1491 107.917C81.4357 107.607 81.6134 107.214 81.6551 106.795C81.5377 93.4648 79.4764 80.1608 81.4594 66.8958C95.3795 68.9226 109.274 71.1572 123.389 70.6245C124.746 70.5726 125.881 68.8576 124.42 67.9482ZM79.8547 63.3619C79.3787 63.2933 78.8945 63.4104 78.5032 63.6888C78.1118 63.9672 77.8435 64.3854 77.7543 64.856C75.7713 76.1072 76.9716 87.3975 77.5325 98.7396C71.6096 89.2164 63.3385 81.1872 59.0985 70.6635C58.9406 70.3663 58.7146 70.1103 58.439 69.9161C58.1633 69.7219 57.8457 69.5951 57.5117 69.5457C57.1777 69.4964 56.8367 69.526 56.5163 69.6322C56.196 69.7383 55.9051 69.9181 55.6674 70.1568C55.5612 69.8781 55.3858 69.6307 55.1577 69.4376C54.9296 69.2445 54.6562 69.112 54.3628 69.0525C40.6514 68.221 27.3967 67.6234 14.1549 63.245C24.5918 53.9816 38.1727 48.9536 50.6838 43.0941C50.9708 42.9642 51.2578 42.1587 50.6838 42.2106C50.7879 42.0858 50.8619 41.9391 50.9004 41.7815C50.9388 41.6238 50.9406 41.4596 50.9056 41.3012C49.4053 29.3354 42.9345 18.7727 40.4688 7.05376C48.1007 15.9404 56.8937 23.7747 65.6998 31.4921C66.0488 31.8139 66.4977 32.0074 66.9722 32.0405C67.4468 32.0736 67.9184 31.9442 68.309 31.674C80.0765 22.2676 91.3222 11.7699 105.099 5.31281C100.438 17.6669 94.5098 29.5092 87.4084 40.6516C86.5995 41.9508 88.1651 42.9382 89.5349 42.8343C94.8707 53.7997 107.408 60.9194 117.858 67.5194C105.125 67.3245 92.4963 65.1938 79.8547 63.3619Z" fill="#F36A4F"/>
<path d="M177.7 43.2131C173.917 37.4056 158.927 31.1044 160.531 23.478C161.366 19.5803 165.606 15.6826 167.915 12.4996C170.405 9.43445 171.962 5.72443 172.403 1.80699C172.391 1.46283 172.285 1.12861 172.094 0.84111C171.904 0.553615 171.638 0.324007 171.325 0.177577C171.012 0.0311474 170.664 -0.0264241 170.32 0.0112039C169.977 0.0488319 169.65 0.180199 169.377 0.390838C162.358 6.17236 156.331 13.2661 148.829 18.463C148.677 18.5665 148.552 18.7045 148.464 18.8657C142.358 13.5909 136.592 8.18615 128.334 6.49717C127.029 6.21134 125.425 7.51056 125.972 8.90072C128.376 15.2565 131.3 21.4051 134.713 27.2847C127.473 30.7276 118.549 29.1296 110.774 30.1819C108.569 30.4807 108.165 33.443 110.617 33.6768C117.714 34.3654 125.046 34.2355 131.882 36.4701C140.806 39.3804 137.792 54.0226 141.602 61.0124C141.825 61.3721 142.147 61.6615 142.528 61.8475C142.91 62.0334 143.337 62.1083 143.759 62.0635C144.181 62.0187 144.583 61.8561 144.917 61.5943C145.25 61.3325 145.503 60.9822 145.646 60.5836C147.538 53.9057 149.847 47.3836 152.365 40.9135C160.362 43.1351 167.889 45.9674 176.382 45.6816C176.685 45.7202 176.992 45.6662 177.262 45.5268C177.533 45.3873 177.755 45.169 177.898 44.901C178.041 44.6329 178.099 44.3278 178.063 44.0263C178.028 43.7247 177.901 43.4411 177.7 43.2131ZM149.129 38.0162C147.094 43.1221 145.215 48.28 143.519 53.5029C142.215 46.656 142.802 39.2115 136.54 34.6253C134.902 33.4875 133.079 32.6393 131.152 32.1178C133.809 31.6017 136.359 30.6396 138.692 29.2725C139.319 28.8957 139.893 27.9733 139.436 27.1937C136.301 22.1089 133.616 16.7619 131.413 11.2133C137.936 13.9027 142.919 19.3984 148.372 23.8417C150.134 25.2839 153.147 22.7894 151.099 21.1004L150.799 20.8535C156.787 16.9559 161.862 11.759 167.159 6.91292C163.454 13.409 155.939 18.6059 156.852 26.1154C157.7 33.0272 167.289 37.3276 172.508 42.4206C165.398 41.8229 158.835 39.0166 151.947 37.0678C151.021 36.743 149.547 36.9119 149.129 37.9513V38.0162Z" fill="#AB9591"/>
<path d="M81.7986 117.971C70.8529 115.009 59.6203 114.073 48.4529 112.839C47.905 105.407 47.6701 97.9628 47.0309 90.5442C46.8743 88.7903 44.0825 88.7253 43.3258 90.0245C39.9915 96.0687 37.0754 102.332 34.598 108.772C30.9973 107.707 23.6785 104.875 22.6348 104.563C16.198 102.585 9.60311 101.16 2.92227 100.301C1.61767 100.158 -0.991536 101.756 0.417435 103.303C6.21946 109.518 12.7451 115.022 19.856 119.699C14.6376 127.39 9.24959 134.731 2.1656 140.85C0.143468 142.591 2.85704 144.657 4.77481 143.656C14.3245 138.641 25.4267 138.316 33.8805 131.483C41.4373 140.329 47.078 150.635 50.4489 161.754C51.1534 164.184 55.289 162.703 54.728 160.286C53.306 154.297 43.9129 132.002 51.1795 128.494C60.7292 123.895 72.4315 125.766 82.1117 121.349C82.4687 121.208 82.7704 120.956 82.9714 120.631C83.1725 120.305 83.2621 119.923 83.2268 119.543C83.1916 119.162 83.0333 118.803 82.7757 118.52C82.5182 118.236 82.1753 118.044 81.7986 117.971ZM45.8568 127.845C43.8085 130.872 44.1216 135.068 44.7739 138.797C42.2083 134.808 39.3337 131.025 36.1766 127.481C35.9632 127.237 35.7024 127.039 35.41 126.898C35.1175 126.758 34.7994 126.678 34.475 126.663C34.1506 126.649 33.8265 126.7 33.5225 126.814C33.2185 126.927 32.9409 127.101 32.7064 127.325C26.927 133.029 19.1776 134.692 11.6631 136.991C16.3897 131.626 20.711 125.92 24.5917 119.92C24.8412 119.574 24.949 119.146 24.8933 118.724C24.8375 118.301 24.6224 117.916 24.2917 117.646C18.5113 113.955 13.0987 109.722 8.12764 105.005C15.2266 106.327 22.207 108.217 29.0013 110.656C31.4017 111.501 36.9985 114.424 38.9554 111.228C39.4772 110.383 38.7597 109.305 37.8856 108.967C39.699 104.94 41.4602 100.912 43.5346 97.0273C43.8085 102.848 43.9651 108.72 44.3956 114.476C44.4489 114.881 44.6375 115.256 44.9309 115.541C45.2244 115.826 45.6056 116.005 46.0133 116.048C55.4978 117.152 65.0996 117.841 74.4145 119.946C69.457 121.089 64.1342 121.479 59.3072 122.362C55.0672 123.181 48.5051 123.934 45.8568 127.845Z" fill="#F9B5A7"/>
</g>
<defs>
<clipPath id="clip0_1291_11802">
<rect width="178" height="163" fill="white"/>
</clipPath>
</defs>
</svg>
