<svg width="728" height="831" viewBox="0 0 728 831" fill="none" xmlns="http://www.w3.org/2000/svg">
<path opacity="0.1" d="M522.371 450.599C523.668 446.063 524.893 441.527 526.046 436.99C535.774 438.178 545.501 439.042 555.337 439.258C579.148 439.919 602.9 436.559 625.592 429.322C662.192 417.541 692.848 392.129 711.194 358.36C738.432 308.461 736.594 222.378 675.419 197.753C642.993 184.468 605.92 197.753 577.17 214.818C527.667 244.304 488.001 290.423 453.63 336.543C477.192 284.051 490.378 219.03 501.619 167.078C512.211 117.827 523.993 43.1933 473.95 10.7909C417.205 -25.9318 288.477 38.1169 272.481 97.1972C249.999 181.227 332.035 246.464 352.247 325.85C345.446 325.367 338.62 325.367 331.819 325.85C306.095 285.131 273.778 247.22 226.977 231.019C208.197 225.009 188.409 222.783 168.761 224.47C149.113 226.158 129.996 231.724 112.516 240.848C52.3135 270.55 -6.26814 342.483 0.541163 412.904C13.0789 541.866 203.415 483.434 274.643 457.836C276.15 457.237 277.483 456.271 278.521 455.026C279.559 453.781 280.269 452.296 280.587 450.707C281.776 452.759 282.857 454.811 284.154 456.756C283.332 456.61 282.49 456.61 281.668 456.756C237.029 475.225 194.552 511.948 160.614 545.862C136.471 569.114 117.217 596.948 103.978 627.732C87.2246 668.991 90.5752 720.403 127.54 749.673C164.505 778.943 216.818 771.275 256.16 751.185C322.74 716.731 363.272 644.797 388.455 577.184C391.914 567.788 394.832 558.175 397.75 548.67C398.831 547.158 400.128 545.862 401.209 544.35L404.776 545.106L411.045 545.754C410.22 601.339 420.891 656.494 442.389 707.766C465.087 765.01 521.507 844.828 593.707 828.951C689.578 807.997 742.971 691.241 722.759 602.134C712.253 557.505 686.482 517.941 649.897 490.275C613.311 462.608 568.207 448.576 522.371 450.599ZM683.525 562.819C635.211 524.153 570.685 499.203 515.022 480.085C513.779 479.783 512.482 479.783 511.239 480.085C513.617 475.333 515.742 470.401 517.616 465.288C517.616 463.992 518.48 462.696 518.913 461.292C552.56 463.502 585.154 473.911 613.848 491.608C642.542 509.306 666.464 533.755 683.525 562.819ZM588.411 232.639C603.947 223.675 621.167 218.013 638.994 216.006C652.428 214.602 665.957 217.556 677.58 224.431C678.472 224.867 679.307 225.411 680.066 226.051L683.741 228.859C686.316 230.95 688.736 233.224 690.983 235.663L692.388 237.392L695.198 241.172L697.792 245.06L699.737 248.516C701.147 251.219 702.41 253.995 703.52 256.833C704.169 258.345 704.709 259.857 705.142 261.477L705.898 263.853V264.934C706.763 268.174 707.411 271.522 707.952 274.87C708.492 278.219 707.952 278.219 708.6 279.947C708.725 281.168 708.725 282.398 708.6 283.619C708.6 287.183 708.6 290.639 708.6 294.42C708.6 296.256 708.6 297.984 708.6 299.82C708.723 301.113 708.723 302.415 708.6 303.708C708.6 307.381 707.411 310.945 706.655 314.509C706.655 316.345 705.79 318.073 705.358 319.91L704.601 322.61V323.69C699.717 338.895 691.648 352.887 680.931 364.733C660.735 387.697 633.405 403.216 603.326 408.8C583.909 412.663 564.069 413.97 544.312 412.688C539.881 412.688 535.45 411.932 531.018 411.5C532.171 404.3 533.252 397.351 534.261 390.655C534.245 387.083 533.224 383.587 531.312 380.569C529.4 377.551 526.676 375.132 523.452 373.59C529.721 371.861 536.098 370.349 542.367 368.945C566.254 363.545 596.409 363.113 616.188 348.1C619.323 345.831 623.538 337.299 617.269 336.003C612.221 334.985 607.067 334.586 601.921 334.815C609.52 327.454 615.614 318.687 619.863 309.001C622.781 302.196 613.594 302.736 610.892 307.057C599.793 321.833 584.835 333.269 567.659 340.107L553.283 343.455C536.043 346.649 519.169 351.57 502.916 358.144C501.065 359.209 499.649 360.892 498.917 362.897C488.109 357.928 478.165 352.096 467.897 347.02C501.403 302.412 540.421 259.209 588.411 232.639ZM310.851 190.192C275.723 127.655 293.449 80.888 359.056 50.6458C390.076 36.2808 443.146 14.5712 474.274 40.7091C514.589 75.0556 478.381 175.503 466.924 215.682C456.872 250.785 436.877 290.531 428.554 328.982C418.089 325.449 407.168 323.448 396.129 323.042C390.965 322.632 385.826 324.088 381.646 327.146C383.817 293.69 382.948 260.106 379.052 226.807C378.187 221.19 370.513 224.971 369.865 228.967C366.782 254.26 365.77 279.763 366.838 305.221C356.678 264.177 331.387 226.807 310.851 190.192ZM242.109 296.58C229.139 284.267 221.357 310.189 231.301 319.802C244.363 332.059 258.672 342.919 273.994 352.204C272.199 354.266 270.572 356.47 269.13 358.792C267.567 361.523 266.23 364.377 265.131 367.325C232.774 361.532 199.735 360.586 167.099 364.517C159.533 365.489 157.047 374.562 158.776 381.69C142.945 380.665 127.07 380.484 111.219 381.15C104.626 381.15 100.411 396.055 108.409 396.703C158.344 400.375 208.387 417.441 258.106 418.305C259.421 418.185 260.681 417.722 261.762 416.965C262.843 416.207 263.706 415.179 264.266 413.984C266.037 420.783 268.35 427.429 271.184 433.858C270.043 433.625 268.866 433.625 267.725 433.858C208.711 453.623 140.51 475.225 76.8486 462.804C46.585 456.972 24.4278 438.286 22.8065 409.988C18.9155 342.807 87.657 276.706 146.779 258.129C214.007 237.176 271.832 276.706 307.824 330.602C303.759 331.789 299.786 333.269 295.935 335.031C276.478 324.53 258.428 311.61 242.217 296.58H242.109ZM262.645 405.236C246.073 397.436 228.616 391.67 210.657 388.063C227.677 388.411 244.637 390.218 261.348 393.463C261.562 397.413 262.031 401.346 262.753 405.236H262.645ZM306.743 634.105C326.955 624.708 343.6 604.51 360.029 589.605C364.46 585.609 368.46 581.289 372.675 577.076C352.031 630.432 322.308 680.44 276.264 715.435C241.893 741.573 193.147 756.91 151.859 738.332C110.571 719.755 106.356 677.2 120.406 639.937C132.66 611.057 150.809 585.049 173.692 563.576C188.219 549.214 203.711 535.862 220.06 523.613C241.677 507.411 265.455 495.314 285.991 478.789C289.001 475.329 290.55 470.838 290.315 466.26L291.828 468.42C297.178 475.972 302.989 483.186 309.229 490.022C277.194 503.441 247.125 521.135 219.844 542.622C198.227 559.039 171.206 578.589 163.532 606.023C162.775 608.831 163.532 612.287 167.531 611.423C177.038 608.338 185.274 602.231 190.985 594.034C207.066 578.237 224.418 563.788 242.866 550.831C268.568 533.53 295.276 517.769 322.848 503.631C326.091 506.547 329.549 509.248 333.008 512.056C300.042 539.382 268.157 579.129 256.376 617.903C254.971 622.656 261.132 621.252 262.969 618.876C277.669 599.866 288.045 577.724 302.528 558.283C313.552 543.319 326.284 529.69 340.466 517.672C354.214 527.456 369.426 535.002 385.537 540.03C375.165 552.973 363.741 565.039 351.382 576.104C333.873 592.198 313.445 606.455 300.907 626.976C299.961 627.764 299.367 628.895 299.255 630.12C299.144 631.346 299.524 632.565 300.312 633.511C301.101 634.456 302.233 635.05 303.459 635.161C304.685 635.272 305.906 634.892 306.852 634.105H306.743ZM432.337 460.86C424.554 476.105 418.916 492.352 415.584 509.139C387.699 511.192 358.192 490.13 337.007 468.312C319.006 450.919 306.462 428.663 300.907 404.264C329.117 415.065 353.868 432.778 382.943 440.446C384.356 440.605 385.786 440.356 387.062 439.729C388.339 439.103 389.41 438.124 390.148 436.91C390.887 435.695 391.262 434.294 391.23 432.873C391.198 431.452 390.761 430.07 389.968 428.89C366.501 405.169 337.601 387.522 305.771 377.478C307.159 375.74 308.756 374.18 310.526 372.833C330.09 383.634 353.76 396.379 373.323 395.407C377.863 395.407 383.375 387.199 379.592 383.31C375.071 378.732 370.112 374.608 364.785 370.997C366.848 369.674 368.349 367.635 369 365.273C382.296 368.315 396.156 367.831 409.207 363.869C414.751 364.983 420.205 366.499 425.528 368.405C425.61 369.392 425.968 370.336 426.561 371.13C427.153 371.924 427.957 372.536 428.88 372.896C429.804 373.256 430.81 373.35 431.784 373.167C432.758 372.984 433.661 372.532 434.391 371.861L438.066 373.59C438.67 374.467 439.503 375.163 440.475 375.601C441.447 376.039 442.52 376.202 443.578 376.074C458.494 382.986 473.085 391.411 487.676 398.431C487.676 400.267 487.136 402.104 486.812 403.94L481.84 402.752C478.958 401.836 475.891 401.662 472.925 402.247C469.958 402.833 467.188 404.158 464.871 406.1C462.06 407.72 458.71 412.796 461.196 415.929C466.591 422.277 473.791 426.835 481.84 428.998C477.26 453.188 466.032 475.627 449.415 493.802C450.712 488.186 452.117 483.002 453.63 476.845C457.845 462.588 441.2 443.579 432.337 460.86ZM568.848 799.897C501.403 799.249 465.627 705.822 451.252 653.654C442.76 622.283 439.294 589.766 440.984 557.311C448.766 601.918 468.87 649.55 508.861 666.831C512.32 668.235 518.48 663.699 515.67 660.135C498.917 638.533 480.759 621.036 468.221 596.518C459.504 578.769 453.875 559.667 451.576 540.03C458.021 537.417 464.149 534.084 469.842 530.093C470.16 532.428 471.177 534.612 472.761 536.357C494.378 557.959 515.346 578.589 538.152 598.03C553.716 611.315 580.521 638.965 603.002 636.157C607.974 635.509 612.946 627.408 609.055 623.088C592.302 604.402 567.226 592.306 547.663 576.212C526.046 558.067 505.294 537.762 485.082 517.564C492.06 510.497 498.223 502.672 503.457 494.234C503.523 496.049 504.107 497.807 505.142 499.3C506.176 500.793 507.617 501.959 509.293 502.659C539.79 513.119 569.638 525.382 598.679 539.382C634.347 556.555 665.367 582.585 700.71 599.65C702.729 605.676 704.425 611.805 705.79 618.011C721.787 694.265 650.667 800.653 568.848 799.897Z" fill="#FF8870"/>
</svg>
