<svg width="142" height="131" viewBox="0 0 142 131" fill="none" xmlns="http://www.w3.org/2000/svg">
<path d="M70.7394 38.501C68.31 35.0991 65.9402 31.8595 62.542 29.3283C58.883 26.6126 53.9869 27.3727 49.9478 25.8009C56.461 24.9892 70.1433 22.8491 68.5783 18.4214C66.991 13.7944 58.9948 16.82 52.7275 20.1187C55.7084 14.6062 56.4536 7.66205 56.4536 1.66988C56.4536 1.56657 56.4536 1.45587 56.4536 1.35256C56.4536 0.253013 54.1509 -0.647288 53.7261 0.614609C51.2445 7.74322 48.055 14.68 45.2977 21.8233C42.5404 14.2003 37.7486 5.97952 30.5125 2.5997C29.7673 2.26762 29.0221 2.5997 29.1637 3.52214C30.6988 11.4846 35.8334 18.7166 41.8398 24.2733L40.6624 24.4504C32.3607 19.425 26.2126 9.97922 15.8913 9.27078C15.0343 9.21175 14.0581 9.92018 14.4009 10.85C17.0837 17.5063 23.1647 21.3215 29.6555 24.3398C23.2631 23.6863 16.8171 23.7383 10.4363 24.4947C8.94588 24.6571 8.35716 26.4282 9.93703 27.0554C18.3729 30.4279 27.0771 29.3873 35.7961 28C36.9338 28.2509 38.0616 28.5436 39.1794 28.8782C33.404 34.3169 26.7194 39.4161 28.1502 48.1166C28.2614 48.5364 28.5295 48.8988 28.9003 49.1303C29.2711 49.3618 29.7168 49.4453 30.1474 49.3637C37.2344 48.3748 42.1752 41.8366 44.7835 34.9736C45.8491 42.117 48.1444 50.419 54.3968 49.9836C54.9035 49.9836 55.6339 49.6884 55.6264 49.0538C55.5519 44.2054 55.0377 38.7815 53.2715 34.0069C58.3079 36.8414 63.7286 38.9463 69.3682 40.2574C70.5308 40.5083 71.4772 39.5416 70.7394 38.501ZM65.8284 18.5764C64.7069 19.3294 63.5313 20.0003 62.311 20.5836C60.1436 21.2484 57.939 21.7881 55.7084 22.1997C54.8886 22.3694 54.0614 22.5096 53.2417 22.6646C57.3255 20.3696 61.916 18.4657 65.8284 18.569V18.5764ZM48.5021 21.7126C50.0671 17.9122 51.7065 14.1486 53.2491 10.3408C52.5561 14.5398 51.1402 18.5911 48.5021 21.7126ZM31.6751 5.52199C37.6368 9.21175 41.1393 16.4363 43.1961 23.1295C38.151 18.2221 33.5977 12.2004 31.6751 5.52199ZM18.4847 12.2816C25.3556 13.8239 30.6168 19.8456 36.4072 24.3988C29.5363 21.5282 22.1214 18.3697 18.4772 12.2816H18.4847ZM30.8553 46.4931C30.6169 39.2685 37.1971 34.6047 42.4584 29.7711C42.751 29.7517 43.0347 29.6632 43.2856 29.5128C41.7206 36.3536 37.5325 44.3825 30.8553 46.4931ZM51.483 37.6155C51.9416 39.5218 52.2653 41.4575 52.4518 43.4084C52.7722 46.1388 52.6679 48.4044 50.7303 44.8253C48.286 40.3312 47.6675 34.7301 47.0862 29.5423C47.66 30.0663 48.2487 30.5607 48.8598 31.0182C50.0452 33.0833 50.9284 35.3045 51.483 37.6155ZM50.1788 28.273C51.5783 28.7135 53.0112 29.0417 54.4639 29.2545C60.4256 30.2212 63.4065 32.7598 66.5439 36.9513C61.1112 35.2836 55.4774 32.8631 50.939 29.3726C50.7005 28.9938 50.4471 28.6273 50.1788 28.273Z" fill="#FF8870"/>
<g clip-path="url(#clip0_2013_19314)">
<path opacity="0.4" d="M120.13 89.2995C120.19 88.2995 119.68 87.2095 118.77 87.7195L118.31 87.9595C112.31 84.0295 102.21 80.9595 96.2 79.3795C96.92 78.7495 97.65 78.1295 98.36 77.4895C103.123 73.2048 107.476 68.4843 111.36 63.3895C112.87 69.0695 123.95 71.9895 128.58 71.3895C135.4 70.5595 137.41 58.5795 131.58 55.2495C127.48 52.9195 122.77 53.3695 118.23 53.8095L117.43 53.8795C118.686 51.5274 119.762 49.0838 120.65 46.5695C128.75 45.3895 136.56 35.3195 139.86 28.7895C142.23 24.1095 143.19 13.6995 137.29 10.5895C130.48 7.00946 125.29 19.0595 122.59 29.2595C119.07 33.8395 116.79 39.0695 120.09 41.9595C117.78 45.5595 115.95 49.4695 113.81 53.1795C113.63 53.4995 113.43 53.7995 113.24 54.1195C112.8 54.1195 112.37 54.1195 111.95 54.1195C111.57 47.3995 109.48 36.1195 104 31.0395C102.949 30.0238 101.685 29.2551 100.3 28.7895C92.13 26.1995 87.9 33.9295 91.04 40.6895C94.04 47.1595 103.38 56.9895 111.04 57.6895C107.245 63.1242 102.979 68.2139 98.29 72.8995C96.72 74.5095 95.08 76.0495 93.41 77.5495C92.3836 72.9246 90.8406 68.4297 88.81 64.1495C88.7 63.8695 88.6 63.5895 88.49 63.3095C88.4472 63.2145 88.3899 63.1267 88.32 63.0495L88 62.3995C85.92 57.8295 82.44 50.1195 76.63 49.5795C71.21 49.0695 69.95 58.3495 70.55 61.8595C71.44 67.0795 75.55 72.3995 80.55 75.7195C80.5289 76.0544 80.5524 76.3907 80.62 76.7195C80.644 76.8332 80.6951 76.9395 80.769 77.0292C80.843 77.119 80.9376 77.1894 81.0447 77.2346C81.1518 77.2798 81.2683 77.2984 81.3841 77.2888C81.5 77.2792 81.6118 77.2417 81.71 77.1795L82.41 76.8595L82.82 77.0695C82.77 77.7495 83.1 78.4495 83.82 78.1495C84.05 78.0495 84.26 77.9395 84.48 77.8395C86.1667 78.5652 87.967 78.9916 89.8 79.0995C90.37 79.0995 91.04 78.0195 90.27 77.8695C88.9624 77.6185 87.6922 77.2018 86.49 76.6295C87.2393 76.0706 87.8942 75.3954 88.43 74.6295C88.6621 74.3502 88.8759 74.0563 89.07 73.7495C89.29 74.2595 89.51 74.7495 89.75 75.2795C89.99 75.8095 90.25 75.8595 90.52 75.7795C90.72 76.7195 90.89 77.6395 91.01 78.5595C90.8525 78.7301 90.7413 78.9383 90.687 79.1641C90.6328 79.3899 90.6372 79.6259 90.7 79.8495C82.3302 86.8068 73.0305 92.5623 63.07 96.9495C61.07 97.8495 58.95 98.6595 56.83 99.4095L56.47 98.9995C58.95 90.8695 60.47 82.0895 57.32 75.7195C57.42 74.9395 57.06 73.9995 56.38 74.0895C54.19 70.8295 50.49 68.3895 44.66 67.2795C44.13 67.1795 43.74 67.6795 43.57 68.0995C39.25 78.2795 36.57 95.7395 49.72 100.469C49.7599 100.474 49.8001 100.474 49.84 100.469C49.5532 100.564 49.3055 100.75 49.1355 101C48.9655 101.249 48.8827 101.548 48.9 101.849C43.4744 103.297 37.9726 104.442 32.42 105.279C22.17 106.899 9.37002 107.629 1.00002 100.429C0.60002 100.079 -0.28998 100.719 0.13002 101.159C11.36 113.059 32.9 109.419 49.4 104.629C51.14 112.739 56.5 128.629 64.52 130.369C64.5999 130.512 64.7135 130.633 64.8508 130.721C64.9881 130.81 65.1451 130.863 65.3079 130.877C65.4707 130.891 65.6344 130.865 65.7847 130.801C65.935 130.736 66.0673 130.637 66.17 130.509C66.8744 130.488 67.5718 130.363 68.24 130.139C79.91 126.249 67.64 111.039 58.92 101.599L60.34 101.109C71.0335 97.254 81.0251 91.6772 89.92 84.5995C90.25 88.3295 95.26 93.0495 97.47 94.8295C103.98 100.079 114.76 104.769 121.54 97.6895C124.38 94.7195 123.24 91.8695 120.13 89.2995ZM128 57.1895C130.36 57.8895 132 59.3795 132 62.3295C132 62.8278 131.967 63.3256 131.9 63.8195C129.489 63.908 127.103 64.3493 124.82 65.1295C124.942 64.989 125.073 64.8554 125.21 64.7295C125.663 64.4091 126.094 64.0583 126.5 63.6795C126.653 63.5557 126.77 63.3935 126.84 63.2095C127.09 63.0695 127.32 62.9195 127.57 62.7995C128.29 62.4295 128.86 60.3495 127.57 60.5295L127.16 60.5895L127.71 60.3095C128.51 59.9195 128.85 57.6795 127.59 57.9795L126.49 58.2395L128 57.1895ZM123.35 67.4095C125.92 65.5395 128.74 65.4095 131.63 65.1095C130.49 68.7395 126.86 68.8495 123.03 67.5595C123.142 67.529 123.247 67.4781 123.34 67.4095H123.35ZM119.51 62.3295C119.37 62.9595 119.56 63.6595 120.27 63.6495C120.98 63.6395 121.8 63.5695 122.56 63.4895C121.85 63.9895 121.14 64.4895 120.44 65.0395C120.28 65.203 120.155 65.3971 120.073 65.6103C119.99 65.8234 119.952 66.0511 119.96 66.2795C117.961 65.2837 116.082 64.0624 114.36 62.6395C114.472 62.7181 114.597 62.7757 114.73 62.8095C115.376 62.9972 116.052 63.0541 116.72 62.9769C117.388 62.8996 118.034 62.6897 118.62 62.3595C118.697 62.4061 118.783 62.4363 118.873 62.4484C118.962 62.4604 119.053 62.454 119.14 62.4295L119.51 62.3295ZM122.37 40.6795C122.339 38.3704 122.55 36.0644 123 33.7995C122.84 34.7995 123.32 35.9795 124.3 35.5295L125.3 35.0895V35.1695C124.9 35.9495 125.3 37.1695 126.3 36.7895L125.7 37.9995C125.612 38.272 125.597 38.5625 125.655 38.8429C125.712 39.1232 125.842 39.3839 126.03 39.5995L125.92 39.6995C125.452 40.1388 124.885 40.459 124.267 40.633C123.649 40.8071 122.999 40.8299 122.37 40.6995V40.6795ZM132.71 28.9995L131.98 29.3195C132.018 29.0877 132.018 28.8513 131.98 28.6195C132.36 28.3795 132.75 28.1495 133.14 27.9295C133 28.2495 132.85 28.6095 132.71 28.9995ZM133.64 24.4495H133.32L133.45 24.1995L134.58 22.9995C134.453 23.5128 134.317 24.0261 134.17 24.5395C134.008 24.4502 133.825 24.4053 133.64 24.4095V24.4495ZM137.87 19.8895C137.275 22.6063 136.372 25.2466 135.18 27.7595L134.84 27.9295C135.84 25.1295 136.52 22.5195 136.96 20.6495C137.25 20.3495 137.57 20.0995 137.87 19.8495V19.8895ZM129 24.9995C129.029 25.1132 129.069 25.2237 129.12 25.3295L129.22 25.4795C128.759 26.2404 128.352 27.0323 128 27.8495L126.46 28.9995C126.217 29.2524 126.054 29.5714 125.992 29.9166C125.93 30.2617 125.971 30.6176 126.11 30.9395L123.41 32.9395C123.183 33.1309 123.03 33.3966 122.98 33.6895C123.12 32.9195 123.28 32.1395 123.46 31.3395C125.028 28.9983 126.89 26.8676 129 24.9995ZM134.29 12.9995C136.43 12.0595 137.69 14.4295 138.43 16.2095C137.897 16.5695 137.37 16.9395 136.85 17.3195C136.69 17.2539 136.51 17.2539 136.35 17.3195C136.35 16.4595 135.9 15.4495 134.92 15.7595C132.939 16.2801 130.992 16.9213 129.09 17.6795C130.369 15.6789 132.166 14.0617 134.29 12.9995ZM127.4 20.4795C127.61 21.0295 128.03 21.4095 128.64 21.2295C129.868 20.8576 131.126 20.5965 132.4 20.4495L132.17 20.7195C131.949 20.6762 131.72 20.7191 131.53 20.8395C129.013 22.4462 126.74 24.4062 124.78 26.6595C125.48 24.5271 126.357 22.4566 127.4 20.4695V20.4795ZM120.4 37.5395C120.521 36.5302 120.841 35.5548 121.34 34.6695C121.04 36.2138 120.82 37.7726 120.68 39.3395C120.433 38.7736 120.34 38.1528 120.41 37.5395H120.4ZM115.4 57.3695C117.09 57.1595 119.01 56.9095 120.92 56.7595C118.7 57.7595 116.53 58.8895 114.34 59.8995C113.34 60.3495 113.46 61.8995 114.23 62.5595C113.743 62.1488 113.285 61.7044 112.86 61.2295C113.8 59.9995 114.65 58.6795 115.45 57.3695H115.4ZM95.39 31.7195C96.4696 31.1288 97.7139 30.9108 98.93 31.0995C96.77 31.7595 95.16 32.3595 93.93 35.0195C93.68 35.5695 93.86 36.3395 94.53 36.4195C96.35 36.6395 98.17 35.8895 99.99 35.6695C99.2188 37.1584 98.1174 38.4514 96.77 39.4495C96.02 39.9295 95.89 41.4495 96.95 41.5595C98.36 41.7495 99.42 41.0695 100.66 40.7995C100.34 42.3995 99.1 43.9995 100.21 45.5895C100.83 46.4795 101.89 45.8995 102.84 45.2595L101.51 48.9995C96.14 44.5295 87.51 35.7095 95.39 31.7195ZM104.62 51.3895C104.45 51.2695 104.29 51.1795 104.12 51.0495L103.33 50.4595C104.17 50.0695 105.01 49.7195 105.87 49.4595C105.45 50.0795 105.05 50.7495 104.61 51.3895H104.62ZM103.74 48.0595L105.45 43.4195C105.64 42.8995 105.45 41.8995 104.68 41.9895C103.729 42.2136 102.846 42.6667 102.11 43.3095C101.38 43.8095 102.4 41.3095 102.39 41.3095C102.619 40.6482 102.684 39.9414 102.58 39.2495C102.578 39.0395 102.496 38.8381 102.351 38.6859C102.207 38.5337 102.01 38.4421 101.8 38.4295C101.208 38.4601 100.625 38.5815 100.07 38.7895C100.91 37.6095 101.63 36.3195 102.49 35.1195C102.9 34.5495 102.78 33.5295 101.98 33.4295C100.15 33.2195 98.32 33.9895 96.49 34.2195C97.68 32.9295 99.32 32.5295 100.94 31.9095C104.67 34.2795 107.18 41.0395 108.61 46.9795C108.534 46.8937 108.436 46.8299 108.327 46.7947C108.218 46.7595 108.102 46.7542 107.99 46.7795C106.53 47.0449 105.104 47.4743 103.74 48.0595ZM106.1 52.3195L106 52.2695C106.754 50.9076 107.613 49.6069 108.57 48.3795C108.699 48.2216 108.782 48.0314 108.81 47.8295C109.14 49.2995 109.41 50.6995 109.61 51.9495C108.42 51.9995 107.27 52.2995 106.09 52.3195H106.1ZM74 57.9995C73.54 58.3395 73.09 58.7095 72.64 59.0795C72.64 56.0295 73.76 52.8895 76.77 52.4995C77.94 52.3495 79.08 53.1695 80.08 54.2295L77.24 55.5795C76.2064 55.7608 75.2418 56.2207 74.45 56.9095C74.1667 57.2023 74.0058 57.5921 74 57.9995ZM76.43 67.6195L76.18 67.7895C75.2232 66.5253 74.3672 65.1878 73.62 63.7895C73.2711 63.0876 73.022 62.3403 72.88 61.5695C75.12 61.1395 77.5 61.4195 79.8 61.2895C78.9139 63.1098 77.8451 64.8353 76.61 66.4395C76.4864 66.607 76.4077 66.8034 76.3815 67.0099C76.3552 67.2165 76.3823 67.4263 76.46 67.6195H76.43ZM79.21 71.3095C78.57 70.6595 77.96 69.9995 77.38 69.3095C79.38 68.7895 81.38 68.3095 83.38 67.8195C83.38 67.8195 83.38 67.8695 83.38 67.8995C82 68.9995 80.66 70.1995 79.24 71.3095H79.21ZM79.21 67.2195L80.13 66.5495C81.13 65.9795 82.19 65.3695 83.18 64.7095C83.0256 65.2008 82.9913 65.7221 83.08 66.2295L79.21 67.2195ZM85.21 62.6195C85.21 62.2795 84.92 62.0395 84.44 62.2895C83.63 62.7095 82.84 63.1795 82.07 63.6695C81.3 64.1595 80.43 64.4895 79.59 64.8795C80.38 63.5095 81.07 62.1095 81.95 60.6995C82.3 60.1395 82.37 58.9195 81.37 59.0895C79.2534 59.2959 77.1259 59.3694 75 59.3095C76.0634 58.5084 77.1682 57.7641 78.31 57.0795C79.09 57.0795 79.89 57.1695 80.8 57.1895C81.0293 57.1427 81.2349 57.017 81.3811 56.8343C81.5273 56.6516 81.6047 56.4234 81.6 56.1895L82.43 57.3895C83.6082 59.1333 84.6801 60.9466 85.64 62.8195C85.5402 62.7321 85.4249 62.6643 85.3 62.6195H85.21ZM82.91 74.4795L82.53 74.1895C82.9 72.9995 83.62 71.6495 83.53 70.4995C83.5181 70.33 83.4668 70.1656 83.38 70.0195L84.05 69.4395C84.3476 69.3956 84.6165 69.2378 84.8 68.9995C84.8 68.9095 84.87 68.8295 84.91 68.7395C85.46 68.2895 86.03 67.8695 86.62 67.4695C86.82 67.7095 87.02 67.9395 87.21 68.1795C87.4262 69.0959 87.6899 70.0004 88 70.8895C87.9364 71.3559 87.8155 71.8127 87.64 72.2495L82.91 74.4795ZM56.13 77.3595C56.3365 77.8484 56.5135 78.3493 56.66 78.8595C55.13 79.7495 53.57 80.5995 52.02 81.4595C53.38 80.0795 54.75 78.7128 56.13 77.3595ZM51.34 72.1895C52.7056 72.861 53.8942 73.8441 54.81 75.0595C53.68 75.8195 52.56 76.5795 51.47 77.3795C51.3503 77.304 51.2116 77.2639 51.07 77.2639C50.9285 77.2639 50.7898 77.304 50.67 77.3795C48.849 78.3529 46.9529 79.1789 45 79.8495C46.1441 78.4326 47.3625 77.0773 48.65 75.7895C49.21 75.2595 49.15 73.7895 48.17 73.7895C47.0716 73.7792 45.9783 73.9411 44.93 74.2695C45.47 74.1495 45.11 72.9695 44.68 72.9195C45.39 72.9895 46.15 71.5295 45.29 71.3195L44.94 71.2295C44.822 71.199 44.6981 71.199 44.58 71.2295C45.95 68.9995 49.16 71.0995 51.34 72.1895ZM42.89 76.7595C42.9673 76.8548 43.0738 76.922 43.193 76.9509C43.3122 76.9798 43.4377 76.9688 43.55 76.9195C44.16 76.7295 44.72 76.5795 45.29 76.4495C44.29 77.5495 43.36 78.6795 42.37 79.7795C42.4897 78.7643 42.6632 77.7562 42.89 76.7595ZM50.56 98.4195C43.85 95.8595 42.03 89.8495 42.11 83.4695C43.48 82.9595 44.83 82.4695 46.11 82.0095C46.0645 82.2564 46.0809 82.5108 46.1576 82.7498C46.2344 82.9889 46.3692 83.2052 46.55 83.3795C45.66 84.2495 44.78 85.1295 43.88 85.9795C42.98 86.8295 43.41 89.3095 44.94 88.4295L45.4 88.1695C45.09 89.1695 45.56 90.5195 46.72 90.1695C47.26 89.9995 47.78 89.7995 48.29 89.5995C47.84 90.2595 47.95 92.2795 49.18 92.0495C49.9491 91.8955 50.6952 91.6435 51.4 91.2995C51.2334 92.1395 51.0967 92.9795 50.99 93.8195C49.46 93.4695 47.87 94.6995 49.25 96.2795C49.69 96.7795 50.17 97.2795 50.66 97.8095C50.66 98.0295 50.66 98.2395 50.66 98.4595C50.6281 98.4428 50.5946 98.4294 50.56 98.4195ZM52.76 95.1395C53.1349 93.206 53.6224 91.2961 54.22 89.4195C54.48 88.5595 54.07 87.2195 53.16 87.2995L53.39 86.9295C53.5391 86.5736 53.6006 86.1871 53.5693 85.8025C53.538 85.418 53.4147 85.0465 53.21 84.7195C54.51 83.6495 55.83 82.6195 57.21 81.6595C57.3699 83.1407 57.4 84.633 57.3 86.1195C57.0291 89.9804 56.2421 93.7876 54.96 97.4395C54.05 96.5095 53.3 95.7295 52.75 95.1395H52.76ZM64.42 124.999C64.65 124.079 64.88 123.159 65.04 122.429C65.2022 122.613 65.3525 122.807 65.49 123.009C65.5667 123.144 65.6685 123.263 65.79 123.359V123.429C65.9059 123.618 66.051 123.787 66.22 123.929C65.65 124.309 65 124.659 64.42 124.999ZM69.13 122.789C69.33 124.729 68.65 125.889 67.61 126.449C67.74 126.219 67.87 125.989 67.98 125.759C68.0641 125.499 68.0958 125.224 68.0735 124.951C68.0512 124.679 67.9753 124.413 67.85 124.169C68.2199 123.99 68.5036 123.672 68.6386 123.284C68.7736 122.895 68.749 122.469 68.57 122.099C68.29 121.339 67.98 120.599 67.64 119.859C67.7855 119.568 67.8545 119.244 67.8405 118.919C67.8266 118.594 67.73 118.277 67.56 117.999C67.35 117.689 67.13 117.389 66.92 117.089C66.79 116.469 66.64 115.869 66.46 115.269C67.8902 117.565 68.8015 120.145 69.13 122.829V122.789ZM62 125.329C61.5416 124.915 61.1106 124.47 60.71 123.999C61.3 123.859 61.89 123.699 62.48 123.509C62.3 124.139 62.14 124.709 62 125.329ZM61.8 119.329C62.16 119.689 62.53 120.049 62.93 120.389C62.26 120.589 61.59 120.789 60.93 120.949L61.8 119.329ZM59.45 112.329C60.0757 113.772 60.7835 115.178 61.57 116.539C61.4452 116.48 61.3084 116.449 61.17 116.449C58.1 116.479 58.31 114.549 59.42 112.319L59.45 112.329ZM56.25 116.199C54.8511 113.386 53.6483 110.479 52.65 107.499C55.65 107.499 54.95 106.979 54.8 109.209C54.7779 109.401 54.801 109.595 54.8677 109.776C54.9344 109.957 55.0426 110.12 55.1837 110.251C55.3248 110.382 55.4949 110.479 55.6801 110.532C55.8653 110.586 56.0606 110.595 56.25 110.559L58.09 110.209C57.3299 112.16 56.7083 114.162 56.23 116.199H56.25ZM59.25 106.309C59.074 106.529 58.96 106.791 58.92 107.069L58 107.199C58.1361 106.736 58.1361 106.243 58 105.779C57.9504 105.514 57.8148 105.272 57.6142 105.092C57.4136 104.911 57.1591 104.801 56.89 104.779C56.1157 104.778 55.3523 104.596 54.66 104.249C54.7031 104.187 54.7399 104.12 54.77 104.049L55.18 102.859L55.51 102.749C56.77 103.879 58 105.089 59.19 106.309H59.25ZM109.25 86.4795C111.262 87.3335 113.207 88.3363 115.07 89.4795C113.74 89.9895 112.39 90.3995 111.02 90.7795C111.02 90.0595 110.76 89.3695 109.9 89.5595L108.82 89.7595C109.028 89.6097 109.193 89.4069 109.297 89.1721C109.401 88.9374 109.44 88.6791 109.41 88.4242C109.38 88.1692 109.283 87.9268 109.129 87.722C108.974 87.5173 108.767 87.3576 108.53 87.2595C108.849 87.0975 109.093 86.8178 109.21 86.4795H109.25ZM95 86.5695C95.33 86.5695 95.66 86.5695 96 86.5695C95.77 86.8295 95.53 87.0795 95.31 87.3595C95.1811 87.5218 95.0797 87.7042 95.01 87.8995C94.1759 86.6144 93.7666 85.0997 93.84 83.5695C93.9271 83.3495 93.9745 83.1159 93.98 82.8795C93.98 82.8295 93.98 82.7795 93.98 82.7195C93.98 82.6595 93.98 82.5095 94.03 82.3995C94.0408 82.2654 94.0307 82.1304 94 81.9995C95.49 82.2895 97 82.6295 98.54 82.9995C97.33 83.3995 96.11 83.7995 94.92 84.2695C94 84.6395 93.72 86.5695 95 86.5695ZM96.23 89.5695C97.62 90.1595 98.98 90.7995 100.34 91.4495C100.174 91.6194 100.047 91.8242 99.9692 92.049C99.8914 92.2738 99.8643 92.513 99.89 92.7495C98.5373 91.8562 97.2982 90.8018 96.2 89.6095L96.23 89.5695ZM100.88 88.1095C100.72 88.1985 100.582 88.3233 100.478 88.4742C100.374 88.6251 100.306 88.798 100.28 88.9795C99.3334 88.5195 98.38 88.0761 97.42 87.6495C97.75 87.3095 98.08 86.9795 98.42 86.6495C99.98 86.7395 101.54 86.8695 103.1 86.9895L100.88 88.1095ZM101.04 84.4295L101.27 84.2495C101.416 84.1215 101.529 83.9603 101.6 83.7795C102.54 84.0495 103.47 84.3295 104.41 84.6395L101.04 84.4295ZM113.65 97.7595C111.01 98.0895 108.2 96.9395 105.84 95.9695C104.371 95.3582 102.947 94.6431 101.58 93.8295C102.52 93.6295 103.46 93.4495 104.4 93.2795L104.69 93.3995C104.63 94.1695 105 94.9895 105.8 94.7695C108.06 94.1295 110.38 93.6195 112.67 92.9995C112.11 93.4895 111.55 93.9995 110.96 94.4295C110.15 95.0695 110.49 97.4295 111.79 97.1495C112.05 97.0895 112.29 96.9995 112.54 96.9195C112.755 97.2204 113.049 97.4557 113.39 97.5995C114.07 97.9295 114.63 97.3595 114.82 96.6995C115.47 96.1927 116.182 95.7725 116.94 95.4495C117.139 95.2822 117.302 95.0749 117.416 94.841C117.53 94.6071 117.594 94.3518 117.604 94.0917C117.613 93.8315 117.568 93.5723 117.471 93.3308C117.374 93.0892 117.227 92.8707 117.04 92.6895L118.21 91.6295C121.81 94.6695 116.18 97.4695 113.61 97.7895L113.65 97.7595Z" fill="#734F48"/>
</g>
<defs>
<clipPath id="clip0_2013_19314">
<rect width="141.67" height="120.89" fill="white" transform="translate(0 10)"/>
</clipPath>
</defs>
</svg>
