<svg width="682" height="675" viewBox="0 0 682 675" fill="none" xmlns="http://www.w3.org/2000/svg">
<path opacity="0.1" d="M633.227 144.857C626.488 88.3177 592.475 31.4579 516.962 21.4113C420.699 8.37202 345.827 82.1187 301.546 146.994C288.711 98.2575 265.501 44.3903 216.835 17.6705C141.963 -23.1574 49.0158 11.4715 14.6819 73.4615C-25.6417 146.353 26.2335 244.468 60.6744 311.695C119.219 425.082 169.895 542.355 212.342 662.687C217.37 677.009 250.848 679.681 259.191 666.214C372.674 485.16 660.18 370.693 633.227 144.857ZM573.65 248.53C552.259 327.834 467.975 394.099 401.553 451.6C344.437 501.085 288.711 550.25 244.644 606.896C217.216 530.05 184.258 455.288 146.028 383.198C112.122 321.528 74.0443 261.783 49.7645 196.8C23.6665 124.55 54.1498 -18.5616 196.085 29.7479C252.238 48.8793 279.299 110.014 292.348 160.247C286.572 169.332 281.652 178.096 276.732 186.219C263.79 209.519 312.67 220.741 324.008 200.434C353.849 146.994 466.905 -5.52228 552.045 79.3399C595.684 122.412 587.127 198.938 573.65 248.423V248.53Z" fill="#0D0D0D"/>
<path opacity="0.1" d="M753.087 299.467C749.617 270.402 732.101 241.172 693.215 236.007C643.643 229.304 605.088 267.215 582.285 300.566C575.675 275.512 563.723 247.82 538.661 234.084C500.106 213.095 452.241 230.897 434.561 262.765C413.796 300.236 440.509 350.675 458.245 385.235C488.393 443.523 514.489 503.811 536.348 565.67C538.937 573.033 556.177 574.406 560.473 567.483C618.913 474.408 766.967 415.564 753.087 299.467ZM722.407 352.763C711.391 393.531 667.989 427.596 633.784 457.156C604.371 482.595 575.675 507.869 552.982 536.989C538.858 497.485 521.886 459.052 502.199 421.992C484.738 390.289 465.13 359.576 452.627 326.17C439.187 289.028 454.885 215.458 527.976 240.293C556.893 250.128 570.828 281.555 577.548 307.379C574.573 312.049 572.04 316.555 569.506 320.73C562.841 332.708 588.013 338.477 593.851 328.038C609.219 300.566 667.438 222.161 711.281 265.787C733.754 287.929 729.347 327.269 722.407 352.708V352.763Z" fill="#FEF7F6"/>
</svg>
