<svg width="1484" height="608" viewBox="0 0 1484 608" fill="none" xmlns="http://www.w3.org/2000/svg">
<path opacity="0.2" d="M1483.95 349.056C1487.29 122.861 1316.82 -29.7473 1112.07 -114.622C825.437 -377.61 397.988 -238.381 236.284 73.5246C159.253 118.872 97.1058 185.709 57.449 265.853C39.6004 301.62 25.5941 339.181 15.6651 377.905C4.09911 413.222 -1.13482 450.307 0.205084 487.448C-5.64466 702.772 136.421 886.32 334.476 985.411C443.95 1138.85 612.339 1219.13 832.958 1137.6C916.383 1106.2 988.943 1051.31 1041.88 979.557C1285.06 856.634 1479.77 607.026 1483.95 349.056ZM957.057 672.25C909.227 736.385 841.949 783.319 765.268 806.044C711.591 791.202 662.47 763.177 622.367 724.513C693.053 704.079 758.501 668.623 814.242 620.567C869.983 572.511 914.706 512.986 945.357 446.056C978.915 471.943 1005.6 505.683 1023.08 544.31C1007.46 589.965 985.213 633.073 957.057 672.25ZM839.226 374.978C810.848 441.179 768.016 500.181 713.874 547.655C685.673 568.36 653.378 582.8 619.15 590.01C584.923 597.221 549.551 597.035 515.401 589.466C469.176 516.799 434.895 437.184 413.866 353.655C451.865 309.557 501.326 276.85 556.767 259.163C656.544 282.276 751.929 321.386 839.226 374.978ZM908.587 252.473C921.301 261.594 933.313 271.657 944.521 282.577C920.287 263.344 889.784 256.236 873.907 276.723C841.136 255.656 807.241 236.394 772.372 219.025C805.077 217.24 837.869 220.197 869.728 227.805C883.099 235.749 896.47 243.693 908.587 252.473ZM484.898 731.203C465.352 739.26 446.367 748.618 428.072 759.216C402.645 734.226 380.465 706.131 362.054 675.595C397.411 704.605 439.78 723.784 484.898 731.203ZM501.612 820.259C514.147 814.406 532.114 806.88 554.678 798.1C569.72 813.152 584.344 826.531 599.386 839.91L548.828 845.764C532.554 838.294 516.782 829.774 501.612 820.259ZM1181.85 425.569C1174.11 385.665 1160 347.266 1140.07 311.844C1160.52 325.354 1179.43 341.056 1196.48 358.672C1193.46 381.372 1188.99 403.856 1183.11 425.987L1181.85 425.569ZM160.237 416.788C159.292 514.71 177.019 611.914 212.467 703.19C219.571 735.404 228.358 767.224 238.791 798.518C187.475 751.083 152.302 688.753 138.212 620.284C124.122 551.816 131.825 480.651 160.237 416.788ZM1037.7 152.128C1000.13 103.942 952.131 64.9148 897.306 37.9857C811.214 -4.92993 718.578 -33.1906 623.203 -45.6352C758.893 -79.7046 901.675 -72.2769 1033.1 -24.3119C1049.82 -18.8765 1064.02 -12.6049 1079.48 -6.33337C1143.91 57.1312 1184.99 140.531 1196.06 230.314C1146.71 197.364 1093.53 170.548 1037.7 150.456V152.128ZM1349.41 411.353C1336.01 373.146 1315.29 337.924 1288.4 307.663C1288.62 234.234 1275.89 161.342 1250.8 92.3393C1295.49 130.622 1328.46 180.764 1345.91 236.986C1363.36 293.207 1364.57 353.218 1349.41 410.099V411.353Z" fill="#FCD9D3"/>
</svg>
