<svg width="80" height="80" viewBox="0 0 80 80" fill="none" xmlns="http://www.w3.org/2000/svg">
<path d="M10.7769 21.1909C11.9044 21.1909 12.8184 20.3251 12.8184 19.257C12.8184 18.189 11.9044 17.3232 10.7769 17.3232C9.64934 17.3232 8.73531 18.189 8.73531 19.257C8.73531 20.3251 9.64934 21.1909 10.7769 21.1909Z" fill="#C83021"/>
<path d="M68.837 29.798C69.9645 29.798 70.8785 28.9322 70.8785 27.8642C70.8785 26.7961 69.9645 25.9303 68.837 25.9303C67.7094 25.9303 66.7954 26.7961 66.7954 27.8642C66.7954 28.9322 67.7094 29.798 68.837 29.798Z" fill="#C83021"/>
<path d="M39.2664 4.25445C40.3939 4.25445 41.3079 3.38863 41.3079 2.32058C41.3079 1.25254 40.3939 0.386719 39.2664 0.386719C38.1388 0.386719 37.2248 1.25254 37.2248 2.32058C37.2248 3.38863 38.1388 4.25445 39.2664 4.25445Z" fill="#C83021"/>
<path d="M9.30306 29.7465H6.46428V32.8927H9.30306V29.7465Z" fill="#C83021"/>
<path d="M9.30306 34.5554H6.46428V37.7016H9.30306V34.5554Z" fill="#C83021"/>
<path d="M6.88537 32.2652H3.564V34.9543H6.88537V32.2652Z" fill="#C83021"/>
<path d="M12.2033 32.2652H8.88198V34.9543H12.2033V32.2652Z" fill="#C83021"/>
<path d="M24.213 6.24703H21.3743V9.3932H24.213V6.24703Z" fill="#C83021"/>
<path d="M24.213 11.0559H21.3743V14.2021H24.213V11.0559Z" fill="#C83021"/>
<path d="M21.7953 8.76576H18.474V11.4548H21.7953V8.76576Z" fill="#C83021"/>
<path d="M27.1133 8.76576H23.7919V11.4548H27.1133V8.76576Z" fill="#C83021"/>
<path d="M44.2153 79.9979C42.905 79.9849 41.6013 79.8201 40.3333 79.5071C39.6851 79.3547 37.9936 78.8169 34.8048 77.8041C28.7416 75.8769 14.5406 71.3571 12.4659 71.6372C11.1341 71.812 9.49941 72.3095 7.60453 73.0915C7.43366 73.1627 7.24966 73.2014 7.06304 73.2052C6.87641 73.2091 6.69081 73.1781 6.51683 73.114C6.34285 73.0499 6.1839 72.954 6.04905 72.8317C5.91421 72.7094 5.80611 72.5632 5.73093 72.4013C5.65575 72.2395 5.61496 72.0652 5.61089 71.8884C5.60682 71.7116 5.63955 71.5358 5.70721 71.371C5.77487 71.2062 5.87613 71.0556 6.00522 70.9279C6.13431 70.8002 6.28869 70.6978 6.45955 70.6266C8.58864 69.7302 10.4812 69.179 12.0756 68.9683C14.3632 68.6681 22.4845 71.0434 35.7084 75.2427C38.2539 76.0517 40.4539 76.7508 41.0217 76.8853C43.5884 77.4926 45.1355 77.2506 45.3603 77.2102C49.1453 76.0898 53.2734 72.6837 58.9698 67.9891C61.74 65.7079 64.884 63.1197 68.5886 60.285C70.4291 58.8777 72.0519 57.6475 73.3908 56.6346C75.1225 55.3237 76.6436 54.1697 77.1451 53.7551C77.1772 53.5182 77.1148 53.2785 76.9701 53.0829C76.5845 52.5652 75.5507 52.2873 74.1455 52.3075C71.2215 52.3568 61.3544 58.1987 53.122 63.9421C51.6653 64.9439 50.2777 66.0329 48.9679 67.2025C48.6995 67.451 48.3383 67.5887 47.963 67.5855C47.5878 67.5823 47.2292 67.4385 46.9656 67.1856C46.702 66.9326 46.5549 66.5911 46.5564 66.2356C46.5579 65.8802 46.7079 65.5398 46.9736 65.2888C48.3812 64.0317 49.8748 62.8639 51.4447 61.7931C54.3332 59.7763 69.0002 49.7216 74.1005 49.6342C77.9305 49.5692 79.2458 51.2274 79.6929 52.2224C80.2228 53.4055 80.0525 54.8374 79.2931 55.5568C78.917 55.9131 77.7578 56.7937 75.1698 58.7522C73.8332 59.7629 72.2151 60.9931 70.377 62.3936C66.7103 65.197 63.59 67.7717 60.8387 70.035C54.8513 74.9649 50.5269 78.5301 46.1504 79.8119L46.0842 79.8298C45.4704 79.9557 44.8431 80.0121 44.2153 79.9979Z" fill="#C83021"/>
<path d="M3.46937 75.1509C3.23448 75.1444 3.00461 75.0849 2.79888 74.9773C2.59315 74.8698 2.4175 74.7172 2.28655 74.5324C2.16117 74.3486 1.60524 73.3851 2.87323 72.5649C3.03431 72.4725 3.21302 72.4111 3.39917 72.3841C3.58531 72.3571 3.77525 72.3651 3.95812 72.4077C4.141 72.4502 4.31324 72.5265 4.465 72.6321C4.61676 72.7377 4.74508 72.8706 4.84263 73.0232C4.94018 73.1758 5.00504 73.345 5.03352 73.5214C5.06201 73.6977 5.05354 73.8776 5.00862 74.0508C4.9637 74.2241 4.88319 74.3872 4.77171 74.531C4.66022 74.6747 4.51993 74.7963 4.35886 74.8887C4.09265 75.0503 3.78536 75.1408 3.46937 75.1509Z" fill="#C83021"/>
<path d="M56.8881 54.6447L55.3741 52.3703L56.5735 51.6532C57.2831 51.2274 57.9432 50.8218 58.5227 50.4633C61.4041 48.684 63.3085 47.5098 65.7829 47.8325C69.0948 48.2628 70.9448 51.0033 71.0205 51.1199L71.7775 52.2582L69.3763 53.6924L68.6217 52.5585C68.5791 52.4957 67.3443 50.7501 65.395 50.4969C64.0252 50.3176 62.8448 51.0056 60.0723 52.7176C59.4832 53.0806 58.8185 53.4907 58.0875 53.9277L56.8881 54.6447Z" fill="#C83021"/>
<path d="M44.537 63.3214C39.0227 63.3214 32.7088 63.0838 30.8163 63.0076C30.6299 63.0001 30.4469 62.9579 30.2777 62.8834C30.1085 62.8089 29.9565 62.7036 29.8303 62.5734C29.7041 62.4433 29.6062 62.2908 29.5422 62.1249C29.4782 61.9589 29.4493 61.7825 29.4572 61.606C29.4651 61.4294 29.5097 61.2561 29.5883 61.0958C29.667 60.9356 29.7782 60.7915 29.9156 60.672C30.053 60.5525 30.2139 60.4597 30.3891 60.3991C30.5644 60.3384 30.7505 60.3111 30.9369 60.3186C38.779 60.6346 50.5931 60.8273 52.3035 60.2648C53.3041 59.9354 53.9003 58.936 53.9003 57.5915C53.9003 56.4486 52.4809 55.7786 51.854 55.5388C50.004 54.9607 25.3587 50.9406 20.4547 52.0319C18.0891 52.5563 11.2287 55.3058 5.84685 57.634C5.5046 57.7826 5.11405 57.7963 4.76113 57.6721C4.40821 57.548 4.12183 57.2961 3.96498 56.9719C3.80812 56.6477 3.79365 56.2777 3.92475 55.9434C4.05585 55.6091 4.32177 55.3378 4.66402 55.1893C5.83265 54.6828 16.1918 50.2123 19.8042 49.4101C25.6166 48.1193 51.2318 52.4039 52.8901 53.0336C55.3362 53.9613 56.7367 55.6218 56.7367 57.5892C56.7367 60.0945 55.393 62.0934 53.2308 62.8037C52.0432 63.1981 48.4948 63.3214 44.537 63.3214Z" fill="#C83021"/>
<path d="M1.43491 59.4716C1.13987 59.4692 0.852502 59.3823 0.61057 59.2223C0.368637 59.0623 0.183467 58.8367 0.079398 58.5752C0.0344507 58.4542 -0.327493 57.3831 0.983076 56.8094C1.16326 56.7491 1.35422 56.723 1.54506 56.7325C1.7359 56.7421 1.92288 56.7872 2.09532 56.8653C2.26776 56.9433 2.42229 57.0527 2.55008 57.1873C2.67787 57.3219 2.77642 57.4791 2.84011 57.6497C2.9038 57.8204 2.93137 58.0013 2.92125 58.1821C2.91114 58.3628 2.86353 58.54 2.78116 58.7033C2.69878 58.8667 2.58324 59.013 2.44115 59.1341C2.29905 59.2551 2.13318 59.3485 1.95299 59.4088C1.78384 59.4506 1.60973 59.4717 1.43491 59.4716Z" fill="#C83021"/>
<path d="M47.7614 67.3997C47.4632 67.3993 47.1726 67.3099 46.9311 67.1443C45.4904 66.156 41.5965 64.1729 39.361 63.2877C39.0134 63.1508 38.7375 62.8886 38.594 62.5589C38.4505 62.2292 38.4511 61.859 38.5957 61.5298C38.7403 61.2005 39.0171 60.9392 39.3651 60.8032C39.7132 60.6673 40.104 60.6679 40.4516 60.8049C42.6611 61.6788 46.853 63.7718 48.5941 64.9639C48.8371 65.1305 49.0181 65.3658 49.1111 65.636C49.2042 65.9061 49.2045 66.1972 49.112 66.4675C49.0195 66.7378 48.839 66.9734 48.5963 67.1405C48.3537 67.3076 48.0614 67.3976 47.7614 67.3975V67.3997Z" fill="#C83021"/>
<path d="M23.1823 35.3218C23.031 35.3218 22.8812 35.2935 22.7414 35.2387C22.6017 35.1839 22.4747 35.1035 22.3677 35.0021C22.2607 34.9008 22.1758 34.7805 22.1179 34.6481C22.06 34.5157 22.0302 34.3738 22.0302 34.2305V31.398C22.0302 31.1086 22.1516 30.831 22.3677 30.6264C22.5837 30.4217 22.8768 30.3067 23.1823 30.3067C23.4879 30.3067 23.7809 30.4217 23.997 30.6264C24.213 30.831 24.3344 31.1086 24.3344 31.398V34.2372C24.3325 34.5255 24.2103 34.8013 23.9945 35.0045C23.7786 35.2077 23.4866 35.3218 23.1823 35.3218Z" fill="#C83021"/>
<path d="M24.7957 33.9011H21.5477C21.2421 33.9011 20.9491 33.7861 20.733 33.5814C20.517 33.3768 20.3956 33.0992 20.3956 32.8098C20.3956 32.5203 20.517 32.2428 20.733 32.0381C20.9491 31.8334 21.2421 31.7185 21.5477 31.7185H24.7957C25.1012 31.7185 25.3943 31.8334 25.6103 32.0381C25.8264 32.2428 25.9478 32.5203 25.9478 32.8098C25.9478 33.0992 25.8264 33.3768 25.6103 33.5814C25.3943 33.7861 25.1012 33.9011 24.7957 33.9011Z" fill="#C83021"/>
<path d="M46.5122 13.2923C46.5122 16.2152 44.1535 18.5846 41.2439 18.5846C38.3343 18.5846 35.9756 16.2152 35.9756 13.2923C35.9756 10.3694 38.3343 8 41.2439 8C44.1535 8 46.5122 10.3694 46.5122 13.2923Z" fill="#C83021"/>
<path d="M44.1707 13.2923C44.1707 14.9161 42.8603 16.2325 41.2439 16.2325C39.6275 16.2325 38.3171 14.9161 38.3171 13.2923C38.3171 11.6685 39.6275 10.3521 41.2439 10.3521C42.8603 10.3521 44.1707 11.6685 44.1707 13.2923Z" fill="#FCF3F3"/>
<path d="M58.0244 13.2923C58.0244 16.2152 55.6657 18.5846 52.7561 18.5846C49.8465 18.5846 47.4878 16.2152 47.4878 13.2923C47.4878 10.3694 49.8465 8 52.7561 8C55.6657 8 58.0244 10.3694 58.0244 13.2923Z" fill="#C83021"/>
<path d="M55.6829 13.2923C55.6829 14.9161 54.3725 16.2325 52.7561 16.2325C51.1397 16.2325 49.8293 14.9161 49.8293 13.2923C49.8293 11.6685 51.1397 10.3521 52.7561 10.3521C54.3725 10.3521 55.6829 11.6685 55.6829 13.2923Z" fill="#FCF3F3"/>
<path d="M67 22.3088C67 25.2317 64.6413 27.6011 61.7317 27.6011C58.8221 27.6011 56.4634 25.2317 56.4634 22.3088C56.4634 19.386 58.8221 17.0165 61.7317 17.0165C64.6413 17.0165 67 19.386 67 22.3088Z" fill="#C83021"/>
<path d="M64.6585 22.3088C64.6585 23.9326 63.3482 25.249 61.7317 25.249C60.1153 25.249 58.8049 23.9326 58.8049 22.3088C58.8049 20.685 60.1153 19.3687 61.7317 19.3687C63.3482 19.3687 64.6585 20.685 64.6585 22.3088Z" fill="#FCF3F3"/>
<path d="M37.5366 22.3088C37.5366 25.2317 35.1779 27.6011 32.2683 27.6011C29.3587 27.6011 27 25.2317 27 22.3088C27 19.386 29.3587 17.0165 32.2683 17.0165C35.1779 17.0165 37.5366 19.386 37.5366 22.3088Z" fill="#C83021"/>
<path d="M35.1951 22.3088C35.1951 23.9326 33.8847 25.249 32.2683 25.249C30.6518 25.249 29.3415 23.9326 29.3415 22.3088C29.3415 20.685 30.6518 19.3687 32.2683 19.3687C33.8847 19.3687 35.1951 20.685 35.1951 22.3088Z" fill="#FCF3F3"/>
<path d="M60.7561 35.8336C60.7561 40.6359 57.4634 44.9482 54.2439 44.9482C49.6585 45.3402 47.3902 42.3801 47 42.3801C46.6098 42.3801 44.7317 45.2422 40.2439 44.9482C36.7392 44.7186 33.2439 40.827 33.2439 36.3237C33.2439 28.6917 45.7317 19.1727 47 19.1727C48.2683 19.1727 60.7561 28.7897 60.7561 35.8336Z" fill="#C83021"/>
<path d="M58.024 35.6552C58.024 39.4455 56.5248 42.2611 52.8777 42.2611C49.2306 42.2611 48.3655 39.1459 46.9996 39.1459C45.8289 39.1459 45.024 42.2611 41.4682 42.2611C37.707 42.2611 35.9753 39.5964 35.9753 36.0419C35.9753 30.0182 46.9996 22.1129 46.9996 22.1129C46.9996 22.1129 58.024 30.5413 58.024 35.6552Z" fill="#FCF3F3"/>
</svg>
