<svg width="80" height="80" viewBox="0 0 80 80" fill="none" xmlns="http://www.w3.org/2000/svg">
<path d="M79.103 24.0296L41.8157 0.257963C41.5679 0.0991297 41.2874 0.0107456 41.0001 0.000919625C40.7127 -0.00890634 40.4278 0.0601405 40.1712 0.201725L0.85804 23.934C0.526596 24.2024 0.27402 24.5703 0.131196 24.9928C-0.0116277 25.4153 -0.03851 25.874 0.0538362 26.3129C0.239422 27.1058 0.894126 28 1.6674 28H78.3349C79.2731 28 80 26.8021 80 25.8405C80.0018 25.4808 79.9206 25.1263 79.7639 24.8099C79.6071 24.4934 79.3798 24.2251 79.103 24.0296ZM40.9548 4.22834L72.1641 24.0746H8.10619L40.9548 4.22834Z" fill="#F36A4F"/>
<path d="M15.2888 68.052C16.2915 68.052 17.1477 67.484 17.1477 66.4617V31.8742C17.1404 31.3794 16.9422 30.907 16.5952 30.557C16.2482 30.2071 15.7796 30.0073 15.2888 30H8.58016C7.57752 30 7.00861 30.8633 7.00861 31.8742V66.5981C6.98609 66.7945 7.00789 66.9935 7.0724 67.1802C7.1369 67.367 7.24243 67.5366 7.38111 67.6764C7.51978 67.8162 7.688 67.9226 7.87321 67.9877C8.05841 68.0527 8.25579 68.0747 8.45061 68.052H15.2888ZM10.3883 33.4076H13.768V64.6443H10.3883V33.4076ZM10.2137 64.6841C10.2137 64.7202 10.2279 64.7549 10.2533 64.7805C10.2786 64.806 10.313 64.8204 10.3489 64.8204H10.2137V64.6841ZM15.2832 30.5679C16.1394 30.5679 17.142 31.0109 17.142 31.8742V32.0105C17.142 31.0734 16.0831 30.5736 15.1537 30.5736L15.2832 30.5679Z" fill="#F36A4F"/>
<path d="M29.1732 68.052C30.1759 68.052 31.1447 67.484 31.1447 66.4617V31.8742C31.1107 31.3689 30.8887 30.8951 30.5232 30.5476C30.1577 30.2001 29.6756 30.0046 29.1732 30H22.4589C21.4563 30 21 30.8633 21 31.8742V66.598C21 67.5351 21.3943 68.052 22.3237 68.052H29.1732ZM24.3797 33.4076H27.1961V64.6443H24.3797V33.4076ZM24.0868 64.6841C24.0868 64.7193 24.1002 64.7531 24.1244 64.7785C24.1485 64.8039 24.1815 64.8189 24.2163 64.8204H24.0868V64.6841ZM29.1563 30.5679C29.3377 30.5414 29.5226 30.556 29.6977 30.6106C29.8727 30.6652 30.0335 30.7584 30.1684 30.8835C30.3033 31.0086 30.4088 31.1624 30.4773 31.3338C30.5458 31.5052 30.5756 31.6898 30.5645 31.8742V32.0105C30.5754 31.8085 30.542 31.6065 30.4666 31.419C30.3911 31.2315 30.2756 31.0632 30.1281 30.9259C29.9807 30.7887 29.805 30.6859 29.6137 30.625C29.4223 30.5641 29.22 30.5466 29.0211 30.5736L29.1563 30.5679Z" fill="#F36A4F"/>
<path d="M43.1112 68.052C44.1139 68.052 45.1334 67.484 45.1334 66.4617V31.8742C45.0885 31.3639 44.8563 30.889 44.4823 30.5423C44.1082 30.1956 43.6193 30.0022 43.1112 30H36.4026C35.3999 30 35 30.8633 35 31.8742V66.598C35 67.5351 35.338 68.052 36.273 68.052H43.1112ZM37.8164 33.4076H41.1961V64.6443H37.8164V33.4076ZM37.7713 64.6841C37.7713 64.7193 37.7848 64.7531 37.8089 64.7785C37.8331 64.8039 37.866 64.8189 37.9009 64.8204H37.7713V64.6841ZM43.1169 30.5679C43.9731 30.5679 44.5758 31.0109 44.5758 31.8742V32.0105C44.5758 31.0734 43.9111 30.5736 42.9817 30.5736L43.1169 30.5679Z" fill="#F36A4F"/>
<path d="M57.3339 68.052C58.3365 68.052 59.142 67.484 59.142 66.4617V31.8742C59.1451 31.385 58.9572 30.9142 58.6189 30.5635C58.2805 30.2128 57.819 30.0104 57.3339 30H50.6252C50.3946 30.0089 50.1682 30.0654 49.96 30.1659C49.7518 30.2664 49.5662 30.4089 49.4148 30.5845C49.2633 30.7601 49.1491 30.9651 49.0792 31.1869C49.0094 31.4088 48.9853 31.6427 49.0086 31.8742V66.598C48.9913 66.7973 49.0183 66.998 49.0876 67.1854C49.1569 67.3728 49.2667 67.5424 49.4092 67.6816C49.5516 67.8209 49.723 67.9264 49.911 67.9904C50.0989 68.0545 50.2986 68.0755 50.4957 68.052H57.3339ZM52.3883 33.4076H55.768V64.6443H52.3883V33.4076ZM52.2587 64.6841C52.2587 64.7202 52.273 64.7549 52.2983 64.7805C52.3237 64.806 52.3581 64.8204 52.3939 64.8204H52.2587V64.6841ZM57.3283 30.5679C58.1844 30.5679 59.1364 31.0109 59.1364 31.8742V32.0105C59.1364 31.0734 58.1225 30.5736 57.1931 30.5736L57.3283 30.5679Z" fill="#F36A4F"/>
<path d="M71.4781 68.052C71.6971 68.0809 71.9198 68.0606 72.1301 67.9925C72.3405 67.9245 72.5333 67.8104 72.6948 67.6584C72.8562 67.5065 72.9824 67.3204 73.0642 67.1135C73.146 66.9066 73.1814 66.684 73.168 66.4617V31.8742C73.1856 31.6378 73.1553 31.4002 73.0788 31.1761C73.0023 30.9519 72.8813 30.7458 72.7231 30.5704C72.565 30.395 72.373 30.2539 72.1589 30.1558C71.9448 30.0578 71.7132 30.0047 71.4781 30H64.7694C64.531 30.0051 64.2959 30.0578 64.0778 30.1549C63.8596 30.2521 63.6626 30.3918 63.4982 30.566C63.3338 30.7402 63.2052 30.9454 63.1199 31.17C63.0345 31.3945 62.994 31.6338 63.0007 31.8742V66.598C63.0007 67.5351 63.7048 68.052 64.6342 68.052H71.4781ZM66.3804 33.4076H69.7601V64.6443H66.3804V33.4076ZM66.3804 64.6841C66.3804 64.702 66.3839 64.7197 66.3907 64.7363C66.3975 64.7528 66.4075 64.7678 66.42 64.7805C66.4326 64.7931 66.4475 64.8032 66.4639 64.81C66.4803 64.8169 66.4978 64.8204 66.5156 64.8204H66.3804V64.6841ZM71.4499 30.5679C72.3061 30.5679 73.1398 31.0109 73.1398 31.8742V32.0105C73.1398 31.0734 72.278 30.5736 71.3429 30.5736L71.4499 30.5679Z" fill="#F36A4F"/>
<path d="M5.00003 72C4.99739 72.4852 5.14898 72.9538 5.42459 73.3123C5.70019 73.6708 6.07961 73.9587 6.48709 74H73.5082C73.9173 73.9651 74.2997 73.7459 74.577 73.3873C74.8543 73.0287 75.0056 72.5579 74.9998 72.0713C75.0026 71.5941 74.8553 70.9338 74.507 70.5C74.2758 70.212 73.91 70.02 73.5082 70.0001H6.48709C6.29385 69.9972 6.10203 70.0396 5.92263 70.1249C5.74322 70.2101 5.57976 70.3365 5.44162 70.4969C5.30347 70.6572 5.19336 70.8483 5.11759 71.0593C5.04183 71.2702 5.00225 71.5938 5.00003 72Z" fill="#F36A4F"/>
<path d="M1.51658 76.0028C1.32379 75.9885 1.13095 76.0292 0.949474 76.1226C0.768003 76.2161 0.601606 76.3603 0.460158 76.5467C0.31871 76.7331 0.205092 76.9579 0.126046 77.2078C0.0470003 77.4577 0.00413715 77.7276 9.2384e-08 78.0014C-0.000130477 78.5224 0.143106 79.0228 0.399197 79.3961C0.655288 79.7694 1.00399 79.9861 1.37102 80C1.41798 80 1.46493 80 1.51658 80H78.5192C78.5662 80 78.6178 80 78.6601 80C78.8451 79.9869 79.0264 79.9222 79.1938 79.8096C79.3611 79.6971 79.5112 79.5388 79.6355 79.344C79.7597 79.1491 79.8557 78.9214 79.918 78.6739C79.9802 78.4264 80.0075 78.1639 79.9982 77.9015C79.989 77.639 79.9434 77.3817 79.8641 77.1442C79.7847 76.9068 79.6732 76.6938 79.5359 76.5175C79.3985 76.3412 79.2381 76.205 79.0636 76.1167C78.8892 76.0284 78.7042 75.9897 78.5192 76.0028H1.51658Z" fill="#F36A4F"/>
</svg>
