<svg width="40" height="41" viewBox="0 0 40 41" fill="none" xmlns="http://www.w3.org/2000/svg">
<path d="M23.3182 41C23.0038 40.9998 22.6921 40.9425 22.3979 40.8308L2.17104 33.1641C1.81858 33.0292 1.49846 32.8205 1.23174 32.5519C0.96501 32.2834 0.757715 31.9609 0.623483 31.6058C0.348271 30.89 0.348271 30.0965 0.623483 29.3807L10.4742 2.97835C11.0492 1.43807 12.682 0.62149 14.1154 1.16911L30.9638 7.55758L30.3338 9.24481L13.4799 2.85496C12.9778 2.66364 12.3794 3.00191 12.1483 3.61331L2.29072 30.0156C2.17648 30.3131 2.17648 30.6429 2.29072 30.9404C2.33475 31.0606 2.40345 31.1702 2.49233 31.262C2.58122 31.3537 2.68829 31.4255 2.80657 31.4727L23.0279 39.1436C23.5369 39.3363 24.1381 38.9966 24.3664 38.3866L29.3488 25.0427L31.0216 25.6776L26.0391 39.0216C25.5852 40.2347 24.471 41 23.3182 41Z" fill="#F36A4F"/>
<path d="M30.813 24.581C30.6684 24.5809 30.5261 24.5456 30.3981 24.4779C30.2701 24.4102 30.1603 24.3123 30.078 24.1925C29.9958 24.0727 29.9436 23.9346 29.926 23.79C29.9083 23.6455 29.9257 23.4987 29.9766 23.3624L30.0192 23.2473C30.1029 23.0238 30.2711 22.843 30.487 22.7444C30.7029 22.6459 30.9488 22.6378 31.1706 22.7219L31.2243 22.7454C31.3121 22.7852 31.3929 22.839 31.4636 22.9049C31.591 23.0174 31.6804 23.1672 31.7195 23.3333C31.7687 23.5164 31.759 23.7105 31.692 23.8878L31.6837 23.9086L31.6507 23.9974C31.5866 24.169 31.472 24.3168 31.3223 24.4211C31.1727 24.5254 30.9949 24.5812 30.813 24.581Z" fill="#F36A4F"/>
<path d="M8.75061 4.00629L8.12083 5.69313L12.9695 7.53185L13.5993 5.84501L8.75061 4.00629Z" fill="#F36A4F"/>
<path d="M7.59178 7.11257L6.962 8.79941L11.8106 10.6381L12.4404 8.95128L7.59178 7.11257Z" fill="#F36A4F"/>
<path d="M6.43094 10.2215L5.80116 11.9084L10.6511 13.7476L11.2809 12.0607L6.43094 10.2215Z" fill="#F36A4F"/>
<path d="M5.2705 13.3287L4.64072 15.0155L9.49065 16.8547L10.1204 15.1679L5.2705 13.3287Z" fill="#F36A4F"/>
<path d="M4.10966 16.4363L3.47988 18.1231L8.32852 19.9618L8.9583 18.275L4.10966 16.4363Z" fill="#F36A4F"/>
<path d="M2.95061 19.5425L2.32083 21.2294L7.16947 23.0681L7.79925 21.3813L2.95061 19.5425Z" fill="#F36A4F"/>
<path d="M1.78882 22.651L1.15905 24.3379L6.00898 26.1771L6.63876 24.4902L1.78882 22.651Z" fill="#F36A4F"/>
<path d="M0.629777 25.7587L0 27.4455L4.84993 29.2847L5.47971 27.5979L0.629777 25.7587Z" fill="#F36A4F"/>
<path d="M13.8423 22.052L8.73093 23.3842L9.17868 25.1291L14.2901 23.7968L13.8423 22.052Z" fill="#F36A4F"/>
<path d="M8.33268 29.5692L7.89111 27.8224L8.75774 27.5992C8.79213 27.5908 12.2862 26.6925 13.9204 26.2807L14.7884 26.0617L15.2217 27.8099L14.3537 28.0345C12.7236 28.4504 9.2337 29.3419 9.19931 29.3502L8.33268 29.5692Z" fill="#F36A4F"/>
<path d="M35.0963 18.5L30.4192 11.0371L30.8594 10.7598L30.8278 10.7113L35.2903 7.77766L39.9989 15.4444L35.0963 18.5ZM32.8417 11.5362L35.6617 16.0308L37.5325 14.8635L34.7276 10.2884L32.8417 11.5362Z" fill="#F36A4F"/>
<path d="M22.6303 26.2017C22.4781 26.2015 22.3285 26.1622 22.1957 26.0875C22.0628 26.0128 21.951 25.9051 21.871 25.7747L18.1142 19.6579C18.0514 19.5568 18.0092 19.4442 17.9899 19.3265C17.9707 19.2088 17.9748 19.0885 18.0021 18.9724C18.0293 18.8563 18.0792 18.7469 18.1487 18.6504C18.2182 18.5539 18.3061 18.4722 18.4072 18.4102L30.9995 10.6424C31.0433 10.6154 31.0893 10.5922 31.1371 10.5731C31.2294 10.4668 31.3451 10.3839 31.475 10.3311C31.605 10.2782 31.7454 10.2568 31.885 10.2687C32.0247 10.2806 32.1595 10.3253 32.2788 10.3994C32.3981 10.4735 32.4985 10.5748 32.5718 10.6951L36.2736 16.7633C36.3972 16.9661 36.4363 17.21 36.3821 17.4417C36.328 17.6734 36.1851 17.8741 35.9847 18L23.109 26.0658C22.9654 26.1558 22.7994 26.2029 22.6303 26.2017ZM20.1061 19.4791L22.9178 24.0542L34.2817 16.9463L31.5305 12.4309L20.1061 19.4791Z" fill="#F36A4F"/>
<path d="M22.2397 26.4221H22.1888L15.4937 26.0409C15.3431 26.0323 15.1972 25.9854 15.0694 25.9047C14.9416 25.824 14.8362 25.712 14.7628 25.5792C14.6895 25.4464 14.6508 25.297 14.6501 25.1451C14.6495 24.9931 14.687 24.8434 14.7591 24.7099L17.7538 19.1644C17.8673 18.9545 18.0588 18.7985 18.2864 18.7309C18.5139 18.6633 18.7588 18.6896 18.9671 18.8039C19.1754 18.9183 19.3301 19.1114 19.3972 19.3407C19.4643 19.57 19.4382 19.8168 19.3247 20.0267L17.0069 24.3162L22.2837 24.6212C22.5208 24.6278 22.7456 24.7291 22.9087 24.9028C23.0717 25.0765 23.1596 25.3083 23.1531 25.5473C23.1465 25.7863 23.046 26.0129 22.8737 26.1772C22.7013 26.3415 22.4713 26.4301 22.2342 26.4235L22.2397 26.4221Z" fill="#F36A4F"/>
<path d="M17.8254 20.9889L16.3047 21.9373L18.6182 25.7051L20.1388 24.7567L17.8254 20.9889Z" fill="#F36A4F"/>
<path d="M22.0164 28.9071L10.6681 31.6994L11.0923 33.4503L22.4406 30.6579L22.0164 28.9071Z" fill="#F36A4F"/>
</svg>
