<svg width="40" height="40" viewBox="0 0 40 40" fill="none" xmlns="http://www.w3.org/2000/svg">
<path d="M28.1771 9.38276C27.2439 9.38276 26.3316 9.10848 25.5557 8.59461C24.7798 8.08073 24.175 7.35033 23.8179 6.49578C23.4608 5.64123 23.3673 4.70091 23.5494 3.79373C23.7314 2.88655 24.1808 2.05325 24.8407 1.3992C25.5006 0.745159 26.3413 0.29975 27.2566 0.1193C28.1718 -0.0611501 29.1205 0.0314635 29.9827 0.385429C30.8448 0.739395 31.5817 1.33881 32.1002 2.10789C32.6187 2.87696 32.8954 3.78115 32.8954 4.7061C32.8944 5.94613 32.397 7.13509 31.5123 8.01193C30.6277 8.88876 29.4281 9.38179 28.1771 9.38276ZM28.1771 2.23899C27.6844 2.23899 27.2028 2.38379 26.7932 2.65508C26.3835 2.92637 26.0643 3.31197 25.8757 3.76311C25.6872 4.21426 25.6379 4.71068 25.734 5.18961C25.8301 5.66854 26.0673 6.10847 26.4157 6.45376C26.7641 6.79905 27.2079 7.03419 27.6911 7.12946C28.1743 7.22472 28.6751 7.17583 29.1303 6.98896C29.5855 6.80209 29.9745 6.48564 30.2482 6.07962C30.5219 5.6736 30.668 5.19626 30.668 4.70794C30.667 4.0536 30.4042 3.42637 29.9372 2.96385C29.4702 2.50134 28.8372 2.24131 28.1771 2.24083V2.23899Z" fill="#F36A4F"/>
<path d="M35.5776 28.439L20.9994 28.3286C20.8221 28.3269 20.6478 28.2833 20.4909 28.2015C20.3341 28.1196 20.1992 28.0017 20.0975 27.8578C19.9959 27.7138 19.9304 27.5479 19.9064 27.3738C19.8825 27.1997 19.9008 27.0224 19.9599 26.8568L24.0435 15.5276C24.1515 15.2646 24.3575 15.053 24.6188 14.9368C24.8801 14.8205 25.1766 14.8085 25.4466 14.9032C25.7166 14.9979 25.9394 15.1921 26.0687 15.4455C26.198 15.6988 26.2239 15.9917 26.1409 16.2635L22.5864 26.1301L33.9683 26.2147L30.152 16.28C30.0954 16.1437 30.0669 15.9975 30.0682 15.85C30.0695 15.7026 30.1005 15.5569 30.1596 15.4216C30.2186 15.2862 30.3044 15.164 30.4119 15.0621C30.5194 14.9601 30.6464 14.8806 30.7854 14.8281C30.9244 14.7756 31.0726 14.7513 31.2213 14.7565C31.3699 14.7617 31.516 14.7964 31.651 14.8585C31.7859 14.9206 31.9069 15.0089 32.0068 15.1181C32.1067 15.2273 32.1836 15.3553 32.2328 15.4944L36.63 26.934C36.6944 27.1013 36.7168 27.2815 36.6953 27.4592C36.6738 27.6369 36.609 27.8068 36.5066 27.9542C36.4041 28.1015 36.267 28.222 36.1071 28.3052C35.9472 28.3884 35.7693 28.4317 35.5887 28.4316L35.5776 28.439Z" fill="#F36A4F"/>
<path d="M18.4974 23.1662C18.3136 23.1662 18.1328 23.1212 17.9708 23.0351C17.8089 22.9491 17.671 22.8246 17.5694 22.6729C17.4678 22.5212 17.4056 22.3469 17.3884 22.1656C17.3712 21.9842 17.3996 21.8015 17.4709 21.6337L20.7155 14.0097C21.5897 11.3513 23.4997 9.82798 25.9591 9.82798H30.6236C32.8176 9.82798 34.8166 11.2262 35.8375 13.4799L39.3327 21.0983C39.4557 21.3647 39.467 21.6687 39.3639 21.9433C39.2609 22.218 39.052 22.4408 38.7832 22.5628C38.5144 22.6848 38.2078 22.6959 37.9307 22.5938C37.6536 22.4917 37.4288 22.2846 37.3057 22.0182L33.8106 14.3887C33.2927 13.2481 32.1865 12.0357 30.6255 12.0357H25.9684C24.463 12.0357 23.4069 12.9427 22.8296 14.7291C22.8197 14.761 22.808 14.7923 22.7944 14.8229L19.5313 22.491C19.4457 22.6923 19.3017 22.864 19.1177 22.9841C18.9337 23.1043 18.7178 23.1677 18.4974 23.1662Z" fill="#F36A4F"/>
<path d="M36.6682 26.7225C35.7359 26.7226 34.8353 26.3864 34.1346 25.7768C33.9131 25.5817 33.7788 25.3073 33.7614 25.014C33.744 24.7207 33.8449 24.4326 34.0418 24.2131C34.2387 23.9935 34.5156 23.8604 34.8114 23.8432C35.1073 23.8259 35.398 23.9259 35.6195 24.1211C35.8549 24.3324 36.1509 24.4656 36.4664 24.5022C36.7818 24.5389 37.1009 24.477 37.3791 24.3253C37.7689 24.0824 37.8785 23.6538 37.7058 23.0522C37.6495 22.7798 37.699 22.4965 37.8443 22.2587C37.9896 22.0209 38.2201 21.8462 38.4897 21.7696C38.7593 21.6929 39.0481 21.7199 39.2985 21.8451C39.5489 21.9703 39.7424 22.1846 39.8404 22.445C40.2822 23.9868 39.7903 25.4236 38.556 26.1908C37.9898 26.5407 37.3354 26.725 36.6682 26.7225Z" fill="#F36A4F"/>
<path d="M19.8435 26.7593C19.3525 26.7614 18.8679 26.6486 18.4292 26.43C17.0872 25.7511 16.4858 24.2462 16.9331 22.6861C16.9705 22.5438 17.0362 22.4104 17.1263 22.2936C17.2164 22.1769 17.3292 22.0791 17.4579 22.0061C17.5867 21.9332 17.7288 21.8864 17.8761 21.8686C18.0233 21.8508 18.1726 21.8624 18.3153 21.9026C18.458 21.9428 18.5911 22.0108 18.7069 22.1027C18.8226 22.1945 18.9187 22.3084 18.9895 22.4376C19.0603 22.5668 19.1043 22.7087 19.119 22.855C19.1337 23.0013 19.1188 23.149 19.0751 23.2895C18.9192 23.8304 19.0565 24.2701 19.4463 24.4651C19.8361 24.6601 20.4561 24.5976 21.0612 23.8359C21.2443 23.6056 21.5122 23.4568 21.806 23.4223C22.0998 23.3878 22.3954 23.4704 22.6278 23.6519C22.8601 23.8334 23.0102 24.099 23.045 24.3902C23.0798 24.6814 22.9965 24.9744 22.8134 25.2047C21.9243 26.3085 20.8347 26.7593 19.8435 26.7593Z" fill="#F36A4F"/>
<path d="M26.3164 40H26.2811C24.6997 40 22.9939 39.047 22.9939 37.509V27.6736C22.9939 27.3809 23.1112 27.1001 23.3201 26.8931C23.5289 26.6861 23.8122 26.5698 24.1076 26.5698C24.4029 26.5698 24.6862 26.6861 24.8951 26.8931C25.1039 27.1001 25.2213 27.3809 25.2213 27.6736V37.4335C25.5195 37.6756 25.8958 37.803 26.2811 37.7923H26.3164C26.4883 37.8017 26.6603 37.7775 26.8228 37.721C26.9852 37.6645 27.1348 37.5768 27.263 37.463V27.8576C27.263 27.7126 27.2918 27.5691 27.3478 27.4352C27.4038 27.3012 27.4858 27.1796 27.5892 27.0771C27.6926 26.9746 27.8154 26.8932 27.9505 26.8378C28.0856 26.7823 28.2305 26.7537 28.3767 26.7537C28.523 26.7537 28.6678 26.7823 28.8029 26.8378C28.938 26.8932 29.0608 26.9746 29.1642 27.0771C29.2676 27.1796 29.3497 27.3012 29.4056 27.4352C29.4616 27.5691 29.4904 27.7126 29.4904 27.8576V37.509C29.4941 38.8814 28.0667 40 26.3164 40Z" fill="#F36A4F"/>
<path d="M30.5154 40H30.4801C28.7056 40 27.2634 38.8833 27.2634 37.509V27.6736C27.2634 27.3809 27.3807 27.1001 27.5896 26.8931C27.7985 26.6861 28.0817 26.5698 28.3771 26.5698C28.6725 26.5698 28.9557 26.6861 29.1646 26.8931C29.3735 27.1001 29.4908 27.3809 29.4908 27.6736V37.4519C29.7641 37.6873 30.1184 37.8092 30.4801 37.7923H30.5154C31.0017 37.7923 31.2987 37.5862 31.3469 37.4943V27.4897C31.3469 27.1969 31.4643 26.9161 31.6731 26.7091C31.882 26.5021 32.1653 26.3858 32.4606 26.3858C32.756 26.3858 33.0393 26.5021 33.2481 26.7091C33.457 26.9161 33.5743 27.1969 33.5743 27.4897V37.509C33.578 38.9053 32.2305 40 30.5154 40Z" fill="#F36A4F"/>
<path d="M11.2264 9.01481C10.3272 9.01408 9.44829 8.74911 8.70094 8.25339C7.95358 7.75767 7.37129 7.05345 7.02766 6.22977C6.68404 5.40608 6.59451 4.49991 6.7704 3.6258C6.94629 2.75169 7.37969 1.94889 8.01583 1.31889C8.65197 0.688886 9.46227 0.259963 10.3443 0.0863418C11.2263 -0.0872794 12.1405 0.00219682 12.9713 0.343459C13.802 0.684722 14.512 1.26245 15.0115 2.00361C15.5111 2.74477 15.7777 3.61608 15.7777 4.50741C15.7762 5.70303 15.2961 6.84922 14.4428 7.69431C13.5895 8.5394 12.4327 9.01432 11.2264 9.01481ZM11.2264 2.03661C10.7334 2.03661 10.2514 2.18152 9.84149 2.45302C9.43155 2.72451 9.11204 3.1104 8.92336 3.56187C8.73469 4.01335 8.68532 4.51015 8.78151 4.98943C8.87769 5.46872 9.11511 5.90897 9.46374 6.25452C9.81236 6.60007 10.2565 6.83539 10.7401 6.93072C11.2237 7.02606 11.7249 6.97713 12.1804 6.79012C12.6359 6.60311 13.0252 6.28643 13.2991 5.88011C13.573 5.47378 13.7192 4.99608 13.7192 4.50741C13.7182 3.85241 13.4553 3.22452 12.988 2.76137C12.5207 2.29821 11.8872 2.03758 11.2264 2.03661Z" fill="#F36A4F"/>
<path d="M7.15631 28.1317C6.86095 28.1317 6.57767 28.0154 6.36882 27.8084C6.15996 27.6014 6.04263 27.3206 6.04263 27.0279C6.04263 26.0822 6.07604 18.4417 6.90388 15.8642C6.99937 15.5927 7.19802 15.3688 7.45755 15.2402C7.71708 15.1116 8.01699 15.0885 8.29346 15.1757C8.56993 15.263 8.80112 15.4538 8.93783 15.7074C9.07455 15.9611 9.10598 16.2576 9.02546 16.5339C8.41293 18.4417 8.27186 24.5516 8.26815 27.0205C8.26913 27.1659 8.2411 27.3101 8.18569 27.4448C8.13027 27.5794 8.04856 27.7019 7.94525 27.8052C7.84193 27.9084 7.71905 27.9904 7.58366 28.0465C7.44827 28.1025 7.30304 28.1315 7.15631 28.1317Z" fill="#F36A4F"/>
<path d="M15.8687 29.0516C15.5734 29.0516 15.2901 28.9353 15.0812 28.7283C14.8724 28.5213 14.755 28.2405 14.755 27.9478C14.755 25.2139 14.6121 18.4399 13.9977 16.5413C13.9172 16.265 13.9486 15.9685 14.0853 15.7148C14.2221 15.4611 14.4533 15.2704 14.7297 15.1831C15.0062 15.0958 15.3061 15.119 15.5656 15.2475C15.8252 15.3761 16.0238 15.6 16.1193 15.8716C16.949 18.4473 16.9806 26.9101 16.9806 27.9551C16.9806 28.2479 16.8632 28.5287 16.6544 28.7357C16.4455 28.9427 16.1622 29.059 15.8669 29.059L15.8687 29.0516Z" fill="#F36A4F"/>
<path d="M1.19047 22.8498C1.00898 22.8497 0.830261 22.8057 0.669858 22.7216C0.509456 22.6374 0.372233 22.5157 0.270131 22.367C0.168029 22.2182 0.104143 22.047 0.0840313 21.8683C0.0639198 21.6895 0.0881928 21.5086 0.154738 21.3412L3.40114 13.9251C4.32921 11.0882 6.32829 9.46004 8.89534 9.46004H13.8364C16.5612 9.46004 18.4434 11.4709 19.2972 13.3548L21.0095 17.7138C21.0704 17.8459 21.1045 17.9885 21.1099 18.1336C21.1152 18.2787 21.0916 18.4234 21.0405 18.5595C20.9894 18.6956 20.9118 18.8203 20.812 18.9267C20.7123 19.033 20.5924 19.1188 20.4591 19.1792C20.3259 19.2396 20.182 19.2734 20.0356 19.2787C19.8892 19.284 19.7432 19.2606 19.6059 19.2099C19.4687 19.1593 19.3428 19.0823 19.2355 18.9835C19.1282 18.8846 19.0417 18.7658 18.9807 18.6337L17.2629 14.2618C16.7246 13.0623 15.4995 11.6678 13.8364 11.6678H8.89534C6.88699 11.6678 5.94592 13.2794 5.50973 14.6316C5.50973 14.6555 5.49302 14.6776 5.48559 14.7015L2.22806 22.1507C2.146 22.3571 2.00312 22.5341 1.81804 22.6588C1.63295 22.7835 1.41426 22.8501 1.19047 22.8498Z" fill="#F36A4F"/>
<path d="M3.31197 25.4346C2.76783 25.4359 2.23107 25.3099 1.74538 25.0667C0.330995 24.351 -0.311232 22.7964 0.145381 21.2032C0.231126 20.9275 0.422396 20.696 0.67823 20.5583C0.934064 20.4206 1.23412 20.3876 1.51415 20.4665C1.79417 20.5454 2.0319 20.7299 2.17642 20.9803C2.32095 21.2308 2.36077 21.5274 2.28738 21.8066C2.04793 22.6437 2.5361 22.9933 2.75698 23.1055C3.22102 23.341 4.00803 23.3079 4.6948 22.4432C4.78418 22.3261 4.89623 22.2278 5.02439 22.1542C5.15255 22.0806 5.29425 22.033 5.44119 22.0143C5.58813 21.9956 5.73736 22.0062 5.88013 22.0453C6.0229 22.0845 6.15635 22.1515 6.27267 22.2425C6.38899 22.3334 6.48583 22.4464 6.55753 22.5749C6.62923 22.7034 6.67435 22.8448 6.69024 22.9908C6.70613 23.1368 6.69247 23.2844 6.65007 23.4251C6.60766 23.5658 6.53737 23.6967 6.44329 23.8101C5.51893 24.971 4.36626 25.4346 3.31197 25.4346Z" fill="#F36A4F"/>
<path d="M9.28135 39.816H9.24423C7.49759 39.816 6.12961 38.6588 6.12961 37.1815V26.7538C6.12961 26.461 6.24695 26.1802 6.45581 25.9732C6.66466 25.7662 6.94793 25.6499 7.2433 25.6499C7.53867 25.6499 7.82194 25.7662 8.0308 25.9732C8.23966 26.1802 8.35699 26.461 8.35699 26.7538V37.1815C8.35699 37.3048 8.66697 37.6083 9.24423 37.6083H9.28135C9.88831 37.6083 10.4489 37.2974 10.5807 37.1134V26.5698C10.5807 26.277 10.698 25.9963 10.9068 25.7892C11.1157 25.5822 11.399 25.4659 11.6943 25.4659C11.9897 25.4659 12.273 25.5822 12.4818 25.7892C12.6907 25.9963 12.808 26.277 12.808 26.5698V37.1815C12.808 38.7343 10.9519 39.816 9.28135 39.816Z" fill="#F36A4F"/>
<path d="M11.6942 27.6736C11.3989 27.6736 11.1156 27.5573 10.9067 27.3503C10.6979 27.1433 10.5807 26.8625 10.5807 26.5698L10.5806 26.3858C10.5806 26.093 10.6979 25.8123 10.9067 25.6053C11.1156 25.3982 11.3989 25.2819 11.6942 25.2819C11.9896 25.2819 12.2729 25.3982 12.4817 25.6053C12.6906 25.8123 12.8079 26.093 12.8079 26.3858L12.808 26.5698C12.808 26.8625 12.6906 27.1433 12.4817 27.3503C12.2729 27.5573 11.9896 27.6736 11.6942 27.6736Z" fill="#F36A4F"/>
<path d="M13.7196 39.816H13.6825C11.9414 39.816 10.5771 38.6588 10.5771 37.1815V26.7538C10.5771 26.461 10.6945 26.1802 10.9033 25.9732C11.1122 25.7662 11.3955 25.6499 11.6908 25.6499C11.9862 25.6499 12.2695 25.7662 12.4783 25.9732C12.6872 26.1802 12.8045 26.461 12.8045 26.7538V37.1815C12.8045 37.3084 13.1034 37.6083 13.6825 37.6083H13.7196C14.321 37.6083 14.7665 37.2992 14.8463 37.1521L14.6607 26.9561C14.6557 26.6634 14.7684 26.3807 14.9737 26.1702C15.1791 25.9597 15.4604 25.8388 15.7558 25.8339C16.0512 25.829 16.3364 25.9406 16.5487 26.1442C16.7611 26.3477 16.8831 26.6266 16.888 26.9193L17.0774 37.1631C17.0774 38.6091 15.5368 39.816 13.7196 39.816Z" fill="#F36A4F"/>
</svg>
