<svg width="88" height="97" viewBox="0 0 88 97" fill="none" xmlns="http://www.w3.org/2000/svg">
<path d="M70.2142 47.8522C69.9348 47.8523 69.6572 47.8084 69.3915 47.7223C64.561 46.1604 58.2387 39.0171 53.2819 29.5224C48.11 19.6449 45.8535 10.1433 47.516 5.32073C47.7385 4.6498 48.2166 4.09392 48.8463 3.77392C49.4759 3.45392 50.2063 3.39567 50.8786 3.61182C54.0978 4.65426 58.9487 8.9368 62.6766 14.0225L60.0309 15.9673C56.6171 11.3327 52.7357 8.02765 50.445 6.97154C49.4994 11.114 51.7866 19.5765 56.1836 27.9946C61.055 37.3219 66.4863 42.8587 69.7909 44.3523C70.2995 41.5531 69.5144 35.4865 67.1657 29.2319L70.2381 28.0766C72.8667 35.0832 73.9045 42.452 72.7574 45.9963C72.5832 46.5347 72.2434 47.0041 71.7866 47.3374C71.3298 47.6707 70.7794 47.8509 70.2142 47.8522Z" fill="#F36A4F"/>
<path d="M63.6256 51.1501C63.3429 51.1503 63.0619 51.1064 62.7926 51.0203C57.9622 49.4583 51.6399 42.315 46.6796 32.8135C41.5795 23.0522 39.3127 13.5574 40.9035 8.63233C41.0115 8.29548 41.1855 7.98356 41.4153 7.71479C41.645 7.44602 41.926 7.22579 42.2417 7.06696L48.8371 3.78926L50.2948 6.73201L43.9555 9.88325C43.0337 13.3011 44.3822 21.3261 49.5882 31.2925C54.6542 40.9889 60.3245 46.5942 63.5846 47.8109L69.924 44.6528L71.3851 47.5956L64.8204 50.863C64.4504 51.0518 64.0409 51.1501 63.6256 51.1501Z" fill="#F36A4F"/>
<path d="M18.0688 62.6339C11.7909 62.6339 5.69048 58.8162 2.76829 52.6094C-1.20876 44.1674 1.72709 34.2488 9.45245 30.0347L41.2005 11.0384L42.8835 13.8581L11.0808 32.8851C4.82338 36.303 2.50201 44.3349 5.74168 51.2047C8.6707 57.4217 15.4778 60.696 21.5543 58.8333L24.8964 57.7225L25.9205 60.843L22.534 61.9674C21.0869 62.4101 19.582 62.6347 18.0688 62.6339Z" fill="#F36A4F"/>
<path d="M65.9572 33.453L64.4074 30.5581C65.8595 29.7802 67.0103 28.5387 67.677 27.031C68.3437 25.5232 68.488 23.8357 68.0871 22.2364C67.6862 20.6372 66.763 19.2179 65.4642 18.204C64.1654 17.1902 62.5654 16.64 60.9185 16.6407C59.2522 16.6338 57.6334 17.1969 56.3304 18.2368L54.2821 15.6632C56.1629 14.1589 58.501 13.3436 60.9083 13.3528C63.2862 13.352 65.5963 14.1467 67.4715 15.6107C69.3468 17.0746 70.6798 19.1239 71.2587 21.4331C71.8377 23.7422 71.6294 26.1789 70.6671 28.356C69.7047 30.5331 68.0434 32.3259 65.947 33.4496L65.9572 33.453Z" fill="#F36A4F"/>
<path d="M8.90968 91.0954L7.14476 88.3303L12.9482 84.5912C13.9867 83.9513 14.735 82.9312 15.034 81.7476L16.7409 74.8299C17.4318 71.9773 19.2063 69.5067 21.6874 67.943L24.514 66.2135L26.2209 69.0196L23.4114 70.7285C21.6522 71.835 20.3932 73.5847 19.902 75.6057L18.1951 82.5303C17.6972 84.5367 16.4369 86.2694 14.6824 87.3597L8.90968 91.0954Z" fill="#F36A4F"/>
<path d="M25.5006 96.0021L23.5786 93.3396C29.5937 88.9819 35.8272 85.9742 42.112 84.402C43.5401 84.085 44.8635 83.4073 45.9559 82.4333C47.8437 80.6663 48.6118 78.267 48.6118 74.1519C48.6118 65.9491 45.1605 65.9491 43.6892 65.9491C38.6368 65.9491 31.9287 68.9944 28.6071 71.8175L27.2689 72.9523L19.0076 61.7999L21.643 59.8141L27.8663 68.2117C31.9424 65.3168 38.449 62.6338 43.6858 62.6338C47.4409 62.6338 51.8788 64.6298 51.8788 74.1348C51.8788 79.1932 50.7762 82.3889 48.1851 84.8156C46.6866 86.1738 44.8645 87.1236 42.8938 87.5737C37.0323 89.0605 31.1743 91.8939 25.5006 96.0021Z" fill="#F36A4F"/>
<path d="M45.2664 93.8656C44.4964 93.8672 43.7368 93.6881 43.0485 93.3426C42.3602 92.9972 41.7624 92.495 41.303 91.8764L38.2852 87.8058L40.9206 85.8474L43.9384 89.918C44.1869 90.2508 44.5517 90.4775 44.9598 90.5529C45.368 90.6283 45.7895 90.5468 46.1403 90.3247L51.1346 87.1222C51.3246 87.0013 51.4876 86.8425 51.6136 86.6557C51.7395 86.4689 51.8257 86.2582 51.8667 86.0366C51.9077 85.815 51.9026 85.5873 51.8519 85.3678C51.8011 85.1482 51.7057 84.9415 51.5716 84.7605L48.3149 80.3583L50.9537 78.3999L54.2104 82.8021C54.6113 83.3464 54.8961 83.9674 55.0471 84.6266C55.1981 85.2857 55.2121 85.9689 55.0882 86.6337C54.9643 87.2985 54.7052 87.9307 54.3269 88.491C53.9486 89.0513 53.4593 89.5277 52.8893 89.8906L47.895 93.0897C47.1105 93.5938 46.1985 93.863 45.2664 93.8656Z" fill="#F36A4F"/>
<path d="M37.6263 65.9179L32.8095 59.424C32.5162 59.0283 32.3208 58.5685 32.2396 58.0825C32.1583 57.5964 32.1935 57.098 32.3421 56.6282C32.4907 56.1584 32.7486 55.7307 33.0946 55.3801C33.4405 55.0295 33.8646 54.7662 34.332 54.6117L59.6759 46.2004L60.7 49.3209L35.5781 57.657L40.2584 63.9595L37.6263 65.9179Z" fill="#F36A4F"/>
<path d="M13.0574 46.2358C11.222 40.9647 10.5239 35.3639 11.0091 29.8029L14.259 30.2608C13.8483 35.2965 14.4865 40.3628 16.1332 45.1386L13.0574 46.2358Z" fill="#F36A4F"/>
<path d="M69.1587 0.00390625L66.2449 7.41753L69.3008 8.6215L72.2147 1.20788L69.1587 0.00390625Z" fill="#F36A4F"/>
<path d="M82.9043 7.91716L77.6492 13.1785L79.969 15.501L85.224 10.2397L82.9043 7.91716Z" fill="#F36A4F"/>
<path d="M88 24.8578H79.7932V28.1457H88V24.8578Z" fill="#F36A4F"/>
</svg>
