<svg width="78" height="80" viewBox="0 0 78 80" fill="none" xmlns="http://www.w3.org/2000/svg">
<path d="M10.5076 19.65C11.6069 19.65 12.4981 18.7615 12.4981 17.6655C12.4981 16.5694 11.6069 15.6809 10.5076 15.6809C9.40827 15.6809 8.51708 16.5694 8.51708 17.6655C8.51708 18.7615 9.40827 19.65 10.5076 19.65Z" fill="#F36A4F"/>
<path d="M67.1163 28.4827C68.2156 28.4827 69.1068 27.5942 69.1068 26.4981C69.1068 25.4021 68.2156 24.5136 67.1163 24.5136C66.0169 24.5136 65.1257 25.4021 65.1257 26.4981C65.1257 27.5942 66.0169 28.4827 67.1163 28.4827Z" fill="#F36A4F"/>
<path d="M29.0588 4.56935C30.1581 4.56935 31.0493 3.68085 31.0493 2.58482C31.0493 1.48879 30.1581 0.600281 29.0588 0.600281C27.9594 0.600281 27.0683 1.48879 27.0683 2.58482C27.0683 3.68085 27.9594 4.56935 29.0588 4.56935Z" fill="#F36A4F"/>
<path d="M9.07044 28.4298H6.30262V31.6584H9.07044V28.4298Z" fill="#F36A4F"/>
<path d="M9.07044 33.3647H6.30262V36.5933H9.07044V33.3647Z" fill="#F36A4F"/>
<path d="M6.71317 31.0145H3.47483V33.774H6.71317V31.0145Z" fill="#F36A4F"/>
<path d="M11.8983 31.0145H8.66V33.774H11.8983V31.0145Z" fill="#F36A4F"/>
<path d="M59.4425 0H56.6747V3.22861H59.4425V0Z" fill="#F36A4F"/>
<path d="M59.4425 4.93504H56.6747V8.16365H59.4425V4.93504Z" fill="#F36A4F"/>
<path d="M57.0852 2.58472H53.8469V5.34422H57.0852V2.58472Z" fill="#F36A4F"/>
<path d="M62.27 2.58472H59.0317V5.34422H62.27V2.58472Z" fill="#F36A4F"/>
<path d="M24.2036 18.3967H20.8108V22.3566H24.2036V18.3967Z" fill="#F36A4F"/>
<path d="M24.2036 24.4469H20.8108V28.4067H24.2036V24.4469Z" fill="#F36A4F"/>
<path d="M21.3157 21.5655H17.3438V24.9482H21.3157V21.5655Z" fill="#F36A4F"/>
<path d="M27.6727 21.5655H23.7009V24.9482H27.6727V21.5655Z" fill="#F36A4F"/>
<path d="M43.1099 79.9978C41.8323 79.9845 40.5612 79.8153 39.3249 79.4942C38.6929 79.3378 37.0438 78.7859 33.9346 77.7465C28.023 75.7689 14.177 71.1306 12.1542 71.4181C10.8556 71.5974 9.26185 72.1079 7.41434 72.9105C7.24774 72.9836 7.06834 73.0232 6.88638 73.0272C6.70442 73.0312 6.52346 72.9993 6.35383 72.9336C6.1842 72.8678 6.02922 72.7694 5.89775 72.6439C5.76628 72.5184 5.66088 72.3683 5.58758 72.2022C5.51428 72.0361 5.47451 71.8573 5.47054 71.6759C5.46657 71.4945 5.49848 71.314 5.56445 71.1449C5.63042 70.9758 5.72915 70.8213 5.85501 70.6902C5.98087 70.5591 6.13139 70.454 6.29798 70.381C8.37384 69.4611 10.2191 68.8954 11.7736 68.6793C14.004 68.3711 21.9223 70.8087 34.8157 75.1181C37.2975 75.9482 39.4425 76.6657 39.9961 76.8037C42.4987 77.4269 44.0071 77.1785 44.2262 77.1371C47.9166 75.9873 51.9415 72.492 57.4956 67.6744C60.1965 65.3334 63.2619 62.6774 66.8738 59.7684C68.6683 58.3243 70.2506 57.0618 71.5561 56.0224C73.2444 54.6771 74.7275 53.4929 75.2165 53.0674C75.2477 52.8243 75.1869 52.5783 75.0458 52.3776C74.6698 51.8464 73.6619 51.5612 72.2918 51.5819C69.441 51.6325 59.8205 57.6275 51.7939 63.5213C50.3736 64.5493 49.0208 65.6669 47.7437 66.8672C47.482 67.1222 47.1298 67.2635 46.7639 67.2602C46.3981 67.2569 46.0484 67.1094 45.7914 66.8498C45.5344 66.5902 45.391 66.2397 45.3924 65.875C45.3939 65.5102 45.5402 65.1609 45.7993 64.9034C47.1717 63.6133 48.6279 62.4149 50.1586 61.316C52.9748 59.2464 67.2752 48.9282 72.248 48.8385C75.9823 48.7718 77.2647 50.4735 77.7006 51.4945C78.2173 52.7087 78.0512 54.1781 77.3108 54.9163C76.9441 55.2819 75.8139 56.1857 73.2906 58.1955C71.9874 59.2326 70.4097 60.4951 68.6176 61.9323C65.0425 64.8091 62.0002 67.4513 59.3177 69.7739C53.4799 74.8329 49.2636 78.4916 44.9966 79.8069L44.932 79.8253C44.3336 79.9545 43.722 80.0124 43.1099 79.9978Z" fill="#F36A4F"/>
<path d="M3.38278 75.0238C3.15376 75.0172 2.92964 74.9561 2.72905 74.8457C2.52846 74.7354 2.35721 74.5788 2.22953 74.3891C2.10728 74.2006 1.56525 73.2118 2.80154 72.3701C2.95859 72.2753 3.13284 72.2122 3.31433 72.1845C3.49583 72.1569 3.68101 72.1651 3.85931 72.2088C4.03762 72.2524 4.20555 72.3307 4.35352 72.4391C4.50149 72.5474 4.6266 72.6838 4.72171 72.8404C4.81682 72.997 4.88006 73.1707 4.90783 73.3516C4.9356 73.5326 4.92735 73.7172 4.88355 73.895C4.83975 74.0727 4.76126 74.2402 4.65256 74.3877C4.54386 74.5352 4.40708 74.6599 4.25003 74.7548C3.99048 74.9206 3.69087 75.0135 3.38278 75.0238Z" fill="#F36A4F"/>
<path d="M55.4661 53.9804L53.9899 51.6463L55.1593 50.9105C55.8513 50.4735 56.4948 50.0573 57.0599 49.6894C59.8692 47.8635 61.726 46.6585 64.1386 46.9897C67.3677 47.4312 69.1714 50.2436 69.2452 50.3632L69.9833 51.5314L67.6422 53.0031L66.9064 51.8395C66.8649 51.7751 65.6609 49.9837 63.7603 49.7239C62.4249 49.5399 61.2739 50.2459 58.5707 52.0028C57.9963 52.3753 57.3482 52.7961 56.6355 53.2445L55.4661 53.9804Z" fill="#F36A4F"/>
<path d="M43.4237 62.8844C38.0472 62.8844 31.8912 62.6406 30.0459 62.5624C29.8642 62.5547 29.6858 62.5114 29.5208 62.435C29.3559 62.3585 29.2077 62.2504 29.0846 62.1168C28.9616 61.9833 28.8661 61.8269 28.8037 61.6565C28.7413 61.4862 28.7131 61.3052 28.7209 61.124C28.7286 60.9429 28.772 60.765 28.8487 60.6005C28.9254 60.4361 29.0338 60.2883 29.1678 60.1656C29.3018 60.0429 29.4586 59.9478 29.6295 59.8855C29.8004 59.8233 29.9818 59.7952 30.1636 59.8029C37.8097 60.1272 49.3284 60.3249 50.996 59.7477C51.9716 59.4097 52.5529 58.3841 52.5529 57.0044C52.5529 55.8316 51.169 55.144 50.5577 54.8979C48.754 54.3046 24.7248 50.1792 19.9434 51.2991C17.6369 51.8372 10.948 54.6588 5.70074 57.048C5.36705 57.2005 4.98627 57.2146 4.64217 57.0871C4.29807 56.9597 4.01884 56.7012 3.86591 56.3685C3.71298 56.0358 3.69887 55.6562 3.82669 55.3131C3.95451 54.9701 4.21379 54.6917 4.54749 54.5392C5.6869 54.0195 15.7871 49.4318 19.3091 48.6086C24.9762 47.284 49.9511 51.6808 51.568 52.327C53.9529 53.279 55.3184 54.983 55.3184 57.0021C55.3184 59.573 54.0083 61.6242 51.9001 62.3532C50.7423 62.7579 47.2825 62.8844 43.4237 62.8844Z" fill="#F36A4F"/>
<path d="M1.39904 58.9337C1.11138 58.9312 0.831191 58.842 0.595306 58.6779C0.359421 58.5137 0.17888 58.2822 0.0774132 58.0138C0.0335895 57.8897 -0.319306 56.7905 0.9585 56.2018C1.13418 56.1399 1.32037 56.1131 1.50644 56.1229C1.69251 56.1327 1.87481 56.179 2.04294 56.2591C2.21107 56.3391 2.36174 56.4515 2.48633 56.5896C2.61093 56.7277 2.70702 56.889 2.76911 57.0641C2.8312 57.2393 2.85809 57.4249 2.84822 57.6104C2.83836 57.7959 2.79195 57.9777 2.71163 58.1453C2.63131 58.3129 2.51867 58.4631 2.38012 58.5873C2.24158 58.7116 2.07985 58.8074 1.90417 58.8693C1.73925 58.9122 1.56949 58.9338 1.39904 58.9337Z" fill="#F36A4F"/>
<path d="M46.5673 67.0696C46.2765 67.0692 45.9932 66.9775 45.7577 66.8074C44.353 65.7933 40.5565 63.7582 38.3769 62.8499C38.038 62.7093 37.769 62.4402 37.629 62.1019C37.4891 61.7636 37.4897 61.3837 37.6307 61.0458C37.7717 60.708 38.0416 60.4398 38.3809 60.3003C38.7202 60.1608 39.1013 60.1614 39.4402 60.3019C41.5944 61.1988 45.6816 63.3466 47.3792 64.57C47.6161 64.741 47.7926 64.9824 47.8833 65.2596C47.974 65.5368 47.9743 65.8356 47.8841 66.113C47.7939 66.3904 47.6179 66.6321 47.3813 66.8036C47.1447 66.9751 46.8598 67.0674 46.5673 67.0673V67.0696Z" fill="#F36A4F"/>
<path d="M42.5679 13.6526C41.4073 13.6526 40.2729 13.3095 39.3079 12.6667C38.343 12.0239 37.5909 11.1102 37.1468 10.0412C36.7026 8.97225 36.5864 7.79598 36.8129 6.66117C37.0393 5.52635 37.5981 4.48396 38.4187 3.6658C39.2394 2.84765 40.2849 2.29048 41.4231 2.06475C42.5614 1.83902 43.7412 1.95487 44.8134 2.39765C45.8856 2.84044 46.802 3.59026 47.4467 4.55231C48.0915 5.51436 48.4356 6.64542 48.4356 7.80247C48.4338 9.35346 47.815 10.8404 46.715 11.9371C45.615 13.0338 44.1235 13.6508 42.5679 13.6526ZM42.5679 5.53279C42.1181 5.53279 41.6784 5.66576 41.3044 5.91491C40.9304 6.16405 40.6389 6.51817 40.4668 6.93248C40.2946 7.34679 40.2496 7.80269 40.3373 8.24252C40.4251 8.68235 40.6417 9.08635 40.9598 9.40345C41.2778 9.72055 41.683 9.9365 42.1242 10.024C42.5653 10.1115 43.0226 10.0666 43.4382 9.89496C43.8537 9.72335 44.2089 9.43273 44.4588 9.05986C44.7087 8.68699 44.8421 8.24862 44.8421 7.80017C44.8409 7.19941 44.6008 6.62363 44.1745 6.19904C43.7482 5.77446 43.1704 5.53569 42.5679 5.53508V5.53279Z" fill="#F36A4F"/>
<path d="M50.2809 33.3624L35.8444 33.2566C35.5903 33.2547 35.3394 33.1992 35.1084 33.0935C34.8774 32.9879 34.6716 32.8346 34.5044 32.6438C34.3372 32.453 34.2125 32.229 34.1385 31.9866C34.0646 31.7442 34.043 31.4889 34.0753 31.2375L35.4938 20.2134C35.555 19.7419 35.8015 19.314 36.1791 19.0238C36.5568 18.7336 37.0346 18.6048 37.5074 18.6657C37.9803 18.7267 38.4095 18.9725 38.7006 19.349C38.9917 19.7255 39.1209 20.2018 39.0597 20.6733L37.9064 29.6945L48.0943 29.7704L46.2006 20.6963C46.1043 20.2309 46.1973 19.7465 46.4592 19.3495C46.7211 18.9526 47.1305 18.6756 47.5972 18.5795C48.064 18.4835 48.5499 18.5762 48.9481 18.8373C49.3462 19.0984 49.624 19.5066 49.7204 19.9719L52.0453 31.2146C52.0991 31.475 52.094 31.744 52.0305 32.0023C51.967 32.2605 51.8466 32.5014 51.6781 32.7074C51.5096 32.9135 51.2972 33.0796 51.0564 33.1937C50.8155 33.3078 50.5521 33.367 50.2855 33.367L50.2809 33.3624Z" fill="#F36A4F"/>
<path d="M47.9607 22.1197C47.5978 22.1191 47.2435 22.0089 46.9446 21.8037C46.6457 21.5984 46.4162 21.3077 46.2862 20.9699C45.4674 18.8658 44.8838 17.9437 42.7342 17.9414H42.7203C39.9848 17.9414 39.5765 19.2383 39.1821 20.4939L39.1268 20.6687C39.042 20.9333 38.8967 21.1746 38.7023 21.3736C38.5079 21.5726 38.2698 21.7238 38.0067 21.8153C37.7436 21.9067 37.4627 21.9359 37.1864 21.9005C36.91 21.8652 36.6457 21.7662 36.4143 21.6115L28.0601 16.0419C27.6641 15.7775 27.3895 15.3671 27.297 14.9009C27.2044 14.4347 27.3014 13.951 27.5666 13.5561C27.8317 13.1612 28.2434 12.8875 28.711 12.7952C29.1786 12.7029 29.6638 12.7996 30.0599 13.0639L36.6012 17.4331C37.4822 15.9522 39.1937 14.3678 42.7226 14.3678H42.7411C46.2931 14.3678 47.9607 16.2443 48.881 17.9713L55.879 14.9013C56.0957 14.8017 56.3301 14.7462 56.5686 14.7379C56.8071 14.7296 57.0448 14.7688 57.268 14.8531C57.4911 14.9374 57.6952 15.0652 57.8682 15.229C58.0413 15.3928 58.1799 15.5893 58.2759 15.8071C58.372 16.0249 58.4236 16.2596 58.4276 16.4975C58.4317 16.7354 58.3883 16.9717 58.2997 17.1926C58.2112 17.4135 58.0795 17.6147 57.9121 17.7843C57.7448 17.9539 57.5452 18.0886 57.3251 18.1805L48.6827 21.9679C48.4552 22.0678 48.2093 22.1195 47.9607 22.1197Z" fill="#F36A4F"/>
<path d="M39.3482 43.7749C38.8717 43.7749 38.4147 43.5861 38.0777 43.2502C37.7408 42.9142 37.5515 42.4586 37.5515 41.9835V33.3233C37.5515 32.8482 37.7408 32.3925 38.0777 32.0566C38.4147 31.7206 38.8717 31.5319 39.3482 31.5319C39.8248 31.5319 40.2818 31.7206 40.6188 32.0566C40.9557 32.3925 41.145 32.8482 41.145 33.3233V41.9835C41.145 42.2187 41.0985 42.4517 41.0082 42.669C40.9179 42.8863 40.7856 43.0838 40.6188 43.2502C40.4519 43.4165 40.2538 43.5485 40.0358 43.6385C39.8178 43.7285 39.5842 43.7749 39.3482 43.7749Z" fill="#F36A4F"/>
<path d="M46.0692 43.7749H46.0508C45.8146 43.7728 45.5812 43.7243 45.3639 43.6322C45.1465 43.54 44.9495 43.4061 44.7842 43.238C44.6188 43.0699 44.4883 42.871 44.4001 42.6526C44.3119 42.4342 44.2677 42.2006 44.2702 41.9651L44.3532 33.4981C44.3605 33.0273 44.5533 32.5784 44.89 32.2484C45.2266 31.9183 45.6801 31.7336 46.1523 31.7343H46.1707C46.4069 31.7364 46.6403 31.7849 46.8576 31.877C47.075 31.9691 47.272 32.103 47.4373 32.2711C47.6027 32.4392 47.7332 32.6382 47.8214 32.8566C47.9096 33.075 47.9538 33.3086 47.9513 33.544L47.8683 42.0111C47.861 42.4818 47.6682 42.9307 47.3315 43.2608C46.9949 43.5909 46.5414 43.7755 46.0692 43.7749Z" fill="#F36A4F"/>
</svg>
