<svg width="40" height="40" viewBox="0 0 40 40" fill="none" xmlns="http://www.w3.org/2000/svg">
<path d="M20.0017 40C16.0459 40.0003 12.1789 38.8276 8.88965 36.6301C5.60041 34.4326 3.0367 31.309 1.52274 27.6544C0.00877857 23.9999 -0.387429 19.9784 0.384222 16.0986C1.15587 12.2188 3.06072 8.65502 5.85787 5.85787C8.65502 3.06072 12.2188 1.15587 16.0986 0.384222C19.9784 -0.387429 23.9999 0.00877857 27.6544 1.52274C31.309 3.0367 34.4326 5.60041 36.6301 8.88965C38.8276 12.1789 40.0003 16.0459 40 20.0017C39.9938 25.3037 37.8848 30.3867 34.1358 34.1358C30.3867 37.8848 25.3037 39.9938 20.0017 40ZM20.0017 2.01275C16.4437 2.01241 12.9656 3.06716 10.0071 5.04361C7.04862 7.02006 4.74267 9.82943 3.38088 13.1165C2.01908 16.4035 1.6626 20.0205 2.35652 23.5101C3.05044 26.9997 4.76358 30.2052 7.27931 32.7212C9.79504 35.2372 13.0004 36.9506 16.4899 37.6448C19.9795 38.3391 23.5965 37.9829 26.8837 36.6215C30.1708 35.26 32.9804 32.9543 34.9571 29.996C36.9339 27.0377 37.9889 23.5596 37.9889 20.0017C37.9836 15.2326 36.0869 10.6604 32.7148 7.28805C29.3428 3.91567 24.7707 2.01851 20.0017 2.01275Z" fill="#F36A4F"/>
<path d="M18.7612 20.625V19.437C18.7359 17.8331 18.7612 9.88244 18.7612 9.88095L18.7618 8.75C18.7618 8.75 19.0681 8.125 19.6875 8.125C20.3069 8.125 20.6244 8.75 20.6244 8.75L20.625 9.88095C20.625 9.88095 20.5991 17.8212 20.6244 19.437V20.625H18.7612Z" fill="#F36A4F"/>
<path d="M4.6852 21.25C4.46834 21.2495 4.25836 21.1738 4.09105 21.0358C3.92373 20.8978 3.80943 20.7061 3.7676 20.4933C3.72578 20.2805 3.75902 20.0598 3.86167 19.8688C3.96431 19.6777 4.13002 19.5282 4.33055 19.4456C4.53108 19.363 4.75404 19.3525 4.96144 19.4159C5.16884 19.4793 5.34786 19.6126 5.468 19.7931C5.58814 19.9737 5.64196 20.1903 5.62032 20.4061C5.59867 20.6219 5.50288 20.8235 5.34926 20.9766C5.1724 21.1514 4.93387 21.2496 4.6852 21.25Z" fill="#F36A4F"/>
<path d="M35.3102 21.25C35.0933 21.2495 34.8834 21.1738 34.716 21.0358C34.5487 20.8978 34.4344 20.7061 34.3926 20.4933C34.3508 20.2805 34.384 20.0598 34.4867 19.8688C34.5893 19.6777 34.755 19.5282 34.9555 19.4456C35.1561 19.363 35.379 19.3525 35.5864 19.4159C35.7938 19.4793 35.9729 19.6126 36.093 19.7931C36.2131 19.9737 36.267 20.1903 36.2453 20.4061C36.2237 20.6219 36.1279 20.8235 35.9743 20.9766C35.7974 21.1514 35.5589 21.2496 35.3102 21.25Z" fill="#F36A4F"/>
<path d="M19.6852 5.625C19.4683 5.62447 19.2584 5.54877 19.091 5.41079C18.9237 5.27282 18.8094 5.0811 18.7676 4.86831C18.7258 4.65551 18.759 4.4348 18.8617 4.24376C18.9643 4.05273 19.13 3.90319 19.3305 3.82061C19.5311 3.73804 19.754 3.72755 19.9614 3.79092C20.1688 3.85428 20.3479 3.9876 20.468 4.16815C20.5881 4.34869 20.642 4.56531 20.6203 4.78109C20.5987 4.99688 20.5029 5.19848 20.3493 5.35156C20.1724 5.52637 19.9339 5.62459 19.6852 5.625Z" fill="#F36A4F"/>
<path d="M20.3102 36.25C20.0933 36.2495 19.8834 36.1738 19.716 36.0358C19.5487 35.8978 19.4344 35.7061 19.3926 35.4933C19.3508 35.2805 19.384 35.0598 19.4867 34.8688C19.5893 34.6777 19.755 34.5282 19.9555 34.4456C20.1561 34.363 20.379 34.3525 20.5864 34.4159C20.7938 34.4793 20.9729 34.6126 21.093 34.7931C21.2131 34.9737 21.267 35.1903 21.2453 35.4061C21.2237 35.6219 21.1279 35.8235 20.9743 35.9766C20.7974 36.1514 20.5589 36.2496 20.3102 36.25Z" fill="#F36A4F"/>
<path d="M18.75 19.3863L19.4766 19.3863C21.4083 19.3609 28.0861 19.3862 28.0861 19.3862L29.375 19.3863C29.375 19.3863 30 19.6875 30 20.3125C30 20.9375 29.375 21.25 29.375 21.25H28.0861C28.0861 21.25 21.4062 21.25 19.4766 21.25H18.75V19.3863Z" fill="#F36A4F"/>
</svg>
