<svg width="16" height="16" viewBox="0 0 16 16" fill="none" xmlns="http://www.w3.org/2000/svg">
<path d="M8.00067 16C6.41837 16.0001 4.87155 15.531 3.55586 14.652C2.24016 13.773 1.21468 12.5236 0.609096 11.0618C0.00351143 9.59994 -0.154972 7.99135 0.153689 6.43944C0.462349 4.88753 1.22429 3.46201 2.34315 2.34315C3.46201 1.22429 4.88753 0.462349 6.43944 0.153689C7.99135 -0.154972 9.59994 0.00351143 11.0618 0.609096C12.5236 1.21468 13.773 2.24016 14.652 3.55586C15.531 4.87155 16.0001 6.41837 16 8.00067C15.9975 10.1215 15.1539 12.1547 13.6543 13.6543C12.1547 15.1539 10.1215 15.9975 8.00067 16ZM8.00067 0.805098C6.57749 0.804966 5.18624 1.22687 4.00284 2.01745C2.81945 2.80802 1.89707 3.93177 1.35235 5.24658C0.807632 6.56139 0.66504 8.0082 0.942607 9.40405C1.22017 10.7999 1.90543 12.0821 2.91173 13.0885C3.91802 14.0949 5.20015 14.7802 6.59597 15.0579C7.99179 15.3356 9.43861 15.1932 10.7535 14.6486C12.0683 14.104 13.1922 13.1817 13.9829 11.9984C14.7735 10.8151 15.1956 9.42385 15.1956 8.00067C15.1934 6.09306 14.4348 4.26417 13.0859 2.91522C11.7371 1.56627 9.90829 0.807405 8.00067 0.805098Z" fill="#F9B5A7"/>
<path d="M7.5045 8.25V7.7748C7.49438 7.13323 7.5045 3.95298 7.5045 3.95238L7.50473 3.5C7.50473 3.5 7.62725 3.25 7.875 3.25C8.12275 3.25 8.24977 3.5 8.24977 3.5L8.25 3.95238C8.25 3.95238 8.23965 7.12848 8.24977 7.7748V8.25H7.5045Z" fill="#F9B5A7"/>
<path d="M1.87408 8.5C1.78733 8.49979 1.70334 8.46951 1.63642 8.41432C1.56949 8.35913 1.52377 8.28244 1.50704 8.19732C1.49031 8.11221 1.50361 8.02392 1.54467 7.94751C1.58573 7.87109 1.65201 7.81127 1.73222 7.77825C1.81243 7.74522 1.90161 7.74102 1.98457 7.76637C2.06754 7.79171 2.13914 7.84504 2.1872 7.91726C2.23525 7.98948 2.25679 8.07612 2.24813 8.16244C2.23947 8.24875 2.20115 8.32939 2.1397 8.39062C2.06896 8.46055 1.97355 8.49984 1.87408 8.5Z" fill="#F9B5A7"/>
<path d="M14.1241 8.5C14.0373 8.49979 13.9533 8.46951 13.8864 8.41432C13.8195 8.35913 13.7738 8.28244 13.757 8.19732C13.7403 8.11221 13.7536 8.02392 13.7947 7.94751C13.8357 7.87109 13.902 7.81127 13.9822 7.77825C14.0624 7.74522 14.1516 7.74102 14.2346 7.76637C14.3175 7.79171 14.3891 7.84504 14.4372 7.91726C14.4853 7.98948 14.5068 8.07612 14.4981 8.16244C14.4895 8.24875 14.4511 8.32939 14.3897 8.39062C14.319 8.46055 14.2235 8.49984 14.1241 8.5Z" fill="#F9B5A7"/>
<path d="M7.87408 2.25C7.78733 2.24979 7.70334 2.21951 7.63642 2.16432C7.56949 2.10913 7.52377 2.03244 7.50704 1.94732C7.49031 1.86221 7.50361 1.77392 7.54467 1.69751C7.58573 1.62109 7.65201 1.56127 7.73222 1.52825C7.81243 1.49522 7.90161 1.49102 7.98457 1.51637C8.06754 1.54171 8.13914 1.59504 8.1872 1.66726C8.23525 1.73948 8.25679 1.82612 8.24813 1.91244C8.23947 1.99875 8.20115 2.07939 8.1397 2.14062C8.06896 2.21055 7.97355 2.24984 7.87408 2.25Z" fill="#F9B5A7"/>
<path d="M8.12408 14.5C8.03733 14.4998 7.95334 14.4695 7.88642 14.4143C7.81949 14.3591 7.77377 14.2824 7.75704 14.1973C7.74031 14.1122 7.75361 14.0239 7.79467 13.9475C7.83573 13.8711 7.90201 13.8113 7.98222 13.7782C8.06243 13.7452 8.15161 13.741 8.23458 13.7664C8.31754 13.7917 8.38914 13.845 8.4372 13.9173C8.48525 13.9895 8.50679 14.0761 8.49813 14.1624C8.48947 14.2487 8.45115 14.3294 8.3897 14.3906C8.31896 14.4605 8.22355 14.4998 8.12408 14.5Z" fill="#F9B5A7"/>
<path d="M7.5 7.75451L7.79063 7.7545C8.56332 7.74438 11.2344 7.75449 11.2344 7.75449L11.75 7.75451C11.75 7.75451 12 7.875 12 8.125C12 8.375 11.75 8.5 11.75 8.5H11.2344C11.2344 8.5 8.5625 8.5 7.79063 8.5H7.5V7.75451Z" fill="#F9B5A7"/>
</svg>
