<svg width="16" height="16" viewBox="0 0 16 16" fill="none" xmlns="http://www.w3.org/2000/svg">
<path d="M10 3.55995C9.44772 3.55995 9 3.11223 9 2.55995V1.00439C9 0.452109 8.55228 0.00439453 8 0.00439453H1C0.447715 0.00439453 0 0.45211 0 1.00439V15.0044C0 15.5567 0.447715 16.0044 1 16.0044H15C15.5523 16.0044 16 15.5567 16 15.0044V4.55995C16 4.00766 15.5523 3.55995 15 3.55995H10ZM3.6 13.3377C3.6 13.8286 3.20203 14.2266 2.71111 14.2266H2.68889C2.19797 14.2266 1.8 13.8286 1.8 13.3377V13.3377C1.8 12.8468 2.19797 12.4488 2.68889 12.4488H2.71111C3.20203 12.4488 3.6 12.8468 3.6 13.3377V13.3377ZM3.6 9.78217C3.6 10.2731 3.20203 10.6711 2.71111 10.6711H2.68889C2.19797 10.6711 1.8 10.2731 1.8 9.78217V9.78217C1.8 9.29125 2.19797 8.89328 2.68889 8.89328H2.71111C3.20203 8.89328 3.6 9.29125 3.6 9.78217V9.78217ZM3.6 6.22662C3.6 6.71754 3.20203 7.11551 2.71111 7.11551H2.68889C2.19797 7.11551 1.8 6.71754 1.8 6.22662V6.22662C1.8 5.7357 2.19797 5.33773 2.68889 5.33773H2.71111C3.20203 5.33773 3.6 5.7357 3.6 6.22662V6.22662ZM3.6 2.67106C3.6 3.16198 3.20203 3.55995 2.71111 3.55995H2.68889C2.19797 3.55995 1.8 3.16198 1.8 2.67106V2.67106C1.8 2.18014 2.19797 1.78217 2.68889 1.78217H2.71111C3.20203 1.78217 3.6 2.18014 3.6 2.67106V2.67106ZM7.2 13.3377C7.2 13.8286 6.80203 14.2266 6.31111 14.2266H6.28889C5.79797 14.2266 5.4 13.8286 5.4 13.3377V13.3377C5.4 12.8468 5.79797 12.4488 6.28889 12.4488H6.31111C6.80203 12.4488 7.2 12.8468 7.2 13.3377V13.3377ZM7.2 9.78217C7.2 10.2731 6.80203 10.6711 6.31111 10.6711H6.28889C5.79797 10.6711 5.4 10.2731 5.4 9.78217V9.78217C5.4 9.29125 5.79797 8.89328 6.28889 8.89328H6.31111C6.80203 8.89328 7.2 9.29125 7.2 9.78217V9.78217ZM7.2 6.22662C7.2 6.71754 6.80203 7.11551 6.31111 7.11551H6.28889C5.79797 7.11551 5.4 6.71754 5.4 6.22662V6.22662C5.4 5.7357 5.79797 5.33773 6.28889 5.33773H6.31111C6.80203 5.33773 7.2 5.7357 7.2 6.22662V6.22662ZM7.2 2.67106C7.2 3.16198 6.80203 3.55995 6.31111 3.55995H6.28889C5.79797 3.55995 5.4 3.16198 5.4 2.67106V2.67106C5.4 2.18014 5.79797 1.78217 6.28889 1.78217H6.31111C6.80203 1.78217 7.2 2.18014 7.2 2.67106V2.67106ZM14.5 13.2266C14.5 13.7789 14.0523 14.2266 13.5 14.2266H9.88889C9.39797 14.2266 9 13.8286 9 13.3377V13.3377C9 12.8468 9.39797 12.4488 9.88889 12.4488H14.6111C15.102 12.4488 15.5 12.0509 15.5 11.56V11.56C15.5 11.069 15.102 10.6711 14.6111 10.6711H9.88889C9.39797 10.6711 9 10.2731 9 9.78217V9.78217C9 9.29125 9.39797 8.89328 9.88889 8.89328H14.6111C15.102 8.89328 15.5 8.49531 15.5 8.00439V8.00439C15.5 7.51347 15.102 7.11551 14.6111 7.11551H14.5H9.88889C9.39797 7.11551 9 6.71754 9 6.22662V6.22662C9 5.7357 9.39797 5.33773 9.88889 5.33773H13.5C14.0523 5.33773 14.5 5.78544 14.5 6.33773V13.2266Z" fill="#333333"/>
</svg>
