<svg width="64" height="64" viewBox="0 0 64 64" fill="none" xmlns="http://www.w3.org/2000/svg">
<path d="M31.9961 64C25.6675 63.9992 19.4811 62.1219 14.2194 58.6054C8.95758 55.0889 4.85666 50.0912 2.43513 44.2441C0.0136049 38.397 -0.619776 31.9632 0.615074 25.7562C1.84992 19.5491 4.89755 13.8476 9.37259 9.37259C13.8476 4.89755 19.5491 1.84992 25.7562 0.615074C31.9632 -0.619776 38.397 0.0136049 44.2441 2.43513C50.0912 4.85666 55.0889 8.95758 58.6054 14.2194C62.1219 19.4811 63.9992 25.6675 64 31.9961C63.9908 40.4813 60.616 48.6162 54.6161 54.6161C48.6162 60.616 40.4813 63.9908 31.9961 64ZM32 3C26.5873 3.00076 20.5001 4.99231 16 8C11.4999 11.0077 7.57082 15.9991 5.5 21C3.42918 26.0009 2.94357 32.1914 4 37.5C5.05643 42.8086 7.67238 47.6729 11.5 51.5C15.3276 55.3271 20.6913 58.9443 26 60C31.3087 61.0557 38.4021 60.0715 43.4027 58C48.4033 55.9285 52.9929 51.7363 56 47.2357C59.0071 42.7352 60.5 37.4127 60.5 32C60.4898 24.744 57.1311 17.1468 52 12.0164C46.8689 6.88604 39.256 3.00919 32 3Z" fill="#F36A4F"/>
<path d="M28 52C28.9648 52.2018 29.9749 52.4079 31 52.5V46.7878C30.0102 46.678 28.9992 46.4386 28 46.0806V52Z" fill="#F36A4F"/>
<path d="M36 46.6139C35.0215 46.8012 34.0169 46.8942 33 46.8951V52.5C34.0142 52.5066 35.0238 52.6422 36 52.5V46.6139Z" fill="#F36A4F"/>
<path d="M33 53H36V52.5C35.0238 52.6422 34.0142 52.5066 33 52.5V53Z" fill="#F36A4F"/>
<path d="M28 53H31V52.5C29.9749 52.4079 28.9648 52.2018 28 52V53Z" fill="#F36A4F"/>
<path d="M28 10V11.5C28 11.5 29.4789 11.1439 31 10.9765V10H28Z" fill="#F36A4F"/>
<path d="M28 11.5V18.807C28.3288 18.7066 28.6623 18.6182 29 18.5422C29.6522 18.3954 30.3202 18.2947 31 18.2427V10.9765C29.4789 11.1439 28 11.5 28 11.5Z" fill="#F36A4F"/>
<path d="M28 20H31V18.2427C30.3202 18.2947 29.6522 18.3954 29 18.5422C28.6623 18.6182 28.3288 18.7066 28 18.807V20Z" fill="#F36A4F"/>
<path d="M32.7489 21.7477C33.5209 21.7477 37.381 22.1337 40.4034 23.9788C40.5111 24.0711 41.9344 24.1619 42.5 23C43.0656 21.8381 42.013 20.5896 42.013 20.5896C40.4604 19.6419 38.7639 18.9735 37 18.6054C36.6414 18.5277 36.3113 18.4617 36 18.4063C34.9113 18.2127 34.0517 18.1488 33 18.1662C32.6894 18.1713 32.3619 18.1836 32.0069 18.2017C31.6688 18.2034 31.333 18.2172 31 18.2427V20H28V18.807C22.7592 20.407 18.7283 25.0533 18.1076 31.2512C17.3757 38.5638 22.5082 44.1132 28 46.0806V45H31V46.7878C31.1979 46.8098 31.3949 46.8266 31.5908 46.8381C32.0622 46.8764 32.5324 46.8955 33 46.8951V45H36V46.6139C38.7865 46.0808 41.3611 44.7835 43.4027 42.6731L44.387 41.654C44.5 41 44.6689 40.1689 44 39.5C43 38.5 42 39 41.627 39.118C40.9013 39.8012 37.6164 43.5069 31.9768 42.9781C30.8188 42.87 28.5028 42.9781 25.4147 40.276C21.7554 37.0721 21.8635 32.2432 21.9407 31.3978C22.3267 27.1518 24.2567 25.2217 26.1867 23.6777C27.0902 22.924 28.1388 22.3639 29.2676 22.0319C30.3963 21.6999 31.5812 21.6032 32.7489 21.7477Z" fill="#F36A4F"/>
<path d="M33 18.1662C34.0517 18.1488 34.9113 18.2127 36 18.4063V11.3032C35.0486 11.0519 34.166 10.9545 33 10.9096V18.1662Z" fill="#F36A4F"/>
<path d="M36 10H33V10.9096C34.166 10.9545 35.0486 11.0519 36 11.3032V10Z" fill="#F36A4F"/>
<path d="M21.5081 53.6122C24.8045 55.226 28.4263 56.0646 32.0965 56.0637C35.6625 56.069 39.1848 55.2793 42.4072 53.7522C45.6297 52.2252 48.746 50.2633 51 47.5C51 47.5 51.5 46.3333 50.5 45.5C49.5 44.6667 48.5 45.5 48.5 45.5C46.1634 48.3591 43.0056 50.4201 39.5 51.5798C38.7065 51.8423 36.8664 52.3738 36 52.5V53H33V52.5C32.3326 52.4956 31.6631 52.5596 31 52.5V53H28V52C27.6606 51.929 26.3268 51.5823 26 51.5C22.4193 50.5984 20.0384 48.7622 17.5 46.0806C14.9616 43.399 12.704 39.6248 12 36C11.296 32.3752 11.6499 27.9368 13 24.5C14.3501 21.0632 16.5171 17.6764 19.5 15.5C21.6998 13.895 25.1334 12.1541 28 11.5V10H31V10.9765C31.6066 10.9098 30.6841 10.8359 32.7489 10.9009C32.8341 10.9035 32.9177 10.9064 33 10.9096V10H36V11.3032C36.6079 11.4638 37.244 11.6872 38 12C39.5 12.5 40.5382 13.1976 42 14L43.6767 15C43.6767 15 45.1093 15.7638 46 14.5C46.7929 13.375 45.5 12 45.5 12L43.6767 10.9009C40.4598 9.13403 36.8813 8.12635 33.2151 7.95488C29.5489 7.78341 25.8921 8.4527 22.5242 9.91155C19.1564 11.3704 16.1669 13.5802 13.7842 16.3719C11.4016 19.1635 9.68895 22.4632 8.77736 26.0184C7.86577 29.5736 7.77935 33.2902 8.52471 36.8839C9.27008 40.4776 10.8275 43.8533 13.0778 46.7527C15.3281 49.6521 18.2117 51.9984 21.5081 53.6122Z" fill="#F36A4F"/>
<path d="M31 45H28V46.0806C28.9992 46.4386 30.0102 46.678 31 46.7878V45Z" fill="#F36A4F"/>
<path d="M36 45H33V46.8951C34.0169 46.8942 35.0215 46.8012 36 46.6139V45Z" fill="#F36A4F"/>
<path d="M52 18.5C52 19.8807 50.8807 21 49.5 21C48.1193 21 47 19.8807 47 18.5C47 17.1193 48.1193 16 49.5 16C50.8807 16 52 17.1193 52 18.5Z" fill="#F36A4F"/>
<path d="M55 25.5C55 26.8807 53.8807 28 52.5 28C51.1193 28 50 26.8807 50 25.5C50 24.1193 51.1193 23 52.5 23C53.8807 23 55 24.1193 55 25.5Z" fill="#F36A4F"/>
<path d="M56 32.5C56 33.8807 54.8807 35 53.5 35C52.1193 35 51 33.8807 51 32.5C51 31.1193 52.1193 30 53.5 30C54.8807 30 56 31.1193 56 32.5Z" fill="#F36A4F"/>
<path d="M55 40.5C55 41.8807 53.8807 43 52.5 43C51.1193 43 50 41.8807 50 40.5C50 39.1193 51.1193 38 52.5 38C53.8807 38 55 39.1193 55 40.5Z" fill="#F36A4F"/>
</svg>
