<svg width="75" height="80" viewBox="0 0 75 80" fill="none" xmlns="http://www.w3.org/2000/svg">
<path d="M10.1033 21.3362C11.1604 21.3362 12.0173 20.4725 12.0173 19.4071C12.0173 18.3417 11.1604 17.478 10.1033 17.478C9.04626 17.478 8.18935 18.3417 8.18935 19.4071C8.18935 20.4725 9.04626 21.3362 10.1033 21.3362Z" fill="#F36A4F"/>
<path d="M20.1788 43.334C21.2358 43.334 22.0927 42.4704 22.0927 41.4049C22.0927 40.3395 21.2358 39.4759 20.1788 39.4759C19.1217 39.4759 18.2648 40.3395 18.2648 41.4049C18.2648 42.4704 19.1217 43.334 20.1788 43.334Z" fill="#F36A4F"/>
<path d="M36.8122 4.44159C37.8693 4.44159 38.7262 3.57791 38.7262 2.51251C38.7262 1.4471 37.8693 0.58342 36.8122 0.58342C35.7552 0.58342 34.8983 1.4471 34.8983 2.51251C34.8983 3.57791 35.7552 4.44159 36.8122 4.44159Z" fill="#F36A4F"/>
<path d="M24.5944 8.53224H21.933V11.6729H24.5944V8.53224Z" fill="#F36A4F"/>
<path d="M24.5944 13.3293H21.933V16.4676H24.5944V13.3293Z" fill="#F36A4F"/>
<path d="M22.3256 11.0447H19.2118V13.7271H22.3256V11.0447Z" fill="#F36A4F"/>
<path d="M27.3112 11.0447H24.1974V13.7271H27.3112V11.0447Z" fill="#F36A4F"/>
<path d="M8.72162 29.8707H6.06027V33.0091H8.72162V29.8707Z" fill="#F36A4F"/>
<path d="M8.72162 34.6677H6.06027V37.8061H8.72162V34.6677Z" fill="#F36A4F"/>
<path d="M6.45503 32.3832H3.34125V35.0656H6.45503V32.3832Z" fill="#F36A4F"/>
<path d="M11.4406 32.3832H8.32685V35.0656H11.4406V32.3832Z" fill="#F36A4F"/>
<path d="M52.7205 0H50.0591V3.1384H52.7205V0Z" fill="#F36A4F"/>
<path d="M52.7205 4.79701H50.0591V7.93541H52.7205V4.79701Z" fill="#F36A4F"/>
<path d="M50.4539 2.51251H47.3401V5.1949H50.4539V2.51251Z" fill="#F36A4F"/>
<path d="M55.4395 2.51251H52.3257V5.1949H55.4395V2.51251Z" fill="#F36A4F"/>
<path d="M41.4518 79.9979C40.2234 79.9849 39.0012 79.8205 37.8124 79.5083C37.2048 79.3563 35.619 78.8198 32.6295 77.8095C26.9452 75.8871 13.6318 71.3784 11.6868 71.6579C10.4382 71.8322 8.9057 72.3285 7.12924 73.1086C6.96906 73.1796 6.79656 73.2182 6.6216 73.222C6.44663 73.2259 6.27263 73.1949 6.10952 73.131C5.94642 73.0671 5.7974 72.9714 5.67099 72.8494C5.54457 72.7274 5.44323 72.5816 5.37275 72.4201C5.30227 72.2587 5.26403 72.0848 5.26021 71.9084C5.25639 71.7321 5.28708 71.5567 5.35051 71.3923C5.41394 71.2279 5.50887 71.0777 5.62989 70.9503C5.75091 70.8229 5.89564 70.7208 6.05583 70.6497C8.05185 69.7556 9.82608 69.2057 11.3209 68.9956C13.4655 68.6961 21.0792 71.0655 33.4767 75.2545C35.863 76.0614 37.9255 76.7589 38.4578 76.893C40.8641 77.4988 42.3146 77.2573 42.5253 77.2171C46.0737 76.0994 49.9438 72.7018 55.2842 68.0187C57.8813 65.7432 60.8287 63.1614 64.3018 60.3337C66.0272 58.9299 67.5486 57.7027 68.8039 56.6923C70.4273 55.3847 71.8534 54.2335 72.3236 53.82C72.3536 53.5836 72.2951 53.3445 72.1594 53.1494C71.7979 52.633 70.8288 52.3558 69.5114 52.3759C66.7702 52.4251 57.5198 58.2526 49.8018 63.9817C48.4362 64.981 47.1354 66.0674 45.9074 67.2341C45.6558 67.482 45.3171 67.6193 44.9654 67.6162C44.6136 67.613 44.2774 67.4696 44.0303 67.2172C43.7831 66.9649 43.6452 66.6242 43.6466 66.2696C43.648 65.9151 43.7887 65.5755 44.0378 65.3252C45.3574 64.0712 46.7577 62.9063 48.2294 61.8381C50.9374 59.8263 64.6877 49.7964 69.4693 49.7092C73.0599 49.6444 74.293 51.2985 74.7121 52.291C75.2089 53.4712 75.0492 54.8996 74.3373 55.6172C73.9847 55.9726 72.898 56.8511 70.4717 58.8047C69.2187 59.8129 67.7017 61.0401 65.9784 62.4371C62.5409 65.2335 59.6156 67.8019 57.0363 70.0596C51.4231 74.9773 47.3689 78.5337 43.266 79.8123L43.2039 79.8302C42.6285 79.9558 42.0404 80.012 41.4518 79.9979Z" fill="#F36A4F"/>
<path d="M3.25254 75.1628C3.03232 75.1564 2.81682 75.097 2.62395 74.9897C2.43108 74.8824 2.26641 74.7303 2.14364 74.5459C2.0261 74.3626 1.50491 73.4014 2.69365 72.5833C2.84466 72.4911 3.01221 72.4298 3.18672 72.4029C3.36123 72.376 3.53929 72.384 3.71074 72.4264C3.88219 72.4689 4.04366 72.5449 4.18594 72.6503C4.32822 72.7556 4.44852 72.8882 4.53997 73.0404C4.63142 73.1926 4.69223 73.3615 4.71893 73.5374C4.74563 73.7133 4.7377 73.8927 4.69558 74.0655C4.65347 74.2383 4.57799 74.4011 4.47348 74.5445C4.36896 74.6879 4.23744 74.8091 4.08643 74.9013C3.83686 75.0625 3.54878 75.1528 3.25254 75.1628Z" fill="#F36A4F"/>
<path d="M53.3326 54.7074L51.9132 52.4385L53.0376 51.7232C53.7029 51.2985 54.3217 50.8939 54.8651 50.5363C57.5663 48.7614 59.3517 47.5901 61.6715 47.912C64.7764 48.3412 66.5107 51.075 66.5817 51.1912L67.2914 52.3268L65.0403 53.7574L64.3328 52.6263C64.2929 52.5637 63.1352 50.8224 61.3078 50.5698C60.0237 50.391 58.917 51.0772 56.3177 52.785C55.7655 53.1471 55.1423 53.5562 54.457 53.9921L53.3326 54.7074Z" fill="#F36A4F"/>
<path d="M41.7535 63.3626C36.5838 63.3626 30.6645 63.1256 28.8903 63.0496C28.7155 63.0421 28.5439 63 28.3853 62.9257C28.2267 62.8514 28.0842 62.7463 27.9659 62.6165C27.8476 62.4866 27.7558 62.3346 27.6958 62.169C27.6358 62.0034 27.6087 61.8275 27.6161 61.6514C27.6236 61.4753 27.6653 61.3024 27.7391 61.1425C27.8128 60.9827 27.917 60.839 28.0459 60.7197C28.1747 60.6005 28.3255 60.508 28.4898 60.4475C28.6541 60.387 28.8286 60.3597 29.0034 60.3672C36.3554 60.6824 47.431 60.8746 49.0345 60.3136C49.9726 59.985 50.5315 58.988 50.5315 57.6468C50.5315 56.5068 49.2008 55.8385 48.6131 55.5993C46.8788 55.0226 23.7738 51.0124 19.1763 52.101C16.9585 52.6241 10.5269 55.3668 5.48142 57.6893C5.16056 57.8375 4.79443 57.8512 4.46356 57.7273C4.1327 57.6034 3.86421 57.3522 3.71716 57.0288C3.57012 56.7054 3.55655 56.3363 3.67945 56.0029C3.80236 55.6694 4.05166 55.3988 4.37252 55.2506C5.46811 54.7454 15.1798 50.2859 18.5664 49.4857C24.0155 48.1981 48.0298 52.472 49.5845 53.1002C51.8777 54.0256 53.1906 55.682 53.1906 57.6446C53.1906 60.1437 51.9309 62.1376 49.9039 62.8462C48.7905 63.2396 45.4638 63.3626 41.7535 63.3626Z" fill="#F36A4F"/>
<path d="M1.34523 59.5223C1.06863 59.5199 0.799221 59.4332 0.572409 59.2736C0.345597 59.114 0.172 58.889 0.0744357 58.6281C0.0322975 58.5074 -0.307025 57.4389 0.921634 56.8667C1.09056 56.8065 1.26958 56.7805 1.4485 56.79C1.62741 56.7996 1.8027 56.8446 1.96436 56.9224C2.12603 57.0002 2.2709 57.1094 2.3907 57.2437C2.51051 57.378 2.6029 57.5347 2.6626 57.7049C2.72231 57.8752 2.74816 58.0556 2.73867 58.236C2.72919 58.4163 2.68456 58.593 2.60733 58.7559C2.5301 58.9189 2.42179 59.0649 2.28858 59.1856C2.15536 59.3064 1.99985 59.3995 1.83093 59.4597C1.67235 59.5014 1.50912 59.5224 1.34523 59.5223Z" fill="#F36A4F"/>
<path d="M44.7763 67.4309C44.4967 67.4305 44.2243 67.3413 43.9979 67.176C42.6472 66.1902 38.9967 64.212 36.9009 63.329C36.5751 63.1924 36.3164 62.9309 36.1819 62.602C36.0473 62.2731 36.0479 61.9039 36.1835 61.5754C36.319 61.247 36.5785 60.9863 36.9048 60.8507C37.2311 60.7151 37.5975 60.7156 37.9233 60.8523C39.9948 61.7241 43.9247 63.8119 45.557 65.0011C45.7848 65.1673 45.9545 65.402 46.0417 65.6714C46.1289 65.9409 46.1292 66.2313 46.0425 66.501C45.9558 66.7706 45.7865 67.0056 45.559 67.1723C45.3316 67.339 45.0575 67.4287 44.7763 67.4286V67.4309Z" fill="#F36A4F"/>
<path d="M57.3534 45.9717H28.3713V27.4185H31.0326V43.2893H54.701L54.752 27.6085L57.4133 27.6175L57.3534 45.9717Z" fill="#F36A4F"/>
<path d="M55.2499 19.8413L53.54 21.8967L59.6987 27.1017L61.4087 25.0462L55.2499 19.8413Z" fill="#F36A4F"/>
<path d="M30.8042 22.4695C30.5285 22.4697 30.2596 22.3837 30.0345 22.2232C29.8095 22.0627 29.6394 21.8358 29.5479 21.5737C29.4563 21.3116 29.4478 21.0273 29.5235 20.7601C29.5991 20.4929 29.7553 20.256 29.9703 20.0822L42.1682 10.202C42.4092 10.0067 42.7102 9.90215 43.0194 9.90622C43.3286 9.9103 43.6267 10.0228 43.8626 10.2244C43.9047 10.2601 48.1673 13.906 51.8688 17.0332C52.0028 17.1463 52.1133 17.285 52.1942 17.4412C52.275 17.5974 52.3245 17.7682 52.3398 17.9437C52.3551 18.1192 52.336 18.296 52.2836 18.4641C52.2311 18.6321 52.1463 18.7881 52.0341 18.9232C51.9218 19.0582 51.7842 19.1696 51.6292 19.2511C51.4742 19.3325 51.3048 19.3824 51.1307 19.3978C50.9566 19.4133 50.7811 19.3941 50.6144 19.3412C50.4477 19.2883 50.2929 19.2029 50.1589 19.0897C47.4355 16.7895 44.4104 14.21 42.9799 12.9872L31.6359 22.1744C31.4 22.3652 31.1066 22.4693 30.8042 22.4695Z" fill="#F36A4F"/>
<path d="M30.5386 19.6251L25.5483 23.6648L27.2149 25.7561L32.2052 21.7165L30.5386 19.6251Z" fill="#F36A4F"/>
<path d="M56.0937 11.3242H53.4324V22.5008H56.0937V11.3242Z" fill="#F36A4F"/>
<path d="M52.3235 11.9948H49.6621V19.3713H52.3235V11.9948Z" fill="#F36A4F"/>
<path d="M57.4244 10.6536H48.1097V13.336H57.4244V10.6536Z" fill="#F36A4F"/>
<path d="M56.2645 30.1858L42.9888 19.0092L29.529 29.8461L27.8678 27.7493L43.0265 15.5467L57.9722 28.1271L56.2645 30.1858Z" fill="#F36A4F"/>
<path d="M48.9968 45.7482H37.2425V30.995H48.9968V45.7482ZM39.9038 43.0658H46.3354V33.6774H39.9038V43.0658Z" fill="#F36A4F"/>
</svg>
