<svg width="80" height="80" viewBox="0 0 80 80" fill="none" xmlns="http://www.w3.org/2000/svg">
<path d="M80 46.5122C80 36.0187 72.5892 26.4806 61.0348 21.9792C62.1112 19.678 62.6038 17.1443 62.4687 14.6047C62.3335 12.0652 61.5747 9.59891 60.2602 7.42652C58.9457 5.25414 57.1164 3.44338 54.936 2.1562C52.7556 0.869019 50.2921 0.14556 47.7658 0.0505268L46.3959 0L46.2955 2.75601L47.6653 2.80653C49.7903 2.88793 51.8599 3.51088 53.6801 4.61698C55.5003 5.72307 57.0114 7.27608 58.0718 9.13036C59.1321 10.9846 59.707 13.0795 59.7425 15.2184C59.778 17.3573 59.2729 19.4702 58.2746 21.3591L57.5098 22.5074C57.2358 22.9162 56.9377 23.3081 56.6171 23.681L55.7222 24.7237L57.7952 26.5266L58.6901 25.4839C58.996 25.1279 59.2837 24.7489 59.5554 24.3631C70.3245 28.3708 77.2604 37.027 77.2604 46.5099C77.2604 50.7955 75.5526 55.3912 72.8016 58.5031L71.8884 59.5321L72.1806 59.7939L71.466 59.663L68.3816 76.7089L63.9251 77.0672L60.8156 67.0629L58.2015 67.8874L58.5508 69.0127C54.7116 70.3002 50.6894 70.9495 46.6425 70.935C41.3778 70.9574 36.1692 69.8462 31.3667 67.6761L30.1201 67.1019L28.9786 69.6076L30.2229 70.1817C30.5745 70.3425 30.9283 70.4987 31.2868 70.6411L28.9033 76.5596L23.9171 76.2725L22.8304 65.74L23.3304 64.0841L22.0199 63.6821C11.7736 60.5495 4.33778 50.7197 2.84238 48.6114L3.66656 41.3401C6.26466 41.889 10.5431 42.3736 11.9357 40.0632C13.1389 38.0696 15.6845 34.6086 17.7689 33.2374L18.9104 32.4841L18.7985 32.3119L19.0588 32.1902L18.4926 30.9385C18.4652 30.8765 15.9813 25.4586 14.4745 21.7288C22.3738 20.631 26.7116 28.4787 26.9033 28.8462L27.5494 30.0589L29.9649 28.7589L29.3188 27.544C29.2983 27.505 29.1225 27.1788 28.7937 26.6736C30.5959 25.6463 32.489 24.7898 34.4488 24.1151C34.7387 24.5399 35.0606 24.9786 35.4077 25.4173L36.2615 26.4944L38.403 24.7742L37.5492 23.6971C37.0865 23.1186 36.661 22.5111 36.2752 21.8781L36.0606 21.2304L35.604 20.5414L35.3118 19.903L35.2113 19.9489L35.1953 19.9236L35.0332 20.0316L32.8233 21.0559L32.9831 21.4073L32.9146 21.4532L33.0653 21.6829C31.0064 22.4286 29.0195 23.3619 27.1294 24.4711C26.4814 23.7209 25.7769 23.0222 25.0221 22.3811C21.2323 19.1726 16.8192 18.1437 12.2508 19.377L10.8011 19.7698L11.3216 21.1845C12.4243 24.1817 14.7895 29.4319 15.6594 31.3634C13.2051 33.2581 10.7303 36.7468 9.58877 38.6323C9.23033 39.2249 6.04777 39.1904 2.8401 38.3039L1.29677 37.8767L0 49.3142L0.276248 49.7322C0.609572 50.2374 8.32625 61.7805 20.0907 65.949L21.3053 77.724C21.3393 78.0515 21.4888 78.356 21.7267 78.5822C21.9646 78.8085 22.2751 78.9415 22.6021 78.9573L29.7297 79.3684H29.8074C30.0799 79.3685 30.3462 79.2868 30.5724 79.1338C30.7985 78.9808 30.9741 78.7634 31.0767 78.5095L33.8575 71.6194C37.9809 72.9956 42.2981 73.6936 46.6425 73.6864C50.9664 73.7066 55.2649 73.021 59.3704 71.6562L61.9663 80L70.6989 79.288L73.9454 61.374L74.8472 60.3543C78.0252 56.7439 80 51.4455 80 46.5122Z" fill="#C83021"/>
<path d="M35.1588 11.8416L35.5583 10.5371L32.9397 9.72641L32.5379 11.0424L32.1521 12.3974L34.7867 13.1553L35.1588 11.8416Z" fill="#C83021"/>
<path d="M36.4076 8.96621L37.1085 7.58132L34.6588 6.3503L34.0835 7.50782L33.3689 8.58496L35.6474 10.1123L36.4076 8.96621Z" fill="#C83021"/>
<path d="M42.1495 3.76654L40.7682 1.38489L38.3984 2.77668L39.782 5.15373L42.1495 3.76654Z" fill="#C83021"/>
<path d="M43.8892 3.24061L45.1973 2.90988L44.533 0.236557L43.202 0.571871L41.8367 0.962306L42.5901 3.61267L43.8892 3.24061Z" fill="#C83021"/>
<path d="M39.3984 5.41326L37.4624 3.46568L35.5218 5.41785L37.4624 7.36313L39.3984 5.41326Z" fill="#C83021"/>
<path d="M34.757 16.9173L32.0493 17.3376L32.2594 18.6995L32.6726 20.1969L35.3072 19.4413L34.9533 18.1965L34.757 16.9173Z" fill="#C83021"/>
<path d="M34.6543 15.0524L34.8346 13.7846L32.1247 13.3942L31.9169 14.8549L31.9146 16.3362H34.6543V15.0524Z" fill="#C83021"/>
<path d="M47.09 9.56564C47.5945 9.52889 48.1196 9.76315 48.6516 10.2546L49.6538 11.194L51.5214 9.18669L50.5191 8.24735C49.8466 7.58514 49.0064 7.12122 48.09 6.90609L48.0626 4.30856L45.3229 4.33612L45.3526 7.22992C44.6321 7.5725 44 8.07789 43.5056 8.70669C42.3641 10.1467 42.3983 11.4443 42.6312 12.2803C43.0467 13.78 44.5193 15.1374 46.5854 15.8976C47.5466 16.2535 48.7589 17.0666 49.147 18.0151C49.2434 18.2569 49.2854 18.5172 49.27 18.7773C49.2546 19.0374 49.1822 19.2908 49.058 19.5194C48.896 19.8667 48.637 20.1591 48.3127 20.361C47.9884 20.5628 47.6128 20.6654 47.2315 20.6563C46.0284 20.6884 44.7613 19.9856 44.2225 18.9797L43.5718 17.7671L41.1609 19.0762L41.8116 20.2888C42.2061 20.9969 42.737 21.6187 43.3733 22.1179C44.0095 22.6171 44.7383 22.9838 45.517 23.1964C45.517 23.8142 45.517 24.1151 45.517 24.1151V24.5744C41.9874 24.8224 37.9944 26.2992 34.9168 28.5591L33.8095 29.3721L35.4259 31.5976L36.5332 30.7846C39.5925 28.5361 43.8389 27.1352 47.0763 27.3005C49.8707 27.4406 53.8364 28.2192 56.5829 30.0037L57.7244 30.7501L59.2084 28.4328L58.0668 27.6864C55.2062 25.833 51.3045 24.912 48.2498 24.6249V24.0714C48.2498 24.0714 48.2498 23.8211 48.2498 23.3043C48.9634 23.164 49.6335 22.8543 50.2041 22.4009C50.7747 21.9475 51.2295 21.3635 51.5305 20.6976C51.8164 20.1227 51.9772 19.493 52.002 18.8506C52.0268 18.2082 51.9151 17.5679 51.6743 16.9724C50.9209 15.1351 49.0374 13.8719 47.5238 13.3138C46.364 12.8843 45.4325 12.1655 45.2613 11.5385C45.2293 11.4214 45.1288 11.0654 45.638 10.4269C45.8101 10.1926 46.0273 9.99552 46.2768 9.84754C46.5263 9.69956 46.8028 9.60369 47.09 9.56564Z" fill="#C83021"/>
<path d="M17.6525 40.697C17.6525 41.209 17.8034 41.7094 18.0861 42.1351C18.3688 42.5607 18.7707 42.8925 19.2408 43.0884C19.711 43.2843 20.2283 43.3355 20.7274 43.2357C21.2265 43.1358 21.685 42.8893 22.0448 42.5273C22.4047 42.1653 22.6497 41.7041 22.749 41.202C22.8483 40.6999 22.7973 40.1795 22.6026 39.7065C22.4078 39.2336 22.0781 38.8293 21.6549 38.5449C21.2318 38.2605 20.7343 38.1087 20.2254 38.1087C19.5432 38.1093 18.8891 38.3822 18.4067 38.8675C17.9243 39.3527 17.6531 40.0108 17.6525 40.697ZM20.3921 40.697C20.3921 40.7302 20.3823 40.7626 20.364 40.7902C20.3457 40.8178 20.3197 40.8392 20.2892 40.8519C20.2588 40.8646 20.2253 40.8679 20.1929 40.8615C20.1606 40.855 20.1309 40.839 20.1076 40.8156C20.0843 40.7921 20.0684 40.7623 20.062 40.7298C20.0556 40.6972 20.0589 40.6635 20.0715 40.6329C20.0841 40.6022 20.1054 40.5761 20.1329 40.5576C20.1603 40.5392 20.1925 40.5294 20.2254 40.5294C20.2473 40.5294 20.269 40.5337 20.2892 40.5421C20.3095 40.5506 20.3278 40.5629 20.3433 40.5785C20.3588 40.5941 20.371 40.6125 20.3794 40.6329C20.3878 40.6532 20.3921 40.675 20.3921 40.697Z" fill="#C83021"/>
<path d="M53.7633 24.3287L54.8569 23.4996C56.6605 22.133 58.5257 18.8396 58.5257 15.6909C58.5266 14.7618 58.4139 13.8362 58.1901 12.9349L57.8568 11.5982L55.1993 12.2665L55.5327 13.6032C55.7004 14.2793 55.7855 14.9734 55.7861 15.6702C55.7861 17.8245 54.4277 20.3531 53.2085 21.2764L52.115 22.1055L53.7633 24.3287Z" fill="#C83021"/>
<path d="M53.5076 10.1054L54.4437 11.1113L56.4459 9.23033L55.5098 8.22439L55.3181 8.02457L54.3546 7.0439L52.4049 8.97999L53.3683 9.96067L53.5076 10.1054Z" fill="#C83021"/>
<path d="M67.0894 55.2625L69.2035 57.0149L70.0756 55.9515C72.6052 52.8671 73.9431 49.2154 73.9431 45.3868C73.9431 41.2528 72.313 37.1969 69.3542 33.9954L68.4227 32.9871L66.4159 34.8635L67.3497 35.8717C69.861 38.6002 71.2057 41.8913 71.2057 45.3868C71.2057 48.5631 70.0848 51.6085 67.9661 54.1923L67.0894 55.2625Z" fill="#C83021"/>
<path d="M64.0638 29.2387L62.4485 31.4647L64.7848 33.1804L66.4002 30.9545L64.0638 29.2387Z" fill="#C83021"/>
<path d="M51.293 36.0968C50.4257 36.4718 49.6179 36.9732 48.8959 37.585C48.1738 36.9732 47.366 36.4718 46.4987 36.0968C45.5633 35.7396 44.5577 35.6082 43.5627 35.7133C39.7226 35.9843 36.4259 39.884 36.6428 43.8963C36.983 50.1295 43.9097 54.4954 48.058 57.1045C48.2138 57.2027 48.3877 57.2684 48.5693 57.2976C48.7509 57.3268 48.9365 57.3189 49.115 57.2744C49.2935 57.3189 49.4791 57.3268 49.6607 57.2976C49.8423 57.2684 50.0162 57.2027 50.1721 57.1045C55.4231 53.7927 60.8407 49.6334 61.1535 43.8963C61.3818 39.884 58.0737 35.982 54.2336 35.7133C53.2371 35.6075 52.2298 35.7389 51.293 36.0968ZM58.4116 43.747C58.1833 48.1107 53.64 51.6292 49.1082 54.5207C45.3891 52.1712 39.6336 48.3863 39.3824 43.747C39.2432 41.2 41.371 38.6323 43.7567 38.4647C44.3202 38.3981 44.8913 38.4561 45.4302 38.6346C46.1297 38.9273 46.7697 39.3469 47.3183 39.8725C46.9839 40.4152 46.8642 41.0643 46.9827 41.6915C47.0405 42.0421 47.2307 42.3566 47.5136 42.5694C47.7965 42.7823 48.1502 42.8769 48.5008 42.8337C48.8514 42.7904 49.1719 42.6125 49.3953 42.3372C49.6186 42.0619 49.7276 41.7104 49.6995 41.3562C49.9182 41.16 50.0687 40.8984 50.1287 40.6098C50.2208 40.4472 50.2791 40.2675 50.2999 40.0815C50.6127 39.6567 51.4414 39.0342 52.3547 38.6369C52.8935 38.4584 53.4647 38.4004 54.0281 38.467C56.4253 38.6323 58.5508 41.1977 58.4116 43.747Z" fill="#C83021"/>
</svg>
