<svg width="76" height="80" viewBox="0 0 76 80" fill="none" xmlns="http://www.w3.org/2000/svg">
<path d="M7.60513 17.3164C8.67643 17.3164 9.54489 16.4457 9.54489 15.3716C9.54489 14.2975 8.67643 13.4268 7.60513 13.4268C6.53383 13.4268 5.66537 14.2975 5.66537 15.3716C5.66537 16.4457 6.53383 17.3164 7.60513 17.3164Z" fill="#F36A4F"/>
<path d="M17.8166 39.4937C18.8879 39.4937 19.7563 38.623 19.7563 37.5489C19.7563 36.4748 18.8879 35.604 17.8166 35.604C16.7453 35.604 15.8768 36.4748 15.8768 37.5489C15.8768 38.623 16.7453 39.4937 17.8166 39.4937Z" fill="#F36A4F"/>
<path d="M34.6741 3.88965C35.7454 3.88965 36.6139 3.01892 36.6139 1.94482C36.6139 0.870728 35.7454 0 34.6741 0C33.6028 0 32.7344 0.870728 32.7344 1.94482C32.7344 3.01892 33.6028 3.88965 34.6741 3.88965Z" fill="#F36A4F"/>
<path d="M22.2915 4.40802H19.5943V7.57427H22.2915V4.40802Z" fill="#F36A4F"/>
<path d="M22.2915 9.24414H19.5943V12.4081H22.2915V9.24414Z" fill="#F36A4F"/>
<path d="M19.9946 6.94097H16.8388V9.64524H19.9946V6.94097Z" fill="#F36A4F"/>
<path d="M25.0474 6.94097H21.8916V9.64524H25.0474V6.94097Z" fill="#F36A4F"/>
<path d="M6.20503 25.9182H3.5078V29.0822H6.20503V25.9182Z" fill="#F36A4F"/>
<path d="M6.20503 30.7544H3.5078V33.9184H6.20503V30.7544Z" fill="#F36A4F"/>
<path d="M3.9078 28.4535H0.75204V31.1578H3.9078V28.4535Z" fill="#F36A4F"/>
<path d="M8.96063 28.4535H5.80487V31.1578H8.96063V28.4535Z" fill="#F36A4F"/>
<path d="M63.2669 2.56686H59.9605V6.44749H63.2669V2.56686Z" fill="#F36A4F"/>
<path d="M63.2669 8.49593H59.9605V12.3766H63.2669V8.49593Z" fill="#F36A4F"/>
<path d="M60.4528 5.67221H56.5823V8.9872H60.4528V5.67221Z" fill="#F36A4F"/>
<path d="M66.6475 5.67221H62.777V8.9872H66.6475V5.67221Z" fill="#F36A4F"/>
<path d="M40.4418 48.2285C36.757 48.2262 33.1555 47.1287 30.0928 45.0745C27.03 43.0204 24.6435 40.1018 23.2349 36.688C21.8263 33.2741 21.4589 29.5181 22.1791 25.8949C22.8994 22.2716 24.6749 18.9439 27.2813 16.3323C29.8876 13.7207 33.2078 11.9425 36.822 11.2226C40.4362 10.5026 44.1822 10.8733 47.5863 12.2876C50.9905 13.7019 53.8999 16.0964 55.9469 19.1684C57.9939 22.2404 59.0864 25.852 59.0864 29.5464C59.0805 34.5014 57.1139 39.2514 53.6183 42.754C50.1227 46.2566 45.3838 48.2255 40.4418 48.2285ZM40.4418 13.5664C37.2905 13.5687 34.2106 14.5076 31.5915 16.2645C28.9723 18.0214 26.9315 20.5174 25.727 23.4371C24.5225 26.3567 24.2084 29.5688 24.8244 32.6674C25.4403 35.7659 26.9588 38.6119 29.1877 40.8454C31.4166 43.0788 34.256 44.5996 37.3468 45.2155C40.4377 45.8313 43.6413 45.5146 46.5526 44.3053C49.4639 43.096 51.9523 41.0484 53.7031 38.4214C55.454 35.7944 56.3887 32.706 56.3892 29.5464C56.3838 25.3084 54.7017 21.2455 51.7118 18.2496C48.722 15.2537 44.6689 13.5694 40.4418 13.5664Z" fill="#F36A4F"/>
<path d="M40.5002 43.5952C38.3631 43.5957 36.2541 43.1061 34.3347 42.164C32.4152 41.2218 30.7361 39.852 29.4258 38.1593C28.1154 36.4666 27.2086 34.4958 26.7745 32.3977C26.3405 30.2997 26.3908 28.1299 26.9217 26.0543C27.4525 23.9787 28.4497 22.0524 29.8371 20.4225C31.2245 18.7927 32.9653 17.5026 34.9264 16.6509C36.8874 15.7992 39.0168 15.4085 41.1516 15.5086C43.2864 15.6087 45.3701 16.197 47.2433 17.2285L48.4256 17.8798L47.1264 20.2505L45.9441 19.5992C44.0593 18.562 41.9187 18.0845 39.773 18.2228C37.6273 18.361 35.5653 19.1092 33.8284 20.3798C32.0915 21.6504 30.7515 23.3908 29.9653 25.3972C29.1791 27.4037 28.9793 29.5931 29.3892 31.7093C29.7991 33.8255 30.8018 35.7808 32.2799 37.3464C33.758 38.9119 35.6503 40.0229 37.7353 40.5493C39.8204 41.0757 42.0118 40.9957 44.0531 40.3186C46.0944 39.6416 47.9011 38.3955 49.2617 36.7263L50.1158 35.6807L52.2017 37.3956L51.3476 38.4413C50.0351 40.0545 48.3805 41.3542 46.5041 42.2457C44.6277 43.1373 42.5767 43.5983 40.5002 43.5952Z" fill="#F36A4F"/>
<path d="M54.6315 32.2327H51.9342L51.9365 30.6597L52.431 29.1679L54.9888 30.0242L54.6315 31.0992V32.2327Z" fill="#F36A4F"/>
<path d="M52.3725 36.0412L50.4664 34.1302L51.1947 33.3978L51.5206 32.4175L54.0785 33.2716L53.5503 34.8604L52.3725 36.0412Z" fill="#F36A4F"/>
<path d="M49.3179 22.9525L48.7537 21.8212L48.0502 20.7621L50.2956 19.2635L50.9699 20.2776L51.0306 20.3384L51.7319 21.7446L49.3179 22.9525Z" fill="#F36A4F"/>
<path d="M51.9972 28.7239L51.8196 27.4754L51.4735 26.2653L54.0673 25.5216L54.4651 26.9143L54.6697 28.3431L51.9972 28.7239ZM51.2195 25.8146L50.7025 24.6067L50.1159 23.4303L52.5276 22.2201L53.166 23.5069L53.6919 24.7554L51.2195 25.8146Z" fill="#F36A4F"/>
<path d="M40.8351 39.2638H40.6238C37.9266 39.1782 35.4092 37.461 34.4786 35.0948C34.4084 34.9286 34.3719 34.75 34.3716 34.5696C34.3712 34.3891 34.4069 34.2103 34.4765 34.0439C34.5461 33.8775 34.6482 33.7267 34.7769 33.6004C34.9055 33.4742 35.0581 33.3751 35.2255 33.3089C35.393 33.2427 35.572 33.2108 35.7519 33.215C35.9319 33.2193 36.1092 33.2596 36.2734 33.3336C36.4375 33.4076 36.5853 33.5139 36.7078 33.646C36.8304 33.7782 36.9253 33.9337 36.9871 34.1032C37.5265 35.4756 39.0909 36.5077 40.7092 36.5596C41.4173 36.5799 42.6962 36.4198 43.3278 35.0745C43.4772 34.7962 43.5671 34.4898 43.5919 34.1747C43.6166 33.8597 43.5757 33.5429 43.4716 33.2446C43.0963 32.2327 41.869 31.1803 40.1833 30.4276C38.774 29.7966 36.3307 28.3994 35.7823 26.1346C35.5733 25.267 35.571 23.9193 36.7555 22.432C37.8052 21.1159 39.4236 20.2934 40.9835 20.2821H41.0172C42.0916 20.2821 43.6582 20.6517 45.081 22.3847C45.1969 22.5213 45.2845 22.6796 45.3388 22.8505C45.3931 23.0214 45.4129 23.2015 45.3971 23.3801C45.3813 23.5588 45.3303 23.7325 45.2469 23.8911C45.1635 24.0498 45.0494 24.1903 44.9114 24.3043C44.7733 24.4184 44.614 24.5037 44.4427 24.5555C44.2714 24.6072 44.0916 24.6242 43.9137 24.6056C43.7358 24.587 43.5633 24.533 43.4064 24.447C43.2495 24.3609 43.1112 24.2443 42.9996 24.1041C42.386 23.3582 41.7117 22.9774 41.0037 22.9774C40.0866 22.9774 39.2775 23.5926 38.8639 24.1041C38.257 24.8658 38.3671 25.3278 38.4143 25.4788C38.6076 26.2766 39.7382 27.2433 41.2936 27.942C42.685 28.5639 45.1462 29.9566 46.0138 32.2868C46.244 32.9218 46.3427 33.5972 46.3041 34.2717C46.2655 34.9463 46.0902 35.6059 45.789 36.2103C44.8697 38.1393 43.0356 39.2638 40.8351 39.2638Z" fill="#F36A4F"/>
<path d="M39.2391 41.3033L39.1942 39.9512C39.1942 39.9196 39.1942 39.6041 39.1694 38.1281L39.156 36.7759L41.8532 36.7489L41.8667 38.101C41.8824 39.5455 41.8914 39.852 41.8914 39.8656L41.9319 41.2177L39.2391 41.3033Z" fill="#F36A4F"/>
<path d="M39.0123 22.8218L38.9988 21.4697C38.9831 19.8246 38.9718 19.1688 38.9718 19.1643L38.9493 17.8122L41.6466 17.7671L41.6691 19.1192C41.6691 19.1192 41.6691 19.7773 41.696 21.4426L41.7095 22.7948L39.0123 22.8218Z" fill="#F36A4F"/>
<path d="M42.004 79.9992C40.759 79.9861 39.5203 79.8204 38.3155 79.5057C37.7019 79.3524 36.0926 78.8116 33.0649 77.7952C27.3041 75.8571 13.8112 71.3117 11.8377 71.5934C10.5723 71.7692 9.01913 72.2695 7.21873 73.056C7.05639 73.1276 6.88156 73.1664 6.70424 73.1703C6.52692 73.1742 6.35057 73.143 6.18527 73.0786C6.01996 73.0141 5.86894 72.9176 5.74082 72.7947C5.6127 72.6717 5.50999 72.5246 5.43856 72.3619C5.2943 72.0331 5.28619 71.6604 5.41602 71.3257C5.54585 70.991 5.80298 70.7217 6.13085 70.577C8.15377 69.6756 9.95192 69.1213 11.4669 68.9094C13.6426 68.6074 21.3567 70.9962 33.9213 75.2194C36.3398 76.0329 38.4279 76.736 38.9696 76.8712C41.4061 77.482 42.8783 77.2386 43.0919 77.198C46.6882 76.0712 50.6104 72.6458 56.0228 67.9269C58.6549 65.6305 61.6421 63.0299 65.1642 60.1791C66.9151 58.7616 68.4593 57.5244 69.7315 56.5058C71.3746 55.1897 72.8176 54.0269 73.2963 53.6122C73.3268 53.374 73.2675 53.1329 73.13 52.9362C72.7636 52.4156 71.7814 52.1339 70.4463 52.1564C67.6681 52.206 58.293 58.081 50.471 63.8569C49.0852 64.8591 47.7646 65.9491 46.5173 67.1201C46.2624 67.3699 45.9191 67.5084 45.5626 67.5052C45.2061 67.502 44.8654 67.3574 44.6149 67.103C44.3644 66.8486 44.2246 66.5052 44.2261 66.1477C44.2275 65.7903 44.3701 65.4479 44.6225 65.1955C45.9599 63.9313 47.3791 62.7569 48.8707 61.68C51.6151 59.6518 65.5508 49.5401 70.3968 49.4522C74.0336 49.3778 75.2855 51.0544 75.7081 52.0528C76.2116 53.2427 76.0498 54.6827 75.3305 55.4061C74.9731 55.7644 73.8717 56.65 71.415 58.6174C70.1451 59.6338 68.6054 60.871 66.8589 62.2817C63.375 65.1009 60.4103 67.6902 57.794 69.9663C52.1051 74.9242 47.9963 78.5073 43.8381 79.7964L43.7752 79.8144C43.1941 79.9459 42.5996 80.0079 42.004 79.9992Z" fill="#F36A4F"/>
<path d="M3.29651 75.1248C3.07422 75.1154 2.85734 75.0531 2.66386 74.943C2.47037 74.8329 2.30584 74.6781 2.1839 74.4915C2.06477 74.3067 1.53657 73.3377 2.74133 72.5129C2.89433 72.4136 3.06564 72.3462 3.24512 72.3145C3.4246 72.2828 3.60859 72.2876 3.7862 72.3285C3.96381 72.3694 4.13143 72.4456 4.27913 72.5526C4.42683 72.6596 4.55161 72.7953 4.64608 72.9515C4.74054 73.1078 4.80278 73.2814 4.82909 73.4622C4.85541 73.6431 4.84527 73.8273 4.79929 74.0041C4.7533 74.1809 4.67239 74.3466 4.56136 74.4915C4.45032 74.6364 4.31142 74.7575 4.15288 74.8476C3.89805 75.0167 3.60186 75.1126 3.29651 75.1248Z" fill="#F36A4F"/>
<path d="M54.0536 54.5024L52.6151 52.215L53.7569 51.4939C54.4312 51.0657 55.0583 50.6578 55.609 50.2995C58.349 48.5102 60.1584 47.3271 62.5094 47.6516C65.6562 48.0843 67.4139 50.8404 67.4858 50.9576L68.2051 52.1024L65.9192 53.5334L65.2044 52.4066C65.1662 52.348 63.9929 50.588 62.1386 50.3333C60.8349 50.153 59.7133 50.8449 57.079 52.5666C56.5216 52.9317 55.8877 53.3441 55.1954 53.7835L54.0536 54.5024Z" fill="#F36A4F"/>
<path d="M42.3163 63.2237C37.077 63.2237 31.0779 62.9848 29.2797 62.9082C29.1026 62.9007 28.9287 62.8582 28.768 62.7833C28.6072 62.7084 28.4628 62.6024 28.3429 62.4715C28.223 62.3407 28.13 62.1874 28.0691 62.0204C28.0083 61.8535 27.9809 61.6762 27.9884 61.4986C27.9959 61.321 28.0383 61.1467 28.113 60.9855C28.1877 60.8244 28.2934 60.6796 28.4239 60.5593C28.5545 60.4391 28.7074 60.3459 28.8739 60.2849C29.0404 60.2239 29.2172 60.1964 29.3943 60.2039C36.8342 60.5194 48.0726 60.7223 49.6932 60.1566C50.644 59.8253 51.2104 58.8202 51.2104 57.4681C51.2104 56.3188 49.8618 55.645 49.2662 55.4039C47.5085 54.8224 24.092 50.7795 19.4326 51.877C17.1849 52.4066 10.6666 55.1717 5.55309 57.5109C5.22791 57.6604 4.85684 57.6741 4.52152 57.5493C4.1862 57.4244 3.91409 57.171 3.76506 56.845C3.61603 56.519 3.60228 56.1469 3.72684 55.8107C3.8514 55.4745 4.10406 55.2017 4.42925 55.0523C5.53961 54.543 15.38 50.0471 18.8145 49.2404C24.3393 47.94 48.675 52.2511 50.2507 52.8844C52.568 53.8173 53.9166 55.4872 53.9166 57.4681C53.9166 59.9876 52.6399 61.9978 50.5856 62.7122C49.446 63.1043 46.0789 63.2237 42.3163 63.2237Z" fill="#F36A4F"/>
<path d="M1.36561 59.3543C1.0849 59.3524 0.811364 59.2652 0.58105 59.1043C0.350737 58.9434 0.174456 58.7163 0.075439 58.4529C0.0327329 58.3312 -0.311164 57.254 0.934057 56.6771C1.1074 56.6029 1.29407 56.5651 1.48255 56.566C1.67103 56.5669 1.85732 56.6065 2.02995 56.6824C2.20257 56.7583 2.35787 56.8688 2.48626 57.0071C2.61465 57.1455 2.71342 57.3087 2.77647 57.4868C2.83952 57.6649 2.86552 57.854 2.85287 58.0426C2.84021 58.2311 2.78917 58.4151 2.70289 58.5831C2.61661 58.7511 2.49692 58.8996 2.3512 59.0195C2.20548 59.1393 2.03682 59.228 1.85561 59.28C1.69614 59.3257 1.53145 59.3507 1.36561 59.3543Z" fill="#F36A4F"/>
<path d="M45.3754 67.3275C45.092 67.3271 44.816 67.2372 44.5864 67.0706C43.2153 66.0767 39.5179 64.0823 37.3938 63.1922C37.2285 63.125 37.0781 63.0257 36.9513 62.8998C36.8246 62.774 36.724 62.6242 36.6553 62.4591C36.5867 62.294 36.5514 62.117 36.5516 61.9381C36.5517 61.7593 36.5872 61.5822 36.656 61.4172C36.7248 61.2522 36.8256 61.1026 36.9525 60.9769C37.0795 60.8512 37.23 60.752 37.3954 60.6851C37.5608 60.6182 37.7378 60.5848 37.9162 60.5869C38.0946 60.589 38.2707 60.6266 38.4345 60.6975C40.5338 61.5764 44.5145 63.6789 46.1711 64.8801C46.4022 65.0479 46.5744 65.2849 46.6627 65.557C46.7509 65.8291 46.7509 66.1223 46.6624 66.3944C46.574 66.6665 46.4017 66.9034 46.1704 67.071C45.9391 67.2387 45.6608 67.3285 45.3754 67.3275Z" fill="#F36A4F"/>
</svg>
