<svg width="81" height="81" viewBox="0 0 81 81" fill="none" xmlns="http://www.w3.org/2000/svg">
<path d="M38 56H6.08993C5.27069 55.9992 4.48525 55.6793 3.90596 55.1105C3.32667 54.5417 3.00085 53.7705 3 52.9661V9H6.08993V52.9693H38V56Z" fill="#F36A4F"/>
<path d="M63 9H60V38H63V9Z" fill="#F36A4F"/>
<path d="M62.9542 11H18.8121V7.84547H62.9542V3.14473H3.04581V7.84547H9.66519V10.9902H3.04581C2.23827 10.9893 1.46404 10.6577 0.893023 10.0682C0.322004 9.47861 0.000838135 8.67923 0 7.84547V3.14473C0.000838135 2.31096 0.322004 1.51159 0.893023 0.922024C1.46404 0.332461 2.23827 0.000865353 3.04581 0H62.9542C63.7617 0.000865353 64.5359 0.332461 65.107 0.922024C65.678 1.51159 65.9992 2.31096 66 3.14473V7.84547C66.0008 8.25914 65.9227 8.66893 65.77 9.05141C65.6174 9.43388 65.3932 9.78154 65.1103 10.0745C64.8275 10.3675 64.4914 10.6 64.1215 10.7588C63.7515 10.9176 63.3548 10.9996 62.9542 11Z" fill="#F36A4F"/>
<path d="M16.0579 8H13V11.0203H16.0579V8Z" fill="#F36A4F"/>
<path d="M11 54H8V78H11V54Z" fill="#F36A4F"/>
<path d="M17 77H3V80H17V77Z" fill="#F36A4F"/>
<path d="M23 77H20V80H23V77Z" fill="#F36A4F"/>
<path d="M73.7825 80.0015H40.3746C39.4988 80.0024 38.6326 79.8221 37.8316 79.4722C37.0307 79.1224 36.3128 78.6107 35.7242 77.9702C35.1558 77.3502 34.7253 76.6195 34.4603 75.8251C34.1953 75.0307 34.1018 74.1903 34.1857 73.3581L36.5157 50.8629C36.6358 49.7357 37.1767 48.693 38.033 47.9384C38.8893 47.1838 39.9995 46.7713 41.147 46.7814H73.0101C74.1576 46.7713 75.2678 47.1838 76.1241 47.9384C76.9804 48.693 77.5213 49.7357 77.6414 50.8629L79.9714 73.355C80.0553 74.1872 79.9618 75.0276 79.6968 75.822C79.4318 76.6163 79.0013 77.347 78.4329 77.967C77.8446 78.6081 77.1269 79.1204 76.3259 79.4708C75.5249 79.8212 74.6585 80.002 73.7825 80.0015ZM41.147 49.8111C40.7581 49.8029 40.3801 49.9379 40.0863 50.1897C39.7926 50.4415 39.6041 50.7923 39.5577 51.1737L37.2277 73.6658C37.1838 74.0779 37.2291 74.4945 37.3606 74.8881C37.4921 75.2816 37.7069 75.643 37.9906 75.9483C38.2921 76.2756 38.6598 76.537 39.0699 76.7154C39.4799 76.8939 39.9233 76.9855 40.3714 76.9843H73.7793C74.2274 76.9855 74.6708 76.8939 75.0809 76.7154C75.491 76.537 75.8586 76.2756 76.1602 75.9483C76.4439 75.643 76.6586 75.2816 76.7901 74.8881C76.9217 74.4945 76.967 74.0779 76.923 73.6658L74.5994 51.1769C74.553 50.7954 74.3645 50.4447 74.0708 50.1928C73.777 49.941 73.399 49.8061 73.0101 49.8143L41.147 49.8111Z" fill="#F36A4F"/>
<path d="M64.3291 48.8823L62.174 43.7742H51.9831L49.828 48.8823L47.0085 47.7207L49.1636 42.6126C49.3948 42.0614 49.7865 41.5905 50.289 41.2596C50.7916 40.9287 51.3823 40.7527 51.9863 40.7539H62.1581C62.7621 40.7527 63.3528 40.9287 63.8554 41.2596C64.3579 41.5905 64.7496 42.0614 64.9807 42.6126L67.1518 47.7207L64.3291 48.8823Z" fill="#F36A4F"/>
<path d="M51.0486 67.2107C44.4719 65.6158 39.0681 61.5343 36.2232 56.0212L38.9473 54.6523C41.3854 59.3869 46.0612 62.8938 51.7701 64.2752L51.0486 67.2107Z" fill="#F36A4F"/>
<path d="M63.1085 67.2115L62.3838 64.2791C68.1054 62.9008 72.7685 59.3908 75.2066 54.6562L77.9307 56.0251C75.0985 61.5351 69.6947 65.6166 63.1085 67.2115Z" fill="#F36A4F"/>
<path d="M60.7435 70.9553H53.4103C52.7039 70.9546 52.0195 70.7125 51.4732 70.2702C50.9268 69.8278 50.5522 69.2125 50.4128 68.5284L49.4942 64.0012C49.4058 63.5632 49.4169 63.1114 49.5266 62.6781C49.6363 62.2449 49.8419 61.8411 50.1286 61.4958C50.4152 61.1505 50.7759 60.8723 51.1845 60.6812C51.5931 60.4901 52.0396 60.3908 52.4917 60.3906H61.6622C62.1143 60.3908 62.5607 60.4901 62.9694 60.6812C63.378 60.8723 63.7386 61.1505 64.0253 61.4958C64.312 61.8411 64.5176 62.2449 64.6273 62.6781C64.737 63.1114 64.748 63.5632 64.6597 64.0012L63.741 68.5316C63.601 69.215 63.2261 69.8297 62.6799 70.2714C62.1336 70.7131 61.4495 70.9547 60.7435 70.9553ZM61.6622 63.4203H52.4917L53.4103 67.9476H60.7435L61.6622 63.4203Z" fill="#F36A4F"/>
<path d="M24 15H12V18H24V15Z" fill="#F36A4F"/>
<path d="M20 21H12V24H20V21Z" fill="#F36A4F"/>
<path d="M12.4223 48.7304L10.2608 46.5955L18.3378 38.6178L22.9214 43.1451L31.8949 34.2852L34.0564 36.4169L22.9214 47.4149L18.3378 42.8876L12.4223 48.7304Z" fill="#F36A4F"/>
<path d="M47.9112 13.5859H44.8533V18.1132H47.9112V13.5859Z" fill="#F36A4F"/>
<path d="M47.9112 36.2227H44.8533V40.75H47.9112V36.2227Z" fill="#F36A4F"/>
<path d="M46.3791 37.7342C42.1674 37.7342 38.7503 35.0278 38.7503 31.6967H41.8082C41.8082 33.3325 43.9093 34.717 46.3918 34.717C48.8744 34.717 50.9755 33.3356 50.9755 31.6967C50.9755 30.0579 48.8744 28.6764 46.3918 28.6764C42.1801 28.6764 38.763 25.9701 38.763 22.639C38.763 19.3079 42.1896 16.6016 46.3918 16.6016C50.594 16.6016 54.0206 19.3079 54.0206 22.639H50.9628C50.9628 21.0033 48.8617 19.6187 46.3791 19.6187C43.8966 19.6187 41.7954 21.0001 41.7954 22.639C41.7954 24.2779 43.8966 25.6593 46.3791 25.6593C50.5909 25.6593 54.0079 28.3656 54.0079 31.6967C54.0079 35.0278 50.594 37.7342 46.3791 37.7342Z" fill="#F36A4F"/>
</svg>
