<svg width="76" height="80" viewBox="0 0 76 80" fill="none" xmlns="http://www.w3.org/2000/svg">
<path d="M10.238 21.1909C11.3092 21.1909 12.1775 20.3251 12.1775 19.257C12.1775 18.189 11.3092 17.3232 10.238 17.3232C9.16687 17.3232 8.29854 18.189 8.29854 19.257C8.29854 20.3251 9.16687 21.1909 10.238 21.1909Z" fill="#F36A4F"/>
<path d="M65.3951 29.798C66.4663 29.798 67.3346 28.9322 67.3346 27.8642C67.3346 26.7961 66.4663 25.9303 65.3951 25.9303C64.324 25.9303 63.4556 26.7961 63.4556 27.8642C63.4556 28.9322 64.324 29.798 65.3951 29.798Z" fill="#F36A4F"/>
<path d="M37.303 4.25445C38.3742 4.25445 39.2425 3.38862 39.2425 2.32058C39.2425 1.25254 38.3742 0.386716 37.303 0.386716C36.2319 0.386716 35.3636 1.25254 35.3636 2.32058C35.3636 3.38862 36.2319 4.25445 37.303 4.25445Z" fill="#F36A4F"/>
<path d="M8.83791 29.7465H6.14107V32.8927H8.83791V29.7465Z" fill="#F36A4F"/>
<path d="M8.83791 34.5554H6.14107V37.7016H8.83791V34.5554Z" fill="#F36A4F"/>
<path d="M6.5411 32.2652H3.3858V34.9543H6.5411V32.2652Z" fill="#F36A4F"/>
<path d="M11.5932 32.2652H8.43788V34.9543H11.5932V32.2652Z" fill="#F36A4F"/>
<path d="M28.7024 13.247H26.0055V16.3932H28.7024V13.247Z" fill="#F36A4F"/>
<path d="M28.7024 18.0559H26.0055V21.2021H28.7024V18.0559Z" fill="#F36A4F"/>
<path d="M26.4056 15.7658H23.2503V18.4548H26.4056V15.7658Z" fill="#F36A4F"/>
<path d="M31.4576 15.7658H28.3023V18.4548H31.4576V15.7658Z" fill="#F36A4F"/>
<path d="M42.0045 79.9979C40.7598 79.9849 39.5212 79.8201 38.3166 79.5071C37.7008 79.3547 36.094 78.8169 33.0645 77.8041C27.3045 75.8769 13.8136 71.3571 11.8426 71.6372C10.5774 71.812 9.02444 72.3095 7.2243 73.0915C7.06198 73.1627 6.88718 73.2014 6.70988 73.2052C6.53259 73.2091 6.35627 73.1781 6.19099 73.114C6.0257 73.0499 5.8747 72.954 5.7466 72.8317C5.6185 72.7094 5.51581 72.5632 5.44439 72.4013C5.37296 72.2395 5.33421 72.0652 5.33035 71.8884C5.32648 71.7116 5.35757 71.5358 5.42185 71.371C5.48612 71.2062 5.58232 71.0556 5.70496 70.9279C5.82759 70.8002 5.97425 70.6978 6.13657 70.6266C8.1592 69.7302 9.9571 69.179 11.4718 68.9683C13.645 68.6681 21.3602 71.0434 33.923 75.2427C36.3412 76.0517 38.4312 76.7508 38.9706 76.8853C41.409 77.4926 42.8788 77.2506 43.0923 77.2102C46.688 76.0898 50.6097 72.6837 56.0214 67.9891C58.653 65.7079 61.6398 63.1197 65.1591 60.285C66.9076 58.8777 68.4493 57.6475 69.7213 56.6346C71.3664 55.3237 72.8114 54.1697 73.2879 53.7551C73.3183 53.5182 73.259 53.2785 73.1216 53.0829C72.7552 52.5652 71.7731 52.2873 70.4382 52.3075C67.6605 52.3568 58.2867 58.1987 50.4659 63.9421C49.082 64.9439 47.7639 66.0329 46.5195 67.2025C46.2646 67.451 45.9213 67.5887 45.5649 67.5855C45.2084 67.5823 44.8677 67.4385 44.6173 67.1856C44.3669 66.9326 44.2271 66.5911 44.2285 66.2356C44.23 65.8802 44.3725 65.5398 44.625 65.2888C45.9622 64.0317 47.3811 62.8639 48.8725 61.7931C51.6165 59.7763 65.5502 49.7216 70.3955 49.6342C74.034 49.5692 75.2835 51.2274 75.7083 52.2224C76.2117 53.4055 76.0499 54.8374 75.3285 55.5568C74.9712 55.9131 73.8699 56.7937 71.4113 58.7522C70.1416 59.7629 68.6044 60.9931 66.8582 62.3936C63.3747 65.197 60.4105 67.7717 57.7968 70.035C52.1087 74.9649 48.0005 78.5301 43.8429 79.8119L43.78 79.8298C43.1969 79.9557 42.6009 80.0121 42.0045 79.9979Z" fill="#F36A4F"/>
<path d="M3.2959 75.1509C3.07275 75.1444 2.85438 75.0849 2.65893 74.9773C2.46349 74.8698 2.29663 74.7172 2.17222 74.5324C2.05311 74.3486 1.52498 73.3851 2.72957 72.5649C2.88259 72.4725 3.05237 72.4111 3.22921 72.3841C3.40605 72.3571 3.58648 72.3651 3.76022 72.4077C3.93395 72.4502 4.09757 72.5265 4.24175 72.6321C4.38593 72.7377 4.50783 72.8706 4.6005 73.0232C4.69317 73.1758 4.75479 73.345 4.78185 73.5214C4.8089 73.6977 4.80087 73.8776 4.75819 74.0508C4.71551 74.2241 4.63903 74.3872 4.53312 74.531C4.42721 74.6747 4.29394 74.7963 4.14091 74.8887C3.88802 75.0503 3.5961 75.1408 3.2959 75.1509Z" fill="#F36A4F"/>
<path d="M54.0437 54.6447L52.6054 52.3703L53.7448 51.6532C54.419 51.2274 55.046 50.8218 55.5966 50.4633C58.3339 48.684 60.143 47.5098 62.4938 47.8325C65.6401 48.2628 67.3975 51.0033 67.4694 51.1199L68.1886 52.2582L65.9075 53.6924L65.1906 52.5585C65.1502 52.4957 63.977 50.7501 62.1252 50.4969C60.824 50.3176 59.7025 51.0056 57.0686 52.7176C56.509 53.0806 55.8775 53.4907 55.1831 53.9277L54.0437 54.6447Z" fill="#F36A4F"/>
<path d="M42.3102 63.3214C37.0716 63.3214 31.0733 63.0838 29.2755 63.0076C29.0984 63.0001 28.9245 62.9579 28.7638 62.8834C28.6031 62.8089 28.4587 62.7036 28.3388 62.5734C28.2189 62.4433 28.1259 62.2908 28.0651 62.1248C28.0042 61.9589 27.9768 61.7825 27.9843 61.606C27.9919 61.4294 28.0342 61.2561 28.1089 61.0958C28.1836 60.9356 28.2893 60.7915 28.4198 60.672C28.5503 60.5524 28.7032 60.4597 28.8697 60.3991C29.0362 60.3384 29.213 60.3111 29.3901 60.3186C36.8401 60.6346 48.0634 60.8273 49.6883 60.2648C50.6389 59.9354 51.2053 58.936 51.2053 57.5915C51.2053 56.4486 49.8568 55.7786 49.2613 55.5388C47.5038 54.9607 24.0908 50.9406 19.432 52.0319C17.1846 52.5562 10.6673 55.3058 5.55451 57.634C5.22937 57.7826 4.85835 57.7963 4.52308 57.6721C4.1878 57.548 3.91574 57.2961 3.76673 56.9719C3.61772 56.6477 3.60397 56.2777 3.72851 55.9434C3.85306 55.6091 4.10568 55.3378 4.43082 55.1893C5.54102 54.6828 15.3822 50.2123 18.814 49.4101C24.3357 48.1193 48.6702 52.4039 50.2456 53.0336C52.5694 53.9613 53.8998 55.6218 53.8998 57.5892C53.8998 60.0945 52.6233 62.0934 50.5693 62.8037C49.4411 63.1981 46.07 63.3214 42.3102 63.3214Z" fill="#F36A4F"/>
<path d="M1.36317 59.4716C1.08288 59.4692 0.809877 59.3823 0.580041 59.2223C0.350205 59.0623 0.174293 58.8367 0.0754281 58.5752C0.0327282 58.4542 -0.311119 57.3831 0.933922 56.8094C1.1051 56.7491 1.28651 56.723 1.46781 56.7325C1.64911 56.7421 1.82674 56.7872 1.99055 56.8653C2.15437 56.9433 2.30118 57.0527 2.42258 57.1873C2.54398 57.3219 2.6376 57.479 2.6981 57.6497C2.75861 57.8204 2.7848 58.0013 2.77519 58.1821C2.76558 58.3628 2.72036 58.54 2.6421 58.7033C2.56384 58.8667 2.45408 59.013 2.31909 59.1341C2.1841 59.2551 2.02652 59.3485 1.85534 59.4088C1.69465 59.4506 1.52924 59.4717 1.36317 59.4716Z" fill="#F36A4F"/>
<path d="M45.3733 67.3997C45.09 67.3993 44.814 67.3099 44.5845 67.1443C43.2159 66.156 39.5167 64.1729 37.3929 63.2877C37.0627 63.1508 36.8006 62.8886 36.6643 62.5589C36.5279 62.2292 36.5285 61.859 36.6659 61.5298C36.8033 61.2005 37.0662 60.9392 37.3969 60.8032C37.7275 60.6673 38.0988 60.6679 38.429 60.8049C40.528 61.6788 44.5103 63.7718 46.1644 64.9639C46.3952 65.1305 46.5672 65.3658 46.6556 65.636C46.744 65.9061 46.7442 66.1972 46.6564 66.4675C46.5685 66.7378 46.397 66.9734 46.1665 67.1405C45.936 67.3076 45.6583 67.3976 45.3733 67.3975V67.3997Z" fill="#F36A4F"/>
<path d="M27.3382 42.3962C27.1505 42.3962 26.966 42.3481 26.8024 42.2565C26.6387 42.1649 26.5014 42.0329 26.4037 41.8731C26.306 41.7133 26.2511 41.5312 26.2443 41.3442C26.2376 41.1571 26.2792 40.9715 26.3651 40.8052C31.2149 31.4159 40.2269 24.5477 48.1803 18.4862C56.1337 12.4246 63.0129 7.17877 64.3478 0.890911C64.3746 0.748033 64.4297 0.611926 64.51 0.49058C64.5902 0.369233 64.694 0.265093 64.8151 0.184271C64.9363 0.103448 65.0724 0.0475734 65.2155 0.0199252C65.3586 -0.00772293 65.5058 -0.00658706 65.6485 0.0232661C65.7912 0.0531194 65.9264 0.111088 66.0463 0.19377C66.1662 0.276453 66.2683 0.382182 66.3466 0.504752C66.425 0.627322 66.478 0.764263 66.5025 0.907537C66.5271 1.05081 66.5227 1.19753 66.4896 1.33908C64.9928 8.42021 57.817 13.8879 49.5085 20.2184C41.7393 26.1387 32.9342 32.8479 28.3113 41.8023C28.2196 41.981 28.0802 42.1309 27.9085 42.2357C27.7368 42.3405 27.5395 42.396 27.3382 42.3962Z" fill="#F36A4F"/>
<path d="M41.1663 33.0966C39.5212 33.0966 37.9346 32.6977 36.5637 31.6759C35.44 30.8423 34.2376 29.1011 34.8557 25.5449C35.2692 23.1651 36.4288 20.4088 38.1885 17.5719C43.317 9.33672 51.2637 6.23089 57.6484 3.73457C60.6285 2.56932 63.2017 1.56541 64.7119 0.288118C64.8583 0.164324 65.0346 0.0810656 65.2234 0.0466938C65.4122 0.0123219 65.6067 0.0280445 65.7875 0.0922848C65.9682 0.156525 66.1289 0.267025 66.2533 0.412703C66.3777 0.55838 66.4615 0.734115 66.4963 0.922283C66.8514 2.79564 66.9143 7.83759 65.4423 11.0062C65.3201 11.2689 65.0983 11.4724 64.8256 11.572C64.5529 11.6716 64.2517 11.6591 63.9883 11.5373C63.7248 11.4154 63.5207 11.1942 63.4208 10.9223C63.3209 10.6504 63.3335 10.3501 63.4556 10.0874C64.3816 8.09529 64.5793 5.10373 64.5029 3.08472C62.8511 4.05053 60.7655 4.86396 58.4485 5.77375C52.3626 8.14234 44.7935 11.1003 40.0493 18.7215C36.8873 23.7993 35.9726 28.5118 37.8739 29.9258C40.4336 31.8305 44.5261 30.6384 47.8679 28.9801C45.5734 29.0742 42.9484 28.8031 40.7325 27.5706C40.4789 27.4295 40.2919 27.1937 40.2127 26.915C40.1335 26.6364 40.1685 26.3378 40.31 26.0849C40.4516 25.8321 40.6881 25.6456 40.9675 25.5666C41.247 25.4876 41.5464 25.5225 41.8 25.6637C46.0902 28.0502 52.7559 25.9774 52.8121 25.9572C53.0571 25.8795 53.3218 25.8902 53.5596 25.9876C53.7975 26.0849 53.9933 26.2626 54.1129 26.4896C54.2325 26.7166 54.2681 26.9782 54.2135 27.2288C54.159 27.4793 54.0177 27.7027 53.8144 27.8597C53.4863 28.1286 46.969 33.0966 41.1663 33.0966Z" fill="#F36A4F"/>
<path d="M63.6669 14.2868C63.4988 14.2864 63.333 14.2474 63.1823 14.173C63.0317 14.0985 62.9003 13.9905 62.7982 13.8573C62.6961 13.7241 62.6261 13.5692 62.5936 13.4047C62.561 13.2403 62.5669 13.0705 62.6106 12.9087C62.662 12.7143 62.7608 12.5357 62.8983 12.3888C63.0524 12.19 63.2704 12.0504 63.5158 11.9934C63.7611 11.9363 64.0187 11.9654 64.245 12.0758C64.4713 12.1861 64.6525 12.3709 64.758 12.599C64.8636 12.827 64.887 13.0844 64.8243 13.3277C64.7733 13.5377 64.667 13.7303 64.5164 13.8857C64.4135 14.0111 64.2839 14.1122 64.1369 14.1816C63.99 14.2509 63.8295 14.2869 63.6669 14.2868Z" fill="#F36A4F"/>
<path d="M54.2482 14.2845C54.0072 14.2836 53.7733 14.2033 53.5827 14.0563C53.3921 13.9092 53.2555 13.7035 53.1942 13.4711C53.0481 12.9333 51.8008 8.13786 53.4009 5.71773C53.4785 5.59485 53.58 5.48865 53.6993 5.40536C53.8186 5.32206 53.9534 5.26335 54.0957 5.23266C54.2381 5.20197 54.3852 5.19992 54.5283 5.22663C54.6715 5.25334 54.8078 5.30827 54.9294 5.38821C55.051 5.46814 55.1554 5.57147 55.2364 5.69214C55.3175 5.81281 55.3735 5.9484 55.4014 6.09095C55.4292 6.2335 55.4282 6.38015 55.3984 6.52231C55.3686 6.66447 55.3107 6.79928 55.228 6.91883C54.4257 8.13114 54.8505 11.228 55.3044 12.8952C55.3482 13.0571 55.354 13.2268 55.3215 13.3913C55.289 13.5558 55.219 13.7106 55.1169 13.8438C55.0148 13.977 54.8834 14.085 54.7327 14.1595C54.5821 14.234 54.4163 14.2729 54.2482 14.2733V14.2845Z" fill="#F36A4F"/>
<path d="M48.4095 19.6021C48.1611 19.6021 47.92 19.5177 47.726 19.363C47.532 19.2082 47.3966 18.9923 47.342 18.7506C46.5689 15.3422 46.9712 11.4947 47.2791 9.50479C47.3318 9.2265 47.4909 8.97955 47.7229 8.81609C47.9548 8.65264 48.2414 8.58549 48.5221 8.62884C48.8028 8.67219 49.0555 8.82263 49.227 9.04839C49.3985 9.27415 49.4753 9.55754 49.4411 9.83868C49.2163 11.3176 48.7669 15.098 49.477 18.2688C49.5135 18.4288 49.5134 18.595 49.4766 18.7549C49.4398 18.9148 49.3673 19.0644 49.2645 19.1925C49.1616 19.3207 49.0312 19.424 48.8828 19.495C48.7344 19.5659 48.5718 19.6025 48.4073 19.6021H48.4095Z" fill="#F36A4F"/>
<path d="M52.9942 28.1936C52.7351 28.1947 52.484 28.1041 52.2856 27.938C52.0872 27.7719 51.9543 27.5409 51.9106 27.2863C51.8669 27.0317 51.9153 26.7698 52.047 26.5474C52.1787 26.3249 52.3854 26.1563 52.6301 26.0715C55.3471 25.1146 58.4575 21.2604 59.4261 19.8553C59.503 19.7273 59.6054 19.6163 59.727 19.5292C59.8486 19.4422 59.9868 19.3809 60.1331 19.3492C60.2794 19.3176 60.4306 19.3162 60.5775 19.3451C60.7243 19.374 60.8636 19.4327 60.9869 19.5175C61.1101 19.6022 61.2145 19.7113 61.2938 19.8379C61.373 19.9646 61.4254 20.106 61.4476 20.2536C61.4698 20.4013 61.4615 20.5518 61.423 20.6961C61.3845 20.8403 61.3168 20.9752 61.224 21.0923C61.0644 21.3164 57.2911 26.7437 53.3582 28.1286C53.2415 28.1707 53.1183 28.1927 52.9942 28.1936Z" fill="#F36A4F"/>
<path d="M55.2325 22.8043C52.7985 22.7815 50.4279 22.028 48.4298 20.6419C48.2411 20.4996 48.1038 20.3003 48.0383 20.0737C47.9728 19.8471 47.9827 19.6055 48.0664 19.385C48.1502 19.1644 48.3033 18.9769 48.5029 18.8504C48.7025 18.7239 48.9378 18.6653 49.1736 18.6834C49.2568 18.6834 57.5743 19.2615 61.5813 15.0576C61.6804 14.9538 61.7989 14.8704 61.9303 14.8122C62.0616 14.754 62.2032 14.7221 62.3469 14.7185C62.4905 14.7149 62.6335 14.7395 62.7677 14.7909C62.9018 14.8424 63.0245 14.9197 63.1287 15.0184C63.2328 15.1172 63.3165 15.2354 63.3749 15.3664C63.4332 15.4973 63.4651 15.6385 63.4688 15.7817C63.4724 15.925 63.4477 16.0676 63.3961 16.2013C63.3445 16.3351 63.267 16.4574 63.168 16.5613C60.8127 19.0262 57.3833 20.1153 54.4864 20.5769C56.2548 20.7145 58.0254 20.3402 59.5857 19.499C59.8426 19.3641 60.1427 19.3365 60.42 19.4222C60.5573 19.4647 60.6849 19.5337 60.7955 19.6253C60.9061 19.7169 60.9975 19.8293 61.0644 19.9562C61.1314 20.083 61.1727 20.2218 61.1859 20.3645C61.1992 20.5072 61.1841 20.6512 61.1415 20.7881C61.0989 20.925 61.0297 21.0522 60.9378 21.1625C60.8459 21.2727 60.7332 21.3639 60.606 21.4307C58.9553 22.3219 57.1097 22.7937 55.2325 22.8043Z" fill="#F36A4F"/>
<path d="M39.8358 24.7225C39.5906 24.7224 39.3525 24.6401 39.1598 24.489C38.967 24.3378 38.8307 24.1265 38.7728 23.8889C38.0986 21.1483 38.7908 16.9288 38.82 16.7495C38.8677 16.4639 39.0272 16.2089 39.2634 16.0406C39.4997 15.8723 39.7933 15.8045 40.0797 15.852C40.3661 15.8996 40.6218 16.0586 40.7906 16.2942C40.9594 16.5297 41.0274 16.8225 40.9797 17.108C40.9797 17.1461 40.3347 21.0654 40.8988 23.3825C40.9368 23.5428 40.9378 23.7097 40.902 23.8705C40.8662 24.0313 40.7944 24.182 40.692 24.3113C40.5895 24.4406 40.4591 24.5451 40.3105 24.6171C40.1618 24.6891 39.9988 24.7266 39.8336 24.727L39.8358 24.7225Z" fill="#F36A4F"/>
<path d="M43.0248 44.9239C42.5271 44.9304 42.0349 44.819 41.5888 44.5989C40.373 43.9894 39.701 42.6472 39.5324 40.4892C39.3774 38.4881 39.083 36.3593 38.0672 35.7318C37.5188 35.3935 36.6446 35.4629 35.4692 35.938C34.8759 36.1778 33.0735 37.3408 31.2307 38.896C28.7968 40.9553 28.2372 42.069 28.2282 42.3267C28.24 42.4696 28.2235 42.6134 28.1795 42.7499C28.1356 42.8864 28.0651 43.0129 27.9722 43.1223C27.8792 43.2316 27.7655 43.3216 27.6377 43.3872C27.5098 43.4527 27.3703 43.4925 27.227 43.5043C27.0837 43.5161 26.9395 43.4996 26.8026 43.4558C26.6657 43.412 26.5388 43.3417 26.4291 43.249C26.3195 43.1563 26.2292 43.043 26.1634 42.9155C26.0977 42.788 26.0578 42.6489 26.046 42.506C25.9741 41.6858 26.2707 40.2651 29.7025 37.3273C31.4666 35.8215 33.6376 34.3223 34.6467 33.9145C36.5052 33.1616 38.0447 33.1481 39.2201 33.8742C41.155 35.0686 41.5236 37.8271 41.7169 40.3189C41.8158 41.5917 42.1192 42.4186 42.5731 42.6449C43.5687 43.1424 46.0071 41.6096 47.6207 40.5945C47.9758 40.3704 48.3219 40.1463 48.65 39.9559C48.8253 39.8506 49.0118 39.7318 49.2051 39.6085C50.6906 38.6696 52.938 37.2489 55.0303 38.2282C56.5113 38.9206 57.2147 40.0903 57.7271 40.9441C58.017 41.4236 58.289 41.8763 58.5227 41.9301C58.7025 41.9704 59.2868 41.9614 60.8554 40.9643C61.1001 40.8113 61.3954 40.7609 61.6772 40.8241C61.9589 40.8873 62.2042 41.0589 62.3596 41.3016C62.5149 41.5444 62.5678 41.8385 62.5066 42.1199C62.4455 42.4013 62.2752 42.6472 62.0331 42.804C60.2936 43.911 59.0553 44.2987 58.0215 44.0567C56.8978 43.7922 56.336 42.8757 55.8506 42.069C55.4011 41.3206 54.9741 40.6147 54.0976 40.2046C53.093 39.734 51.5221 40.7267 50.376 41.4528C50.167 41.585 49.9692 41.7105 49.7804 41.8225C49.4635 42.013 49.1309 42.2236 48.7871 42.441C46.9128 43.6219 44.843 44.9239 43.0248 44.9239Z" fill="#F36A4F"/>
<path d="M43.4451 19.6312C43.1548 19.6312 42.8764 19.5163 42.6712 19.3116C42.4659 19.107 42.3506 18.8294 42.3506 18.5399C42.3506 15.1025 42.9057 13.2538 43.5283 11.5126C43.5764 11.3775 43.6507 11.2532 43.747 11.1468C43.8432 11.0404 43.9596 10.9539 44.0894 10.8923C44.2192 10.8307 44.3599 10.7952 44.5035 10.7878C44.647 10.7804 44.7906 10.8013 44.9261 10.8493C45.0616 10.8973 45.1862 10.9714 45.293 11.0674C45.3997 11.1634 45.4865 11.2794 45.5482 11.4088C45.61 11.5383 45.6456 11.6786 45.653 11.8217C45.6604 11.9649 45.6394 12.1081 45.5913 12.2431C45.016 13.8565 44.5396 15.4453 44.5418 18.5377C44.5418 18.8271 44.4265 19.1047 44.2212 19.3094C44.016 19.514 43.7376 19.629 43.4473 19.629L43.4451 19.6312Z" fill="#F36A4F"/>
<path d="M53.2122 25.9303C52.0918 25.9181 50.9763 25.782 49.886 25.5247C49.6079 25.4564 49.3677 25.282 49.217 25.0391C49.0663 24.7961 49.0172 24.504 49.0802 24.2253C49.1431 23.9466 49.3132 23.7037 49.5537 23.5486C49.7943 23.3935 50.0863 23.3387 50.367 23.3959C53.5133 24.104 55.6303 23.7858 57.6372 22.2912C57.87 22.1179 58.1622 22.044 58.4496 22.0856C58.592 22.1062 58.7288 22.1545 58.8524 22.2278C58.976 22.3012 59.0839 22.3981 59.1699 22.513C59.256 22.6279 59.3184 22.7586 59.3538 22.8976C59.3892 23.0366 59.3968 23.1812 59.3761 23.3231C59.3554 23.465 59.307 23.6015 59.2334 23.7247C59.1599 23.8479 59.0627 23.9555 58.9474 24.0413C57.3037 25.2973 55.2828 25.963 53.2122 25.9303Z" fill="#F36A4F"/>
<path d="M22.0232 35.3218C21.8795 35.3218 21.7372 35.2935 21.6044 35.2387C21.4716 35.1839 21.3509 35.1035 21.2493 35.0021C21.1477 34.9008 21.0671 34.7805 21.012 34.6481C20.957 34.5157 20.9287 34.3738 20.9287 34.2305V31.398C20.9287 31.1086 21.044 30.831 21.2493 30.6264C21.4545 30.4217 21.7329 30.3067 22.0232 30.3067C22.3135 30.3067 22.5919 30.4217 22.7971 30.6264C23.0024 30.831 23.1177 31.1086 23.1177 31.398V34.2372C23.1159 34.5255 22.9998 34.8013 22.7947 35.0045C22.5897 35.2077 22.3123 35.3218 22.0232 35.3218Z" fill="#F36A4F"/>
<path d="M23.5559 33.9011H20.4703C20.18 33.9011 19.9016 33.7861 19.6964 33.5814C19.4911 33.3768 19.3758 33.0992 19.3758 32.8098C19.3758 32.5203 19.4911 32.2428 19.6964 32.0381C19.9016 31.8334 20.18 31.7185 20.4703 31.7185H23.5559C23.8462 31.7185 24.1246 31.8334 24.3298 32.0381C24.5351 32.2428 24.6504 32.5203 24.6504 32.8098C24.6504 33.0992 24.5351 33.3768 24.3298 33.5814C24.1246 33.7861 23.8462 33.9011 23.5559 33.9011Z" fill="#F36A4F"/>
<path d="M27.3382 43.4135C27.1322 43.4133 26.9304 43.3552 26.7561 43.2457C26.5818 43.1362 26.4419 42.9799 26.3527 42.7948C26.2635 42.6096 26.2285 42.4031 26.2518 42.199C26.2751 41.9949 26.3556 41.8015 26.4842 41.641C26.7674 41.2869 33.4915 32.9285 40.364 27.6468C40.4775 27.5567 40.6079 27.4901 40.7475 27.4507C40.8871 27.4113 41.0332 27.4 41.1772 27.4174C41.3213 27.4348 41.4604 27.4806 41.5865 27.5521C41.7126 27.6237 41.8233 27.7195 41.9119 27.834C42.0005 27.9486 42.0655 28.0795 42.1029 28.2193C42.1403 28.3591 42.1495 28.5049 42.1299 28.6483C42.1103 28.7916 42.0623 28.9296 41.9887 29.0543C41.9151 29.179 41.8173 29.2878 41.7011 29.3745C35.0422 34.4949 28.2619 42.9183 28.1945 43.0034C28.0919 43.1317 27.9617 43.2352 27.8134 43.3062C27.6651 43.3772 27.5027 43.4139 27.3382 43.4135Z" fill="#F36A4F"/>
</svg>
