<svg width="16" height="16" viewBox="0 0 16 16" fill="none" xmlns="http://www.w3.org/2000/svg">
<path d="M8.08215 11.3474C7.42257 11.3474 6.7778 11.1544 6.22937 10.7928C5.68095 10.4312 5.2535 9.91726 5.00109 9.31595C4.74868 8.71465 4.68264 8.05299 4.81132 7.41464C4.93999 6.7763 5.25761 6.18995 5.72401 5.72973C6.19041 5.26951 6.78463 4.9561 7.43154 4.82912C8.07845 4.70215 8.74899 4.76732 9.35837 5.01639C9.96775 5.26545 10.4886 5.68724 10.855 6.2284C11.2215 6.76956 11.4171 7.40579 11.4171 8.05664C11.4161 8.9291 11.0644 9.76556 10.4392 10.3825C9.81401 10.9994 8.96633 11.3464 8.08215 11.3474ZM8.08215 5.70745C7.61144 5.70745 7.15129 5.84519 6.7599 6.10324C6.36852 6.36129 6.06347 6.72807 5.88333 7.1572C5.7032 7.58632 5.65607 8.05852 5.7479 8.51407C5.83973 8.96963 6.0664 9.38809 6.39925 9.71653C6.7321 10.045 7.15617 10.2686 7.61784 10.3592C8.07951 10.4499 8.55805 10.4034 8.99293 10.2256C9.42782 10.0479 9.79952 9.74685 10.061 9.36065C10.3226 8.97444 10.4621 8.5204 10.4621 8.05591C10.4614 7.4333 10.2104 6.8364 9.7642 6.39615C9.31803 5.95589 8.71313 5.70822 8.08215 5.70745Z" fill="#F9B5A7"/>
<path d="M13.3181 12.9697C12.6273 12.9695 11.9648 12.6989 11.476 12.2174C10.9871 11.7358 10.7118 11.0825 10.7104 10.4009V6.72307C10.7104 6.56216 10.7104 6.35051 10.7104 6.12653C10.7104 5.87719 10.7104 5.61335 10.7104 5.39083C10.7104 5.26587 10.7607 5.14604 10.8503 5.05768C10.9398 4.96932 11.0612 4.91969 11.1879 4.91969C11.3145 4.91969 11.436 4.96932 11.5255 5.05768C11.615 5.14604 11.6653 5.26587 11.6653 5.39083C11.6653 5.61263 11.6653 5.87502 11.6653 6.12436C11.6653 6.34906 11.6653 6.55926 11.6653 6.72307V10.4009C11.6665 10.8327 11.8412 11.2464 12.151 11.5513C12.4608 11.8562 12.8805 12.0274 13.3181 12.0274C14.2539 12.0274 15.0443 11.2823 15.0443 10.4009V6.72307C15.0443 6.40052 14.8688 5.62712 14.6638 5.18425C14.6378 5.12795 14.6232 5.06713 14.621 5.00528C14.6188 4.94343 14.6289 4.88175 14.6508 4.82377C14.6728 4.76578 14.7061 4.71263 14.7488 4.66734C14.7916 4.62205 14.8429 4.58551 14.9 4.55981C14.9571 4.53411 15.0187 4.51975 15.0814 4.51755C15.144 4.51535 15.2066 4.52536 15.2653 4.547C15.3241 4.56864 15.3779 4.60148 15.4238 4.64367C15.4697 4.68585 15.5068 4.73654 15.5328 4.79284C15.7774 5.32124 16 6.24251 16 6.72307V10.4009C15.9993 11.7933 14.7747 12.9697 13.3181 12.9697Z" fill="#F9B5A7"/>
<path d="M8.11641 16C6.65507 16.0016 5.22046 15.6134 3.96434 14.8765C2.70822 14.1397 1.67729 13.0815 0.980618 11.8139C0.283944 10.5463 -0.0525728 9.1165 0.00666522 7.6757C0.0659033 6.2349 0.518694 4.83669 1.31714 3.62897C2.11558 2.42126 3.22999 1.44894 4.54248 0.814885C5.85497 0.18083 7.31673 -0.0913902 8.77314 0.0270216C10.2295 0.145433 11.6264 0.650074 12.816 1.48756C14.0057 2.32505 14.9437 3.46424 15.5311 4.78463C15.5793 4.89842 15.5804 5.02635 15.5341 5.14092C15.4878 5.2555 15.3978 5.34759 15.2835 5.39741C15.1691 5.44724 15.0395 5.45082 14.9225 5.4074C14.8055 5.36397 14.7104 5.277 14.6577 5.16516C14.0867 3.88618 13.1433 2.80355 11.9474 2.05482C10.7514 1.30608 9.35693 0.925046 7.94103 0.960117C6.52513 0.995187 5.15176 1.44478 3.99539 2.25178C2.83902 3.05878 1.95186 4.18675 1.44663 5.49239C0.941391 6.79803 0.840882 8.2224 1.15787 9.58453C1.47486 10.9467 2.19504 12.1851 3.22691 13.1424C4.25877 14.0998 5.55576 14.7328 6.95306 14.9612C8.35037 15.1895 9.78494 15.0029 11.0745 14.4249C11.1317 14.3994 11.1935 14.3853 11.2563 14.3833C11.3191 14.3814 11.3817 14.3917 11.4404 14.4136C11.4992 14.4355 11.553 14.4686 11.5988 14.511C11.6446 14.5534 11.6815 14.6044 11.7073 14.6609C11.7332 14.7173 11.7475 14.7783 11.7495 14.8403C11.7514 14.9022 11.741 14.964 11.7188 15.0219C11.6966 15.0799 11.6631 15.133 11.6201 15.1782C11.5771 15.2234 11.5255 15.2598 11.4682 15.2853C10.416 15.7585 9.27276 16.0023 8.11641 16Z" fill="#F9B5A7"/>
</svg>
