<svg width="69" height="48" viewBox="0 0 69 48" fill="none" xmlns="http://www.w3.org/2000/svg">
<path d="M6.20864 48C4.5703 47.9985 2.99932 47.3198 1.83979 46.1127C0.680265 44.9056 0.0267164 43.2684 0.0222931 41.5597L0 6.48971C0.00147094 4.77976 0.652864 3.14016 1.81142 1.93023C2.96999 0.720293 4.54121 0.0387206 6.18077 0.0348753L62.7914 0C64.4309 0.00153409 66.003 0.680891 67.1632 1.88919C68.3233 3.09749 68.9768 4.73617 68.9805 6.44611L69 41.5103C68.9963 43.2185 68.3439 44.8555 67.1855 46.0631C66.0271 47.2707 64.4571 47.9504 62.8192 47.9535L6.20864 48ZM62.7941 3.77815L6.18355 3.81303C5.50384 3.81457 4.85248 4.09725 4.37237 4.59906C3.89226 5.10087 3.62263 5.78081 3.62263 6.48971L3.64493 41.5597C3.64566 42.2678 3.91571 42.9467 4.39582 43.4474C4.87592 43.9482 5.52688 44.2298 6.20585 44.2306L62.8164 44.1753C63.4957 44.1738 64.1466 43.8915 64.6266 43.3903C65.1067 42.8892 65.3766 42.21 65.3774 41.5016L65.3579 6.43739C65.3535 5.73102 65.0815 5.05511 64.6013 4.55698C64.121 4.05886 63.4715 3.77891 62.7941 3.77815Z" fill="#F36A4F"/>
<path d="M61.7964 8.67813C61.6757 8.67797 61.5553 8.66531 61.4369 8.64035H61.3951C60.9427 8.52276 60.5511 8.22773 60.302 7.81667C60.0529 7.40561 59.9653 6.91018 60.0576 6.43349C60.1499 5.95681 60.4149 5.53561 60.7974 5.25754C61.1799 4.97948 61.6505 4.86598 62.1113 4.94066H62.1531C62.5928 5.03379 62.9838 5.29382 63.2502 5.67039C63.5166 6.04695 63.6395 6.51324 63.5951 6.97892C63.5507 7.4446 63.3421 7.87651 63.0098 8.19097C62.6775 8.50544 62.2451 8.68007 61.7964 8.68104V8.67813Z" fill="#F36A4F"/>
<path d="M34.4483 32.2015C34.032 32.2014 33.6285 32.0516 33.3058 31.7772C33.1665 31.6609 19.4005 19.9864 11.0935 12.5318C10.7291 12.205 10.5042 11.7406 10.4681 11.2409C10.4503 10.9934 10.4793 10.7447 10.5536 10.5089C10.6279 10.2731 10.746 10.055 10.9012 9.8668C11.0564 9.67864 11.2455 9.5242 11.4579 9.41229C11.6703 9.30038 11.9018 9.2332 12.1391 9.21458C12.6183 9.17697 13.0922 9.33945 13.4566 9.66626C20.3423 15.8392 30.9845 24.93 34.4567 27.8828C38.1768 24.7527 50.1594 14.7116 56.6857 9.09373C57.0584 8.80971 57.521 8.68481 57.979 8.74454C58.4371 8.80427 58.856 9.04413 59.1501 9.41511C59.4443 9.7861 59.5916 10.2602 59.5619 10.7406C59.5322 11.2211 59.3277 11.6715 58.9902 12C51.2044 18.6844 35.7385 31.6464 35.5825 31.7627C35.2639 32.0404 34.8635 32.1953 34.4483 32.2015Z" fill="#F36A4F"/>
<path d="M8.18982 9.5907C7.83151 9.59056 7.48128 9.47959 7.18345 9.27182C6.88561 9.06406 6.65356 8.76883 6.51663 8.4235C6.37971 8.07816 6.34407 7.69823 6.41423 7.33176C6.48438 6.96529 6.65718 6.62876 6.91075 6.36474L6.95255 6.32114C7.29437 5.96735 7.75695 5.76966 8.23852 5.77157C8.72009 5.77348 9.18121 5.97482 9.52044 6.33132C9.85967 6.68781 10.0492 7.17024 10.0474 7.67249C10.0456 8.17473 9.85251 8.65565 9.51069 9.00944L9.46889 9.05304C9.12753 9.40168 8.66759 9.59502 8.18982 9.5907Z" fill="#F36A4F"/>
<path d="M3.09296 46.5498C2.71639 46.5525 2.34837 46.4327 2.04009 46.2072C1.73181 45.9816 1.49861 45.6614 1.37293 45.2912C1.24724 44.921 1.23532 44.5191 1.33883 44.1415C1.44233 43.7639 1.65611 43.4293 1.95043 43.1843L22.5409 26.0373C22.9175 25.7247 23.3976 25.581 23.8758 25.6377C24.354 25.6944 24.791 25.9468 25.0907 26.3396C25.3904 26.7323 25.5282 27.2331 25.4739 27.7318C25.4195 28.2305 25.1774 28.6862 24.8009 28.9988L4.2104 46.1458C3.89206 46.4077 3.49839 46.55 3.09296 46.5498Z" fill="#F36A4F"/>
<path d="M66.0434 46.5004C65.6331 46.5007 65.235 46.3551 64.9148 46.0877L43.9537 28.6413C43.5802 28.3281 43.3411 27.8732 43.2885 27.3765C43.2359 26.8797 43.3743 26.3814 43.6733 25.9908C43.9722 25.6002 44.4074 25.349 44.8836 25.2924C45.3597 25.2357 45.838 25.3782 46.2136 25.6885L67.1831 43.1465C67.4728 43.3926 67.6825 43.7261 67.7833 44.1013C67.8842 44.4765 67.8714 44.8751 67.7465 45.2424C67.6217 45.6096 67.3911 45.9277 67.0862 46.1529C66.7812 46.3781 66.417 46.4995 66.0434 46.5004Z" fill="#F36A4F"/>
</svg>
