<svg width="23" height="16" viewBox="0 0 23 16" fill="none" xmlns="http://www.w3.org/2000/svg">
<path d="M1.98152 16C1.45915 15.9995 0.958257 15.7733 0.588553 15.3709C0.218849 14.9685 0.0104714 14.4228 0.00906108 13.8532L0.00195312 2.16324C0.00242212 1.59325 0.210113 1.04672 0.579509 0.643409C0.948905 0.240098 1.44988 0.0129069 1.97263 0.0116251L20.0224 0C20.5451 0.000511364 21.0464 0.226964 21.4163 0.62973C21.7862 1.0325 21.9946 1.57872 21.9957 2.1487L22.002 13.8368C22.0008 14.4062 21.7927 14.9518 21.4234 15.3544C21.0541 15.7569 20.5535 15.9835 20.0313 15.9845L1.98152 16ZM20.0233 1.25938L1.97352 1.27101C1.7568 1.27152 1.54912 1.36575 1.39604 1.53302C1.24296 1.70029 1.15699 1.92694 1.157 2.16324L1.1641 13.8532C1.16434 14.0893 1.25044 14.3156 1.40352 14.4825C1.5566 14.6494 1.76415 14.7433 1.98063 14.7435L20.0304 14.7251C20.247 14.7246 20.4545 14.6305 20.6075 14.4634C20.7606 14.2964 20.8467 14.07 20.8469 13.8339L20.8407 2.1458C20.8393 1.91034 20.7526 1.68504 20.5995 1.51899C20.4463 1.35295 20.2392 1.25964 20.0233 1.25938Z" fill="white"/>
<path d="M19.7052 2.89288C19.6667 2.89282 19.6283 2.8886 19.5906 2.88028H19.5773C19.433 2.84109 19.3082 2.74275 19.2287 2.60572C19.1493 2.4687 19.1214 2.30356 19.1508 2.14467C19.1802 1.98577 19.2647 1.84537 19.3867 1.75268C19.5086 1.65999 19.6587 1.62216 19.8056 1.64705H19.8189C19.9591 1.67809 20.0838 1.76477 20.1687 1.8903C20.2537 2.01582 20.2929 2.17125 20.2787 2.32647C20.2645 2.4817 20.198 2.62567 20.0921 2.73049C19.9861 2.83531 19.8483 2.89352 19.7052 2.89385V2.89288Z" fill="white"/>
<path d="M10.9855 10.734C10.8528 10.734 10.7241 10.684 10.6212 10.5926C10.5768 10.5538 6.18763 6.66232 3.53903 4.17746C3.42286 4.06852 3.35114 3.91372 3.33964 3.74713C3.33395 3.66463 3.34321 3.58173 3.36691 3.50314C3.3906 3.42455 3.42826 3.35183 3.47773 3.28911C3.5272 3.22639 3.58752 3.17491 3.65524 3.1376C3.72296 3.1003 3.79675 3.07791 3.87241 3.0717C4.0252 3.05917 4.17631 3.11332 4.29248 3.22226C6.48795 5.2799 9.8811 8.31018 10.9882 9.29443C12.1743 8.25108 15.9948 4.90403 18.0757 3.03142C18.1945 2.93674 18.342 2.89511 18.4881 2.91502C18.6341 2.93493 18.7677 3.01488 18.8614 3.13855C18.9552 3.26221 19.0022 3.42025 18.9927 3.58039C18.9832 3.74053 18.9181 3.89068 18.8105 4.00017C16.328 6.22832 11.3969 10.549 11.3471 10.5877C11.2456 10.6803 11.1179 10.732 10.9855 10.734Z" fill="white"/>
<path d="M2.61321 3.19667C2.49896 3.19663 2.3873 3.15964 2.29234 3.09038C2.19738 3.02113 2.12339 2.92272 2.07973 2.8076C2.03607 2.69249 2.02471 2.56585 2.04708 2.44369C2.06945 2.32154 2.12454 2.20936 2.20539 2.12135L2.21872 2.10682C2.3277 1.98889 2.47519 1.92299 2.62874 1.92363C2.78228 1.92426 2.92931 1.99138 3.03747 2.11021C3.14563 2.22904 3.20606 2.38985 3.20548 2.55727C3.2049 2.72468 3.14334 2.88499 3.03436 3.00292L3.02103 3.01745C2.91219 3.13367 2.76554 3.19811 2.61321 3.19667Z" fill="white"/>
<path d="M0.988134 15.5172C0.868069 15.5181 0.750728 15.4782 0.652438 15.403C0.554147 15.3279 0.479793 15.2211 0.439719 15.0977C0.399645 14.9743 0.395845 14.8404 0.428847 14.7145C0.461848 14.5886 0.530011 14.4771 0.623851 14.3954L7.18893 8.67975C7.30899 8.57556 7.4621 8.52765 7.61456 8.54654C7.76702 8.56543 7.90635 8.64959 8.00191 8.7805C8.09746 8.9114 8.14141 9.07833 8.12408 9.24457C8.10675 9.4108 8.02956 9.56273 7.9095 9.66691L1.34442 15.3826C1.24292 15.4699 1.1174 15.5173 0.988134 15.5172Z" fill="white"/>
<path d="M21.0593 15.4999C20.9285 15.5001 20.8016 15.4515 20.6995 15.3624L14.0162 9.54693C13.8971 9.44252 13.8209 9.29091 13.8041 9.12531C13.7874 8.95972 13.8315 8.79363 13.9268 8.66342C14.0221 8.53321 14.1609 8.4495 14.3127 8.43062C14.4645 8.41174 14.617 8.45922 14.7368 8.56267L21.4227 14.382C21.5151 14.464 21.5819 14.5752 21.6141 14.7003C21.6462 14.8253 21.6421 14.9582 21.6023 15.0806C21.5625 15.203 21.489 15.3091 21.3918 15.3841C21.2946 15.4592 21.1784 15.4997 21.0593 15.4999Z" fill="white"/>
</svg>
