<svg width="21" height="14" viewBox="0 0 21 14" fill="none" xmlns="http://www.w3.org/2000/svg">
<path d="M11.5043 7.07093H8.42465V8.68747H11.5043V12.18C11.5044 12.2292 11.4854 12.2764 11.4515 12.3113C11.4177 12.3463 11.3717 12.3662 11.3236 12.3667H1.75122C1.72736 12.3665 1.70375 12.3616 1.68175 12.3522C1.65976 12.3427 1.63979 12.3289 1.62301 12.3116C1.60622 12.2943 1.59294 12.2737 1.58392 12.2511C1.5749 12.2286 1.57031 12.2044 1.57043 12.18V4.75253C1.57043 4.64893 1.6517 4.56493 1.75122 4.56493H11.3245C11.3726 4.56542 11.4186 4.58531 11.4524 4.62026C11.4863 4.65522 11.5053 4.70241 11.5053 4.7516V7.07093H11.5043ZM16.7589 3.46827L16.6987 3.5308L15.6678 4.60133L18.0427 7.07093H13.0839V2.65347C13.0854 2.45634 13.0102 2.26668 12.875 2.12615C12.7397 1.98563 12.5554 1.90573 12.3626 1.904H11.687C11.6559 1.9068 11.3948 1.90773 10.9054 1.90773V0.7504C10.9062 0.652713 10.8882 0.555813 10.8525 0.465233C10.8167 0.374653 10.7638 0.292167 10.6968 0.222485C10.6298 0.152803 10.5501 0.0972902 10.4621 0.059116C10.3741 0.0209419 10.2797 0.000854211 10.1841 0C9.77687 0 9.45365 0.336 9.45365 0.749467V1.9068H3.64487V0.7504C3.64571 0.652713 3.62772 0.555813 3.59193 0.465233C3.55614 0.374653 3.50324 0.292167 3.43626 0.222485C3.36928 0.152803 3.28953 0.0972902 3.20156 0.059116C3.11359 0.0209419 3.01913 0.000854211 2.92357 0C2.51543 0 2.19313 0.336 2.19313 0.749467V1.9068H1.46635C1.42891 1.9068 1.41339 1.904 1.39787 1.904H0.721304C0.323217 1.904 0 2.24 0 2.65347V3.64933C0 3.70067 0.00547826 3.75013 0.0146087 3.79867V12.1781C0.00931676 12.2033 0.00686593 12.229 0.00730435 12.2547V13.2505C0.00730435 13.664 0.330522 14 0.728609 14H1.40426C5.05948 13.9983 8.7147 13.9983 12.3699 14C12.7689 14 13.0912 13.664 13.0912 13.2505V12.2547C13.0917 12.229 13.0892 12.2033 13.0839 12.1781V8.68747H18.0417L15.6687 11.1543L16.7571 12.2883L21 7.87733L16.7589 3.46733V3.46827Z" fill="white"/>
</svg>
