<svg width="76" height="81" viewBox="0 0 76 81" fill="none" xmlns="http://www.w3.org/2000/svg">
<path d="M10.1039 25.8076C11.1611 25.8076 12.018 24.9439 12.018 23.8785C12.018 22.813 11.1611 21.9493 10.1039 21.9493C9.04682 21.9493 8.18985 22.813 8.18985 23.8785C8.18985 24.9439 9.04682 25.8076 10.1039 25.8076Z" fill="#F36A4F"/>
<path d="M62.321 32.1583C63.3782 32.1583 64.2351 31.2946 64.2351 30.2292C64.2351 29.1637 63.3782 28.3 62.321 28.3C61.2639 28.3 60.4069 29.1637 60.4069 30.2292C60.4069 31.2946 61.2639 32.1583 62.321 32.1583Z" fill="#F36A4F"/>
<path d="M43.2467 7.79482C44.3039 7.79482 45.1608 6.93112 45.1608 5.86569C45.1608 4.80025 44.3039 3.93655 43.2467 3.93655C42.1896 3.93655 41.3327 4.80025 41.3327 5.86569C41.3327 6.93112 42.1896 7.79482 43.2467 7.79482Z" fill="#F36A4F"/>
<path d="M8.7222 32.1069H6.06066V35.2454H8.7222V32.1069Z" fill="#F36A4F"/>
<path d="M8.7222 36.9041H6.06066V40.0425H8.7222V36.9041Z" fill="#F36A4F"/>
<path d="M6.45534 34.6195H3.34133V37.302H6.45534V34.6195Z" fill="#F36A4F"/>
<path d="M11.4415 34.6195H8.32746V37.302H11.4415V34.6195Z" fill="#F36A4F"/>
<path d="M66.0317 0.223542H63.3702V3.36202H66.0317V0.223542Z" fill="#F36A4F"/>
<path d="M66.0317 5.02073H63.3702V8.15921H66.0317V5.02073Z" fill="#F36A4F"/>
<path d="M63.7651 2.73619H60.6511V5.41865H63.7651V2.73619Z" fill="#F36A4F"/>
<path d="M68.751 2.73619H65.637V5.41865H68.751V2.73619Z" fill="#F36A4F"/>
<path d="M19.0823 10.2828H16.057V13.8527H19.0823V10.2828Z" fill="#F36A4F"/>
<path d="M19.0823 15.7371H16.057V19.3071H19.0823V15.7371Z" fill="#F36A4F"/>
<path d="M16.5071 13.1397H12.965V16.1887H16.5071V13.1397Z" fill="#F36A4F"/>
<path d="M22.1763 13.1397H18.6343V16.1887H22.1763V13.1397Z" fill="#F36A4F"/>
<path d="M41.4546 80.0001C40.2261 79.9871 39.0038 79.8227 37.8149 79.5106C37.2072 79.3585 35.6214 78.822 32.6316 77.8117C26.947 75.8892 13.6326 71.3804 11.6875 71.6599C10.4388 71.8342 8.90616 72.3305 7.12958 73.1106C6.96938 73.1817 6.79687 73.2202 6.6219 73.2241C6.44692 73.2279 6.27291 73.197 6.10979 73.1331C5.94667 73.0691 5.79765 72.9734 5.67122 72.8515C5.5448 72.7295 5.44345 72.5836 5.37296 72.4221C5.30248 72.2607 5.26423 72.0868 5.26042 71.9105C5.2566 71.7341 5.28729 71.5587 5.35072 71.3943C5.41416 71.2299 5.5091 71.0797 5.63012 70.9523C5.75115 70.8249 5.8959 70.7227 6.05609 70.6517C8.05225 69.7576 9.82661 69.2077 11.3215 68.9975C13.4663 68.698 21.0805 71.0675 33.4788 75.2566C35.8654 76.0636 37.928 76.761 38.4604 76.8951C40.8668 77.5009 42.3174 77.2595 42.5281 77.2193C46.0768 76.1016 49.9471 72.7038 55.2879 68.0207C57.8852 65.745 60.8328 63.1632 64.3061 60.3354C66.0317 58.9316 67.5532 57.7043 68.8086 56.694C70.4321 55.3863 71.8583 54.235 72.3285 53.8215C72.3585 53.5851 72.3 53.346 72.1643 53.1509C71.8028 52.6345 70.8336 52.3573 69.5161 52.3774C66.7747 52.4266 57.5236 58.2543 49.8052 63.9836C48.4394 64.9829 47.1385 66.0693 45.9104 67.236C45.6589 67.4839 45.3201 67.6212 44.9683 67.6181C44.6166 67.6149 44.2803 67.4715 44.0332 67.2191C43.786 66.9668 43.6481 66.6261 43.6495 66.2715C43.6509 65.9169 43.7916 65.5773 44.0407 65.327C45.3604 64.073 46.7608 62.908 48.2326 61.8398C50.9408 59.828 64.6921 49.7978 69.474 49.7106C73.0648 49.6458 74.298 51.3 74.7172 52.2925C75.214 53.4728 75.0543 54.9012 74.3424 55.6187C73.9897 55.9742 72.9029 56.8527 70.4765 58.8064C69.2233 59.8146 67.7063 61.0418 65.9829 62.4389C62.5451 65.2354 59.6196 67.8038 57.0401 70.0616C51.4265 74.9794 47.3721 78.5359 43.2689 79.8146L43.2068 79.8324C42.6313 79.958 42.0432 80.0143 41.4546 80.0001Z" fill="#F36A4F"/>
<path d="M3.25259 75.1649C3.03237 75.1585 2.81685 75.0991 2.62396 74.9918C2.43108 74.8845 2.2664 74.7323 2.14362 74.548C2.02607 74.3647 1.50485 73.4034 2.69367 72.5853C2.84469 72.4931 3.01225 72.4318 3.18677 72.4049C3.3613 72.378 3.53937 72.386 3.71083 72.4284C3.88229 72.4709 4.04377 72.547 4.18606 72.6523C4.32835 72.7577 4.44866 72.8902 4.54011 73.0424C4.63157 73.1946 4.69239 73.3635 4.71909 73.5394C4.74579 73.7153 4.73786 73.8948 4.69574 74.0676C4.65362 74.2404 4.57815 74.4031 4.47362 74.5465C4.36909 74.69 4.23757 74.8112 4.08654 74.9034C3.83696 75.0646 3.54886 75.1549 3.25259 75.1649Z" fill="#F36A4F"/>
<path d="M53.3361 54.7089L51.9167 52.44L53.0411 51.7247C53.7065 51.3 54.3253 50.8954 54.8687 50.5377C57.5702 48.7628 59.3557 47.5915 61.6756 47.9133C64.7808 48.3425 66.5152 51.0764 66.5862 51.1927L67.2959 52.3282L65.0447 53.7589L64.3372 52.6278C64.2972 52.5652 63.1395 50.8238 61.3119 50.5712C60.0277 50.3924 58.9209 51.0787 56.3215 52.7865C55.7692 53.1486 55.146 53.5577 54.4606 53.9936L53.3361 54.7089Z" fill="#F36A4F"/>
<path d="M41.7563 63.3643C36.5863 63.3643 30.6666 63.1274 28.8922 63.0513C28.7174 63.0439 28.5459 63.0018 28.3872 62.9274C28.2286 62.8531 28.0861 62.748 27.9678 62.6182C27.8494 62.4884 27.7577 62.3363 27.6976 62.1707C27.6376 62.0051 27.6106 61.8292 27.618 61.6531C27.6254 61.477 27.6672 61.3041 27.7409 61.1442C27.8147 60.9843 27.9189 60.8407 28.0478 60.7214C28.1766 60.6022 28.3274 60.5097 28.4917 60.4492C28.656 60.3887 28.8306 60.3614 29.0053 60.3689C36.3578 60.6841 47.4343 60.8763 49.0379 60.3152C49.976 59.9866 50.535 58.9897 50.535 57.6484C50.535 56.5084 49.2042 55.84 48.6164 55.6008C46.882 55.0241 23.7754 51.0138 19.1776 52.1024C16.9596 52.6255 10.5276 55.3683 5.48173 57.6909C5.16085 57.8391 4.79469 57.8528 4.4638 57.7289C4.13292 57.605 3.86441 57.3537 3.71735 57.0303C3.57029 56.7069 3.55673 56.3379 3.67964 56.0044C3.80255 55.6709 4.05187 55.4003 4.37276 55.2521C5.46842 54.7469 15.1808 50.2873 18.5676 49.487C24.0171 48.1995 48.0331 52.4735 49.5879 53.1017C51.8813 54.0271 53.1943 55.6835 53.1943 57.6462C53.1943 60.1454 51.9345 62.1393 49.9073 62.8479C48.7939 63.2414 45.467 63.3643 41.7563 63.3643Z" fill="#F36A4F"/>
<path d="M1.34533 59.524C1.06871 59.5216 0.799277 59.4349 0.572449 59.2753C0.345621 59.1157 0.172012 58.8907 0.0744409 58.6298C0.0322998 58.5091 -0.307047 57.4406 0.921698 56.8683C1.09063 56.8081 1.26967 56.7821 1.4486 56.7916C1.62752 56.8012 1.80283 56.8462 1.9645 56.924C2.12618 57.0019 2.27106 57.111 2.39087 57.2453C2.51068 57.3796 2.60308 57.5363 2.66279 57.7066C2.7225 57.8768 2.74835 58.0573 2.73887 58.2376C2.72938 58.418 2.68475 58.5946 2.60752 58.7576C2.53028 58.9205 2.42196 59.0665 2.28874 59.1873C2.15551 59.3081 1.99999 59.4012 1.83106 59.4614C1.67247 59.5031 1.50923 59.5241 1.34533 59.524Z" fill="#F36A4F"/>
<path d="M44.7794 67.4327C44.4998 67.4323 44.2274 67.3431 44.0009 67.1779C42.6501 66.1921 38.9994 64.2137 36.9034 63.3308C36.5776 63.1941 36.3189 62.9326 36.1843 62.6037C36.0498 62.2748 36.0503 61.9055 36.1859 61.5771C36.3215 61.2487 36.581 60.9879 36.9073 60.8523C37.2336 60.7167 37.6 60.7173 37.9259 60.854C39.9975 61.7258 43.9277 63.8136 45.5601 65.0028C45.7879 65.1691 45.9576 65.4038 46.0448 65.6732C46.1321 65.9427 46.1323 66.2331 46.0456 66.5028C45.9589 66.7724 45.7896 67.0075 45.5622 67.1741C45.3347 67.3408 45.0606 67.4305 44.7794 67.4305V67.4327Z" fill="#F36A4F"/>
<path d="M59.3934 17.2773C58.5063 16.8526 58.1469 16.0478 57.7255 15.1179C57.2132 13.9868 56.5744 12.5763 54.8178 11.9258C54.1678 11.6813 53.4799 11.5549 52.7862 11.5525C51.7244 11.5541 50.684 11.8528 49.7808 12.4153C48.7938 13.0189 48.3081 13.7409 47.8468 14.7133C47.7309 14.9742 47.6295 15.2414 47.5429 15.5136C47.4487 15.8198 47.3323 16.1187 47.1947 16.4077C47.0115 16.5227 46.8754 16.7001 46.811 16.9077C46.7467 17.1153 46.7585 17.3393 46.8443 17.5388C46.9184 17.7002 47.0371 17.8366 47.1862 17.9318C47.3353 18.0269 47.5084 18.0768 47.6849 18.0753C47.8053 18.0757 47.9245 18.0514 48.0353 18.0038C48.7007 17.7132 48.9757 16.9286 49.2596 16.097C49.3417 15.8578 49.4193 15.6343 49.4814 15.4979C49.823 14.7804 50.1091 14.3467 50.7212 13.9734C51.2349 13.6514 51.8155 13.4534 52.4176 13.3949C53.0197 13.3363 53.6271 13.4188 54.1923 13.6359C55.2392 14.0248 55.6296 14.8832 56.0798 15.8712C56.2736 16.321 56.4959 16.7578 56.7452 17.1789C56.1748 17.266 55.614 17.4082 55.0706 17.6037C53.4005 18.2184 52.5355 19.8391 52.866 21.7525C52.9547 22.2577 53.0701 22.8099 53.192 23.3956V23.4201C53.8042 26.3463 54.565 29.9899 52.9547 32.2946C49.8052 36.8079 46.8931 37.0314 44.3225 37.2259C42.9629 37.331 41.6809 37.4293 40.6052 38.1916C38.5647 39.6379 36.5508 42.2935 36.329 44.5557C36.0948 43.9559 36.0087 43.3076 36.0783 42.6668C36.208 42.4661 36.3272 42.2586 36.4354 42.0454C36.5307 41.8616 36.5607 41.6504 36.5203 41.4471C36.48 41.2437 36.3717 41.0604 36.2136 40.9277C36.0536 40.8006 35.8569 40.7295 35.6532 40.7251C35.4496 40.7206 35.25 40.7831 35.0847 40.9031C34.7706 41.154 34.5388 41.4944 34.4193 41.88C34.1135 42.3577 33.67 42.7298 33.1484 42.9462C33.0057 42.9929 32.855 43.0093 32.7057 42.9943C32.5565 42.9793 32.4119 42.9333 32.2812 42.8591C32.1144 42.7708 31.9744 42.6389 31.8756 42.4773C31.7769 42.3156 31.7231 42.1301 31.7201 41.9403C31.6983 41.5598 31.8221 41.1854 32.0661 40.8942C32.213 40.7823 32.3509 40.659 32.4786 40.5253C32.6322 40.3618 32.7204 40.1467 32.7261 39.9216C32.7318 39.6965 32.6547 39.4772 32.5095 39.306C32.3644 39.1347 32.1616 39.0237 31.9401 38.9941C31.7185 38.9646 31.494 39.0187 31.3097 39.1461C31.1514 39.2557 31.003 39.3791 30.8661 39.5149C30.5814 39.6985 30.2505 39.7962 29.9124 39.7966C29.6541 39.8029 29.3994 39.7346 29.1783 39.5999C28.9046 39.3698 28.7272 39.0441 28.6815 38.6878C28.5107 37.8429 28.5107 37.8429 30.2052 37.0158C30.4146 36.9151 30.5775 36.737 30.6601 36.5185C30.7427 36.3 30.7387 36.0578 30.6488 35.8422C30.578 35.6772 30.4609 35.5367 30.312 35.4378C30.1631 35.3389 29.9887 35.286 29.8104 35.2856C29.7075 35.2857 29.6055 35.3039 29.5088 35.3392C29.4067 35.3772 29.3025 35.4175 29.1916 35.4622L29.1184 35.4912C28.799 35.6414 28.4587 35.7417 28.1092 35.7885C28.0659 35.7912 28.0226 35.7836 27.9828 35.7662C27.6146 35.5628 27.242 35.1403 27.2021 34.872C27.1622 34.6038 27.3795 34.074 27.7233 33.7856C27.8704 33.6577 28.0503 33.574 28.2423 33.5442H28.3576C28.4375 33.5442 28.5196 33.5576 28.6083 33.5599C28.7791 33.5599 28.9631 33.5822 29.1849 33.6046L29.3823 33.6247C29.4985 33.639 29.6163 33.6301 29.729 33.5984C29.8416 33.5666 29.947 33.5127 30.0389 33.4398C30.1309 33.3669 30.2076 33.2764 30.2647 33.1734C30.3218 33.0705 30.3581 32.9572 30.3715 32.8401C30.4159 32.3773 30.1098 32.2119 29.8038 32.0465L29.4467 31.823H29.3557C29.2426 31.8096 29.1184 31.785 28.9964 31.7604C28.7779 31.7101 28.5551 31.6817 28.331 31.6754H28.2024C27.8342 31.6374 27.537 31.4966 26.9847 31.0875C26.4325 30.6784 26.2772 30.1196 26.4103 29.1338C28.5839 31.0987 32.6205 32.1247 34.2197 32.2946C34.6904 32.344 35.164 32.3605 35.637 32.3438C35.7015 32.4469 35.7758 32.5435 35.8588 32.6322C36.3879 33.1867 37.0716 33.5663 37.8194 33.7208C38.8131 33.9756 39.5938 33.8862 40.2459 33.457C40.9867 32.963 41.4325 32.0823 41.6498 30.6874C41.6862 30.4482 41.627 30.2043 41.4852 30.009C41.3434 29.8138 41.1307 29.6831 40.8935 29.6457C40.8477 29.6423 40.8018 29.6423 40.756 29.6457C40.5411 29.6464 40.3336 29.7246 40.1709 29.866C40.0083 30.0074 39.9011 30.2028 39.8688 30.4169C39.7091 31.4497 39.4474 31.8185 39.2567 31.9459C39.0659 32.0733 38.7377 32.0823 38.2697 31.9638C37.855 31.8895 37.4732 31.6881 37.1762 31.3871C37.053 31.1287 37.0126 30.838 37.0609 30.5555C37.0836 30.2903 37.1688 30.0343 37.3093 29.8089C37.4313 29.6993 37.5533 29.5853 37.6708 29.4602C37.8273 29.2992 37.9187 29.0853 37.9273 28.8601C37.9359 28.6349 37.8611 28.4145 37.7174 28.2419C37.6311 28.1395 37.5237 28.0572 37.4026 28.0008C37.2816 27.9445 37.1499 27.9154 37.0165 27.9155C36.8398 27.9144 36.6668 27.9666 36.5197 28.0653C36.3238 28.1982 36.1469 28.3577 35.994 28.5392C35.5819 28.9062 35.0723 29.144 34.528 29.2232H34.4969C34.4233 29.232 34.3493 29.2365 34.2751 29.2366C33.7317 29.2366 33.3037 29.031 33.215 28.8901C32.5496 27.8373 33.9025 26.4513 34.3239 26.0512C34.4996 25.8868 34.6034 25.659 34.6125 25.4176C34.6217 25.1762 34.5354 24.941 34.3727 24.7636C34.2873 24.6722 34.1842 24.5994 34.0697 24.5498C33.9553 24.5002 33.8319 24.4748 33.7073 24.4752C33.4865 24.4728 33.2726 24.5523 33.1063 24.6988L33.0575 24.7435C32.4107 25.2783 31.5985 25.5678 30.7619 25.5616C30.411 25.5662 30.0625 25.5032 29.735 25.3761C29.4694 25.2822 29.2391 25.1079 29.0755 24.877C28.912 24.6461 28.8231 24.37 28.8212 24.0863C28.7414 22.5528 30.1852 21.7101 31.0525 21.3412C31.2551 21.2561 31.4201 21.0997 31.5167 20.901C31.6134 20.7024 31.6351 20.4751 31.5779 20.2615C31.5206 20.048 31.3883 19.8626 31.2055 19.7401C31.0228 19.6175 30.8021 19.5661 30.5845 19.5954C30.3823 19.6227 30.1785 19.6369 29.9745 19.6379C28.9521 19.6379 28.1736 19.2579 27.7832 18.5671C27.5792 18.1921 27.4875 17.7656 27.5189 17.3391C27.5504 16.9127 27.7038 16.5045 27.9606 16.1641C28.371 15.6365 29.0075 15.3571 29.8038 15.3571C30.2062 15.3621 30.6062 15.4222 30.9926 15.5359C31.0712 15.5583 31.1526 15.5696 31.2343 15.5695C31.3996 15.5689 31.5616 15.5231 31.7031 15.4368C31.8445 15.3506 31.96 15.2272 32.0372 15.0799C32.1201 14.9832 32.1825 14.8705 32.2206 14.7487C32.2588 14.6268 32.2718 14.4984 32.259 14.3713C32.2014 13.7767 31.6979 13.5464 31.2942 13.3609C31.1926 13.3171 31.0934 13.2678 30.997 13.2134C30.58 12.934 28.5107 11.3513 28.8057 7.48855C28.916 6.47685 29.1499 5.48277 29.5021 4.5289C29.5675 5.0059 29.6736 5.47633 29.8193 5.93496C30.4492 7.89539 31.9707 9.46687 33.3148 10.8528L33.4212 10.9623C33.6098 11.1591 33.7916 11.3446 33.9668 11.5324C35.7057 13.381 38.0457 14.9726 41.1242 16.3966L41.4258 16.5352C42.7566 17.1454 44.1184 17.7758 44.9967 18.8063C45.5091 19.4076 45.8218 19.8748 45.9216 20.199C46.0702 20.6773 46.1035 21.8822 45.9859 22.6288C45.9673 22.7471 45.9719 22.868 45.9996 22.9845C46.0273 23.101 46.0775 23.2108 46.1473 23.3078C46.2171 23.4047 46.3052 23.4868 46.4065 23.5494C46.5079 23.6121 46.6204 23.654 46.7378 23.6727C46.7855 23.6803 46.8337 23.684 46.882 23.6839C47.0968 23.6832 47.3043 23.605 47.467 23.4636C47.6297 23.3222 47.7369 23.1268 47.7692 22.9127C47.9111 21.9984 47.9044 20.4918 47.6427 19.6535C47.4076 18.8957 46.7999 18.1268 46.363 17.6148C45.2252 16.2736 43.6704 15.565 42.1666 14.8743L41.8916 14.7536C39.0282 13.4257 36.8701 11.966 35.2932 10.2828C35.0847 10.0592 34.8651 9.83571 34.6278 9.58534C33.3636 8.27988 32.0572 6.93194 31.5581 5.37611C31.1035 3.96111 31.1988 2.33375 31.3364 1.07299C31.3585 0.864097 31.3083 0.653907 31.1942 0.478104C31.08 0.302301 30.9091 0.171721 30.7103 0.108534C30.5115 0.0453459 30.2971 0.0534445 30.1036 0.131454C29.91 0.209465 29.7492 0.352578 29.6485 0.536498C29.5236 0.601015 29.4156 0.69448 29.3335 0.809215C28.2534 2.3181 27.1755 5.37611 27.0247 7.34996C26.7873 10.4594 27.8187 12.4578 28.8279 13.6448C27.9253 13.823 27.1167 14.323 26.55 15.0531C26.0713 15.678 25.7855 16.4311 25.7283 17.2185C25.6711 18.0059 25.845 18.7929 26.2284 19.4814C26.6598 20.2539 27.3455 20.8501 28.1669 21.1669C27.7786 21.5669 27.4769 22.044 27.2811 22.5677C27.0852 23.0914 26.9994 23.6504 27.0291 24.2092C27.0484 24.8393 27.2526 25.4495 27.6158 25.9627C27.9789 26.4759 28.4848 26.8692 29.0696 27.0929C29.8003 27.372 30.5868 27.4701 31.363 27.379C31.237 27.7941 31.201 28.2317 31.2572 28.662C31.3135 29.0924 31.4607 29.5056 31.689 29.8737C29.6197 29.2031 27.3374 28.0854 26.8539 26.7688C26.7882 26.5971 26.6716 26.4501 26.52 26.3477C26.3684 26.2452 26.1891 26.1925 26.0066 26.1965L25.9822 26.1741C25.7941 26.1755 25.6113 26.2371 25.4602 26.35C25.3092 26.4629 25.1976 26.6213 25.1416 26.8023C24.4563 29.0108 24.077 31.2373 25.9423 32.5986C26.031 32.6635 26.1175 32.7216 26.1996 32.7775C25.7005 33.3788 25.2969 34.2931 25.4277 35.1604C25.5675 36.0545 26.295 36.8615 27.0003 37.293C26.8029 37.7669 26.7785 38.3369 26.9271 39.0611C27.0248 39.789 27.3845 40.4553 27.9378 40.9334C28.4911 41.4114 29.1993 41.668 29.928 41.6542C29.9193 41.7904 29.9193 41.927 29.928 42.0633C29.9476 42.5653 30.0979 43.0532 30.3638 43.4782C30.6297 43.9031 31.0018 44.2501 31.4428 44.4842C31.7856 44.6699 32.1619 44.7842 32.5495 44.8203C32.937 44.8564 33.3277 44.8136 33.6985 44.6943C33.9406 44.6161 34.1734 44.5112 34.3927 44.3814C34.4584 44.7253 34.5648 45.06 34.7099 45.3783C35.2887 46.5519 36.5574 47.9222 38.2253 47.9244C38.3461 47.9246 38.4668 47.9178 38.5868 47.9043C38.7808 47.8817 38.9623 47.7965 39.1042 47.6613C39.2462 47.5262 39.3409 47.3484 39.3744 47.1545C39.4078 46.9606 39.3781 46.761 39.2898 46.5856C39.2014 46.4101 39.0591 46.2681 38.884 46.1808C38.6681 46.0921 38.4817 45.9432 38.3466 45.7516C38.2115 45.56 38.1333 45.3336 38.1211 45.0989C38.0079 43.6303 39.6559 41.1065 41.6454 39.696C42.3108 39.2221 43.2623 39.1483 44.4644 39.0567C47.1259 38.851 50.7922 38.5716 54.4341 33.3564C56.4968 30.4013 55.6096 26.154 54.9598 23.0535C54.8466 22.5103 54.738 21.9493 54.6426 21.453C54.576 21.0708 54.4563 19.7854 55.6872 19.3316C56.327 19.0933 57.0015 18.9634 57.6834 18.9471C57.9706 18.9265 58.2581 18.9819 58.5173 19.1081C58.6519 19.1877 58.8049 19.2301 58.9609 19.231C59.119 19.2315 59.2746 19.1906 59.4122 19.1122C59.5499 19.0338 59.6649 18.9207 59.7461 18.784C59.8315 18.6394 59.8753 18.4738 59.8725 18.3056C59.9198 18.1048 59.8982 17.8939 59.8112 17.7071C59.7242 17.5203 59.5769 17.3688 59.3934 17.2773Z" fill="#F36A4F"/>
<path d="M46.9441 27.1287C47.5897 27.1287 48.113 26.6012 48.113 25.9506C48.113 25.3 47.5897 24.7726 46.9441 24.7726C46.2986 24.7726 45.7753 25.3 45.7753 25.9506C45.7753 26.6012 46.2986 27.1287 46.9441 27.1287Z" fill="#F36A4F"/>
</svg>
