<svg width="76" height="80" viewBox="0 0 76 80" fill="none" xmlns="http://www.w3.org/2000/svg">
<path d="M19.2298 28.0427C20.301 28.0427 21.1695 27.179 21.1695 26.1135C21.1695 25.0481 20.301 24.1844 19.2298 24.1844C18.1585 24.1844 17.29 25.0481 17.29 26.1135C17.29 27.179 18.1585 28.0427 19.2298 28.0427Z" fill="#F36A4F"/>
<path d="M63.1552 34.3933C64.2265 34.3933 65.0949 33.5296 65.0949 32.4642C65.0949 31.3988 64.2265 30.5351 63.1552 30.5351C62.084 30.5351 61.2155 31.3988 61.2155 32.4642C61.2155 33.5296 62.084 34.3933 63.1552 34.3933Z" fill="#F36A4F"/>
<path d="M46.298 4.44167C47.3693 4.44167 48.2377 3.57797 48.2377 2.51255C48.2377 1.44713 47.3693 0.58343 46.298 0.58343C45.2267 0.58343 44.3583 1.44713 44.3583 2.51255C44.3583 3.57797 45.2267 4.44167 46.298 4.44167Z" fill="#F36A4F"/>
<path d="M18.1824 6.29702H15.4852V9.43771H18.1824V6.29702Z" fill="#F36A4F"/>
<path d="M18.1824 11.0941H15.4852V14.2326H18.1824V11.0941Z" fill="#F36A4F"/>
<path d="M15.883 8.80958H12.7274V11.492H15.883V8.80958Z" fill="#F36A4F"/>
<path d="M20.9357 8.80958H17.78V11.492H20.9357V8.80958Z" fill="#F36A4F"/>
<path d="M8.83895 29.869H6.1418V33.0074H8.83895V29.869Z" fill="#F36A4F"/>
<path d="M8.83895 34.666H6.1418V37.8045H8.83895V34.666Z" fill="#F36A4F"/>
<path d="M6.54187 32.3837H3.3862V35.0662H6.54187V32.3837Z" fill="#F36A4F"/>
<path d="M11.5946 32.3837H8.43888V35.0662H11.5946V32.3837Z" fill="#F36A4F"/>
<path d="M66.9155 0H64.2184V3.13845H66.9155V0Z" fill="#F36A4F"/>
<path d="M66.9155 4.79709H64.2184V7.93555H66.9155V4.79709Z" fill="#F36A4F"/>
<path d="M64.6184 2.51255H61.4628V5.19499H64.6184V2.51255Z" fill="#F36A4F"/>
<path d="M69.6711 2.51255H66.5154V5.19499H69.6711V2.51255Z" fill="#F36A4F"/>
<path d="M42.0095 79.9993C40.7646 79.9863 39.5259 79.8219 38.3211 79.5097C37.7053 79.3577 36.0982 78.8212 33.0684 77.8108C27.3077 75.8907 13.8152 71.3886 11.844 71.6591C10.5786 71.8335 9.02551 72.3297 7.22515 73.1099C7.06281 73.1809 6.88799 73.2194 6.71068 73.2233C6.53336 73.2271 6.35702 73.1962 6.19172 73.1323C6.02642 73.0683 5.8754 72.9727 5.74728 72.8507C5.61916 72.7287 5.51646 72.5828 5.44503 72.4214C5.3736 72.2599 5.33485 72.086 5.33098 71.9097C5.32711 71.7334 5.35821 71.558 5.42249 71.3936C5.48677 71.2292 5.58298 71.079 5.70563 70.9516C5.82828 70.8242 5.97496 70.722 6.1373 70.651C8.16017 69.7568 9.95827 69.2069 11.4732 68.9968C13.6466 68.6973 21.3628 71.0667 33.927 75.2558C36.3455 76.0628 38.4358 76.7602 38.9752 76.8943C41.4139 77.5001 42.8838 77.2587 43.0951 77.2185C46.6913 76.1008 50.6134 72.703 56.0257 68.0199C58.6577 65.7443 61.6448 63.1625 65.1646 60.3347C66.9133 58.9309 68.4574 57.7037 69.7273 56.6933C71.3726 55.3856 72.8178 54.2344 73.2943 53.8209C73.3247 53.5846 73.2654 53.3454 73.128 53.1503C72.7616 52.6339 71.7794 52.3567 70.4443 52.3768C67.6662 52.426 58.2914 58.2536 50.4696 63.9829C49.0837 64.9769 47.7632 66.0581 46.516 67.2197C46.2611 67.4675 45.9178 67.6049 45.5613 67.6017C45.2048 67.5985 44.8641 67.4551 44.6136 67.2027C44.3632 66.9504 44.2234 66.6097 44.2248 66.2551C44.2262 65.9006 44.3688 65.561 44.6213 65.3107C45.9586 64.0566 47.3777 62.8917 48.8693 61.8235C51.6136 59.8117 65.549 49.7816 70.3948 49.6944C74.0338 49.6296 75.2834 51.2838 75.7083 52.2763C76.2117 53.4565 76.0499 54.8849 75.3284 55.6025C74.971 55.9579 73.8697 56.8364 71.4108 58.7901C70.1409 59.7983 68.6035 61.0255 66.8571 62.4226C63.3732 65.219 60.4086 67.7875 57.7946 70.0452C52.1059 74.963 47.9972 78.5194 43.8391 79.7981L43.7761 79.816C43.1966 79.9461 42.6036 80.0076 42.0095 79.9993Z" fill="#F36A4F"/>
<path d="M3.29629 75.1642C3.07312 75.1577 2.85472 75.0984 2.65925 74.9911C2.46378 74.8837 2.2969 74.7316 2.17248 74.5472C2.06684 74.3639 1.53865 73.4005 2.74113 72.5845C2.89417 72.4924 3.06397 72.4311 3.24083 72.4042C3.41769 72.3773 3.59815 72.3853 3.7719 72.4277C3.94565 72.4702 4.1093 72.5462 4.25349 72.6516C4.39768 72.7569 4.5196 72.8895 4.61228 73.0417C4.70496 73.1939 4.76659 73.3628 4.79365 73.5387C4.82071 73.7145 4.81267 73.894 4.76999 74.0668C4.72731 74.2396 4.65082 74.4024 4.5449 74.5458C4.43897 74.6892 4.30568 74.8104 4.15264 74.9026C3.89647 75.0657 3.60036 75.1562 3.29629 75.1642Z" fill="#F36A4F"/>
<path d="M54.0501 54.7083L52.6116 52.4394L53.7624 51.7174C54.4367 51.2927 55.0638 50.8881 55.6144 50.5304C58.352 48.7556 60.1614 47.5842 62.5124 47.9061C65.6591 48.3353 67.4167 51.0692 67.4887 51.1854L68.2079 52.321L65.9266 53.7516L65.2096 52.6205C65.1691 52.5579 63.9958 50.8166 62.1438 50.564C60.8424 50.3851 59.7208 51.0714 57.0866 52.7792C56.527 53.1413 55.8954 53.5504 55.2009 53.9863L54.0501 54.7083Z" fill="#F36A4F"/>
<path d="M42.3152 63.3637C37.076 63.3637 31.077 63.1267 29.2789 63.0507C29.1018 63.0432 28.9279 63.0011 28.7672 62.9268C28.6065 62.8525 28.462 62.7474 28.3421 62.6176C28.2222 62.4877 28.1292 62.3357 28.0684 62.1701C28.0076 62.0045 27.9801 61.8286 27.9877 61.6525C27.9952 61.4764 28.0375 61.3034 28.1122 61.1436C28.187 60.9837 28.2926 60.84 28.4232 60.7208C28.5537 60.6015 28.7066 60.509 28.8731 60.4486C29.0396 60.3881 29.2164 60.3608 29.3935 60.3683C36.8444 60.6835 48.0691 60.8757 49.6942 60.3146C50.6449 59.986 51.2113 58.9891 51.2113 57.6478C51.2113 56.5078 49.8627 55.8394 49.2671 55.6002C47.5095 55.0235 24.0936 51.0133 19.4343 52.1019C17.1867 52.625 10.6685 55.3678 5.55516 57.6903C5.22999 57.8385 4.85893 57.8522 4.52361 57.7283C4.1883 57.6044 3.9162 57.3532 3.76717 57.0298C3.61815 56.7064 3.6044 56.3373 3.72896 56.0038C3.85351 55.6704 4.10617 55.3997 4.43135 55.2515C5.54168 54.7463 15.3841 50.2868 18.8162 49.4865C24.3386 48.1989 48.676 52.473 50.2516 53.1011C52.5756 54.0265 53.9062 55.6829 53.9062 57.6456C53.9062 60.1447 52.6296 62.1387 50.5752 62.8473C49.4447 63.2407 46.0755 63.3637 42.3152 63.3637Z" fill="#F36A4F"/>
<path d="M1.36333 59.5211C1.08301 59.5187 0.809973 59.432 0.58011 59.2724C0.350246 59.1128 0.174314 58.8878 0.0754371 58.6269C0.0327321 58.5062 -0.311156 57.4377 0.934032 56.8655C1.12515 56.7772 1.33442 56.7346 1.54505 56.7413C1.75568 56.7479 1.96181 56.8036 2.1469 56.9038C2.332 57.004 2.49091 57.1459 2.61089 57.3182C2.73087 57.4905 2.80857 57.6884 2.83778 57.896C2.90268 58.2299 2.83757 58.576 2.65563 58.864C2.47369 59.152 2.1885 59.3605 1.85781 59.4473C1.69687 59.493 1.53066 59.5178 1.36333 59.5211Z" fill="#F36A4F"/>
<path d="M45.3787 67.4298C45.0953 67.4294 44.8193 67.3402 44.5898 67.175C43.221 66.1892 39.5214 64.2109 37.3974 63.3279C37.0714 63.188 36.814 62.9259 36.6811 62.5985C36.5482 62.271 36.5505 61.9047 36.6875 61.5789C36.8245 61.2532 37.0852 60.9943 37.4129 60.8584C37.7406 60.7226 38.109 60.7208 38.438 60.8534C40.5373 61.7251 44.5201 63.813 46.1744 65.0022C46.4052 65.1684 46.5772 65.4031 46.6656 65.6726C46.754 65.9421 46.7543 66.2325 46.6664 66.5021C46.5785 66.7718 46.407 67.0068 46.1765 67.1735C45.9459 67.3401 45.6682 67.4299 45.3832 67.4298H45.3787Z" fill="#F36A4F"/>
<path d="M32.4953 36.8455C32.2828 36.8487 32.0777 36.7684 31.9244 36.622L26.566 31.3264C26.49 31.2515 26.4296 31.1624 26.3883 31.0642C26.347 30.966 26.3257 30.8606 26.3255 30.7542V11.8407C26.3261 11.6879 26.3702 11.5383 26.4529 11.4094C26.5356 11.2806 26.6534 11.1777 26.7926 11.1128C26.9317 11.0479 27.0866 11.0237 27.2391 11.043C27.3916 11.0622 27.5354 11.1241 27.6539 11.2215L32.5987 15.3234C32.6878 15.3886 32.7625 15.4713 32.8183 15.5663C32.8741 15.6613 32.9098 15.7666 32.9232 15.8758C32.9365 15.985 32.9273 16.0958 32.8961 16.2013C32.8648 16.3069 32.8122 16.4049 32.7414 16.4895C32.6707 16.5741 32.5833 16.6434 32.4846 16.6931C32.3859 16.7429 32.2781 16.772 32.1677 16.7788C32.0572 16.7856 31.9466 16.7698 31.8425 16.7325C31.7385 16.6952 31.6432 16.6371 31.5625 16.5618L27.9416 13.5597V30.4166L33.0662 35.4663C33.18 35.5789 33.2578 35.7226 33.2895 35.8791C33.3212 36.0357 33.3055 36.1981 33.2444 36.3458C33.1833 36.4934 33.0795 36.6197 32.9461 36.7087C32.8128 36.7977 32.6559 36.8453 32.4953 36.8455Z" fill="#F36A4F"/>
<path d="M27.1302 12.7036C26.915 12.7036 26.7086 12.6186 26.5564 12.4672C26.4043 12.3159 26.3188 12.1106 26.3188 11.8966V9.64337C26.3297 9.43698 26.4199 9.24264 26.5706 9.10039C26.7214 8.95815 26.9213 8.87886 27.1291 8.87886C27.3369 8.87886 27.5367 8.95815 27.6875 9.10039C27.8383 9.24264 27.9284 9.43698 27.9393 9.64337V11.8966C27.9393 12.1102 27.8542 12.3152 27.7025 12.4664C27.5508 12.6177 27.345 12.703 27.1302 12.7036Z" fill="#F36A4F"/>
<path d="M32.4099 31.9121C32.2089 31.9126 32.0149 31.8384 31.8659 31.7042L26.6807 27.0345C26.5944 26.9656 26.5232 26.8799 26.4714 26.7827C26.4196 26.6854 26.3884 26.5786 26.3797 26.4689C26.371 26.3592 26.3849 26.2489 26.4206 26.1447C26.4563 26.0406 26.513 25.9448 26.5874 25.8633C26.6617 25.7817 26.752 25.7162 26.8527 25.6706C26.9534 25.6251 27.0624 25.6005 27.1731 25.5984C27.2837 25.5963 27.3936 25.6167 27.496 25.6584C27.5984 25.7001 27.6911 25.7622 27.7685 25.8408L32.9538 30.5105C33.0739 30.6201 33.1581 30.7632 33.1953 30.9211C33.2325 31.079 33.2209 31.2444 33.1622 31.3957C33.1035 31.547 33.0003 31.6772 32.8661 31.7693C32.7319 31.8614 32.5729 31.9112 32.4099 31.9121Z" fill="#F36A4F"/>
<path d="M32.4279 27.0591C32.2232 27.0565 32.0271 26.9766 31.8794 26.8356L26.6739 22.0698C26.5896 21.9997 26.5204 21.9133 26.4706 21.8158C26.4209 21.7183 26.3915 21.6118 26.3844 21.5027C26.3773 21.3937 26.3925 21.2843 26.4292 21.1812C26.4659 21.0782 26.5232 20.9836 26.5978 20.9032C26.6723 20.8229 26.7625 20.7585 26.8628 20.7138C26.9631 20.6692 27.0716 20.6453 27.1815 20.6436C27.2914 20.6419 27.4005 20.6624 27.5021 20.7039C27.6038 20.7454 27.696 20.807 27.773 20.885L32.9763 25.6598C33.096 25.7699 33.1796 25.9135 33.2161 26.0716C33.2526 26.2297 33.2403 26.3951 33.1809 26.5462C33.1214 26.6973 33.0175 26.8271 32.8828 26.9186C32.7481 27.0101 32.5887 27.059 32.4256 27.0591H32.4279Z" fill="#F36A4F"/>
<path d="M32.4458 22.2106C32.2388 22.2097 32.04 22.1296 31.8907 21.9871L26.6694 17.1073C26.5877 17.0358 26.5212 16.9488 26.474 16.8513C26.4268 16.7538 26.3997 16.6478 26.3945 16.5397C26.3893 16.4316 26.406 16.3236 26.4436 16.222C26.4813 16.1205 26.539 16.0275 26.6135 15.9486C26.688 15.8697 26.7777 15.8065 26.8773 15.7628C26.9768 15.7191 27.0842 15.6958 27.193 15.6942C27.3018 15.6926 27.4098 15.7128 27.5106 15.7535C27.6114 15.7943 27.7029 15.8548 27.7797 15.9314L33.0032 20.8113C33.1234 20.9218 33.2072 21.066 33.2435 21.2247C33.2798 21.3835 33.2669 21.5495 33.2066 21.7009C33.1463 21.8522 33.0414 21.9819 32.9056 22.0729C32.7698 22.1639 32.6095 22.2119 32.4458 22.2106Z" fill="#F36A4F"/>
<path d="M32.4323 36.5885C32.2711 36.5878 32.1138 36.5394 31.9803 36.4494C31.8469 36.3595 31.7434 36.232 31.6831 36.0833C31.6228 35.9346 31.6085 35.7714 31.6418 35.6145C31.6752 35.4576 31.7548 35.3142 31.8704 35.2025L37.1097 30.1752V13.2088C36.3994 13.8347 35.5363 14.6014 34.862 15.2072C33.9135 16.0522 33.3696 16.535 33.2145 16.6646C33.0483 16.7911 32.8394 16.8488 32.6314 16.8257C32.4234 16.8025 32.2324 16.7004 32.0984 16.5405C31.9644 16.3807 31.8976 16.1755 31.9121 15.9679C31.9266 15.7602 32.0212 15.5662 32.1761 15.4263C32.3177 15.3078 33.028 14.6752 33.7809 14.0046C35.6397 12.3482 37.0894 11.0606 37.4356 10.8013C37.556 10.7118 37.699 10.6574 37.8488 10.6441C37.9985 10.6308 38.1489 10.6591 38.2834 10.7258C38.4179 10.7926 38.5311 10.8952 38.6104 11.0222C38.6897 11.1492 38.7319 11.2956 38.7325 11.4451V30.515C38.7326 30.6234 38.7108 30.7307 38.6683 30.8306C38.6258 30.9305 38.5636 31.0208 38.4852 31.0962L32.9943 36.3627C32.8434 36.5075 32.642 36.5884 32.4323 36.5885Z" fill="#F36A4F"/>
<path d="M37.9188 12.252C37.8123 12.252 37.7067 12.2312 37.6083 12.1906C37.5099 12.1501 37.4204 12.0906 37.3451 12.0157C37.2697 11.9407 37.21 11.8518 37.1692 11.7539C37.1284 11.656 37.1074 11.551 37.1074 11.4451V9.64337C37.1184 9.43698 37.2085 9.24264 37.3592 9.10039C37.51 8.95815 37.7099 8.87886 37.9177 8.87886C38.1255 8.87886 38.3254 8.95815 38.4761 9.10039C38.6269 9.24264 38.717 9.43698 38.728 9.64337V11.4473C38.7274 11.6606 38.6419 11.8649 38.4903 12.0157C38.3387 12.1665 38.1332 12.2514 37.9188 12.252Z" fill="#F36A4F"/>
<path d="M32.4099 31.9121C32.2479 31.9119 32.0897 31.8635 31.9556 31.7731C31.8215 31.6828 31.7177 31.5546 31.6575 31.405C31.5973 31.2555 31.5835 31.0914 31.6178 30.934C31.6522 30.7766 31.7331 30.633 31.8502 30.5217L37.1906 25.4586C37.2676 25.3852 37.3584 25.3276 37.4579 25.2891C37.5573 25.2506 37.6633 25.232 37.77 25.2343C37.8766 25.2366 37.9818 25.2597 38.0794 25.3024C38.1771 25.3451 38.2653 25.4065 38.3391 25.4832C38.4129 25.5598 38.4708 25.6501 38.5095 25.749C38.5482 25.8478 38.5669 25.9533 38.5646 26.0594C38.5623 26.1655 38.5391 26.27 38.4961 26.3672C38.4532 26.4643 38.3914 26.552 38.3144 26.6254L32.9673 31.6885C32.8174 31.8317 32.6177 31.9117 32.4099 31.9121Z" fill="#F36A4F"/>
<path d="M32.9223 26.65C32.7591 26.6496 32.5998 26.6001 32.4652 26.5082C32.3307 26.4162 32.2271 26.2861 32.1681 26.1347C32.1091 25.9833 32.0974 25.8177 32.1346 25.6596C32.1717 25.5015 32.2559 25.3582 32.3762 25.2485C33.3359 24.3767 37.1344 20.5542 37.1726 20.5162C37.326 20.3752 37.5281 20.2985 37.7369 20.302C37.9457 20.3054 38.1451 20.3888 38.2937 20.5348C38.4422 20.6808 38.5284 20.8782 38.5344 21.0858C38.5403 21.2934 38.4656 21.4953 38.3256 21.6495C38.1683 21.8082 34.4575 25.5391 33.4685 26.4377C33.3197 26.5741 33.1247 26.6499 32.9223 26.65Z" fill="#F36A4F"/>
<path d="M32.4481 22.2106C32.2845 22.2102 32.1249 22.1606 31.9902 22.0684C31.8555 21.9761 31.7519 21.8456 31.6931 21.6938C31.6343 21.542 31.623 21.3761 31.6607 21.2178C31.6983 21.0595 31.7832 20.9163 31.9042 20.8068C32.7515 20.0445 37.1276 15.6118 37.1704 15.5671C37.3231 15.4253 37.525 15.3477 37.7339 15.3503C37.9429 15.3529 38.1427 15.4355 38.2919 15.581C38.4411 15.7265 38.5281 15.9236 38.5348 16.1313C38.5415 16.339 38.4674 16.5412 38.3279 16.6959C38.1458 16.8792 33.8753 21.2091 32.992 22.0027C32.8431 22.137 32.6491 22.2111 32.4481 22.2106Z" fill="#F36A4F"/>
<path d="M32.9178 12.7908C32.7501 12.7905 32.5866 12.7385 32.4498 12.642C32.3129 12.5454 32.2096 12.4091 32.1539 12.2517C32.0982 12.0944 32.0929 11.9237 32.1387 11.7633C32.1846 11.6028 32.2793 11.4604 32.4099 11.3557L34.4799 9.70819V7.20905C34.4909 7.00267 34.581 6.80832 34.7318 6.66608C34.8825 6.52384 35.0824 6.44454 35.2902 6.44454C35.498 6.44454 35.6979 6.52384 35.8487 6.66608C35.9994 6.80832 36.0895 7.00267 36.1005 7.20905V10.0949C36.1003 10.2155 36.073 10.3345 36.0205 10.4432C35.9679 10.5519 35.8916 10.6476 35.7971 10.723L33.4235 12.6119C33.2804 12.7272 33.102 12.7903 32.9178 12.7908Z" fill="#F36A4F"/>
<path d="M36.1005 1.50217H34.4799V5.10334H36.1005V1.50217Z" fill="#F36A4F"/>
<path d="M31.9603 12.7908C31.7765 12.7909 31.598 12.7286 31.4546 12.6142L29.0811 10.7253C28.9866 10.6498 28.9102 10.5542 28.8577 10.4455C28.8052 10.3368 28.7779 10.2177 28.7777 10.0971V7.20905C28.7886 7.00267 28.8788 6.80832 29.0295 6.66608C29.1803 6.52384 29.3802 6.44454 29.588 6.44454C29.7958 6.44454 29.9957 6.52384 30.1464 6.66608C30.2972 6.80832 30.3873 7.00267 30.3982 7.20905V9.70819L32.4683 11.3557C32.5989 11.4604 32.6936 11.6028 32.7394 11.7633C32.7853 11.9237 32.78 12.0944 32.7243 12.2517C32.6686 12.4091 32.5652 12.5454 32.4284 12.642C32.2916 12.7385 32.1281 12.7905 31.9603 12.7908Z" fill="#F36A4F"/>
<path d="M30.3892 1.50217H28.7687V5.10334H30.3892V1.50217Z" fill="#F36A4F"/>
<path d="M33.1988 1.50217H31.5782V4.92227H33.1988V1.50217Z" fill="#F36A4F"/>
<path d="M32.3896 44.6246C32.2794 44.6246 32.1702 44.6022 32.069 44.5588C31.9677 44.5154 31.8764 44.4518 31.8008 44.372L26.9324 39.2307C26.8521 39.1552 26.7882 39.0643 26.7445 38.9634C26.7008 38.8626 26.6782 38.7539 26.6782 38.6441C26.6782 38.5342 26.7008 38.4255 26.7445 38.3247C26.7882 38.2238 26.8521 38.1329 26.9324 38.0575C27.0127 37.982 27.1076 37.9237 27.2114 37.886C27.3151 37.8484 27.4255 37.8322 27.5357 37.8384C27.646 37.8447 27.7538 37.8732 27.8526 37.9224C27.9513 37.9715 28.039 38.0402 28.1101 38.1242L31.5782 41.779V6.66809C31.5892 6.46171 31.6793 6.26736 31.8301 6.12512C31.9808 5.98288 32.1807 5.90359 32.3885 5.90359C32.5963 5.90359 32.7962 5.98288 32.947 6.12512C33.0977 6.26736 33.1879 6.46171 33.1988 6.66809V43.8199C33.1988 43.9258 33.1778 44.0308 33.137 44.1287C33.0962 44.2266 33.0365 44.3155 32.9611 44.3905C32.8858 44.4654 32.7963 44.5248 32.6979 44.5654C32.5995 44.606 32.4939 44.6268 32.3874 44.6268L32.3896 44.6246Z" fill="#F36A4F"/>
<path d="M32.4458 44.6246C32.2852 44.6239 32.1283 44.5758 31.9952 44.4864C31.862 44.397 31.7586 44.2703 31.6979 44.1223C31.6372 43.9744 31.6221 43.8118 31.6544 43.6553C31.6867 43.4988 31.765 43.3554 31.8794 43.2431L36.8242 38.4371C36.9819 38.3147 37.1796 38.2546 37.3791 38.2683C37.5787 38.2819 37.7662 38.3685 37.9055 38.5112C38.0449 38.6539 38.1263 38.8429 38.1341 39.0417C38.142 39.2405 38.0757 39.4352 37.948 39.5883L33.0032 44.3944C32.8543 44.5397 32.6545 44.6222 32.4458 44.6246Z" fill="#F36A4F"/>
<path d="M43.8121 34.4336C43.5969 34.4336 43.3905 34.3485 43.2384 34.1972C43.0862 34.0459 43.0007 33.8406 43.0007 33.6266V19.2063C43.0012 19.0536 43.0451 18.9042 43.1276 18.7754C43.21 18.6466 43.3274 18.5437 43.4663 18.4787C43.6051 18.4136 43.7597 18.389 43.912 18.4078C44.0643 18.4266 44.2082 18.488 44.3268 18.5848L49.3143 22.6778C49.4673 22.8176 49.5605 23.0104 49.5748 23.2165C49.589 23.4227 49.5233 23.6264 49.391 23.7857C49.2588 23.945 49.0701 24.0478 48.8639 24.0729C48.6577 24.0981 48.4496 24.0435 48.2826 23.9206L44.6235 20.9163V33.6288C44.6229 33.8425 44.5372 34.0471 44.3851 34.198C44.233 34.3489 44.0269 34.4336 43.8121 34.4336Z" fill="#F36A4F"/>
<path d="M43.8121 20.0065C43.5969 20.0065 43.3905 19.9215 43.2384 19.7702C43.0862 19.6188 43.0007 19.4136 43.0007 19.1996V17.0357C42.9949 16.9263 43.0116 16.8169 43.0497 16.7141C43.0878 16.6113 43.1465 16.5173 43.2223 16.4379C43.2981 16.3584 43.3894 16.2951 43.4906 16.2519C43.5918 16.2086 43.7008 16.1863 43.811 16.1863C43.9211 16.1863 44.0301 16.2086 44.1313 16.2519C44.2325 16.2951 44.3238 16.3584 44.3996 16.4379C44.4754 16.5173 44.5342 16.6113 44.5723 16.7141C44.6104 16.8169 44.627 16.9263 44.6213 17.0357V19.1996C44.6213 19.4132 44.5361 19.6181 44.3844 19.7694C44.2327 19.9206 44.0269 20.0059 43.8121 20.0065Z" fill="#F36A4F"/>
<path d="M49.0918 39.2754C48.8908 39.2759 48.6968 39.2017 48.5479 39.0675L43.3626 34.3978C43.2763 34.3289 43.2051 34.2432 43.1533 34.1459C43.1016 34.0487 43.0704 33.9419 43.0616 33.8322C43.0529 33.7225 43.0668 33.6122 43.1025 33.508C43.1382 33.4039 43.195 33.3081 43.2693 33.2266C43.3436 33.145 43.4339 33.0795 43.5346 33.0339C43.6353 32.9883 43.7444 32.9638 43.855 32.9617C43.9656 32.9596 44.0755 32.98 44.1779 33.0217C44.2803 33.0634 44.3731 33.1255 44.4504 33.2041L49.6357 37.8738C49.7567 37.9833 49.8416 38.1265 49.8792 38.2848C49.9169 38.4431 49.9056 38.609 49.8468 38.7608C49.7879 38.9126 49.6844 39.0431 49.5497 39.1354C49.4149 39.2276 49.2553 39.2772 49.0918 39.2776V39.2754Z" fill="#F36A4F"/>
<path d="M49.112 34.4224C48.9073 34.4198 48.7113 34.3399 48.5636 34.1989L43.3603 29.4241C43.276 29.354 43.2068 29.2676 43.1571 29.1702C43.1073 29.0727 43.078 28.9662 43.0708 28.8571C43.0637 28.748 43.079 28.6386 43.1156 28.5356C43.1523 28.4325 43.2096 28.3379 43.2842 28.2576C43.3587 28.1773 43.4489 28.1128 43.5492 28.0682C43.6496 28.0235 43.758 27.9996 43.8679 27.9979C43.9778 27.9962 44.0869 28.0168 44.1886 28.0583C44.2903 28.0998 44.3824 28.1614 44.4594 28.2394L49.6627 33.0141C49.7824 33.1243 49.866 33.2678 49.9025 33.4259C49.939 33.5841 49.9267 33.7495 49.8673 33.9006C49.8078 34.0517 49.704 34.1814 49.5692 34.2729C49.4345 34.3644 49.2752 34.4134 49.112 34.4134V34.4224Z" fill="#F36A4F"/>
<path d="M49.1322 29.5694C48.9252 29.5685 48.7264 29.4885 48.5771 29.3459L43.3536 24.4661C43.2718 24.3946 43.2054 24.3076 43.1582 24.2101C43.1109 24.1126 43.0839 24.0066 43.0787 23.8985C43.0735 23.7904 43.0902 23.6824 43.1278 23.5809C43.1654 23.4793 43.2232 23.3863 43.2977 23.3074C43.3722 23.2285 43.4619 23.1654 43.5614 23.1217C43.661 23.0779 43.7684 23.0546 43.8772 23.053C43.986 23.0514 44.094 23.0716 44.1948 23.1123C44.2956 23.1531 44.3871 23.2136 44.4639 23.2903L49.6874 28.1701C49.805 28.281 49.8866 28.4243 49.9215 28.5817C49.9565 28.7391 49.9432 28.9033 49.8835 29.0532C49.8238 29.203 49.7203 29.3316 49.5864 29.4224C49.4525 29.5132 49.2943 29.5621 49.1322 29.5627V29.5694Z" fill="#F36A4F"/>
<path d="M54.603 33.982C54.4964 33.982 54.3909 33.9612 54.2925 33.9206C54.194 33.88 54.1046 33.8206 54.0292 33.7457C53.9539 33.6707 53.8941 33.5818 53.8534 33.4839C53.8126 33.386 53.7916 33.281 53.7916 33.1751V20.5676C53.0701 21.2002 52.189 21.9826 51.4945 22.5951C50.5685 23.4155 50.038 23.8871 49.8852 24.0123C49.719 24.1388 49.5101 24.1964 49.3021 24.1733C49.0941 24.1502 48.9031 24.048 48.7691 23.8882C48.6351 23.7283 48.5683 23.5231 48.5828 23.3155C48.5973 23.1079 48.6919 22.9138 48.8468 22.7739C48.9862 22.6577 49.6829 22.0407 50.4201 21.3902C52.3037 19.7226 53.7691 18.4261 54.1175 18.1646C54.2379 18.0751 54.381 18.0207 54.5307 18.0074C54.6804 17.9941 54.8309 18.0224 54.9654 18.0891C55.0998 18.1559 55.213 18.2585 55.2923 18.3855C55.3716 18.5125 55.4139 18.6589 55.4144 18.8084V33.1728C55.4147 33.279 55.3939 33.3842 55.3533 33.4823C55.3126 33.5805 55.2529 33.6697 55.1775 33.7449C55.1022 33.8201 55.0126 33.8797 54.914 33.9204C54.8154 33.9611 54.7097 33.982 54.603 33.982Z" fill="#F36A4F"/>
<path d="M54.603 19.6466C54.3878 19.6466 54.1814 19.5616 54.0292 19.4103C53.8771 19.2589 53.7916 19.0537 53.7916 18.8397V17.0357C53.8025 16.8293 53.8927 16.635 54.0434 16.4927C54.1942 16.3505 54.3941 16.2712 54.6019 16.2712C54.8097 16.2712 55.0095 16.3505 55.1603 16.4927C55.3111 16.635 55.4012 16.8293 55.4121 17.0357V18.8397C55.4121 19.0533 55.327 19.2582 55.1753 19.4095C55.0236 19.5608 54.8178 19.646 54.603 19.6466Z" fill="#F36A4F"/>
<path d="M49.094 39.2754C48.9321 39.2752 48.7739 39.2268 48.6398 39.1364C48.5057 39.0461 48.4019 38.9179 48.3417 38.7683C48.2815 38.6188 48.2676 38.4547 48.302 38.2973C48.3363 38.1399 48.4173 37.9963 48.5344 37.885L53.8748 32.8219C54.0303 32.6737 54.2388 32.593 54.4541 32.5976C54.6695 32.6022 54.8743 32.6917 55.0233 32.8465C55.1723 33.0012 55.2534 33.2085 55.2488 33.4227C55.2442 33.6369 55.1542 33.8405 54.9986 33.9887L49.6582 39.0518C49.5066 39.1966 49.3042 39.2768 49.094 39.2754Z" fill="#F36A4F"/>
<path d="M49.6065 34.0133C49.4433 34.0128 49.2839 33.9634 49.1494 33.8715C49.0148 33.7795 48.9113 33.6494 48.8523 33.498C48.7933 33.3466 48.7816 33.181 48.8187 33.0229C48.8558 32.8648 48.94 32.7215 49.0603 32.6117C50.0201 31.74 53.8186 27.9175 53.8568 27.8795C54.0101 27.7385 54.2123 27.6618 54.4211 27.6652C54.6299 27.6687 54.8293 27.7521 54.9779 27.8981C55.1264 28.0441 55.2126 28.2415 55.2186 28.4491C55.2245 28.6567 55.1497 28.8586 55.0098 29.0128C54.8525 29.1715 51.1439 32.9023 50.1527 33.801C50.0038 33.9374 49.8089 34.0132 49.6065 34.0133Z" fill="#F36A4F"/>
<path d="M49.1322 29.5694C48.9687 29.569 48.8091 29.5194 48.6744 29.4272C48.5397 29.335 48.4361 29.2044 48.3773 29.0526C48.3185 28.9008 48.3072 28.7349 48.3448 28.5766C48.3825 28.4184 48.4674 28.2751 48.5883 28.1656C49.4357 27.4033 53.8118 22.9706 53.8545 22.9259C53.9277 22.8448 54.0166 22.7792 54.116 22.7332C54.2153 22.6871 54.323 22.6616 54.4326 22.6581C54.5421 22.6546 54.6512 22.6732 54.7533 22.7128C54.8554 22.7524 54.9484 22.8122 55.0267 22.8885C55.1049 22.9648 55.1668 23.0561 55.2086 23.1569C55.2504 23.2576 55.2713 23.3658 55.2699 23.4747C55.2686 23.5837 55.245 23.6913 55.2007 23.791C55.1564 23.8907 55.0922 23.9804 55.0121 24.0548C54.83 24.2381 50.5595 28.568 49.6762 29.3615C49.5272 29.4958 49.3333 29.5699 49.1322 29.5694Z" fill="#F36A4F"/>
<path d="M49.4627 20.4491L48.4602 19.1839L51.1574 17.067V13.7162H52.7779V17.4582C52.778 17.5799 52.7504 17.7001 52.6971 17.8097C52.6437 17.9193 52.5661 18.0154 52.47 18.0908L49.4627 20.4491Z" fill="#F36A4F"/>
<path d="M52.7824 8.8364H51.1619V12.5225H52.7824V8.8364Z" fill="#F36A4F"/>
<path d="M48.7704 20.4491L45.7586 18.093C45.6615 18.0177 45.5829 17.9214 45.5287 17.8115C45.4746 17.7015 45.4464 17.5807 45.4461 17.4582V13.7162H47.0667V17.0693L49.7638 19.1861L48.7704 20.4491Z" fill="#F36A4F"/>
<path d="M47.0712 8.8364H45.4506V12.5225H47.0712V8.8364Z" fill="#F36A4F"/>
<path d="M49.8807 8.8364H48.2602V12.4331H49.8807V8.8364Z" fill="#F36A4F"/>
<path d="M49.8807 13.705H48.2602V35.5155H49.8807V13.705Z" fill="#F36A4F"/>
<path d="M49.0716 47.3272C48.9567 47.3271 48.8433 47.3028 48.7386 47.2558C48.634 47.2087 48.5406 47.1401 48.4647 47.0544L43.5963 41.5689C43.5202 41.4904 43.4608 41.3974 43.4217 41.2955C43.3827 41.1936 43.3648 41.0849 43.3692 40.9759C43.3736 40.8669 43.4002 40.76 43.4473 40.6615C43.4944 40.563 43.5611 40.4751 43.6433 40.403C43.7256 40.3308 43.8217 40.276 43.9258 40.2419C44.03 40.2077 44.14 40.1949 44.2492 40.2042C44.3585 40.2135 44.4647 40.2448 44.5615 40.2961C44.6583 40.3473 44.7436 40.4176 44.8123 40.5026L48.2624 44.3921V35.1601C48.2566 35.0507 48.2733 34.9412 48.3114 34.8385C48.3495 34.7357 48.4082 34.6417 48.484 34.5622C48.5599 34.4827 48.6511 34.4194 48.7523 34.3762C48.8535 34.3329 48.9625 34.3106 49.0727 34.3106C49.1828 34.3106 49.2918 34.3329 49.393 34.3762C49.4942 34.4194 49.5855 34.4827 49.6613 34.5622C49.7371 34.6417 49.7959 34.7357 49.834 34.8385C49.8721 34.9412 49.8888 35.0507 49.883 35.1601V46.5202C49.8833 46.6261 49.8625 46.7309 49.822 46.8288C49.7815 46.9267 49.7219 47.0157 49.6468 47.0907C49.5716 47.1656 49.4823 47.2251 49.384 47.2657C49.2857 47.3063 49.1803 47.3272 49.0738 47.3272H49.0716Z" fill="#F36A4F"/>
<path d="M49.1322 47.3272C48.9687 47.3267 48.8091 47.2771 48.6744 47.1849C48.5397 47.0927 48.4361 46.9621 48.3773 46.8104C48.3185 46.6586 48.3072 46.4927 48.3448 46.3344C48.3825 46.1761 48.4674 46.0328 48.5883 45.9233L54.0096 41.048C54.0877 40.972 54.1804 40.9125 54.2821 40.873C54.3839 40.8335 54.4926 40.8148 54.6018 40.8181C54.711 40.8214 54.8184 40.8466 54.9175 40.8922C55.0167 40.9378 55.1056 41.0028 55.1789 41.0834C55.2521 41.1639 55.3083 41.2584 55.344 41.361C55.3797 41.4637 55.3942 41.5725 55.3866 41.6809C55.379 41.7893 55.3495 41.895 55.2998 41.9917C55.2501 42.0885 55.1813 42.1743 55.0975 42.2439L49.6762 47.1193C49.5272 47.2535 49.3333 47.3277 49.1322 47.3272Z" fill="#F36A4F"/>
</svg>
