<svg width="80" height="80" viewBox="0 0 80 80" fill="none" xmlns="http://www.w3.org/2000/svg">
<g clip-path="url(#clip0_2676_3463)">
<path fill-rule="evenodd" clip-rule="evenodd" d="M77.2727 37.2596V21.4898C77.2727 15.7352 77.3441 10.6047 72.4202 9.86992V10.2019C73.6472 11.7844 73.2702 15.6577 73.2568 18.3358C74.9926 18.8559 76.7372 21.928 75.7667 24.4777C74.9836 26.5361 73.1698 28.1762 70.2449 28.1297C70.0486 30.6573 67.8153 34.2517 66.229 35.4336C65.852 35.7147 64.0381 36.6465 63.8864 36.9276V42.9035H64.2211C65.2473 43.5432 66.9206 43.2466 68.2369 43.5675C71.7843 44.4329 75.2714 44.5901 77.6073 46.5555C80.095 48.6471 79.9499 52.724 79.9499 57.3454V79.9211H77.2727V58.5073C77.2727 55.6478 77.7947 51.3739 76.6034 49.5434C75.3852 47.6732 72.9355 46.7812 69.9102 46.7215V47.0535C70.2516 47.5935 70.0552 48.2929 70.2449 49.0455C70.8763 51.5642 70.9142 54.3264 71.5835 57.0134C71.9383 58.4122 72.7548 59.0784 73.2568 60.1673C73.915 61.5949 74.0801 63.2283 74.4281 64.9813C74.7204 66.4509 73.6227 69.9125 73.0895 70.7912C72.8217 71.2339 72.1056 71.8292 71.9182 72.2852V79.9211H69.2409V71.4552C69.3859 71.0391 70.0062 70.6518 70.2449 70.2932C70.9633 69.2153 72.1435 66.7298 71.7508 64.8153C71.4653 63.4165 71.2422 61.8981 70.5795 60.8313C70.2538 60.3068 69.464 59.7512 69.2409 59.1713L67.233 46.3895C66.8068 46.1682 66.6462 46.0708 65.8943 46.0575C65.698 45.9247 65.6132 45.9291 65.225 45.8915C65.3522 51.5797 64.9506 55.4087 61.5438 57.5114C58.3177 59.5033 51.9927 58.6888 50.8348 55.3534C51.5197 55.0258 52.3965 54.4437 52.8427 53.8594H53.0101C53.3001 54.6894 53.8311 54.7602 54.516 55.1874C57.2736 56.9071 60.8589 55.4751 62.0458 53.1954C62.318 52.6731 63.0342 46.2832 62.5478 45.2275C62.2801 44.6454 61.4323 44.3577 61.2092 43.5675V38.0896H61.0418C60.2565 38.6938 58.5207 38.7536 57.1933 38.7536V36.0976C64.1095 36.1706 67.9023 31.007 67.9023 23.9797V18.9998C67.4739 17.6984 66.3673 16.2376 65.727 15.0159C65.0867 13.7941 64.4464 10.9854 63.2171 10.3679V10.5339C61.758 10.9766 60.5666 12.3953 59.3685 13.1899C56.785 14.9008 53.9716 16.4058 51.1695 17.8378C50.5425 18.1587 46.7074 19.199 46.4843 19.4978V26.8017C46.7408 27.2068 47.515 29.9424 47.6556 30.4537C46.6806 30.6994 46.2076 31.2726 45.1456 31.4497C44.8645 30.3054 44.2666 29.4577 44.1417 28.1297C40.7639 28.1496 37.1919 25.0311 38.6198 21.1578C38.9054 20.3853 39.6639 19.1437 40.2931 18.6678C40.4738 18.5306 41.0182 18.5062 41.1297 18.3358V13.3559C41.5603 12.6653 41.3528 11.5343 41.6317 10.6999C42.0468 9.42308 42.6082 8.19773 43.305 7.04795C46.7163 1.67404 56.0041 -2.20589 64.5557 1.40401C66.2959 2.13883 68.1656 3.59297 69.4082 4.88997C70.1958 5.71332 70.1869 6.7735 71.7508 6.88195C72.4447 7.32461 73.4799 7.21837 74.2608 7.54594C76.0215 8.34382 77.5267 9.60734 78.6113 11.1979C80.0838 13.4378 79.9499 16.9149 79.9499 20.6598V33.1096C79.9499 35.2079 80.1396 37.7576 79.7826 39.5836C79.5774 39.7266 79.3518 39.8385 79.1133 39.9156C78.2655 40.4667 76.5811 39.8182 75.9341 39.5836C73.3148 38.6318 70.1333 36.9542 69.9102 33.7736H70.2449C70.7469 33.3752 71.6081 33.165 72.4202 33.1096C72.9333 35.1636 74.9903 36.9829 77.2727 37.2596Z" fill="#C83021"/>
<path fill-rule="evenodd" clip-rule="evenodd" d="M50.67 18.8337L52.176 18.9997C52.7092 19.7788 53.1576 19.9293 53.1799 21.3237C52.8051 21.7664 52.6802 22.1559 52.176 22.4857C51.8034 22.7823 51.3728 22.8177 50.67 22.8177C50.2238 22.4459 49.8311 22.3219 49.4987 21.8217C49.1998 21.4521 49.1641 21.0249 49.1641 20.3277C49.6202 19.7862 50.1242 19.2863 50.67 18.8337Z" fill="#C83021"/>
<path fill-rule="evenodd" clip-rule="evenodd" d="M62.7169 18.8337L64.2228 18.9997C64.7561 19.7788 65.2045 19.9293 65.2268 21.3237C64.852 21.7664 64.7271 22.1559 64.2228 22.4857C63.8503 22.7823 63.4197 22.8177 62.7169 22.8177C62.2707 22.4459 61.878 22.3219 61.5456 21.8217C61.2466 21.4521 61.2109 21.0249 61.2109 20.3277C61.6671 19.7862 62.1711 19.2863 62.7169 18.8337Z" fill="#C83021"/>
<path fill-rule="evenodd" clip-rule="evenodd" d="M53.1797 26.8018H55.8569L56.0243 27.6317C56.8029 28.132 57.9675 28.464 58.3669 27.2998C58.4918 27.1227 58.4673 27.1426 58.5342 26.8018H61.2114C61.1423 31.9344 53.2578 31.9322 53.1797 26.8018Z" fill="#C83021"/>
<path fill-rule="evenodd" clip-rule="evenodd" d="M53.1771 65.4793C57.3045 65.8423 61.2602 65.9042 62.3802 69.4632C62.6211 70.2268 62.5765 71.4264 62.2128 72.1192C61.5926 73.3011 60.0041 73.5844 59.3682 74.4432C58.4468 75.687 57.7619 79.2416 56.3563 79.7551C55.6625 80.1756 54.2993 79.671 53.5117 79.5891L44.3087 78.5931C42.8072 78.9008 40.9978 78.7259 39.2888 79.0911C35.795 79.837 27.6405 80.7688 24.8986 78.9251C23.7184 78.1328 21.4494 73.7039 21.05 72.1192V68.3012C21.05 66.7055 20.8091 64.5962 21.3847 63.4873C21.851 62.5909 23.1539 61.6171 24.2293 61.3293C25.0905 61.108 26.2707 61.5507 26.9065 61.1633L30.5878 53.3614C30.8823 52.1463 29.3584 49.5789 29.0818 48.5475V38.5876H28.9145C27.7766 39.9753 24.7134 40.5021 24.0619 42.2395C25.4742 43.9194 24.4769 46.8167 27.7432 46.7215V49.3775C26.5518 49.393 25.1685 49.3996 24.2293 49.2115C23.29 47.5227 21.1504 43.0718 21.05 40.9116C22.9197 39.1963 25.2399 38.0343 27.4085 36.5956C28.9412 35.5863 30.7172 34.0304 32.5957 33.4417H46.9859C49.4557 34.2274 51.6555 36.2548 53.6791 37.5916C54.8124 38.3419 57.9181 39.7274 58.3643 40.9116C58.6967 41.4184 58.4223 42.2086 58.1969 42.7375C57.7061 43.8929 55.9525 48.8817 55.0177 49.2115C53.9446 49.8755 51.2026 49.1539 49.9979 49.5435C49.8194 50.7342 48.6726 52.0644 48.9939 53.3614C49.1478 53.9878 49.7569 54.6385 49.9979 55.1874C50.6404 56.646 51.0286 57.881 51.6711 59.3373C52.0482 60.1917 52.8915 61.2674 53.1771 62.1593V65.4793Z" fill="#C83021"/>
<path fill-rule="evenodd" clip-rule="evenodd" d="M43.8091 17.3403C48.4742 17.2473 55.8255 12.336 59.036 10.2024C60.6245 9.1466 62.3335 6.62565 64.7251 7.04839C66.5992 10.4303 68.3573 14.0026 70.0796 17.5063H70.5816C70.6753 10.1514 68.2792 5.82886 63.2192 3.72843C62.1996 3.30569 60.977 3.13969 59.8726 2.89844H56.6934C49.554 2.89844 45.4199 6.74959 43.9764 12.3603L43.8091 17.3403Z" fill="white"/>
<path fill-rule="evenodd" clip-rule="evenodd" d="M43.8083 25.4743V20.1624L42.3023 20.4944C41.9989 20.937 41.6709 21.0831 41.4657 21.6563C40.8633 22.3823 41.256 23.5133 41.4657 24.3123C41.9119 24.6133 42.0591 24.9387 42.637 25.1423C42.9538 25.3946 43.2371 25.4389 43.8083 25.4743Z" fill="white"/>
<path fill-rule="evenodd" clip-rule="evenodd" d="M70.5825 20.1624V25.4743L72.0885 25.1423C72.7444 24.1817 73.2642 23.9095 73.2598 22.1543C72.7355 21.4903 72.6507 20.802 71.7538 20.4944C71.437 20.242 71.1537 20.1978 70.5825 20.1624Z" fill="white"/>
<path fill-rule="evenodd" clip-rule="evenodd" d="M38.4551 54.6899V52.8639C37.6341 52.5186 36.2597 52.0738 35.9452 51.2039C35.4499 50.4647 35.7712 48.0145 35.9452 47.22C37.344 46.4165 41.3822 46.5006 43.3076 46.888C43.9055 47.8928 43.9457 50.0906 43.6423 51.5359C42.2233 52.273 41.0453 52.3305 41.1324 54.6899C42.259 54.6899 44.5347 55.0219 45.3156 54.5239C46.1879 53.9683 46.2682 52.0892 46.6542 51.0379C46.9866 50.1393 47.5778 48.9707 47.8255 48.05V36.9281C45.1482 35.6267 39.9097 36.0981 35.9452 36.0981C34.4481 36.0981 32.2706 35.9941 31.762 36.9281V48.05C32.7369 49.3779 33.0671 53.7669 34.2719 54.5239C35.0438 55.0086 37.3396 54.7187 38.4551 54.6899Z" fill="white"/>
<path fill-rule="evenodd" clip-rule="evenodd" d="M50.5 46.722H53.6792C54.0496 44.9868 55.0513 43.5902 55.5199 41.9081L50.5 38.5881V46.722Z" fill="white"/>
<path fill-rule="evenodd" clip-rule="evenodd" d="M38.4529 49.3779C38.5154 49.7232 38.493 49.6966 38.6202 49.8759C39.4859 50.7612 40.1708 50.3562 41.1301 49.8759V49.3779H38.4529Z" fill="white"/>
<path fill-rule="evenodd" clip-rule="evenodd" d="M31.76 61.3298V63.9857C29.3393 63.968 26.3631 63.7379 24.2302 64.1517C24.086 64.3553 23.9732 64.5791 23.8955 64.8157C23.3088 65.7232 23.7438 71.1215 23.8955 72.2857L24.7322 72.9496C25.3212 73.41 26.6799 73.3082 27.7441 73.2816C27.7262 71.7013 27.6482 69.7846 27.9114 68.4677C28.1166 68.3246 28.3422 68.2127 28.5807 68.1357C29.3237 67.6665 33.1968 67.9498 34.4372 67.9697C34.2967 60.274 37.8128 61.1992 45.1462 61.3298V63.9857C42.7256 63.968 39.7493 63.7379 37.6165 64.1517C37.4722 64.3553 37.3594 64.5791 37.2818 64.8157C36.695 65.7232 37.1301 71.1215 37.2818 72.2857L38.1185 72.9496C38.7074 73.41 40.0662 73.3082 41.1304 73.2816C41.1125 71.7013 41.0344 69.7846 41.2977 68.4677C42.5315 67.8303 43.6537 68.4389 45.1462 67.9697C46.3108 67.6023 47.6986 66.7856 48.8275 66.3097L50.5008 65.8117V62.8238C49.0863 60.9779 48.939 57.8482 47.3215 56.1838C45.8981 58.0386 40.6485 57.3458 37.4491 57.3458H34.2699C33.4154 57.1245 32.7662 56.5867 32.0946 56.1838C31.6484 58.0696 30.4013 59.4374 29.9194 61.3298H31.76Z" fill="white"/>
<path fill-rule="evenodd" clip-rule="evenodd" d="M43.8097 70.6256C43.8276 72.2059 43.9057 74.1227 43.6424 75.4396C42.8415 75.911 41.8576 75.9376 40.4632 75.9376C36.5232 75.9376 34.3635 74.541 34.4394 70.6256H30.4235C30.4413 72.2059 30.5194 74.1227 30.2561 75.4396C30.0509 75.5827 29.8253 75.6946 29.5868 75.7716C28.8863 76.2142 26.7757 75.9597 25.7383 75.9376V76.1036C26.3697 76.502 26.9118 77.0553 27.7462 77.2656C29.6738 77.7481 32.7661 77.2656 34.272 76.9336C37.6186 76.2054 41.1414 76.6104 44.3117 75.9376C45.3648 75.7162 46.5606 76.0992 47.3236 76.2696L55.1881 77.0996C55.4112 76.1965 56.8234 73.1864 57.3633 72.4516C57.9635 71.6349 59.2754 71.8585 59.7059 70.7916C60.9888 68.6868 57.196 68.9303 55.8574 68.6337C54.9449 68.4323 52.8321 67.7284 51.8415 67.9697C49.0906 68.6337 47.3794 70.546 43.8097 70.6256Z" fill="white"/>
<path fill-rule="evenodd" clip-rule="evenodd" d="M34.4377 41.4102H37.115V44.0661H34.4377V41.4102Z" fill="#C83021"/>
<path fill-rule="evenodd" clip-rule="evenodd" d="M42.469 41.4102H45.1462V44.0661H42.469V41.4102Z" fill="#C83021"/>
</g>
<defs>
<clipPath id="clip0_2676_3463">
<rect width="80" height="80" fill="white"/>
</clipPath>
</defs>
</svg>
