<svg width="94" height="96" viewBox="0 0 94 96" fill="none" xmlns="http://www.w3.org/2000/svg">
<path d="M70.039 95.9995C69.2464 95.9983 68.4674 95.7922 67.7772 95.4009C67.087 95.0097 66.5088 94.4466 66.0983 93.7658L51.0873 66.8831L53.9156 65.2924L68.903 92.1311C69.1099 92.4175 69.4141 92.618 69.7582 92.6947C70.1022 92.7714 70.4623 92.719 70.7705 92.5474L77.8024 88.1171C76.99 86.848 76.3765 86.2354 75.1056 86.2354C74.519 86.2795 73.9397 86.3931 73.3797 86.5738L72.665 86.7668L71.4515 87.0747L59.4271 65.0995L62.2689 63.5325L73.0763 83.2875C73.7345 83.0971 74.4141 82.9913 75.0989 82.9728C78.3923 82.9728 79.8452 85.2844 80.543 86.3911C80.9945 87.1188 81.1415 87.996 80.9521 88.832C80.7628 89.668 80.2523 90.3951 79.5317 90.8552L72.4762 95.3057C71.7446 95.7616 70.9001 96.002 70.039 95.9995Z" fill="#F36A4F"/>
<path d="M34.047 92.733C33.1872 92.7321 32.3629 92.3888 31.7549 91.7784C31.147 91.168 30.805 90.3404 30.8041 89.4771V81.3544H34.047V89.4771C34.6499 89.4773 35.2376 89.2868 35.7266 88.9326C36.2155 88.5784 36.5809 88.0785 36.7708 87.504L37.745 84.5968H49.4423C49.9275 84.5972 50.4016 84.4513 50.8031 84.1779C51.2046 83.9045 51.5151 83.5163 51.6941 83.0636L55.5033 73.5127L58.5136 74.7243L54.7044 84.2786C54.2851 85.3346 53.5597 86.2398 52.6221 86.877C51.6845 87.5142 50.5779 87.8541 49.4457 87.8526H40.0608L39.8316 88.5295C39.4289 89.7511 38.6535 90.8145 37.6153 91.5689C36.5771 92.3234 35.3287 92.7306 34.047 92.733Z" fill="#F36A4F"/>
<path d="M47.7803 79.7308H35.6549V76.475H45.5858L49.8568 65.753L52.8671 66.9613L47.7803 79.7308Z" fill="#F36A4F"/>
<path d="M33.3357 67.543L31.9435 64.602C41.6385 59.9686 49.2704 58.405 56.6495 56.8922L59.2553 56.354L59.9295 59.5422L57.3068 60.0769C50.1064 61.5526 42.6734 63.0789 33.3357 67.543Z" fill="#F36A4F"/>
<path d="M11.3433 89.535V86.2385C11.3433 85.9373 11.3872 79.9096 14.5053 74.8498H3.5294L5.11376 72.3487C13.3558 59.3355 30.9928 54.4551 45.1712 50.5359C51.7311 48.7219 57.927 47.006 62.1037 44.7824L63.6139 47.6625C59.1237 50.0317 52.766 51.7949 46.0308 53.6598C32.7323 57.3387 17.792 61.4745 9.64774 71.5974H21.7395L18.9719 74.376C16.5819 76.7756 15.493 80.1296 14.9975 82.6713C34.7953 68.0234 46.0544 65.7118 57.9439 63.2716C59.6294 62.9332 61.3149 62.5947 63.0307 62.1988C63.1789 62.1673 63.3155 62.0953 63.4256 61.9908C63.5356 61.8863 63.6148 61.7533 63.6543 61.6065C64.3622 58.97 65.9635 52.0319 66.5028 48.1702L69.712 48.6203C69.1558 52.6106 67.5074 59.745 66.7826 62.4492C66.5925 63.169 66.209 63.8225 65.6739 64.3383C65.1388 64.854 64.4728 65.2121 63.7487 65.3734C62.0026 65.7626 60.2968 66.1112 58.608 66.4564C46.5028 68.9406 35.0717 71.286 13.9626 87.5314L11.3433 89.535Z" fill="#F36A4F"/>
<path d="M37.2764 48.8133C36.1478 48.812 35.0549 48.4164 34.1851 47.6945C33.3153 46.9727 32.7227 45.9694 32.509 44.8569C32.2954 43.7443 32.474 42.5918 33.0141 41.597C33.5543 40.6021 34.4224 39.827 35.4695 39.4045L50.3963 33.3971L51.6031 36.416L36.6763 42.4234C36.4791 42.5023 36.2993 42.6194 36.1472 42.7681C35.995 42.9168 35.8736 43.0941 35.7897 43.2898C35.7058 43.4856 35.6611 43.6961 35.6583 43.9092C35.6554 44.1224 35.6943 44.334 35.7729 44.532C35.8515 44.73 35.9681 44.9105 36.1162 45.0632C36.2643 45.216 36.4409 45.3379 36.6359 45.4222C36.8309 45.5064 37.0405 45.5512 37.2528 45.5541C37.4651 45.557 37.6758 45.5179 37.873 45.439L49.6479 40.7515L50.8412 43.7772L39.0697 48.4613C38.4998 48.6924 37.8911 48.8118 37.2764 48.8133Z" fill="#F36A4F"/>
<path d="M57.5326 32.542C55.5973 32.5429 53.7408 31.7724 52.371 30.3997C51.0013 29.027 50.2304 27.1645 50.2277 25.2215C50.2316 24.0868 50.5019 22.969 51.0165 21.9589L52.6346 18.7064C53.0511 17.8321 53.6368 17.0498 54.3575 16.4052C55.0783 15.7605 55.9197 15.2664 56.8327 14.9517C57.7456 14.6369 58.7118 14.5078 59.675 14.5719C60.6382 14.636 61.579 14.892 62.4426 15.325C63.3062 15.7579 64.0753 16.3592 64.705 17.0937C65.3347 17.8282 65.8125 18.6812 66.1104 19.6031C66.4083 20.5249 66.5205 21.497 66.4402 22.4628C66.36 23.4286 66.0891 24.3687 65.6432 25.2282L64.0488 28.4807C63.4497 29.7018 62.5215 30.7297 61.3696 31.4477C60.2178 32.1656 58.8884 32.5447 57.5326 32.542ZM59.1541 17.8975C58.4021 17.8986 57.6656 18.1114 57.028 18.5116C56.3904 18.9118 55.8774 19.4835 55.5471 20.1617L53.9358 23.4176C53.6487 23.9755 53.4963 24.5935 53.4908 25.2215C53.497 26.1325 53.8081 27.015 54.3741 27.727C54.9402 28.4391 55.7282 28.9395 56.6116 29.1476C57.495 29.3558 58.4225 29.2597 59.245 28.8748C60.0674 28.4899 60.7371 27.8385 61.1463 27.0254L62.7678 23.7695C63.0548 23.2116 63.2073 22.5936 63.2127 21.9656C63.2136 21.4306 63.1092 20.9006 62.9055 20.4062C62.7017 19.9118 62.4027 19.4627 62.0256 19.0846C61.6484 18.7066 61.2006 18.4071 60.7078 18.2034C60.215 17.9997 59.687 17.8957 59.1541 17.8975Z" fill="#F36A4F"/>
<path d="M77.7923 11.3884V14.6443H74.5494V11.3884H77.7923ZM87.5176 11.3884H84.2747V14.6443H87.5176V11.3884ZM82.6533 6.50804H79.4104V9.76388H82.6533V6.50804ZM82.6533 16.2722H79.4104V19.528H82.6533V16.2722Z" fill="#F36A4F"/>
<path d="M12.9648 32.5413V35.7971H9.7253V32.5413H12.9648ZM16.2077 35.7971V39.053H19.4506V35.7971H16.2077ZM3.24289 42.3055H0V45.5613H3.24289V42.3055ZM22.6901 42.3055H19.4472V45.5613H22.6901V42.3055ZM9.7253 52.0696V55.3254H12.9682V52.0696H9.7253ZM3.24289 48.8138V52.0696H6.48578V48.8138H3.24289ZM16.2077 48.8138V52.0696H19.4506V48.8138H16.2077ZM3.24289 35.7971V39.053H6.48578V35.7971H3.24289Z" fill="#F36A4F"/>
<path d="M84.2747 53.6936V56.9495H81.0318V53.6936H84.2747ZM90.7571 56.9495H87.5142V60.2053H90.7571V56.9495ZM74.5494 63.4578H71.3065V66.7136H74.5494V63.4578ZM93.9967 63.4578H90.7538V66.7136H93.9967V63.4578ZM84.2747 73.2219H81.0318V76.4879H84.2747V73.2219ZM77.7923 69.9661H74.5494V73.2219H77.7923V69.9661ZM90.7571 69.9661H87.5142V73.2219H90.7571V69.9661ZM77.7923 56.9495H74.5494V60.2053H77.7923V56.9495Z" fill="#F36A4F"/>
<path d="M51.8627 50.8035H48.6198V38.1355C48.6314 35.7816 49.5723 33.5284 51.2361 31.8699C52.9 30.2115 55.151 29.2832 57.4956 29.2886C58.3369 29.2888 59.1665 29.4867 59.9181 29.8663C60.6696 30.2459 61.3223 30.7968 61.824 31.4749L68.0232 39.6721L72.7426 37.7768C73.3352 37.5372 73.9691 37.4174 74.608 37.4241C75.2469 37.4309 75.8781 37.5641 76.4656 37.8161C77.0531 38.0682 77.5853 38.4341 78.0318 38.8929C78.4782 39.3518 78.8301 39.8946 79.0673 40.4901C79.3045 41.0857 79.4224 41.7225 79.4141 42.3639C79.4058 43.0052 79.2716 43.6387 79.0192 44.2279C78.7667 44.8172 78.401 45.3506 77.9429 45.7978C77.4848 46.2449 76.9433 46.5969 76.3495 46.8336L68.2423 50.0894C67.2804 50.4722 66.2217 50.5361 65.2211 50.2719C64.2204 50.0076 63.3301 49.429 62.6802 48.6206L56.1674 40.4742L58.6957 38.4435L65.2017 46.5865C65.4134 46.8583 65.7079 47.0531 66.0403 47.1411C66.3726 47.2291 66.7245 47.2055 67.0423 47.0739L75.1495 43.818C75.5473 43.6583 75.8657 43.3464 76.0345 42.9509C76.2032 42.5555 76.2087 42.109 76.0495 41.7095C75.8904 41.3101 75.5797 40.9905 75.1859 40.821C74.792 40.6515 74.3473 40.6461 73.9494 40.8059L66.931 43.6184L59.2418 33.465C59.042 33.1874 58.7797 32.9611 58.4762 32.8047C58.1727 32.6482 57.8367 32.566 57.4956 32.5647C56.0102 32.5584 54.583 33.1439 53.527 34.1927C52.471 35.2415 51.8725 36.668 51.8627 38.1592V50.8035Z" fill="#F36A4F"/>
<path d="M29.1725 30.917V34.183H25.9296V30.917H29.1725ZM55.1022 4.88377H51.8593V8.12269H55.1022V4.88038V4.88377ZM48.6198 1.62792H45.3769V4.88377H48.6198V1.62792ZM22.6901 24.4087V27.6645H25.933V24.4087H22.6901ZM24.3116 17.897H21.0687V21.1528H24.3116V17.897ZM29.1725 4.88038H25.9296V8.12269H29.1725V4.88038ZM35.6549 1.62454H32.4121V4.88038H35.6549V1.62454ZM22.6901 11.3887V14.6445H25.933V11.3887H22.6901ZM42.1374 0H38.8945V3.25584H42.1374V0Z" fill="#F36A4F"/>
</svg>
