<svg width="80" height="80" viewBox="0 0 80 80" fill="none" xmlns="http://www.w3.org/2000/svg">
<path d="M61.7397 32.2418C61.4105 32.2416 61.0903 32.1347 60.8273 31.9372C60.5644 31.7397 60.373 31.4622 60.2819 31.1466C60.1908 30.8311 60.2051 30.4945 60.3225 30.1877C60.4399 29.881 60.654 29.6206 60.9327 29.4458C68.3416 24.8154 75.968 19.0998 76.3626 11.8879C76.5953 7.63087 72.9958 3.33853 68.9563 3.05591C67.7421 2.97264 66.7404 3.07862 66.0575 3.36629C64.4614 4.04257 62.5668 5.38503 62.286 6.35402C62.231 6.54523 62.1389 6.72376 62.0147 6.87942C61.8906 7.03509 61.7369 7.16483 61.5625 7.26126C61.2103 7.45599 60.795 7.50317 60.4079 7.39241C60.2162 7.33756 60.0372 7.2456 59.8812 7.12176C59.7252 6.99792 59.5951 6.84463 59.4985 6.67064C59.3033 6.31927 59.256 5.90493 59.367 5.51877C60.2017 2.63198 64.3981 0.782308 64.8737 0.580435C66.0195 0.0984614 67.4563 -0.0832249 69.1713 0.0353759C74.8449 0.431553 79.7192 6.15972 79.3954 12.0519C78.9224 20.6517 70.6131 26.9653 62.544 32.0096C62.303 32.1607 62.0243 32.2412 61.7397 32.2418Z" fill="#F36A4F"/>
<path d="M60.7076 32.2418C60.423 32.2412 60.1443 32.1607 59.9033 32.0096C53.5441 28.0352 42.9001 21.381 42.3866 12.0519C42.0628 6.15972 46.9371 0.431553 52.6133 0.0353759C54.3258 -0.0832249 55.7726 0.0984614 56.9134 0.580435C57.389 0.782308 61.5879 2.63197 62.4176 5.52129C62.4726 5.7125 62.4892 5.91263 62.4667 6.11027C62.4441 6.30791 62.3828 6.49918 62.2861 6.67317C62.1895 6.84715 62.0594 7.00044 61.9034 7.12428C61.7473 7.24812 61.5684 7.34009 61.3767 7.39493C61.185 7.44977 60.9844 7.46642 60.7863 7.44392C60.5882 7.42141 60.3965 7.3602 60.2221 7.26378C59.8698 7.06905 59.6096 6.7427 59.4986 6.35654C59.2178 5.37746 57.3207 4.04509 55.7246 3.36881C55.0416 3.08114 54.0399 2.97264 52.8258 3.05843C48.7786 3.34106 45.1867 7.63087 45.4194 11.8904C45.8469 19.6524 55.6563 25.7844 61.5171 29.4484C61.7948 29.6237 62.0079 29.8842 62.1245 30.1907C62.2411 30.4972 62.2547 30.8332 62.1635 31.1482C62.0722 31.4631 61.8809 31.74 61.6184 31.9372C61.3559 32.1344 61.0363 32.2413 60.7076 32.2418Z" fill="#F36A4F"/>
<path d="M40.3149 79.9925C39.9124 79.9925 39.5264 79.833 39.2418 79.549C38.9571 79.2651 38.7973 78.88 38.7973 78.4784L38.3394 2.50833C38.3394 2.10678 38.4993 1.72168 38.7839 1.43774C39.0686 1.1538 39.4546 0.994282 39.8571 0.994282C40.2596 0.994282 40.6456 1.1538 40.9303 1.43774C41.2149 1.72168 41.3748 2.10678 41.3748 2.50833L41.8326 78.4784C41.8326 78.88 41.6727 79.2651 41.3881 79.549C41.1035 79.833 40.7175 79.9925 40.3149 79.9925Z" fill="#F36A4F"/>
<path d="M48.2449 4.24686L46.76 3.93648C46.4337 3.86835 46.1479 3.80274 45.8823 3.7447C45.2244 3.58288 44.557 3.46236 43.884 3.38385L42.3663 3.21479L42.7154 0.204344L44.2331 0.373413C45.0107 0.46494 45.782 0.60399 46.5425 0.789778C46.7955 0.847817 47.0661 0.908379 47.3747 0.971464L48.8595 1.28184L48.2449 4.24686Z" fill="#F36A4F"/>
<path d="M1.87182 46.764C1.50502 46.7637 1.15074 46.6309 0.874514 46.3901C0.598293 46.1494 0.418824 45.8169 0.369306 45.4544C0.122991 43.6479 -0.000393428 41.8269 9.4238e-07 40.0038C9.4238e-07 18.0122 17.934 0.121128 39.9659 0.121128C40.6564 0.121128 41.3571 0.138792 42.0476 0.17412C42.2469 0.184227 42.4423 0.233397 42.6225 0.318823C42.8028 0.404249 42.9644 0.524258 43.0982 0.671997C43.232 0.819737 43.3353 0.992314 43.4022 1.17988C43.4691 1.36744 43.4983 1.56631 43.4882 1.76514C43.478 1.96396 43.4287 2.15885 43.3431 2.33868C43.2575 2.51851 43.1372 2.67974 42.9891 2.81319C42.841 2.94664 42.668 3.04968 42.48 3.11643C42.292 3.18318 42.0926 3.21233 41.8933 3.20222C41.2534 3.16942 40.6058 3.15428 39.9659 3.15428C19.5959 3.15428 3.03538 19.6877 3.03538 39.9962C3.03467 41.6843 3.14876 43.3704 3.37686 45.0431C3.40396 45.2401 3.39188 45.4405 3.34133 45.6328C3.29078 45.8252 3.20274 46.0057 3.08224 46.1641C2.96174 46.3225 2.81114 46.4557 2.63905 46.556C2.46695 46.6564 2.27672 46.7219 2.07924 46.7489C2.01052 46.7586 1.94122 46.7637 1.87182 46.764Z" fill="#F36A4F"/>
<path d="M2.63571 51.9522C2.29643 51.9518 1.96706 51.838 1.70021 51.6289C1.43336 51.4199 1.24442 51.1277 1.16355 50.799C1.0852 50.5175 1.08625 50.2199 1.16659 49.9389C1.24692 49.658 1.40343 49.4046 1.61886 49.2067L1.67451 49.1588C1.86699 48.9689 2.10687 48.8339 2.36928 48.7676C2.63169 48.7014 2.90708 48.7064 3.16692 48.782C3.42675 48.8577 3.66157 49.0013 3.84703 49.198C4.03249 49.3947 4.16185 49.6373 4.2217 49.9006C4.29727 50.1814 4.29305 50.4776 4.20951 50.7562C4.12598 51.0347 3.96642 51.2845 3.74869 51.4778L3.71327 51.5081C3.57209 51.6497 3.40418 51.7622 3.21924 51.8388C3.0343 51.9155 2.83598 51.9549 2.63571 51.9547V51.9522Z" fill="#F36A4F"/>
<path d="M39.9659 79.8839C32.153 79.8842 24.5113 77.6001 17.9859 73.3139C11.4605 69.0277 6.33747 62.9275 3.25039 55.7676C3.11643 55.4043 3.12705 55.0036 3.28006 54.6478C3.43308 54.2921 3.71687 54.0083 4.07311 53.8549C4.42935 53.7014 4.83098 53.6899 5.19546 53.8227C5.55995 53.9555 5.85959 54.2226 6.03283 54.569C8.88552 61.1864 13.6202 66.8244 19.6513 70.7856C25.6823 74.7467 32.7451 76.8571 39.9659 76.8558C60.3358 76.8558 76.8963 60.3223 76.8963 40.0139C76.8967 38.1241 76.753 36.237 76.4663 34.369C76.4113 33.9749 76.514 33.575 76.7523 33.2559C76.9905 32.9368 77.3451 32.724 77.7393 32.6637C78.1335 32.6033 78.5358 32.7002 78.8589 32.9334C79.1821 33.1666 79.4003 33.5173 79.4663 33.9097C79.7764 35.9305 79.932 37.972 79.9317 40.0164C79.9545 61.9929 62.0204 79.8839 39.9659 79.8839Z" fill="#F36A4F"/>
<path d="M76.6231 30.652C76.2914 30.6511 75.9689 30.5436 75.7032 30.3454C75.4376 30.1473 75.2431 29.869 75.1484 29.5518C75.0133 29.1141 75.0564 28.6409 75.2685 28.2347C75.4806 27.8285 75.8446 27.522 76.2817 27.3817C76.6682 27.2981 77.0721 27.367 77.4088 27.574C77.7455 27.781 77.9888 28.11 78.0877 28.492C78.183 28.7309 78.2182 28.9894 78.1904 29.245C78.1626 29.5006 78.0726 29.7456 77.9282 29.9585C77.7838 30.1715 77.5894 30.346 77.362 30.4669C77.1345 30.5877 76.8809 30.6513 76.6231 30.652Z" fill="#F36A4F"/>
<path d="M78.4823 41.3538H1.56827C1.16576 41.3538 0.779725 41.1943 0.495103 40.9103C0.210481 40.6264 0.0505816 40.2413 0.0505816 39.8397C0.0505816 39.4382 0.210481 39.0531 0.495103 38.7691C0.779725 38.4852 1.16576 38.3257 1.56827 38.3257H78.4823C78.8848 38.3257 79.2708 38.4852 79.5555 38.7691C79.8401 39.0531 80 39.4382 80 39.8397C80 40.2413 79.8401 40.6264 79.5555 40.9103C79.2708 41.1943 78.8848 41.3538 78.4823 41.3538Z" fill="#F36A4F"/>
<path d="M35.4128 75.579C35.2131 75.5789 35.0154 75.5394 34.831 75.4629C32.2534 74.3955 20.9188 62.9745 17.9315 46.7691C16.6479 39.9929 17.1145 33.0022 19.2873 26.4556C21.8573 18.6961 26.8479 11.2848 34.1278 4.42612C34.422 4.16026 34.8089 4.01997 35.2056 4.03535C35.6023 4.05072 35.9771 4.22054 36.2498 4.50838C36.5224 4.79622 36.6712 5.17917 36.6641 5.57514C36.6571 5.9711 36.4948 6.34854 36.2121 6.62655C23.5975 18.5093 18.4197 31.6538 20.8176 45.6942C22.2114 53.8524 25.9095 60.5142 28.7678 64.6652C32.1523 69.5809 35.2635 72.3415 35.9895 72.667C36.3131 72.8012 36.5801 73.043 36.7453 73.3513C36.9104 73.6597 36.9636 74.0155 36.8956 74.3585C36.8277 74.7014 36.6429 75.0103 36.3726 75.2328C36.1023 75.4553 35.7632 75.5776 35.4128 75.579Z" fill="#F36A4F"/>
<path d="M45.6167 75.8086C45.2659 75.8084 44.9259 75.6869 44.6547 75.4648C44.3836 75.2427 44.1979 74.9338 44.1293 74.5905C44.0607 74.2472 44.1135 73.8909 44.2786 73.582C44.4437 73.2732 44.711 73.031 45.0349 72.8966C45.938 72.5004 50.5669 68.3241 54.7052 61.5412C58.2995 55.6414 62.3872 46.3452 61.4462 35.5727C61.4296 35.3738 61.4524 35.1737 61.5134 34.9837C61.5743 34.7936 61.6721 34.6174 61.8013 34.4651C61.9305 34.3128 62.0885 34.1874 62.2663 34.096C62.4441 34.0046 62.6381 33.949 62.8374 33.9325C63.0367 33.9159 63.2374 33.9386 63.4279 33.9994C63.6184 34.0602 63.795 34.1578 63.9477 34.2867C64.1003 34.4156 64.2261 34.5732 64.3177 34.7505C64.4093 34.9279 64.465 35.1215 64.4816 35.3203C65.4934 46.9432 61.1174 56.8956 57.265 63.1991C53.0711 70.0174 48.0602 74.9204 46.1985 75.7026C46.0134 75.7757 45.8157 75.8117 45.6167 75.8086Z" fill="#F36A4F"/>
<path d="M38.648 28.6534C32.4229 28.6534 26.6507 27.4775 22.1482 26.1628C13.7048 23.7024 7.95018 20.3362 7.70988 20.1873C7.39114 19.9703 7.16722 19.6404 7.08365 19.2646C7.00009 18.8888 7.06315 18.4953 7.26002 18.1642C7.45689 17.8331 7.77278 17.5893 8.14344 17.4823C8.51411 17.3753 8.91171 17.4132 9.25539 17.5882C13.6356 19.9926 18.2714 21.9012 23.0765 23.2785C30.4651 25.4234 41.4608 27.1898 51.8924 23.4324C52.2711 23.2959 52.6886 23.315 53.0532 23.4856C53.4177 23.6562 53.6994 23.9643 53.8363 24.3421C53.9731 24.7199 53.9539 25.1365 53.7829 25.5001C53.6119 25.8638 53.3031 26.1448 52.9244 26.2814C48.3395 27.8921 43.5087 28.6947 38.648 28.6534Z" fill="#F36A4F"/>
<path d="M71.5338 62.5354C71.3117 62.535 71.0924 62.4858 70.8913 62.3916C55.0087 54.9904 39.1514 55.326 28.6489 56.8956C17.2536 58.609 9.57916 62.0989 9.50327 62.1317C9.32111 62.2232 9.12233 62.2771 8.91881 62.2902C8.71529 62.3034 8.5112 62.2754 8.31874 62.2081C8.12627 62.1408 7.94938 62.0355 7.79863 61.8985C7.64787 61.7615 7.52635 61.5955 7.44131 61.4106C7.35628 61.2257 7.30948 61.0255 7.30371 60.8222C7.29794 60.6188 7.33332 60.4163 7.40773 60.2269C7.48214 60.0375 7.59406 59.8649 7.73681 59.7196C7.87955 59.5743 8.05019 59.4592 8.23853 59.3811C8.56483 59.2297 16.3835 55.6767 28.2038 53.9003C39.1235 52.26 55.6158 51.9244 72.1864 59.6461C72.4999 59.7916 72.7542 60.0395 72.9072 60.3488C73.0602 60.6581 73.1028 61.0103 73.0278 61.347C72.9529 61.6837 72.7649 61.9848 72.4951 62.2005C72.2253 62.4161 71.8897 62.5334 71.5439 62.5329L71.5338 62.5354Z" fill="#F36A4F"/>
</svg>
