<svg width="78" height="80" viewBox="0 0 78 80" fill="none" xmlns="http://www.w3.org/2000/svg">
<path d="M15.2424 46.2233C15.1758 46.2236 15.1093 46.2186 15.0435 46.2085C8.15017 45.1245 3.14835 39.4337 3.14835 32.697V19.0161C3.14835 18.6792 3.2821 18.3561 3.52018 18.1178C3.75826 17.8796 4.08116 17.7458 4.41785 17.7458C4.75454 17.7458 5.07744 17.8796 5.31552 18.1178C5.55359 18.3561 5.68734 18.6792 5.68734 19.0161V32.6927C5.68734 38.1782 9.78782 42.8063 15.4392 43.7018C15.7555 43.7506 16.0417 43.9171 16.2405 44.168C16.4394 44.4189 16.5362 44.7357 16.5116 45.0549C16.487 45.3742 16.3428 45.6724 16.1078 45.8898C15.8729 46.1072 15.5646 46.2279 15.2445 46.2275L15.2424 46.2233Z" fill="#F36A4F"/>
<path d="M24.095 45.9015L23.2297 43.5134L24.423 43.09C25.9737 42.5331 27.3892 41.6544 28.5764 40.5113L29.4904 39.6306L31.2529 41.4598L30.3389 42.3405C28.8954 43.7311 27.1742 44.8004 25.2884 45.4781L24.095 45.9015Z" fill="#F36A4F"/>
<path d="M32.7572 39.5438L30.4446 38.4852L30.9694 37.3292C31.0286 37.1994 31.085 37.0681 31.1386 36.9355L31.6168 35.7583L33.9696 36.7153L33.4914 37.8966C33.4251 38.0604 33.3546 38.2227 33.2799 38.3836L32.7572 39.5438Z" fill="#F36A4F"/>
<path d="M34.3272 34.9792L31.7882 34.7887L31.8834 33.5184C31.9046 33.2453 31.9151 32.968 31.9151 32.6927V28.5432H34.4541V32.6927C34.4541 33.0315 34.4414 33.3744 34.4161 33.7111L34.3272 34.9792Z" fill="#F36A4F"/>
<path d="M26.4203 28.5432C26.0836 28.5432 25.7607 28.4093 25.5227 28.1711C25.2846 27.9329 25.1508 27.6098 25.1508 27.2729V8.26739C25.1508 7.84627 24.9837 7.4424 24.6861 7.14462C24.3885 6.84684 23.9848 6.67955 23.564 6.67955C23.1431 6.67955 22.7395 6.84684 22.4419 7.14462C22.1443 7.4424 21.9771 7.84627 21.9771 8.26739V18.5926C21.9771 18.9295 21.8434 19.2526 21.6053 19.4909C21.3672 19.7291 21.0443 19.8629 20.7076 19.8629C20.3709 19.8629 20.048 19.7291 19.8099 19.4909C19.5719 19.2526 19.4381 18.9295 19.4381 18.5926V8.26739C19.4381 7.17247 19.8728 6.1224 20.6465 5.34817C21.4203 4.57395 22.4697 4.13899 23.564 4.13899C24.6582 4.13899 25.7076 4.57395 26.4814 5.34817C27.2551 6.1224 27.6898 7.17247 27.6898 8.26739V27.2729C27.6898 27.6098 27.5561 27.9329 27.318 28.1711C27.0799 28.4093 26.757 28.5432 26.4203 28.5432Z" fill="#F36A4F"/>
<path d="M15.418 19.4395C15.0813 19.4395 14.7584 19.3057 14.5204 19.0674C14.2823 18.8292 14.1485 18.5061 14.1485 18.1692V4.09453C14.1485 1.79744 15.8602 0 18.0628 0C20.2654 0 21.9771 1.79744 21.9771 4.09453V16.8989C21.9771 17.2358 21.8434 17.5589 21.6053 17.7972C21.3672 18.0354 21.0443 18.1692 20.7076 18.1692C20.3709 18.1692 20.048 18.0354 19.8099 17.7972C19.5719 17.5589 19.4381 17.2358 19.4381 16.8989V4.09453C19.4381 3.22439 18.8351 2.54056 18.0628 2.54056C17.2905 2.54056 16.6875 3.22227 16.6875 4.09453V18.1692C16.6875 18.5061 16.5538 18.8292 16.3157 19.0674C16.0776 19.3057 15.7547 19.4395 15.418 19.4395Z" fill="#F36A4F"/>
<path d="M9.91688 20.7098C9.58019 20.7098 9.25729 20.5759 9.01921 20.3377C8.78114 20.0995 8.64739 19.7764 8.64739 19.4395V5.08111C8.64739 4.55286 8.75137 4.02979 8.9534 3.54175C9.15543 3.05371 9.45154 2.61027 9.82484 2.23674C10.1981 1.86321 10.6413 1.56692 11.129 1.36476C11.6168 1.16261 12.1395 1.05857 12.6675 1.05857C13.1954 1.05857 13.7181 1.16261 14.2059 1.36476C14.6936 1.56692 15.1368 1.86321 15.5101 2.23674C15.8834 2.61027 16.1795 3.05371 16.3815 3.54175C16.5836 4.02979 16.6875 4.55286 16.6875 5.08111V19.0161C16.6875 19.353 16.5538 19.6761 16.3157 19.9143C16.0776 20.1525 15.7547 20.2863 15.418 20.2863C15.0813 20.2863 14.7584 20.1525 14.5204 19.9143C14.2823 19.6761 14.1485 19.353 14.1485 19.0161V5.08111C14.1485 4.68806 13.9925 4.31111 13.7147 4.03319C13.437 3.75526 13.0603 3.59912 12.6675 3.59912C12.2747 3.59912 11.8979 3.75526 11.6202 4.03319C11.3424 4.31111 11.1864 4.68806 11.1864 5.08111V19.4395C11.1864 19.7764 11.0526 20.0995 10.8146 20.3377C10.5765 20.5759 10.2536 20.7098 9.91688 20.7098Z" fill="#F36A4F"/>
<path d="M4.41573 21.7683C4.07904 21.7683 3.75614 21.6345 3.51806 21.3963C3.27999 21.1581 3.14624 20.835 3.14624 20.4981V10.4777C3.14624 8.22082 4.92776 6.38315 7.11553 6.38315C9.13403 6.38315 10.869 8.0451 11.0658 10.1622C11.0969 10.4977 10.9936 10.8319 10.7785 11.0911C10.5635 11.3504 10.2543 11.5135 9.919 11.5447C9.58371 11.5759 9.24978 11.4725 8.99068 11.2573C8.73157 11.0421 8.56851 10.7327 8.53736 10.3972C8.45485 9.58425 7.8201 8.9237 7.11553 8.9237C6.32632 8.9237 5.68523 9.62024 5.68523 10.4777V20.4981C5.68523 20.6649 5.65239 20.8301 5.58859 20.9842C5.5248 21.1383 5.43129 21.2783 5.3134 21.3963C5.19552 21.5142 5.05557 21.6078 4.90155 21.6716C4.74752 21.7355 4.58244 21.7683 4.41573 21.7683Z" fill="#F36A4F"/>
<path d="M12.4559 43.5748H9.91688V54.7956H12.4559V43.5748Z" fill="#F36A4F"/>
<path d="M28.113 42.9396H25.574V53.3136H28.113V42.9396Z" fill="#F36A4F"/>
<path d="M75.0844 63.2641C74.7477 63.2641 74.4248 63.1303 74.1867 62.892C73.9486 62.6538 73.8149 62.3307 73.8149 61.9938V48.9396C73.8149 43.8013 69.7546 39.4612 64.1625 38.6207C63.9976 38.5958 63.8392 38.5387 63.6963 38.4525C63.5535 38.3664 63.429 38.253 63.33 38.1187C63.231 37.9844 63.1593 37.8319 63.1192 37.67C63.0791 37.508 63.0712 37.3397 63.0961 37.1747C63.121 37.0097 63.1781 36.8512 63.2642 36.7083C63.3502 36.5653 63.4636 36.4408 63.5978 36.3417C63.732 36.2426 63.8844 36.1709 64.0462 36.1308C64.2081 36.0906 64.3763 36.0828 64.5412 36.1077C71.3859 37.1366 76.356 42.5353 76.356 48.9396V61.9959C76.3557 62.1627 76.3226 62.3279 76.2585 62.4819C76.1945 62.6359 76.1007 62.7758 75.9827 62.8935C75.8646 63.0113 75.7245 63.1046 75.5704 63.1682C75.4162 63.2318 75.2511 63.2644 75.0844 63.2641Z" fill="#F36A4F"/>
<path d="M50.6572 41.862L49.0512 39.8952L50.0351 39.0907C51.3262 38.0366 52.7931 37.2188 54.3683 36.675L55.568 36.2516L56.3995 38.6525L55.1998 39.0759C53.9049 39.5215 52.6987 40.1923 51.6368 41.0575L50.6572 41.862Z" fill="#F36A4F"/>
<path d="M48.4017 44.8832L47.6315 44.4597L47.5024 44.5021L47.3543 44.3073L46.1779 43.6595L46.7746 42.5713C46.8314 42.4217 46.906 42.2795 46.9968 42.1478L47.7098 41.0893L48.3445 41.5127H48.3805L48.4482 41.5931L49.8087 42.5183L49.1232 43.5303C49.0906 43.6109 49.0531 43.6893 49.011 43.7653L48.4017 44.8832Z" fill="#F36A4F"/>
<path d="M47.7902 52.0433H45.2512V48.9396C45.2509 48.2666 45.3054 47.5946 45.4141 46.9304L45.6257 45.6771L48.1308 46.1005L47.9193 47.3539C47.8331 47.8816 47.7899 48.4154 47.7902 48.9502V52.0433Z" fill="#F36A4F"/>
<path d="M55.9361 76.0431C53.6616 76.0431 51.8103 74.2732 51.8103 72.0968V53.1019C51.8103 52.765 51.944 52.4419 52.1821 52.2036C52.4202 51.9654 52.7431 51.8316 53.0798 51.8316C53.4165 51.8316 53.7394 51.9654 53.9774 52.2036C54.2155 52.4419 54.3493 52.765 54.3493 53.1019V72.0946C54.3493 72.8695 55.0602 73.5004 55.9361 73.5004C56.8121 73.5004 57.523 72.8653 57.523 72.0946V62.4172C57.523 62.0803 57.6568 61.7572 57.8948 61.519C58.1329 61.2808 58.4558 61.147 58.7925 61.147C59.1292 61.147 59.4521 61.2808 59.6902 61.519C59.9282 61.7572 60.062 62.0803 60.062 62.4172V72.0946C60.062 74.2732 58.2106 76.0431 55.9361 76.0431Z" fill="#F36A4F"/>
<path d="M61.4373 80C60.3956 79.995 59.3984 79.5766 58.6646 78.8368C57.9307 78.0969 57.5202 77.096 57.523 76.0537V63.6896C57.523 63.3527 57.6568 63.0296 57.8948 62.7914C58.1329 62.5532 58.4558 62.4193 58.7925 62.4193C59.1292 62.4193 59.4521 62.5532 59.6902 62.7914C59.9282 63.0296 60.062 63.3527 60.062 63.6896V76.0537C60.062 76.4186 60.2069 76.7687 60.4648 77.0267C60.7227 77.2848 61.0725 77.4298 61.4373 77.4298C61.802 77.4298 62.1519 77.2848 62.4098 77.0267C62.6677 76.7687 62.8126 76.4186 62.8126 76.0537V62.6311C62.8126 62.2942 62.9463 61.9711 63.1844 61.7328C63.4225 61.4946 63.7454 61.3608 64.0821 61.3608C64.4188 61.3608 64.7417 61.4946 64.9798 61.7328C65.2178 61.9711 65.3516 62.2942 65.3516 62.6311V76.0537C65.3544 77.096 64.9438 78.0969 64.21 78.8368C63.4762 79.5766 62.479 79.995 61.4373 80Z" fill="#F36A4F"/>
<path d="M66.7269 79.0706C64.4947 79.0706 62.8126 77.3769 62.8126 75.1221V61.9959C62.8126 61.659 62.9463 61.3359 63.1844 61.0977C63.4225 60.8595 63.7454 60.7256 64.0821 60.7256C64.4188 60.7256 64.7417 60.8595 64.9797 61.0977C65.2178 61.3359 65.3516 61.659 65.3516 61.9959V75.1221C65.3516 75.7996 65.7747 76.53 66.7269 76.53C67.679 76.53 68.1021 75.7996 68.1021 75.1221V61.5725C68.1021 61.2356 68.2359 60.9125 68.474 60.6743C68.712 60.4361 69.035 60.3022 69.3716 60.3022C69.7083 60.3022 70.0312 60.4361 70.2693 60.6743C70.5074 60.9125 70.6411 61.2356 70.6411 61.5725V75.1221C70.6411 77.3726 68.9675 79.0706 66.7269 79.0706Z" fill="#F36A4F"/>
<path d="M72.3528 73.9492C71.3706 73.9301 70.4297 73.5499 69.7097 72.881C68.9897 72.2121 68.541 71.3014 68.4491 70.3226C68.4166 69.9863 68.5189 69.6508 68.7336 69.3899C68.9482 69.1291 69.2577 68.9642 69.5938 68.9316C69.9299 68.8991 70.2652 69.0014 70.5259 69.2162C70.7866 69.431 70.9514 69.7407 70.9839 70.077C71.011 70.4405 71.1769 70.7797 71.4473 71.024C71.7176 71.2684 72.0715 71.3992 72.4357 71.3894C72.7999 71.3796 73.1463 71.2299 73.4031 70.9714C73.6599 70.7128 73.8074 70.3652 73.8149 70.0008V60.5118C73.8149 60.1749 73.9486 59.8518 74.1867 59.6136C74.4248 59.3754 74.7477 59.2415 75.0844 59.2415C75.4211 59.2415 75.744 59.3754 75.982 59.6136C76.2201 59.8518 76.3539 60.1749 76.3539 60.5118V70.0008C76.3503 70.5229 76.2439 71.0392 76.0409 71.5202C75.8379 72.0013 75.5422 72.4376 75.1706 72.8042C74.7991 73.1709 74.359 73.4607 73.8755 73.6572C73.3921 73.8536 72.8747 73.9529 72.3528 73.9492Z" fill="#F36A4F"/>
<path d="M69.5832 27.908H67.0442V38.4937H69.5832V27.908Z" fill="#F36A4F"/>
<path d="M53.9261 26.2143H51.3871V39.1288H53.9261V26.2143Z" fill="#F36A4F"/>
<path d="M34.1664 17.6696C34.0998 17.6698 34.0333 17.6648 33.9675 17.6547C33.8027 17.629 33.6446 17.5709 33.5022 17.484C33.3599 17.397 33.236 17.2828 33.1378 17.1479C33.0395 17.0131 32.9688 16.8601 32.9296 16.6979C32.8905 16.5356 32.8837 16.3673 32.9096 16.2024C33.9675 9.46146 39.5194 4.55818 46.106 4.55818H59.4357C59.6024 4.55818 59.7675 4.59104 59.9215 4.65488C60.0756 4.71871 60.2155 4.81228 60.3334 4.93024C60.4513 5.04819 60.5448 5.18823 60.6086 5.34235C60.6724 5.49646 60.7052 5.66164 60.7052 5.82846C60.7052 5.99528 60.6724 6.16046 60.6086 6.31457C60.5448 6.46869 60.4513 6.60873 60.3334 6.72668C60.2155 6.84464 60.0756 6.93821 59.9215 7.00204C59.7675 7.06588 59.6024 7.09874 59.4357 7.09874H46.1166C40.7868 7.09874 36.2928 11.0895 35.4274 16.5877C35.3822 16.8896 35.2298 17.165 34.9983 17.3637C34.7667 17.5623 34.4714 17.6709 34.1664 17.6696Z" fill="#F36A4F"/>
<path d="M38.5694 32.7943L37.6046 31.9687C35.7946 30.4072 34.4179 28.4048 33.6078 26.155L33.1846 24.961L35.5713 24.0951L35.9945 25.2891C36.6556 27.1265 37.7794 28.7622 39.2571 30.0378L40.2219 30.8635L38.5694 32.7943Z" fill="#F36A4F"/>
<path d="M42.8138 34.7061L41.6014 34.3293C41.4548 34.2887 41.313 34.2326 41.1782 34.162H41.1613L39.9913 33.6624L40.9561 31.3124L42.1304 31.7951C42.1896 31.8183 42.2615 31.848 42.3419 31.8882H42.3589L43.5712 32.2651L42.8138 34.7061Z" fill="#F36A4F"/>
<path d="M53.4268 35.1253H46.106C45.9156 35.1253 45.7252 35.1211 45.5347 35.1126L44.2652 35.0576L44.3753 32.517L45.6448 32.5721C45.7971 32.5721 45.9508 32.5721 46.106 32.5721H53.4289L53.4268 35.1253Z" fill="#F36A4F"/>
<path d="M69.9112 28.6765H52.8766C52.54 28.6765 52.2171 28.5427 51.979 28.3045C51.7409 28.0663 51.6072 27.7432 51.6072 27.4063C51.6072 27.0694 51.7409 26.7463 51.979 26.508C52.2171 26.2698 52.54 26.136 52.8766 26.136H69.9133C70.1069 26.135 70.2984 26.0949 70.4761 26.0182C70.6539 25.9414 70.8144 25.8295 70.9479 25.6893C71.2352 25.3941 71.3954 24.9982 71.3944 24.5862C71.4029 24.1841 71.2518 23.795 70.9742 23.5042C70.6966 23.2133 70.3151 23.0444 69.9133 23.0344H59.8462C59.5095 23.0344 59.1866 22.9005 58.9485 22.6623C58.7104 22.4241 58.5767 22.101 58.5767 21.7641C58.5767 21.4272 58.7104 21.1041 58.9485 20.8659C59.1866 20.6277 59.5095 20.4938 59.8462 20.4938H69.9112C70.7113 20.508 71.4898 20.7561 72.1508 21.2075C72.8117 21.659 73.3261 22.2942 73.6307 23.0347C73.9353 23.7752 74.0166 24.5886 73.8648 25.3748C73.7129 26.161 73.3344 26.8856 72.776 27.4592C72.4055 27.8453 71.9606 28.1523 71.4682 28.3616C70.9758 28.5708 70.4461 28.678 69.9112 28.6765Z" fill="#F36A4F"/>
<path d="M73.9799 23.0344H61.4584C61.1218 23.0344 60.7989 22.9005 60.5608 22.6623C60.3227 22.4241 60.1889 22.101 60.1889 21.7641C60.1889 21.4272 60.3227 21.1041 60.5608 20.8659C60.7989 20.6277 61.1218 20.4938 61.4584 20.4938H73.9799C74.3787 20.4965 74.7631 20.3448 75.0526 20.0704C75.1812 19.9511 75.284 19.8067 75.3546 19.6461C75.4252 19.4855 75.4621 19.3122 75.4631 19.1367C75.4631 18.3915 74.7987 17.786 73.982 17.786H60.2503C59.9136 17.786 59.5907 17.6522 59.3526 17.414C59.1146 17.1757 58.9808 16.8526 58.9808 16.5157C58.9808 16.1788 59.1146 15.8557 59.3526 15.6175C59.5907 15.3793 59.9136 15.2455 60.2503 15.2455H73.9799C76.1973 15.2455 78 16.99 78 19.1367C78.0013 19.6587 77.895 20.1752 77.6879 20.6542C77.4807 21.1332 77.1771 21.5644 76.7961 21.9208C76.0353 22.6403 75.0268 23.0391 73.9799 23.0344Z" fill="#F36A4F"/>
<path d="M73.0236 17.7839H59.4463C59.1096 17.7839 58.7867 17.6501 58.5486 17.4118C58.3105 17.1736 58.1768 16.8505 58.1768 16.5136C58.1768 16.1767 58.3105 15.8536 58.5486 15.6154C58.7867 15.3772 59.1096 15.2433 59.4463 15.2433H73.0257C73.7408 15.2433 74.5068 14.8199 74.5068 13.8926C74.5068 12.9653 73.7387 12.5419 73.0257 12.5419H59.0422C58.7055 12.5419 58.3826 12.408 58.1445 12.1698C57.9064 11.9316 57.7727 11.6085 57.7727 11.2716C57.7727 10.9347 57.9064 10.6116 58.1445 10.3734C58.3826 10.1352 58.7055 10.0013 59.0422 10.0013H73.0236C75.279 10.0013 77.0436 11.7098 77.0436 13.8926C77.0436 16.0754 75.2769 17.7839 73.0236 17.7839Z" fill="#F36A4F"/>
<path d="M67.9752 12.3662C67.6385 12.3816 67.3095 12.2626 67.0605 12.0353C66.8115 11.808 66.6629 11.491 66.6475 11.1541C66.6321 10.8172 66.751 10.488 66.9782 10.2388C67.2054 9.98968 67.5221 9.84104 67.8588 9.8256C68.6205 9.75362 69.2405 9.146 69.2405 8.46852C69.2382 8.29055 69.1994 8.11493 69.1266 7.95253C69.0539 7.79012 68.9486 7.64437 68.8173 7.52428C68.5293 7.25012 68.1463 7.09834 67.7488 7.10086H58.016C57.6793 7.10086 57.3564 6.96702 57.1183 6.7288C56.8802 6.49058 56.7465 6.16748 56.7465 5.83058C56.7465 5.49368 56.8802 5.17058 57.1183 4.93235C57.3564 4.69413 57.6793 4.5603 58.016 4.5603H67.7488C68.7995 4.55568 69.8112 4.95862 70.5713 5.68449C70.9525 6.04098 71.2565 6.47205 71.4643 6.95096C71.6722 7.42987 71.7794 7.94641 71.7794 8.46852C71.7794 10.4544 70.1608 12.1608 68.0937 12.3535L67.9752 12.3662Z" fill="#F36A4F"/>
<path d="M35.5353 11.2187H25.3815V13.7592H35.5353V11.2187Z" fill="#F36A4F"/>
<path d="M36.1383 26.5382H25.9041V29.0788H36.1383V26.5382Z" fill="#F36A4F"/>
<path d="M33.9188 78.084H19.6497C19.313 78.084 18.9901 77.9502 18.752 77.7119C18.5139 77.4737 18.3802 77.1506 18.3802 76.8137C18.3802 76.4768 18.5139 76.1537 18.752 75.9155C18.9901 75.6773 19.313 75.5434 19.6497 75.5434H33.9188C39.6316 75.5434 44.4472 71.2584 45.376 65.3537C45.3985 65.1858 45.4542 65.0242 45.54 64.8782C45.6257 64.7322 45.7398 64.6049 45.8755 64.5036C46.0112 64.4024 46.1657 64.3293 46.33 64.2887C46.4943 64.2481 46.6651 64.2408 46.8322 64.2672C46.9994 64.2936 47.1596 64.3532 47.3034 64.4424C47.4473 64.5317 47.5718 64.6488 47.6697 64.7869C47.7677 64.925 47.837 65.0814 47.8737 65.2467C47.9104 65.412 47.9136 65.583 47.8833 65.7496C46.7513 72.897 40.8863 78.084 33.9188 78.084Z" fill="#F36A4F"/>
<path d="M45.2025 57.262L44.7794 56.068C43.9476 53.7409 42.4199 51.7265 40.4038 50.2988L39.3671 49.5663L40.8334 47.4915L41.8701 48.224C44.3047 49.9555 46.1478 52.3947 47.1491 55.2105L47.5723 56.4046L45.2025 57.262Z" fill="#F36A4F"/>
<path d="M38.7387 49.236L37.5369 48.8274C37.4029 48.7822 37.2682 48.7392 37.1328 48.6982L35.9162 48.3341L36.6419 45.8994L37.8585 46.2635C38.025 46.3129 38.19 46.3652 38.3536 46.4202L39.5575 46.8309L38.7387 49.236Z" fill="#F36A4F"/>
<path d="M34.8837 45.6919H26.4203V48.2325H34.8837V45.6919Z" fill="#F36A4F"/>
<path d="M19.2265 61.147H8.53313C6.25439 61.147 4.32898 59.159 4.32898 56.8068C4.32898 54.4547 6.25439 52.4667 8.53313 52.4667H28.113C28.4497 52.4667 28.7726 52.6006 29.0107 52.8388C29.2487 53.077 29.3825 53.4001 29.3825 53.737C29.3825 54.0739 29.2487 54.397 29.0107 54.6352C28.7726 54.8735 28.4497 55.0073 28.113 55.0073H8.53313C7.6466 55.0073 6.86798 55.8541 6.86798 56.8068C6.86798 57.7596 7.62967 58.6064 8.53313 58.6064H19.2265C19.5632 58.6064 19.8861 58.7402 20.1242 58.9785C20.3623 59.2167 20.496 59.5398 20.496 59.8767C20.496 60.2136 20.3623 60.5367 20.1242 60.7749C19.8861 61.0131 19.5632 61.147 19.2265 61.147Z" fill="#F36A4F"/>
<path d="M18.8034 66.6515H4.20415C1.84712 66.6515 0 64.8858 0 62.629C0 60.3721 1.84712 58.6064 4.20415 58.6064H17.5339C17.8706 58.6064 18.1935 58.7402 18.4315 58.9785C18.6696 59.2167 18.8034 59.5398 18.8034 59.8767C18.8034 60.2136 18.6696 60.5367 18.4315 60.7749C18.1935 61.0131 17.8706 61.147 17.5339 61.147H4.20415C3.27107 61.147 2.53899 61.799 2.53899 62.629C2.53899 63.4589 3.27107 64.1109 4.20415 64.1109H18.8034C19.1401 64.1109 19.463 64.2448 19.701 64.483C19.9391 64.7212 20.0729 65.0443 20.0729 65.3812C20.0729 65.7181 19.9391 66.0412 19.701 66.2794C19.463 66.5177 19.1401 66.6515 18.8034 66.6515Z" fill="#F36A4F"/>
<path d="M20.2844 72.156H5.21552C2.81828 72.156 1.01137 70.4263 1.01137 68.1335C1.01137 65.8406 2.81828 64.1109 5.21552 64.1109H19.6497C19.9864 64.1109 20.3093 64.2448 20.5474 64.483C20.7854 64.7212 20.9192 65.0443 20.9192 65.3812C20.9192 65.7181 20.7854 66.0412 20.5474 66.2794C20.3093 66.5177 19.9864 66.6515 19.6497 66.6515H5.21552C4.41362 66.6515 3.55036 67.1152 3.55036 68.1335C3.55036 69.1518 4.41362 69.6155 5.21552 69.6155H20.2844C20.6211 69.6155 20.944 69.7493 21.1821 69.9875C21.4202 70.2258 21.5539 70.5489 21.5539 70.8858C21.5539 71.2227 21.4202 71.5458 21.1821 71.784C20.944 72.0222 20.6211 72.156 20.2844 72.156Z" fill="#F36A4F"/>
<path d="M21.3424 78.084H10.8309C9.73041 78.0964 8.66986 77.6718 7.88178 76.903C7.0937 76.1343 6.64238 75.0843 6.62677 73.9831C6.62677 71.9168 8.35117 70.1384 10.5516 69.9331C10.8872 69.9025 11.2212 70.0065 11.4801 70.2223C11.739 70.4381 11.9016 70.7479 11.9322 71.0837C11.9628 71.4195 11.8588 71.7537 11.6432 72.0127C11.4275 72.2718 11.1178 72.4345 10.7823 72.4651C9.90419 72.5477 9.16153 73.2421 9.16153 73.9852C9.17644 74.4128 9.36003 74.817 9.67211 75.1095C9.98418 75.4019 10.3993 75.5587 10.8267 75.5456H21.3381C21.6748 75.5456 21.9977 75.6794 22.2358 75.9176C22.4739 76.1558 22.6076 76.4789 22.6076 76.8158C22.6076 77.1527 22.4739 77.4758 22.2358 77.7141C21.9977 77.9523 21.6748 78.0861 21.3381 78.0861L21.3424 78.084Z" fill="#F36A4F"/>
<path d="M54.1377 68.3452H45.2512V70.8858H54.1377V68.3452Z" fill="#F36A4F"/>
<path d="M53.2914 54.5839H45.886C45.5493 54.5839 45.2264 54.45 44.9883 54.2118C44.7502 53.9736 44.6165 53.6505 44.6165 53.3136C44.6165 52.9767 44.7502 52.6536 44.9883 52.4154C45.2264 52.1771 45.5493 52.0433 45.886 52.0433H53.2914C53.628 52.0433 53.9509 52.1771 54.189 52.4154C54.4271 52.6536 54.5608 52.9767 54.5608 53.3136C54.5608 53.6505 54.4271 53.9736 54.189 54.2118C53.9509 54.45 53.628 54.5839 53.2914 54.5839Z" fill="#F36A4F"/>
</svg>
