<svg width="77" height="81" viewBox="0 0 77 81" fill="none" xmlns="http://www.w3.org/2000/svg">
<path d="M10.2386 21.3369C11.3098 21.3369 12.1782 20.4732 12.1782 19.4077C12.1782 18.3423 11.3098 17.4786 10.2386 17.4786C9.16737 17.4786 8.29898 18.3423 8.29898 19.4077C8.29898 20.4732 9.16737 21.3369 10.2386 21.3369Z" fill="#F36A4F"/>
<path d="M69.8948 29.923C70.966 29.923 71.8344 29.0593 71.8344 27.9939C71.8344 26.9284 70.966 26.0647 69.8948 26.0647C68.8236 26.0647 67.9552 26.9284 67.9552 27.9939C67.9552 29.0593 68.8236 29.923 69.8948 29.923Z" fill="#F36A4F"/>
<path d="M21.3482 5.55944C22.4194 5.55944 23.2878 4.69574 23.2878 3.6303C23.2878 2.56487 22.4194 1.70117 21.3482 1.70117C20.277 1.70117 19.4086 2.56487 19.4086 3.6303C19.4086 4.69574 20.277 5.55944 21.3482 5.55944Z" fill="#F36A4F"/>
<path d="M8.83847 29.8715H6.14144V33.01H8.83847V29.8715Z" fill="#F36A4F"/>
<path d="M8.83847 34.6687H6.14144V37.8072H8.83847V34.6687Z" fill="#F36A4F"/>
<path d="M6.54147 32.3841H3.38594V35.0666H6.54147V32.3841Z" fill="#F36A4F"/>
<path d="M11.5941 32.3841H8.43857V35.0666H11.5941V32.3841Z" fill="#F36A4F"/>
<path d="M66.9122 0.223633H64.2151V3.36211H66.9122V0.223633Z" fill="#F36A4F"/>
<path d="M66.9122 5.02084H64.2151V8.15932H66.9122V5.02084Z" fill="#F36A4F"/>
<path d="M64.6151 2.73616H61.4596V5.41863H64.6151V2.73616Z" fill="#F36A4F"/>
<path d="M69.6678 2.73616H66.5123V5.41863H69.6678V2.73616Z" fill="#F36A4F"/>
<path d="M42.0074 80.0001C40.7626 79.9871 39.524 79.8227 38.3192 79.5105C37.7034 79.3585 36.0964 78.822 33.0668 77.8116C27.3064 75.8892 13.8145 71.3804 11.8434 71.6599C10.5781 71.8342 9.02502 72.3305 7.22476 73.1106C7.06243 73.1817 6.88761 73.2202 6.71031 73.2241C6.533 73.2279 6.35666 73.197 6.19137 73.133C6.02608 73.0691 5.87507 72.9734 5.74696 72.8514C5.61885 72.7295 5.51614 72.5836 5.44472 72.4221C5.37329 72.2607 5.33454 72.0868 5.33067 71.9105C5.32681 71.7341 5.3579 71.5587 5.42218 71.3943C5.48646 71.2299 5.58267 71.0797 5.70531 70.9523C5.82795 70.8249 5.97462 70.7227 6.13696 70.6517C8.15973 69.7575 9.95775 69.2076 11.4726 68.9975C13.6459 68.698 21.3617 71.0675 33.9253 75.2566C36.3437 76.0636 38.4339 76.761 38.9733 76.8951C41.4118 77.5009 42.8817 77.2595 43.0952 77.2193C46.6913 76.1016 50.6132 72.7038 56.0252 68.0207C58.6571 65.745 61.644 63.1632 65.1637 60.3354C66.9122 58.9316 68.454 57.7043 69.7261 56.694C71.3713 55.3862 72.8165 54.235 73.293 53.8215C73.3234 53.5851 73.2641 53.346 73.1266 53.1509C72.7603 52.6345 71.7781 52.3573 70.4431 52.3774C67.6652 52.4266 58.2907 58.2543 50.4694 63.9835C49.0854 64.9829 47.7672 66.0693 46.5227 67.236C46.2678 67.4839 45.9245 67.6212 45.568 67.6181C45.2116 67.6149 44.8708 67.4715 44.6204 67.2191C44.37 66.9668 44.2302 66.6261 44.2316 66.2715C44.233 65.9169 44.3756 65.5773 44.628 65.327C45.9653 64.073 47.3844 62.908 48.8759 61.8398C51.6201 59.828 65.5547 49.7978 70.4004 49.7106C74.0391 49.6458 75.2888 51.3 75.7135 52.2925C76.217 53.4728 76.0552 54.9012 75.3337 55.6187C74.9764 55.9742 73.8751 56.8527 71.4163 58.8064C70.1464 59.8146 68.6091 61.0418 66.8628 62.4389C63.3791 65.2354 60.4146 67.8038 57.8008 70.0616C52.1123 74.9794 48.0038 78.5359 43.8459 79.8145L43.783 79.8324C43.1999 79.958 42.6039 80.0143 42.0074 80.0001Z" fill="#F36A4F"/>
<path d="M3.29608 75.1649C3.07291 75.1585 2.85452 75.0991 2.65906 74.9918C2.4636 74.8845 2.29673 74.7323 2.17231 74.5479C2.0532 74.3646 1.52503 73.4034 2.7297 72.5853C2.88273 72.4931 3.05253 72.4318 3.22938 72.4049C3.40623 72.378 3.58668 72.386 3.76042 72.4284C3.93417 72.4709 4.0978 72.5469 4.24199 72.6523C4.38617 72.7576 4.50809 72.8902 4.60076 73.0424C4.69344 73.1946 4.75507 73.3635 4.78212 73.5394C4.80918 73.7153 4.80114 73.8948 4.75846 74.0676C4.71578 74.2404 4.6393 74.4031 4.53338 74.5465C4.42746 74.6899 4.29418 74.8112 4.14114 74.9034C3.88823 75.0646 3.59629 75.1549 3.29608 75.1649Z" fill="#F36A4F"/>
<path d="M54.0474 54.7089L52.609 52.44L53.7485 51.7247C54.4228 51.3 55.0498 50.8954 55.6005 50.5377C58.338 48.7628 60.1472 47.5915 62.4981 47.9134C65.6447 48.3425 67.4022 51.0764 67.4742 51.1927L68.1934 52.3282L65.9121 53.7589L65.1952 52.6278C65.1547 52.5652 63.9815 50.8238 62.1295 50.5712C60.8282 50.3924 59.7067 51.0787 57.0726 52.7865C56.513 53.1486 55.8814 53.5577 55.1869 53.9936L54.0474 54.7089Z" fill="#F36A4F"/>
<path d="M42.3131 63.3643C37.0741 63.3643 31.0755 63.1274 29.2774 63.0514C29.1003 63.0439 28.9265 63.0018 28.7657 62.9275C28.605 62.8531 28.4606 62.7481 28.3407 62.6182C28.2208 62.4884 28.1278 62.3363 28.0669 62.1707C28.0061 62.0051 27.9787 61.8293 27.9862 61.6531C27.9938 61.477 28.0361 61.3041 28.1108 61.1442C28.1855 60.9843 28.2912 60.8407 28.4217 60.7214C28.5523 60.6022 28.7052 60.5097 28.8716 60.4492C29.0381 60.3887 29.215 60.3614 29.3921 60.3689C36.8426 60.6841 48.0667 60.8763 49.6917 60.3152C50.6424 59.9866 51.2088 58.9897 51.2088 57.6484C51.2088 56.5084 49.8603 55.84 49.2647 55.6008C47.5071 55.0241 24.0924 51.0138 19.4333 52.1024C17.1858 52.6255 10.6679 55.3683 5.55483 57.6909C5.22966 57.8391 4.85862 57.8528 4.52333 57.7289C4.18803 57.605 3.91594 57.3538 3.76692 57.0303C3.6179 56.7069 3.60416 56.3379 3.72871 56.0044C3.85326 55.6709 4.1059 55.4003 4.43107 55.2521C5.54134 54.7469 15.3832 50.2873 18.8152 49.487C24.3374 48.1995 48.6736 52.4735 50.2491 53.1017C52.573 54.0271 53.9035 55.6835 53.9035 57.6462C53.9035 60.1454 52.627 62.1393 50.5727 62.8479C49.4445 63.2414 46.0732 63.3643 42.3131 63.3643Z" fill="#F36A4F"/>
<path d="M1.36326 59.5239C1.08296 59.5216 0.809934 59.4349 0.580082 59.2753C0.350229 59.1157 0.174305 58.8907 0.0754334 58.6298C0.0327305 58.5091 -0.311141 57.4406 0.933987 56.8683C1.10517 56.8081 1.2866 56.7821 1.46791 56.7916C1.64922 56.8012 1.82686 56.8462 1.99069 56.924C2.15453 57.0019 2.30134 57.111 2.42275 57.2453C2.54416 57.3796 2.63779 57.5363 2.69829 57.7066C2.7588 57.8768 2.78499 58.0573 2.77538 58.2376C2.76577 58.4179 2.72055 58.5946 2.64228 58.7576C2.56402 58.9205 2.45425 59.0665 2.31925 59.1873C2.18425 59.308 2.02666 59.4012 1.85547 59.4613C1.69477 59.5031 1.52935 59.5241 1.36326 59.5239Z" fill="#F36A4F"/>
<path d="M45.3766 67.4327C45.0932 67.4323 44.8172 67.3432 44.5877 67.1779C43.219 66.1921 39.5195 64.2138 37.3956 63.3308C37.0654 63.1942 36.8033 62.9326 36.6669 62.6038C36.5306 62.2749 36.5312 61.9056 36.6686 61.5772C36.806 61.2487 37.0689 60.988 37.3996 60.8524C37.7302 60.7168 38.1015 60.7174 38.4317 60.854C40.5309 61.7258 44.5135 63.8137 46.1677 65.0029C46.3986 65.1691 46.5705 65.4038 46.6589 65.6733C46.7473 65.9428 46.7476 66.2332 46.6597 66.5028C46.5718 66.7725 46.4003 67.0075 46.1698 67.1742C45.9393 67.3408 45.6616 67.4306 45.3766 67.4305V67.4327Z" fill="#F36A4F"/>
<path d="M37.3077 32.5473V29.107H33.7971C33.4955 29.1124 33.1959 29.0575 32.9162 28.9453C32.6364 28.8331 32.3822 28.6661 32.1687 28.4542C31.9552 28.2423 31.7868 27.9898 31.6735 27.7117C31.5601 27.4337 31.5043 27.1358 31.5091 26.8359V21.9404C31.5091 20.5991 32.5362 19.4948 33.7971 19.4948H37.3077V16.2289C37.316 15.6046 37.5729 15.0091 38.022 14.5729C38.4712 14.1366 39.0759 13.8953 39.7036 13.9019H44.2975C44.6048 13.8995 44.9095 13.9581 45.1937 14.0744C45.4779 14.1907 45.7359 14.3622 45.9526 14.5789C46.1693 14.7957 46.3402 15.0533 46.4555 15.3366C46.5707 15.62 46.6279 15.9233 46.6237 16.2289V19.4948H50.204C50.8425 19.5168 51.4476 19.7837 51.8926 20.2396C52.3375 20.6955 52.5878 21.305 52.5909 21.9404V26.8359C52.5909 28.11 51.5391 29.107 50.1973 29.107H46.6237V32.5473C46.6276 32.8527 46.5702 33.1558 46.4548 33.4389C46.3394 33.722 46.1684 33.9793 45.9518 34.1958C45.7351 34.4123 45.4772 34.5837 45.1932 34.6998C44.9091 34.8159 44.6046 34.8745 44.2975 34.8721H39.7036C39.0763 34.8786 38.4719 34.6377 38.0228 34.2019C37.5738 33.7662 37.3166 33.1712 37.3077 32.5473ZM45.5674 21.5939C45.2878 21.5939 45.0197 21.4834 44.822 21.2868C44.6244 21.0902 44.5133 20.8235 44.5133 20.5455V16.2289C44.5161 16.1989 44.5121 16.1686 44.5018 16.1403C44.4915 16.1119 44.475 16.0861 44.4536 16.0648C44.4321 16.0435 44.4062 16.0271 44.3777 16.0168C44.3492 16.0066 44.3188 16.0027 44.2885 16.0054H39.7036C39.6365 16.0001 39.5698 16.0201 39.5169 16.0616C39.464 16.103 39.4287 16.1628 39.4182 16.2289V20.5432C39.4182 20.8213 39.3071 21.088 39.1094 21.2846C38.9117 21.4812 38.6436 21.5916 38.3641 21.5916H33.7971C33.7274 21.5916 33.6173 21.7504 33.6173 21.9404V26.8359C33.6173 26.9677 33.6443 27.0102 33.7971 27.0102H38.3641C38.6436 27.0102 38.9117 27.1207 39.1094 27.3173C39.3071 27.5139 39.4182 27.7806 39.4182 28.0586V32.5473C39.4287 32.6134 39.464 32.6732 39.5169 32.7146C39.5698 32.7561 39.6365 32.7761 39.7036 32.7708H44.2975C44.3277 32.7736 44.3582 32.7697 44.3867 32.7594C44.4152 32.7491 44.4411 32.7328 44.4626 32.7114C44.484 32.6901 44.5005 32.6643 44.5108 32.636C44.5211 32.6076 44.5251 32.5773 44.5223 32.5473V28.0586C44.5223 27.7806 44.6333 27.5139 44.831 27.3173C45.0287 27.1207 45.2968 27.0102 45.5764 27.0102H50.213C50.2872 27.0102 50.4985 26.9789 50.4985 26.8359V21.9404C50.494 21.8597 50.464 21.7825 50.4127 21.7198C50.3615 21.6572 50.2915 21.6123 50.213 21.5916L45.5674 21.5939Z" fill="#F36A4F"/>
<path d="M29.8077 43.4717H39.6227C39.955 43.4717 40.2737 43.3404 40.5087 43.1067C40.7436 42.873 40.8757 42.556 40.8757 42.2255C40.8757 41.8949 40.7436 41.5779 40.5087 41.3442C40.2737 41.1105 39.955 40.9792 39.6227 40.9792H29.8077C28.6116 40.978 27.4647 40.5051 26.6186 39.664C25.7726 38.823 25.2965 37.6825 25.2947 36.4928V30.3209C25.2947 29.9904 25.1627 29.6734 24.9277 29.4397C24.6927 29.206 24.374 29.0747 24.0417 29.0747C23.7094 29.0747 23.3907 29.206 23.1557 29.4397C22.9207 29.6734 22.7887 29.9904 22.7887 30.3209V36.4928C22.7911 38.3434 23.5314 40.1175 24.8473 41.4258C26.1632 42.7341 27.9471 43.4699 29.8077 43.4717Z" fill="#F36A4F"/>
<path d="M24.0477 27.3881C24.3795 27.3875 24.6976 27.2561 24.9322 27.0227C25.1668 26.7893 25.2989 26.473 25.2995 26.1429V23.9858C25.2995 23.6553 25.1675 23.3383 24.9325 23.1046C24.6975 22.8709 24.3788 22.7396 24.0465 22.7396C23.7142 22.7396 23.3955 22.8709 23.1605 23.1046C22.9256 23.3383 22.7935 23.6553 22.7935 23.9858V26.1429C22.7941 26.4734 22.9265 26.7901 23.1617 27.0235C23.3968 27.2569 23.7154 27.3881 24.0477 27.3881Z" fill="#F36A4F"/>
<path d="M24.0476 20.5656C24.3796 20.5656 24.698 20.4345 24.9328 20.201C25.1676 19.9675 25.2995 19.6508 25.2995 19.3205V19.0009C25.2995 18.6704 25.1674 18.3534 24.9325 18.1197C24.6975 17.8859 24.3788 17.7546 24.0465 17.7546C23.7142 17.7546 23.3954 17.8859 23.1605 18.1197C22.9255 18.3534 22.7935 18.6704 22.7935 19.0009V19.3138C22.7926 19.4781 22.8244 19.6409 22.887 19.7929C22.9497 19.9449 23.042 20.083 23.1585 20.1994C23.2751 20.3157 23.4137 20.408 23.5663 20.4709C23.7189 20.5337 23.8824 20.5659 24.0476 20.5656Z" fill="#F36A4F"/>
<path d="M38.225 7.26727H38.4498C38.7821 7.26727 39.1008 7.13597 39.3358 6.90226C39.5708 6.66854 39.7028 6.35156 39.7028 6.02104C39.7028 5.69052 39.5708 5.37354 39.3358 5.13982C39.1008 4.90611 38.7821 4.77481 38.4498 4.77481H38.225C37.8927 4.77481 37.574 4.90611 37.339 5.13982C37.104 5.37354 36.972 5.69052 36.972 6.02104C36.972 6.35156 37.104 6.66854 37.339 6.90226C37.574 7.13597 37.8927 7.26727 38.225 7.26727Z" fill="#F36A4F"/>
<path d="M42.4254 7.26727H45.8484C46.1807 7.26727 46.4994 7.13597 46.7344 6.90226C46.9694 6.66854 47.1014 6.35156 47.1014 6.02104C47.1014 5.69052 46.9694 5.37354 46.7344 5.13982C46.4994 4.90611 46.1807 4.77481 45.8484 4.77481H42.4254C42.0931 4.77481 41.7744 4.90611 41.5394 5.13982C41.3044 5.37354 41.1724 5.69052 41.1724 6.02104C41.1724 6.35156 41.3044 6.66854 41.5394 6.90226C41.7744 7.13597 42.0931 7.26727 42.4254 7.26727Z" fill="#F36A4F"/>
<path d="M47.5497 43.4716H54.1777C56.0379 43.4692 57.8213 42.7332 59.1367 41.4249C60.452 40.1166 61.1921 38.3429 61.1945 36.4927V11.7559C61.1921 9.90574 60.452 8.13201 59.1367 6.82373C57.8213 5.51545 56.0379 4.77942 54.1777 4.77705H50.9682C50.6359 4.77705 50.3172 4.90835 50.0822 5.14206C49.8472 5.37578 49.7152 5.69276 49.7152 6.02328C49.7152 6.3538 49.8472 6.67078 50.0822 6.9045C50.3172 7.13821 50.6359 7.26951 50.9682 7.26951H54.1777C55.3735 7.27128 56.5198 7.74453 57.3653 8.58551C58.2109 9.42649 58.6867 10.5666 58.6885 11.7559V36.4927C58.6867 37.682 58.2109 38.8222 57.3653 39.6631C56.5198 40.5041 55.3735 40.9774 54.1777 40.9791H47.5497C47.2174 40.9791 46.8987 41.1104 46.6637 41.3442C46.4288 41.5779 46.2967 41.8948 46.2967 42.2254C46.2967 42.5559 46.4288 42.8729 46.6637 43.1066C46.8987 43.3403 47.2174 43.4716 47.5497 43.4716Z" fill="#F36A4F"/>
<path d="M24.0476 15.9607C24.3796 15.9607 24.6981 15.8295 24.9328 15.596C25.1676 15.3625 25.2995 15.0458 25.2995 14.7156V11.8632C25.3013 10.6727 25.778 9.53162 26.625 8.69044C27.472 7.84927 28.6201 7.37681 29.817 7.37681H34.1615C34.326 7.37681 34.489 7.34457 34.641 7.28194C34.793 7.21932 34.9311 7.12752 35.0475 7.0118C35.1638 6.89607 35.2561 6.75869 35.3191 6.60749C35.3821 6.45629 35.4145 6.29424 35.4145 6.13058C35.4145 5.96692 35.3821 5.80487 35.3191 5.65367C35.2561 5.50247 35.1638 5.36509 35.0475 5.24936C34.9311 5.13364 34.793 5.04184 34.641 4.97922C34.489 4.91659 34.326 4.88435 34.1615 4.88435H29.8238C27.9635 4.88672 26.1802 5.62275 24.8648 6.93103C23.5494 8.23931 22.8094 10.013 22.807 11.8632V14.7133C22.8064 15.042 22.9365 15.3576 23.1689 15.5913C23.4013 15.825 23.7172 15.9577 24.0476 15.9607Z" fill="#F36A4F"/>
<path d="M24.0477 25.6288C24.3797 25.6288 24.6981 25.4976 24.9329 25.2641C25.1676 25.0306 25.2995 24.7139 25.2995 24.3836V23.0245C25.2995 22.694 25.1675 22.377 24.9325 22.1433C24.6975 21.9096 24.3788 21.7783 24.0465 21.7783C23.7142 21.7783 23.3955 21.9096 23.1605 22.1433C22.9256 22.377 22.7935 22.694 22.7935 23.0245V24.3881C22.7947 24.718 22.9275 25.0338 23.1626 25.2664C23.3977 25.499 23.716 25.6294 24.0477 25.6288Z" fill="#F36A4F"/>
</svg>
