<svg width="40" height="40" viewBox="0 0 40 40" fill="none" xmlns="http://www.w3.org/2000/svg">
<path d="M15.1217 28.7077V25.1516H11.4654C11.1513 25.1572 10.8392 25.1004 10.5478 24.9844C10.2565 24.8685 9.9917 24.6959 9.76934 24.4768C9.54697 24.2577 9.37156 23.9967 9.25354 23.7093C9.13553 23.4219 9.07732 23.114 9.0824 22.804V17.7436C9.0824 16.3572 10.1522 15.2157 11.4654 15.2157H15.1217V11.8399C15.1304 11.1945 15.3979 10.5789 15.8657 10.128C16.3334 9.67708 16.9633 9.42767 17.617 9.43446H22.4017C22.7217 9.43197 23.0391 9.49259 23.3351 9.61276C23.6311 9.73294 23.8998 9.91025 24.1254 10.1343C24.3511 10.3583 24.5292 10.6246 24.6492 10.9175C24.7692 11.2104 24.8288 11.524 24.8244 11.8399V15.2157H28.5533C29.2183 15.2384 29.8485 15.5143 30.312 15.9855C30.7754 16.4568 31.0361 17.0868 31.0393 17.7436V22.804C31.0393 24.121 29.9438 25.1516 28.5463 25.1516H24.8244V28.7077C24.8285 29.0234 24.7687 29.3368 24.6485 29.6294C24.5283 29.922 24.3502 30.188 24.1246 30.4118C23.899 30.6356 23.6304 30.8127 23.3345 30.9327C23.0387 31.0527 22.7215 31.1133 22.4017 31.1108H17.617C16.9637 31.1176 16.3342 30.8685 15.8665 30.4181C15.3988 29.9677 15.131 29.3526 15.1217 28.7077ZM23.7242 17.3855C23.4331 17.3855 23.1538 17.2713 22.9479 17.068C22.7421 16.8648 22.6264 16.5892 22.6264 16.3018V11.8399C22.6293 11.8088 22.6252 11.7775 22.6144 11.7482C22.6037 11.7189 22.5866 11.6922 22.5642 11.6702C22.5419 11.6481 22.5149 11.6312 22.4852 11.6206C22.4555 11.61 22.4238 11.606 22.3923 11.6088H17.617C17.5471 11.6033 17.4777 11.624 17.4225 11.6669C17.3674 11.7097 17.3307 11.7715 17.3197 11.8399V16.2994C17.3197 16.5869 17.2041 16.8625 16.9982 17.0657C16.7923 17.269 16.5131 17.3831 16.2219 17.3831H11.4654C11.3928 17.3831 11.2781 17.5472 11.2781 17.7436V22.804C11.2781 22.9403 11.3062 22.9842 11.4654 22.9842H16.2219C16.5131 22.9842 16.7923 23.0984 16.9982 23.3016C17.2041 23.5048 17.3197 23.7805 17.3197 24.0679V28.7077C17.3307 28.7761 17.3674 28.8379 17.4225 28.8807C17.4777 28.9235 17.5471 28.9443 17.617 28.9388H22.4017C22.4331 28.9416 22.4648 28.9376 22.4945 28.927C22.5243 28.9164 22.5512 28.8994 22.5736 28.8774C22.5959 28.8553 22.6131 28.8287 22.6238 28.7994C22.6346 28.7701 22.6386 28.7388 22.6357 28.7077V24.0679C22.6357 23.7805 22.7514 23.5048 22.9573 23.3016C23.1632 23.0984 23.4424 22.9842 23.7336 22.9842H28.5627C28.64 22.9842 28.86 22.9518 28.86 22.804V17.7436C28.8554 17.6602 28.8241 17.5804 28.7707 17.5157C28.7173 17.4509 28.6445 17.4045 28.5627 17.3831L23.7242 17.3855Z" fill="#F36A4F"/>
<path d="M7.31038 40H17.5327C17.8789 40 18.2108 39.8643 18.4555 39.6227C18.7003 39.3811 18.8377 39.0535 18.8377 38.7118C18.8377 38.3702 18.7003 38.0425 18.4555 37.8009C18.2108 37.5593 17.8789 37.4236 17.5327 37.4236H7.31038C6.06455 37.4224 4.87007 36.9335 3.98891 36.0641C3.10776 35.1947 2.61187 34.0159 2.61001 32.7861V26.4064C2.61001 26.0647 2.47252 25.7371 2.22779 25.4955C1.98305 25.2539 1.65112 25.1182 1.30501 25.1182C0.958897 25.1182 0.626963 25.2539 0.382227 25.4955C0.13749 25.7371 0 26.0647 0 26.4064V32.7861C0.00247877 34.699 0.773546 36.5328 2.14404 37.8852C3.51453 39.2376 5.37252 39.9982 7.31038 40Z" fill="#F36A4F"/>
<path d="M1.3112 23.3748C1.65681 23.3741 1.98808 23.2383 2.23247 22.9971C2.47685 22.7559 2.61441 22.4289 2.61503 22.0877V19.8579C2.61503 19.5163 2.47754 19.1886 2.2328 18.947C1.98807 18.7054 1.65614 18.5697 1.31003 18.5697C0.96392 18.5697 0.631985 18.7054 0.387249 18.947C0.142513 19.1886 0.00502243 19.5163 0.00502243 19.8579V22.0877C0.00564252 22.4293 0.143531 22.7566 0.388419 22.9979C0.633307 23.2392 0.965185 23.3748 1.3112 23.3748Z" fill="#F36A4F"/>
<path d="M1.31113 16.3226C1.65693 16.3226 1.98856 16.187 2.23308 15.9456C2.4776 15.7043 2.61497 15.3769 2.61497 15.0356V14.7051C2.61497 14.3635 2.47747 14.0358 2.23274 13.7942C1.988 13.5527 1.65607 13.4169 1.30996 13.4169C0.963851 13.4169 0.631916 13.5527 0.38718 13.7942C0.142444 14.0358 0.0049512 14.3635 0.0049512 14.7051V15.0286C0.00402446 15.1984 0.0371442 15.3667 0.1024 15.5238C0.167655 15.6809 0.263758 15.8237 0.385171 15.944C0.506584 16.0643 0.650907 16.1597 0.809826 16.2246C0.968745 16.2896 1.13912 16.3229 1.31113 16.3226Z" fill="#F36A4F"/>
<path d="M16.0771 2.57639H16.3112C16.6573 2.57639 16.9892 2.44067 17.2339 2.19909C17.4787 1.9575 17.6162 1.62984 17.6162 1.28819C17.6162 0.946544 17.4787 0.618887 17.2339 0.377304C16.9892 0.13572 16.6573 0 16.3112 0H16.0771C15.731 0 15.399 0.13572 15.1543 0.377304C14.9096 0.618887 14.7721 0.946544 14.7721 1.28819C14.7721 1.62984 14.9096 1.9575 15.1543 2.19909C15.399 2.44067 15.731 2.57639 16.0771 2.57639Z" fill="#F36A4F"/>
<path d="M20.4518 2.57639H24.0169C24.363 2.57639 24.6949 2.44067 24.9397 2.19909C25.1844 1.9575 25.3219 1.62984 25.3219 1.28819C25.3219 0.946544 25.1844 0.618887 24.9397 0.377304C24.6949 0.13572 24.363 0 24.0169 0H20.4518C20.1057 0 19.7738 0.13572 19.529 0.377304C19.2843 0.618887 19.1468 0.946544 19.1468 1.28819C19.1468 1.62984 19.2843 1.9575 19.529 2.19909C19.7738 2.44067 20.1057 2.57639 20.4518 2.57639Z" fill="#F36A4F"/>
<path d="M25.7889 39.9999H32.692C34.6294 39.9975 36.4868 39.2366 37.8568 37.8843C39.2268 36.532 39.9975 34.6985 40 32.786V7.21621C39.9975 5.30372 39.2268 3.47025 37.8568 2.11792C36.4868 0.765579 34.6294 0.00476064 32.692 0.002315H29.3493C29.0032 0.002315 28.6712 0.138035 28.4265 0.379619C28.1817 0.621202 28.0443 0.94886 28.0443 1.29051C28.0443 1.63216 28.1817 1.95982 28.4265 2.2014C28.6712 2.44299 29.0032 2.57871 29.3493 2.57871H32.692C33.9374 2.58054 35.1313 3.06972 36.0119 3.93902C36.8926 4.80833 37.3881 5.98683 37.39 7.21621V32.786C37.3881 34.0154 36.8926 35.1939 36.0119 36.0632C35.1313 36.9325 33.9374 37.4217 32.692 37.4235H25.7889C25.4428 37.4235 25.1108 37.5592 24.8661 37.8008C24.6214 38.0424 24.4839 38.3701 24.4839 38.7117C24.4839 39.0534 24.6214 39.381 24.8661 39.6226C25.1108 39.8642 25.4428 39.9999 25.7889 39.9999Z" fill="#F36A4F"/>
<path d="M1.31116 11.5626C1.65696 11.5626 1.9886 11.427 2.23312 11.1856C2.47763 10.9442 2.615 10.6169 2.615 10.2755V7.32712C2.61686 6.09654 3.11339 4.91699 3.99556 4.04749C4.87772 3.17799 6.07341 2.68962 7.32005 2.68962H11.8449C12.0162 2.68962 12.1859 2.6563 12.3443 2.59156C12.5026 2.52682 12.6465 2.43193 12.7676 2.31231C12.8888 2.19269 12.9849 2.05068 13.0505 1.89439C13.1161 1.7381 13.1499 1.57059 13.1499 1.40142C13.1499 1.23225 13.1161 1.06474 13.0505 0.908452C12.9849 0.752161 12.8888 0.610151 12.7676 0.490531C12.6465 0.370911 12.5026 0.276024 12.3443 0.211286C12.1859 0.146548 12.0162 0.113228 11.8449 0.113228H7.32707C5.38962 0.115673 3.53223 0.876491 2.16224 2.22883C0.792258 3.58117 0.0215097 5.41463 0.0190321 7.32712V10.2732C0.0184003 10.613 0.153888 10.9392 0.395945 11.1807C0.638002 11.4223 0.966992 11.5595 1.31116 11.5626Z" fill="#F36A4F"/>
<path d="M1.3112 21.5562C1.657 21.5562 1.98863 21.4206 2.23315 21.1792C2.47766 20.9379 2.61503 20.6105 2.61503 20.2692V18.8643C2.61503 18.5226 2.47754 18.195 2.2328 17.9534C1.98807 17.7118 1.65614 17.5761 1.31003 17.5761C0.96392 17.5761 0.631985 17.7118 0.387249 17.9534C0.142513 18.195 0.00502243 18.5226 0.00502243 18.8643V20.2738C0.00626206 20.6147 0.144497 20.9413 0.389386 21.1817C0.634274 21.4221 0.965805 21.5568 1.3112 21.5562Z" fill="#F36A4F"/>
</svg>
