<svg width="22" height="20" viewBox="0 0 22 20" fill="none" xmlns="http://www.w3.org/2000/svg">
<path d="M11.5044 19.9969C11.3088 19.9968 11.1187 19.9305 10.9625 19.8079C10.8063 19.6854 10.6926 19.5133 10.6385 19.3176C10.5844 19.1219 10.5929 18.9132 10.6626 18.7229C10.7323 18.5326 10.8596 18.3711 11.0251 18.2628C15.4256 15.3908 19.9552 11.8459 20.1896 7.37295C20.3278 4.73267 18.1899 2.07047 15.7906 1.89519C15.0695 1.84197 14.4746 1.90927 14.0689 2.08769C13.1209 2.50713 11.9956 3.33975 11.8289 3.94074C11.7569 4.17239 11.6014 4.36586 11.3951 4.48034C11.1888 4.59482 10.9479 4.62136 10.7232 4.55436C10.4985 4.48737 10.3076 4.33207 10.1907 4.12123C10.0738 3.9104 10.0401 3.6605 10.0966 3.42427C10.5894 1.63225 13.0834 0.485052 13.3718 0.359846C14.0419 0.0609163 14.9012 -0.0517692 15.9183 0.0217894C19.2882 0.267506 22.1832 3.82023 21.9909 7.47468C21.71 12.8085 16.7747 16.7243 11.9821 19.8529C11.839 19.9466 11.6734 19.9965 11.5044 19.9969Z" fill="white"/>
<path d="M10.8908 19.9969C10.7217 19.9965 10.5562 19.9466 10.413 19.8529C6.63606 17.3879 0.314068 13.2608 0.00908581 7.47468C-0.183218 3.82023 2.70435 0.267507 6.08319 0.0217894C7.10029 -0.0517692 7.95965 0.0609164 8.63722 0.359846C8.91967 0.485052 11.4136 1.63225 11.9064 3.42427C11.9723 3.66398 11.9442 3.92116 11.8281 4.13924C11.712 4.35731 11.5175 4.51842 11.2874 4.58712C11.0573 4.65582 10.8104 4.62647 10.6011 4.50555C10.3917 4.38462 10.2371 4.18202 10.1711 3.94231C10.0029 3.33506 8.8776 2.504 7.9296 2.08926C7.52396 1.91084 6.92902 1.84354 6.20788 1.89675C3.80408 2.07204 1.67071 4.73267 1.80893 7.37452C2.06283 12.1887 7.88904 15.9918 11.37 18.2643C11.5363 18.3724 11.6642 18.534 11.7344 18.7246C11.8046 18.9151 11.8132 19.1244 11.7591 19.3205C11.7049 19.5167 11.5908 19.6892 11.4342 19.8118C11.2775 19.9344 11.0867 20.0004 10.8908 20V19.9969Z" fill="white"/>
</svg>
