<svg width="56" height="40" viewBox="0 0 56 40" fill="none" xmlns="http://www.w3.org/2000/svg">
<path d="M50.3774 2.41238L49 3.7523L54.0889 8.71236L55.4663 7.37245L50.3774 2.41238Z" fill="#F36A4F"/>
<path d="M31.968 34.0001L31.5062 33.1637C29.7298 29.9258 32.0172 27.1052 32.1219 26.9864C32.1623 26.9381 32.2071 26.894 32.2558 26.8548C32.4913 26.6654 37.9436 22.2796 40.8483 20.9151C42.5662 18.9614 44.3564 15.5999 44.9968 14.3494L43.4205 11.8258C42.5677 11.4694 40.1325 10.3296 38.4454 8.3567C37.2432 9.16739 35.376 9.67306 34.3123 9.91226C33.6966 11.5047 31.617 16.1056 28.2428 16.1056C27.7768 16.1027 27.3144 16.0197 26.8743 15.86L26 15.5501L26.5926 13.7265L27.467 14.0363C30.5456 15.1247 32.7361 8.82224 32.7576 8.75803C32.811 8.597 32.9044 8.45361 33.0282 8.34249C33.1521 8.23138 33.302 8.15651 33.4626 8.12554C35.2313 7.77558 37.4479 7.00181 37.7989 6.43513C37.8827 6.30189 37.9968 6.1924 38.1312 6.11647C38.2655 6.04055 38.4158 6.00056 38.5686 6.00009H38.5778C38.7292 5.9988 38.8786 6.03633 39.0128 6.10939C39.147 6.18246 39.2619 6.28881 39.3475 6.41908C40.9314 8.82706 44.3226 10.1113 44.358 10.129C44.548 10.2007 44.7102 10.3355 44.8198 10.5126L46.8501 13.7714C46.9388 13.9133 46.99 14.077 46.9987 14.2461C47.0073 14.4152 46.9731 14.5837 46.8994 14.7346C46.7993 14.9401 44.4272 19.7994 42.0736 22.384C41.9868 22.4801 41.882 22.5566 41.7657 22.6087C39.3121 23.6907 34.2046 27.7457 33.4842 28.314C33.2271 28.664 32.1126 30.3576 33.1286 32.2101L33.5904 33.0465L31.968 34.0001Z" fill="#F36A4F"/>
<path d="M27.8258 16.0001L26 15.4922L26.246 14.5498C26.5503 13.3861 28.1096 7.51027 28.9815 6.13491C29.9842 4.55772 36.4344 0.700206 37.9921 0.137041C39.0296 -0.237317 40.3571 0.198892 42.5771 0.921566C43.4064 1.19175 44.3445 1.49938 45.4356 1.82003C46.5534 2.14555 45.5274 2.14555 46.5617 2.14555C47.6654 2.14555 48.821 2.14555 50.0997 2.57037L51 2.87148L50.4151 4.72862L49.5148 4.42751C48.5215 4.10198 47.6133 4.10198 46.5633 4.10198C45.5132 4.10198 46.2886 4.10198 44.9153 3.70158C43.799 3.37605 42.8451 3.06192 42.0048 2.78685C40.4281 2.27088 39.058 1.82491 38.6149 1.98442C37.1628 2.50852 31.2046 6.19025 30.5613 7.20753C30.0142 8.07018 28.7434 12.4827 28.0702 15.0609L27.8258 16.0001Z" fill="#F36A4F"/>
<path d="M32.3202 14.0001C31.75 14.0001 31.1436 13.8886 30.7104 13.5172L30 12.8982L31.2459 11.5053L31.9374 12.1012C32.1391 12.1863 32.8306 12.1522 33.3551 11.9882C34.0545 11.77 34.7144 11.2546 34.8609 10.8136C34.9381 10.5366 34.9642 10.2484 34.9381 9.9624C34.9213 9.61346 34.9376 9.26374 34.9869 8.91778L35.1319 8.00006L37 8.28482L36.8551 9.20254C36.8239 9.44059 36.8149 9.68096 36.8283 9.92062C36.8631 10.4162 36.806 10.9138 36.6598 11.3893C36.2723 12.5593 35.009 13.4213 33.9284 13.7586C33.4063 13.9119 32.8651 13.9931 32.3202 14.0001Z" fill="#F36A4F"/>
<path d="M32.1387 34.0001L32 32.2023L32.9349 32.1349C33.9196 32.0645 34.9947 31.3469 35.9436 30.7147C36.3659 30.4331 36.7632 30.1679 37.1621 29.9477C38.633 29.1327 44.4012 27.1582 46.3224 27.0114C47.3819 26.932 48.7998 27.2795 50.76 27.7604C52.3025 28.141 52.0707 28.5709 54.0776 28.899L55 29.0488L54.6884 30.8211L53.7675 30.6713C51.6812 30.3312 51.7946 29.8713 50.2941 29.5012C48.644 29.0953 47.2199 28.7447 46.4688 28.8001C44.8125 28.926 39.3809 30.7881 38.0939 31.4967C37.7635 31.6795 37.3958 31.9252 37.0032 32.1829C35.8579 32.9454 34.56 33.8113 33.0689 33.9192L32.1387 34.0001Z" fill="#F36A4F"/>
<path d="M44.7413 18.0001L44.0545 17.3179C43.9491 17.2122 43.8437 17.1098 43.7445 17.0058C43.1151 16.3918 42.4005 15.6977 42.0006 14.6489C41.8114 14.2805 41.1108 13.4687 40.8271 13.3886C39.6211 13.1771 38.6382 12.5563 38.0771 12.1948C37.4818 12.6098 36.8032 12.8581 36.1006 12.9179L35.1705 13.0117L35 10.9737L35.9301 10.8799C36.4046 10.8445 36.8598 10.6598 37.2415 10.3478C37.4741 10.1773 37.9066 9.84642 38.4414 10.0818C38.6197 10.1691 38.7917 10.2711 38.956 10.387C39.4211 10.6957 40.2132 11.2142 41.1263 11.3762C42.3509 11.5911 43.543 13.4056 43.7073 13.8491C43.9414 14.4749 44.4204 14.9405 44.9753 15.4811C45.0885 15.5903 45.2017 15.7011 45.3133 15.8222L46 16.5044L44.7413 18.0001Z" fill="#F36A4F"/>
<path d="M30.8373 34.0001L28.9481 33.7546L29.0672 32.7791C29.3307 30.6411 27.6384 29.5079 27.2495 29.2787C26.343 29.0316 19.9468 27.3163 17.1988 27.2984C17.0675 27.2975 16.9378 27.2687 16.8178 27.2139C13.5237 25.7181 9.40086 20.748 9.22624 20.5367C9.13433 20.4257 9.06781 20.2952 9.03155 20.1545C8.99529 20.0139 8.99021 19.8667 9.01668 19.7237L9.71361 15.8527C9.75147 15.6414 9.85638 15.4488 10.0121 15.3048C10.0391 15.2804 12.7823 12.7035 13.3745 9.80463C13.4065 9.64771 13.4759 9.5013 13.5764 9.37836C13.6768 9.25542 13.8054 9.15974 13.9505 9.09978C14.0957 9.03982 14.2531 9.01743 14.4088 9.0346C14.5644 9.05177 14.7135 9.10796 14.8429 9.1982C15.3922 9.58027 17.7973 9.41281 19.6135 9.02099C19.7951 8.98181 19.9841 8.99787 20.157 9.0672C20.3298 9.13652 20.4792 9.25609 20.5866 9.41118C20.6104 9.44533 23.1584 13.0221 26.5256 12.245L27.4559 12.0483L27.8766 13.9586L26.9478 14.1732C26.4826 14.281 26.0072 14.3356 25.5302 14.3358C22.5139 14.3358 20.2913 12.1035 19.4277 11.0711C18.3164 11.2776 16.3844 11.5475 14.954 11.2809C14.0952 13.8106 12.2076 15.8624 11.5313 16.542L10.9725 19.6311C11.925 20.7334 15.0049 24.1704 17.4195 25.3588C20.7041 25.4596 27.5559 27.3505 27.8527 27.4318C27.9141 27.4489 27.9737 27.4723 28.0305 27.5017C28.1687 27.5732 31.4183 29.2901 30.9548 33.0294L30.8373 34.0001Z" fill="#F36A4F"/>
<path d="M1.20026 14.0001L0 12.3744L0.695538 11.681C1.68806 10.697 2.71906 10.1783 3.71466 9.67559C4.64717 9.205 5.52891 8.76114 6.42141 7.93938C7.29083 7.13902 8.02638 6.42065 8.67575 5.78606C10.4054 4.09799 11.4456 3.07837 12.5228 3.00706C14.1308 2.90189 21.3432 3.99816 22.8204 5.16217C23.796 5.93223 25.8672 8.90553 27.4368 11.2514L28 12.0981L26.5366 13.4029L25.9734 12.5562C23.973 9.54012 22.3649 7.38679 21.7863 6.93046C20.8369 6.18179 14.1308 5.04274 12.632 5.14791C12.1704 5.17821 11.1086 6.21744 9.8714 7.42601C9.21279 8.06951 8.46494 8.79857 7.57705 9.61677C6.49989 10.6132 5.41196 11.1587 4.4579 11.64C3.54693 12.0999 2.68521 12.5312 1.90196 13.3084L1.20026 14.0001Z" fill="#F36A4F"/>
<path d="M21.2306 15.0001C20.1403 15.0001 18.8435 14.6574 18.1032 13.8392C17.5148 13.1784 16.9799 12.4764 16.5032 11.7391L16 10.956L17.6532 10.0001L18.1565 10.7832C18.5796 11.4362 19.0535 12.0584 19.5742 12.6446C19.8887 12.9918 20.721 13.2151 21.4661 13.1555C22.0258 13.1096 22.6919 12.8832 22.85 12.7318L23.2629 11.9318L25 12.7425L24.5726 13.5654C23.9403 14.7813 21.7226 14.9756 21.6306 14.9909C21.5016 14.9909 21.3677 15.0001 21.2306 15.0001Z" fill="#F36A4F"/>
<path d="M6.03231 40.0001L5 38.331L5.82068 37.8053C9.82391 35.2425 12.7932 33.3845 14.5444 32.8063C16.4443 32.1771 22.7835 31.8419 24.5299 32.0736C25.0016 32.136 25.4992 32.2379 26.0129 32.3578C27.1826 32.6141 28.5105 32.9048 29.4814 32.5796L30.3926 32.2641L31 34.1353L30.0792 34.4441C28.6058 34.937 27.0097 34.5871 25.5929 34.2799C25.1082 34.1747 24.6607 34.0745 24.2682 34.0236C22.7415 33.8215 16.769 34.1336 15.1325 34.6807C13.6042 35.1867 10.475 37.1449 6.84653 39.4744L6.03231 40.0001Z" fill="#F36A4F"/>
<path d="M11.9308 23.0001L10.369 21.3445C10.5257 20.9444 10.7131 20.5761 10.8853 20.2195C11.2453 19.4997 11.5553 18.8803 11.5536 18.2107C11.5536 17.7403 12.0703 15.6026 13.2449 14.9011C14.1216 14.3755 14.7279 13.5803 15.0913 13.1049C15.215 12.9316 15.352 12.7676 15.5012 12.6144C15.9576 12.1792 16.5346 12.2964 16.8343 12.3583C17.3465 12.4824 17.8845 12.4609 18.3844 12.2964L19.3834 12.0001L20 13.9168L19.0131 14.2165C18.2688 14.4549 17.4758 14.5123 16.7034 14.3839C16.2694 14.9514 15.4978 15.9206 14.3403 16.617C14.0872 16.8028 13.6841 17.829 13.6307 18.2425C13.6307 19.3591 13.164 20.2831 12.754 21.1C12.5818 21.4348 12.4302 21.7479 12.3045 22.0643L11.9308 23.0001Z" fill="#F36A4F"/>
</svg>
