<svg width="18" height="17" viewBox="0 0 18 17" fill="none" xmlns="http://www.w3.org/2000/svg">
<path d="M9.41296 15.9999C9.253 15.9998 9.09739 15.9468 8.96961 15.8487C8.84182 15.7507 8.74879 15.613 8.70453 15.4564C8.66028 15.2998 8.66719 15.1328 8.72425 14.9806C8.7813 14.8283 8.88539 14.6991 9.02083 14.6124C12.6213 12.3145 16.3275 9.47818 16.5193 5.89925C16.6324 3.78671 14.8832 1.65663 12.92 1.51638C12.33 1.4738 11.8432 1.52765 11.5113 1.6704C10.7356 2.00601 9.81493 2.6722 9.67848 3.15307C9.61959 3.33841 9.49233 3.49321 9.32356 3.58481C9.15478 3.67641 8.95767 3.69765 8.77382 3.64404C8.58997 3.59044 8.43374 3.46618 8.33809 3.29749C8.24245 3.12879 8.21486 2.92885 8.26115 2.73983C8.66434 1.306 10.7049 0.3881 10.9409 0.28792C11.4892 0.0487404 12.1923 -0.0414216 13.0245 0.0174342C15.7817 0.214037 18.1505 3.05665 17.9932 5.98065C17.7633 10.2483 13.7252 13.3814 9.80386 15.8847C9.68675 15.9597 9.55129 15.9996 9.41296 15.9999Z" fill="white"/>
<path d="M8.91093 15.9999C8.7726 15.9996 8.63715 15.9597 8.52003 15.8847C5.42968 13.9124 0.256973 10.6102 0.00743409 5.98065C-0.149911 3.05665 2.21272 0.214038 4.97731 0.0174342C5.80952 -0.0414216 6.51265 0.0487404 7.06705 0.28792C7.29815 0.3881 9.33871 1.306 9.74191 2.73983C9.79586 2.93162 9.77282 3.1374 9.67784 3.31189C9.58286 3.48638 9.42373 3.61528 9.23545 3.67025C9.04718 3.72521 8.84518 3.70174 8.6739 3.60498C8.50261 3.50823 8.37607 3.34612 8.32212 3.15432C8.18444 2.66845 7.26373 2.0035 6.48807 1.67166C6.15617 1.5289 5.66938 1.47505 5.07934 1.51763C3.11253 1.65788 1.36699 3.78671 1.48008 5.90051C1.68783 9.75243 6.45488 12.7954 9.30306 14.6137C9.43908 14.7001 9.54373 14.8294 9.60116 14.9819C9.6586 15.1344 9.66569 15.3018 9.62137 15.4588C9.57705 15.6157 9.48373 15.7537 9.35553 15.8518C9.22734 15.9499 9.07126 16.0028 8.91093 16.0024V15.9999Z" fill="white"/>
</svg>
