<svg width="36" height="40" viewBox="0 0 36 40" fill="none" xmlns="http://www.w3.org/2000/svg">
<path d="M18.5634 24.4444C17.2211 24.4431 15.9343 23.9314 14.9852 23.0215C14.0361 22.1117 13.5023 20.8781 13.5009 19.5914V17.1657C13.4884 16.5208 13.61 15.8801 13.8588 15.2809C14.1075 14.6817 14.4783 14.136 14.9496 13.6758C15.4209 13.2155 15.9831 12.8499 16.6034 12.6003C17.2237 12.3508 17.8898 12.2222 18.5625 12.2222C19.2352 12.2222 19.9013 12.3508 20.5216 12.6003C21.1419 12.8499 21.7041 13.2155 22.1754 13.6758C22.6467 14.136 23.0175 14.6817 23.2662 15.2809C23.515 15.8801 23.6366 16.5208 23.6241 17.1657V19.5914C23.6227 20.8778 23.0892 22.1111 22.1404 23.0209C21.1917 23.9307 19.9053 24.4427 18.5634 24.4444ZM18.5634 13.9308C17.6687 13.9317 16.811 14.2728 16.1783 14.8793C15.5457 15.4857 15.1899 16.308 15.189 17.1657V19.5914C15.189 20.4493 15.5445 21.2721 16.1773 21.8787C16.8101 22.4854 17.6684 22.8262 18.5634 22.8262C19.4583 22.8262 20.3166 22.4854 20.9494 21.8787C21.5823 21.2721 21.9378 20.4493 21.9378 19.5914V17.1657C21.9369 16.308 21.581 15.4857 20.9484 14.8793C20.3158 14.2728 19.458 13.9317 18.5634 13.9308Z" fill="#F36A4F"/>
<path d="M2.0949 23.3333L1.58801 21.9006L3.19199 21.3186L3.69889 22.7513L2.0949 23.3333ZM0.903873 19.9807L0.402294 18.5677C-0.0114035 17.4131 -0.108247 16.167 0.122028 14.9613C0.352303 13.7556 0.901117 12.6354 1.7103 11.7193L3.22921 10L4.5 11.1462L2.9864 12.8655C2.16084 13.8031 1.70263 15.0132 1.69789 16.2682C1.70247 16.8563 1.80554 17.4395 2.00274 17.9928L2.50255 19.4005L0.903873 19.9807Z" fill="#F36A4F"/>
<path d="M11.2458 40H9.49754V33.6888L3.58135 17.8755C3.36894 17.3165 3.31937 16.7125 3.43796 16.1285C3.55656 15.5445 3.83883 15.0025 4.25447 14.5607L13.2452 4.90245L13.9383 1.961C14.0676 1.40246 14.3925 0.903232 14.8589 0.546438C15.3253 0.189644 15.905 -0.00318995 16.5016 3.99236e-05C17.9443 3.99236e-05 19.1177 1.17592 19.1177 2.61698V5.44328C19.1171 6.08993 18.8918 6.71793 18.4773 7.22804L10.6546 16.3507L11.9553 20.4296C12.2968 21.3224 12.9164 22.0929 13.73 22.6366C14.5436 23.1802 15.5118 23.4708 16.5035 23.4688H19.125V25.1471H16.4962C15.1389 25.1456 13.8151 24.7428 12.7053 23.9935C11.5954 23.2442 10.7535 22.1849 10.2944 20.96L8.71344 15.9773L17.1056 6.183C17.2735 5.96988 17.3647 5.71034 17.3658 5.44328V2.61175C17.3658 2.1564 17.0165 1.66965 16.498 1.66965C16.2977 1.6646 16.102 1.72743 15.9453 1.8471C15.7886 1.96676 15.6809 2.13559 15.6411 2.32388L14.8516 5.68753L5.57342 15.6685C5.36408 15.8864 5.22194 16.1558 5.16284 16.4466C5.10373 16.7373 5.12999 17.0382 5.23868 17.3155L11.2549 33.3957L11.2458 40Z" fill="#F36A4F"/>
<path d="M31.5732 27.4093L31.087 28.7292L32.7227 29.3008L33.2089 27.981L31.5732 27.4093Z" fill="#F36A4F"/>
<path d="M34.3643 19.8289L32.2935 25.4496L33.9292 26.0213L36 20.4006L34.3643 19.8289Z" fill="#F36A4F"/>
<path d="M26.9376 40H25.3117V33.397L30.9027 17.3117C31.003 17.0346 31.0267 16.7342 30.9712 16.4441C30.9156 16.1539 30.7831 15.8854 30.5883 15.6684L21.9584 5.69209L21.2215 2.32884C21.1849 2.1425 21.0867 1.97509 20.9436 1.8554C20.8004 1.73571 20.6214 1.67119 20.4372 1.67294C19.9555 1.67294 19.631 2.15963 19.631 2.61492V5.44787C19.6331 5.72397 19.7241 5.9915 19.8896 6.20844L27.6779 15.9772L26.2243 20.9226C25.8022 22.1593 25.019 23.2304 23.9826 23.9886C22.9462 24.7468 21.7076 25.1548 20.4372 25.1564H18.8062V23.4782H20.4372C21.3625 23.4756 22.2646 23.1788 23.0206 22.6282C23.7767 22.0776 24.35 21.2999 24.6626 20.4011L25.8457 16.3523L18.6118 7.2516C18.2173 6.73773 18.0018 6.10178 18 5.44612V2.61667C18 1.17229 19.0902 3.41492e-05 20.4305 3.41492e-05C20.9849 -0.00295146 21.5236 0.189915 21.9571 0.546594C22.3906 0.903274 22.6928 1.4023 22.8136 1.96077L23.4559 4.9071L31.8036 14.5625C32.3302 15.1727 32.6224 15.9607 32.625 16.7779C32.6224 17.1533 32.5578 17.5256 32.434 17.8786L26.9376 33.6901V40Z" fill="#F36A4F"/>
</svg>
