<svg width="64" height="80" viewBox="0 0 64 80" fill="none" xmlns="http://www.w3.org/2000/svg">
<path d="M33.0805 61.64H33.0284C32.4579 61.593 31.8967 61.4685 31.3607 61.2701C31.21 61.2215 30.9855 61.1486 30.9088 61.1325C28.1374 60.6438 26.1575 57.7876 26.3081 54.4887C26.4587 51.1898 28.6906 48.8195 31.9878 48.528C32.2215 48.5079 32.457 48.5335 32.6808 48.6032C32.9045 48.6728 33.1121 48.7853 33.2918 48.9341C33.4714 49.0828 33.6196 49.265 33.7278 49.4703C33.8361 49.6755 33.9022 49.8997 33.9226 50.1302C33.9429 50.3606 33.917 50.5927 33.8463 50.8133C33.7756 51.0339 33.6615 51.2385 33.5106 51.4156C33.3597 51.5927 33.1748 51.7388 32.9667 51.8455C32.7585 51.9522 32.531 52.0174 32.2972 52.0375C30.2762 52.2129 29.9038 53.7571 29.8627 54.6615C29.8024 55.9654 30.4268 57.4961 31.5414 57.6931C31.8545 57.7571 32.1628 57.8419 32.4643 57.9469C32.6972 58.0286 32.935 58.0962 33.1763 58.1494C33.4091 58.1574 33.6381 58.2106 33.85 58.3061C34.0619 58.4016 34.2526 58.5374 34.4111 58.7057C34.5697 58.874 34.6929 59.0715 34.7738 59.2869C34.8546 59.5023 34.8916 59.7313 34.8824 59.9608C34.8598 60.4158 34.6597 60.8446 34.3239 61.1575C33.9881 61.4705 33.5425 61.6433 33.0805 61.64Z" fill="#F36A4F"/>
<path d="M38.4014 52.3695C30.1858 52.3695 28.7262 48.1716 28.592 45.669C28.5253 44.0334 29.0492 42.4274 30.0707 41.1368C31.0921 39.8461 32.5448 38.9545 34.1704 38.6203C34.6907 38.5232 42.3038 38.1641 42.3613 38.1641C42.8334 38.162 43.2871 38.3448 43.6224 38.6723C43.9578 38.9999 44.1474 39.4454 44.1496 39.9108C44.1518 40.3762 43.9663 40.8233 43.634 41.1539C43.3017 41.4845 42.8499 41.6715 42.3778 41.6736C41.8301 41.6736 35.5643 42.0111 34.7783 42.0786C33.1106 42.4295 32.0699 44.1087 32.1439 45.4828C32.1932 46.406 32.3246 48.8573 38.3959 48.8573C38.868 48.8573 39.3208 49.0422 39.6546 49.3712C39.9884 49.7003 40.176 50.1466 40.176 50.612C40.176 51.0774 39.9884 51.5238 39.6546 51.8528C39.3208 52.1819 38.868 52.3668 38.3959 52.3668L38.4014 52.3695Z" fill="#F36A4F"/>
<path d="M50.8854 71.2857C50.2208 71.2857 45.4905 71.2803 44.6945 71.2695C37.9742 71.1696 35.0686 70.9347 34.2881 70.8618C32.352 71.0346 30.5884 70.1977 29.4163 68.5456C27.8964 66.4021 27.65 63.2273 28.833 60.9867C29.7942 59.1698 31.5715 58.1251 33.7432 58.1251C34.2153 58.1251 34.668 58.3099 35.0019 58.639C35.3357 58.9681 35.5232 59.4144 35.5232 59.8798C35.5232 60.3452 35.3357 60.7915 35.0019 61.1206C34.668 61.4497 34.2153 61.6346 33.7432 61.6346C32.897 61.6346 32.3411 61.945 31.9905 62.6064C31.4182 63.6863 31.5715 65.4491 32.3356 66.5263C33.0147 67.4819 33.798 67.382 34.0554 67.3362C34.2018 67.3183 34.3499 67.3183 34.4963 67.3362C34.5182 67.3362 37.1335 67.6304 44.7384 67.7411C48.2245 67.7924 53.7252 67.7195 54.3496 67.6601C54.5414 67.53 54.7573 67.4382 54.9849 67.3901C55.0096 67.3901 58.315 66.6532 58.304 64.4935C58.304 63.1167 58.1096 62.5146 58.0302 62.3338C57.7238 62.0433 57.533 61.6544 57.4922 61.2373C57.4514 60.8202 57.5634 60.4025 57.8079 60.0597C58.0524 59.7169 58.4133 59.4717 58.8252 59.3684C59.2372 59.2651 59.673 59.3105 60.0539 59.4965C61.2397 60.0742 61.8449 61.7506 61.8586 64.4827C61.8751 68.1001 58.7312 69.971 56.4281 70.6486C55.8174 71.067 54.974 71.1318 54.3852 71.1885C53.5883 71.2533 52.408 71.2857 50.8854 71.2857Z" fill="#F36A4F"/>
<path d="M58.608 62.0746H56.5705C56.0984 62.0746 55.6457 61.8897 55.3119 61.5606C54.978 61.2315 54.7905 60.7852 54.7905 60.3198C54.7905 59.8544 54.978 59.4081 55.3119 59.079C55.6457 58.7499 56.0984 58.5651 56.5705 58.5651H58.2493C58.8654 58.2816 60.4949 57.3502 60.4401 55.4929C60.3579 52.472 58.2274 51.5947 58.2054 51.5866C57.9823 51.5053 57.7779 51.3808 57.6043 51.2203C57.4308 51.0598 57.2917 50.8667 57.1952 50.6523C57.0987 50.4379 57.0467 50.2066 57.0425 49.9721C57.0382 49.7376 57.0816 49.5046 57.1702 49.287C57.2589 49.0693 57.3908 48.8713 57.5584 48.7048C57.7259 48.5383 57.9257 48.4066 58.1457 48.3174C58.3658 48.2283 58.6018 48.1836 58.8397 48.1859C59.0776 48.1882 59.3126 48.2375 59.5309 48.3308C59.7062 48.401 63.8523 50.1018 63.9974 55.4011C64.1015 59.2589 61.0179 61.3403 59.1776 61.9801C58.9942 62.0419 58.8018 62.0738 58.608 62.0746Z" fill="#F36A4F"/>
<path d="M54.1415 52.0617C53.6694 52.0617 53.2166 51.8768 52.8828 51.5477C52.549 51.2187 52.3614 50.7723 52.3614 50.3069C52.3614 49.8416 52.549 49.3952 52.8828 49.0662C53.2166 48.7371 53.6694 48.5522 54.1415 48.5522C54.5306 48.488 54.9128 48.3886 55.2834 48.2552L55.4204 48.212C55.6778 48.1391 58.0685 47.3887 58.0576 44.7673C58.0682 44.1846 57.8872 43.6141 57.5417 43.1411C57.1962 42.6681 56.7046 42.3181 56.1406 42.1433C55.9165 42.0808 55.7071 41.9753 55.5244 41.8328C55.3418 41.6903 55.1895 41.5136 55.0762 41.313C54.963 41.1123 54.8911 40.8916 54.8646 40.6635C54.8381 40.4353 54.8576 40.2043 54.9219 39.9836C55.0531 39.5356 55.3591 39.1571 55.7728 38.9309C56.1864 38.7047 56.6742 38.6493 57.1292 38.7769C58.6765 39.2088 61.6067 41.0122 61.6231 44.7565C61.6423 49.0219 58.2684 51.0736 56.4199 51.5893C55.6879 51.8555 54.9203 52.0147 54.1415 52.0617Z" fill="#F36A4F"/>
<path d="M53.7334 79.2927H53.3227C52.8506 79.2927 52.3978 79.1078 52.064 78.7788C51.7301 78.4497 51.5426 78.0033 51.5426 77.538C51.5426 77.0726 51.7301 76.6263 52.064 76.2972C52.3978 75.9681 52.8506 75.7832 53.3227 75.7832H53.5965C54.1442 75.686 56.294 75.1866 56.2857 73.3239C56.2857 71.5988 55.8202 70.9671 55.738 70.8645C55.3571 70.5896 55.1025 70.1767 55.0304 69.7168C54.9582 69.2568 55.0744 68.7875 55.3533 68.4119C55.6322 68.0364 56.051 67.7854 56.5176 67.7143C56.9841 67.6432 57.4603 67.7577 57.8412 68.0326C58.3095 68.3404 59.8376 69.6254 59.854 73.3077C59.865 77.3868 56.0557 78.9931 54.0073 79.2765C53.9166 79.2897 53.8251 79.296 53.7334 79.2954V79.2927Z" fill="#F36A4F"/>
<path d="M41.2166 62.1151C39.3653 62.1151 38.2699 62.0854 38.2042 62.0827C37.7321 62.0695 37.2847 61.8719 36.9604 61.5334C36.6361 61.195 36.4614 60.7434 36.4748 60.278C36.4883 59.8126 36.6887 59.3716 37.032 59.0518C37.3754 58.7321 37.8335 58.56 38.3055 58.5732C38.3302 58.5732 40.7867 58.6407 44.5576 58.5732C49.3035 58.4895 53.3555 58.5246 53.8758 58.8594C54.2176 59.0776 54.4731 59.4049 54.5998 59.7864C54.7264 60.168 54.7165 60.5808 54.5716 60.956C54.4268 61.3313 54.1559 61.6462 53.804 61.8483C53.4521 62.0503 53.0405 62.1274 52.638 62.0665C52.4627 62.0665 47.6604 62.0314 44.6179 62.0854C43.3116 62.107 42.1641 62.1151 41.2166 62.1151Z" fill="#F36A4F"/>
<path d="M57.6879 52.0725H32.5656C32.0935 52.0725 31.6407 51.8876 31.3069 51.5586C30.9731 51.2295 30.7856 50.7832 30.7856 50.3178C30.7856 49.8524 30.9731 49.4061 31.3069 49.077C31.6407 48.7479 32.0935 48.563 32.5656 48.563H57.6879C58.16 48.563 58.6127 48.7479 58.9465 49.077C59.2804 49.4061 59.4679 49.8524 59.4679 50.3178C59.4679 50.7832 59.2804 51.2295 58.9465 51.5586C58.6127 51.8876 58.16 52.0725 57.6879 52.0725Z" fill="#F36A4F"/>
<path d="M38.0919 79.2927C38.0067 79.2924 37.9216 79.2861 37.8373 79.2738C37.3635 79.2064 33.1599 78.5315 31.5962 75.4593C30.9827 74.258 30.5774 72.2387 32.111 69.4554C32.2212 69.2503 32.3716 69.0689 32.5534 68.9216C32.7352 68.7742 32.9449 68.6639 33.1702 68.5969C33.3956 68.53 33.6322 68.5077 33.8663 68.5315C34.1004 68.5553 34.3274 68.6246 34.5342 68.7355C34.741 68.8463 34.9234 68.9965 35.0709 69.1773C35.2184 69.3581 35.3281 69.5659 35.3936 69.7888C35.4591 70.0116 35.4791 70.2451 35.4524 70.4756C35.4258 70.7062 35.3531 70.9292 35.2384 71.1318C34.5949 72.298 34.4415 73.224 34.7783 73.8854C35.4219 75.1488 37.7551 75.7185 38.3384 75.8021C38.7864 75.8625 39.1943 76.0886 39.4792 76.4346C39.7642 76.7806 39.905 77.2206 39.8729 77.6652C39.8409 78.1098 39.6384 78.5256 39.3066 78.8284C38.9748 79.1312 38.5386 79.2982 38.0865 79.2954L38.0919 79.2927Z" fill="#F36A4F"/>
<path d="M52.408 79.3008H45.3956C44.9235 79.3008 44.4707 79.1159 44.1369 78.7868C43.8031 78.4577 43.6156 78.0114 43.6156 77.546C43.6156 77.0807 43.8031 76.6343 44.1369 76.3052C44.4707 75.9762 44.9235 75.7913 45.3956 75.7913H52.408C52.8801 75.7913 53.3328 75.9762 53.6667 76.3052C54.0005 76.6343 54.188 77.0807 54.188 77.546C54.188 78.0114 54.0005 78.4577 53.6667 78.7868C53.3328 79.1159 52.8801 79.3008 52.408 79.3008Z" fill="#F36A4F"/>
<path d="M56.0612 42.0624C55.8232 42.063 55.5875 42.0162 55.3683 41.9247C55.1986 41.8788 54.1223 41.6304 50.7375 41.6547C46.7803 41.6952 41.1208 41.6547 41.0523 41.6547C40.5802 41.6433 40.1321 41.4474 39.8065 41.1102C39.4809 40.773 39.3045 40.3222 39.3161 39.8568C39.3277 39.3914 39.5264 38.9496 39.8684 38.6286C40.2105 38.3077 40.6678 38.1338 41.1399 38.1452C41.1564 38.1452 46.8241 38.183 50.7019 38.1452C54.0265 38.1101 56.116 38.3207 56.9293 38.7661C57.274 38.9552 57.5453 39.2518 57.7004 39.6094C57.8556 39.9669 57.8859 40.3651 57.7865 40.7415C57.6871 41.1178 57.4638 41.451 57.1515 41.6886C56.8392 41.9262 56.4557 42.0548 56.0612 42.0543V42.0624Z" fill="#F36A4F"/>
<path d="M28.8385 80C17.4791 80 5.7126 77.1924 1.70614 71.6312C1.43305 71.2514 1.32421 70.7802 1.40355 70.3212C1.4829 69.8623 1.74394 69.4532 2.12924 69.184C2.51455 68.9148 2.99255 68.8075 3.45811 68.8857C3.92366 68.9639 4.33863 69.2213 4.61172 69.6011C8.51412 75.03 21.6827 77.3247 35.1261 76.234C35.3599 76.2151 35.5952 76.2417 35.8185 76.3123C36.0418 76.383 36.2488 76.4964 36.4277 76.6459C36.6066 76.7954 36.7539 76.9782 36.8611 77.1838C36.9684 77.3895 37.0335 77.6139 37.0527 77.8444C37.0719 78.0748 37.0449 78.3067 36.9733 78.5269C36.9016 78.747 36.7866 78.9511 36.6349 79.1275C36.4832 79.3038 36.2978 79.449 36.0892 79.5547C35.8806 79.6604 35.6529 79.7246 35.4192 79.7435C33.106 79.9145 30.9125 80 28.8385 80Z" fill="#F36A4F"/>
<path d="M40.1239 41.5143C40.0015 41.5141 39.8795 41.5015 39.7597 41.4766C35.9751 40.6991 31.0927 39.1279 30 37.5C27.5 33.7755 28.2452 27.7876 29.4009 24.8289C29.6983 24.1235 29.9561 23.4025 30.1731 22.6692C31.033 19.0004 31.2904 12.3764 30.195 9.01536C29.3023 6.32384 27.5934 4.40442 25.4683 3.74301C24.0717 3.30838 22.7298 3.49735 21.6755 4.28294C21.2982 4.56289 20.8235 4.68361 20.3559 4.61855C19.8883 4.5535 19.466 4.30799 19.182 3.93604C18.8981 3.56408 18.7756 3.09616 18.8416 2.63519C18.9076 2.17423 19.1566 1.75799 19.5339 1.47804C20.5278 0.754611 21.6843 0.278631 22.9049 0.0906171C24.1256 -0.0973969 25.3742 0.0081231 26.5446 0.398194C29.7815 1.40785 32.3448 4.15335 33.5798 7.93281C34.919 12.0281 34.5958 19.3783 33.6401 23.4548C33.3915 24.3514 33.0851 25.2315 32.7227 26.0896C32.1421 27.5717 31.3069 32.7188 33.2918 35.5C34.5 37 36.4187 37.2058 40.4854 38.0426C40.9156 38.1321 41.2969 38.3753 41.556 38.7254C41.8151 39.0755 41.9336 39.5077 41.8887 39.9388C41.8439 40.3699 41.6387 40.7693 41.3129 41.0602C40.9871 41.3511 40.5635 41.5129 40.1239 41.5143Z" fill="#F36A4F"/>
<path d="M1.78828 48.042C1.35248 48.0416 0.931957 47.8837 0.606403 47.5981C0.280849 47.3125 0.0728882 46.9191 0.0219333 46.4924C-0.0355758 46.0038 -0.369676 41.5764 5.75915 36.9601C7.84043 35.3943 13.3668 27.2315 15.3002 24.3402C17.2336 21.4489 18.9808 14.2877 18.5645 10.8916C18.5179 10.5217 18.4194 10.0169 18.3126 9.47967C17.8004 6.83135 16.9159 2.38778 20.3911 0.919194C20.8251 0.735545 21.3153 0.72936 21.7539 0.902C22.1924 1.07464 22.5435 1.41196 22.7298 1.83976C22.9161 2.26756 22.9224 2.75079 22.7472 3.18315C22.5721 3.61551 22.2299 3.96158 21.796 4.14523C20.9607 4.49888 21.5577 7.52785 21.8124 8.82096C21.9301 9.42027 22.0424 9.98719 22.1027 10.4812C22.7325 15.6105 19.7229 24.1161 18.2687 26.2785C16.2614 29.2778 11.6826 36.9169 7.91711 39.7542C3.42592 43.1341 3.56011 46.0551 3.56011 46.0713C3.58951 46.3174 3.56567 46.5669 3.49017 46.8033C3.41468 47.0398 3.28923 47.2577 3.12209 47.4429C2.95495 47.6281 2.74992 47.7762 2.52049 47.8776C2.29107 47.979 2.04245 48.0314 1.79102 48.0312L1.78828 48.042Z" fill="#F36A4F"/>
<path d="M2.65641 53.6949C2.25642 53.694 1.86839 53.5604 1.55489 53.3155C1.24139 53.0706 1.0207 52.7288 0.928395 52.3451C0.833942 51.9588 0.76714 51.5664 0.728483 51.1708C0.705467 50.9414 0.728505 50.7098 0.796284 50.4892C0.864062 50.2686 0.975253 50.0634 1.12351 49.8851C1.27176 49.7069 1.45418 49.5592 1.66034 49.4504C1.8665 49.3417 2.09236 49.2741 2.32504 49.2514C2.55772 49.2287 2.79266 49.2514 3.01643 49.3182C3.24021 49.385 3.44844 49.4946 3.62925 49.6408C3.81005 49.7869 3.95989 49.9667 4.07019 50.17C4.1805 50.3732 4.24912 50.5959 4.27214 50.8252C4.29456 51.059 4.33391 51.2908 4.38989 51.519C4.45133 51.7766 4.45297 52.0445 4.3947 52.3028C4.33643 52.5611 4.21974 52.8031 4.05335 53.0107C3.88696 53.2184 3.67516 53.3863 3.43375 53.5019C3.19234 53.6176 2.92756 53.678 2.65914 53.6787L2.65641 53.6949Z" fill="#F36A4F"/>
<path d="M41.7616 79.2036C41.3498 79.2037 40.9508 79.0632 40.6324 78.8058C40.3139 78.5485 40.0959 78.1903 40.0153 77.7922C39.9347 77.3942 39.9966 76.9809 40.1904 76.6228C40.3843 76.2647 40.6981 75.9839 41.0783 75.8282C41.4586 75.6726 41.8818 75.6517 42.276 75.7691C42.6701 75.8866 43.0108 76.1351 43.2399 76.4723C43.469 76.8096 43.5725 77.2147 43.5326 77.6187C43.4927 78.0227 43.3121 78.4006 43.0213 78.688C42.6865 79.0164 42.2339 79.2016 41.7616 79.2036Z" fill="#F36A4F"/>
</svg>
