<svg width="63" height="64" viewBox="0 0 63 64" fill="none" xmlns="http://www.w3.org/2000/svg">
<path d="M47.5578 42.0126C45.518 42.0126 43.524 41.4066 41.828 40.2711C40.132 39.1357 38.8101 37.5218 38.0295 35.6336C37.2489 33.7454 37.0447 31.6677 37.4426 29.6632C37.8405 27.6587 38.8228 25.8175 40.2651 24.3723C41.7075 22.9271 43.5451 21.943 45.5457 21.5442C47.5463 21.1455 49.62 21.3502 51.5045 22.1323C53.389 22.9144 54.9997 24.2389 56.133 25.9382C57.2662 27.6375 57.8711 29.6354 57.8711 31.6791C57.8657 34.4181 56.7773 37.0433 54.8444 38.98C52.9114 40.9167 50.2914 42.0071 47.5578 42.0126ZM47.5578 24.3148C46.1073 24.3148 44.6893 24.7458 43.4833 25.5532C42.2772 26.3607 41.3372 27.5083 40.7821 28.851C40.227 30.1937 40.0818 31.6712 40.3648 33.0966C40.6477 34.5221 41.3462 35.8314 42.3719 36.8591C43.3976 37.8867 44.7043 38.5866 46.127 38.8701C47.5496 39.1536 49.0242 39.0081 50.3643 38.452C51.7044 37.8958 52.8498 36.9539 53.6557 35.7455C54.4616 34.5371 54.8917 33.1164 54.8917 31.6631C54.8881 29.7151 54.1143 27.8479 52.7398 26.4703C51.3652 25.0927 49.5019 24.3168 47.5578 24.3125V24.3148Z" fill="#F36A4F"/>
<path d="M58.084 42.3066C57.8133 42.3078 57.5473 42.235 57.3147 42.0961C57.0822 41.9572 56.8918 41.7574 56.7641 41.5182C56.6363 41.279 56.5761 41.0095 56.5898 40.7385C56.6035 40.4676 56.6906 40.2055 56.8418 39.9805C57.5294 38.954 59.0305 36.1066 59.3629 35.1008C59.9433 33.3653 60.1403 31.5242 59.9402 29.7049C59.7402 27.8856 59.1479 26.1316 58.2043 24.5644C57.2608 22.9971 55.9885 21.6541 54.4757 20.6283C52.9628 19.6024 51.2455 18.9183 49.4426 18.6233C47.6398 18.3283 45.7945 18.4294 44.0345 18.9197C42.2745 19.4099 40.6419 20.2776 39.2497 21.4626C37.8575 22.6476 36.739 24.1217 35.9717 25.7827C35.2044 27.4437 34.8065 29.2519 34.8057 31.0822C34.8057 33.808 35.4038 36.4349 36.41 38.1113C36.6045 38.4504 36.6585 38.8526 36.5601 39.2311C36.4617 39.6097 36.219 39.9345 35.884 40.1355C35.5491 40.3366 35.1488 40.3978 34.7692 40.3061C34.3897 40.2144 34.0612 39.9771 33.8546 39.6452C32.5665 37.4936 31.8308 34.3637 31.8308 31.0822C31.8357 28.8214 32.3304 26.5887 33.2808 24.5383C34.2313 22.4878 35.6148 20.6686 37.3356 19.2064C39.0565 17.7442 41.0738 16.6738 43.248 16.0693C45.4222 15.4647 47.7015 15.3404 49.9284 15.705C52.1552 16.0695 54.2765 16.9142 56.1456 18.1806C58.0147 19.4471 59.5871 21.1051 60.754 23.0401C61.9209 24.975 62.6546 27.1408 62.9043 29.3877C63.154 31.6346 62.9137 33.909 62.2002 36.0538C61.7418 37.3948 60.0779 40.5224 59.3216 41.6499C59.185 41.8528 59.0006 42.0188 58.7848 42.1333C58.5689 42.2479 58.3283 42.3074 58.084 42.3066Z" fill="#F36A4F"/>
<path d="M11.5344 18.2755C10.258 18.2755 9.01017 17.8962 7.94884 17.1857C6.88751 16.4752 6.06031 15.4652 5.57183 14.2837C5.08335 13.1021 4.95554 11.8019 5.20457 10.5475C5.45359 9.29314 6.06826 8.14093 6.97085 7.23658C7.87344 6.33223 9.0234 5.71637 10.2753 5.46686C11.5273 5.21735 12.8249 5.3454 14.0042 5.83483C15.1835 6.32426 16.1914 7.15309 16.9006 8.21649C17.6097 9.27989 17.9883 10.5301 17.9883 11.8091C17.9864 13.5235 17.3059 15.1672 16.096 16.3795C14.886 17.5918 13.2455 18.2737 11.5344 18.2755ZM11.5344 8.32783C10.8472 8.32783 10.1755 8.532 9.60411 8.91452C9.03274 9.29704 8.58741 9.84073 8.32444 10.4768C8.06147 11.113 7.99266 11.8129 8.12673 12.4882C8.26079 13.1635 8.5917 13.7838 9.07761 14.2707C9.56352 14.7575 10.1826 15.0891 10.8566 15.2234C11.5306 15.3577 12.2292 15.2888 12.864 15.0253C13.4989 14.7618 14.0415 14.3156 14.4233 13.7431C14.8051 13.1706 15.0089 12.4976 15.0089 11.8091C15.0076 10.8861 14.6412 10.0014 13.9899 9.34879C13.3386 8.6962 12.4555 8.32904 11.5344 8.32783Z" fill="#F36A4F"/>
<path d="M20.1331 18.8679C19.8616 18.8691 19.595 18.7959 19.362 18.6563C19.129 18.5168 18.9385 18.316 18.8111 18.0758C18.6837 17.8357 18.6242 17.5652 18.6391 17.2936C18.6539 17.022 18.7426 16.7596 18.8955 16.5349C19.7263 15.2903 20.2228 13.8521 20.337 12.3591C20.4513 10.8662 20.1793 9.36897 19.5475 8.01206C18.9157 6.65516 17.9453 5.48441 16.7301 4.61291C15.5149 3.7414 14.096 3.19858 12.6103 3.03688C11.1247 2.87517 9.6225 3.10003 8.24889 3.68976C6.87527 4.27949 5.67664 5.21414 4.76875 6.40346C3.86086 7.59278 3.27439 8.99657 3.06598 10.4793C2.85758 11.9619 3.03428 13.4734 3.57901 14.8677C3.72429 15.2362 3.71753 15.6474 3.56022 16.0108C3.40291 16.3743 3.10794 16.6603 2.7402 16.8058C2.37246 16.9514 1.96207 16.9446 1.59931 16.787C1.23655 16.6294 0.951147 16.3338 0.805874 15.9654C0.0727423 14.0924 -0.165789 12.0617 0.113336 10.0694C0.39246 8.07711 1.1798 6.19066 2.39926 4.59236C3.61872 2.99407 5.22905 1.73799 7.07462 0.945529C8.92019 0.153069 10.9386 -0.148974 12.9347 0.0685944C14.9308 0.286163 16.8372 1.01598 18.4695 2.18752C20.1019 3.35906 21.405 4.93269 22.2529 6.75632C23.1009 8.57995 23.4649 10.5919 23.31 12.5977C23.155 14.6035 22.4863 16.5354 21.3684 18.2066C21.2325 18.41 21.0487 18.5767 20.8333 18.692C20.6178 18.8074 20.3773 18.8678 20.1331 18.8679Z" fill="#F36A4F"/>
<path d="M47.0626 62.8357C46.793 62.8349 46.5286 62.7607 46.2978 62.6212C46.0669 62.4817 45.8781 62.282 45.7516 62.0435L34.4826 40.7979C34.2972 40.4483 34.258 40.0392 34.3736 39.6607C34.4892 39.2822 34.7502 38.9651 35.0991 38.7794C35.448 38.5936 35.8563 38.5544 36.2341 38.6702C36.6119 38.7861 36.9282 39.0475 37.1136 39.3971L47.074 58.1787L56.7754 40.1067C56.8681 39.934 56.9939 39.7814 57.1454 39.6574C57.297 39.5335 57.4715 39.4406 57.6589 39.3842C57.8463 39.3278 58.0429 39.309 58.2376 39.3287C58.4322 39.3484 58.6211 39.4064 58.7934 39.4993C58.9657 39.5922 59.1181 39.7182 59.2418 39.87C59.3655 40.0219 59.4581 40.1967 59.5144 40.3845C59.5707 40.5722 59.5896 40.7692 59.5699 40.9643C59.5502 41.1593 59.4923 41.3486 59.3996 41.5212L48.3781 62.0503C48.2503 62.2883 48.0604 62.487 47.8288 62.6253C47.5971 62.7637 47.3323 62.8364 47.0626 62.8357Z" fill="#F36A4F"/>
<path d="M11.8253 32.9721C11.5739 32.9733 11.3262 32.9108 11.1054 32.7904C10.8846 32.6699 10.6978 32.4954 10.5625 32.2832L4.96346 23.3275C4.85035 23.1617 4.77181 22.9747 4.73254 22.7777C4.69327 22.5807 4.69409 22.3778 4.73494 22.1812C4.77579 21.9845 4.85583 21.7982 4.97027 21.6332C5.08472 21.4683 5.2312 21.3283 5.40096 21.2214C5.57072 21.1146 5.76025 21.0431 5.95821 21.0114C6.15617 20.9797 6.35848 20.9884 6.55302 21.0369C6.74756 21.0854 6.93034 21.1727 7.09039 21.2936C7.25045 21.4146 7.38449 21.5667 7.4845 21.7407L11.7955 28.6297L18.38 17.6625C18.5852 17.3266 18.9146 17.0856 19.2964 16.9919C19.6782 16.8983 20.0814 16.9597 20.4183 17.1627C20.7551 17.3657 20.9983 17.6938 21.0947 18.0756C21.1911 18.4574 21.133 18.8619 20.9331 19.201L13.1018 32.2487C12.9706 32.4674 12.7856 32.6487 12.5645 32.7753C12.3434 32.902 12.0937 32.9697 11.839 32.9721H11.8253Z" fill="#F36A4F"/>
<path d="M16.8696 33.8745H16.7367C15.247 33.7413 15.1897 32.5105 15.1897 32.3704C15.1893 32.3028 15.1939 32.2353 15.2035 32.1683C15.2372 31.7976 15.408 31.4529 15.6823 31.2018C15.9566 30.9507 16.3147 30.8114 16.6863 30.8112C18.2631 30.8112 18.4075 31.9915 18.4189 32.228C18.4348 32.6146 18.3056 32.9931 18.0568 33.2889C17.9173 33.4716 17.7376 33.6195 17.5317 33.721C17.3257 33.8226 17.0992 33.8751 16.8696 33.8745Z" fill="#F36A4F"/>
<path d="M33.3136 64C26.5939 64 21.1095 62.1629 17.917 58.7552C15.8383 56.5392 14.9376 53.802 15.3959 51.0487C15.9001 48.0061 17.5686 44.8992 20.6489 41.2733C21.9392 39.7531 22.5786 38.0263 22.3173 36.7633C22.1408 35.9045 21.5587 35.2431 20.5365 34.7379C20.1822 34.5625 19.9119 34.2533 19.7851 33.8782C19.6583 33.5031 19.6854 33.0929 19.8605 32.7378C20.0355 32.3828 20.3442 32.1119 20.7185 31.9849C21.0929 31.8579 21.5023 31.885 21.8567 32.0604C24.1898 33.2086 24.9827 34.9262 25.2348 36.1594C25.6932 38.3684 24.8452 40.9357 22.9178 43.2068C20.2042 46.4033 18.7466 49.0509 18.3341 51.5355C18.0293 53.3726 18.632 55.1637 20.0805 56.7092C23.2111 60.048 29.5733 61.582 37.1021 60.8104C37.2988 60.7861 37.4984 60.8015 37.6892 60.8555C37.8799 60.9095 38.058 61.0011 38.213 61.125C38.3679 61.2488 38.4967 61.4024 38.5917 61.5767C38.6866 61.7511 38.7459 61.9426 38.766 62.1402C38.7862 62.3378 38.7668 62.5375 38.7089 62.7274C38.6511 62.9174 38.5559 63.0939 38.4291 63.2466C38.3023 63.3992 38.1464 63.525 37.9705 63.6165C37.7945 63.7081 37.6022 63.7635 37.4046 63.7795C36.0455 63.9225 34.6801 63.996 33.3136 64Z" fill="#F36A4F"/>
<path d="M41.7798 63.008C41.38 62.9894 40.9975 62.8391 40.6917 62.5804C40.3859 62.3218 40.1738 61.9692 40.0884 61.5774C40.0747 61.4396 39.9968 60.2317 41.4383 59.908C41.6296 59.8646 41.8276 59.8597 42.0208 59.8936C42.2139 59.9275 42.3985 59.9995 42.5636 60.1054C42.8082 60.2148 43.0191 60.3876 43.1746 60.606C43.3301 60.8244 43.4246 61.0805 43.4483 61.3478C43.4483 61.4878 43.5148 62.7141 42.0503 62.9827C41.9611 62.9994 41.8706 63.0079 41.7798 63.008Z" fill="#F36A4F"/>
<path d="M3.94134 20.7395C3.54153 20.7368 3.15879 20.5768 2.87562 20.294C2.58658 20.0005 2.42229 19.6063 2.41725 19.194C2.42084 18.8622 2.53452 18.541 2.74038 18.2811C2.94624 18.0211 3.23257 17.8372 3.55426 17.7582C3.87595 17.6793 4.21471 17.7098 4.51716 17.8451C4.81961 17.9803 5.06856 18.2125 5.22477 18.5051C5.36575 18.7377 5.44027 19.0046 5.44021 19.2767C5.44021 19.6722 5.28357 20.0515 5.00469 20.3313C4.72581 20.6112 4.34749 20.7687 3.95279 20.7693L3.94134 20.7395Z" fill="#F36A4F"/>
</svg>
