<svg width="40" height="40" viewBox="0 0 40 40" fill="none" xmlns="http://www.w3.org/2000/svg">
<path d="M30.1954 26.2579C28.9003 26.2579 27.6343 25.8791 26.5575 25.1694C25.4806 24.4598 24.6413 23.4511 24.1457 22.271C23.6501 21.0909 23.5204 19.7923 23.7731 18.5395C24.0257 17.2867 24.6494 16.1359 25.5652 15.2327C26.4809 14.3295 27.6477 13.7144 28.9179 13.4652C30.1881 13.216 31.5048 13.3439 32.7013 13.8327C33.8978 14.3215 34.9205 15.1493 35.64 16.2114C36.3595 17.2734 36.7436 18.5221 36.7436 19.7995C36.7401 21.5113 36.0491 23.152 34.8218 24.3625C33.5946 25.5729 31.931 26.2545 30.1954 26.2579ZM30.1954 15.1968C29.2744 15.1968 28.3742 15.4661 27.6084 15.9708C26.8427 16.4754 26.2458 17.1927 25.8934 18.0319C25.541 18.8711 25.4487 19.7945 25.6284 20.6854C25.8081 21.5763 26.2516 22.3946 26.9028 23.0369C27.554 23.6792 28.3837 24.1166 29.287 24.2938C30.1902 24.471 31.1265 24.3801 31.9774 24.0325C32.8282 23.6849 33.5555 23.0962 34.0671 22.341C34.5788 21.5857 34.8519 20.6978 34.8519 19.7894C34.8496 18.5719 34.3583 17.405 33.4856 16.5439C32.6129 15.6829 31.4298 15.198 30.1954 15.1953V15.1968Z" fill="#F36A4F"/>
<path d="M36.8787 26.4417C36.7068 26.4424 36.538 26.3969 36.3903 26.3101C36.2426 26.2233 36.1218 26.0984 36.0407 25.9489C35.9596 25.7994 35.9213 25.6309 35.93 25.4616C35.9387 25.2922 35.994 25.1284 36.09 24.9878C36.5266 24.3463 37.4797 22.5666 37.6907 21.938C38.0592 20.8533 38.1843 19.7026 38.0573 18.5656C37.9303 17.4285 37.5542 16.3323 36.9551 15.3527C36.3561 14.3732 35.5483 13.5338 34.5877 12.8927C33.6272 12.2515 32.5368 11.824 31.3922 11.6396C30.2475 11.4552 29.0759 11.5184 27.9584 11.8248C26.841 12.1312 25.8044 12.6735 24.9205 13.4141C24.0365 14.1548 23.3264 15.076 22.8392 16.1142C22.352 17.1523 22.0994 18.2824 22.0988 19.4264C22.0988 21.13 22.4786 22.7718 23.1174 23.8195C23.241 24.0315 23.2752 24.2829 23.2128 24.5195C23.1503 24.7561 22.9962 24.959 22.7835 25.0847C22.5709 25.2104 22.3167 25.2486 22.0757 25.1913C21.8347 25.134 21.6262 24.9857 21.495 24.7783C20.6772 23.4335 20.2101 21.4773 20.2101 19.4264C20.2131 18.0134 20.5272 16.6179 21.1307 15.3364C21.7341 14.0549 22.6125 12.9179 23.7052 12.004C24.7978 11.0901 26.0786 10.4211 27.4591 10.0433C28.8395 9.66546 30.2867 9.58777 31.7005 9.81561C33.1144 10.0434 34.4613 10.5714 35.648 11.3629C36.8347 12.1544 37.8331 13.1907 38.574 14.4C39.3149 15.6094 39.7807 16.963 39.9392 18.3673C40.0978 19.7716 39.9452 21.1931 39.4922 22.5336C39.2011 23.3718 38.1447 25.3265 37.6645 26.0312C37.5778 26.158 37.4607 26.2618 37.3237 26.3333C37.1866 26.4049 37.0338 26.4421 36.8787 26.4417Z" fill="#F36A4F"/>
<path d="M7.32344 11.4222C6.51299 11.4222 5.72074 11.1852 5.04688 10.7411C4.37302 10.297 3.84781 9.66578 3.53767 8.92729C3.22753 8.18879 3.14638 7.37618 3.30449 6.5922C3.4626 5.80822 3.85286 5.08808 4.42593 4.52287C4.99901 3.95765 5.72914 3.57273 6.52402 3.41679C7.31889 3.26084 8.1428 3.34088 8.89155 3.64677C9.6403 3.95267 10.2803 4.47068 10.7305 5.1353C11.1808 5.79993 11.4211 6.58132 11.4211 7.38066C11.42 8.45219 10.9879 9.47951 10.2197 10.2372C9.45144 10.9949 8.40985 11.421 7.32344 11.4222ZM7.32344 5.20489C6.88713 5.20489 6.46062 5.3325 6.09785 5.57157C5.73507 5.81065 5.45233 6.15046 5.28536 6.54803C5.11839 6.9456 5.07471 7.38307 5.15983 7.80513C5.24494 8.22719 5.45505 8.61487 5.76356 8.91916C6.07207 9.22344 6.46515 9.43067 6.89307 9.51462C7.32099 9.59857 7.76454 9.55548 8.16763 9.3908C8.57073 9.22613 8.91526 8.94725 9.15765 8.58945C9.40005 8.23165 9.52943 7.81098 9.52943 7.38066C9.52866 6.80384 9.296 6.25087 8.88246 5.843C8.46892 5.43513 7.90827 5.20565 7.32344 5.20489Z" fill="#F36A4F"/>
<path d="M12.7829 11.7924C12.6105 11.7932 12.4412 11.7475 12.2933 11.6602C12.1454 11.573 12.0244 11.4475 11.9436 11.2974C11.8627 11.1473 11.8249 10.9782 11.8343 10.8085C11.8438 10.6387 11.9001 10.4748 11.9971 10.3343C12.5246 9.55643 12.8399 8.65755 12.9124 7.72446C12.9849 6.79137 12.8123 5.85561 12.4111 5.00754C12.01 4.15947 11.3938 3.42776 10.6223 2.88307C9.85076 2.33838 8.94984 1.99911 8.00656 1.89805C7.06329 1.79698 6.10952 1.93752 5.23739 2.3061C4.36525 2.67468 3.60422 3.25884 3.02778 4.00216C2.45134 4.74549 2.07898 5.62286 1.94666 6.54953C1.81433 7.47621 1.92652 8.42089 2.27239 9.29232C2.36463 9.52261 2.36033 9.7796 2.26046 10.0068C2.16058 10.2339 1.97329 10.4127 1.73981 10.5036C1.50632 10.5946 1.24576 10.5904 1.01544 10.4919C0.785114 10.3934 0.603903 10.2086 0.511666 9.97835C0.0461856 8.80777 -0.105263 7.53856 0.0719592 6.29338C0.249181 5.0482 0.74908 3.86916 1.52334 2.87023C2.2976 1.87129 3.32003 1.08624 4.49182 0.590956C5.66361 0.0956681 6.94513 -0.0931087 8.21251 0.0428715C9.4799 0.178852 10.6903 0.63499 11.7267 1.3672C12.7631 2.09941 13.5905 3.08293 14.1288 4.2227C14.6672 5.36247 14.8984 6.61994 14.8 7.87358C14.7016 9.12722 14.277 10.3346 13.5672 11.3791C13.4809 11.5062 13.3643 11.6104 13.2275 11.6825C13.0907 11.7546 12.938 11.7924 12.7829 11.7924Z" fill="#F36A4F"/>
<path d="M29.881 39.2723C29.7098 39.2718 29.542 39.2255 29.3954 39.1383C29.2488 39.0511 29.129 38.9263 29.0487 38.7772L21.8937 25.4987C21.776 25.2802 21.7511 25.0245 21.8245 24.7879C21.8979 24.5514 22.0636 24.3532 22.2851 24.2371C22.5067 24.121 22.7659 24.0965 23.0058 24.1689C23.2456 24.2413 23.4465 24.4047 23.5642 24.6232L29.8883 36.3617L36.0479 25.0667C36.1068 24.9588 36.1866 24.8634 36.2828 24.7859C36.3791 24.7084 36.4898 24.6504 36.6088 24.6151C36.7278 24.5799 36.8526 24.5681 36.9762 24.5804C37.0998 24.5928 37.2197 24.629 37.3291 24.6871C37.4385 24.7451 37.5353 24.8238 37.6138 24.9188C37.6924 25.0137 37.7512 25.1229 37.7869 25.2403C37.8227 25.3576 37.8346 25.4808 37.8221 25.6027C37.8096 25.7246 37.7729 25.8429 37.714 25.9508L30.7162 38.7815C30.6351 38.9302 30.5146 39.0544 30.3675 39.1408C30.2204 39.2273 30.0522 39.2727 29.881 39.2723Z" fill="#F36A4F"/>
<path d="M7.5081 20.6075C7.34848 20.6083 7.19125 20.5693 7.05106 20.494C6.91086 20.4187 6.79227 20.3096 6.70632 20.177L3.1514 14.5797C3.07959 14.476 3.02972 14.3592 3.00479 14.2361C2.97986 14.1129 2.98037 13.9861 3.00631 13.8632C3.03225 13.7403 3.08307 13.6239 3.15573 13.5208C3.22839 13.4177 3.3214 13.3302 3.42918 13.2634C3.53696 13.1966 3.6573 13.152 3.78299 13.1321C3.90868 13.1123 4.03713 13.1177 4.16065 13.148C4.28417 13.1783 4.40021 13.2329 4.50184 13.3085C4.60346 13.3841 4.68857 13.4792 4.75206 13.588L7.48919 17.8936L11.6698 11.039C11.8001 10.8291 12.0093 10.6785 12.2517 10.62C12.4941 10.5615 12.7501 10.5998 12.964 10.7267C13.1779 10.8535 13.3322 11.0586 13.3934 11.2973C13.4547 11.5359 13.4178 11.7887 13.2908 12.0006L8.31862 20.1555C8.2353 20.2921 8.11784 20.4054 7.97748 20.4846C7.83711 20.5637 7.67851 20.6061 7.51684 20.6075H7.5081Z" fill="#F36A4F"/>
<path d="M10.7109 21.1716H10.6265C9.68063 21.0883 9.64425 20.3191 9.64425 20.2315C9.64402 20.1893 9.64694 20.147 9.65298 20.1052C9.6744 19.8735 9.78284 19.658 9.95702 19.5011C10.1312 19.3442 10.3586 19.2571 10.5945 19.257C11.5956 19.257 11.6873 19.9947 11.6946 20.1425C11.7046 20.3841 11.6226 20.6207 11.4646 20.8056C11.3761 20.9197 11.262 21.0122 11.1312 21.0757C11.0005 21.1391 10.8566 21.172 10.7109 21.1716Z" fill="#F36A4F"/>
<path d="M21.1515 40C16.885 40 13.4029 38.8518 11.3759 36.722C10.056 35.337 9.48416 33.6263 9.77519 31.9055C10.0953 30.0038 11.1547 28.062 13.1104 25.7958C13.9296 24.8457 14.3356 23.7664 14.1697 22.9771C14.0577 22.4403 13.6881 22.027 13.0391 21.7112C12.8141 21.6016 12.6425 21.4083 12.562 21.1739C12.4814 20.9394 12.4987 20.6831 12.6098 20.4611C12.721 20.2392 12.9169 20.07 13.1546 19.9906C13.3923 19.9112 13.6522 19.9281 13.8772 20.0378C15.3586 20.7554 15.8621 21.8289 16.0221 22.5996C16.3132 23.9803 15.7747 25.5848 14.551 27.0042C12.8281 29.002 11.9026 30.6568 11.6407 32.2097C11.4472 33.3579 11.8299 34.4773 12.7495 35.4432C14.7372 37.53 18.7767 38.4887 23.5569 38.0065C23.6818 37.9913 23.8085 38.0009 23.9296 38.0347C24.0507 38.0684 24.1638 38.1257 24.2622 38.2031C24.3606 38.2805 24.4423 38.3765 24.5026 38.4855C24.5629 38.5944 24.6006 38.7142 24.6134 38.8377C24.6261 38.9611 24.6138 39.0859 24.5771 39.2046C24.5403 39.3234 24.48 39.4337 24.3995 39.5291C24.319 39.6245 24.2199 39.7031 24.1082 39.7603C23.9965 39.8175 23.8744 39.8522 23.7489 39.8622C22.8861 39.9515 22.0191 39.9975 21.1515 40Z" fill="#F36A4F"/>
<path d="M26.5269 39.38C26.273 39.3684 26.0302 39.2745 25.836 39.1128C25.6418 38.9511 25.5072 38.7307 25.453 38.4859C25.4443 38.3998 25.3948 37.6448 26.3101 37.4425C26.4315 37.4154 26.5572 37.4123 26.6799 37.4335C26.8025 37.4547 26.9197 37.4997 27.0245 37.5659C27.1798 37.6343 27.3137 37.7423 27.4125 37.8788C27.5112 38.0153 27.5712 38.1753 27.5862 38.3424C27.5862 38.4299 27.6284 39.1963 26.6986 39.3642C26.642 39.3746 26.5845 39.3799 26.5269 39.38Z" fill="#F36A4F"/>
<path d="M2.50244 12.9622C2.24859 12.9605 2.00558 12.8605 1.82579 12.6837C1.64228 12.5003 1.53796 12.2539 1.53476 11.9963C1.53704 11.7889 1.60922 11.5881 1.73992 11.4257C1.87063 11.2632 2.05243 11.1482 2.25667 11.0989C2.46092 11.0496 2.67601 11.0687 2.86804 11.1532C3.06007 11.2377 3.21813 11.3828 3.31732 11.5657C3.40682 11.7111 3.45414 11.8779 3.4541 12.0479C3.4541 12.2951 3.35465 12.5322 3.17758 12.7071C3.00052 12.882 2.76031 12.9804 2.50971 12.9808L2.50244 12.9622Z" fill="#F36A4F"/>
</svg>
