<svg width="11" height="16" viewBox="0 0 11 16" fill="none" xmlns="http://www.w3.org/2000/svg">
<path d="M5.55024 8.96147C4.83037 8.96147 4.12667 8.75661 3.52812 8.37281C2.92957 7.98901 2.46306 7.4435 2.18758 6.80526C1.9121 6.16702 1.84002 5.46472 1.98046 4.78717C2.1209 4.10962 2.46755 3.48725 2.97657 2.99876C3.48559 2.51027 4.13413 2.17761 4.84016 2.04283C5.5462 1.90806 6.27802 1.97723 6.94309 2.2416C7.60816 2.50597 8.17661 2.95366 8.57654 3.52806C8.97648 4.10246 9.18995 4.77777 9.18995 5.46859C9.18802 6.39439 8.80394 7.28175 8.12177 7.93639C7.43961 8.59103 6.51496 8.95962 5.55024 8.96147ZM5.55024 2.97934C5.03833 2.97934 4.53792 3.12501 4.11229 3.39794C3.68665 3.67086 3.35491 4.05878 3.15902 4.51264C2.96312 4.9665 2.91186 5.46592 3.01173 5.94773C3.1116 6.42954 3.3581 6.87212 3.72008 7.21949C4.08205 7.56686 4.54323 7.80342 5.0453 7.89925C5.54737 7.99509 6.06777 7.94591 6.54071 7.75791C7.01365 7.56992 7.41788 7.25156 7.70228 6.8431C7.98668 6.43463 8.13847 5.95441 8.13847 5.46316C8.13719 4.80472 7.86412 4.17358 7.37903 3.70792C6.89394 3.24225 6.23636 2.98077 5.55024 2.97934Z" fill="#F9B5A7"/>
<path d="M9.26508 9.06085C9.16953 9.06125 9.07567 9.03665 8.9936 8.98969C8.91152 8.94274 8.84434 8.8752 8.79926 8.79435C8.75418 8.7135 8.73291 8.62239 8.73775 8.5308C8.74258 8.43922 8.77334 8.35064 8.8267 8.27457C9.06935 7.92761 9.59913 6.96513 9.71641 6.62516C9.92124 6.03855 9.99076 5.41622 9.92017 4.80127C9.84957 4.18632 9.64054 3.59344 9.30755 3.06369C8.97456 2.53393 8.52556 2.07997 7.99165 1.73322C7.45775 1.38647 6.85168 1.15523 6.21543 1.05551C5.57918 0.955791 4.92795 0.989971 4.30683 1.15569C3.6857 1.3214 3.10953 1.61469 2.61822 2.01524C2.1269 2.4158 1.73217 2.91405 1.46136 3.47549C1.19056 4.03693 1.05015 4.64815 1.04986 5.26682C1.04986 6.18816 1.26096 7.07613 1.61603 7.64275C1.6847 7.75739 1.70372 7.89332 1.66901 8.02129C1.6343 8.14925 1.54863 8.25902 1.43042 8.32698C1.31222 8.39494 1.17095 8.41565 1.037 8.38465C0.903045 8.35366 0.787128 8.27343 0.714191 8.16125C0.259632 7.43395 0 6.376 0 5.26682C0.00170487 4.50264 0.176302 3.74793 0.511723 3.05486C0.847144 2.36178 1.33539 1.74686 1.94271 1.25261C2.55004 0.758355 3.26196 0.396553 4.02926 0.192207C4.79657 -0.0121382 5.60096 -0.0541524 6.38685 0.0690683C7.17273 0.192289 7.92136 0.477806 8.58099 0.905885C9.24063 1.33396 9.79554 1.89439 10.2074 2.54844C10.6192 3.20249 10.8781 3.93456 10.9662 4.69404C11.0543 5.45353 10.9696 6.22232 10.7177 6.94728C10.556 7.40058 9.96876 8.45775 9.70185 8.83886C9.65364 8.90744 9.58857 8.96356 9.51239 9.00228C9.43622 9.04099 9.35128 9.06111 9.26508 9.06085Z" fill="#F9B5A7"/>
<path d="M5.37547 16C5.28032 15.9997 5.18704 15.9747 5.10556 15.9275C5.02408 15.8803 4.95747 15.8128 4.91282 15.7322L0.935837 8.55087C0.870411 8.4327 0.856576 8.29444 0.897379 8.16648C0.938182 8.03853 1.03028 7.93138 1.15341 7.86859C1.27654 7.8058 1.42062 7.79253 1.55395 7.83168C1.68728 7.87084 1.79894 7.95922 1.86437 8.07739L5.37952 14.4259L8.80327 8.31723C8.83598 8.25887 8.88035 8.20728 8.93385 8.16538C8.98734 8.12348 9.04892 8.0921 9.11505 8.07303C9.18118 8.05397 9.25057 8.04759 9.31927 8.05427C9.38797 8.06094 9.45463 8.08053 9.51544 8.11193C9.57625 8.14332 9.63002 8.1859 9.67368 8.23724C9.71734 8.28858 9.75003 8.34766 9.7699 8.41113C9.78977 8.47459 9.79641 8.54119 9.78946 8.60711C9.7825 8.67304 9.76209 8.73701 9.72937 8.79537L5.83974 15.7345C5.79464 15.815 5.72763 15.8821 5.64587 15.9289C5.5641 15.9756 5.47065 16.0002 5.37547 16Z" fill="#F9B5A7"/>
</svg>
