<svg width="80" height="80" viewBox="0 0 80 80" fill="none" xmlns="http://www.w3.org/2000/svg">
<path d="M63.4177 33.4521L63.9931 32.2053C64.1302 31.912 67.3361 24.9516 68.6765 21.3167L69.1971 19.9049L67.7471 19.5129C63.1803 18.2753 58.7618 19.3113 54.9804 22.4924C53.2589 23.9498 51.8025 25.6962 50.6762 27.6537L50.03 28.8661L52.4458 30.1633L53.092 28.9532C53.2907 28.5865 57.6155 20.7574 65.5253 21.8484C64.016 25.5795 61.5362 30.986 61.5042 31.0502L60.9288 32.297L63.4177 33.4521Z" fill="#F36A4F"/>
<path d="M57.4625 66.753L58.7641 66.3565C71.1677 62.5703 79.3721 50.3134 79.7146 49.8046L80 49.3875L78.6962 37.974L77.1526 38.4003C73.9558 39.285 70.759 39.317 70.4027 38.728C69.172 36.6929 66.3793 32.7806 63.7237 31.0411L62.582 30.2894L61.0841 32.5812L62.2258 33.333C64.3106 34.7081 66.8589 38.1459 68.0599 40.1444C69.4528 42.45 73.732 41.9642 76.3305 41.4187L77.1594 48.677C75.6569 50.7833 68.2221 60.5947 57.9786 63.7163L56.6679 64.1173L57.4625 66.753Z" fill="#F36A4F"/>
<path d="M50.1921 79.379H50.2697L57.394 78.9664C57.7187 78.9475 58.026 78.8133 58.2611 78.5878C58.4962 78.3624 58.6437 78.0603 58.6773 77.7357L59.9241 65.6782C59.9616 65.3153 59.854 64.9523 59.6249 64.669C59.3958 64.3858 59.064 64.2055 58.7024 64.1678C58.3409 64.1301 57.9793 64.2381 57.6971 64.4681C57.4149 64.698 57.2352 65.0311 57.1977 65.394L56.0719 76.2872L51.0849 76.5737L48.2603 69.5629C48.1926 69.3955 48.0926 69.2432 47.9662 69.1147C47.8398 68.9861 47.6894 68.8838 47.5236 68.8135C47.3577 68.7433 47.1798 68.7065 46.9998 68.7053C46.8198 68.7041 46.6414 68.7385 46.4747 68.8065C46.308 68.8746 46.1562 68.9749 46.0281 69.1018C45.9 69.2287 45.7981 69.3796 45.7281 69.546C45.6581 69.7125 45.6215 69.8911 45.6203 70.0717C45.6191 70.2524 45.6534 70.4315 45.7212 70.5988L48.918 78.5218C49.0209 78.7759 49.1973 78.9934 49.4243 79.1461C49.6514 79.2989 49.9188 79.38 50.1921 79.379Z" fill="#F36A4F"/>
<path d="M18.0208 80L21.7885 67.9264L19.174 67.106L16.0616 77.0802L11.6067 76.718L8.51948 59.717L5.82275 60.2097L9.28671 79.2895L18.0208 80Z" fill="#F36A4F"/>
<path d="M33.3495 73.718C39.0099 73.7401 44.6094 72.546 49.7719 70.216L51.0164 69.6431L49.8747 67.1426L48.6279 67.7156C39.681 71.6958 29.5446 72.0368 20.3522 68.6667L19.0689 68.1854L18.119 70.7615L19.4023 71.2428C23.8664 72.8985 28.5904 73.7369 33.3495 73.718Z" fill="#F36A4F"/>
<path d="M6.04881 61.413L8.1039 59.5795L7.19053 58.5528C4.45041 55.4496 2.73098 50.8635 2.73098 46.5846C2.73098 37.0115 9.82789 28.2818 20.8112 24.3535L22.1013 23.8951L21.188 21.3053L19.8978 21.7637C7.80934 26.0976 0 35.8449 0 46.5938C0 51.5167 1.97517 56.8018 5.15142 60.3885L6.04881 61.413Z" fill="#F36A4F"/>
<path d="M52.8272 27.5392C53.1256 27.5394 53.4159 27.4419 53.6541 27.2614C53.8922 27.0809 54.0651 26.8273 54.1465 26.5391C54.2279 26.251 54.2134 25.944 54.1051 25.6649C53.9967 25.3858 53.8006 25.1499 53.5465 24.9929C51.2945 23.6061 48.8968 22.4731 46.397 21.6147C46.2242 21.5452 46.039 21.5118 45.8528 21.5165C45.6666 21.5212 45.4834 21.564 45.3142 21.6423C45.1451 21.7205 44.9936 21.8325 44.869 21.9715C44.7445 22.1104 44.6494 22.2734 44.5897 22.4505C44.5301 22.6275 44.507 22.815 44.5219 23.0013C44.5368 23.1876 44.5894 23.3689 44.6765 23.5342C44.7636 23.6994 44.8833 23.8451 45.0284 23.9623C45.1734 24.0795 45.3408 24.1658 45.5202 24.216C47.8259 25.0084 50.0374 26.0537 52.1147 27.3329C52.3288 27.4661 52.5753 27.5374 52.8272 27.5392Z" fill="#F36A4F"/>
<path d="M19.9732 24.0509L22.3845 22.7492L21.7337 21.5391C20.7242 19.654 20.2096 17.542 20.2382 15.4022C20.2668 13.2623 20.8377 11.1649 21.8972 9.30775C22.9567 7.45057 24.4699 5.89471 26.2941 4.78678C28.1183 3.67884 30.1936 3.05531 32.3243 2.97493L33.6943 2.92451L33.5938 0.174268L32.2238 0.22469C29.6278 0.32206 27.0992 1.08132 24.8764 2.43092C22.6536 3.78051 20.8099 5.67598 19.5189 7.93867C18.2279 10.2014 17.5322 12.7567 17.4975 15.3639C17.4627 17.9711 18.0899 20.5443 19.3201 22.8408L19.9732 24.0509Z" fill="#F36A4F"/>
<path d="M46.0431 23.7003L46.4199 22.5681L47.0775 21.5757L44.7986 20.0516L43.9355 21.3511L43.4446 22.8294L46.0431 23.7003Z" fill="#F36A4F"/>
<path d="M47.3218 20.3313L47.7351 18.8347L47.9429 17.4756L45.2348 17.0585L45.0384 18.3328L44.6845 19.575L47.3218 20.3313ZM48.0799 16.4786V15.0004L47.8721 13.5428L45.1594 13.9324L45.3398 15.1975V16.4786H48.0799ZM45.2097 13.3044L47.8447 12.5481L47.4588 11.1959L47.0569 9.88264L44.4379 10.6917L44.8352 11.9912L45.2097 13.3044ZM44.3465 10.2677L46.6299 8.74129L45.9152 7.66641L45.3398 6.52047L42.8897 7.75121L43.5907 9.12633L44.3465 10.2677ZM42.5335 7.51744L44.4744 5.57622L42.5335 3.62814L40.5948 5.57393L42.5335 7.51744ZM40.2112 5.33099L41.595 2.95662L39.2248 1.56775L37.8547 3.94441L40.2112 5.33099ZM37.4026 3.79315L38.1561 1.14833L36.7861 0.756424L35.4571 0.421812L34.7881 3.08038L36.0965 3.40812L37.4026 3.79315Z" fill="#F36A4F"/>
<path d="M43.7323 26.6018L44.5863 25.5269C45.3693 24.5734 46.0433 23.5348 46.5957 22.4306L47.1688 21.1815L44.6799 20.0356L44.1068 21.2846C43.6451 22.1828 43.0877 23.0281 42.4444 23.8057L41.5904 24.8806L43.7323 26.6018Z" fill="#F36A4F"/>
<path d="M22.1972 26.6453L24.2706 24.8462L23.3755 23.8056C23.0549 23.4335 22.7567 23.0424 22.4827 22.6345L21.7177 21.4886L19.4343 23.0241L20.1992 24.17C20.5342 24.6697 20.8987 25.1488 21.2907 25.6048L22.1972 26.6453Z" fill="#F36A4F"/>
<path d="M33.9763 23.5421C31.7819 23.5421 29.6537 22.3045 28.6422 20.4251L27.9914 19.215L30.4027 17.9087L31.0535 19.1188C31.5946 20.1226 32.8597 20.8239 34.063 20.7918C34.4443 20.801 34.8201 20.6986 35.1444 20.4972C35.4688 20.2957 35.7278 20.0039 35.8898 19.6574C36.014 19.4292 36.0864 19.1763 36.1018 18.9168C36.1172 18.6573 36.0752 18.3975 35.9788 18.1562C35.5907 17.2096 34.3804 16.396 33.4168 16.0431C31.3617 15.2845 29.8775 13.9346 29.4596 12.4311C29.2313 11.5969 29.1902 10.302 30.3342 8.86495C30.7402 8.33528 31.2502 7.89496 31.8327 7.57129C32.4152 7.24762 33.0578 7.0475 33.7205 6.98333C34.6111 6.91686 35.9629 7.11167 37.3489 8.40658L38.3513 9.34395L36.4835 11.3562L35.481 10.4188C34.949 9.9215 34.4261 9.69002 33.9192 9.73128C33.6334 9.76985 33.3582 9.86558 33.1099 10.0128C32.8616 10.16 32.6453 10.3558 32.4738 10.5884C31.9646 11.2256 32.065 11.5808 32.097 11.6977C32.2683 12.3119 33.1976 13.0407 34.3599 13.4693C35.8738 14.0262 37.7576 15.2799 38.5112 17.1203C38.752 17.7145 38.8637 18.3535 38.8389 18.9945C38.8141 19.6356 38.6533 20.264 38.3673 20.8377C37.5841 22.5084 36.0382 23.4962 34.1293 23.5512L33.9763 23.5421Z" fill="#F36A4F"/>
<path d="M32.3824 25.6048L32.3641 24.2297C32.3641 24.2297 32.3641 23.6361 32.3436 22.355L32.3299 20.9798L35.07 20.9523L35.0837 22.3274C35.0974 23.604 35.1043 24.1953 35.1043 24.1953L35.1226 25.5704L32.3824 25.6048Z" fill="#F36A4F"/>
<path d="M34.8972 4.48379L32.1571 4.51129L32.2075 9.57632L34.9477 9.54882L34.8972 4.48379Z" fill="#F36A4F"/>
<path d="M59.7711 43.376C60.2801 43.376 60.7776 43.2245 61.2008 42.9407C61.624 42.6568 61.9538 42.2534 62.1486 41.7815C62.3434 41.3095 62.3944 40.7902 62.2951 40.2891C62.1958 39.7881 61.9507 39.3278 61.5908 38.9666C61.2309 38.6054 60.7723 38.3594 60.2731 38.2597C59.7739 38.1601 59.2565 38.2112 58.7863 38.4067C58.316 38.6022 57.9141 38.9333 57.6314 39.358C57.3486 39.7828 57.1977 40.2822 57.1977 40.793C57.1983 41.4779 57.4696 42.1345 57.9521 42.6188C58.4346 43.103 59.0888 43.3754 59.7711 43.376ZM59.7711 40.6257C59.8041 40.6257 59.8363 40.6355 59.8637 40.6539C59.8911 40.6723 59.9125 40.6984 59.9251 40.729C59.9377 40.7596 59.941 40.7932 59.9346 40.8257C59.9281 40.8581 59.9123 40.8879 59.889 40.9113C59.8656 40.9347 59.8359 40.9507 59.8036 40.9571C59.7713 40.9636 59.7378 40.9603 59.7073 40.9476C59.6768 40.9349 59.6508 40.9135 59.6325 40.886C59.6142 40.8585 59.6044 40.8261 59.6044 40.793C59.6044 40.7486 59.622 40.7061 59.6532 40.6747C59.6845 40.6433 59.7269 40.6257 59.7711 40.6257Z" fill="#F36A4F"/>
<path d="M26.2275 24.4519L27.8761 22.254L26.7824 21.4267C25.563 20.5099 24.2044 17.9889 24.2044 15.8322C24.205 15.1369 24.2901 14.4442 24.4578 13.7695L24.7889 12.4357L22.131 11.7687L21.7976 13.1026C21.5738 14.0021 21.461 14.9258 21.462 15.8529C21.462 18.995 23.3275 22.2815 25.1314 23.6452L26.2275 24.4519Z" fill="#F36A4F"/>
<path d="M25.547 11.2623L26.4832 10.2585L26.6202 10.1141L27.5838 9.13544L25.6338 7.2034L24.6702 8.18203L24.4784 8.38142L23.5422 9.38526L25.547 11.2623Z" fill="#F36A4F"/>
<path d="M10.7869 57.0722L12.9014 55.3235L12.0291 54.2624C9.90781 51.6818 8.78893 48.6427 8.78893 45.4754C8.78893 41.9872 10.1224 38.7052 12.6456 35.9802L13.5796 34.974L11.5724 33.1016L10.6408 34.1077C7.67233 37.3026 6.05109 41.3408 6.05109 45.4754C6.05109 49.2913 7.38918 52.9331 9.91922 56.018L10.7869 57.0722Z" fill="#F36A4F"/>
<path d="M15.921 29.3628L17.537 31.5838L15.2006 33.2964L13.5845 31.0753L15.921 29.3628Z" fill="#F36A4F"/>
<path d="M44.552 31.7012L46.1687 29.4804L45.0612 28.6691C41.4762 26.0426 36.6514 24.4726 32.7627 24.6675C29.6138 24.8256 25.1086 25.7332 21.9072 27.8004L20.7655 28.5453L22.2292 30.8578L23.3709 30.1129C26.111 28.3367 30.0842 27.5552 32.8791 27.4154C36.1239 27.2504 40.3642 28.6484 43.424 30.8922L44.552 31.7012Z" fill="#F36A4F"/>
<path d="M30.55 57.3724C30.8465 57.3715 31.1347 57.274 31.3713 57.0947C31.6079 56.9154 31.7802 56.664 31.8623 56.378C31.9444 56.0921 31.9318 55.7871 31.8266 55.509C31.7213 55.2308 31.529 54.9944 31.2784 54.8353C26.618 51.904 21.8205 48.3057 21.5761 43.8343C21.4368 41.2926 23.565 38.7303 25.9512 38.563C26.5148 38.4966 27.086 38.5545 27.6249 38.7326C28.7415 39.207 29.7029 40.0069 29.8148 40.4011C29.8605 40.5789 29.9413 40.7458 30.0524 40.8917C30.1635 41.0377 30.3026 41.1599 30.4614 41.251C30.6203 41.3422 30.7958 41.4004 30.9775 41.4224C31.1592 41.4443 31.3434 41.4295 31.5193 41.3789C31.6952 41.3282 31.8592 41.2426 32.0016 41.1273C32.144 41.012 32.262 40.8691 32.3485 40.7073C32.435 40.5454 32.4884 40.3678 32.5054 40.1849C32.5224 40.0021 32.5027 39.8176 32.4475 39.6425C31.8767 37.644 29.2211 36.4339 28.6936 36.2047C27.7602 35.8458 26.7561 35.7116 25.7617 35.8128C21.9209 36.0832 18.6237 39.9748 18.8406 43.9787C19.1534 49.7084 24.5674 53.8544 29.8239 57.1592C30.0412 57.2973 30.2928 57.3711 30.55 57.3724Z" fill="#F36A4F"/>
<path d="M31.2145 57.3723C31.4715 57.3718 31.7231 57.2987 31.9406 57.1615C36.0805 54.5579 43.0084 50.1988 43.3578 43.9809C43.5861 39.9771 40.2774 36.0832 36.4367 35.815C35.4415 35.7102 34.4357 35.8413 33.5002 36.1978C32.975 36.4269 30.3171 37.6416 29.7463 39.6356C29.6814 39.8128 29.6535 40.0015 29.6645 40.19C29.6754 40.3785 29.725 40.5627 29.81 40.7312C29.8949 40.8996 30.0136 41.0487 30.1585 41.1691C30.3034 41.2896 30.4715 41.3787 30.6522 41.4311C30.8329 41.4835 31.0225 41.4979 31.209 41.4735C31.3956 41.4492 31.5752 41.3865 31.7365 41.2894C31.8979 41.1924 32.0376 41.063 32.147 40.9094C32.2563 40.7557 32.333 40.5811 32.3722 40.3965C32.4864 40 33.4454 39.2024 34.562 38.728C35.101 38.5498 35.6722 38.492 36.2358 38.5584C38.6242 38.7257 40.7501 41.288 40.6108 43.8297C40.3482 48.6266 34.1738 52.509 30.4838 54.8307C30.2322 54.9894 30.0389 55.2258 29.9329 55.5045C29.8269 55.7831 29.8141 56.0888 29.8963 56.3754C29.9785 56.662 30.1513 56.914 30.3887 57.0934C30.626 57.2728 30.9151 57.3699 31.2122 57.37L31.2145 57.3723Z" fill="#F36A4F"/>
<path d="M53.3615 8.36991C54.1862 8.36991 54.9923 8.12446 55.678 7.66462C56.3637 7.20477 56.8981 6.55117 57.2137 5.78647C57.5292 5.02177 57.6118 4.18031 57.4509 3.36851C57.29 2.55671 56.8929 1.81102 56.3098 1.22575C55.7267 0.640471 54.9837 0.241892 54.1749 0.0804148C53.3661 -0.0810626 52.5278 0.0018127 51.7659 0.318562C51.004 0.635311 50.3528 1.17171 49.8946 1.85992C49.4365 2.54813 49.192 3.35725 49.192 4.18496C49.1932 5.2945 49.6328 6.35826 50.4145 7.14282C51.1962 7.92739 52.256 8.3687 53.3615 8.36991ZM53.3615 2.75024C53.6442 2.75024 53.9206 2.83439 54.1556 2.99204C54.3907 3.14969 54.5739 3.37376 54.6821 3.63592C54.7903 3.89807 54.8186 4.18655 54.7635 4.46485C54.7083 4.74316 54.5722 4.9988 54.3723 5.19945C54.1723 5.4001 53.9176 5.53674 53.6404 5.5921C53.3631 5.64746 53.0757 5.61905 52.8145 5.51046C52.5533 5.40187 52.33 5.21798 52.173 4.98204C52.0159 4.7461 51.9321 4.46871 51.9321 4.18496C51.9327 3.80463 52.0835 3.44006 52.3514 3.17113C52.6194 2.9022 52.9826 2.75085 53.3615 2.75024Z" fill="#F36A4F"/>
<path d="M66.2971 5.20496H69.0372V8.42274H66.2971V5.20496Z" fill="#F36A4F"/>
<path d="M66.2971 10.1233H69.0372V13.3411H66.2971V10.1233Z" fill="#F36A4F"/>
<path d="M68.6308 7.78099H71.8367V10.5312H68.6308V7.78099Z" fill="#F36A4F"/>
<path d="M63.4976 7.78099H66.7036V10.5312H63.4976V7.78099Z" fill="#F36A4F"/>
<path d="M31.6598 42.9337C31.9837 42.9339 32.2972 42.8189 32.5447 42.6091C32.7922 42.3993 32.9576 42.1083 33.0116 41.7877C33.1874 40.6922 32.765 39.725 31.8699 39.2277C31.5753 39.0483 31.2243 38.9868 30.8867 39.0555C30.549 39.1243 30.2496 39.3181 30.048 39.5985C29.8464 39.8789 29.7574 40.2253 29.7988 40.5685C29.8402 40.9118 30.009 41.2268 30.2714 41.4508C30.2553 41.641 30.2787 41.8324 30.3403 42.013C30.4019 42.1936 30.5002 42.3593 30.6291 42.4997C30.758 42.64 30.9145 42.7519 31.0888 42.8282C31.2631 42.9045 31.4514 42.9435 31.6415 42.9428L31.6598 42.9337Z" fill="#F36A4F"/>
</svg>
