<svg width="40" height="40" viewBox="0 0 40 40" fill="none" xmlns="http://www.w3.org/2000/svg">
<path d="M35.9658 12.9991C35.6712 12.9991 35.5329 12.8684 35.3385 12.6177C35.0028 12.1875 34.6021 11.8739 35 11.5C36.3883 10.1914 38.1789 8.7922 38.1789 7.01397C38.1789 5.48044 37.4057 4.27824 35.9825 4.27824C33.7042 4.27824 32 6.45923 32 6.45923C32 6.45923 29.7612 4.05331 28.1101 4.05331C26.5047 4.05331 25.6055 5.45461 25.8227 7.169C26.0721 9.13743 28 10.5 29 11.5C29.3585 11.9103 28.9789 12.0933 28.6296 12.5097C28.4624 12.7112 28.222 12.838 27.9614 12.8622C27.7008 12.8864 27.4412 12.8061 27.2398 12.6389C25.4703 11.1692 24 9.31199 24 7.01549C24 4.36184 25.5326 1.99999 28.0038 1.99999C29.7627 1.99999 32 4.02595 32 4.02595C32 4.02595 33.8622 2.19149 36.2681 2.19149C38.6254 2.19149 40 4.3284 40 6.86351C40 9.25575 38.1135 11.1404 36.42 12.7909C36.3669 12.86 36.2978 12.9151 36.2187 12.9514C36.1395 12.9877 36.0527 13.0041 35.9658 12.9991Z" fill="#F36A4F"/>
<path d="M32.0513 16.9984C31.9002 16.9985 31.7507 16.9679 31.6127 16.9087C31.4747 16.8495 31.3513 16.763 31.2506 16.6549L26.2727 11.7823C26.1788 11.6815 26.1066 11.5639 26.0601 11.4363C26.0136 11.3087 25.9937 11.1736 26.0017 11.0386C26.0097 10.9037 26.0453 10.7716 26.1065 10.6498C26.1678 10.5281 26.2534 10.4191 26.3585 10.3291C26.4637 10.2391 26.5863 10.1698 26.7194 10.1252C26.8525 10.0806 26.9934 10.0616 27.1342 10.0693C27.2749 10.0769 27.4127 10.111 27.5397 10.1698C27.6666 10.2285 27.7803 10.3106 27.8742 10.4114L32.0431 14.4181L37 9.49997C37.3913 9.07255 38.0559 8.61846 38.5 8.99997C38.7136 9.18014 38.9817 9.22779 39 9.49999C39.0183 9.7722 38.8234 10.2065 38.6357 10.4114L32.8587 16.6501C32.7584 16.7596 32.635 16.8474 32.4967 16.9077C32.3584 16.968 32.2082 16.9995 32.0563 17L32.0513 16.9984Z" fill="#F36A4F"/>
<path d="M19.9751 40C19.6865 40 19.4096 39.885 19.205 39.68C19.0003 39.4751 18.8844 39.1969 18.8826 38.9062L18.6557 1.55782C18.6549 1.41328 18.6822 1.26999 18.7363 1.13611C18.7904 1.00224 18.8701 0.880404 18.9709 0.777572C19.0718 0.67474 19.1917 0.592922 19.3239 0.53679C19.4561 0.480658 19.598 0.451311 19.7414 0.450424C19.8849 0.449532 20.0271 0.477117 20.16 0.531606C20.2929 0.586095 20.4138 0.666419 20.5159 0.767993C20.618 0.869567 20.6992 0.990401 20.7549 1.1236C20.8106 1.25679 20.8397 1.39974 20.8406 1.54427L21.0641 38.8926C21.065 39.0372 21.0376 39.1805 20.9836 39.3143C20.9295 39.4482 20.8497 39.57 20.7489 39.6729C20.6481 39.7757 20.5282 39.8575 20.396 39.9136C20.2638 39.9698 20.1219 39.9991 19.9784 40H19.9751Z" fill="#F36A4F"/>
<path d="M19.3079 2.20295L20.4003 2.23851L22.5003 2.5C22.5003 2.5 23.2003 2.6 23.5003 2C23.8003 1.4 23.6641 0.967865 23.0003 0.5C22.3365 0.0321348 20.4726 0.0372675 20.4726 0.0372675L19.3801 0.00170898L19.3079 2.20295Z" fill="#F36A4F"/>
<path d="M1.15966 22.71C0.886127 22.7097 0.622649 22.6061 0.421308 22.4195C0.219967 22.233 0.0954142 21.9771 0.0722689 21.7025C0.0235294 21.1336 0 20.5562 0 19.9805C0.000633288 14.7439 2.04399 9.71732 5.68946 5.98467C9.33492 2.25202 14.2904 0.112356 19.4874 0.0270567C19.6309 0.0247219 19.7734 0.0508784 19.9068 0.104033C20.0402 0.157187 20.162 0.236298 20.265 0.33685C20.3681 0.437401 20.4505 0.557423 20.5076 0.690063C20.5646 0.822703 20.5952 0.965364 20.5975 1.1099C20.5998 1.25444 20.5738 1.39802 20.5211 1.53244C20.4683 1.66687 20.3898 1.78951 20.29 1.89336C20.1902 1.99722 20.0711 2.08025 19.9394 2.13772C19.8078 2.19519 19.6662 2.22597 19.5227 2.2283C9.96303 2.38239 2.18487 10.3475 2.18487 19.9805C2.18487 20.4885 2.20672 21.0049 2.24874 21.5044C2.27202 21.7944 2.18043 22.0818 1.99399 22.3039C1.80755 22.526 1.54143 22.6647 1.25378 22.6897L1.15966 22.71Z" fill="#F36A4F"/>
<path d="M1.46707 25.8596C1.22273 25.8595 0.985469 25.7769 0.79322 25.6249C0.600972 25.473 0.464834 25.2605 0.406567 25.0214C0.334049 24.7334 0.368726 24.4286 0.504046 24.1646C0.57634 23.9339 0.722088 23.7336 0.918742 23.5947C1.1154 23.4558 1.352 23.3861 1.59194 23.3963C1.83189 23.4065 2.0618 23.4961 2.24612 23.6512C2.43044 23.8063 2.5589 24.0183 2.61161 24.2544C2.67477 24.5347 2.63787 24.8284 2.50741 25.0841C2.43815 25.3088 2.29932 25.5054 2.11122 25.6449C1.92312 25.7844 1.69562 25.8597 1.46203 25.8596H1.46707Z" fill="#F36A4F"/>
<path d="M19.8102 39.9425C16.0105 39.936 12.2924 38.8319 9.09671 36.7611C5.90099 34.6902 3.36171 31.7396 1.77994 28.2589C1.72035 28.1274 1.68706 27.9853 1.68196 27.8408C1.67686 27.6964 1.70006 27.5523 1.75024 27.4168C1.80041 27.2814 1.87658 27.1572 1.97439 27.0514C2.07219 26.9456 2.18973 26.8602 2.32028 26.8002C2.45083 26.7401 2.59184 26.7066 2.73525 26.7015C2.87867 26.6963 3.02168 26.7197 3.15613 26.7703C3.29058 26.8208 3.41384 26.8975 3.51885 26.9961C3.62386 27.0946 3.70859 27.213 3.76818 27.3446C5.43788 31.0345 8.31069 34.0377 11.9091 35.8549C15.5075 37.6721 19.6149 38.1939 23.5484 37.3335C27.482 36.4732 31.0048 34.2826 33.5314 31.1257C36.0581 27.9688 37.4363 24.0359 37.4371 19.9806C37.4361 19.0735 37.367 18.1679 37.2304 17.2713C37.1858 16.9828 37.2568 16.6882 37.4278 16.4525C37.5988 16.2167 37.8557 16.059 38.1421 16.0141C38.4285 15.9692 38.7209 16.0407 38.9549 16.213C39.1889 16.3853 39.3455 16.6441 39.39 16.9327C39.8239 19.7779 39.6425 22.6839 38.8582 25.4519C38.0739 28.2198 36.7052 30.7844 34.8458 32.97C32.9864 35.1556 30.6803 36.9106 28.0852 38.1149C25.4901 39.3192 22.6673 39.9443 19.8102 39.9475V39.9425Z" fill="#F36A4F"/>
<path d="M38.5513 21.0049H1.11603C0.826302 21.0049 0.548437 20.889 0.343565 20.6826C0.138693 20.4762 0.0235977 20.1962 0.0235977 19.9043C0.0235977 19.6124 0.138693 19.3325 0.343565 19.126C0.548437 18.9196 0.826302 18.8037 1.11603 18.8037H38.5513C38.8411 18.8037 39.1189 18.9196 39.3238 19.126C39.5287 19.3325 39.6438 19.6124 39.6438 19.9043C39.6438 20.1962 39.5287 20.4762 39.3238 20.6826C39.1189 20.889 38.8411 21.0049 38.5513 21.0049Z" fill="#F36A4F"/>
<path d="M18.1362 37.8275C17.9925 37.8274 17.8503 37.7987 17.7177 37.7429C16.353 37.1722 10.3849 31.2441 8.87737 22.9776C8.25424 19.6441 8.48563 16.2056 9.54964 12.9873C10.79 9.19781 13.2034 5.58777 16.7177 2.23849C16.9283 2.03798 17.2094 1.92997 17.499 1.93823C17.6425 1.94231 17.7837 1.97482 17.9146 2.0339C18.0456 2.09297 18.1637 2.17745 18.2622 2.28252C18.3608 2.38758 18.4378 2.51118 18.489 2.64624C18.5401 2.78131 18.5643 2.92519 18.5603 3.06969C18.5562 3.21419 18.524 3.35647 18.4653 3.4884C18.4067 3.62034 18.3228 3.73934 18.2185 3.83863C12.437 9.33327 9.98493 15.3901 10.9059 21.8431C12.0135 29.5983 17.6438 35.2318 18.5681 35.716C18.7991 35.8162 18.9886 35.9936 19.1048 36.2182C19.221 36.4428 19.2568 36.701 19.206 36.9491C19.1553 37.1972 19.0211 37.42 18.8262 37.5801C18.6313 37.7401 18.3876 37.8275 18.1362 37.8275Z" fill="#F36A4F"/>
<path d="M21.8103 38.2678C21.5664 38.2681 21.3294 38.1863 21.137 38.0352C20.9446 37.8841 20.808 37.6725 20.7488 37.4341C20.6897 37.1957 20.7114 36.9442 20.8106 36.7197C20.9097 36.4951 21.0806 36.3105 21.296 36.1952C24.7145 34.358 29.8507 28.5552 29.9885 20.1007C29.9908 19.9562 30.0213 19.8135 30.0784 19.6809C30.1354 19.5482 30.2178 19.4282 30.3209 19.3277C30.424 19.2271 30.5457 19.148 30.6792 19.0949C30.8126 19.0417 30.9551 19.0155 31.0986 19.0179C31.242 19.0202 31.3836 19.051 31.5153 19.1085C31.6469 19.1659 31.7661 19.249 31.8659 19.3528C31.9657 19.4567 32.0442 19.5793 32.097 19.7137C32.1497 19.8482 32.1757 19.9917 32.1734 20.1363C32.1169 24.3235 30.8939 28.4105 28.6439 31.9316C26.9145 34.6239 24.5549 36.9436 22.3313 38.1391C22.1711 38.2251 21.9919 38.2694 21.8103 38.2678Z" fill="#F36A4F"/>
<path d="M19.1325 14.7619C16.542 14.7419 13.9662 14.3682 11.4753 13.6511C8.84498 12.9273 6.31034 11.8881 3.92576 10.5558C3.67614 10.4067 3.49554 10.1638 3.42368 9.88056C3.35181 9.5973 3.39458 9.29689 3.54257 9.04541C3.69055 8.79392 3.93164 8.61196 4.21278 8.53956C4.49393 8.46716 4.79211 8.51025 5.04173 8.65934C5.15601 8.72707 16.6468 15.4324 26.4854 11.1061C26.6175 11.0439 26.7607 11.0089 26.9064 11.0033C27.0521 10.9977 27.1975 11.0215 27.3339 11.0734C27.4703 11.1253 27.5951 11.2041 27.7008 11.3053C27.8065 11.4066 27.891 11.5281 27.9493 11.6627C28.0077 11.7974 28.0387 11.9424 28.0405 12.0893C28.0423 12.2362 28.015 12.382 27.96 12.5181C27.905 12.6542 27.8235 12.7778 27.7204 12.8816C27.6172 12.9855 27.4945 13.0675 27.3594 13.1228C24.8737 14.2149 22.1005 14.7619 19.1325 14.7619Z" fill="#F36A4F"/>
<path d="M35.168 31.4169C35.0083 31.417 34.8505 31.3817 34.7059 31.3136C20.047 24.4135 5.27225 31.1188 5.12603 31.1883C4.86282 31.3104 4.56222 31.3222 4.29037 31.2211C4.01853 31.1199 3.79769 30.9141 3.67645 30.649C3.55521 30.3838 3.54349 30.0809 3.64388 29.807C3.74426 29.5332 3.94853 29.3107 4.21174 29.1885C4.37981 29.114 8.22183 27.3462 14.0235 26.4657C19.3865 25.6513 27.4874 25.4853 35.6319 29.3189C35.8573 29.4249 36.0401 29.6052 36.15 29.8301C36.2599 30.055 36.2903 30.3109 36.2362 30.5555C36.1821 30.8002 36.0467 31.0189 35.8525 31.1755C35.6583 31.3321 35.4168 31.4173 35.168 31.4169Z" fill="#F36A4F"/>
</svg>
