<svg width="80" height="80" viewBox="0 0 80 80" fill="none" xmlns="http://www.w3.org/2000/svg">
<path d="M75.1808 39.3716C74.8014 39.3713 74.437 39.2238 74.1645 38.9601L50.6245 16.2369C50.362 15.9834 50.204 15.6409 50.1814 15.2769C50.1589 14.9129 50.2734 14.5536 50.5026 14.2697L58.1283 4.8132C58.3802 4.54086 58.7264 4.3744 59.0965 4.34758C59.4667 4.32076 59.8333 4.43558 60.1219 4.66876C60.4105 4.90195 60.5995 5.23604 60.6506 5.60331C60.7018 5.97057 60.6112 6.34353 60.3973 6.64655L53.6197 15.0634L75.1418 35.8413L77.3017 33.8204C77.5699 33.5405 77.9385 33.3785 78.3263 33.3701C78.7141 33.3616 79.0894 33.5074 79.3696 33.7754C79.6497 34.0434 79.8119 34.4116 79.8204 34.799C79.8288 35.1864 79.6829 35.5613 79.4146 35.8413L76.2385 38.9212C76.1052 39.0603 75.9457 39.1717 75.7692 39.249C75.5927 39.3263 75.4027 39.3679 75.21 39.3716H75.1808Z" fill="#F36A4F"/>
<path d="M29.5362 42.5348C28.2358 42.5409 26.978 42.0715 26 41.2152C24.2258 39.7057 22.9268 36.7183 24.2623 33.726C24.9593 32.1678 28.5297 28.3307 31.5517 25.426C38.3415 18.8986 40.1986 18.884 40.8127 18.8815C43.2328 18.8645 47.6366 18.2826 49.2792 18.0635L49.674 18.0196C50.1419 17.9588 51.0242 17.2357 51.4507 16.7438C51.7044 16.4507 52.0642 16.2702 52.4511 16.2421C52.838 16.214 53.2202 16.3407 53.5137 16.5941C53.8071 16.8476 53.9878 17.2071 54.0159 17.5936C54.044 17.9801 53.9173 18.3619 53.6636 18.6551C53.3711 18.9935 51.826 20.6881 50.0518 20.9194L49.6521 20.9729C47.795 21.2164 43.4545 21.7934 40.8493 21.8154C40.1815 21.9322 37.6591 23.5927 33.382 27.7269C29.7117 31.2767 27.2332 34.2397 26.9237 34.9287C26.6285 35.6226 26.564 36.3926 26.7394 37.1258C26.9149 37.859 27.3212 38.5166 27.8985 39.002C29.7507 40.5797 32.2341 38.688 32.7142 38.2935L43.3765 29.4993C43.6765 29.2626 44.0574 29.1526 44.4376 29.1929C44.8178 29.2333 45.167 29.4208 45.4105 29.7153C45.6539 30.0098 45.7723 30.3878 45.7401 30.7684C45.708 31.149 45.5279 31.5019 45.2385 31.7514L34.564 40.5359C33.2406 41.6364 31.3957 42.5348 29.5362 42.5348Z" fill="#F36A4F"/>
<path d="M63.5655 49.5544C63.2662 49.5577 62.973 49.4692 62.7257 49.3007C62.4784 49.1322 62.2887 48.892 62.1824 48.6124C62.0761 48.3329 62.0583 48.0275 62.1313 47.7374C62.2043 47.4474 62.3646 47.1868 62.5907 46.9907C63.5655 46.1337 66.3316 43.6308 67.2626 42.3647C68.157 41.1595 68.5543 39.0072 68.8735 37.2786C69.0758 36.1805 69.2513 35.231 69.5437 34.5517C69.6105 34.3632 69.7153 34.1904 69.8516 34.044C69.9879 33.8976 70.1529 33.7807 70.3363 33.7006C70.5196 33.6204 70.7175 33.5788 70.9177 33.5781C71.1179 33.5775 71.316 33.6179 71.4999 33.6969C71.6838 33.7759 71.8494 33.8918 71.9867 34.0373C72.1239 34.1829 72.2298 34.3551 72.2977 34.5431C72.3656 34.7312 72.3942 34.9313 72.3816 35.1308C72.369 35.3304 72.3156 35.5252 72.2245 35.7033C72.007 36.3915 71.844 37.0957 71.7371 37.8094C71.3618 39.835 70.8963 42.3574 69.5998 44.1055C68.3032 45.8537 64.6744 49.0602 64.5208 49.1819C64.2579 49.4172 63.9185 49.5496 63.5655 49.5544Z" fill="#F36A4F"/>
<path d="M45.6333 80.0006C43.6837 80.0006 41.6389 79.426 40.4058 78.513C39.0653 77.5221 36.0019 74.9535 35.8703 74.8439C35.7232 74.7205 35.602 74.5693 35.5134 74.3991C35.4248 74.2288 35.3706 74.0428 35.354 73.8517C35.3373 73.6605 35.3586 73.468 35.4164 73.285C35.4743 73.102 35.5676 72.9323 35.6912 72.7853C35.8147 72.6384 35.966 72.5172 36.1364 72.4287C36.3068 72.3402 36.493 72.2861 36.6844 72.2695C36.8757 72.2529 37.0684 72.2741 37.2516 72.3319C37.4347 72.3897 37.6047 72.483 37.7517 72.6064C37.7834 72.6332 40.8761 75.2261 42.1385 76.1659C43.4619 77.1398 46.6204 77.3833 47.7682 76.6018C48.5189 76.088 49.3475 75.102 49.4742 74.2109C49.5048 74.0494 49.4987 73.8831 49.4566 73.7243C49.4144 73.5655 49.3372 73.4181 49.2305 73.293L51.4824 71.428C52.1209 72.1584 53.571 71.6593 54.6116 70.8047C55.4695 70.0986 56.4906 68.723 55.7839 67.8222L51.324 62.1322L57.6458 65.6455C57.9943 65.8257 59.771 66.1179 60.9067 64.9151C61.8596 63.9169 62.174 62.7677 61.8084 61.7767C61.5712 61.4744 61.3882 61.1334 61.2674 60.7688L58.0431 51.5777L63.7483 59.3177C64.3239 58.6405 64.8052 57.8887 65.1789 57.0826C65.5542 55.3174 64.7451 53.9564 63.027 51.9307C61.7914 50.4699 51.4921 41.9654 44.873 36.592C44.7243 36.4689 44.6014 36.3178 44.5112 36.1472C44.421 35.9766 44.3653 35.79 44.3473 35.598C44.3293 35.4059 44.3494 35.2122 44.4063 35.0279C44.4633 34.8435 44.556 34.6722 44.6792 34.5237C44.8024 34.3752 44.9537 34.2524 45.1245 34.1623C45.2952 34.0722 45.482 34.0166 45.6742 33.9986C45.8665 33.9806 46.0604 34.0006 46.2449 34.0575C46.4294 34.1144 46.6009 34.2071 46.7495 34.3302C48.4555 35.7155 63.4851 47.9159 65.291 50.0414C67.0969 52.1669 68.7834 54.5042 68.0571 57.7643C67.9548 58.2221 66.6412 61.0634 64.8889 62.1663C65.0229 63.8073 64.4015 65.5238 63.0513 66.9335C61.98 68.0411 60.5154 68.6831 58.9741 68.7206C58.9009 70.2131 58.0455 71.7786 56.4955 73.0519C55.1722 74.1378 53.7099 74.6881 52.3817 74.6881C52.0722 76.5945 50.6075 78.2014 49.4377 79.0024C48.4214 79.6987 47.0469 80.0006 45.6333 80.0006Z" fill="#F36A4F"/>
<path d="M51.6481 74.5961C51.305 74.596 50.9728 74.4753 50.7098 74.2553L41.9191 66.9C41.6315 66.6485 41.4539 66.2945 41.4243 65.9138C41.3947 65.5331 41.5155 65.1559 41.7608 64.8631C42.0061 64.5703 42.3565 64.385 42.7368 64.3471C43.1172 64.3091 43.4973 64.4215 43.7957 64.66L52.5985 72.0153C52.8288 72.208 52.9941 72.4668 53.072 72.7566C53.1498 73.0465 53.1365 73.3532 53.0337 73.6352C52.9309 73.9171 52.7437 74.1606 52.4976 74.3326C52.2514 74.5045 51.9582 74.5965 51.6578 74.5961H51.6481Z" fill="#F36A4F"/>
<path d="M58.1186 69.1484C57.782 69.1483 57.4558 69.0322 57.1949 68.8197L47.6658 61.0505C47.517 60.9292 47.3936 60.7797 47.3026 60.6107C47.2115 60.4417 47.1547 60.2565 47.1354 60.0656C47.1161 59.8746 47.1345 59.6818 47.1898 59.498C47.2451 59.3142 47.336 59.1431 47.4575 58.9944C47.5789 58.8457 47.7285 58.7224 47.8977 58.6315C48.0668 58.5405 48.2523 58.4838 48.4434 58.4645C48.6345 58.4451 48.8276 58.4636 49.0115 58.5188C49.1955 58.574 49.3668 58.6649 49.5156 58.7862L59.0447 66.5554C59.2787 66.7461 59.448 67.0045 59.5291 67.2951C59.6102 67.5857 59.5993 67.8943 59.4978 68.1785C59.3963 68.4626 59.2092 68.7084 58.9623 68.8821C58.7153 69.0558 58.4206 69.1488 58.1186 69.1484Z" fill="#F36A4F"/>
<path d="M63.2463 62.4196C62.9151 62.4195 62.5937 62.307 62.3348 62.1007L53.8732 55.3565C53.7184 55.2385 53.5889 55.0908 53.492 54.9222C53.3951 54.7535 53.3329 54.5672 53.3091 54.3742C53.2852 54.1812 53.3002 53.9854 53.3531 53.7983C53.406 53.6112 53.4957 53.4365 53.6171 53.2844C53.7384 53.1324 53.8889 53.0061 54.0598 52.9129C54.2307 52.8198 54.4184 52.7616 54.612 52.7419C54.8057 52.7222 55.0013 52.7413 55.1875 52.7981C55.3736 52.8549 55.5466 52.9483 55.6961 53.0727L64.1578 59.8169C64.3949 60.0059 64.5673 60.2639 64.6511 60.5551C64.7349 60.8463 64.726 61.1564 64.6256 61.4423C64.5252 61.7283 64.3382 61.976 64.0907 62.1511C63.8431 62.3261 63.5472 62.42 63.2438 62.4196H63.2463Z" fill="#F36A4F"/>
<path d="M6.14244 46.9903C5.85711 46.989 5.5784 46.9044 5.34063 46.7468L0.575073 43.3933C0.280859 43.1689 0.0827488 42.8415 0.0206995 42.477C-0.0413498 42.1124 0.0372793 41.7379 0.240727 41.4291C0.444176 41.1202 0.757304 40.8998 1.11696 40.8125C1.47661 40.7252 1.85603 40.7774 2.17869 40.9586L5.80611 43.5695L23.7749 20.2473L13.2953 12.8555C12.9786 12.6308 12.7642 12.2896 12.6993 11.907C12.6344 11.5243 12.7243 11.1316 12.9493 10.8152C13.1742 10.4988 13.5157 10.2846 13.8987 10.2198C14.2817 10.155 14.6748 10.2448 14.9916 10.4695L26.7116 18.7475C26.8725 18.8612 27.0087 19.0061 27.1122 19.1737C27.2156 19.3413 27.284 19.528 27.3134 19.7227C27.3427 19.9173 27.3324 20.1159 27.283 20.3065C27.2336 20.497 27.1462 20.6757 27.026 20.8316L7.3025 46.423C7.16552 46.6 6.98969 46.7432 6.78856 46.8415C6.58743 46.9399 6.36637 46.9908 6.14244 46.9903Z" fill="#F36A4F"/>
<path d="M30.1772 26.5376L28.7612 26.1748C27.0137 25.7623 25.2391 25.4743 23.4508 25.3129L21.9885 25.1912L22.2322 22.2695L23.6945 22.3913C25.6467 22.5654 27.5836 22.8811 29.4899 23.3359L30.9083 23.7036L30.1772 26.5376Z" fill="#F36A4F"/>
<path d="M11.1824 46.989C10.8842 46.9888 10.5931 46.8975 10.3483 46.7273C10.1035 46.5571 9.91665 46.3163 9.81276 46.037L8.29445 41.9637C8.2274 41.7839 8.19646 41.5926 8.20341 41.4008C8.21036 41.209 8.25505 41.0204 8.33494 40.8459C8.41482 40.6714 8.52834 40.5142 8.669 40.3835C8.80966 40.2528 8.97472 40.1511 9.15474 40.0841C9.51832 39.9488 9.9208 39.9634 10.2736 40.1245C10.6265 40.2857 10.9008 40.5803 11.0362 40.9436L12.5545 45.0168C12.6371 45.2378 12.665 45.4755 12.6357 45.7095C12.6064 45.9436 12.5207 46.1671 12.3861 46.3609C12.2515 46.5547 12.072 46.7131 11.8628 46.8224C11.6536 46.9318 11.421 46.989 11.1849 46.989H11.1824Z" fill="#F36A4F"/>
<path d="M31.7052 76.0527C30.6374 76.0531 29.5935 75.737 28.7056 75.1444C27.8177 74.5519 27.1258 73.7094 26.7174 72.7238C26.309 71.7381 26.2026 70.6535 26.4115 69.6074C26.6205 68.5613 27.1354 67.6006 27.8912 66.847L30.1187 64.6241C30.62 64.1237 31.2151 63.7269 31.87 63.4563C32.5249 63.1857 33.2267 63.0465 33.9353 63.0469C34.644 63.0472 35.3457 63.187 36.0003 63.4582C36.6549 63.7295 37.2496 64.1269 37.7505 64.6277C38.2514 65.1286 38.6486 65.7231 38.9195 66.3773C39.1903 67.0316 39.3296 67.7327 39.3293 68.4407C39.3289 69.1487 39.189 69.8496 38.9175 70.5036C38.646 71.1576 38.2482 71.7517 37.7468 72.2521L35.5193 74.475C35.0195 74.9767 34.425 75.3744 33.7704 75.6452C33.1157 75.916 32.4138 76.0545 31.7052 76.0527ZM33.9328 65.9681C33.6076 65.9681 33.2857 66.0327 32.9857 66.1581C32.6857 66.2834 32.4137 66.4671 32.1854 66.6985L29.9578 68.9043C29.4941 69.3673 29.2334 69.9954 29.2332 70.6504C29.233 71.3054 29.4932 71.9336 29.9566 72.3969C30.4201 72.8602 31.0488 73.1207 31.7044 73.1209C32.36 73.1211 32.9889 72.8611 33.4526 72.3982L35.6802 70.1753C36.0266 69.8301 36.2627 69.39 36.3585 68.9107C36.4544 68.4314 36.4056 67.9344 36.2185 67.4828C36.0313 67.0312 35.7142 66.6453 35.3073 66.3739C34.9004 66.1025 34.422 65.9578 33.9328 65.9583V65.9681Z" fill="#F36A4F"/>
<path d="M25.303 69.6464C24.2357 69.6457 23.1926 69.3289 22.3055 68.7362C21.4183 68.1434 20.727 67.3012 20.3188 66.316C19.9106 65.3308 19.8039 64.2469 20.0122 63.2011C20.2205 62.1554 20.7344 61.1948 21.4889 60.4408L23.7164 58.2178C24.2178 57.7175 24.8129 57.3206 25.4677 57.05C26.1226 56.7794 26.8244 56.6403 27.5331 56.6406C28.2418 56.641 28.9434 56.7807 29.598 57.052C30.2526 57.3232 30.8474 57.7206 31.3482 58.2215C31.8491 58.7224 32.2463 59.3169 32.5172 59.9711C32.7881 60.6253 32.9273 61.3264 32.927 62.0344C32.9267 62.7424 32.7867 63.4434 32.5152 64.0974C32.2437 64.7513 31.8459 65.3454 31.3446 65.8458L29.1171 68.0687C28.6172 68.5704 28.0228 68.9682 27.3681 69.239C26.7134 69.5098 26.0115 69.6483 25.303 69.6464ZM27.5305 59.5618C27.2053 59.5618 26.8834 59.6264 26.5834 59.7518C26.2834 59.8772 26.0114 60.0609 25.7831 60.2922L23.5556 62.5151C23.3244 62.7439 23.1407 63.016 23.015 63.3158C22.8894 63.6157 22.8242 63.9374 22.8233 64.2624C22.8224 64.5875 22.8858 64.9095 23.0098 65.2101C23.1338 65.5106 23.316 65.7837 23.5459 66.0137C23.7758 66.2437 24.049 66.4261 24.3496 66.5504C24.6503 66.6747 24.9725 66.7385 25.2979 66.738C25.6233 66.7376 25.9454 66.673 26.2457 66.5478C26.546 66.4227 26.8187 66.2396 27.048 66.0089L29.2755 63.7861C29.6219 63.4409 29.858 63.0008 29.9538 62.5215C30.0497 62.0422 30.0009 61.5452 29.8138 61.0936C29.6266 60.642 29.3095 60.2561 28.9026 59.9847C28.4957 59.7133 28.0173 59.5686 27.5281 59.5691L27.5305 59.5618Z" fill="#F36A4F"/>
<path d="M19.4539 63.8041C18.3866 63.8041 17.3433 63.4879 16.4559 62.8954C15.5686 62.3029 14.877 61.4609 14.4687 60.4757C14.0605 59.4905 13.9538 58.4065 14.1623 57.3608C14.3707 56.3151 14.8849 55.3546 15.6399 54.6009L17.8674 52.378C18.3687 51.8776 18.9638 51.4808 19.6187 51.2102C20.2736 50.9396 20.9754 50.8004 21.684 50.8008C22.3927 50.8011 23.0944 50.9409 23.749 51.2122C24.4036 51.4834 24.9983 51.8808 25.4992 52.3817C26 52.8825 26.3973 53.477 26.6681 54.1312C26.939 54.7855 27.0783 55.4866 27.0779 56.1946C27.0776 56.9026 26.9377 57.6035 26.6662 58.2575C26.3947 58.9115 25.9969 59.5056 25.4955 60.006L23.2704 62.2289C22.7701 62.7304 22.1752 63.1279 21.5201 63.3983C20.865 63.6687 20.1627 63.8066 19.4539 63.8041ZM21.6814 53.7195C21.3563 53.7196 21.0343 53.7841 20.7344 53.9095C20.4344 54.0349 20.1623 54.2186 19.934 54.45L17.7065 56.6728C17.2428 57.1358 16.9821 57.7639 16.9819 58.4189C16.9816 59.0739 17.2419 59.7021 17.7053 60.1655C18.1688 60.6288 18.7974 60.8892 19.4531 60.8894C20.1087 60.8896 20.7376 60.6297 21.2013 60.1667L23.4289 57.9438C23.7753 57.5986 24.0114 57.1585 24.1072 56.6792C24.2031 56.1999 24.1543 55.703 23.9672 55.2513C23.78 54.7997 23.4629 54.4138 23.056 54.1424C22.6491 53.871 22.1707 53.7264 21.6814 53.7268V53.7195Z" fill="#F36A4F"/>
<path d="M12.7007 57.0644C11.6334 57.0637 10.5903 56.7469 9.70316 56.1541C8.81602 55.5613 8.12468 54.7192 7.7165 53.734C7.30833 52.7488 7.20163 51.6648 7.4099 50.6191C7.61817 49.5734 8.13206 48.6128 8.88663 47.8587L11.1141 45.6358C12.1267 44.6253 13.4996 44.0579 14.9308 44.0586C15.6395 44.0589 16.3411 44.1987 16.9958 44.47C17.6504 44.7412 18.2451 45.1386 18.7459 45.6395C19.2468 46.1403 19.644 46.7348 19.9149 47.3891C20.1858 48.0433 20.325 48.7444 20.3247 49.4524C20.3244 50.1604 20.1844 50.8614 19.9129 51.5153C19.6414 52.1693 19.2436 52.7634 18.7423 53.2638L16.5148 55.4867C16.0149 55.9884 15.4205 56.3861 14.7658 56.6569C14.1112 56.9277 13.4093 57.0662 12.7007 57.0644ZM14.9282 46.9895C14.603 46.9895 14.2811 47.0541 13.9811 47.1795C13.6812 47.3049 13.4091 47.4886 13.1808 47.7199L10.9533 49.9428C10.7221 50.1716 10.5384 50.4437 10.4128 50.7435C10.2871 51.0434 10.222 51.3651 10.2211 51.6901C10.2202 52.0152 10.2835 52.3372 10.4075 52.6378C10.5315 52.9383 10.7137 53.2114 10.9436 53.4414C11.1735 53.6714 11.4467 53.8538 11.7473 53.9781C12.048 54.1024 12.3703 54.1662 12.6956 54.1657C13.021 54.1653 13.3431 54.1007 13.6434 53.9755C13.9437 53.8504 14.2164 53.6673 14.4457 53.4367L16.6732 51.2138C17.022 50.8692 17.2603 50.4286 17.3576 49.9483C17.455 49.468 17.407 48.9696 17.2199 48.5165C17.0328 48.0635 16.7149 47.6764 16.3068 47.4044C15.8987 47.1325 15.4188 46.9881 14.9282 46.9895Z" fill="#F36A4F"/>
<path d="M61.84 2.92281C61.452 2.92048 61.0803 2.7667 60.8043 2.4943C60.6683 2.35863 60.5604 2.19752 60.4869 2.02018C60.4133 1.84283 60.3754 1.65274 60.3754 1.46076C60.3754 1.26879 60.4133 1.0787 60.4869 0.901353C60.5604 0.724011 60.6683 0.562898 60.8043 0.427226C61.0089 0.223038 61.2696 0.0840641 61.5533 0.0278815C61.837 -0.0283011 62.131 0.000831202 62.3981 0.111594C62.6653 0.222357 62.8935 0.409774 63.054 0.650144C63.2145 0.890513 63.3001 1.17304 63.2999 1.46198C63.2981 1.84852 63.145 2.21902 62.8734 2.4943C62.5981 2.76633 62.2272 2.92011 61.84 2.92281Z" fill="#F36A4F"/>
<path d="M10.9021 10.2264C10.5639 10.2261 10.2362 10.1087 9.97493 9.89419C9.71362 9.67968 9.53482 9.38131 9.46898 9.04989C9.40315 8.71847 9.45434 8.3745 9.61385 8.07656C9.77336 7.77861 10.0313 7.54512 10.3438 7.41584C10.6563 7.28656 11.004 7.2695 11.3276 7.36755C11.6513 7.4656 11.9309 7.67271 12.1189 7.9536C12.3069 8.23448 12.3916 8.57179 12.3586 8.90806C12.3256 9.24433 12.1769 9.55877 11.9379 9.79784C11.8019 9.93382 11.6405 10.0417 11.4627 10.1152C11.285 10.1887 11.0945 10.2265 10.9021 10.2264Z" fill="#F36A4F"/>
</svg>
