<svg width="52" height="64" viewBox="0 0 52 64" fill="none" xmlns="http://www.w3.org/2000/svg">
<path d="M48.5911 39.9952H28.7523V37.0504H48.5911C48.8451 37.0504 49.0447 36.9371 49.0447 36.8646V15.3312C49.0447 15.2066 48.8179 15.0775 48.5911 15.0775H21.5171C21.4309 15.0775 21.1542 15.0956 21.1542 15.3312V36.8669C21.1542 36.9235 21.1905 37.0526 21.5171 37.0526H26.4842V39.9975H21.5171C19.6301 39.9975 18.2058 38.6519 18.2058 36.8669V15.3312C18.2058 13.5394 19.6596 12.1327 21.5171 12.1327H48.5911C50.4713 12.1327 51.9932 13.5666 51.9932 15.3312V36.8669C52 38.6202 50.503 39.9952 48.5911 39.9952Z" fill="#F36A4F"/>
<path d="M25.4907 46.4964C25.1795 46.4968 24.8761 46.3988 24.6241 46.2165C24.3721 46.0341 24.1843 45.7769 24.0876 45.4814C23.991 45.186 23.9904 44.8676 24.086 44.5718C24.1815 44.276 24.3684 44.018 24.6197 43.8348L32.9209 37.7798C33.0772 37.6657 33.2546 37.5835 33.4427 37.5379C33.6309 37.4922 33.8263 37.4841 34.0176 37.5138C34.2089 37.5436 34.3925 37.6107 34.5579 37.7113C34.7233 37.812 34.8672 37.9441 34.9814 38.1003C35.0956 38.2565 35.1779 38.4336 35.2236 38.6215C35.2693 38.8095 35.2775 39.0046 35.2477 39.1957C35.2179 39.3868 35.1507 39.5701 35.0499 39.7353C34.9492 39.9005 34.8168 40.0442 34.6605 40.1583L26.3593 46.211C26.1076 46.3961 25.8033 46.4961 25.4907 46.4964Z" fill="#F36A4F"/>
<path d="M25.2482 46.7615C24.8611 46.7615 24.4895 46.6095 24.2136 46.3383C23.9378 46.067 23.7799 45.6983 23.7739 45.3117L23.6741 38.7652C23.6711 38.5718 23.7063 38.3797 23.7776 38.1999C23.8489 38.0201 23.955 37.8562 24.0898 37.7173C24.2246 37.5785 24.3855 37.4675 24.5632 37.3908C24.7409 37.3141 24.9321 37.273 25.1257 37.2701H25.1484C25.5355 37.2701 25.907 37.4221 26.1829 37.6933C26.4587 37.9646 26.6166 38.3333 26.6226 38.7199L26.7224 45.2664C26.7254 45.4598 26.6902 45.6518 26.6189 45.8316C26.5476 46.0114 26.4415 46.1754 26.3067 46.3142C26.1719 46.4531 26.011 46.564 25.8333 46.6408C25.6556 46.7175 25.4644 46.7585 25.2708 46.7615H25.2482Z" fill="#F36A4F"/>
<path d="M28.1082 64H7.20338C5.29366 63.9976 3.46285 63.2389 2.11247 61.8902C0.762097 60.5415 0.00240066 58.7129 0 56.8056V7.19669C0.00180048 5.28895 0.761232 3.45983 2.11167 2.11065C3.46212 0.761461 5.29327 0.00239882 7.20338 0H28.1082C30.0179 0.00239767 31.8487 0.761149 33.1991 2.10985C34.5495 3.45854 35.3092 5.28708 35.3116 7.19442V10.3431H32.3631V7.19442C32.3619 6.06773 31.9132 4.98752 31.1155 4.19082C30.3178 3.39413 29.2363 2.94602 28.1082 2.94482H7.20338C6.07528 2.94602 4.99373 3.39413 4.19604 4.19082C3.39836 4.98752 2.94969 6.06773 2.94849 7.19442V56.8033C2.94969 57.93 3.39836 59.0102 4.19604 59.8069C4.99373 60.6036 6.07528 61.0517 7.20338 61.0529H28.1082C29.2363 61.0517 30.3178 60.6036 31.1155 59.8069C31.9132 59.0102 32.3619 57.93 32.3631 56.8033V42.8902H35.3116V56.8056C35.3092 58.7129 34.5495 60.5415 33.1991 61.8902C31.8487 63.2389 30.0179 63.9976 28.1082 64Z" fill="#F36A4F"/>
<path d="M30.8866 8.58755H3.97141V11.5324H30.8866V8.58755Z" fill="#F36A4F"/>
<path d="M30.1653 51.6635H4.98972C4.59872 51.6635 4.22374 51.5083 3.94727 51.2322C3.6708 50.9561 3.51547 50.5816 3.51547 50.1911C3.51547 49.8006 3.6708 49.426 3.94727 49.1499C4.22374 48.8738 4.59872 48.7187 4.98972 48.7187H30.1653C30.5563 48.7187 30.9312 48.8738 31.2077 49.1499C31.4842 49.426 31.6395 49.8006 31.6395 50.1911C31.6395 50.5816 31.4842 50.9561 31.2077 51.2322C30.9312 51.5083 30.5563 51.6635 30.1653 51.6635Z" fill="#F36A4F"/>
<path d="M21.5645 57.5984H13.7464C13.3554 57.5984 12.9805 57.4433 12.704 57.1672C12.4275 56.891 12.2722 56.5165 12.2722 56.126C12.2722 55.7355 12.4275 55.361 12.704 55.0849C12.9805 54.8087 13.3554 54.6536 13.7464 54.6536H21.5645C21.9555 54.6536 22.3304 54.8087 22.6069 55.0849C22.8834 55.361 23.0387 55.7355 23.0387 56.126C23.0387 56.5165 22.8834 56.891 22.6069 57.1672C22.3304 57.4433 21.9555 57.5984 21.5645 57.5984Z" fill="#F36A4F"/>
<path d="M44.4022 18.7019H26.0308V21.6467H44.4022V18.7019Z" fill="#F36A4F"/>
<path d="M44.4022 24.365H26.0308V27.3098H44.4022V24.365Z" fill="#F36A4F"/>
<path d="M41.0001 30.0281H26.0308V32.9729H41.0001V30.0281Z" fill="#F36A4F"/>
</svg>
