<svg width="32" height="40" viewBox="0 0 32 40" fill="none" xmlns="http://www.w3.org/2000/svg">
<path d="M29.9061 24.997H17.696V23.1565H29.9061C30.0625 23.1565 30.1853 23.0857 30.1853 23.0404V9.58199C30.1853 9.50412 30.0457 9.42342 29.9061 9.42342H13.243C13.19 9.42342 13.0197 9.43475 13.0197 9.58199V23.0418C13.0197 23.0772 13.042 23.1579 13.243 23.1579H16.3001V24.9984H13.243C12.0816 24.9984 11.205 24.1574 11.205 23.0418V9.58199C11.205 8.46211 12.0998 7.58291 13.243 7.58291H29.9061C31.0633 7.58291 32 8.4791 32 9.58199V23.0418C32.0042 24.1376 31.0829 24.997 29.9061 24.997Z" fill="#F36A4F"/>
<path d="M15.6886 29.0603C15.4971 29.0605 15.3104 28.9993 15.1553 28.8853C15.0002 28.7713 14.8846 28.6105 14.8251 28.4259C14.7656 28.2412 14.7652 28.0422 14.8241 27.8574C14.8829 27.6725 14.9979 27.5113 15.1526 27.3967L20.2616 23.6124C20.3579 23.5411 20.467 23.4897 20.5828 23.4612C20.6987 23.4326 20.8189 23.4275 20.9366 23.4461C21.0544 23.4647 21.1674 23.5067 21.2692 23.5696C21.371 23.6325 21.4595 23.7151 21.5298 23.8127C21.6001 23.9103 21.6508 24.021 21.6789 24.1385C21.707 24.2559 21.7121 24.3779 21.6937 24.4973C21.6754 24.6167 21.634 24.7313 21.572 24.8346C21.51 24.9378 21.4286 25.0276 21.3323 25.0989L16.2233 28.8819C16.0683 28.9976 15.881 29.0601 15.6886 29.0603Z" fill="#F36A4F"/>
<path d="M15.5394 29.2259C15.3011 29.2259 15.0724 29.1309 14.9027 28.9614C14.7329 28.7919 14.6357 28.5614 14.632 28.3198L14.5706 24.2282C14.5687 24.1074 14.5904 23.9873 14.6343 23.875C14.6782 23.7626 14.7435 23.6601 14.8264 23.5733C14.9094 23.4866 15.0084 23.4172 15.1178 23.3693C15.2272 23.3213 15.3448 23.2957 15.464 23.2938H15.4779C15.7162 23.2938 15.9449 23.3888 16.1146 23.5583C16.2844 23.7279 16.3816 23.9583 16.3853 24.1999L16.4467 28.2915C16.4486 28.4124 16.4269 28.5324 16.383 28.6448C16.3391 28.7571 16.2738 28.8596 16.1909 28.9464C16.1079 29.0332 16.0089 29.1025 15.8995 29.1505C15.7901 29.1984 15.6725 29.2241 15.5533 29.2259H15.5394Z" fill="#F36A4F"/>
<path d="M17.2996 40H4.43343C3.25807 39.9985 2.13126 39.5243 1.30015 38.6814C0.469044 37.8384 0.00147752 36.6956 0 35.5035V4.49793C0.00110814 3.30559 0.468512 2.1624 1.29966 1.31915C2.13081 0.475913 3.25783 0.00149926 4.43343 0H17.2996C18.475 0.00149854 19.6018 0.475718 20.4329 1.31865C21.264 2.16159 21.7316 3.30442 21.733 4.49651V6.46445H19.9183V4.49651C19.9176 3.79233 19.6415 3.1172 19.1505 2.61927C18.6596 2.12133 17.9939 1.84126 17.2996 1.84051H4.43343C3.73913 1.84126 3.07347 2.12133 2.58252 2.61927C2.09157 3.1172 1.81543 3.79233 1.81469 4.49651V35.5021C1.81543 36.2063 2.09157 36.8814 2.58252 37.3793C3.07347 37.8773 3.73913 38.1573 4.43343 38.1581H17.2996C17.9939 38.1573 18.6596 37.8773 19.1505 37.3793C19.6415 36.8814 19.9176 36.2063 19.9183 35.5021V26.8064H21.733V35.5035C21.7316 36.6956 21.264 37.8384 20.4329 38.6814C19.6018 39.5243 18.475 39.9985 17.2996 40Z" fill="#F36A4F"/>
<path d="M19.0096 5.36722H2.44427V7.20773H19.0096V5.36722Z" fill="#F36A4F"/>
<path d="M18.5657 32.2897H3.071C2.83035 32.2897 2.59957 32.1927 2.42941 32.0201C2.25925 31.8476 2.16365 31.6135 2.16365 31.3694C2.16365 31.1253 2.25925 30.8913 2.42941 30.7187C2.59957 30.5461 2.83035 30.4492 3.071 30.4492H18.5657C18.8063 30.4492 19.0371 30.5461 19.2073 30.7187C19.3774 30.8913 19.473 31.1253 19.473 31.3694C19.473 31.6135 19.3774 31.8476 19.2073 32.0201C19.0371 32.1927 18.8063 32.2897 18.5657 32.2897Z" fill="#F36A4F"/>
<path d="M13.2722 35.999H8.46045C8.21981 35.999 7.98902 35.9021 7.81886 35.7295C7.6487 35.5569 7.5531 35.3228 7.5531 35.0788C7.5531 34.8347 7.6487 34.6006 7.81886 34.428C7.98902 34.2555 8.21981 34.1585 8.46045 34.1585H13.2722C13.5128 34.1585 13.7436 34.2555 13.9138 34.428C14.0839 34.6006 14.1795 34.8347 14.1795 35.0788C14.1795 35.3228 14.0839 35.5569 13.9138 35.7295C13.7436 35.9021 13.5128 35.999 13.2722 35.999Z" fill="#F36A4F"/>
<path d="M27.328 11.6887H16.0211V13.5292H27.328V11.6887Z" fill="#F36A4F"/>
<path d="M27.328 15.2281H16.0211V17.0686H27.328V15.2281Z" fill="#F36A4F"/>
<path d="M25.2341 18.7676H16.0211V20.6081H25.2341V18.7676Z" fill="#F36A4F"/>
</svg>
