<svg width="13" height="16" viewBox="0 0 13 16" fill="none" xmlns="http://www.w3.org/2000/svg">
<path d="M4.91085 5.98215C4.76276 5.98028 4.61792 5.93884 4.49165 5.86222C4.36538 5.78559 4.26236 5.67661 4.19347 5.54681L2.24718 2.01942C2.03305 1.62812 2.16013 1.14434 2.53058 0.943656L4.10705 0.0893328C4.21563 0.0307295 4.33731 1.53903e-05 4.46098 0C4.60898 0.00191459 4.7537 0.0433772 4.87987 0.120006C5.00603 0.196635 5.10894 0.305584 5.17773 0.43534L7.12465 3.96335C7.34132 4.35592 7.2136 4.84033 6.83998 5.04227L5.26478 5.89282C5.15618 5.95137 5.03451 5.98208 4.91085 5.98215ZM2.97537 1.63567L4.91657 5.15236L6.39646 4.35151L4.45589 0.832304L2.97537 1.63567Z" fill="#F9B5A7"/>
<path d="M10.6804 15.7744C10.5346 15.7724 10.392 15.732 10.2671 15.6574C10.1423 15.5828 10.0397 15.4766 9.97004 15.3497C9.86837 15.1849 8.58419 13.1026 8.25441 12.5056C7.96593 12.0293 7.49191 11.2379 8.19087 10.7648C8.56386 10.5132 9.10396 10.2553 9.49792 10.0672C9.65805 9.9904 9.79657 9.92434 9.87917 9.87842C9.98774 9.81979 10.1094 9.78907 10.2331 9.78909C10.3808 9.79106 10.5253 9.83241 10.6513 9.9088C10.7774 9.98519 10.8803 10.0938 10.9492 10.2232L12.8955 13.7512C13.1122 14.1431 12.9851 14.6269 12.6115 14.8295L11.0356 15.6819C10.927 15.7418 10.8048 15.7736 10.6804 15.7744ZM8.65218 11.4443C8.65854 11.5072 8.70937 11.6701 8.96481 12.0922L8.97307 12.1067C9.29395 12.688 10.6652 14.9087 10.6792 14.9314L10.6855 14.9421L12.166 14.1412L10.2255 10.6245C10.1308 10.6736 10.0075 10.7327 9.85693 10.8045C9.48585 10.9819 8.97815 11.2247 8.656 11.4417L8.65218 11.4443Z" fill="#F9B5A7"/>
<path d="M8.05363 16.0002C7.80582 16.0003 7.55821 15.9861 7.3121 15.9574C5.66446 15.7643 3.30897 14.8049 1.44783 11.3285C1.12855 10.7387 0.851047 10.1276 0.617341 9.49966C0.579929 9.39772 0.584953 9.28523 0.631308 9.18696C0.677663 9.08868 0.761551 9.01266 0.864519 8.97562C0.967486 8.93858 1.0811 8.94355 1.18036 8.98945C1.27963 9.03534 1.35641 9.11839 1.39382 9.22034C1.61424 9.81305 1.87603 10.3899 2.17729 10.9466C3.53772 13.4863 5.29782 14.8993 7.40868 15.1465C8.96927 15.3289 10.1359 14.7841 10.1473 14.7785C10.2457 14.7339 10.3577 14.7294 10.4594 14.7657C10.5611 14.8021 10.6443 14.8764 10.6913 14.9729C10.7382 15.0693 10.745 15.1802 10.7103 15.2815C10.6756 15.3829 10.6022 15.4668 10.5057 15.5152C10.458 15.5391 9.46743 16.0002 8.05363 16.0002Z" fill="#F9B5A7"/>
<path d="M0.453397 7.49545C0.351396 7.49521 0.253092 7.45761 0.177422 7.3899C0.101751 7.32218 0.0540663 7.22914 0.0435526 7.12869C-0.368833 3.21503 2.28022 1.54539 2.3946 1.47619C2.48688 1.42827 2.59405 1.41667 2.69462 1.4437C2.79519 1.47074 2.88172 1.53441 2.93686 1.62195C2.992 1.70949 3.01168 1.81444 2.99196 1.91574C2.97223 2.01705 2.91455 2.10723 2.83049 2.1682C2.732 2.23111 0.508043 3.65855 0.865147 7.0469C0.870781 7.10031 0.865733 7.1543 0.850293 7.20578C0.834853 7.25726 0.809322 7.30522 0.775158 7.34693C0.740995 7.38864 0.698868 7.42328 0.651183 7.44887C0.603497 7.47447 0.551188 7.49051 0.497241 7.49608C0.482625 7.49663 0.46799 7.49642 0.453397 7.49545Z" fill="#F9B5A7"/>
<path d="M7.14116 12.4047C6.94391 12.4046 6.74734 12.382 6.55531 12.3374C5.54753 12.1046 4.64905 11.2987 3.88147 9.94111C3.11389 8.58351 2.88005 7.4096 3.19649 6.47475C3.28518 6.20138 3.42748 5.94803 3.61524 5.72921C3.803 5.51039 4.03253 5.3304 4.29068 5.19956C4.34024 5.17771 4.39367 5.16573 4.44791 5.16432C4.50215 5.16292 4.55614 5.1721 4.60679 5.19135C4.65745 5.2106 4.70378 5.23953 4.74314 5.27651C4.7825 5.31348 4.81411 5.35777 4.83618 5.40685C4.85826 5.45592 4.87035 5.50882 4.87177 5.56252C4.87319 5.61622 4.86392 5.66967 4.84448 5.71982C4.82504 5.76997 4.79581 5.81584 4.75846 5.85481C4.72111 5.89378 4.67638 5.92508 4.62681 5.94693C4.60203 5.95889 4.16296 6.17152 3.97361 6.75407C3.7474 7.44923 3.96471 8.41365 4.60267 9.54226C5.24063 10.6709 5.98216 11.3667 6.74275 11.5409C7.16753 11.6419 7.61522 11.5787 7.99452 11.3641C8.03921 11.3337 8.08951 11.3123 8.14256 11.3011C8.19561 11.2899 8.25037 11.2891 8.30371 11.2989C8.35705 11.3086 8.40793 11.3287 8.45343 11.3579C8.49894 11.3872 8.53819 11.425 8.56894 11.4692C8.59969 11.5134 8.62134 11.5633 8.63265 11.6158C8.64396 11.6683 8.6447 11.7225 8.63485 11.7753C8.625 11.8281 8.60473 11.8785 8.57522 11.9236C8.5457 11.9686 8.50751 12.0075 8.46283 12.0379C8.0657 12.2804 7.60773 12.4075 7.14116 12.4047Z" fill="#F9B5A7"/>
<path d="M0.621155 8.68182C0.511615 8.68182 0.406561 8.63873 0.329105 8.56205C0.251648 8.48536 0.208134 8.38135 0.208134 8.2729V8.23578C0.208134 8.12733 0.251648 8.02332 0.329105 7.94663C0.406561 7.86995 0.511615 7.82686 0.621155 7.82686C0.730695 7.82686 0.835749 7.86995 0.913205 7.94663C0.990662 8.02332 1.03418 8.12733 1.03418 8.23578V8.2729C1.03418 8.3266 1.02349 8.37977 1.00274 8.42938C0.981981 8.479 0.951558 8.52407 0.913205 8.56205C0.874853 8.60002 0.829321 8.63014 0.779211 8.65069C0.729101 8.67124 0.675394 8.68182 0.621155 8.68182Z" fill="#F9B5A7"/>
</svg>
