<svg width="40" height="40" viewBox="0 0 40 40" fill="none" xmlns="http://www.w3.org/2000/svg">
<path d="M33.9606 29L34.0203 27.6568C34.0325 27.6551 34.0448 27.6551 34.057 27.6568C34.0461 27.6568 33.8018 27.5986 33.5316 27.127C32.8528 25.9434 32.0953 22.3854 34.6448 11.8441C34.6864 11.6719 34.6641 11.4886 34.5827 11.3345C34.5014 11.1805 34.3677 11.0682 34.2111 11.0225C34.0544 10.9768 33.8877 11.0013 33.7476 11.0908C33.6074 11.1802 33.5053 11.3272 33.4637 11.4993C31.3975 20.0452 31.1056 25.7643 32.6193 28.0418C33.2031 28.9164 33.8384 28.994 33.9606 29Z" fill="#F36A4F"/>
<path d="M30.2621 27.6442C30.1378 27.3575 30.0373 27.0592 29.9618 26.7529C29.9418 26.6732 29.9362 26.5901 29.9456 26.5081C29.9549 26.4262 29.9789 26.347 30.0163 26.2752C30.0536 26.2034 30.1035 26.1403 30.1631 26.0896C30.2227 26.0389 30.2909 26.0015 30.3637 25.9796C30.4365 25.9576 30.5126 25.9516 30.5876 25.9618C30.6625 25.972 30.7349 25.9983 30.8006 26.0391C30.8663 26.0799 30.924 26.1344 30.9704 26.1996C31.0168 26.2648 31.051 26.3393 31.071 26.4189C31.1277 26.6522 31.2034 26.8795 31.2972 27.0979C31.33 27.1723 31.3491 27.2531 31.3534 27.3355C31.3576 27.418 31.347 27.5006 31.3221 27.5785C31.2972 27.6565 31.2584 27.7283 31.2081 27.7899C31.1578 27.8516 31.0969 27.9017 31.0288 27.9376C30.9608 27.9735 30.8869 27.9943 30.8115 27.999C30.7361 28.0037 30.6606 27.992 30.5893 27.9648C30.5179 27.9376 30.4522 27.8952 30.3959 27.8402C30.3395 27.7852 30.2936 27.7186 30.2608 27.6442H30.2621ZM29.6998 24.9827C29.6807 24.7033 29.6692 24.4127 29.6653 24.1095C29.6642 24.027 29.6779 23.945 29.7057 23.8682C29.7335 23.7914 29.7749 23.7214 29.8274 23.6621C29.88 23.6028 29.9427 23.5554 30.012 23.5226C30.0814 23.4899 30.1559 23.4723 30.2314 23.4711H30.2404C30.3914 23.471 30.5363 23.5359 30.6439 23.6517C30.7515 23.7675 30.8131 23.9249 30.8154 24.09C30.8154 24.3694 30.8308 24.6376 30.8474 24.8891C30.8586 25.0553 30.8091 25.2195 30.7097 25.3458C30.6102 25.4721 30.469 25.55 30.3171 25.5625H30.2736C30.1286 25.5626 29.9888 25.5028 29.8824 25.395C29.776 25.2872 29.7108 25.1395 29.6998 24.9813V24.9827ZM30.2455 23.0519C30.1701 23.0463 30.0966 23.0244 30.0289 22.9876C29.9613 22.9509 29.901 22.8999 29.8514 22.8376C29.8018 22.7753 29.7639 22.703 29.7398 22.6247C29.7158 22.5464 29.7061 22.4637 29.7113 22.3813C29.728 22.1019 29.751 21.8225 29.7765 21.5277C29.7839 21.4451 29.8061 21.365 29.8418 21.2918C29.8775 21.2186 29.9261 21.1538 29.9847 21.1011C30.0433 21.0485 30.1109 21.0089 30.1834 20.9848C30.256 20.9607 30.3323 20.9524 30.4078 20.9605C30.4833 20.9685 30.5566 20.9928 30.6236 21.0318C30.6905 21.0709 30.7498 21.124 30.7979 21.1881C30.8461 21.2522 30.8823 21.326 30.9044 21.4054C30.9264 21.4847 30.934 21.5681 30.9266 21.6506C30.9011 21.9301 30.8806 22.2095 30.864 22.4665C30.854 22.6252 30.7893 22.7738 30.6831 22.8824C30.5769 22.991 30.437 23.0516 30.2915 23.0519H30.2455ZM30.4538 20.5483C30.379 20.5364 30.3071 20.5084 30.2422 20.466C30.1773 20.4237 30.1207 20.3677 30.0756 20.3014C30.0305 20.2351 29.9978 20.1597 29.9794 20.0796C29.961 19.9995 29.9572 19.9161 29.9682 19.8344C30.0048 19.5624 30.0453 19.283 30.0896 18.9961C30.1147 18.8316 30.1985 18.6847 30.3226 18.5878C30.4468 18.4908 30.6011 18.4518 30.7515 18.4792C30.902 18.5066 31.0364 18.5983 31.125 18.734C31.2137 18.8697 31.2494 19.0384 31.2244 19.2029C31.1818 19.4823 31.1426 19.7543 31.1068 20.0188C31.0958 20.1006 31.0703 20.1792 31.0315 20.2501C30.9928 20.3211 30.9416 20.3829 30.881 20.4323C30.8203 20.4816 30.7514 20.5173 30.6781 20.5375C30.6048 20.5576 30.5286 20.5618 30.4538 20.5497V20.5483ZM30.8218 18.0657C30.7477 18.0495 30.6772 18.0175 30.6145 17.9715C30.5517 17.9255 30.4978 17.8664 30.4559 17.7977C30.414 17.7289 30.3849 17.6518 30.3703 17.5707C30.3557 17.4896 30.3558 17.4062 30.3707 17.3252C30.4201 17.0551 30.4725 16.7789 30.5279 16.4967C30.5438 16.416 30.574 16.3395 30.6169 16.2715C30.6598 16.2036 30.7146 16.1455 30.778 16.1007C30.8414 16.0559 30.9123 16.0252 30.9866 16.0103C31.0609 15.9954 31.1371 15.9967 31.2109 16.014C31.2848 16.0314 31.3548 16.0644 31.4169 16.1113C31.4791 16.1582 31.5322 16.2181 31.5732 16.2874C31.6142 16.3568 31.6423 16.4343 31.6559 16.5155C31.6695 16.5967 31.6683 16.68 31.6524 16.7608C31.5979 17.0402 31.5464 17.3112 31.4978 17.5739C31.4832 17.655 31.454 17.7321 31.412 17.8009C31.37 17.8696 31.3159 17.9286 31.253 17.9744C31.19 18.0203 31.1194 18.0521 31.0452 18.068C30.971 18.0838 30.8947 18.0835 30.8205 18.0671L30.8218 18.0657Z" fill="#F36A4F"/>
<path d="M31.2627 15C31.3966 14.9998 31.5266 14.9568 31.6317 14.8779C31.7368 14.799 31.811 14.6888 31.8423 14.565C32.0823 13.6143 32.3423 12.6888 32.638 11.7368C32.6617 11.665 32.67 11.5894 32.6627 11.5145C32.6553 11.4395 32.6323 11.3667 32.595 11.3003C32.5577 11.2339 32.5069 11.1752 32.4456 11.1276C32.3842 11.0801 32.3135 11.0446 32.2376 11.0233C32.1616 11.0019 32.082 10.9952 32.0033 11.0034C31.9246 11.0116 31.8484 11.0346 31.7791 11.0711C31.7099 11.1076 31.6489 11.1568 31.5999 11.2159C31.5508 11.275 31.5147 11.3428 31.4934 11.4153C31.1924 12.3862 30.9271 13.3293 30.6817 14.299C30.6607 14.3824 30.6598 14.4693 30.6792 14.5531C30.6985 14.6369 30.7377 14.7155 30.7936 14.7828C30.8495 14.8502 30.9208 14.9046 31.002 14.942C31.0833 14.9794 31.1724 14.9988 31.2627 14.9987V15Z" fill="#F36A4F"/>
<path d="M3.07886 16C3.23362 15.9997 3.38251 15.9388 3.49554 15.8296C3.60857 15.7204 3.67735 15.5711 3.68801 15.4116C3.69617 15.2838 3.87428 12.4205 3.00816 9.81979C5.31964 8.27509 11.3295 5.73055 11.3934 5.70386C11.4461 5.68469 11.495 5.65565 11.5375 5.6182C11.5375 5.6182 12.6253 4.8599 15.1747 5.57608C16.1414 5.84289 26.7131 9.28195 31.5209 11.5162C32.3095 11.8974 33.1559 12.1349 34.0228 12.2183C34.185 12.2265 34.3438 12.1678 34.4642 12.055C34.5845 11.9423 34.6566 11.7849 34.6645 11.6173C34.6725 11.4497 34.6156 11.2857 34.5065 11.1614C34.3973 11.0371 34.2449 10.9626 34.0826 10.9544C33.3692 10.878 32.6731 10.6796 32.0227 10.3675C27.1577 8.10236 16.4718 4.62819 15.501 4.35576C12.6593 3.55954 11.2384 4.31363 10.8781 4.55938C10.1398 4.87113 3.88516 7.53925 1.90953 9.07272C1.80181 9.15633 1.72383 9.27433 1.68769 9.40839C1.65154 9.54246 1.65927 9.6851 1.70965 9.81417C2.66144 12.2632 2.46972 15.2908 2.46836 15.3245C2.46281 15.4073 2.47312 15.4905 2.49868 15.5692C2.52424 15.6479 2.56456 15.7206 2.61734 15.7832C2.67012 15.8458 2.73432 15.897 2.80628 15.934C2.87823 15.9709 2.95654 15.9929 3.03671 15.9986L3.07886 16Z" fill="#F36A4F"/>
<path d="M29.8525 13.973L29.0432 13.7264C28.9618 13.7038 28.8857 13.665 28.8194 13.6123C28.7531 13.5596 28.6979 13.494 28.6572 13.4194C28.6164 13.3448 28.5908 13.2628 28.582 13.1781C28.5731 13.0933 28.5812 13.0077 28.6057 12.9262C28.6302 12.8447 28.6706 12.7689 28.7246 12.7034C28.7785 12.6379 28.845 12.584 28.9199 12.5448C28.9949 12.5056 29.0769 12.482 29.161 12.4753C29.2452 12.4686 29.3298 12.479 29.4099 12.5058L30.2149 12.7511C30.3755 12.7998 30.5104 12.9108 30.5898 13.0598C30.6693 13.2088 30.6868 13.3836 30.6385 13.5456C30.5903 13.7077 30.4802 13.8437 30.3325 13.9239C30.1848 14.004 30.0117 14.0217 29.8511 13.973H29.8525ZM27.5625 13.2642L26.756 13.0119C26.6009 12.9577 26.4727 12.8447 26.3987 12.6969C26.3246 12.5491 26.3105 12.378 26.3592 12.2198C26.4079 12.0616 26.5157 11.9287 26.6598 11.8493C26.8039 11.7699 26.9729 11.7501 27.1311 11.7942L27.9404 12.0494C28.0208 12.0731 28.0958 12.1127 28.1609 12.1659C28.2261 12.2191 28.2801 12.2849 28.3198 12.3593C28.3595 12.4338 28.3842 12.5155 28.3923 12.5996C28.4005 12.6838 28.392 12.7687 28.3673 12.8495C28.3426 12.9304 28.3023 13.0054 28.2486 13.0703C28.1949 13.1353 28.1289 13.1888 28.0546 13.2278C27.9802 13.2667 27.8989 13.2904 27.8154 13.2974C27.7319 13.3044 27.6478 13.2946 27.5681 13.2685L27.5625 13.2642ZM25.2795 12.5455L24.4744 12.2875C24.3953 12.2621 24.3219 12.2212 24.2584 12.1672C24.1949 12.1131 24.1426 12.047 24.1044 11.9726C24.0663 11.8981 24.043 11.8169 24.036 11.7333C24.029 11.6498 24.0383 11.5658 24.0635 11.4859C24.0887 11.406 24.1292 11.332 24.1828 11.2679C24.2363 11.2038 24.3019 11.1511 24.3756 11.1126C24.4494 11.074 24.53 11.0506 24.6127 11.0435C24.6955 11.0364 24.7788 11.0458 24.858 11.0713L25.6602 11.3278C25.741 11.3516 25.8163 11.3915 25.8817 11.445C25.947 11.4986 26.0011 11.5648 26.0408 11.6397C26.0805 11.7147 26.1049 11.7968 26.1127 11.8814C26.1204 11.966 26.1114 12.0513 26.086 12.1323C26.0606 12.2134 26.0195 12.2884 25.965 12.3532C25.9105 12.4179 25.8437 12.471 25.7686 12.5094C25.6934 12.5478 25.6115 12.5706 25.5275 12.5765C25.4435 12.5825 25.3592 12.5715 25.2795 12.5441V12.5455ZM1.66837 11.7077C1.65186 11.5402 1.70166 11.3728 1.80694 11.2422C1.91221 11.1115 2.06441 11.0282 2.23034 11.0103C2.45677 10.9749 2.67836 10.913 2.89065 10.826C2.96884 10.7968 3.05198 10.7835 3.13529 10.7868C3.21859 10.7901 3.30042 10.8101 3.37607 10.8455C3.45171 10.8808 3.51967 10.9309 3.57604 10.9929C3.63241 11.0549 3.67607 11.1275 3.70451 11.2066C3.73295 11.2857 3.74561 11.3697 3.74175 11.4537C3.7379 11.5377 3.71761 11.6202 3.68206 11.6963C3.6465 11.7724 3.59638 11.8406 3.53458 11.8971C3.47278 11.9535 3.40052 11.9971 3.32197 12.0253C3.01067 12.1494 2.68565 12.2351 2.35398 12.2804H2.29075C2.1354 12.2788 1.98607 12.2195 1.87127 12.1139C1.75648 12.0083 1.68425 11.8637 1.66837 11.7077ZM22.9993 11.8197L22.1957 11.5561C22.0405 11.5001 21.9131 11.3853 21.8406 11.236C21.7681 11.0867 21.7563 10.9148 21.8075 10.7568C21.8588 10.5988 21.9692 10.4673 22.1152 10.3902C22.2611 10.3131 22.4312 10.2965 22.589 10.344L23.3884 10.6063C23.4694 10.6304 23.5447 10.6706 23.61 10.7246C23.6753 10.7786 23.7292 10.8452 23.7685 10.9205C23.8079 10.9958 23.8319 11.0783 23.8392 11.1632C23.8464 11.248 23.8368 11.3334 23.8108 11.4145C23.7848 11.4955 23.743 11.5704 23.6879 11.6349C23.6328 11.6993 23.5654 11.752 23.4897 11.7898C23.4141 11.8275 23.3317 11.8497 23.2475 11.8548C23.1633 11.8599 23.0789 11.848 22.9993 11.8197ZM3.9612 11.0812C3.92556 11.0053 3.9051 10.9232 3.90099 10.8393C3.89689 10.7555 3.90922 10.6717 3.93728 10.5927C3.96534 10.5136 4.00858 10.441 4.06452 10.3789C4.12045 10.3167 4.18799 10.2664 4.26326 10.2306C4.50491 10.1158 4.75498 9.99249 5.01208 9.86349C5.08665 9.82414 5.16826 9.80021 5.25211 9.79309C5.33597 9.78598 5.42039 9.79583 5.50042 9.82207C5.58046 9.8483 5.65449 9.8904 5.71819 9.94588C5.78189 10.0014 5.83397 10.0691 5.87138 10.1452C5.90879 10.2212 5.93078 10.3041 5.93605 10.3888C5.94132 10.4735 5.92977 10.5585 5.90207 10.6387C5.87438 10.7189 5.8311 10.7927 5.77478 10.8557C5.71845 10.9188 5.65021 10.9699 5.57405 11.006C5.30993 11.1379 5.05283 11.2655 4.80416 11.3831C4.729 11.4191 4.64754 11.4397 4.56446 11.4439C4.48137 11.448 4.3983 11.4356 4.31999 11.4073C4.24168 11.3789 4.16968 11.3353 4.10811 11.2789C4.04654 11.2224 3.99662 11.1543 3.9612 11.0783V11.0812ZM20.7219 11.0571L19.9197 10.7821C19.8392 10.7565 19.7646 10.715 19.7002 10.6598C19.6359 10.6047 19.5832 10.5372 19.5451 10.4612C19.5071 10.3852 19.4845 10.3022 19.4787 10.2173C19.4729 10.1323 19.4841 10.0471 19.5114 9.96654C19.5388 9.886 19.5819 9.81181 19.6382 9.74834C19.6944 9.68487 19.7627 9.6334 19.839 9.59698C19.9153 9.56055 19.998 9.53991 20.0823 9.53626C20.1666 9.53261 20.2508 9.54603 20.3299 9.57572L21.1251 9.84789C21.2042 9.87428 21.2773 9.91618 21.3403 9.97118C21.4033 10.0262 21.4549 10.0932 21.4922 10.1684C21.5294 10.2436 21.5515 10.3254 21.5573 10.4093C21.5631 10.4931 21.5524 10.5773 21.5258 10.657C21.4993 10.7366 21.4574 10.8102 21.4025 10.8735C21.3477 10.9368 21.281 10.9885 21.2063 11.0256C21.1316 11.0628 21.0503 11.0847 20.9672 11.0901C20.8841 11.0955 20.8007 11.0843 20.7219 11.0571ZM6.11073 10.0223C6.034 9.87187 6.01961 9.69689 6.07072 9.53579C6.12183 9.3747 6.23426 9.24068 6.38329 9.16321L7.13351 8.77196C7.28256 8.69433 7.45606 8.67961 7.61586 8.73105C7.77565 8.78249 7.90865 8.89588 7.9856 9.04626C8.06254 9.19665 8.07713 9.37171 8.02614 9.53295C7.97516 9.69418 7.86279 9.82838 7.71374 9.90602L6.96352 10.2973C6.81447 10.3747 6.64105 10.3892 6.48139 10.3376C6.32173 10.2861 6.18891 10.1726 6.11214 10.0223H6.11073ZM18.4544 10.2604L17.6578 9.97689C17.5796 9.9485 17.5078 9.90487 17.4464 9.84847C17.385 9.79207 17.3352 9.72402 17.2998 9.6482C17.2284 9.49507 17.2202 9.3196 17.277 9.16038C17.3339 9.00116 17.451 8.87123 17.6028 8.79919C17.7546 8.72714 17.9285 8.71888 18.0863 8.77621L18.8772 9.05973C18.9581 9.08556 19.0329 9.12754 19.0974 9.18317C19.1618 9.23879 19.2145 9.30693 19.2523 9.38351C19.2901 9.4601 19.3122 9.54358 19.3174 9.62897C19.3225 9.71437 19.3106 9.79995 19.2823 9.8806C19.2541 9.96126 19.21 10.0354 19.1527 10.0985C19.0955 10.1616 19.0263 10.2125 18.9491 10.248C18.872 10.2836 18.7886 10.3031 18.7038 10.3055C18.6191 10.3079 18.5347 10.293 18.4558 10.2618L18.4544 10.2604ZM16.2065 9.43396L15.4127 9.13486C15.3277 9.11143 15.2486 9.07035 15.1803 9.01425C15.112 8.95815 15.056 8.88827 15.0161 8.80909C14.9761 8.72991 14.9529 8.64317 14.9481 8.55444C14.9433 8.46571 14.9569 8.37694 14.9881 8.29382C15.0192 8.2107 15.0672 8.13507 15.1291 8.07178C15.1909 8.00848 15.2651 7.95891 15.347 7.92625C15.4289 7.8936 15.5167 7.87857 15.6047 7.88213C15.6927 7.88569 15.779 7.90776 15.8581 7.94694L16.6448 8.24463C16.8021 8.30346 16.9297 8.42292 16.9996 8.57671C17.0696 8.7305 17.0761 8.90603 17.0178 9.06469C16.9595 9.22334 16.8411 9.35213 16.6887 9.42271C16.5363 9.49329 16.3623 9.49989 16.2051 9.44105L16.2065 9.43396ZM8.23637 8.91372C8.16291 8.76316 8.15121 8.58945 8.20381 8.43024C8.2564 8.27104 8.36906 8.13915 8.51736 8.06318C8.81239 7.92142 9.06387 7.79101 9.29006 7.68327C9.44085 7.61713 9.61125 7.61286 9.7651 7.67138C9.91896 7.7299 10.0442 7.84659 10.1142 7.9967C10.1842 8.14682 10.1935 8.31855 10.1401 8.47545C10.0867 8.63236 9.97478 8.76211 9.82815 8.83717C9.61179 8.93923 9.36734 9.05973 9.08214 9.20432C8.93292 9.27844 8.76076 9.29025 8.60297 9.23718C8.44519 9.18411 8.31448 9.07044 8.23918 8.92081L8.23637 8.91372ZM13.9558 8.57775L13.4149 8.36228L13.3264 8.35378C13.2434 8.34559 13.1628 8.32098 13.0892 8.28135C13.0156 8.24173 12.9504 8.18786 12.8975 8.12284C12.8445 8.05781 12.8047 7.98289 12.7805 7.90236C12.7562 7.82184 12.7479 7.73727 12.756 7.6535C12.7641 7.56973 12.7885 7.48839 12.8278 7.41413C12.8671 7.33987 12.9204 7.27415 12.9849 7.2207C13.0493 7.16726 13.1236 7.12715 13.2034 7.10266C13.2832 7.07817 13.367 7.06978 13.45 7.07797L13.6425 7.09781C13.6989 7.10452 13.7542 7.11883 13.8069 7.14034C13.828 7.14885 14.0415 7.23532 14.4152 7.38275C14.4937 7.41241 14.5655 7.45753 14.6266 7.51546C14.6876 7.57339 14.7366 7.64299 14.7708 7.72021C14.8049 7.79743 14.8235 7.88072 14.8254 7.96526C14.8274 8.04979 14.8127 8.13386 14.7821 8.2126C14.7516 8.29134 14.7058 8.36316 14.6475 8.4239C14.5892 8.48463 14.5195 8.53307 14.4425 8.56639C14.3655 8.5997 14.2827 8.61724 14.1989 8.61798C14.1151 8.61871 14.032 8.60263 13.9544 8.57067L13.9558 8.57775ZM10.3789 7.8066C10.3652 7.72394 10.3678 7.63938 10.3865 7.55773C10.4052 7.47609 10.4397 7.39897 10.488 7.33078C10.5363 7.26259 10.5974 7.20466 10.6679 7.16031C10.7383 7.11596 10.8168 7.08605 10.8987 7.0723C11.2102 7.02389 11.5249 6.99972 11.84 7C12.0077 7 12.1685 7.06721 12.287 7.18684C12.4056 7.30647 12.4722 7.46872 12.4722 7.63791C12.4722 7.80709 12.4056 7.96934 12.287 8.08897C12.1685 8.20861 12.0077 8.27581 11.84 8.27581C11.5922 8.27445 11.3447 8.29198 11.0996 8.32826C10.9357 8.35415 10.7682 8.31395 10.6334 8.21636C10.4985 8.11876 10.4071 7.97159 10.3789 7.8066Z" fill="#F36A4F"/>
<path d="M14.4105 39.4821C15.3267 39.4726 16.241 39.3931 17.1462 39.2442H17.1669C19.1123 38.9438 21.3119 38.6028 23.0307 37.4419C24.4123 36.5103 25.3519 35.3089 26.2665 34.1466C27.2696 32.8711 28.2174 31.6667 29.6737 30.8787C30.2286 30.5584 30.8353 30.3488 31.463 30.2606C31.5941 30.2549 31.7254 30.2617 31.8553 30.2809C32.0843 30.3145 32.3164 30.3179 32.5462 30.2911C33.1582 30.1953 33.6198 29.7106 33.9901 29.313C34.0799 29.2187 34.1642 29.1288 34.2388 29.0577C34.3059 29.0025 34.3615 28.9335 34.4022 28.8548C34.4429 28.7762 34.4677 28.6896 34.4752 28.6004C34.4827 28.5113 34.4726 28.4214 34.4456 28.3365C34.4187 28.2516 34.3753 28.1735 34.3184 28.1069C34.2614 28.0403 34.1921 27.9867 34.1146 27.9494C34.0371 27.9122 33.9531 27.8921 33.8679 27.8903C33.7827 27.8886 33.6981 27.9053 33.6193 27.9393C33.5404 27.9734 33.4691 28.0241 33.4098 28.0883C33.3103 28.1827 33.2094 28.29 33.1113 28.3931C32.882 28.6354 32.5697 28.9735 32.3666 28.9996C32.2378 29.0074 32.1087 29.0016 31.9811 28.9822C31.7654 28.9519 31.5473 28.9455 31.3303 28.9633C30.5502 29.0675 29.7953 29.3234 29.1045 29.7179C27.4216 30.6277 26.3411 31.9946 25.3077 33.3151C24.4137 34.4498 23.5709 35.5222 22.3564 36.3449C20.8698 37.352 18.8056 37.6712 16.9859 37.9527H16.9652C14.1093 38.388 12.3241 38.1616 10.9784 37.2431C9.51799 36.2477 7.86573 31.6017 5.96871 28.1932C5.59151 27.517 5.19774 26.8451 4.81778 26.198C3.83819 24.5278 2.91247 22.9505 2.68312 21.9463C1.9011 18.516 3.49139 15.7212 3.51211 15.6937C3.59841 15.5461 3.62535 15.3685 3.587 15.2001C3.54865 15.0316 3.44816 14.8861 3.30763 14.7955C3.1671 14.7048 2.99804 14.6765 2.83765 14.7168C2.67726 14.7571 2.53868 14.8626 2.45238 15.0102C1.28668 17.2144 0.939667 19.794 1.47831 22.2511C1.75464 23.4598 2.68588 25.0473 3.76358 26.8843C4.14077 27.5271 4.5304 28.1903 4.8993 28.8549C6.95797 32.558 8.59642 37.1735 10.2986 38.3343C11.5905 39.2209 12.9155 39.4821 14.4105 39.4821Z" fill="#F36A4F"/>
<path d="M14.1497 37.974C14.072 37.9676 13.9961 37.9436 13.9264 37.9031C13.8568 37.8626 13.7946 37.8066 13.7435 37.7381C13.6924 37.6697 13.6534 37.5902 13.6287 37.5042C13.604 37.4182 13.5941 37.3274 13.5995 37.2369C13.6049 37.1465 13.6256 37.0582 13.6604 36.977C13.6951 36.8959 13.7433 36.8235 13.8021 36.764C13.8608 36.7045 13.9291 36.6591 14.003 36.6303C14.0768 36.6016 14.1548 36.59 14.2325 36.5963C14.4442 36.6132 14.6585 36.6224 14.8688 36.6224H14.9727C15.1296 36.6201 15.2808 36.6906 15.3932 36.8182C15.5055 36.9458 15.5696 37.1201 15.5715 37.3028C15.5735 37.4855 15.513 37.6615 15.4034 37.7923C15.2938 37.9231 15.1441 37.9978 14.9872 38H14.8702C14.6309 37.9985 14.389 37.9985 14.1497 37.974ZM15.8338 37.2744C15.8096 37.094 15.848 36.9098 15.9404 36.7622C16.0329 36.6147 16.1719 36.5159 16.3268 36.4877C16.5674 36.4433 16.8277 36.3958 17.1012 36.3438C17.1783 36.3278 17.2574 36.3298 17.3339 36.3497C17.4103 36.3696 17.4826 36.407 17.5466 36.4597C17.6106 36.5124 17.6649 36.5793 17.7064 36.6567C17.748 36.734 17.7759 36.8202 17.7886 36.9102C17.8013 37.0002 17.7986 37.0923 17.7805 37.181C17.7624 37.2698 17.7293 37.3534 17.6832 37.4272C17.6371 37.501 17.5789 37.5633 17.5119 37.6107C17.445 37.658 17.3706 37.6894 17.2931 37.703C17.0157 37.7566 16.7515 37.8041 16.5043 37.8561C16.3493 37.8843 16.1911 37.8396 16.0644 37.732C15.9376 37.6244 15.8528 37.4625 15.8286 37.2821L15.8338 37.2744ZM12.6562 37.7505C12.3578 37.6908 12.0922 37.6265 11.8424 37.553C11.6944 37.5045 11.5685 37.3908 11.4913 37.236C11.4141 37.0813 11.3917 36.8976 11.4287 36.7239C11.4658 36.5502 11.5595 36.4001 11.69 36.3055C11.8204 36.2108 11.9774 36.179 12.1277 36.2167C12.3499 36.281 12.5891 36.3392 12.8587 36.3928C12.9352 36.4082 13.0084 36.4411 13.0741 36.4895C13.1397 36.538 13.1966 36.601 13.2413 36.6749C13.286 36.7489 13.3178 36.8324 13.3349 36.9207C13.3519 37.009 13.3538 37.1003 13.3405 37.1895C13.3272 37.2786 13.299 37.3639 13.2574 37.4403C13.2158 37.5168 13.1617 37.5829 13.0981 37.635C13.0346 37.6871 12.9629 37.7241 12.887 37.7439C12.8112 37.7637 12.7328 37.766 12.6562 37.7505ZM18.0465 36.8596C18.0309 36.771 18.0305 36.6796 18.0453 36.5908C18.0601 36.502 18.0897 36.4174 18.1326 36.3419C18.1754 36.2664 18.2306 36.2015 18.295 36.1509C18.3594 36.1003 18.4318 36.0649 18.5079 36.0468C18.7709 35.9856 19.0233 35.9198 19.2612 35.8555C19.414 35.8135 19.5748 35.8438 19.7083 35.9398C19.8418 36.0359 19.9371 36.1897 19.9732 36.3675C20.0092 36.5453 19.9832 36.7325 19.9007 36.888C19.8182 37.0434 19.6861 37.1544 19.5334 37.1964C19.2836 37.2653 19.018 37.3326 18.7446 37.3984C18.6684 37.4165 18.59 37.417 18.5137 37.3998C18.4374 37.3826 18.3647 37.3481 18.2999 37.2982C18.2351 37.2483 18.1793 37.184 18.1358 37.109C18.0924 37.034 18.062 36.9498 18.0465 36.8612V36.8596ZM10.3358 36.8749L10.2424 36.8061C10.0196 36.6333 9.81017 36.4382 9.61661 36.2229C9.55854 36.1614 9.51156 36.0871 9.4784 36.0042C9.44524 35.9214 9.42657 35.8317 9.42348 35.7404C9.42038 35.6491 9.43292 35.558 9.46037 35.4723C9.48782 35.3867 9.52962 35.3083 9.58335 35.2417C9.63708 35.1751 9.70166 35.1216 9.77332 35.0843C9.84499 35.047 9.92231 35.0267 10.0008 35.0246C10.0792 35.0225 10.1573 35.0385 10.2304 35.0718C10.3035 35.1052 10.3701 35.1551 10.4265 35.2187C10.5688 35.3778 10.7228 35.5223 10.8866 35.6504L10.9484 35.6948C11.0149 35.7416 11.0728 35.8032 11.1188 35.8761C11.1648 35.949 11.198 36.0317 11.2166 36.1196C11.2351 36.2074 11.2387 36.2986 11.2269 36.3881C11.2152 36.4775 11.1885 36.5633 11.1482 36.6407C11.108 36.7181 11.0551 36.7855 10.9925 36.8391C10.9299 36.8927 10.8588 36.9314 10.7834 36.953C10.7079 36.9746 10.6296 36.9787 10.5528 36.965C10.476 36.9514 10.4022 36.9202 10.3358 36.8734V36.8749ZM20.2289 36.2902C20.1788 36.1171 20.1899 35.9279 20.2597 35.7642C20.3295 35.6006 20.4522 35.476 20.6009 35.4177C20.852 35.3197 21.0834 35.2157 21.2898 35.1116C21.4337 35.0383 21.5966 35.0345 21.7428 35.1011C21.889 35.1677 22.0065 35.2992 22.0694 35.4667C22.1324 35.6341 22.1356 35.8239 22.0784 35.9941C22.0212 36.1643 21.9083 36.3011 21.7644 36.3744C21.5265 36.4953 21.2622 36.6132 20.9756 36.7249C20.902 36.754 20.8242 36.7658 20.7466 36.7598C20.669 36.7537 20.5933 36.7298 20.5236 36.6896C20.454 36.6493 20.3919 36.5935 20.3408 36.5252C20.2898 36.4569 20.2509 36.3776 20.2262 36.2917L20.2289 36.2902ZM22.2943 35.2983C22.1998 35.1525 22.159 34.9691 22.1807 34.7883C22.2024 34.6074 22.2848 34.444 22.4099 34.334C22.5993 34.1671 22.7912 33.9834 22.9779 33.7875C23.0344 33.7198 23.1022 33.6663 23.1772 33.6303C23.2522 33.5944 23.3328 33.5768 23.4138 33.5786C23.4949 33.5805 23.5748 33.6017 23.6486 33.641C23.7223 33.6803 23.7883 33.7368 23.8425 33.8071C23.8967 33.8773 23.9379 33.9598 23.9636 34.0493C23.9892 34.1389 23.9988 34.2336 23.9917 34.3277C23.9846 34.4218 23.961 34.5131 23.9222 34.5961C23.8835 34.679 23.8306 34.7519 23.7667 34.81C23.5537 35.0335 23.3368 35.2432 23.1199 35.433C22.9947 35.543 22.8371 35.5905 22.6818 35.5653C22.5265 35.54 22.3862 35.444 22.2916 35.2983H22.2943ZM8.58852 34.8911C8.43339 34.6615 8.26905 34.4059 8.10077 34.1334C8.05323 34.0602 8.01874 33.9767 7.99933 33.8877C7.97991 33.7988 7.97596 33.7062 7.98771 33.6154C7.99946 33.5247 8.02666 33.4376 8.06773 33.3592C8.1088 33.2809 8.16291 33.2129 8.22686 33.1592C8.29082 33.1056 8.36334 33.0673 8.44017 33.0468C8.517 33.0262 8.59658 33.0237 8.67424 33.0395C8.7519 33.0552 8.82608 33.0889 8.89241 33.1385C8.95874 33.1881 9.01589 33.2526 9.0605 33.3283C9.21958 33.5855 9.37471 33.8258 9.51933 34.0401C9.56732 34.1112 9.60281 34.1927 9.62377 34.2798C9.64472 34.367 9.65073 34.458 9.64145 34.5479C9.63217 34.6377 9.60779 34.7245 9.56969 34.8034C9.53159 34.8822 9.48053 34.9516 9.41941 35.0075C9.35829 35.0634 9.28832 35.1047 9.21349 35.1291C9.13865 35.1535 9.06043 35.1605 8.98327 35.1497C8.90612 35.1389 8.83154 35.1105 8.76381 35.0661C8.69608 35.0218 8.63652 34.9623 8.58852 34.8911ZM23.9876 33.613C23.8703 33.4918 23.7992 33.3213 23.7898 33.139C23.7804 32.9568 23.8336 32.7777 23.9376 32.641C24.0862 32.4466 24.2453 32.2293 24.4385 31.9599C24.5391 31.8196 24.6835 31.7316 24.8398 31.7152C24.9961 31.6989 25.1516 31.7555 25.272 31.8726C25.3925 31.9897 25.4681 32.1578 25.4821 32.3398C25.4962 32.5218 25.4476 32.7028 25.347 32.8431C25.1458 33.1232 24.9789 33.3497 24.8211 33.5548C24.717 33.6914 24.5706 33.7742 24.414 33.7851C24.2575 33.796 24.1036 33.7341 23.9863 33.613H23.9876ZM25.4338 31.6307C25.3747 31.5719 25.3261 31.5 25.2909 31.4193C25.2556 31.3386 25.2344 31.2506 25.2285 31.1603C25.2225 31.07 25.2318 30.9793 25.256 30.8932C25.2802 30.8071 25.3187 30.7275 25.3693 30.6588C25.5639 30.3939 25.7414 30.1628 25.911 29.9516C26.0188 29.8208 26.1664 29.7448 26.322 29.74C26.4776 29.7351 26.6285 29.8018 26.7421 29.9257C26.8557 30.0495 26.9229 30.2205 26.929 30.4015C26.9351 30.5826 26.8797 30.7591 26.7747 30.893C26.617 31.0889 26.4513 31.3062 26.2673 31.5557C26.1652 31.6943 26.0201 31.7799 25.8638 31.794C25.7076 31.8081 25.5529 31.7494 25.4338 31.6307ZM26.9365 29.7021C26.8877 29.6315 26.8514 29.5505 26.8296 29.4636C26.8078 29.3767 26.8009 29.2857 26.8093 29.1957C26.8177 29.1057 26.8413 29.0185 26.8787 28.9392C26.9161 28.8598 26.9665 28.7898 27.0272 28.7331C27.2478 28.5268 27.4773 28.3336 27.7148 28.1545C27.8466 28.0553 28.0068 28.021 28.1603 28.0594C28.3138 28.0977 28.4479 28.2054 28.5332 28.3589C28.6184 28.5123 28.6478 28.6989 28.6149 28.8776C28.582 29.0563 28.4894 29.2125 28.3576 29.3117C28.1542 29.4653 27.9576 29.6308 27.7687 29.8077C27.7081 29.8644 27.6385 29.9067 27.5639 29.9321C27.4892 29.9575 27.411 29.9655 27.3338 29.9557C27.2565 29.9459 27.1816 29.9184 27.1134 29.8749C27.0452 29.8314 26.9851 29.7727 26.9365 29.7021ZM28.7691 28.2158C28.712 28.0457 28.7152 27.8561 28.7781 27.6887C28.8409 27.5214 28.9583 27.39 29.1044 27.3234C29.3766 27.1971 29.6565 27.0947 29.9419 27.0172C30.0949 26.9766 30.2556 27.0085 30.3885 27.1058C30.5214 27.2031 30.6156 27.3579 30.6505 27.5361C30.6853 27.7143 30.658 27.9014 30.5744 28.0561C30.4908 28.2108 30.3579 28.3206 30.2048 28.3612C29.9773 28.4223 29.7541 28.5031 29.5369 28.603C29.3908 28.6696 29.228 28.6658 29.0843 28.5927C28.9405 28.5195 28.8277 28.3828 28.7705 28.2127L28.7691 28.2158Z" fill="#F36A4F"/>
<path d="M33.4242 27.9999C33.4669 28 33.5095 27.9955 33.5514 27.9866C34.019 27.8874 34.6195 27.917 35.2552 27.9481C36.1962 27.994 36.6822 28.165 37.5115 27.8156C39.2409 27.0871 39.611 24.9802 39.611 22.5C39.611 22.0647 39.611 21.6234 39.6237 21.1807C39.6463 19.5652 39.6653 18 39.611 16.3343C39.5489 15.973 39.498 15.5821 39.4443 15.169C39.2522 13.675 39.4839 12.16 38.55 10.9177C37.7828 9.89746 36.8659 9.82272 36.0055 10.4505C35.8755 10.5453 35.7582 10.6356 35.648 10.7186C35.0829 11.1509 34.8667 11.3108 34.1462 11.3108C33.9775 11.3108 33.8158 11.381 33.6966 11.506C33.5774 11.631 33.5104 11.8004 33.5104 11.9772C33.5104 12.1539 33.5774 12.3234 33.6966 12.4483C33.8158 12.5733 33.9775 12.6435 34.1462 12.6435C35.2764 12.6435 35.3824 12.6231 36.0055 12.1493C36.1086 12.0708 36.2188 11.9864 36.3431 11.8961C36.7317 11.6118 37.212 11.7525 37.5115 12.1493C38.011 12.811 38.0032 13.9504 38.1812 15.3408C38.2363 15.7702 38.2886 16.1744 38.3564 16.5668C38.3564 18 38.3705 19.6037 38.3493 21.1555C38.3493 21.5997 38.3366 22.0513 38.3366 22.4882C38.3366 23.4092 38.8085 25.821 37.034 26.5673C36.4688 26.8087 36.1171 26.6451 35.3118 26.6051C34.6265 26.5711 33.9173 26.537 33.2956 26.6688C33.1412 26.7016 33.004 26.7934 32.9105 26.9263C32.817 27.0592 32.7739 27.2237 32.7895 27.388C32.8052 27.5523 32.8785 27.7047 32.9952 27.8155C33.112 27.9264 33.2638 27.9879 33.4214 27.9881L33.4242 27.9999Z" fill="#F36A4F"/>
<path d="M2.43167 18C3.62454 18 4.71196 16.9685 5.51862 16.2041C5.61723 16.1104 5.71036 16.0214 5.79253 15.9401C6.09657 15.6592 6.365 15.3875 6.62385 15.1235C7.4894 14.2439 8.11528 13.6084 9.28076 13.4503C11.1009 13.2047 13.01 13.6698 14.6576 14.1257C15.4793 14.3514 17.5446 15.082 18.2184 15.4304C18.3882 15.5179 18.9319 15.7681 19.8345 16.1734C19.9851 16.2361 20.1516 16.2303 20.2985 16.1574C20.4454 16.0845 20.5611 15.9501 20.621 15.783C20.6808 15.6159 20.68 15.4292 20.6188 15.2627C20.5576 15.0962 20.4408 14.9631 20.2933 14.8917C19.1333 14.3698 18.8183 14.2194 18.7334 14.1748C17.9116 13.7527 15.7313 13.0006 14.9507 12.7841C13.1977 12.2991 11.1584 11.8048 9.13148 12.0781C7.57568 12.2884 6.71013 13.1679 5.7939 14.0996C5.54464 14.3529 5.28854 14.6138 5.00778 14.8671C4.91602 14.9515 4.81742 15.0452 4.7147 15.1434C4.02993 15.7912 3.09179 16.6784 2.3358 16.6078C2.17235 16.5923 2.01011 16.6502 1.88477 16.7688C1.75943 16.8874 1.68127 17.057 1.66746 17.2402C1.65366 17.4234 1.70535 17.6052 1.81117 17.7457C1.91699 17.8862 2.06826 17.9738 2.23171 17.9893C2.30019 17.9964 2.36684 18 2.43167 18Z" fill="#F36A4F"/>
<path d="M25.1211 18C25.2479 18 25.3707 17.9604 25.4684 17.888C25.566 17.8157 25.6323 17.7152 25.6558 17.6038C25.6793 17.4925 25.6586 17.3773 25.5972 17.2781C25.5358 17.179 25.4375 17.1021 25.3195 17.0608C24.336 16.716 23.3235 16.3583 22.4271 16.0405C22.3602 16.0144 22.2881 16.0007 22.2151 16C22.1421 15.9994 22.0697 16.0118 22.0022 16.0367C21.9347 16.0615 21.8735 16.0983 21.8222 16.1447C21.771 16.1911 21.7306 16.2462 21.7037 16.3069C21.6768 16.3675 21.6637 16.4323 21.6654 16.4975C21.6671 16.5627 21.6834 16.6269 21.7134 16.6864C21.7435 16.7458 21.7866 16.7993 21.8402 16.8435C21.8938 16.8878 21.9568 16.922 22.0255 16.9441C22.9231 17.2629 23.938 17.6206 24.9227 17.9654C24.9858 17.988 25.0531 17.9997 25.1211 18Z" fill="#F36A4F"/>
<path d="M26.9212 18.9999C27.0954 18.9977 27.2631 18.9605 27.3962 18.8946C27.5292 18.8286 27.6195 18.7379 27.652 18.6376C27.6844 18.5374 27.6571 18.4336 27.5745 18.3437C27.4919 18.2538 27.3592 18.1833 27.1984 18.1439L26.7133 18.033C26.62 18.0107 26.52 17.9995 26.4192 18C26.3184 18.0005 26.2188 18.0128 26.1261 18.036C26.0335 18.0593 25.9496 18.0931 25.8795 18.1355C25.8094 18.1779 25.7543 18.228 25.7176 18.283C25.6808 18.338 25.6631 18.3967 25.6655 18.4557C25.6678 18.5147 25.6902 18.5728 25.7312 18.6268C25.7723 18.6807 25.8313 18.7293 25.9047 18.7697C25.9781 18.8101 26.0646 18.8416 26.159 18.8623L26.6457 18.9732C26.7339 18.992 26.8273 19.0011 26.9212 18.9999Z" fill="#F36A4F"/>
<path d="M30.0123 20C30.1658 20.0002 30.3144 19.9448 30.432 19.8436C30.5496 19.7424 30.6287 19.6019 30.6553 19.4467C30.682 19.2916 30.6545 19.1318 30.5777 18.9954C30.501 18.859 30.3798 18.7548 30.2355 18.701C29.9326 18.588 29.3499 18.3603 28.5526 18.0449C28.4727 18.0132 28.3874 17.998 28.3018 18.0002C28.2161 18.0024 28.1317 18.0218 28.0533 18.0575C27.975 18.0931 27.9043 18.1443 27.8452 18.208C27.7861 18.2717 27.7398 18.3467 27.709 18.4288C27.6781 18.5108 27.6634 18.5983 27.6655 18.6863C27.6676 18.7742 27.6865 18.8608 27.7213 18.9412C27.756 19.0217 27.8058 19.0943 27.8679 19.1549C27.9299 19.2156 28.003 19.2631 28.083 19.2947C28.8889 19.6146 29.4803 19.8453 29.7905 19.9613C29.8617 19.9873 29.9367 20.0004 30.0123 20Z" fill="#F36A4F"/>
<path d="M4.33256 22.999C4.38949 22.9992 4.44622 22.9946 4.50138 22.9855H4.52828C4.75986 22.9467 4.99741 22.8982 5.25289 22.839C5.41127 22.7959 5.53823 22.7151 5.60774 22.6131C5.67724 22.5112 5.68402 22.3958 5.62669 22.2907C5.56935 22.1857 5.45225 22.0988 5.2994 22.048C5.14655 21.9972 4.96954 21.9862 4.80468 22.0175C4.58804 22.0679 4.38933 22.1086 4.19809 22.1406H4.1712C4.01243 22.167 3.87393 22.23 3.78175 22.318C3.68956 22.4059 3.65003 22.5127 3.67058 22.6183C3.69113 22.7238 3.77035 22.8209 3.89335 22.8911C4.01635 22.9614 4.17466 23.0001 4.33853 23L4.33256 22.999Z" fill="#F36A4F"/>
<path d="M20.0661 23.9995C20.2114 23.9974 20.3512 23.9268 20.4602 23.8005C20.5691 23.6742 20.6399 23.5007 20.6596 23.3115C20.6794 23.1223 20.6468 22.9301 20.5677 22.7699C20.4887 22.6098 20.3685 22.4922 20.229 22.4388C19.6583 22.23 19.0431 22.007 18.4199 21.8106C18.0161 21.6815 17.6028 21.5452 17.1896 21.409C13.9725 20.3472 10.6451 19.2431 7.32566 20.7012C7.23592 20.7413 7.14394 20.7837 7.04972 20.8286C6.90211 20.9047 6.78311 21.0539 6.71825 21.2441C6.6534 21.4343 6.64787 21.6504 6.70285 21.8459C6.75782 22.0414 6.86893 22.2008 7.01231 22.2898C7.15568 22.3788 7.3199 22.3904 7.46969 22.322C7.54866 22.2843 7.62852 22.2477 7.70929 22.2123C10.6935 20.9064 13.846 21.9504 16.8948 22.959C17.3121 23.0971 17.7253 23.2351 18.1372 23.3643C18.7416 23.5554 19.3487 23.773 19.9046 23.9783C19.9575 23.9949 20.0118 24.002 20.0661 23.9995Z" fill="#F36A4F"/>
<path d="M23.105 24C23.2426 24.0003 23.3756 23.9624 23.4783 23.8937C23.5811 23.825 23.6464 23.7303 23.6618 23.6277C23.6772 23.5252 23.6415 23.4219 23.5617 23.3378C23.4819 23.2537 23.3635 23.1947 23.2292 23.172C22.9659 23.1273 22.6839 23.0789 22.366 23.0137C22.2225 22.9855 22.07 23.0012 21.942 23.0574C21.814 23.1135 21.721 23.2055 21.6835 23.3131C21.6459 23.4207 21.6669 23.535 21.7418 23.631C21.8167 23.727 21.9393 23.7967 22.0828 23.8249C22.4119 23.8892 22.7038 23.9432 22.9808 23.9898C23.0215 23.9966 23.0632 24.0001 23.105 24Z" fill="#F36A4F"/>
<path d="M26.8802 25C28.2117 25 29.582 24.7944 30.4276 24.1009C30.493 24.0499 30.5475 23.9865 30.5877 23.9144C30.6279 23.8423 30.6531 23.763 30.6618 23.6812C30.6706 23.5993 30.6626 23.5166 30.6384 23.4378C30.6142 23.3591 30.5743 23.2859 30.521 23.2226C30.4677 23.1593 30.4022 23.1072 30.3282 23.0693C30.2542 23.0314 30.1732 23.0085 30.0901 23.0019C30.007 22.9954 29.9234 23.0054 29.8443 23.0312C29.7651 23.0571 29.692 23.0983 29.6292 23.1524C28.9572 23.7007 27.4078 23.8967 25.3599 23.6815C25.1951 23.6633 25.0297 23.7105 24.9002 23.8127C24.8361 23.8633 24.7826 23.9258 24.743 23.9968C24.7033 24.0678 24.6783 24.1458 24.6691 24.2263C24.66 24.3068 24.6671 24.3884 24.6899 24.4662C24.7127 24.5441 24.7508 24.6168 24.802 24.6801C24.9055 24.8079 25.0562 24.89 25.221 24.9082C25.7721 24.9676 26.3259 24.9983 26.8802 25Z" fill="#F36A4F"/>
<path d="M13.0482 32C13.2119 32 13.3688 31.8955 13.4845 31.7094C13.6003 31.5233 13.6653 31.271 13.6653 31.0079C13.6653 30.7447 13.6003 30.4924 13.4845 30.3063C13.3688 30.1202 13.2119 30.0157 13.0482 30.0157C12.8051 30.0157 12.5546 30.0106 12.2969 30.0003C12.2158 29.9972 12.1352 30.0199 12.0596 30.0669C11.984 30.114 11.915 30.1845 11.8563 30.2745C11.7977 30.3645 11.7507 30.4721 11.7179 30.5914C11.6852 30.7106 11.6673 30.839 11.6654 30.9693C11.6635 31.0996 11.6776 31.2292 11.7069 31.3507C11.7362 31.4722 11.78 31.5833 11.836 31.6776C11.8919 31.7719 11.9589 31.8475 12.033 31.9002C12.1072 31.9529 12.187 31.9815 12.2681 31.9846C12.5359 31.9949 12.796 32 13.0482 32Z" fill="#F36A4F"/>
<path d="M15.2964 31.9984H15.3252C16.9611 31.9179 18.5867 31.6797 20.1815 31.2867C20.2605 31.2683 20.3354 31.2336 20.4018 31.1846C20.4682 31.1357 20.5248 31.0734 20.5684 31.0013C20.6119 30.9293 20.6417 30.8488 20.6558 30.7647C20.6699 30.6805 20.6682 30.5942 20.6508 30.5107C20.6333 30.4272 20.6005 30.3482 20.5541 30.2781C20.5077 30.208 20.4487 30.1483 20.3804 30.1023C20.3121 30.0563 20.236 30.0249 20.1562 30.01C20.0765 29.9951 19.9947 29.9969 19.9156 30.0153C18.3893 30.3919 16.8335 30.6205 15.2677 30.698C15.1041 30.702 14.9488 30.7745 14.8359 30.8994C14.7229 31.0243 14.6616 31.1915 14.6654 31.3641C14.6693 31.5367 14.7379 31.7007 14.8562 31.8199C14.9746 31.9391 15.1329 32.0038 15.2964 31.9998V31.9984Z" fill="#F36A4F"/>
<path d="M21.3087 30C21.3479 29.9998 21.3871 29.9959 21.4257 29.9884C21.8095 29.9161 22.1833 29.8438 22.5557 29.786C23.4916 29.6212 24.459 29.452 25.4848 29.1961C26.8474 28.8578 28.2484 27.9368 29.3727 27.1965C29.5156 27.1025 29.6157 26.9549 29.6512 26.7861C29.6867 26.6174 29.6545 26.4412 29.5618 26.2965C29.4691 26.1517 29.3234 26.0502 29.1568 26.0143C28.9903 25.9783 28.8165 26.0109 28.6736 26.1049C27.6292 26.7917 26.3295 27.6462 25.1781 27.9324C24.1964 28.1768 23.2933 28.3358 22.3359 28.5035C21.9593 28.57 21.5798 28.6366 21.1945 28.7088C21.0363 28.7375 20.8944 28.8252 20.7969 28.9546C20.6994 29.0841 20.6534 29.2459 20.6679 29.4081C20.6824 29.5703 20.7564 29.7211 20.8753 29.8307C20.9942 29.9403 21.1494 30.0007 21.3101 30H21.3087Z" fill="#F36A4F"/>
<path d="M9.87869 31.9996C9.98935 32.0016 10.1 31.9955 10.2101 31.9813C10.346 31.9613 10.47 31.8753 10.5546 31.7423C10.6393 31.6092 10.6778 31.44 10.6617 31.2718C10.6455 31.1036 10.576 30.9503 10.4685 30.8455C10.3609 30.7407 10.2242 30.6931 10.0882 30.7131C9.60194 30.7849 8.7216 30.5581 8.10206 30.2903C8.02348 30.2579 7.9392 30.2241 7.84923 30.1889C7.40849 30.0155 6.80375 29.7774 6.63976 29.3589C6.58071 29.2073 6.47542 29.091 6.34706 29.0355C6.2187 28.98 6.07778 28.9899 5.9553 29.0629C5.83282 29.136 5.73881 29.2663 5.69396 29.4251C5.64911 29.5839 5.65709 29.7583 5.71614 29.9098C6.07146 30.8216 6.91878 31.1555 7.53832 31.3993C7.62032 31.4317 7.6989 31.4627 7.76609 31.4923C7.9039 31.5586 8.97671 31.9996 9.87869 31.9996Z" fill="#F36A4F"/>
<path d="M4.19679 28.3052C4.37982 28.296 4.55698 28.2354 4.71392 28.1281C4.87086 28.0208 5.00318 27.8699 5.10019 27.6875C5.17787 27.535 5.2012 27.3499 5.16516 27.1721C5.12912 26.9944 5.03658 26.8383 4.90753 26.7375C4.77848 26.6367 4.62325 26.5993 4.47536 26.6334C4.32747 26.6675 4.19876 26.7704 4.11703 26.9198C3.7731 27.1447 2.04894 26.0233 1.58504 25.3662C1.08504 24.6553 1.13804 23.2447 1.1827 22.121C1.18958 21.9657 1.19558 21.8012 1.19953 21.6555C1.2403 20.2383 1.45404 19.1323 1.85397 18.2742C2.01811 17.96 2.20491 17.6642 2.4123 17.3899C2.85836 16.7562 3.36591 16.0392 3.44062 15.16C3.44833 15.07 3.44109 14.9784 3.41931 14.8906C3.39754 14.8027 3.36166 14.7202 3.31371 14.6478C3.26577 14.5754 3.20671 14.5145 3.1399 14.4686C3.07309 14.4227 2.99984 14.3927 2.92433 14.3803C2.92433 14.3803 2.77253 14.3734 2.69982 14.3963C2.62711 14.4193 2.5594 14.4594 2.50056 14.5142C2.44172 14.5691 2.39289 14.6377 2.35688 14.7161C2.32086 14.7945 2.29836 14.8811 2.29065 14.9711C2.25085 15.4388 1.87186 15.9671 1.51817 16.4775C1.26405 16.815 1.03692 17.1806 0.839587 17.5697C0.352083 18.6141 0.0919321 19.9194 0.0503379 21.5547C0.0462421 21.6989 0.0403349 21.851 0.0348718 22.0076C-0.0304565 23.3839 -0.0904597 25.0951 0.712433 26.2359C1.16764 26.8831 2.97895 28.3733 4.13939 28.3107L4.19679 28.3052Z" fill="#F36A4F"/>
<path d="M20.802 3.85984C20.7427 3.8001 20.7005 3.72606 20.6798 3.64523C20.6591 3.56439 20.6605 3.47962 20.684 3.39951C20.7017 3.28918 20.7587 3.18856 20.8449 3.11546C20.931 3.04236 21.0408 3.00151 21.1548 3.00014C21.2486 2.99786 21.341 3.02351 21.4196 3.07371C21.481 3.11012 21.5339 3.15884 21.5747 3.21666C21.6156 3.27448 21.6435 3.34011 21.6566 3.40925C21.6698 3.47838 21.6679 3.54946 21.6511 3.61782C21.6342 3.68619 21.6029 3.7503 21.559 3.80595C21.5151 3.86161 21.4598 3.90755 21.3965 3.94078C21.3333 3.974 21.2636 3.99375 21.192 3.99874C21.1204 4.00373 21.0486 3.99384 20.9812 3.96972C20.9138 3.9456 20.8524 3.9078 20.8009 3.85879L20.802 3.85984ZM21.4336 3.91239C21.4811 3.87872 21.5219 3.83667 21.5537 3.78837C21.5217 3.83685 21.481 3.87923 21.4336 3.91344V3.91239Z" fill="#F36A4F"/>
<path d="M18.9867 2.99952C19.1594 3.00576 19.3279 2.95145 19.455 2.84855C19.5822 2.74565 19.6576 2.60258 19.6647 2.45082C19.6718 2.29906 19.61 2.15104 19.4929 2.03931C19.3758 1.92759 19.213 1.86132 19.0403 1.85508C17.978 1.78006 17.3586 1.39858 16.8058 1.06796C16.7002 1.00438 16.6003 0.940804 16.5019 0.887397C15.7667 0.467771 15.0677 0.111725 13.9824 0.0214414C12.4194 -0.110804 10.156 0.366044 8.85209 1.52574C8.79213 1.57934 8.74477 1.6428 8.71272 1.71248C8.68067 1.78217 8.66455 1.85671 8.66529 1.93187C8.66678 2.08366 8.73684 2.22871 8.86004 2.33511C8.98325 2.44151 9.14951 2.50055 9.32226 2.49924C9.495 2.49793 9.66008 2.43637 9.78118 2.32811C10.7942 1.42782 12.6336 1.05652 13.8579 1.15443C14.5815 1.21547 15.0619 1.42528 15.7928 1.84109C15.8811 1.89196 15.9722 1.94664 16.0663 2.00386C16.6813 2.37643 17.5236 2.89397 18.9317 2.99062L18.9867 2.99952Z" fill="#F36A4F"/>
<path d="M8.12151 4C8.17376 4.00005 8.22563 3.99069 8.27485 3.97231C8.34035 3.94948 8.4028 3.91799 8.4607 3.87861C8.55982 3.80974 8.62944 3.70307 8.65478 3.58125C8.68011 3.45943 8.65916 3.33206 8.59637 3.22617C8.53359 3.12029 8.43391 3.04423 8.31851 3.01415C8.20311 2.98408 8.08108 3.00235 7.97832 3.06508H7.96918C7.86765 3.10293 7.78214 3.17718 7.72775 3.27472C7.67336 3.37226 7.65359 3.48681 7.67194 3.59815C7.69029 3.70948 7.74556 3.81044 7.82801 3.88319C7.91045 3.95594 8.01477 3.9958 8.12252 3.99574L8.12151 4Z" fill="#F36A4F"/>
</svg>
