<svg width="40" height="40" viewBox="0 0 40 40" fill="none" xmlns="http://www.w3.org/2000/svg">
<path d="M31.4657 35.8775H23.1814V30.6586C23.1814 28.6782 22.1767 27.3625 20.3611 27.3625H19.269C17.3005 27.3625 15.8152 28.7771 15.8152 30.6586V35.8775H8.15455C7.91841 35.8854 7.69441 35.8835 7.52991 36.0542C7.36541 36.2248 7.27316 36.453 7.27258 36.6907C7.2725 36.9055 7.35589 37.1776 7.5048 37.3315C7.65372 37.4855 7.83377 37.5281 8.04719 37.5339C8.15455 37.5339 8.12452 37.5339 8.15455 37.5339L31.425 37.4981C31.3977 37.5009 31.3843 37.4624 31.425 37.4981C31.649 37.4808 31.9226 37.4596 32.1303 37.2891C32.2935 37.155 32.3643 36.8851 32.3643 36.6725C32.3643 36.4598 32.2563 36.2726 32.0919 36.1185C31.9275 35.9644 31.6903 35.8809 31.4657 35.8858V35.8775ZM21.8163 30.6586V35.8775H17.4479V30.6586C17.4479 29.6231 18.4417 29.2852 19.2635 29.2852H20.3556C21.2047 29.2852 21.8163 29.6423 21.8163 30.6641V30.6586Z" fill="#F36A4F"/>
<path d="M19.8881 26.162C20.9003 26.1626 21.8899 25.8611 22.7317 25.2957C23.5735 24.7303 24.2297 23.9264 24.6173 22.9857C25.0049 22.045 25.1065 21.0098 24.9092 20.011C24.7118 19.0122 24.2245 18.0948 23.5087 17.3747C22.793 16.6546 21.8811 16.1643 20.8883 15.9658C19.8956 15.7673 18.8666 15.8694 17.9315 16.2594C16.9965 16.6493 16.1974 17.3095 15.6354 18.1564C15.0734 19.0034 14.7738 19.999 14.7743 21.0173C14.7765 22.3811 15.3159 23.6884 16.2745 24.6528C17.233 25.6171 18.5325 26.1599 19.8881 26.162ZM19.8881 17.647C20.4971 17.649 21.0942 17.8172 21.6159 18.1335C22.1375 18.4498 22.5642 18.9025 22.8504 19.4434C22.7674 19.4168 22.6809 19.4029 22.5938 19.4022C22.4732 19.4029 22.3537 19.4262 22.2416 19.4708L20.7235 20.0916V18.6495C20.7152 18.4181 20.6207 18.1982 20.4587 18.0336C20.2968 17.869 20.0792 17.7717 19.8492 17.7609C19.6193 17.7502 19.3937 17.8269 19.2173 17.9757C19.0409 18.1246 18.9266 18.3347 18.897 18.5644C18.897 18.5919 18.8124 18.6193 18.8124 18.6495V21.1793C18.8124 21.259 18.8888 21.3332 18.9216 21.3991C18.9543 21.465 18.9653 21.4485 18.9762 21.4732C18.9906 21.5473 19.0164 21.6186 19.0526 21.6848L19.0799 21.7342C19.1744 21.9528 19.3501 22.1255 19.5695 22.2153C19.789 22.3051 20.0346 22.305 20.2539 22.2149L22.9269 21.1162C23.0453 21.0666 23.1515 20.9916 23.2381 20.8964C23.2381 20.9404 23.2381 20.9834 23.2381 21.0255C23.2365 21.6924 23.0384 22.3439 22.6689 22.8975C22.2994 23.4512 21.775 23.8823 21.1621 24.1362C20.5492 24.3902 19.8752 24.4556 19.2252 24.3243C18.5753 24.193 17.9787 23.8709 17.5107 23.3985C17.0428 22.9262 16.7245 22.3249 16.5961 21.6706C16.4677 21.0164 16.535 20.3385 16.7894 19.7227C17.0438 19.1068 17.474 18.5807 18.0255 18.2108C18.577 17.8408 19.2252 17.6437 19.8881 17.6442V17.647ZM20.4341 18.5726C20.4341 18.5973 20.4341 18.6248 20.4341 18.6523C20.4505 18.6221 20.4505 18.5973 20.4341 18.5699V18.5726Z" fill="#F36A4F"/>
<path d="M27.4236 27.6372H30.9538C31.4589 27.6372 31.8357 27.0878 31.8357 26.6209C31.8357 26.5989 31.8357 26.5082 31.8357 26.489V23.9015C31.8365 23.5572 31.7688 23.2162 31.6365 22.8986C31.5043 22.5811 31.3101 22.2933 31.0656 22.0525C30.8211 21.8116 30.5311 21.6224 30.2127 21.496C29.8943 21.3697 29.554 21.3087 29.2119 21.3168H29.1491C27.7839 21.3168 26.4652 22.1985 26.4652 23.7505V26.4973C26.457 26.9972 26.943 27.6372 27.4236 27.6372ZM30.0637 23.8658V25.7144H28.3682V23.7532C28.3602 23.6487 28.3745 23.5436 28.4104 23.4452C28.4463 23.3468 28.5028 23.2572 28.5761 23.1827C28.6494 23.1082 28.7377 23.0504 28.8352 23.0133C28.9327 22.9762 29.0369 22.9606 29.1409 22.9676H29.2037C29.4357 22.9734 29.656 23.0709 29.817 23.239C29.978 23.4072 30.0667 23.6324 30.0637 23.8658ZM28.0952 25.9314H28.0297V25.8655C28.0297 25.883 28.0366 25.8997 28.0489 25.9121C28.0612 25.9245 28.0778 25.9314 28.0952 25.9314Z" fill="#F36A4F"/>
<path d="M27.4236 34.7788H30.9538C31.1978 34.7566 31.4244 34.6423 31.588 34.4588C31.7516 34.2754 31.8401 34.0364 31.8357 33.7899C31.8357 33.768 31.8357 33.6938 31.8357 33.6773V31.2052C31.8357 29.7878 30.6835 28.7331 29.2119 28.7331H29.1491C27.7976 28.7331 26.4652 29.472 26.4652 31.0019V33.702C26.457 34.1717 26.9185 34.7788 27.4236 34.7788ZM29.4297 30.0955C29.8311 30.1779 29.9285 30.4993 29.9285 30.4993C30.0695 30.6772 30.0674 30.9667 30.0637 31.1942V33.117H28.3682V30.9909C28.3585 30.8807 28.371 30.7696 28.4049 30.6644C28.4388 30.5591 28.4935 30.4618 28.5656 30.3782C28.6377 30.2946 28.7258 30.2265 28.8247 30.1779C28.9235 30.1294 29.031 30.1013 29.1409 30.0955H29.2466C29.3284 30.0955 29.3518 30.0955 29.4297 30.0955ZM28.0952 33.1774H28.0297V33.1142C28.0304 33.1312 28.0376 33.1473 28.0498 33.1591C28.062 33.1709 28.0783 33.1774 28.0952 33.1774Z" fill="#F36A4F"/>
<path d="M8.93696 27.6371H12.418C12.9231 27.6371 13.2999 27.0878 13.2999 26.6208C13.2999 26.5988 13.2999 26.5082 13.2999 26.489V23.9015C13.3011 23.5571 13.2337 23.2159 13.1015 22.8981C12.9694 22.5804 12.7753 22.2925 12.5307 22.0515C12.2861 21.8106 11.9959 21.6214 11.6774 21.4952C11.3589 21.369 11.0184 21.3083 10.6761 21.3167H10.6133C9.24821 21.3167 8.20798 22.1573 8.00867 23.3576C8.00867 23.3906 8.00867 23.4098 7.99502 23.4428C7.98137 23.4757 7.95134 23.4977 7.94861 23.5279C7.94861 23.6021 7.90219 23.6735 7.90219 23.7504V26.4972C7.89127 26.9724 8.43732 27.6371 8.93696 27.6371ZM11.5253 23.8658V25.7144H9.52943V23.7532C9.52943 23.2944 10.1383 22.9676 10.6024 22.9676H10.6652C10.8977 22.9726 11.1188 23.0698 11.2803 23.238C11.4419 23.4063 11.5309 23.6319 11.528 23.8658H11.5253ZM9.57038 25.9314H9.50486V25.8654C9.50486 25.8829 9.51176 25.8997 9.52405 25.9121C9.53634 25.9244 9.553 25.9314 9.57038 25.9314Z" fill="#F36A4F"/>
<path d="M8.93767 34.7788H12.4188C12.9157 34.7788 13.3006 34.2075 13.3006 33.7351C13.3006 33.7103 13.3006 33.6087 13.3006 33.5895V31.1613C13.3006 29.744 12.1485 28.7359 10.6769 28.7359H10.6141C9.24893 28.7359 8.18571 29.3484 7.98094 30.4993C7.97069 30.5326 7.9527 30.6152 7.94659 30.6496C7.94659 30.6633 7.94659 30.6889 7.94659 30.6889C7.90017 30.8703 7.90017 30.9195 7.90017 30.9992V33.5812C7.89198 34.0647 8.43804 34.7788 8.93767 34.7788ZM10.756 30.1615C10.9713 30.1842 11.1702 30.2874 11.3133 30.4507C11.4564 30.614 11.5333 30.8255 11.5287 31.0432V32.8698H9.53014V30.9031C9.53014 30.395 10.0611 30.1615 10.5062 30.1615H10.6769C10.7197 30.1615 10.726 30.156 10.756 30.1615ZM9.5711 33.0484H9.50557V32.9824C9.50557 32.9999 9.51247 33.0167 9.52476 33.0291C9.53705 33.0414 9.55372 33.0484 9.5711 33.0484Z" fill="#F36A4F"/>
<path d="M39.2179 15.6143L32.881 6.87125C32.8006 6.76069 32.696 6.67024 32.5752 6.60689C32.4545 6.54354 32.3209 6.50899 32.1848 6.50592L27.2494 6.28892L27.1074 6.14334C27.0058 6.03912 26.8801 5.96175 26.7416 5.91811L20.5575 0.237719C20.3948 0.0854112 20.181 0.000511585 19.9588 2.3045e-06C19.7365 -0.000506976 19.5223 0.0834116 19.3589 0.234972L12.5933 6.58008C12.5539 6.61283 12.5253 6.65691 12.5114 6.70644C12.5114 6.72567 12.4923 6.75863 12.4841 6.75863H8.21223C8.10418 6.74321 7.99402 6.75497 7.89159 6.79283C7.78916 6.8307 7.69765 6.8935 7.62522 6.97562L0.873277 15.8341C0.803585 15.9223 0.75212 16.0237 0.721904 16.1322C0.691687 16.2407 0.683327 16.3542 0.697316 16.466C0.711304 16.5778 0.747359 16.6857 0.803363 16.7833C0.859367 16.8809 0.934191 16.9663 1.02344 17.0344V17.0729C1.02522 17.105 1.03261 17.1367 1.04528 17.1663C1.10888 17.3116 1.20467 17.4404 1.32535 17.5427C1.44602 17.6451 1.58837 17.7183 1.7415 17.7568C1.77328 17.7599 1.80528 17.7599 1.83706 17.7568H8.74913C8.96277 17.7222 9.15675 17.611 9.29518 17.4437L19.7794 7.47829L29.8022 16.9136C29.9661 17.0637 30.1813 17.1444 30.4029 17.1388L38.5135 17.1827C38.7472 17.182 38.9711 17.0883 39.1363 16.9221C39.3015 16.7559 39.3947 16.5306 39.3954 16.2955C39.3955 16.2308 39.3882 16.1663 39.3736 16.1032C39.3709 15.9284 39.3167 15.7582 39.2179 15.6143ZM10.0951 8.77203C10.0108 8.84782 9.94236 8.93986 9.89394 9.0427C9.84552 9.14555 9.81808 9.25711 9.81324 9.3708C9.8084 9.4845 9.82627 9.59801 9.86578 9.70464C9.90529 9.81127 9.96564 9.90885 10.0433 9.99161C10.1266 10.0804 10.2274 10.1507 10.3393 10.198C10.4512 10.2453 10.5717 10.2686 10.6931 10.2663C10.9159 10.2637 11.1296 10.1764 11.291 10.0218L13.2704 8.18422C13.3396 8.14886 13.4039 8.10454 13.4616 8.05237L19.9596 2.09181L26.1846 7.82988C26.252 7.89085 26.3285 7.94089 26.4112 7.97821L27.9593 9.55762C28.1237 9.72517 28.3475 9.82017 28.5814 9.82172C28.8154 9.82326 29.0405 9.73123 29.207 9.56586C29.3736 9.40049 29.468 9.17533 29.4695 8.93992C29.4711 8.70451 29.3796 8.47812 29.2152 8.31057L29.0132 8.10456L31.6988 8.27761L36.8699 15.3863L30.766 15.3424L20.391 5.54454C20.3124 5.46455 20.2183 5.4016 20.1146 5.35956C20.0109 5.31753 19.8997 5.29731 19.7879 5.30014C19.6761 5.30297 19.5661 5.32879 19.4646 5.37602C19.3632 5.42325 19.2724 5.49089 19.1979 5.57476L8.39965 15.8258H3.11209L8.76375 8.40946H10.532L10.0951 8.77203Z" fill="#F36A4F"/>
<path d="M39.3698 35.8748C39.5245 35.8872 39.1594 35.8748 39.0758 35.8748C39.0181 35.8671 39.1306 35.8945 39.0758 35.8748H38.6335V19.2813C38.6335 18.7732 38.213 18.5727 37.7407 18.5727H28.8781L20.3815 10.0576C20.3038 9.96796 20.2088 9.89521 20.1023 9.84374C19.9957 9.79226 19.8799 9.76315 19.7618 9.75816C19.5324 9.75816 19.3222 9.97516 19.1638 10.1235L10.1976 18.5727H3.07428C2.56645 18.5727 2.23063 18.8254 2.19513 19.2346C2.18704 19.2328 2.17866 19.2328 2.17056 19.2346C2.16949 19.241 2.16949 19.2475 2.17056 19.2539L2.12142 19.3225C2.04794 19.3994 1.99529 19.494 1.96852 19.5972C1.96852 19.6164 1.9303 19.6357 1.9303 19.6576V35.8638H1.65523C1.62405 35.8638 1.56949 35.8638 1.51883 35.8638C1.46817 35.8638 1.47037 35.8618 1.42531 35.8638H1.35516C1.23436 35.8638 1.15333 35.8688 1.05115 35.8638C0.592468 35.8638 0 36.2044 0 36.7098V38.9869C0 39.4593 0.479562 39.8933 0.961571 39.9977C0.923255 39.9793 1.00307 40.0067 0.961571 39.9977H1.46038C1.46038 39.9977 1.5999 39.9926 1.66735 39.995H38.5252C38.7162 40.0069 38.5508 39.9937 38.5252 39.995C38.3342 39.983 38.6702 40.0005 38.9071 39.9977C38.5525 39.9988 38.8264 39.9963 38.9071 39.9977C39.5501 39.9903 39.7589 39.6737 39.9047 39.4978C39.9047 39.4978 40.0134 39.2264 39.9986 38.9979V36.6136C39.9922 36.3759 40.0386 36.1637 39.8687 35.9984C39.6987 35.833 39.5102 35.8748 39.3698 35.8748ZM1.90026 37.619L4.08175 37.6107C4.10905 37.6107 4.13908 37.6135 4.16639 37.6107C4.39044 37.5934 4.59894 37.4889 4.74754 37.3193C4.89615 37.1497 4.97312 36.9285 4.9621 36.7027C4.95107 36.4769 4.85291 36.2643 4.6885 36.1102C4.52409 35.9561 4.30641 35.8726 4.08175 35.8775H3.83329V20.2207H10.5417C10.7708 20.1883 10.9805 20.0731 11.1314 19.8966L19.7317 11.8814L27.887 20.0999C28.1109 20.3224 28.313 20.4954 28.5068 20.4954H36.7223V35.8775H35.2261C34.9897 35.8847 34.7654 35.9842 34.6008 36.1549C34.4362 36.3257 34.3441 36.5543 34.3442 36.7922C34.3442 37.007 34.4274 37.2133 34.5764 37.3672C34.7253 37.5212 34.928 37.6105 35.1415 37.6162C35.1688 37.6162 35.2936 37.6162 35.2936 37.6162H38.3605V38.0832L1.90026 38.1766V37.619Z" fill="#F36A4F"/>
</svg>
