<svg width="80" height="82" viewBox="0 0 80 82" fill="none" xmlns="http://www.w3.org/2000/svg">
<path d="M48.9893 50.3751C49.012 50.1732 48.9945 49.9687 48.9378 49.7735C48.8812 49.5784 48.7865 49.3964 48.6593 49.2382L46.5395 46.5822C46.4129 46.4232 46.2563 46.2909 46.0787 46.1927C45.901 46.0945 45.7058 46.0324 45.5041 46.0098C45.3025 45.9873 45.0984 46.0049 44.9036 46.0615C44.7087 46.1182 44.5269 46.2127 44.3686 46.3399L41.5794 48.5905C41.4208 48.7174 41.2888 48.8743 41.1908 49.0524C41.0929 49.2305 41.0309 49.4262 41.0084 49.6283C40.986 49.8304 41.0035 50.035 41.06 50.2303C41.1165 50.4256 41.2108 50.6078 41.3377 50.7665L43.4574 53.4272C43.7139 53.748 44.0866 53.954 44.4941 54.0003H44.6661C45.0176 54.0003 45.3586 53.8803 45.633 53.6602L48.4222 51.4096C48.58 51.2831 48.7114 51.1266 48.8087 50.9491C48.906 50.7716 48.9674 50.5765 48.9893 50.3751ZM45.9989 50.0003L44.9989 51.0003L43.9989 50.0003L44.9989 49.0003L45.9989 50.0003Z" fill="#F36A4F"/>
<path d="M37.3625 51.3491L34.5705 53.5971C34.4118 53.7239 34.2796 53.8806 34.1815 54.0585C34.0835 54.2364 34.0214 54.4318 33.9989 54.6337C33.9765 54.8356 33.994 55.0399 34.0506 55.235C34.1071 55.4301 34.2016 55.6121 34.3285 55.7706L36.4319 58.4189C36.5583 58.5783 36.7151 58.711 36.8933 58.8093C37.0714 58.9076 37.2673 58.9695 37.4696 58.9914H37.6418C37.9935 58.9909 38.3348 58.8712 38.6097 58.6516L41.4017 56.4036C41.7233 56.149 41.9308 55.7772 41.9788 55.3698C42.0268 54.9623 41.9113 54.5525 41.6577 54.2301L39.5357 51.5725C39.409 51.4138 39.2522 51.2816 39.0744 51.1835C38.8966 51.0854 38.7011 51.0233 38.4993 51.0009C38.2975 50.9784 38.0932 50.9959 37.8981 51.0525C37.7031 51.1091 37.5211 51.2035 37.3625 51.3305V51.3491ZM38.9989 54.9992L37.9989 55.9992L36.9989 54.9992L37.9989 53.9992L38.9989 54.9992Z" fill="#F36A4F"/>
<path d="M15.6579 10.1561C15.5268 10.1408 15.3948 10.1775 15.2907 10.2584L13.255 11.8743C13.151 11.956 13.0835 12.0755 13.0673 12.2066C13.0511 12.3378 13.0875 12.47 13.1686 12.5745L15.4419 15.4668C15.4825 15.5186 15.533 15.562 15.5905 15.5943C15.6479 15.6266 15.7112 15.6474 15.7767 15.6553H15.8361C15.9478 15.6546 16.0561 15.6167 16.1438 15.5476L18.1795 13.9318C18.2836 13.85 18.3511 13.7306 18.3672 13.5994C18.3834 13.4683 18.347 13.3361 18.2659 13.2316L15.9927 10.3392C15.9092 10.2371 15.7891 10.1714 15.6579 10.1561Z" fill="#F36A4F"/>
<path d="M10.5174 19.5732C10.6291 19.5721 10.7373 19.5342 10.8252 19.4655L12.8609 17.8497C12.9635 17.7698 13.031 17.6532 13.0492 17.5246C13.0673 17.3959 13.0346 17.2653 12.9581 17.1603L10.6794 14.2679C10.5924 14.1717 10.4735 14.1101 10.3445 14.0942C10.2156 14.0784 10.0853 14.1095 9.97745 14.1817L7.94179 15.7976C7.88985 15.8381 7.84642 15.8885 7.81399 15.9458C7.78157 16.0031 7.76078 16.0662 7.75281 16.1315C7.74489 16.1963 7.74987 16.262 7.76748 16.3248C7.78508 16.3877 7.81496 16.4465 7.8554 16.4978L10.134 19.3901C10.1804 19.447 10.2388 19.493 10.3051 19.5246C10.3714 19.5563 10.4439 19.5729 10.5174 19.5732Z" fill="#F36A4F"/>
<path d="M23.592 42.4026C24.4818 42.4017 25.3514 42.1371 26.0909 41.6421C26.8303 41.1471 27.4064 40.444 27.7464 39.6217C28.0863 38.7994 28.1748 37.8947 28.0007 37.0221C27.8266 36.1494 27.3977 35.348 26.7682 34.7191C26.1386 34.0902 25.3368 33.662 24.464 33.4887C23.5912 33.3155 22.6866 33.4048 21.8646 33.7455C21.0426 34.0863 20.3401 34.663 19.8458 35.403C19.3515 36.1429 19.0877 37.0128 19.0877 37.9026C19.09 39.0961 19.5654 40.24 20.4097 41.0836C21.2541 41.9271 22.3985 42.4015 23.592 42.4026ZM23.592 36.2537C23.9181 36.2537 24.2369 36.3504 24.508 36.5316C24.7792 36.7128 24.9905 36.9703 25.1153 37.2716C25.2401 37.5729 25.2728 37.9044 25.2092 38.2243C25.1455 38.5441 24.9885 38.8379 24.7579 39.0685C24.5273 39.2991 24.2335 39.4561 23.9137 39.5198C23.5938 39.5834 23.2623 39.5507 22.961 39.4259C22.6597 39.3011 22.4022 39.0898 22.221 38.8186C22.0398 38.5475 21.9431 38.2287 21.9431 37.9026C21.9431 37.4653 22.1168 37.0459 22.4261 36.7367C22.7353 36.4275 23.1547 36.2537 23.592 36.2537Z" fill="#F36A4F"/>
<path d="M22.1021 69.0902V69.882L8.66783 69.9951C8.2243 70.0133 7.80577 70.2049 7.50266 70.5284C7.19956 70.8519 7.03622 71.2814 7.04794 71.724L6.99935 75.0472C6.98919 75.5254 7.16921 75.9882 7.50007 76.3344C7.83092 76.6805 8.28571 76.882 8.76503 76.8947H8.82982C9.29936 76.8977 9.75145 76.7174 10.0895 76.3923C10.4275 76.0672 10.6246 75.6231 10.6387 75.155L10.6765 73.5391L37.7826 73.3075V75.1011C37.7826 75.1604 37.6909 75.2142 37.6963 75.2735C37.7075 75.7059 37.8877 76.1169 38.1984 76.4187C38.509 76.7206 38.9256 76.8895 39.3593 76.8893C39.5886 76.8876 39.8151 76.8392 40.0249 76.7471C40.2348 76.655 40.4236 76.5212 40.5798 76.3538C40.736 76.1864 40.8563 75.9889 40.9333 75.7735C41.0104 75.5582 41.0425 75.3293 41.0278 75.1011V71.5032C41.0278 71.4224 40.9684 71.347 40.9684 71.2662C40.9963 71.0823 40.9836 70.8945 40.9314 70.7159C40.8792 70.5373 40.7887 70.3722 40.6661 70.2321C40.2202 69.8848 39.6712 69.6953 39.1056 69.6935L32.923 69.7419V61.7705C32.9423 61.5452 32.9149 61.3185 32.8426 61.1043C32.7703 60.89 32.6545 60.6929 32.5026 60.5252C32.3507 60.3575 32.1658 60.2228 31.9594 60.1294C31.7531 60.036 31.5297 59.9859 31.3031 59.9823C31.0214 59.9829 30.7448 60.0567 30.5005 60.1965C30.2562 60.3363 30.0527 60.5372 29.91 60.7794C29.9166 60.6952 29.9166 60.6105 29.91 60.5263C29.7761 60.1438 29.5278 59.8117 29.1984 59.5747C28.8691 59.3377 28.4747 59.2074 28.0687 59.2013H27.6421C27.6027 59.1958 27.5628 59.1958 27.5233 59.2013C26.7944 59.2013 24.4132 58.1241 22.8581 55.6949C21.384 53.4651 21.5244 50.7882 23.2468 47.7558H23.5762C24.8398 47.7559 26.0917 47.5146 27.2642 47.0448L28.9758 49.237C29.2624 49.6051 29.6813 49.8475 30.144 49.9129C30.6066 49.9782 31.0765 49.8614 31.4543 49.5871L27.3182 52.711C27.2124 52.7912 27.1428 52.9099 27.1246 53.0411C27.1064 53.1723 27.1411 53.3054 27.221 53.4112L28.7815 55.4687C28.8208 55.5211 28.8702 55.5653 28.9267 55.5985C28.9832 55.6318 29.0458 55.6536 29.1108 55.6626H29.1864C29.2956 55.6618 29.4017 55.6259 29.4888 55.5603L49.0031 40.8508C49.1088 40.7706 49.1784 40.6519 49.1966 40.5207C49.2148 40.3895 49.1802 40.2564 49.1003 40.1506L47.5452 38.0931C47.4653 37.9877 47.3469 37.918 47.2158 37.8992C47.0839 37.8847 46.9513 37.9193 46.8432 37.9961L32.0212 49.1885L42.9879 40.8131C43.1768 40.6695 43.3353 40.4898 43.454 40.2846C43.5728 40.0794 43.6495 39.8527 43.6796 39.6176C43.7098 39.3826 43.6928 39.1439 43.6296 38.9155C43.5665 38.6871 43.4585 38.4734 43.3119 38.287L23.9272 13.6832C23.6393 13.318 23.2201 13.0789 22.7585 13.0165C22.2969 12.9542 21.8291 13.0735 21.4542 13.3493L9.52098 22.1179C9.36936 22.2292 9.23633 22.3637 9.1268 22.5164L8.39245 23.0551C8.28588 23.1344 8.21523 23.2527 8.196 23.384C8.17676 23.5153 8.21052 23.6488 8.28986 23.7553L13.9649 31.4251C14.0037 31.4785 14.0528 31.5236 14.1094 31.5579C14.166 31.5921 14.2288 31.6147 14.2942 31.6244C14.4257 31.6442 14.5597 31.6113 14.6668 31.5328L16.7673 29.9816C16.8738 29.9022 16.9445 29.7839 16.9637 29.6527C16.983 29.5214 16.9492 29.3879 16.8699 29.2814L12.9605 24.0569L22.1669 17.2596L39.3539 39.0734L30.7145 45.666L30.2988 45.1274C31.4806 44.0193 32.3677 42.6356 32.8803 41.1007C33.393 39.5658 33.5151 37.9279 33.2356 36.3342C32.9561 34.7406 32.2839 33.2413 31.2793 31.9711C30.2748 30.7009 28.9694 29.6998 27.4807 29.0577C25.992 28.4157 24.3666 28.1529 22.7508 28.2929C21.135 28.433 19.5794 28.9715 18.2241 29.8601C16.8687 30.7487 15.756 31.9594 14.9862 33.3833C14.2163 34.8073 13.8134 36.3998 13.8137 38.0177C13.8114 39.454 14.1306 40.8727 14.7478 42.1704C8.26826 51.3268 11.0653 57.9894 13.2953 61.1565C15.9951 64.9267 20.1475 67.4097 22.9499 67.7221C22.7174 67.8751 22.5212 68.0767 22.3748 68.3129C22.2284 68.5492 22.1353 68.8144 22.1021 69.0902ZM23.6194 31.8452C24.8456 31.8452 26.0443 32.208 27.0638 32.8876C28.0833 33.5673 28.8778 34.5333 29.3469 35.6635C29.8159 36.7936 29.9383 38.0372 29.6987 39.2367C29.4591 40.4363 28.8682 41.5381 28.0007 42.4026C27.1332 43.2671 26.0282 43.8556 24.8254 44.0936C23.6226 44.3315 22.3761 44.2083 21.2435 43.7395C20.1109 43.2707 19.1432 42.4773 18.4627 41.4598C17.7822 40.4422 17.4196 39.2462 17.4206 38.0231C17.4221 36.3836 18.0756 34.8117 19.2378 33.6524C20.4 32.4931 21.9758 31.8412 23.6194 31.8398V31.8452ZM27.8797 63.0847C28.0837 63.0918 28.2862 63.0474 28.4683 62.9554C28.6459 62.9137 28.8264 62.8849 29.0082 62.8692C29.4434 62.6924 29.8522 62.4568 30.2232 62.169V69.8389L25.9035 69.8712V69.1118C25.9285 68.7896 25.8618 68.4669 25.7108 68.181C25.5598 67.895 25.3309 67.6575 25.0503 67.4959C25.4189 67.3018 25.7092 66.9869 25.8724 66.6044C26.0357 66.2218 26.0619 65.7949 25.9467 65.3953C25.8427 65.0301 25.6229 64.7082 25.3202 64.4781C25.0174 64.2479 24.648 64.1219 24.2674 64.1188C24.1046 64.1179 23.9426 64.1415 23.7868 64.1888H23.7382C22.6151 64.1888 18.5654 62.573 16.0977 58.9212C13.4627 55.0217 13.7759 50.3034 17.0049 45.2189C17.7932 45.9384 18.6942 46.5242 19.6723 46.9533C16.8051 52.808 19.2673 56.9876 20.466 58.5496C22.6637 61.415 25.9359 63.0631 27.8473 63.0631L27.8797 63.0847Z" fill="#F36A4F"/>
<path d="M2.99894 79.6915C3.00553 80.1216 3.17717 80.5327 3.47852 80.8403C3.77986 81.1479 4.18798 81.3286 4.61883 81.3451C4.67282 81.3451 4.73222 81.2427 4.79162 81.2427H44.8407C44.9001 81.2427 44.9541 81.302 45.0135 81.2966C45.239 81.2986 45.4626 81.2546 45.6704 81.1673C45.8783 81.0799 46.066 80.951 46.222 80.7885C46.378 80.626 46.499 80.4334 46.5775 80.2225C46.6561 80.0115 46.6905 79.7868 46.6787 79.5622C46.6669 79.3375 46.6091 79.1176 46.5088 78.916C46.4086 78.7145 46.2681 78.5356 46.0959 78.3902C45.9237 78.2449 45.7235 78.1363 45.5076 78.0711C45.2917 78.0059 45.0648 77.9855 44.8407 78.0111H4.79702C4.56733 77.9995 4.33765 78.0341 4.1217 78.113C3.90575 78.1919 3.70795 78.3135 3.54013 78.4703C3.3723 78.6272 3.23788 78.8161 3.1449 79.026C3.05191 79.2358 3.00227 79.4621 2.99894 79.6915Z" fill="#F36A4F"/>
<path d="M4.46442 16.2426C4.85497 16.2422 5.23451 16.1135 5.54434 15.8763L16.5596 7.54401C16.9363 7.25755 17.1845 6.83437 17.2502 6.36641C17.316 5.89846 17.1939 5.42354 16.9106 5.04485L14.4051 1.71623C14.2659 1.52421 14.0895 1.36192 13.8864 1.2389C13.6833 1.11587 13.4577 1.03461 13.2226 0.999873C12.9857 0.968748 12.745 0.984605 12.5143 1.04653C12.2835 1.10846 12.0674 1.21524 11.8781 1.36074L0.711672 9.78463C0.518812 9.93005 0.357432 10.1129 0.23724 10.3221C0.117048 10.5314 0.0405264 10.7627 0.0122789 11.0022C-0.0159687 11.2417 0.00464123 11.4844 0.0728689 11.7158C0.141097 11.9471 0.255532 12.1623 0.409292 12.3484L3.07671 15.5801C3.24397 15.7866 3.45536 15.9533 3.69545 16.0679C3.93553 16.1825 4.19825 16.2422 4.46442 16.2426ZM3.99893 11.0022L11.9989 5L12.9989 6L4.99893 12L3.99893 11.0022Z" fill="#F36A4F"/>
<path d="M61.9989 70.0004C62.5923 70.0004 63.1723 69.8244 63.6656 69.4948C64.159 69.1651 64.5435 68.6966 64.7706 68.1484C64.9976 67.6002 65.057 66.997 64.9413 66.4151C64.8255 65.8331 64.5398 65.2986 64.1203 64.879C63.7007 64.4595 63.1662 64.1738 62.5842 64.058C62.0023 63.9422 61.3991 64.0016 60.8509 64.2287C60.3027 64.4558 59.8342 64.8403 59.5045 65.3336C59.1749 65.827 58.9989 66.407 58.9989 67.0004C58.9999 67.7957 59.3163 68.5582 59.8787 69.1206C60.4411 69.683 61.2036 69.9994 61.9989 70.0004ZM61.9989 66.4178C62.1145 66.4171 62.2276 66.4508 62.3239 66.5145C62.4203 66.5782 62.4955 66.6692 62.5401 66.7757C62.5846 66.8823 62.5964 66.9998 62.5741 67.1131C62.5517 67.2264 62.4962 67.3306 62.4145 67.4122C62.3328 67.4939 62.2287 67.5495 62.1153 67.5718C62.002 67.5942 61.8846 67.5824 61.778 67.5378C61.6714 67.4933 61.5804 67.4181 61.5167 67.3217C61.453 67.2253 61.4193 67.1122 61.4201 66.9967C61.4257 66.8467 61.489 66.7046 61.5969 66.6001C61.7048 66.4956 61.8488 66.4369 61.9989 66.436V66.4178Z" fill="#F36A4F"/>
<path d="M69.9989 76.0004C70.5923 76.0004 71.1723 75.8244 71.6656 75.4948C72.159 75.1651 72.5435 74.6966 72.7706 74.1484C72.9976 73.6002 73.057 72.997 72.9413 72.4151C72.8255 71.8331 72.5398 71.2986 72.1203 70.879C71.7007 70.4595 71.1662 70.1737 70.5842 70.058C70.0023 69.9422 69.3991 70.0016 68.8509 70.2287C68.3027 70.4558 67.8342 70.8403 67.5045 71.3336C67.1749 71.827 66.9989 72.407 66.9989 73.0004C66.9999 73.7957 67.3163 74.5582 67.8787 75.1206C68.4411 75.683 69.2036 75.9994 69.9989 76.0004ZM69.9989 72.4215C70.1133 72.4222 70.2248 72.4567 70.3195 72.5208C70.4143 72.5848 70.4879 72.6755 70.5312 72.7813C70.5744 72.8872 70.5854 73.0034 70.5626 73.1155C70.5399 73.2276 70.4844 73.3304 70.4033 73.4109C70.3222 73.4915 70.2191 73.5463 70.1069 73.5684C69.9947 73.5904 69.8785 73.5787 69.7729 73.5348C69.6674 73.4909 69.5772 73.4167 69.5137 73.3216C69.4503 73.2265 69.4164 73.1147 69.4164 73.0004C69.4193 72.8478 69.4819 72.7024 69.5909 72.5955C69.6998 72.4886 69.8463 72.4287 69.9989 72.4287V72.4215Z" fill="#F36A4F"/>
<path d="M58.4989 76.0004C59.8797 76.0004 60.9989 74.8811 60.9989 73.5004C60.9989 72.1196 59.8797 71.0004 58.4989 71.0004C57.1182 71.0004 55.9989 72.1196 55.9989 73.5004C55.9989 74.8811 57.1182 76.0004 58.4989 76.0004Z" fill="#F36A4F"/>
<path d="M78.9074 72.8076C77.5112 70.5562 76.182 68.1822 74.8906 65.8886V65.8589C74.2827 64.7756 73.5951 63.5484 72.9158 62.3677C72.2366 61.187 71.1404 60.0922 70.4989 59.0003C69.8647 57.8652 69.167 56.5559 68.3666 55.5333V48.5678C68.3666 48.4789 68.4211 48.4027 68.4253 48.3308C68.4253 48.17 68.4882 47.9626 68.4505 47.9626H69.9766C70.3659 47.9626 70.7391 47.8066 71.0143 47.5288C71.2895 47.251 71.4441 46.8743 71.4441 46.4815C71.4441 46.0887 71.2895 45.7119 71.0143 45.4342C70.7391 45.1564 70.3659 45.0003 69.9766 45.0003H58.1906C57.5491 45.0003 57.1172 45.2119 56.9327 45.6605C56.8048 45.8792 56.7448 46.1316 56.7605 46.3851C56.7762 46.6386 56.8669 46.8815 57.0208 47.0824L58.744 49.101V55.601C58.7386 55.6356 58.7458 55.671 58.7643 55.7006C58.7828 55.7302 58.8114 55.752 58.8447 55.7618C58.6476 56.0961 58.4589 56.4389 58.287 56.769C58.1151 57.0991 57.9516 57.408 57.7713 57.7254C57.764 57.7398 57.7601 57.7557 57.7601 57.7719C57.7601 57.7881 57.764 57.8041 57.7713 57.8185C57.38 58.4956 56.9914 59.1713 56.6057 59.8455C56.1864 60.5819 55.7671 61.3182 55.3479 62.0588L54.9747 62.7232L50.9621 69.6591L50.5429 70.3573L50.438 70.5393L49.7965 71.6438C49.6624 71.8766 49.5282 72.067 49.3773 72.3505C49.1425 72.7187 48.8993 73.0996 48.6645 73.5524C48.2278 74.3604 47.9989 75.2662 47.9989 76.1867C47.9989 77.1071 48.2278 78.0129 48.6645 78.821C49.0395 79.4657 49.5705 80.0039 50.2077 80.385C50.845 80.7662 51.5676 80.9779 52.308 81.0004C52.308 81.0004 52.329 80.9623 52.3416 80.9623H73.725C73.725 80.9623 73.7544 80.9961 73.767 80.9919L74.0521 80.8734C74.1242 80.8708 74.1958 80.8609 74.2659 80.8438C74.3316 80.8259 74.3992 80.8159 74.4672 80.8141C74.9158 80.8141 75.486 80.7718 75.8843 80.738C77.7502 80.5687 78.7816 79.8493 79.5573 78.1608C80.3329 76.4723 80.0688 74.7076 78.9074 72.8076ZM65.8593 48.5678V55.601C65.8788 55.7285 65.9292 55.8492 66.006 55.9523C66.0332 55.9919 66.0584 56.0328 66.0815 56.075C66.1028 56.3712 66.1857 56.6596 66.3247 56.9214C66.4714 57.1753 66.6266 57.5773 66.7817 57.8354C67.1862 58.4512 67.5289 59.1062 67.8048 59.7905H60.178C60.178 59.3673 60.2115 59.617 60.2283 59.5874C60.4044 59.2827 60.5847 58.8849 60.765 58.5675C60.9501 58.2875 61.1047 57.9881 61.2262 57.6746H62.6895C62.7342 57.6769 62.779 57.6769 62.8237 57.6746C63.1799 57.6137 63.5017 57.4233 63.7285 57.1395C63.9552 56.8556 64.0713 56.4978 64.0548 56.1336C64.0383 55.7693 63.8904 55.4237 63.6389 55.1619C63.3874 54.9002 63.0497 54.7402 62.6895 54.7123H61.6665V48.5678C61.6665 48.2631 61.5574 48.3816 61.3939 47.9584H66.2324C66.0438 47.9584 65.8593 48.28 65.8593 48.5678ZM61.3688 55.0297C61.3688 55.0567 61.3794 55.0825 61.3982 55.1016C61.4171 55.1206 61.4427 55.1313 61.4694 55.1313H61.3688V55.0297ZM50.9957 77.2129C50.8086 76.8441 50.7181 76.4331 50.7328 76.0191C50.7475 75.605 50.8668 75.2017 51.0795 74.8473C51.2514 74.513 51.4485 74.2041 51.6582 73.874V73.8444C51.8133 73.5989 51.9768 73.3492 52.1403 73.0615L52.8699 71.7919V71.7665L53.5659 70.5689C54.2074 69.4602 54.8615 68.3515 55.4946 67.2808C56.0858 66.2821 56.677 65.2792 57.2682 64.2635L57.3436 64.1958V64.1704C57.5072 63.8869 57.6791 63.6626 57.8426 63.4214C58.0911 63.0703 58.3207 62.7058 58.5302 62.3296H69.3896C69.5017 62.5949 69.6608 62.8373 69.8592 63.0448C70.0437 63.3241 70.2366 63.6034 70.4211 63.925C70.681 64.3778 70.941 64.8179 71.201 65.258C71.5993 65.9351 72.006 66.6376 72.4001 67.3358C73.658 69.5702 75.0164 71.9612 76.4755 74.3226C77.1338 75.3847 77.2806 76.2269 76.9368 76.9674C76.5929 77.708 76.4462 77.8138 75.5447 77.8984C75.2512 77.9238 74.7397 77.9238 74.4378 77.9238H52.2955C52.0358 77.9325 51.7785 77.8711 51.5501 77.7462C51.3216 77.6213 51.1303 77.4372 50.9957 77.2129Z" fill="#F36A4F"/>
<path d="M48.2878 22.084C48.6232 22.4136 49.0752 22.5983 49.546 22.5983C50.0168 22.5983 50.4687 22.4136 50.8041 22.084L52.424 20.5058L54.3948 22.3048C54.7265 22.6122 55.1624 22.7831 55.6151 22.7831C56.0679 22.7831 56.5038 22.6122 56.8355 22.3048L58.5309 20.7159L59.8269 22.0678C59.99 22.2376 60.185 22.3736 60.4008 22.4682C60.6166 22.5628 60.8489 22.614 61.0846 22.619C61.3203 22.624 61.5546 22.5827 61.7742 22.4973C61.9939 22.412 62.1945 22.2843 62.3647 22.1217C62.5349 21.959 62.6713 21.7645 62.7661 21.5492C62.8609 21.3339 62.9123 21.1022 62.9173 20.8671C62.9223 20.632 62.8809 20.3983 62.7953 20.1792C62.7097 19.9601 62.5818 19.7599 62.4187 19.5902L59.8917 16.9618C59.5644 16.6202 59.115 16.4216 58.6415 16.4095C58.168 16.3974 57.709 16.5727 57.3646 16.8971L55.5882 18.5614L53.5903 16.7409C53.251 16.4322 52.8059 16.2651 52.3468 16.2741C51.8876 16.2832 51.4495 16.4676 51.1227 16.7894L49.5568 18.3245L48.5578 17.3496C48.2136 17.0803 47.7824 16.9458 47.3457 16.9716C46.9089 16.9974 46.4967 17.1816 46.1867 17.4895C45.8766 17.7974 45.6902 18.2078 45.6625 18.6434C45.6348 19.0789 45.7677 19.5095 46.0362 19.8541L48.2878 22.084Z" fill="#F36A4F"/>
<path d="M3.6275 56.5155C3.6619 56.6126 3.72546 56.6967 3.80951 56.7565C3.89357 56.8163 3.99405 56.8487 4.09726 56.8495C4.15421 56.8503 4.21087 56.8412 4.26465 56.8225L6.70529 55.9662C6.8303 55.9222 6.93281 55.8307 6.99046 55.7116C7.04812 55.5926 7.05624 55.4556 7.01307 55.3306L6.58649 54.1133C4.92341 49.3843 6.42991 44.9839 7.47743 42.8025C7.85815 42.1403 8.33692 41.5393 8.89754 41.0197C9.73715 40.233 10.4365 39.3096 10.9656 38.2889C12.7097 34.5563 10.6416 31.4539 8.93533 29.4449L8.09839 28.4377C8.05625 28.3869 8.00436 28.345 7.94578 28.3144C7.88719 28.2839 7.82308 28.2653 7.7572 28.2598C7.69132 28.2543 7.625 28.2619 7.56213 28.2823C7.49925 28.3027 7.44109 28.3354 7.39104 28.3785L5.39857 30.0535C5.34878 30.0959 5.30787 30.1478 5.27822 30.206C5.24857 30.2642 5.23075 30.3277 5.22579 30.3929C5.2204 30.4587 5.22812 30.525 5.2485 30.5878C5.26889 30.6507 5.30154 30.7089 5.34458 30.7591L6.18152 31.7448C7.9472 33.8238 8.38997 35.2781 7.69342 36.7593C7.31857 37.4161 6.84512 38.0119 6.28951 38.5259C5.45479 39.3149 4.75608 40.2357 4.22146 41.2513C2.93634 43.9443 1.09507 49.3628 3.18473 55.3037L3.6275 56.5155Z" fill="#F36A4F"/>
<path d="M8.99894 59.0003C8.99894 60.1049 8.10351 61.0003 6.99894 61.0003C5.89437 61.0003 4.99894 60.1049 4.99894 59.0003C4.99894 57.8958 5.89437 57.0003 6.99894 57.0003C8.10351 57.0003 8.99894 57.8958 8.99894 59.0003Z" fill="#F36A4F"/>
<path d="M11.9989 64.0003C11.9989 65.1049 11.1035 66.0004 9.99894 66.0004C8.89437 66.0004 7.99894 65.1049 7.99894 64.0003C7.99894 62.8958 8.89437 62.0003 9.99894 62.0003C11.1035 62.0003 11.9989 62.8958 11.9989 64.0003Z" fill="#F36A4F"/>
</svg>
