<svg width="14" height="17" viewBox="0 0 14 17" fill="none" xmlns="http://www.w3.org/2000/svg">
<path d="M13.25 3.98828C13.25 5.23092 12.2426 6.23828 11 6.23828C9.75736 6.23828 8.75 5.23092 8.75 3.98828C8.75 2.74564 9.75736 1.73828 11 1.73828C12.2426 1.73828 13.25 2.74564 13.25 3.98828ZM5.25 8.98828C5.25 10.2309 4.24264 11.2383 3 11.2383C1.75736 11.2383 0.75 10.2309 0.75 8.98828C0.75 7.74564 1.75736 6.73828 3 6.73828C4.24264 6.73828 5.25 7.74564 5.25 8.98828ZM13.25 13.9883C13.25 15.2309 12.2426 16.2383 11 16.2383C9.75736 16.2383 8.75 15.2309 8.75 13.9883C8.75 12.7456 9.75736 11.7383 11 11.7383C12.2426 11.7383 13.25 12.7456 13.25 13.9883Z" fill="white" stroke="#F36A4F" stroke-width="1.5"/>
<path d="M5 7.98828L9 4.98828M5 9.98828L9 12.9883" stroke="#F36A4F" stroke-width="1.5"/>
</svg>
