<svg width="57" height="41" viewBox="0 0 57 41" fill="none" xmlns="http://www.w3.org/2000/svg">
<path d="M0.619468 14.917L9.45612 19.0905C9.45612 19.0905 9.49269 19.0905 9.48964 19.0905C9.47937 19.1474 9.47937 19.2061 9.48964 19.263V27.909C9.48732 28.1326 9.54217 28.3521 9.64732 28.5399C9.75247 28.7276 9.90325 28.8754 10.0808 28.9647C10.1234 28.9858 11.1564 29.5172 12.6647 30.3723C12.8844 30.4934 13.1348 30.5172 13.3686 30.4392C12.9999 31.1993 12.8049 32.269 12.7958 33.6062C12.7805 36.4003 12.9024 38.5926 12.9085 38.6841C12.9217 38.9827 13.0269 39.266 13.2052 39.4829C13.3835 39.6997 13.623 39.8358 13.8805 39.8665L16.949 40.0107C17.2191 39.9643 17.4651 39.8053 17.6407 39.5638C17.8334 39.3315 17.9423 39.0233 17.9454 38.7017C17.9454 38.7017 17.9454 37.5088 17.9454 36.4496C17.9454 35.2883 17.9454 34.1869 17.8753 33.2121C17.9623 33.3168 18.0657 33.4016 18.18 33.462C23.2383 36.2771 26.3585 37.9416 27.2026 38.3005H27.2269L27.3458 38.3357C27.3458 38.3357 27.3732 38.2864 27.3854 38.29C27.3976 38.2935 27.4799 38.2477 27.5286 38.2477H27.553C27.5956 38.2477 27.6383 38.3005 27.681 38.2935L27.7145 38.3146C27.7585 38.3112 27.8023 38.3042 27.8455 38.2935C27.8818 38.282 27.9174 38.2679 27.9522 38.2513L45.9393 28.8556C46.1117 28.7657 46.258 28.6203 46.3607 28.4368C46.4634 28.2533 46.5181 28.0395 46.5183 27.8211V18.2988L55.3945 14.2203C55.5774 14.136 55.7341 13.9904 55.8446 13.8022C55.955 13.614 56.014 13.3919 56.014 13.1646C56.014 12.9373 55.955 12.7152 55.8446 12.527C55.7341 12.3388 55.5774 12.1932 55.3945 12.1089L29.2015 0.0811137C28.9684 -0.0244337 28.7094 -0.0244337 28.4763 0.0811137L0.619468 12.8092C0.436638 12.8934 0.279883 13.0391 0.169455 13.2272C0.0590268 13.4154 0 13.6375 0 13.8649C0 14.0922 0.0590268 14.3143 0.169455 14.5025C0.279883 14.6907 0.436638 14.8363 0.619468 14.9206V14.917ZM44.5468 27.0786L28.5189 35.4572V26.5718L44.5315 19.2172L44.5468 27.0786ZM14.4747 27.9618C14.3456 28.1503 14.2713 28.3811 14.2626 28.6213C14.2538 28.8614 14.311 29.0987 14.426 29.299C14.2824 29.3543 14.1445 29.4274 14.0146 29.5172C14.0396 29.2695 13.9969 29.019 13.8925 28.8007C13.7882 28.5824 13.6274 28.4072 13.4326 28.2996C12.9542 28.0322 12.5185 27.7999 12.101 27.5958C11.778 27.434 11.3179 27.2932 11.3179 27.1771V20.0125L14.2858 21.3743L14.3132 26.8709C14.3147 27.038 14.3483 27.2027 14.4115 27.353C14.4747 27.5033 14.5661 27.6355 14.6789 27.7401C14.6023 27.8028 14.5336 27.8774 14.4747 27.9618ZM14.7794 33.5922C14.7794 32.3042 15.0293 31.5758 15.1329 31.4104C15.4772 31.4104 15.5839 31.4315 15.7119 31.8714C15.9069 32.5329 15.9922 33.937 15.9922 36.4003C15.9922 36.7522 15.9922 37.1428 15.9922 37.4771H14.8434C14.7947 36.5481 14.7581 35.1511 14.7642 33.5922H14.7794ZM29.0583 14.2871C29.295 14.1598 29.4783 13.929 29.5677 13.6455C29.6572 13.3621 29.6454 13.0492 29.5351 12.7758C29.4248 12.5023 29.225 12.2907 28.9795 12.1874C28.7341 12.0841 28.4632 12.0976 28.2264 12.225L15.1238 19.263L3.63612 13.8789L28.8358 2.35788L52.3657 13.1787L26.971 24.844L17.6011 20.4418L29.0583 14.2871ZM16.3609 28.6234C16.3543 28.4531 16.3144 28.2868 16.2442 28.1369C16.174 27.987 16.0754 27.8574 15.9556 27.7577C16.0691 27.6516 16.1606 27.5176 16.2233 27.3653C16.286 27.2131 16.3185 27.0466 16.3182 26.878V22.3033L26.5627 27.0962V35.4854C25.0696 34.7077 22.5374 33.3282 19.0332 31.3822C18.8965 31.3111 18.7474 31.2774 18.5975 31.2837C18.4173 31.2842 18.2406 31.3415 18.0865 31.4494C17.9324 31.5573 17.8067 31.7117 17.723 31.896C17.4762 30.5201 16.9703 29.7072 16.1537 29.3659C16.2962 29.1542 16.3696 28.8913 16.3609 28.6234Z" fill="#F36A4F"/>
</svg>
