<svg width="16" height="16" viewBox="0 0 16 16" fill="none" xmlns="http://www.w3.org/2000/svg">
<path d="M8 2.00586C9.1 2.00586 10 2.90586 10 4.00586C10 5.10586 9.1 6.00586 8 6.00586C6.9 6.00586 6 5.10586 6 4.00586C6 2.90586 6.9 2.00586 8 2.00586ZM8 12.0059C10.7 12.0059 13.8 13.2959 14 14.0059H2C2.23 13.2859 5.31 12.0059 8 12.0059ZM8 0.00585938C5.79 0.00585938 4 1.79586 4 4.00586C4 6.21586 5.79 8.00586 8 8.00586C10.21 8.00586 12 6.21586 12 4.00586C12 1.79586 10.21 0.00585938 8 0.00585938ZM8 10.0059C5.33 10.0059 0 11.3459 0 14.0059V16.0059H16V14.0059C16 11.3459 10.67 10.0059 8 10.0059Z" fill="#333333"/>
</svg>
