<svg width="40" height="40" viewBox="0 0 40 40" fill="none" xmlns="http://www.w3.org/2000/svg">
<path d="M5.41017 32.6834H5.28411C4.68952 32.6834 3.76315 32.5663 3.25299 32.3742C2.11137 31.941 1.51202 31.3637 0.913861 30.5721C-0.230134 29.0603 -0.303863 26.9373 0.714078 24.895C1.38953 23.5402 2.4705 21.9909 3.88563 20.081L4.74422 18.9557C4.8243 18.8508 4.92877 18.7664 5.04885 18.7096C5.16894 18.6527 5.30113 18.6251 5.43431 18.629C5.5675 18.6329 5.69779 18.6682 5.81423 18.732C5.93067 18.7958 6.02986 18.8862 6.10346 18.9955C6.45308 19.5154 6.83243 20.0623 7.23438 20.6349C8.28799 22.1572 9.37491 23.724 9.9695 24.881C11.0112 26.9045 10.9399 29.031 9.77685 30.5697C8.71848 31.9749 7.42108 32.6026 5.43871 32.6775L5.41017 32.6834ZM5.3733 20.8562L5.22465 21.0541C3.86779 22.8856 2.83202 24.3669 2.21007 25.6152C1.47159 27.0965 1.48586 28.5837 2.24813 29.5966C2.70002 30.195 3.07223 30.5522 3.84996 30.8472C4.1199 30.9491 4.81676 31.0463 5.28292 31.0463H5.37687C6.83957 30.9889 7.69935 30.5779 8.44497 29.5954C9.2215 28.5661 9.23815 27.0825 8.48777 25.6269C7.94194 24.566 6.88238 23.0402 5.85849 21.5647L5.3733 20.8562Z" fill="#F36A4F"/>
<path d="M5.99747 30.3251C5.79281 30.3258 5.59507 30.2522 5.44203 30.1183C5.28899 29.9845 5.19138 29.7999 5.16784 29.5997C5.1443 29.3995 5.19649 29.1978 5.31443 29.033C5.43237 28.8683 5.6078 28.7522 5.8072 28.7068C5.96391 28.6775 6.11147 28.6124 6.23806 28.5168C6.36464 28.4213 6.46674 28.2978 6.53617 28.1564C6.73358 27.7267 6.6325 27.1025 6.25077 26.3999C6.21976 26.3425 6.1939 26.2826 6.17347 26.2207V26.2266C6.12829 26.125 6.10451 26.0155 6.10357 25.9046C6.10263 25.7937 6.12455 25.6837 6.16801 25.5814C6.21147 25.4791 6.27556 25.3865 6.3564 25.3093C6.43725 25.2321 6.53316 25.1719 6.63834 25.1322C6.74352 25.0926 6.85577 25.0743 6.96831 25.0786C7.08085 25.0829 7.19133 25.1097 7.29306 25.1573C7.3948 25.2049 7.48567 25.2723 7.56018 25.3554C7.63469 25.4386 7.69129 25.5358 7.72655 25.6411L7.73963 25.6762C8.34968 26.8203 8.46027 27.9398 8.05119 28.8379C7.87586 29.2075 7.6161 29.5322 7.29221 29.7865C6.96833 30.0408 6.5891 30.218 6.18418 30.304C6.12294 30.3179 6.06031 30.325 5.99747 30.3251Z" fill="#F36A4F"/>
<path d="M6.09865 24.9525C5.93746 24.9527 5.77972 24.9065 5.64489 24.8195C5.51006 24.7326 5.40406 24.6086 5.33995 24.463C5.31315 24.4027 5.29244 24.3399 5.27811 24.2756C5.22641 24.0778 5.25157 23.8681 5.34866 23.6876C5.44575 23.5071 5.60778 23.3688 5.80301 23.2998C5.99824 23.2308 6.2126 23.236 6.4041 23.3145C6.59561 23.393 6.75046 23.539 6.83832 23.7241C6.88576 23.8233 6.91553 23.9299 6.92632 24.0391C6.93925 24.154 6.92731 24.2704 6.89131 24.3805C6.8553 24.4906 6.79604 24.592 6.71741 24.6779C6.63878 24.7638 6.54258 24.8324 6.43511 24.8791C6.32765 24.9259 6.21136 24.9496 6.09389 24.9489L6.09865 24.9525Z" fill="#F36A4F"/>
<path d="M10.0866 9.1433C9.97037 9.14334 9.85538 9.1194 9.74908 9.07301C9.64278 9.02662 9.54753 8.95882 9.46946 8.87397C8.43962 7.75683 9.0311 8.24877 7.195 6.34706C5.3589 4.44535 3.4681 2.48275 2.43826 1.37029C2.29003 1.20911 2.21289 0.996539 2.22382 0.779349C2.23475 0.562158 2.33284 0.358139 2.49653 0.212171C2.66022 0.0662032 2.87609 -0.00975521 3.09665 0.00100547C3.31721 0.0117662 3.5244 0.108364 3.67264 0.26955C4.6882 1.37146 6.57662 3.32704 8.40202 5.21821C10.2453 7.12695 9.65973 6.64204 10.7026 7.77322C10.8108 7.89077 10.882 8.03668 10.9076 8.19327C10.9332 8.34986 10.9121 8.51041 10.8469 8.65544C10.7817 8.80047 10.6752 8.92376 10.5402 9.01035C10.4053 9.09695 10.2477 9.14313 10.0866 9.1433Z" fill="#F36A4F"/>
<path d="M26.1524 35.6688C26.0356 35.6688 25.92 35.6447 25.8133 35.5979C25.7065 35.5511 25.611 35.4827 25.5329 35.3971L10.9349 19.125C10.7924 18.9687 10.7162 18.7646 10.722 18.5547L10.8944 12.4737C10.8975 12.366 10.922 12.26 10.9667 12.1617C11.0113 12.0634 11.0752 11.9747 11.1547 11.9007C11.2341 11.8267 11.3276 11.7689 11.4297 11.7304C11.5319 11.692 11.6407 11.6738 11.7501 11.6768C11.8594 11.6798 11.967 11.704 12.0669 11.7479C12.1667 11.7919 12.2567 11.8548 12.3319 11.933C12.407 12.0113 12.4658 12.1033 12.5048 12.2039C12.5438 12.3045 12.5624 12.4117 12.5593 12.5193L12.3952 18.2689L26.7708 34.301C26.8783 34.4188 26.9489 34.5647 26.974 34.7211C26.9991 34.8776 26.9776 35.0378 26.9122 35.1825C26.8468 35.3271 26.7403 35.45 26.6054 35.5364C26.4706 35.6227 26.3132 35.6686 26.1524 35.6688Z" fill="#F36A4F"/>
<path d="M35.2652 27.8617C35.1504 27.8617 35.0368 27.8382 34.9316 27.7929C34.8264 27.7476 34.7319 27.6813 34.654 27.5982L19.8467 11.6422L14.2896 11.2031C14.0689 11.1857 13.8642 11.0827 13.7205 10.9167C13.5769 10.7506 13.5061 10.5352 13.5238 10.3178C13.5415 10.1004 13.6461 9.89885 13.8147 9.75742C13.9833 9.61599 14.2021 9.54631 14.4228 9.5637L20.3033 10.0321C20.5116 10.0484 20.706 10.1412 20.848 10.2921L35.8764 26.4858C35.9862 26.6028 36.059 26.7488 36.0859 26.906C36.1127 27.0631 36.0925 27.2245 36.0276 27.3705C35.9628 27.5165 35.8561 27.6407 35.7207 27.7279C35.5853 27.8152 35.427 27.8617 35.2652 27.8617Z" fill="#F36A4F"/>
<path d="M24.972 37.1407C24.8041 37.1407 24.6402 37.0907 24.5017 36.9973C24.3631 36.9039 24.2565 36.7715 24.1958 36.6174C24.1351 36.4632 24.1232 36.2946 24.1615 36.1337C24.1999 35.9728 24.2867 35.827 24.4107 35.7155L36.0818 25.4379C36.245 25.2915 36.4606 25.2149 36.6811 25.225C36.9017 25.2351 37.1092 25.3311 37.2579 25.4918C37.4066 25.6525 37.4844 25.8648 37.4741 26.082C37.4638 26.2992 37.3664 26.5035 37.2032 26.6499L25.5369 36.9264C25.3826 37.0651 25.1809 37.1416 24.972 37.1407Z" fill="#F36A4F"/>
<path d="M27.4958 40C27.328 40 27.164 39.9501 27.0255 39.8567C26.887 39.7633 26.7803 39.6308 26.7196 39.4767C26.6589 39.3226 26.647 39.154 26.6853 38.993C26.7237 38.8321 26.8106 38.6863 26.9345 38.5749L38.6068 28.2973C38.6876 28.2248 38.7821 28.1686 38.885 28.1321C38.9878 28.0956 39.0969 28.0793 39.2062 28.0843C39.3154 28.0893 39.4225 28.1155 39.5215 28.1613C39.6204 28.207 39.7092 28.2716 39.7829 28.3511C39.8565 28.4307 39.9135 28.5238 39.9506 28.6251C39.9877 28.7263 40.0042 28.8338 39.9991 28.9413C39.994 29.0489 39.9675 29.1544 39.921 29.2518C39.8745 29.3493 39.809 29.4367 39.7282 29.5093L28.0559 39.7869C27.9027 39.9241 27.703 40 27.4958 40Z" fill="#F36A4F"/>
<path d="M18.3031 26.0152C18.1349 26.0152 17.9706 25.9651 17.8319 25.8715C17.6932 25.7778 17.5866 25.6449 17.5261 25.4904C17.4656 25.3358 17.454 25.1669 17.4929 25.0057C17.5319 24.8446 17.6195 24.6989 17.7442 24.5877L25.7985 17.406C25.8796 17.3337 25.9743 17.2778 26.0773 17.2416C26.1802 17.2054 26.2894 17.1895 26.3986 17.1948C26.5079 17.2001 26.6149 17.2266 26.7138 17.2727C26.8126 17.3187 26.9012 17.3835 26.9746 17.4633C27.048 17.5431 27.1047 17.6364 27.1415 17.7378C27.1783 17.8392 27.1945 17.9467 27.1891 18.0543C27.1837 18.1618 27.1568 18.2673 27.11 18.3646C27.0632 18.4619 26.9974 18.5492 26.9164 18.6215L18.862 25.8032C18.7089 25.9397 18.5097 26.0153 18.3031 26.0152Z" fill="#F36A4F"/>
<path d="M30.5761 31.6265C30.4602 31.6265 30.3454 31.6027 30.2394 31.5565C30.1333 31.5103 30.0382 31.4428 29.9601 31.3583L22.0133 22.5291C21.9312 22.4511 21.8662 22.3574 21.8224 22.2537C21.7786 22.15 21.7569 22.0386 21.7586 21.9263C21.7604 21.814 21.7855 21.7033 21.8325 21.601C21.8796 21.4986 21.9474 21.4069 22.0319 21.3315C22.1165 21.2561 22.2158 21.1986 22.3238 21.1625C22.4318 21.1265 22.5462 21.1127 22.6599 21.122C22.7735 21.1313 22.884 21.1635 22.9845 21.2166C23.085 21.2697 23.1734 21.3426 23.2441 21.4307L31.1909 30.2599C31.2979 30.3775 31.3681 30.523 31.3931 30.6789C31.4181 30.8348 31.3969 30.9945 31.3319 31.1388C31.267 31.2831 31.1612 31.4059 31.0271 31.4924C30.893 31.5789 30.7364 31.6255 30.5761 31.6265Z" fill="#F36A4F"/>
<path d="M34.1043 38.4697C33.9933 38.4693 33.8835 38.447 33.7814 38.4042C33.6793 38.3613 33.5869 38.2988 33.5097 38.2203L31.8853 36.5715C31.8059 36.495 31.7429 36.4035 31.7 36.3026C31.6571 36.2016 31.6352 36.0933 31.6355 35.9838C31.6358 35.8744 31.6584 35.7662 31.7019 35.6655C31.7453 35.5648 31.8088 35.4736 31.8886 35.3975C31.9684 35.3213 32.0629 35.2617 32.1665 35.2221C32.27 35.1824 32.3806 35.1636 32.4917 35.1667C32.6028 35.1699 32.7121 35.1949 32.8132 35.2402C32.9143 35.2856 33.0052 35.3505 33.0804 35.431L34.7048 37.0798C34.8184 37.1952 34.895 37.341 34.9251 37.499C34.9552 37.6569 34.9374 37.8201 34.8741 37.9683C34.8107 38.1164 34.7045 38.2429 34.5687 38.332C34.4329 38.4212 34.2735 38.4691 34.1103 38.4697H34.1043Z" fill="#F36A4F"/>
<path d="M36.693 35.5694C36.5785 35.5694 36.4652 35.5461 36.3602 35.5009C36.2553 35.4558 36.1609 35.3898 36.083 35.3071L34.65 33.7848C34.5707 33.7069 34.5083 33.614 34.4663 33.5117C34.4244 33.4094 34.4038 33.2998 34.4059 33.1895C34.408 33.0793 34.4327 32.9705 34.4785 32.8698C34.5242 32.7692 34.5902 32.6786 34.6723 32.6036C34.7545 32.5286 34.8512 32.4707 34.9566 32.4334C35.062 32.3961 35.174 32.3801 35.2858 32.3864C35.3977 32.3927 35.5071 32.4212 35.6075 32.4701C35.7079 32.5191 35.7972 32.5875 35.8701 32.6712L37.3043 34.1935C37.4144 34.3104 37.4875 34.4564 37.5146 34.6137C37.5417 34.7709 37.5217 34.9325 37.4569 35.0786C37.3922 35.2248 37.2855 35.3492 37.1501 35.4366C37.0146 35.524 36.8562 35.5705 36.6942 35.5706L36.693 35.5694Z" fill="#F36A4F"/>
<path d="M32.8244 39.9137C32.6581 39.9138 32.4956 39.8648 32.3579 39.7732C32.2201 39.6815 32.1134 39.5513 32.0515 39.3993C31.9896 39.2474 31.9753 39.0807 32.0104 38.9206C32.0456 38.7606 32.1286 38.6146 32.2488 38.5015L38.0098 33.2394C38.0883 33.1626 38.1816 33.1019 38.2842 33.061C38.3868 33.0201 38.4967 32.9997 38.6074 33.0011C38.7181 33.0025 38.8274 33.0256 38.9289 33.0691C39.0304 33.1126 39.1221 33.1756 39.1985 33.2545C39.275 33.3333 39.3348 33.4263 39.3743 33.5281C39.4138 33.63 39.4323 33.7385 39.4287 33.8475C39.4251 33.9564 39.3994 34.0636 39.3532 34.1627C39.3071 34.2617 39.2413 34.3507 39.1598 34.4245L33.4 39.6866C33.245 39.8324 33.0388 39.9138 32.8244 39.9137Z" fill="#F36A4F"/>
<path d="M21.4598 18.9868C21.3444 18.9868 21.2302 18.9632 21.1246 18.9174C21.019 18.8717 20.9241 18.8048 20.8462 18.721L16.866 14.4515C16.7906 14.3725 16.732 14.2796 16.6933 14.178C16.6547 14.0765 16.637 13.9685 16.641 13.8602C16.6451 13.7519 16.671 13.6454 16.7171 13.547C16.7632 13.4486 16.8287 13.3602 16.9098 13.2868C16.9908 13.2135 17.0859 13.1568 17.1894 13.1198C17.2929 13.0829 17.4028 13.0666 17.5127 13.0718C17.6227 13.0769 17.7305 13.1036 17.8299 13.15C17.9293 13.1965 18.0184 13.262 18.092 13.3426L22.0722 17.6121C22.1814 17.7293 22.2535 17.8754 22.2799 18.0323C22.3062 18.1893 22.2856 18.3504 22.2205 18.496C22.1555 18.6416 22.0488 18.7655 21.9135 18.8524C21.7782 18.9394 21.6202 18.9857 21.4586 18.9857L21.4598 18.9868Z" fill="#F36A4F"/>
<path d="M11.5429 12.969C11.3306 12.9689 11.1264 12.8889 10.9721 12.7454L8.41651 10.3647C8.33303 10.2871 8.26677 10.1933 8.22188 10.0892C8.17699 9.98515 8.15446 9.87306 8.15568 9.76C8.15691 9.64694 8.18188 9.53536 8.22902 9.43226C8.27615 9.32916 8.34444 9.23678 8.42959 9.16092L11.0232 6.85171C11.1847 6.70781 11.3971 6.632 11.6148 6.64054C11.8324 6.64907 12.038 6.74128 12.1874 6.89737L14.4611 9.27685C14.5367 9.3551 14.5957 9.44726 14.635 9.54805C14.6743 9.64885 14.6929 9.75629 14.6899 9.8642C14.6869 9.97211 14.6622 10.0784 14.6174 10.1769C14.5726 10.2754 14.5084 10.3642 14.4286 10.4382C14.3488 10.5123 14.2549 10.57 14.1524 10.6082C14.0499 10.6464 13.9407 10.6643 13.8311 10.6609C13.7216 10.6574 13.6138 10.6327 13.5139 10.5881C13.4141 10.5435 13.3242 10.4799 13.2494 10.401L11.5345 8.60704L10.2134 9.77804L12.1161 11.5486C12.2391 11.6611 12.3247 11.8075 12.3617 11.9687C12.3987 12.13 12.3853 12.2984 12.3233 12.452C12.2613 12.6057 12.1536 12.7372 12.0143 12.8295C11.8751 12.9217 11.7107 12.9704 11.5429 12.969Z" fill="#F36A4F"/>
<path d="M11.6532 12.8987C11.4827 12.8988 11.3162 12.8474 11.1764 12.7513C11.0365 12.6552 10.93 12.5191 10.8713 12.3615C10.8125 12.2039 10.8043 12.0323 10.8478 11.8699C10.8913 11.7076 10.9844 11.5623 11.1145 11.4537L13.4239 9.52859C13.5941 9.40409 13.8061 9.34822 14.0167 9.37239C14.2273 9.39655 14.4206 9.49894 14.5571 9.65865C14.6937 9.81836 14.7632 10.0234 14.7515 10.2318C14.7398 10.4403 14.6477 10.6365 14.4942 10.7804L12.1848 12.7055C12.036 12.8292 11.8479 12.8975 11.6532 12.8987Z" fill="#F36A4F"/>
</svg>
