<svg width="80" height="80" viewBox="0 0 80 80" fill="none" xmlns="http://www.w3.org/2000/svg">
<path d="M41.5264 39.3888H39.3333C32.9644 39.3888 27.7847 34.0915 27.7847 27.5804V15.9593C27.7847 15.6042 27.9177 15.2637 28.1545 15.0126C28.3914 14.7615 28.7126 14.6205 29.0475 14.6205C29.3824 14.6205 29.7036 14.7615 29.9404 15.0126C30.1773 15.2637 30.3103 15.6042 30.3103 15.9593V27.5804C30.3103 32.6143 34.3577 36.7112 39.3354 36.7112H41.5264C46.4494 36.7112 50.3031 32.6947 50.3031 27.5804V14.8436C50.3031 14.4886 50.4362 14.148 50.673 13.8969C50.9098 13.6459 51.231 13.5048 51.566 13.5048C51.9009 13.5048 52.2221 13.6459 52.4589 13.8969C52.6957 14.148 52.8288 14.4886 52.8288 14.8436V27.5804C52.8332 29.1327 52.5455 30.6704 51.9824 32.1034C51.4194 33.5363 50.5923 34.8358 49.5496 35.9257C48.4924 37.0334 47.2397 37.9093 45.863 38.5035C44.4864 39.0977 43.0128 39.3986 41.5264 39.3888Z" fill="#C83021"/>
<path d="M46.6346 22.0906C46.3182 22.0919 46.0128 21.9672 45.7789 21.7412C45.545 21.5151 45.3997 21.2042 45.3718 20.87C45.3276 20.3256 45.0056 15.4924 47.4933 13.328C48.3037 12.6229 49.7454 11.9311 52.0122 12.6318C52.1714 12.6812 52.3199 12.7633 52.4491 12.8735C52.5784 12.9837 52.6859 13.1198 52.7656 13.2741C52.8452 13.4284 52.8954 13.5977 52.9133 13.7726C52.9312 13.9474 52.9164 14.1243 52.8699 14.293C52.8233 14.4618 52.7458 14.6192 52.6419 14.7563C52.5379 14.8933 52.4095 15.0073 52.264 15.0917C52.1185 15.1762 51.9587 15.2294 51.7938 15.2484C51.6289 15.2674 51.4621 15.2517 51.3029 15.2023C49.8422 14.7561 49.2803 15.2358 49.095 15.3965C47.8533 16.472 47.8048 19.6205 47.8848 20.638C47.9147 20.9909 47.8114 21.3419 47.5975 21.6142C47.3837 21.8864 47.0768 22.0578 46.7441 22.0906H46.6346Z" fill="#C83021"/>
<path d="M46.5146 20.8678C46.1797 20.8678 45.8585 20.7267 45.6216 20.4757C45.3848 20.2246 45.2518 19.884 45.2518 19.529V7.18273C45.2518 6.91642 45.152 6.66102 44.9743 6.47271C44.7967 6.2844 44.5558 6.17861 44.3046 6.17861C44.0534 6.17861 43.8125 6.2844 43.6349 6.47271C43.4573 6.66102 43.3575 6.91642 43.3575 7.18273V15.7356C43.3575 16.0907 43.2244 16.4312 42.9876 16.6823C42.7508 16.9334 42.4296 17.0744 42.0947 17.0744C41.7597 17.0744 41.4385 16.9334 41.2017 16.6823C40.9649 16.4312 40.8318 16.0907 40.8318 15.7356V7.18273C40.8318 6.20626 41.1977 5.26978 41.849 4.57932C42.5003 3.88885 43.3836 3.50095 44.3046 3.50095C45.2257 3.50095 46.109 3.88885 46.7603 4.57932C47.4115 5.26978 47.7774 6.20626 47.7774 7.18273V19.529C47.7774 19.884 47.6444 20.2246 47.4075 20.4757C47.1707 20.7267 46.8495 20.8678 46.5146 20.8678Z" fill="#C83021"/>
<path d="M37.8853 16.8514C37.5503 16.8514 37.2291 16.7103 36.9923 16.4593C36.7555 16.2082 36.6224 15.8676 36.6224 15.5126V3.68624C36.6224 1.65792 38.1336 0 39.99 0C41.8464 0 43.3575 1.65792 43.3575 3.6974V14.6312C43.3575 14.9862 43.2245 15.3268 42.9877 15.5779C42.7508 15.8289 42.4296 15.97 42.0947 15.97C41.7598 15.97 41.4386 15.8289 41.2018 15.5779C40.9649 15.3268 40.8319 14.9862 40.8319 14.6312V3.6974C40.8319 3.12393 40.4614 2.67766 39.99 2.67766C39.5185 2.67766 39.1481 3.12393 39.1481 3.6974V15.5237C39.1453 15.8769 39.0111 16.2145 38.7745 16.4632C38.538 16.7119 38.2184 16.8514 37.8853 16.8514Z" fill="#C83021"/>
<path d="M33.2549 17.5201C32.92 17.5201 32.5987 17.379 32.3619 17.1279C32.1251 16.8769 31.992 16.5363 31.992 16.1812V4.51558C31.992 3.50952 32.369 2.54467 33.04 1.83328C33.711 1.12188 34.6211 0.72223 35.5701 0.72223C36.519 0.72223 37.4291 1.12188 38.1001 1.83328C38.7711 2.54467 39.1481 3.50952 39.1481 4.51558V15.9581C39.1481 16.3132 39.0151 16.6537 38.7782 16.9048C38.5414 17.1559 38.2202 17.2969 37.8853 17.2969C37.5504 17.2969 37.2291 17.1559 36.9923 16.9048C36.7555 16.6537 36.6224 16.3132 36.6224 15.9581V4.51558C36.6224 4.21968 36.5116 3.9359 36.3142 3.72666C36.1169 3.51743 35.8492 3.39989 35.5701 3.39989C35.291 3.39989 35.0233 3.51743 34.8259 3.72666C34.6286 3.9359 34.5177 4.21968 34.5177 4.51558V16.1812C34.5177 16.5363 34.3847 16.8769 34.1478 17.1279C33.911 17.379 33.5898 17.5201 33.2549 17.5201Z" fill="#C83021"/>
<path d="M29.0454 18.6356C28.7104 18.6356 28.3892 18.4946 28.1524 18.2435C27.9156 17.9924 27.7825 17.6519 27.7825 17.2968V9.02731C27.7752 8.05591 28.1317 7.12111 28.7736 6.42797C29.4156 5.73482 30.2907 5.33993 31.2069 5.32991C32.0618 5.33861 32.8825 5.6875 33.5062 6.30742C34.1299 6.92735 34.5112 7.77307 34.5745 8.67698C34.5898 8.85265 34.5724 9.02981 34.5231 9.19833C34.4739 9.36685 34.3938 9.52344 34.2875 9.65916C34.1812 9.79488 34.0507 9.90707 33.9035 9.98932C33.7563 10.0716 33.5952 10.1223 33.4295 10.1385C33.0949 10.1714 32.7616 10.0619 32.5031 9.8343C32.3751 9.72158 32.2692 9.58324 32.1917 9.42716C32.1141 9.27108 32.0662 9.10034 32.0509 8.92467C32.044 8.68727 31.954 8.4611 31.7983 8.29029C31.6427 8.11949 31.4326 8.0163 31.209 8.00087C30.9621 8.01305 30.7294 8.12733 30.561 8.31921C30.3926 8.5111 30.3019 8.7653 30.3082 9.02731V17.2968C30.3082 17.6519 30.1751 17.9924 29.9383 18.2435C29.7015 18.4946 29.3803 18.6356 29.0454 18.6356Z" fill="#C83021"/>
<path d="M35.1491 67.2801H32.6234V79.999H35.1491V67.2801Z" fill="#C83021"/>
<path d="M33.8862 69.512C33.5513 69.512 33.2301 69.371 32.9933 69.1199C32.7564 68.8688 32.6234 68.5283 32.6234 68.1732V63.9336C32.6234 63.5785 32.7564 63.238 32.9933 62.9869C33.2301 62.7358 33.5513 62.5947 33.8862 62.5947C34.2211 62.5947 34.5424 62.7358 34.7792 62.9869C35.016 63.238 35.1491 63.5785 35.1491 63.9336V68.1732C35.1491 68.5283 35.016 68.8688 34.7792 69.1199C34.5424 69.371 34.2211 69.512 33.8862 69.512Z" fill="#C83021"/>
<path d="M33.9494 61.1168C33.6573 61.1166 33.3743 61.009 33.1486 60.8124C32.923 60.6158 32.7685 60.3424 32.7117 60.0386C32.6548 59.7349 32.699 59.4196 32.8368 59.1466C32.9745 58.8735 33.1973 58.6595 33.4672 58.541C33.7371 58.4226 34.0373 58.4069 34.3168 58.4968C34.5964 58.5866 34.8378 58.7764 35.0002 59.0339C35.1625 59.2913 35.2357 59.6004 35.2072 59.9086C35.1787 60.2168 35.0503 60.505 34.8439 60.7241C34.7265 60.8487 34.587 60.9476 34.4335 61.0149C34.28 61.0823 34.1155 61.117 33.9494 61.1168Z" fill="#C83021"/>
<path d="M33.8862 57.2386C33.5513 57.2386 33.2301 57.0976 32.9933 56.8465C32.7564 56.5954 32.6234 56.2549 32.6234 55.8998V52.1064C32.6234 51.7514 32.7564 51.4108 32.9933 51.1597C33.2301 50.9087 33.5513 50.7676 33.8862 50.7676C34.2211 50.7676 34.5424 50.9087 34.7792 51.1597C35.016 51.4108 35.1491 51.7514 35.1491 52.1064V55.8998C35.1491 56.2549 35.016 56.5954 34.7792 56.8465C34.5424 57.0976 34.2211 57.2386 33.8862 57.2386Z" fill="#C83021"/>
<path d="M35.1491 35.3726H32.6234V52.5543H35.1491V35.3726Z" fill="#C83021"/>
<path d="M47.3565 35.8179H44.8309V79.7761H47.3565V35.8179Z" fill="#C83021"/>
<path d="M39.4385 34.5997C39.1659 34.5981 38.901 34.5029 38.6836 34.3285C38.4662 34.154 38.3079 33.9097 38.2323 33.6319C38.1568 33.3542 38.168 33.058 38.2644 32.7876C38.3608 32.5172 38.5372 32.2872 38.7671 32.1318C40.5035 30.9782 44.5698 28.276 44.734 25.094C44.8098 23.6303 43.6164 22.0973 42.3241 22.0013C42.0287 21.9592 41.7281 21.9874 41.4443 22.0839C40.9118 22.3227 40.3751 22.7533 40.2741 22.9519C40.1759 23.288 39.9569 23.5696 39.6644 23.7359C39.3718 23.9021 39.0294 23.9395 38.711 23.8401C38.3926 23.7407 38.124 23.5124 37.9631 23.2047C37.8023 22.8969 37.7622 22.5343 37.8515 22.1955C38.2514 20.7138 39.9563 19.8503 40.4572 19.6205C41.1077 19.356 41.8078 19.2574 42.5009 19.3326C45.1844 19.5312 47.407 22.2937 47.2555 25.2413C47.045 29.2578 43.5259 32.1318 40.0994 34.4011C39.9006 34.5308 39.6719 34.5995 39.4385 34.5997Z" fill="#C83021"/>
<path d="M39.0176 34.5991C38.7808 34.5986 38.5488 34.5274 38.3483 34.3938C35.6585 32.6087 31.1565 29.6164 30.9291 25.234C30.7776 22.2841 32.9981 19.5239 35.6837 19.3253C36.3768 19.2498 37.077 19.3484 37.7274 19.6131C38.0894 19.776 39.9205 20.6664 40.3331 22.1882C40.428 22.5287 40.3914 22.8953 40.2313 23.2073C40.0712 23.5193 39.8009 23.751 39.4796 23.8516C39.1584 23.9523 38.8126 23.9134 38.5183 23.7438C38.224 23.5741 38.0054 23.2874 37.9105 22.9468C37.8116 22.746 37.2791 22.3198 36.7403 22.0788C36.4565 21.9823 36.1559 21.9541 35.8605 21.9963C34.5682 22.0922 33.3748 23.6229 33.4506 25.0889C33.6064 28.0857 37.4138 30.6161 39.689 32.1267C39.9219 32.2808 40.1011 32.5112 40.1994 32.7829C40.2978 33.0546 40.3099 33.3529 40.234 33.6326C40.1581 33.9123 39.9984 34.1582 39.7789 34.333C39.5594 34.5078 39.2921 34.602 39.0176 34.6013V34.5991Z" fill="#C83021"/>
<path d="M38.967 25.3429H38.8576C38.6923 25.328 38.5313 25.2787 38.384 25.1978C38.2367 25.117 38.1058 25.0061 37.9989 24.8717C37.892 24.7372 37.8111 24.5817 37.7609 24.414C37.7107 24.2464 37.6921 24.0699 37.7063 23.8947L37.7315 23.589C37.7442 23.4462 37.7505 23.3659 37.7715 23.078C37.7841 22.9022 37.8292 22.7307 37.9043 22.5734C37.9794 22.4161 38.083 22.2759 38.2091 22.1611C38.3353 22.0462 38.4815 21.9587 38.6396 21.9038C38.7976 21.8488 38.9643 21.8274 39.1301 21.8407C39.296 21.854 39.4577 21.9019 39.6061 21.9815C39.7545 22.0611 39.8867 22.1709 39.995 22.3046C40.1034 22.4384 40.1859 22.5935 40.2377 22.761C40.2896 22.9285 40.3098 23.1052 40.2972 23.2811C40.274 23.5935 40.2677 23.6716 40.2551 23.8255L40.2298 24.1223C40.2019 24.4565 40.0566 24.7674 39.8227 24.9934C39.5889 25.2195 39.2835 25.3442 38.967 25.3429Z" fill="#C83021"/>
<path d="M13.6809 64.1575H11.4814C5.1504 64.1575 0.000135474 58.8714 0.000135474 52.3736V40.9512C0.000135474 40.5961 0.133184 40.2556 0.370012 40.0045C0.606839 39.7534 0.928047 39.6124 1.26297 39.6124C1.5979 39.6124 1.9191 39.7534 2.15593 40.0045C2.39276 40.2556 2.52581 40.5961 2.52581 40.9512V52.3736C2.52581 57.3942 6.54373 61.4799 11.4814 61.4799H13.6809C18.6754 61.4799 22.7312 57.3942 22.7312 52.3736V39.3892C22.7312 39.0341 22.8642 38.6936 23.1011 38.4425C23.3379 38.1914 23.6591 38.0504 23.994 38.0504C24.3289 38.0504 24.6502 38.1914 24.887 38.4425C25.1238 38.6936 25.2569 39.0341 25.2569 39.3892V52.3736C25.2569 58.8714 20.0603 64.1575 13.6809 64.1575Z" fill="#C83021"/>
<path d="M18.7848 46.8876C18.4683 46.8889 18.1629 46.7642 17.9291 46.5381C17.6952 46.3121 17.5499 46.0012 17.522 45.667C17.4778 45.1225 17.1557 40.2894 19.6435 38.1272C20.4538 37.422 21.8956 36.7303 24.1624 37.431C24.3216 37.4803 24.47 37.5625 24.5993 37.6727C24.7286 37.7829 24.8361 37.919 24.9157 38.0733C24.9954 38.2275 25.0456 38.3969 25.0635 38.5718C25.0814 38.7466 25.0666 38.9235 25.02 39.0922C24.9735 39.261 24.896 39.4184 24.792 39.5555C24.6881 39.6925 24.5597 39.8065 24.4142 39.8909C24.2687 39.9754 24.1089 40.0286 23.944 40.0476C23.7791 40.0665 23.6123 40.0509 23.4531 40.0015C21.9924 39.5552 21.4304 40.035 21.2452 40.1956C20.0034 41.2712 19.955 44.4197 20.035 45.4372C20.0491 45.6124 20.0306 45.7889 19.9804 45.9565C19.9302 46.1242 19.8493 46.2797 19.7424 46.4141C19.6355 46.5486 19.5046 46.6595 19.3573 46.7403C19.2099 46.8212 19.049 46.8704 18.8837 46.8853L18.7848 46.8876Z" fill="#C83021"/>
<path d="M18.7322 45.8587C18.3973 45.8587 18.0761 45.7177 17.8392 45.4666C17.6024 45.2155 17.4694 44.875 17.4694 44.5199V31.9751C17.4694 31.7088 17.3696 31.4534 17.192 31.2651C17.0143 31.0768 16.7734 30.971 16.5222 30.971C16.271 30.971 16.0301 31.0768 15.8525 31.2651C15.6749 31.4534 15.5751 31.7088 15.5751 31.9751V40.7266C15.5751 41.0816 15.4421 41.4222 15.2052 41.6733C14.9684 41.9243 14.6472 42.0654 14.3123 42.0654C13.9774 42.0654 13.6561 41.9243 13.4193 41.6733C13.1825 41.4222 13.0494 41.0816 13.0494 40.7266V31.9751C13.0494 30.9986 13.4153 30.0622 14.0666 29.3717C14.7179 28.6812 15.6012 28.2933 16.5222 28.2933C17.4433 28.2933 18.3266 28.6812 18.9779 29.3717C19.6292 30.0622 19.995 30.9986 19.995 31.9751V44.5199C19.995 44.875 19.862 45.2155 19.6252 45.4666C19.3883 45.7177 19.0671 45.8587 18.7322 45.8587Z" fill="#C83021"/>
<path d="M9.89239 41.6205C9.55747 41.6205 9.23626 41.4795 8.99943 41.2284C8.7626 40.9773 8.62956 40.6368 8.62956 40.2817V28.4911C8.62956 27.5146 8.99544 26.5781 9.64671 25.8877C10.298 25.1972 11.1813 24.8093 12.1024 24.8093C13.0234 24.8093 13.9067 25.1972 14.558 25.8877C15.2093 26.5781 15.5752 27.5146 15.5752 28.4911V39.1682C15.5752 39.5233 15.4421 39.8639 15.2053 40.1149C14.9685 40.366 14.6472 40.5071 14.3123 40.5071C13.9774 40.5071 13.6562 40.366 13.4194 40.1149C13.1825 39.8639 13.0495 39.5233 13.0495 39.1682V28.4911C13.0495 28.2248 12.9497 27.9694 12.7721 27.7811C12.5945 27.5928 12.3535 27.487 12.1024 27.487C11.8512 27.487 11.6103 27.5928 11.4326 27.7811C11.255 27.9694 11.1552 28.2248 11.1552 28.4911V40.2839C11.1547 40.6386 11.0214 40.9786 10.7846 41.2292C10.5478 41.4798 10.227 41.6205 9.89239 41.6205Z" fill="#C83021"/>
<path d="M5.68286 42.512C5.34794 42.512 5.02673 42.3709 4.7899 42.1198C4.55307 41.8687 4.42002 41.5282 4.42002 41.1731V29.3089C4.42002 27.2359 5.89333 25.6115 7.78759 25.6115C9.68184 25.6115 11.1551 27.2359 11.1551 29.3089V40.95C11.1551 41.3051 11.0221 41.6456 10.7853 41.8967C10.5484 42.1478 10.2272 42.2888 9.89231 42.2888C9.55739 42.2888 9.23618 42.1478 8.99935 41.8967C8.76253 41.6456 8.62948 41.3051 8.62948 40.95V29.3089C8.62948 28.8024 8.36849 28.2891 7.78759 28.2891C7.20668 28.2891 6.9457 28.8001 6.9457 29.3089V41.1731C6.9457 41.5282 6.81265 41.8687 6.57582 42.1198C6.33899 42.3709 6.01779 42.512 5.68286 42.512Z" fill="#C83021"/>
<path d="M1.263 43.6285C0.92808 43.6285 0.606873 43.4875 0.370045 43.2364C0.133217 42.9853 0.000168831 42.6448 0.000168831 42.2897V33.8105C-0.00883695 32.8457 0.342767 31.9164 0.97813 31.2257C1.61349 30.5349 2.48094 30.1389 3.39088 30.1242C5.11255 30.1242 6.59638 31.6416 6.75845 33.5784C6.77379 33.7535 6.75645 33.9301 6.70742 34.098C6.65839 34.266 6.57864 34.4221 6.47271 34.5574C6.36678 34.6927 6.23675 34.8046 6.09004 34.8866C5.94334 34.9686 5.78283 35.0192 5.61768 35.0355C5.45254 35.0518 5.28599 35.0334 5.12754 34.9814C4.96909 34.9294 4.82185 34.8449 4.69423 34.7326C4.56661 34.6203 4.4611 34.4824 4.38373 34.3269C4.30636 34.1713 4.25864 34.0012 4.2433 33.8261C4.20962 33.2816 3.8013 32.8019 3.39088 32.8019C3.1489 32.8163 2.92212 32.9316 2.76005 33.1227C2.59798 33.3137 2.51379 33.565 2.52584 33.8216V42.3009C2.52306 42.654 2.38879 42.9917 2.15226 43.2404C1.91574 43.489 1.59611 43.6286 1.263 43.6285Z" fill="#C83021"/>
<path d="M7.36667 60.3642H4.841V79.7772H7.36667V60.3642Z" fill="#C83021"/>
<path d="M19.5742 60.8092H17.0485V79.5528H19.5742V60.8092Z" fill="#C83021"/>
<path d="M11.5887 59.3931C11.3142 59.3937 11.0469 59.2995 10.8275 59.1247C10.608 58.9499 10.4482 58.704 10.3723 58.4243C10.2964 58.1446 10.3085 57.8463 10.4069 57.5746C10.5052 57.3029 10.6844 57.0725 10.9173 56.9185C12.6537 55.7648 16.72 53.0626 16.8842 49.8807C16.96 48.4169 15.7666 46.8839 14.4743 46.788C14.1789 46.7455 13.8783 46.7737 13.5945 46.8706C13.062 47.1115 12.5253 47.54 12.4243 47.7386C12.3261 48.0747 12.1071 48.3563 11.8145 48.5225C11.522 48.6887 11.1795 48.7262 10.8612 48.6268C10.5428 48.5274 10.2742 48.2991 10.1133 47.9913C9.95249 47.6835 9.91241 47.321 10.0017 46.9821C10.4016 45.5005 12.1065 44.6369 12.6074 44.4071C13.2579 44.1428 13.958 44.0442 14.6511 44.1193C17.3367 44.3179 19.5572 47.0803 19.4057 50.028C19.1952 54.0444 15.6761 56.9185 12.2496 59.1878C12.0515 59.3198 11.8227 59.3909 11.5887 59.3931Z" fill="#C83021"/>
<path d="M11.1658 59.3925C10.9289 59.392 10.697 59.3208 10.4964 59.1872C7.80661 57.4021 3.3046 54.4076 3.07729 50.0274C2.92575 47.0775 5.14834 44.3173 7.83187 44.1165C8.52566 44.0407 9.22653 44.1393 9.87766 44.4043C10.2397 44.5672 12.0708 45.4597 12.4833 46.9793C12.5726 47.3182 12.5326 47.6807 12.3717 47.9885C12.2109 48.2963 11.9422 48.5246 11.6239 48.624C11.3055 48.7234 10.963 48.6859 10.6705 48.5197C10.378 48.3535 10.159 48.0719 10.0608 47.7358C9.96185 47.5349 9.42935 47.1087 8.89054 46.8678C8.60686 46.7705 8.30615 46.7423 8.01077 46.7852C6.71847 46.8811 5.52509 48.4119 5.60086 49.8779C5.75661 52.8746 9.56406 55.405 11.8393 56.9157C12.0721 57.0698 12.2513 57.3001 12.3497 57.5718C12.448 57.8435 12.4602 58.1418 12.3843 58.4215C12.3084 58.7012 12.1486 58.9471 11.9291 59.1219C11.7096 59.2967 11.4424 59.3909 11.1679 59.3903L11.1658 59.3925Z" fill="#C83021"/>
<path d="M11.1152 50.1338H11.0057C10.8404 50.1189 10.6795 50.0696 10.5322 49.9888C10.3849 49.9079 10.254 49.7971 10.1471 49.6626C10.0402 49.5281 9.95929 49.3726 9.90908 49.205C9.85887 49.0373 9.84031 48.8609 9.85445 48.6856L9.8776 48.3933C9.89023 48.2416 9.89655 48.1702 9.91759 47.8712C9.94271 47.5161 10.0999 47.1861 10.3544 46.9539C10.609 46.7216 10.9402 46.6061 11.2751 46.6328C11.6101 46.6594 11.9213 46.826 12.1404 47.0959C12.3594 47.3658 12.4684 47.7169 12.4433 48.072C12.4201 48.3911 12.4138 48.4669 12.4012 48.6276L12.378 48.9132C12.3501 49.2474 12.2048 49.5583 11.9709 49.7844C11.737 50.0104 11.4316 50.1351 11.1152 50.1338Z" fill="#C83021"/>
<path d="M68.6037 64.3799H66.4106C60.0816 64.3799 54.9335 59.0938 54.9335 52.596V41.1736C54.9335 40.8185 55.0665 40.478 55.3034 40.2269C55.5402 39.9758 55.8614 39.8347 56.1963 39.8347C56.5312 39.8347 56.8525 39.9758 57.0893 40.2269C57.3261 40.478 57.4592 40.8185 57.4592 41.1736V52.596C57.4592 57.6166 61.475 61.7023 66.4106 61.7023H68.6037C73.4846 61.7023 77.4541 57.6166 77.4541 52.596V39.6116C77.4541 39.2565 77.5871 38.916 77.8239 38.6649C78.0608 38.4138 78.382 38.2728 78.7169 38.2728C79.0518 38.2728 79.373 38.4138 79.6099 38.6649C79.8467 38.916 79.9797 39.2565 79.9797 39.6116V52.596C79.9835 54.1526 79.6913 55.694 79.1207 57.1283C78.55 58.5625 77.7126 59.8601 76.6585 60.9436C74.5036 63.1664 71.6102 64.4008 68.6037 64.3799Z" fill="#C83021"/>
<path d="M73.7139 47.1121C73.3975 47.1135 73.0921 46.9887 72.8582 46.7627C72.6243 46.5367 72.479 46.2258 72.4511 45.8916C72.4069 45.3471 72.0849 40.5139 74.5727 38.3517C75.383 37.6466 76.8247 36.9549 79.0915 37.6555C79.413 37.7553 79.684 37.9863 79.8449 38.2979C80.0057 38.6094 80.0432 38.9759 79.9492 39.3168C79.8551 39.6577 79.6372 39.945 79.3433 40.1155C79.0495 40.286 78.7037 40.3258 78.3822 40.2261C76.9215 39.7798 76.3596 40.2596 76.1744 40.4202C74.9326 41.4958 74.8842 44.6442 74.9641 45.6617C74.9783 45.837 74.9597 46.0135 74.9095 46.1811C74.8593 46.3487 74.7784 46.5042 74.6715 46.6387C74.5646 46.7732 74.4337 46.884 74.2864 46.9649C74.1391 47.0457 73.9782 47.095 73.8129 47.1099L73.7139 47.1121Z" fill="#C83021"/>
<path d="M73.6656 46.0833C73.3307 46.0833 73.0095 45.9423 72.7727 45.6912C72.5358 45.4401 72.4028 45.0996 72.4028 44.7445V32.1997C72.4028 31.9334 72.303 31.678 72.1254 31.4897C71.9477 31.3014 71.7068 31.1956 71.4557 31.1956C71.2045 31.1956 70.9636 31.3014 70.7859 31.4897C70.6083 31.678 70.5085 31.9334 70.5085 32.1997V40.9512C70.5085 41.3062 70.3755 41.6468 70.1386 41.8979C69.9018 42.1489 69.5806 42.29 69.2457 42.29C68.9108 42.29 68.5896 42.1489 68.3527 41.8979C68.1159 41.6468 67.9828 41.3062 67.9828 40.9512V32.1997C67.9828 31.2232 68.3487 30.2868 69 29.5963C69.6513 28.9058 70.5346 28.5179 71.4557 28.5179C72.3767 28.5179 73.26 28.9058 73.9113 29.5963C74.5626 30.2868 74.9285 31.2232 74.9285 32.1997V44.7445C74.9285 45.0996 74.7954 45.4401 74.5586 45.6912C74.3217 45.9423 74.0005 46.0833 73.6656 46.0833Z" fill="#C83021"/>
<path d="M64.8257 41.8432C64.4908 41.8432 64.1696 41.7021 63.9327 41.451C63.6959 41.2 63.5629 40.8594 63.5629 40.5044V28.7137C63.5629 27.7373 63.9288 26.8008 64.58 26.1103C65.2313 25.4199 66.1146 25.032 67.0357 25.032C67.9567 25.032 68.84 25.4199 69.4913 26.1103C70.1426 26.8008 70.5085 27.7373 70.5085 28.7137V39.3909C70.5085 39.746 70.3754 40.0865 70.1386 40.3376C69.9018 40.5887 69.5806 40.7297 69.2456 40.7297C68.9107 40.7297 68.5895 40.5887 68.3527 40.3376C68.1158 40.0865 67.9828 39.746 67.9828 39.3909V28.7137C67.9828 28.4474 67.883 28.192 67.7054 28.0037C67.5278 27.8154 67.2869 27.7096 67.0357 27.7096C66.7845 27.7096 66.5436 27.8154 66.3659 28.0037C66.1883 28.192 66.0885 28.4474 66.0885 28.7137V40.5066C66.088 40.8613 65.9547 41.2012 65.7179 41.4518C65.4812 41.7024 65.1603 41.8432 64.8257 41.8432Z" fill="#C83021"/>
<path d="M60.6163 42.7346C60.2814 42.7346 59.9601 42.5935 59.7233 42.3424C59.4865 42.0914 59.3534 41.7508 59.3534 41.3958V29.5315C59.3534 27.4586 60.8268 25.8341 62.721 25.8341C64.6153 25.8341 66.0886 27.4586 66.0886 29.5315V41.1726C66.0886 41.5277 65.9555 41.8682 65.7187 42.1193C65.4819 42.3704 65.1607 42.5114 64.8257 42.5114C64.4908 42.5114 64.1696 42.3704 63.9328 42.1193C63.6959 41.8682 63.5629 41.5277 63.5629 41.1726V29.5315C63.5629 29.025 63.3019 28.5118 62.721 28.5118C62.1401 28.5118 61.8791 29.0228 61.8791 29.5315V41.3958C61.8791 41.5716 61.8464 41.7457 61.783 41.9081C61.7195 42.0705 61.6265 42.2181 61.5092 42.3424C61.392 42.4668 61.2528 42.5654 61.0995 42.6327C60.9463 42.7 60.7821 42.7346 60.6163 42.7346Z" fill="#C83021"/>
<path d="M56.1963 43.8509C55.8614 43.8509 55.5402 43.7099 55.3033 43.4588C55.0665 43.2077 54.9335 42.8672 54.9335 42.5121V34.0329C54.9245 33.0685 55.2758 32.1395 55.9107 31.4488C56.5456 30.7582 57.4125 30.3619 58.3221 30.3466C60.0458 30.3466 61.5276 31.864 61.6896 33.8008C61.7206 34.1544 61.6178 34.5066 61.4039 34.7798C61.19 35.0531 60.8824 35.225 60.5489 35.2579C60.2153 35.2907 59.8832 35.1818 59.6254 34.955C59.3677 34.7282 59.2055 34.4021 59.1745 34.0485C59.1261 33.5018 58.7241 33.0243 58.3137 33.0243C58.072 33.0393 57.8458 33.1548 57.6842 33.3458C57.5226 33.5368 57.4386 33.7878 57.4507 34.044V42.5233C57.448 42.8749 57.3149 43.2112 57.0801 43.4596C56.8454 43.7081 56.528 43.8486 56.1963 43.8509Z" fill="#C83021"/>
<path d="M62.7209 61.4779H60.1953V79.9984H62.7209V61.4779Z" fill="#C83021"/>
<path d="M75.1389 76.4298H72.6132V80H75.1389V76.4298Z" fill="#C83021"/>
<path d="M73.8761 77.9915C73.5412 77.9915 73.2199 77.8504 72.9831 77.5994C72.7463 77.3483 72.6132 77.0077 72.6132 76.6527V73.3056C72.6132 72.9505 72.7463 72.61 72.9831 72.3589C73.2199 72.1078 73.5412 71.9668 73.8761 71.9668C74.211 71.9668 74.5322 72.1078 74.769 72.3589C75.0059 72.61 75.1389 72.9505 75.1389 73.3056V76.6527C75.1389 77.0077 75.0059 77.3483 74.769 77.5994C74.5322 77.8504 74.211 77.9915 73.8761 77.9915Z" fill="#C83021"/>
<path d="M73.794 71.1653C73.5018 71.1656 73.2186 71.0584 72.9926 70.8621C72.7665 70.6658 72.6117 70.3925 72.5545 70.0887C72.4973 69.785 72.5411 69.4696 72.6787 69.1963C72.8162 68.923 73.0389 68.7087 73.3087 68.59C73.5786 68.4712 73.8789 68.4553 74.1586 68.545C74.4382 68.6347 74.6799 68.8245 74.8424 69.0819C75.0049 69.3393 75.0781 69.6486 75.0497 69.9568C75.0212 70.2651 74.8928 70.5534 74.6864 70.7726C74.4491 71.0227 74.1285 71.1638 73.794 71.1653Z" fill="#C83021"/>
<path d="M73.8761 67.728C73.5412 67.728 73.2199 67.5869 72.9831 67.3359C72.7463 67.0848 72.6132 66.7442 72.6132 66.3892V62.3727C72.6132 62.0176 72.7463 61.6771 72.9831 61.426C73.2199 61.1749 73.5412 61.0338 73.8761 61.0338C74.211 61.0338 74.5322 61.1749 74.769 61.426C75.0059 61.6771 75.1389 62.0176 75.1389 62.3727V66.3892C75.1389 66.7442 75.0059 67.0848 74.769 67.3359C74.5322 67.5869 74.211 67.728 73.8761 67.728Z" fill="#C83021"/>
<path d="M66.5095 59.6157C66.235 59.6163 65.9678 59.5221 65.7483 59.3473C65.5288 59.1725 65.369 58.9267 65.2931 58.647C65.2172 58.3673 65.2294 58.069 65.3277 57.7972C65.4261 57.5255 65.6052 57.2952 65.8381 57.1411C67.5745 55.9875 71.6408 53.2853 71.805 50.1033C71.8808 48.6395 70.6874 47.1066 69.3951 47.0106C69.0997 46.9681 68.7991 46.9963 68.5153 47.0932C67.9828 47.3342 67.4461 47.7626 67.3451 47.9612C67.2469 48.2973 67.0279 48.5789 66.7354 48.7451C66.4428 48.9114 66.1004 48.9488 65.782 48.8494C65.4636 48.75 65.195 48.5217 65.0341 48.2139C64.8733 47.9061 64.8332 47.5436 64.9226 47.2047C65.3225 45.7231 67.0273 44.8596 67.5282 44.6297C68.1787 44.3649 68.8788 44.2663 69.5719 44.3419C72.2575 44.5405 74.478 47.3029 74.3265 50.2506C74.116 54.2671 70.5969 57.1411 67.1704 59.4104C66.9723 59.5424 66.7435 59.6135 66.5095 59.6157Z" fill="#C83021"/>
<path d="M66.0886 59.616C65.8518 59.6155 65.6198 59.5443 65.4193 59.4107C62.7295 57.6256 58.2274 54.6333 58.0001 50.2509C57.8486 47.301 60.0712 44.5408 62.7547 44.34C63.4499 44.2635 64.1523 44.3621 64.8047 44.6278C65.1667 44.7907 66.9978 45.681 67.4104 47.2028C67.4997 47.5417 67.4596 47.9042 67.2988 48.212C67.1379 48.5198 66.8693 48.7481 66.5509 48.8475C66.2326 48.9469 65.8901 48.9094 65.5976 48.7432C65.305 48.577 65.086 48.2954 64.9878 47.9593C64.8889 47.7585 64.3564 47.3323 63.8176 47.0913C63.5339 46.9942 63.2332 46.966 62.9378 47.0087C61.6455 47.1047 60.4521 48.6354 60.5279 50.1014C60.6837 53.0982 64.4911 55.6285 66.7663 57.1392C67.0007 57.2931 67.1811 57.5242 67.28 57.797C67.3789 58.0699 67.3908 58.3695 67.314 58.6503C67.2372 58.931 67.0758 59.1773 66.8546 59.3517C66.6333 59.5261 66.3643 59.6189 66.0886 59.616Z" fill="#C83021"/>
<path d="M66.0443 50.3577H65.9349C65.7696 50.3428 65.6087 50.2935 65.4613 50.2127C65.314 50.1318 65.1831 50.021 65.0762 49.8865C64.9693 49.752 64.8884 49.5965 64.8382 49.4289C64.788 49.2612 64.7694 49.0848 64.7836 48.9095L64.8088 48.6127C64.8215 48.4655 64.8278 48.3896 64.8488 48.0951C64.8742 47.74 65.0316 47.4101 65.2864 47.1781C65.5412 46.9461 65.8725 46.8308 66.2074 46.8577C66.5424 46.8847 66.8535 47.0516 67.0723 47.3217C67.2912 47.5918 67.3999 47.943 67.3745 48.2981C67.3513 48.615 67.345 48.6908 67.3324 48.8493L67.3092 49.1393C67.2808 49.4735 67.135 49.7842 66.9007 50.0098C66.6664 50.2355 66.3608 50.3596 66.0443 50.3577Z" fill="#C83021"/>
</svg>
