<svg width="96" height="91" viewBox="0 0 96 91" fill="none" xmlns="http://www.w3.org/2000/svg">
<path d="M49.8274 44.8051H47.1958C39.5538 44.8051 33.3387 38.7794 33.3387 31.3729V18.1539C33.3387 17.7499 33.4983 17.3626 33.7825 17.077C34.0667 16.7914 34.4521 16.6309 34.854 16.6309C35.2558 16.6309 35.6412 16.7914 35.9254 17.077C36.2096 17.3626 36.3692 17.7499 36.3692 18.1539V31.3729C36.3692 37.0991 41.2257 41.7592 47.1984 41.7592H49.8274C55.7344 41.7592 60.3585 37.1904 60.3585 31.3729V16.8847C60.3585 16.4808 60.5181 16.0935 60.8023 15.8079C61.0865 15.5223 61.4719 15.3618 61.8738 15.3618C62.2756 15.3618 62.661 15.5223 62.9452 15.8079C63.2294 16.0935 63.389 16.4808 63.389 16.8847V31.3729C63.3943 33.1387 63.0491 34.8878 62.3735 36.5178C61.6978 38.1478 60.7054 39.626 59.4544 40.8658C58.1858 42.1257 56.6826 43.1221 55.0308 43.798C53.379 44.474 51.6108 44.8162 49.8274 44.8051Z" fill="#F36A4F"/>
<path d="M55.9567 25.1282C55.5769 25.1297 55.2105 24.9879 54.9299 24.7307C54.6493 24.4736 54.4749 24.12 54.4414 23.7398C54.3884 23.1205 54.002 17.6227 56.987 15.1607C57.9593 14.3586 59.6893 13.5717 62.4092 14.3687C62.6002 14.4249 62.7784 14.5183 62.9335 14.6437C63.0886 14.7691 63.2176 14.9239 63.3132 15.0994C63.4087 15.2749 63.469 15.4675 63.4904 15.6664C63.5119 15.8653 63.4942 16.0664 63.4383 16.2584C63.3824 16.4504 63.2895 16.6295 63.1647 16.7854C63.04 16.9413 62.8859 17.0709 62.7114 17.167C62.5368 17.263 62.3451 17.3236 62.1472 17.3451C61.9493 17.3667 61.7491 17.3489 61.5581 17.2928C59.8055 16.7851 59.1312 17.3308 58.9089 17.5136C57.4189 18.737 57.3608 22.3184 57.4568 23.4758C57.4926 23.8773 57.3686 24.2766 57.1121 24.5863C56.8555 24.896 56.4873 25.0909 56.088 25.1282H55.9567Z" fill="#F36A4F"/>
<path d="M55.8126 23.7373C55.4108 23.7373 55.0253 23.5768 54.7412 23.2912C54.457 23.0056 54.2974 22.6182 54.2974 22.2143V8.17041C54.2974 7.86748 54.1776 7.57696 53.9645 7.36275C53.7514 7.14855 53.4623 7.02821 53.1609 7.02821C52.8595 7.02821 52.5704 7.14855 52.3573 7.36275C52.1442 7.57696 52.0245 7.86748 52.0245 8.17041V17.8994C52.0245 18.3033 51.8648 18.6906 51.5807 18.9762C51.2965 19.2619 50.9111 19.4223 50.5092 19.4223C50.1073 19.4223 49.7219 19.2619 49.4377 18.9762C49.1536 18.6906 48.9939 18.3033 48.9939 17.8994V8.17041C48.9939 7.05967 49.4329 5.99442 50.2144 5.20901C50.9959 4.4236 52.0558 3.98236 53.1609 3.98236C54.2661 3.98236 55.326 4.4236 56.1074 5.20901C56.8889 5.99442 57.3279 7.05967 57.3279 8.17041V22.2143C57.3279 22.6182 57.1683 23.0056 56.8841 23.2912C56.5999 23.5768 56.2145 23.7373 55.8126 23.7373Z" fill="#F36A4F"/>
<path d="M45.4584 19.1686C45.0565 19.1686 44.6711 19.0081 44.3869 18.7225C44.1027 18.4369 43.9431 18.0496 43.9431 17.6457V4.19313C43.9431 1.88589 45.7564 0 47.9838 0C50.2113 0 52.0245 1.88589 52.0245 4.20582V16.6431C52.0245 17.047 51.8649 17.4343 51.5807 17.7199C51.2965 18.0055 50.9111 18.166 50.5093 18.166C50.1074 18.166 49.722 18.0055 49.4378 17.7199C49.1536 17.4343 48.994 17.047 48.994 16.6431V4.20582C48.994 3.5535 48.5495 3.04586 47.9838 3.04586C47.4181 3.04586 46.9736 3.5535 46.9736 4.20582V17.6583C46.9703 18.06 46.8092 18.4442 46.5254 18.727C46.2416 19.0099 45.858 19.1686 45.4584 19.1686Z" fill="#F36A4F"/>
<path d="M39.9024 19.9292C39.5005 19.9292 39.1151 19.7688 38.8309 19.4831C38.5467 19.1975 38.3871 18.8102 38.3871 18.4063V5.1365C38.3871 3.9921 38.8394 2.89458 39.6446 2.08536C40.4497 1.27615 41.5417 0.821542 42.6804 0.821542C43.819 0.821542 44.911 1.27615 45.7162 2.08536C46.5213 2.89458 46.9736 3.9921 46.9736 5.1365V18.1525C46.9736 18.5564 46.814 18.9437 46.5298 19.2293C46.2457 19.5149 45.8602 19.6754 45.4584 19.6754C45.0565 19.6754 44.6711 19.5149 44.3869 19.2293C44.1027 18.9437 43.9431 18.5564 43.9431 18.1525V5.1365C43.9431 4.79991 43.8101 4.47711 43.5733 4.23911C43.3364 4.00111 43.0153 3.8674 42.6804 3.8674C42.3455 3.8674 42.0243 4.00111 41.7875 4.23911C41.5507 4.47711 41.4176 4.79991 41.4176 5.1365V18.4063C41.4176 18.8102 41.258 19.1975 40.9738 19.4831C40.6897 19.7688 40.3043 19.9292 39.9024 19.9292Z" fill="#F36A4F"/>
<path d="M34.8514 21.1982C34.4495 21.1982 34.0641 21.0377 33.7799 20.7521C33.4958 20.4665 33.3361 20.0792 33.3361 19.6752V10.2686C33.3274 9.16366 33.755 8.10032 34.5253 7.31186C35.2956 6.5234 36.3456 6.07421 37.445 6.06281C38.4708 6.07271 39.4555 6.46957 40.2039 7.17474C40.9523 7.87991 41.4098 8.84192 41.4857 9.87013C41.5042 10.07 41.4832 10.2715 41.4241 10.4632C41.3651 10.6549 41.269 10.833 41.1414 10.9874C41.0138 11.1417 40.8573 11.2694 40.6806 11.3629C40.504 11.4565 40.3107 11.5142 40.1119 11.5327C39.7104 11.57 39.3105 11.4455 39.0003 11.1866C38.8467 11.0584 38.7197 10.901 38.6266 10.7235C38.5335 10.5459 38.4761 10.3517 38.4577 10.1519C38.4495 9.88183 38.3415 9.62456 38.1547 9.43027C37.9679 9.23598 37.7158 9.1186 37.4476 9.10106C37.1512 9.1149 36.8721 9.2449 36.6701 9.46317C36.468 9.68144 36.3591 9.9706 36.3667 10.2686V19.6752C36.3667 20.0792 36.207 20.4665 35.9228 20.7521C35.6387 21.0377 35.2533 21.1982 34.8514 21.1982Z" fill="#F36A4F"/>
<path d="M42.1752 76.5317H39.1446V90.9995H42.1752V76.5317Z" fill="#F36A4F"/>
<path d="M40.6599 79.0705C40.258 79.0705 39.8726 78.91 39.5885 78.6244C39.3043 78.3388 39.1446 77.9514 39.1446 77.5475V72.7249C39.1446 72.321 39.3043 71.9337 39.5885 71.6481C39.8726 71.3624 40.258 71.202 40.6599 71.202C41.0618 71.202 41.4472 71.3624 41.7314 71.6481C42.0155 71.9337 42.1752 72.321 42.1752 72.7249V77.5475C42.1752 77.9514 42.0155 78.3388 41.7314 78.6244C41.4472 78.91 41.0618 79.0705 40.6599 79.0705Z" fill="#F36A4F"/>
<path d="M40.7357 69.5208C40.3852 69.5206 40.0457 69.3982 39.7749 69.1746C39.5041 68.9509 39.3188 68.6399 39.2506 68.2944C39.1824 67.9489 39.2354 67.5903 39.4007 67.2797C39.566 66.9691 39.8333 66.7256 40.1571 66.5909C40.4809 66.4561 40.8412 66.4383 41.1766 66.5405C41.512 66.6427 41.8018 66.8587 41.9966 67.1515C42.1914 67.4443 42.2791 67.7959 42.2449 68.1465C42.2107 68.4971 42.0567 68.8249 41.809 69.0741C41.6681 69.2159 41.5008 69.3283 41.3166 69.405C41.1325 69.4816 40.935 69.521 40.7357 69.5208Z" fill="#F36A4F"/>
<path d="M40.6599 65.1094C40.258 65.1094 39.8726 64.9489 39.5885 64.6633C39.3043 64.3777 39.1446 63.9903 39.1446 63.5864V59.2715C39.1446 58.8676 39.3043 58.4802 39.5885 58.1946C39.8726 57.909 40.258 57.7485 40.6599 57.7485C41.0618 57.7485 41.4472 57.909 41.7314 58.1946C42.0155 58.4802 42.1752 58.8676 42.1752 59.2715V63.5864C42.1752 63.9903 42.0155 64.3777 41.7314 64.6633C41.4472 64.9489 41.0618 65.1094 40.6599 65.1094Z" fill="#F36A4F"/>
<path d="M42.1752 40.2366H39.1446V59.7809H42.1752V40.2366Z" fill="#F36A4F"/>
<path d="M56.8229 40.7431H53.7923V90.7459H56.8229V40.7431Z" fill="#F36A4F"/>
<path d="M47.3221 39.3574C46.9949 39.3556 46.6772 39.2473 46.4163 39.0489C46.1554 38.8505 45.9655 38.5725 45.8748 38.2566C45.7841 37.9407 45.7976 37.6037 45.9133 37.2962C46.029 36.9886 46.2406 36.7269 46.5165 36.5502C48.6 35.2379 53.4791 32.1642 53.6761 28.5447C53.767 26.8796 52.3351 25.1358 50.7845 25.0267C50.43 24.9788 50.0694 25.0109 49.7288 25.1206C49.0899 25.3922 48.4459 25.8821 48.3247 26.108C48.2069 26.4903 47.9441 26.8107 47.5931 26.9997C47.2421 27.1888 46.8311 27.2314 46.4491 27.1183C46.0671 27.0053 45.7448 26.7456 45.5518 26.3955C45.3588 26.0454 45.3107 25.633 45.4179 25.2475C45.8977 23.5622 47.9434 22.5799 48.5444 22.3184C49.325 22.0176 50.165 21.9055 50.9966 21.991C54.2166 22.2169 56.8834 25.3592 56.7016 28.7122C56.4491 33.281 52.2265 36.5502 48.1151 39.1315C47.8766 39.279 47.6021 39.3572 47.3221 39.3574Z" fill="#F36A4F"/>
<path d="M46.8171 39.3567C46.5329 39.3561 46.2546 39.2752 46.014 39.1232C42.7864 37.0926 37.3845 33.6889 37.1117 28.7038C36.9299 25.3483 39.5943 22.2086 42.8167 21.9827C43.6484 21.8968 44.4885 22.0089 45.269 22.3101C45.7033 22.4954 47.9005 23.5081 48.3955 25.2392C48.5093 25.6266 48.4654 26.0436 48.2734 26.3985C48.0813 26.7533 47.7569 27.017 47.3714 27.1314C46.9859 27.2459 46.571 27.2017 46.2179 27.0087C45.8649 26.8157 45.6025 26.4896 45.4887 26.1022C45.37 25.8737 44.731 25.3889 44.0845 25.1148C43.744 25.0051 43.3833 24.973 43.0289 25.0209C41.4783 25.13 40.0463 26.8713 40.1372 28.5389C40.3241 31.9477 44.8927 34.826 47.6227 36.5444C47.9021 36.7197 48.1171 36.9817 48.2351 37.2908C48.3531 37.5999 48.3677 37.9392 48.2766 38.2573C48.1856 38.5755 47.9938 38.8552 47.7305 39.054C47.4671 39.2528 47.1465 39.36 46.8171 39.3593V39.3567Z" fill="#F36A4F"/>
<path d="M46.7563 28.8277H46.625C46.4267 28.8107 46.2336 28.7547 46.0568 28.6627C45.88 28.5708 45.723 28.4447 45.5947 28.2917C45.4664 28.1387 45.3694 27.9618 45.3091 27.7712C45.2489 27.5805 45.2266 27.3797 45.2436 27.1804L45.2739 26.8327C45.289 26.6702 45.2966 26.5788 45.3219 26.2514C45.337 26.0514 45.3911 25.8564 45.4812 25.6774C45.5713 25.4984 45.6956 25.3391 45.8469 25.2084C45.9983 25.0777 46.1738 24.9782 46.3634 24.9157C46.5531 24.8532 46.7531 24.8288 46.952 24.844C47.151 24.8591 47.3451 24.9135 47.5232 25.0041C47.7012 25.0946 47.8598 25.2195 47.9899 25.3717C48.1199 25.5238 48.2188 25.7002 48.281 25.8908C48.3433 26.0814 48.3675 26.2824 48.3524 26.4824C48.3246 26.8377 48.3171 26.9266 48.3019 27.1017L48.2716 27.4393C48.2381 27.8194 48.0637 28.1731 47.7831 28.4302C47.5025 28.6873 47.1361 28.8292 46.7563 28.8277Z" fill="#F36A4F"/>
<path d="M16.4156 72.9797H13.7765C6.17994 72.9797 0.000162555 66.9667 0.000162555 59.5754V46.5823C0.000162555 46.1784 0.159807 45.791 0.443975 45.5054C0.728144 45.2198 1.11356 45.0594 1.51543 45.0594C1.91731 45.0594 2.30272 45.2198 2.58689 45.5054C2.87106 45.791 3.0307 46.1784 3.0307 46.5823V59.5754C3.0307 65.2864 7.85179 69.9338 13.7765 69.9338H16.4156C22.4085 69.9338 27.275 65.2864 27.275 59.5754V44.8055C27.275 44.4016 27.4347 44.0143 27.7189 43.7287C28.003 43.4431 28.3884 43.2826 28.7903 43.2826C29.1922 43.2826 29.5776 43.4431 29.8618 43.7287C30.1459 44.0143 30.3056 44.4016 30.3056 44.8055V59.5754C30.3056 66.9667 24.0702 72.9797 16.4156 72.9797Z" fill="#F36A4F"/>
<path d="M22.5398 53.335C22.1601 53.3365 21.7936 53.1946 21.513 52.9375C21.2324 52.6804 21.0581 52.3267 21.0245 51.9466C20.9715 51.3272 20.5851 45.8295 23.5702 43.3699C24.5425 42.5679 26.2724 41.781 28.9923 42.578C29.1833 42.6342 29.3615 42.7276 29.5166 42.853C29.6717 42.9783 29.8007 43.1332 29.8963 43.3086C29.9918 43.4841 30.0521 43.6768 30.0736 43.8757C30.095 44.0745 30.0773 44.2757 30.0214 44.4677C29.9656 44.6597 29.8726 44.8388 29.7479 44.9946C29.6231 45.1505 29.4691 45.2802 29.2945 45.3762C29.1199 45.4723 28.9282 45.5328 28.7303 45.5544C28.5324 45.576 28.3323 45.5582 28.1412 45.502C26.3886 44.9944 25.7143 45.5401 25.492 45.7229C24.002 46.9463 23.9439 50.5277 24.0399 51.6851C24.0569 51.8845 24.0346 52.0852 23.9744 52.2759C23.9141 52.4666 23.8171 52.6435 23.6888 52.7964C23.5605 52.9494 23.4035 53.0755 23.2267 53.1675C23.0499 53.2594 22.8568 53.3155 22.6585 53.3324L22.5398 53.335Z" fill="#F36A4F"/>
<path d="M22.4767 52.1647C22.0748 52.1647 21.6894 52.0042 21.4052 51.7186C21.1211 51.433 20.9614 51.0456 20.9614 50.6417V36.3719C20.9614 36.069 20.8417 35.7785 20.6286 35.5643C20.4154 35.3501 20.1264 35.2297 19.825 35.2297C19.5236 35.2297 19.2345 35.3501 19.0214 35.5643C18.8082 35.7785 18.6885 36.069 18.6885 36.3719V46.3268C18.6885 46.7307 18.5289 47.118 18.2447 47.4036C17.9605 47.6893 17.5751 47.8497 17.1732 47.8497C16.7714 47.8497 16.386 47.6893 16.1018 47.4036C15.8176 47.118 15.658 46.7307 15.658 46.3268V36.3719C15.658 35.2612 16.097 34.1959 16.8785 33.4105C17.6599 32.6251 18.7198 32.1839 19.825 32.1839C20.9301 32.1839 21.99 32.6251 22.7715 33.4105C23.5529 34.1959 23.992 35.2612 23.992 36.3719V50.6417C23.992 51.0456 23.8323 51.433 23.5481 51.7186C23.264 52.0042 22.8786 52.1647 22.4767 52.1647Z" fill="#F36A4F"/>
<path d="M11.8698 47.3437C11.468 47.3437 11.0825 47.1832 10.7984 46.8976C10.5142 46.612 10.3546 46.2247 10.3546 45.8207V32.4088C10.3546 31.2981 10.7936 30.2328 11.575 29.4474C12.3565 28.662 13.4164 28.2208 14.5216 28.2208C15.6267 28.2208 16.6866 28.662 17.4681 29.4474C18.2495 30.2328 18.6886 31.2981 18.6886 32.4088V44.5542C18.6886 44.9581 18.5289 45.3454 18.2447 45.6311C17.9606 45.9167 17.5752 46.0771 17.1733 46.0771C16.7714 46.0771 16.386 45.9167 16.1018 45.6311C15.8177 45.3454 15.658 44.9581 15.658 44.5542V32.4088C15.658 32.1059 15.5383 31.8154 15.3252 31.6012C15.112 31.387 14.823 31.2666 14.5216 31.2666C14.2202 31.2666 13.9311 31.387 13.718 31.6012C13.5048 31.8154 13.3851 32.1059 13.3851 32.4088V45.8233C13.3844 46.2267 13.2245 46.6135 12.9404 46.8985C12.6563 47.1836 12.2713 47.3437 11.8698 47.3437Z" fill="#F36A4F"/>
<path d="M6.81884 48.3577C6.41696 48.3577 6.03155 48.1972 5.74738 47.9116C5.46321 47.626 5.30357 47.2387 5.30357 46.8347V33.3391C5.30357 30.9811 7.07138 29.1332 9.34429 29.1332C11.6172 29.1332 13.385 30.9811 13.385 33.3391V46.5809C13.385 46.9848 13.2254 47.3722 12.9412 47.6578C12.657 47.9434 12.2716 48.1039 11.8697 48.1039C11.4679 48.1039 11.0825 47.9434 10.7983 47.6578C10.5141 47.3722 10.3545 46.9848 10.3545 46.5809V33.3391C10.3545 32.7629 10.0413 32.1791 9.34429 32.1791C8.64727 32.1791 8.33411 32.7604 8.33411 33.3391V46.8347C8.33411 47.2387 8.17447 47.626 7.8903 47.9116C7.60613 48.1972 7.22071 48.3577 6.81884 48.3577Z" fill="#F36A4F"/>
<path d="M1.51547 49.6278C1.1136 49.6278 0.728184 49.4673 0.444015 49.1817C0.159847 48.8961 0.00020258 48.5088 0.00020258 48.1049V38.4597C-0.0106034 37.3622 0.411284 36.3051 1.17365 35.5194C1.93602 34.7337 2.97687 34.2833 4.06871 34.2665C6.13452 34.2665 7.91497 35.9925 8.10943 38.1957C8.12783 38.3949 8.10703 38.5957 8.0482 38.7868C7.98938 38.9779 7.89368 39.1554 7.76657 39.3093C7.63947 39.4632 7.48345 39.5905 7.30742 39.6838C7.13139 39.7771 6.93879 39.8346 6.74063 39.8531C6.54247 39.8716 6.34263 39.8507 6.15251 39.7916C5.96239 39.7325 5.78572 39.6363 5.63259 39.5086C5.47945 39.3808 5.35285 39.224 5.26001 39.0471C5.16718 38.8702 5.10992 38.6766 5.09151 38.4774C5.05111 37.8581 4.56117 37.3124 4.06871 37.3124C3.77835 37.3288 3.50624 37.46 3.31177 37.6773C3.11731 37.8946 3.01628 38.1804 3.03074 38.4724V48.1176C3.02741 48.5193 2.8663 48.9034 2.58249 49.1862C2.29868 49.4691 1.91517 49.6278 1.51547 49.6278Z" fill="#F36A4F"/>
<path d="M8.83923 68.6648H5.80869V90.7472H8.83923V68.6648Z" fill="#F36A4F"/>
<path d="M23.4869 69.171H20.4564V90.492H23.4869V69.171Z" fill="#F36A4F"/>
<path d="M13.9052 67.5601C13.5758 67.5608 13.2552 67.4536 12.9918 67.2548C12.7284 67.0559 12.5367 66.7763 12.4457 66.4581C12.3546 66.14 12.3692 65.8007 12.4872 65.4916C12.6052 65.1825 12.8202 64.9204 13.0996 64.7452C15.1831 63.4329 20.0623 60.3591 20.2593 56.7396C20.3502 55.0746 18.9183 53.3308 17.3676 53.2217C17.0132 53.1733 16.6525 53.2054 16.312 53.3156C15.673 53.5897 15.0291 54.0771 14.9078 54.303C14.79 54.6853 14.5272 55.0056 14.1762 55.1947C13.8252 55.3838 13.4143 55.4264 13.0323 55.3133C12.6503 55.2002 12.3279 54.9406 12.1349 54.5905C11.9419 54.2404 11.8938 53.828 12.001 53.4425C12.4809 51.7571 14.5265 50.7749 15.1276 50.5134C15.9082 50.2127 16.7481 50.1006 17.5798 50.186C20.8022 50.4119 23.4666 53.5542 23.2848 56.9072C23.0322 61.476 18.8097 64.7452 14.6982 67.3265C14.4605 67.4767 14.186 67.5576 13.9052 67.5601Z" fill="#F36A4F"/>
<path d="M13.3977 67.5594C13.1135 67.5588 12.8353 67.4779 12.5946 67.3259C9.36712 65.2953 3.96518 61.889 3.69243 56.9065C3.51059 53.551 6.17747 50.4112 9.39742 50.1828C10.2299 50.0966 11.0709 50.2088 11.8522 50.5102C12.2865 50.6955 14.4837 51.7108 14.9787 53.4393C15.0859 53.8248 15.0378 54.2372 14.8448 54.5873C14.6518 54.9374 14.3294 55.1971 13.9474 55.3101C13.5654 55.4232 13.1545 55.3806 12.8035 55.1915C12.4525 55.0025 12.1897 54.6821 12.0719 54.2998C11.9532 54.0713 11.3142 53.5865 10.6677 53.3124C10.3273 53.2018 9.96652 53.1697 9.61208 53.2185C8.06146 53.3277 6.62953 55.0689 6.72044 56.7365C6.90733 60.1453 11.4759 63.0236 14.2059 64.742C14.4853 64.9173 14.7003 65.1793 14.8183 65.4884C14.9363 65.7975 14.9509 66.1368 14.8598 66.4549C14.7688 66.7731 14.577 67.0528 14.3137 67.2516C14.0503 67.4504 13.7297 67.5576 13.4003 67.5569L13.3977 67.5594Z" fill="#F36A4F"/>
<path d="M13.3371 57.0276H13.2057C13.0074 57.0106 12.8143 56.9546 12.6375 56.8626C12.4607 56.7706 12.3037 56.6446 12.1754 56.4916C12.0471 56.3386 11.9501 56.1617 11.8899 55.971C11.8296 55.7803 11.8073 55.5796 11.8243 55.3803L11.8521 55.0478C11.8672 54.8752 11.8748 54.7939 11.9001 54.4538C11.9302 54.0499 12.1188 53.6746 12.4242 53.4104C12.7297 53.1462 13.1271 53.0148 13.529 53.0451C13.9309 53.0754 14.3043 53.2649 14.5672 53.5719C14.83 53.8789 14.9608 54.2784 14.9306 54.6823C14.9028 55.0452 14.8953 55.1315 14.8801 55.3143L14.8523 55.6392C14.8188 56.0193 14.6445 56.373 14.3638 56.6301C14.0832 56.8872 13.7168 57.0291 13.3371 57.0276Z" fill="#F36A4F"/>
<path d="M82.3173 73.2327H79.6857C72.0917 73.2327 65.9144 67.2196 65.9144 59.8284V46.8352C65.9144 46.4313 66.0741 46.044 66.3583 45.7584C66.6424 45.4728 67.0278 45.3123 67.4297 45.3123C67.8316 45.3123 68.217 45.4728 68.5012 45.7584C68.7853 46.044 68.945 46.4313 68.945 46.8352V59.8284C68.945 65.5393 73.7635 70.1868 79.6857 70.1868H82.3173C88.1738 70.1868 92.9368 65.5393 92.9368 59.8284V45.0585C92.9368 44.6546 93.0964 44.2672 93.3806 43.9816C93.6648 43.696 94.0502 43.5356 94.452 43.5356C94.8539 43.5356 95.2393 43.696 95.5235 43.9816C95.8077 44.2672 95.9673 44.6546 95.9673 45.0585V59.8284C95.9718 61.599 95.6213 63.3524 94.9365 64.9838C94.2518 66.6153 93.247 68.0913 91.9822 69.3238C89.3965 71.8522 85.9247 73.2563 82.3173 73.2327Z" fill="#F36A4F"/>
<path d="M88.449 53.5904C88.0693 53.5919 87.7028 53.4501 87.4222 53.1929C87.1416 52.9358 86.9673 52.5822 86.9337 52.202C86.8807 51.5827 86.4943 46.0849 89.4794 43.6254C90.4517 42.8233 92.1816 42.0365 94.9015 42.8335C95.2873 42.9469 95.6125 43.2097 95.8055 43.5641C95.9985 43.9185 96.0435 44.3354 95.9307 44.7232C95.8178 45.1109 95.5563 45.4377 95.2037 45.6317C94.8511 45.8257 94.4363 45.8709 94.0505 45.7575C92.2978 45.2498 91.6235 45.7956 91.4013 45.9783C89.9112 47.2017 89.8532 50.7832 89.9491 51.9406C89.9661 52.1399 89.9438 52.3407 89.8836 52.5313C89.8233 52.722 89.7263 52.8989 89.598 53.0519C89.4697 53.2049 89.3127 53.3309 89.1359 53.4229C88.9591 53.5149 88.7661 53.5709 88.5677 53.5879L88.449 53.5904Z" fill="#F36A4F"/>
<path d="M88.391 52.4201C87.9892 52.4201 87.6037 52.2597 87.3196 51.9741C87.0354 51.6885 86.8758 51.3011 86.8758 50.8972V36.6274C86.8758 36.3245 86.756 36.0339 86.5429 35.8197C86.3298 35.6055 86.0407 35.4852 85.7393 35.4852C85.4379 35.4852 85.1488 35.6055 84.9357 35.8197C84.7226 36.0339 84.6029 36.3245 84.6029 36.6274V46.5823C84.6029 46.9862 84.4432 47.3735 84.159 47.6591C83.8749 47.9447 83.4895 48.1052 83.0876 48.1052C82.6857 48.1052 82.3003 47.9447 82.0161 47.6591C81.7319 47.3735 81.5723 46.9862 81.5723 46.5823V36.6274C81.5723 35.5167 82.0113 34.4514 82.7928 33.666C83.5743 32.8806 84.6341 32.4393 85.7393 32.4393C86.8445 32.4393 87.9044 32.8806 88.6858 33.666C89.4673 34.4514 89.9063 35.5167 89.9063 36.6274V50.8972C89.9063 51.3011 89.7467 51.6885 89.4625 51.9741C89.1783 52.2597 88.7929 52.4201 88.391 52.4201Z" fill="#F36A4F"/>
<path d="M77.7841 47.5969C77.3822 47.5969 76.9968 47.4365 76.7126 47.1509C76.4284 46.8653 76.2688 46.4779 76.2688 46.074V32.6621C76.2688 31.5513 76.7078 30.4861 77.4893 29.7007C78.2707 28.9153 79.3306 28.474 80.4358 28.474C81.5409 28.474 82.6008 28.9153 83.3823 29.7007C84.1638 30.4861 84.6028 31.5513 84.6028 32.6621V44.8074C84.6028 45.2113 84.4431 45.5987 84.159 45.8843C83.8748 46.1699 83.4894 46.3304 83.0875 46.3304C82.6856 46.3304 82.3002 46.1699 82.0161 45.8843C81.7319 45.5987 81.5722 45.2113 81.5722 44.8074V32.6621C81.5722 32.3592 81.4525 32.0686 81.2394 31.8544C81.0263 31.6402 80.7372 31.5199 80.4358 31.5199C80.1344 31.5199 79.8453 31.6402 79.6322 31.8544C79.4191 32.0686 79.2993 32.3592 79.2993 32.6621V46.0765C79.2987 46.48 79.1387 46.8667 78.8546 47.1518C78.5705 47.4368 78.1855 47.5969 77.7841 47.5969Z" fill="#F36A4F"/>
<path d="M72.7332 48.6109C72.3313 48.6109 71.9459 48.4505 71.6617 48.1649C71.3776 47.8793 71.2179 47.4919 71.2179 47.088V33.5923C71.2179 31.2343 72.9857 29.3865 75.2586 29.3865C77.5315 29.3865 79.2994 31.2343 79.2994 33.5923V46.8342C79.2994 47.2381 79.1397 47.6254 78.8556 47.911C78.5714 48.1966 78.186 48.3571 77.7841 48.3571C77.3822 48.3571 76.9968 48.1966 76.7126 47.911C76.4285 47.6254 76.2688 47.2381 76.2688 46.8342V33.5923C76.2688 33.0161 75.9557 32.4323 75.2586 32.4323C74.5616 32.4323 74.2485 33.0136 74.2485 33.5923V47.088C74.2485 47.288 74.2093 47.486 74.1331 47.6708C74.057 47.8556 73.9454 48.0234 73.8046 48.1649C73.6639 48.3063 73.4969 48.4184 73.3131 48.495C73.1292 48.5715 72.9322 48.6109 72.7332 48.6109Z" fill="#F36A4F"/>
<path d="M67.4297 49.8808C67.0278 49.8808 66.6424 49.7203 66.3582 49.4347C66.0741 49.1491 65.9144 48.7618 65.9144 48.3579V38.7126C65.9036 37.6157 66.3251 36.5589 67.087 35.7733C67.8488 34.9876 68.889 34.5369 69.9804 34.5195C72.0487 34.5195 73.8267 36.2455 74.0211 38.4487C74.0583 38.8509 73.935 39.2515 73.6783 39.5623C73.4216 39.8731 73.0525 40.0688 72.6523 40.1061C72.2521 40.1435 71.8535 40.0195 71.5443 39.7615C71.235 39.5035 71.0404 39.1326 71.0032 38.7304C70.9451 38.1086 70.4628 37.5654 69.9703 37.5654C69.6804 37.5824 69.4089 37.7139 69.215 37.9311C69.021 38.1484 68.9204 38.4338 68.9349 38.7253V48.3705C68.9315 48.7705 68.7718 49.1531 68.4902 49.4357C68.2086 49.7182 67.8276 49.8781 67.4297 49.8808Z" fill="#F36A4F"/>
<path d="M75.2586 69.9316H72.228V90.9987H75.2586V69.9316Z" fill="#F36A4F"/>
<path d="M90.1588 86.9395H87.1283V91.0006H90.1588V86.9395Z" fill="#F36A4F"/>
<path d="M88.6436 88.7159C88.2417 88.7159 87.8563 88.5555 87.5721 88.2699C87.2879 87.9843 87.1283 87.5969 87.1283 87.193V83.3857C87.1283 82.9818 87.2879 82.5944 87.5721 82.3088C87.8563 82.0232 88.2417 81.8627 88.6436 81.8627C89.0454 81.8627 89.4308 82.0232 89.715 82.3088C89.9992 82.5944 90.1588 82.9818 90.1588 83.3857V87.193C90.1588 87.5969 89.9992 87.9843 89.715 88.2699C89.4308 88.5555 89.0454 88.7159 88.6436 88.7159Z" fill="#F36A4F"/>
<path d="M88.545 80.9511C88.1945 80.9514 87.8546 80.8295 87.5834 80.6062C87.3122 80.3829 87.1265 80.072 87.0578 79.7265C86.9891 79.381 87.0418 79.0222 87.2068 78.7113C87.3718 78.4004 87.639 78.1567 87.9628 78.0216C88.2866 77.8865 88.647 77.8684 88.9825 77.9705C89.3181 78.0725 89.6081 78.2883 89.803 78.5812C89.998 78.874 90.0859 79.2258 90.0518 79.5764C90.0176 79.9271 89.8636 80.2551 89.6158 80.5044C89.3312 80.7889 88.9465 80.9493 88.545 80.9511Z" fill="#F36A4F"/>
<path d="M88.6436 77.0411C88.2417 77.0411 87.8563 76.8806 87.5721 76.595C87.2879 76.3094 87.1283 75.9221 87.1283 75.5182V70.9494C87.1283 70.5455 87.2879 70.1581 87.5721 69.8725C87.8563 69.5869 88.2417 69.4265 88.6436 69.4265C89.0454 69.4265 89.4308 69.5869 89.715 69.8725C89.9992 70.1581 90.1588 70.5455 90.1588 70.9494V75.5182C90.1588 75.9221 89.9992 76.3094 89.715 76.595C89.4308 76.8806 89.0454 77.0411 88.6436 77.0411Z" fill="#F36A4F"/>
<path d="M79.8045 67.8133C79.4751 67.814 79.1544 67.7068 78.8911 67.508C78.6277 67.3092 78.436 67.0295 78.3449 66.7114C78.2538 66.3932 78.2684 66.0539 78.3864 65.7448C78.5044 65.4357 78.7194 65.1737 78.9989 64.9984C81.0824 63.6861 85.9615 60.6124 86.1585 56.9929C86.2494 55.3278 84.8175 53.5841 83.2669 53.4749C82.9124 53.4266 82.5517 53.4587 82.2112 53.5688C81.5723 53.843 80.9283 54.3303 80.8071 54.5562C80.6893 54.9385 80.4264 55.2589 80.0755 55.448C79.7245 55.637 79.3135 55.6796 78.9315 55.5666C78.5495 55.4535 78.2272 55.1938 78.0342 54.8437C77.8412 54.4936 77.7931 54.0812 77.9003 53.6957C78.3801 52.0104 80.4257 51.0281 81.0268 50.7666C81.8073 50.4654 82.6474 50.3532 83.479 50.4392C86.7015 50.6651 89.3658 53.8074 89.184 57.1604C88.9314 61.7292 84.7089 64.9984 80.5975 67.5798C80.3598 67.7299 80.0852 67.8108 79.8045 67.8133Z" fill="#F36A4F"/>
<path d="M79.2994 67.8137C79.0152 67.8131 78.7369 67.7321 78.4963 67.5802C75.2688 65.5496 69.8668 62.1458 69.5941 57.1608C69.4123 53.8053 72.0791 50.6655 75.2991 50.4371C76.1332 50.35 76.976 50.4622 77.7589 50.7645C78.1933 50.9498 80.3904 51.9625 80.8854 53.6936C80.9926 54.0791 80.9445 54.4914 80.7515 54.8415C80.5585 55.1916 80.2362 55.4513 79.8542 55.5644C79.4722 55.6775 79.0612 55.6349 78.7102 55.4458C78.3592 55.2567 78.0964 54.9364 77.9786 54.554C77.8599 54.3256 77.221 53.8408 76.5744 53.5667C76.234 53.4562 75.8732 53.4242 75.5188 53.4728C73.9682 53.5819 72.5362 55.3231 72.6272 56.9907C72.814 60.3995 77.3826 63.2779 80.1126 64.9963C80.3938 65.1714 80.6103 65.4342 80.7289 65.7446C80.8476 66.0549 80.862 66.3958 80.7698 66.7151C80.6776 67.0344 80.484 67.3147 80.2185 67.513C79.953 67.7114 79.6302 67.817 79.2994 67.8137Z" fill="#F36A4F"/>
<path d="M79.2463 57.2822H79.1149C78.9166 57.2653 78.7235 57.2092 78.5467 57.1173C78.37 57.0253 78.2129 56.8992 78.0846 56.7463C77.9564 56.5933 77.8593 56.4164 77.7991 56.2257C77.7388 56.035 77.7165 55.8343 77.7335 55.6349L77.7638 55.2974C77.779 55.1298 77.7866 55.0435 77.8118 54.7085C77.8423 54.3046 78.0312 53.9294 78.3369 53.6654C78.6426 53.4015 79.0401 53.2704 79.442 53.301C79.8439 53.3317 80.2172 53.5215 80.4798 53.8288C80.7424 54.136 80.8728 54.5356 80.8423 54.9395C80.8146 55.2999 80.807 55.3862 80.7918 55.5664L80.7641 55.8964C80.7299 56.2765 80.5549 56.6299 80.2738 56.8866C79.9928 57.1432 79.626 57.2844 79.2463 57.2822Z" fill="#F36A4F"/>
</svg>
