<svg width="24" height="23" viewBox="0 0 24 23" fill="none" xmlns="http://www.w3.org/2000/svg">
<path d="M22.7368 5.85659V3.00659C22.7368 1.63159 21.6 0.506592 20.2105 0.506592H2.52632C1.12421 0.506592 0 1.63159 0 3.00659V20.5066C0 21.8816 1.12421 23.0066 2.52632 23.0066H20.2105C21.6 23.0066 22.7368 21.8816 22.7368 20.5066V17.6566C23.4821 17.2191 24 16.4316 24 15.5066V8.00659C24 7.08159 23.4821 6.29409 22.7368 5.85659ZM21.4737 8.00659V15.5066H12.6316V8.00659H21.4737ZM2.52632 20.5066V3.00659H20.2105V5.50659H12.6316C11.2421 5.50659 10.1053 6.63159 10.1053 8.00659V15.5066C10.1053 16.8816 11.2421 18.0066 12.6316 18.0066H20.2105V20.5066H2.52632Z" fill="white"/>
</svg>
