<svg width="77" height="81" viewBox="0 0 77 81" fill="none" xmlns="http://www.w3.org/2000/svg">
<path d="M10.2388 21.3368C11.31 21.3368 12.1784 20.4731 12.1784 19.4077C12.1784 18.3422 11.31 17.4785 10.2388 17.4785C9.16761 17.4785 8.29921 18.3422 8.29921 19.4077C8.29921 20.4731 9.16761 21.3368 10.2388 21.3368Z" fill="#F36A4F"/>
<path d="M65.4649 31.3938C66.5721 31.3938 67.4697 30.5011 67.4697 29.3998C67.4697 28.2986 66.5721 27.4059 65.4649 27.4059C64.3577 27.4059 63.4601 28.2986 63.4601 29.3998C63.4601 30.5011 64.3577 31.3938 65.4649 31.3938Z" fill="#F36A4F"/>
<path d="M32.5861 5.55946C33.6573 5.55946 34.5257 4.69576 34.5257 3.63032C34.5257 2.56489 33.6573 1.70118 32.5861 1.70118C31.5148 1.70118 30.6464 2.56489 30.6464 3.63032C30.6464 4.69576 31.5148 5.55946 32.5861 5.55946Z" fill="#F36A4F"/>
<path d="M8.83864 29.8715H6.14161V33.01H8.83864V29.8715Z" fill="#F36A4F"/>
<path d="M8.83864 34.6687H6.14161V37.8072H8.83864V34.6687Z" fill="#F36A4F"/>
<path d="M6.54162 32.3841H3.3861V35.0666H6.54162V32.3841Z" fill="#F36A4F"/>
<path d="M11.5942 32.3841H8.43868V35.0666H11.5942V32.3841Z" fill="#F36A4F"/>
<path d="M66.9124 0.223633H64.2153V3.36211H66.9124V0.223633Z" fill="#F36A4F"/>
<path d="M66.9124 5.02077H64.2153V8.15926H66.9124V5.02077Z" fill="#F36A4F"/>
<path d="M64.6153 2.73621H61.4598V5.41867H64.6153V2.73621Z" fill="#F36A4F"/>
<path d="M69.6678 2.73621H66.5123V5.41867H69.6678V2.73621Z" fill="#F36A4F"/>
<path d="M42.0075 80.0001C40.7627 79.9871 39.5241 79.8227 38.3193 79.5105C37.7035 79.3585 36.0966 78.822 33.0669 77.8116C27.3065 75.8892 13.8146 71.3804 11.8435 71.6599C10.5782 71.8342 9.02513 72.3305 7.22486 73.1106C7.06253 73.1817 6.88772 73.2202 6.71041 73.2241C6.5331 73.2279 6.35677 73.197 6.19148 73.133C6.02619 73.0691 5.87517 72.9734 5.74706 72.8514C5.61895 72.7295 5.51625 72.5836 5.44483 72.4221C5.3734 72.2607 5.33465 72.0868 5.33078 71.9105C5.32691 71.7341 5.35801 71.5587 5.42229 71.3943C5.48657 71.2299 5.58277 71.0797 5.70542 70.9523C5.82806 70.8249 5.97473 70.7227 6.13706 70.6517C8.15983 69.7575 9.95785 69.2076 11.4727 68.9975C13.646 68.698 21.3618 71.0675 33.9254 75.2566C36.3438 76.0636 38.434 76.761 38.9734 76.8951C41.4119 77.5009 42.8818 77.2595 43.0953 77.2193C46.6914 76.1016 50.6133 72.7038 56.0253 68.0207C58.6572 65.745 61.6441 63.1632 65.1638 60.3354C66.9123 58.9316 68.4541 57.7043 69.7262 56.6939C71.3714 55.3862 72.8166 54.235 73.2931 53.8215C73.3235 53.5851 73.2642 53.346 73.1267 53.1509C72.7604 52.6345 71.7782 52.3573 70.4432 52.3774C67.6653 52.4266 58.2908 58.2542 50.4695 63.9835C49.0855 64.9829 47.7673 66.0693 46.5228 67.236C46.2679 67.4839 45.9246 67.6212 45.5681 67.618C45.2117 67.6149 44.8709 67.4714 44.6205 67.2191C44.3701 66.9668 44.2303 66.6261 44.2317 66.2715C44.2331 65.9169 44.3757 65.5773 44.6281 65.327C45.9654 64.073 47.3845 62.908 48.876 61.8398C51.6202 59.828 65.5548 49.7978 70.4005 49.7106C74.0392 49.6458 75.2889 51.3 75.7136 52.2925C76.2171 53.4727 76.0553 54.9012 75.3338 55.6187C74.9765 55.9741 73.8752 56.8527 71.4164 58.8064C70.1465 59.8145 68.6092 61.0418 66.8629 62.4389C63.3792 65.2354 60.4147 67.8038 57.8009 70.0616C52.1124 74.9794 48.0039 78.5359 43.846 79.8145L43.7831 79.8324C43.2 79.958 42.604 80.0143 42.0075 80.0001Z" fill="#F36A4F"/>
<path d="M3.29632 75.1649C3.07315 75.1585 2.85476 75.0991 2.6593 74.9918C2.46384 74.8845 2.29697 74.7323 2.17255 74.548C2.05343 74.3647 1.52527 73.4034 2.72994 72.5853C2.88297 72.4931 3.05276 72.4318 3.22962 72.4049C3.40647 72.378 3.58692 72.386 3.76066 72.4285C3.93441 72.4709 4.09804 72.547 4.24223 72.6523C4.38641 72.7577 4.50833 72.8902 4.601 73.0424C4.69368 73.1946 4.75531 73.3635 4.78236 73.5394C4.80942 73.7153 4.80138 73.8948 4.7587 74.0676C4.71602 74.2404 4.63954 74.4031 4.53362 74.5466C4.4277 74.69 4.29442 74.8112 4.14138 74.9034C3.88847 75.0646 3.59653 75.1549 3.29632 75.1649Z" fill="#F36A4F"/>
<path d="M54.0475 54.7089L52.6091 52.4399L53.7486 51.7246C54.4228 51.2999 55.0499 50.8953 55.6005 50.5376C58.338 48.7627 60.1473 47.5914 62.4982 47.9133C65.6447 48.3425 67.4023 51.0764 67.4742 51.1926L68.1934 52.3282L65.9121 53.7588L65.1952 52.6277C65.1547 52.5651 63.9815 50.8238 62.1296 50.5712C60.8283 50.3923 59.7067 51.0786 57.0726 52.7864C56.513 53.1486 55.8815 53.5576 55.187 53.9935L54.0475 54.7089Z" fill="#F36A4F"/>
<path d="M42.3134 63.3643C37.0744 63.3643 31.0758 63.1274 29.2777 63.0514C29.1006 63.0439 28.9268 63.0018 28.766 62.9275C28.6053 62.8532 28.4609 62.7481 28.341 62.6182C28.2211 62.4884 28.1281 62.3364 28.0673 62.1708C28.0064 62.0052 27.979 61.8293 27.9865 61.6532C27.9941 61.477 28.0364 61.3041 28.1111 61.1442C28.1858 60.9844 28.2915 60.8407 28.422 60.7215C28.5526 60.6022 28.7055 60.5097 28.8719 60.4492C29.0384 60.3887 29.2153 60.3614 29.3924 60.3689C36.8429 60.6841 48.067 60.8764 49.692 60.3153C50.6427 59.9867 51.2091 58.9897 51.2091 57.6485C51.2091 56.5084 49.8606 55.84 49.265 55.6008C47.5074 55.0241 24.0927 51.0138 19.4336 52.1025C17.1861 52.6255 10.6682 55.3684 5.55513 57.6909C5.22997 57.8391 4.85893 57.8528 4.52363 57.7289C4.18833 57.6051 3.91625 57.3538 3.76723 57.0304C3.61821 56.707 3.60446 56.3379 3.72901 56.0044C3.85356 55.671 4.10621 55.4003 4.43137 55.2521C5.54165 54.7469 15.3835 50.2873 18.8155 49.4871C24.3377 48.1995 48.6739 52.4735 50.2494 53.1017C52.5733 54.0271 53.9038 55.6836 53.9038 57.6462C53.9038 60.1454 52.6273 62.1393 50.573 62.848C49.4448 63.2414 46.0735 63.3643 42.3134 63.3643Z" fill="#F36A4F"/>
<path d="M1.36326 59.5239C1.08296 59.5216 0.809934 59.4349 0.580082 59.2753C0.350229 59.1157 0.174305 58.8907 0.0754334 58.6298C0.0327305 58.5091 -0.311141 57.4406 0.933988 56.8683C1.10517 56.8081 1.2866 56.7821 1.46791 56.7916C1.64922 56.8012 1.82686 56.8462 1.99069 56.924C2.15453 57.0019 2.30134 57.111 2.42275 57.2453C2.54416 57.3796 2.63779 57.5363 2.69829 57.7066C2.7588 57.8768 2.78499 58.0573 2.77538 58.2376C2.76577 58.4179 2.72055 58.5946 2.64228 58.7576C2.56402 58.9205 2.45425 59.0665 2.31925 59.1873C2.18425 59.308 2.02666 59.4012 1.85547 59.4613C1.69477 59.5031 1.52935 59.5241 1.36326 59.5239Z" fill="#F36A4F"/>
<path d="M45.3766 67.4327C45.0932 67.4323 44.8172 67.3432 44.5877 67.1779C43.219 66.1921 39.5195 64.2138 37.3956 63.3308C37.0654 63.1941 36.8033 62.9326 36.6669 62.6037C36.5306 62.2748 36.5312 61.9056 36.6685 61.5771C36.8059 61.2487 37.0689 60.988 37.3996 60.8524C37.7302 60.7167 38.1015 60.7173 38.4317 60.854C40.5309 61.7258 44.5135 63.8136 46.1677 65.0029C46.3986 65.1691 46.5705 65.4038 46.6589 65.6733C46.7473 65.9427 46.7476 66.2332 46.6597 66.5028C46.5718 66.7724 46.4003 67.0075 46.1698 67.1741C45.9393 67.3408 45.6616 67.4306 45.3766 67.4305V67.4327Z" fill="#F36A4F"/>
<path d="M33.9366 45.9999C29.1966 44.947 25.8118 41.6565 24.8768 37.1969C23.7531 31.832 26.9491 26.8381 30.0461 21.9963C30.7564 20.8786 31.4284 19.8302 32.0509 18.7728C33.586 16.1597 34.6041 14.5457 35.5031 13.1196L35.7077 12.7932C35.852 12.6104 36.0349 12.4613 36.2434 12.3564C36.452 12.2515 36.6811 12.1934 36.9147 12.1861C37.1483 12.1789 37.3806 12.2227 37.5954 12.3144C37.8101 12.4062 38.002 12.5437 38.1575 12.7172C40.1802 15.4622 42.0524 18.4733 43.2886 20.465C43.5133 20.8339 43.7201 21.1625 43.8954 21.4397L44.4146 22.2645C46.1114 24.947 48.0331 27.9916 48.9748 30.9825C49.9165 33.9735 50.6582 37.825 48.0758 41.2474C45.6237 44.4843 41.4973 46.353 37.1775 46.353C36.0875 46.3539 35.0006 46.2354 33.9366 45.9999ZM34.3254 20.1051C33.6804 21.2049 32.9634 22.3271 32.2712 23.4113C29.4663 27.8038 26.5647 32.3528 27.4682 36.6604C28.1942 40.1297 30.7631 42.5976 34.5142 43.4314C38.8474 44.3948 43.5493 42.8502 45.9496 39.6737C47.4442 37.6976 47.5858 35.4086 46.4418 31.7739C45.6035 29.1048 43.8549 26.3396 42.1715 23.6661L41.6479 22.8368C41.4725 22.5574 41.2658 22.2243 41.0343 21.851C40.0296 20.2303 38.598 17.9234 37.0202 15.6657C36.2943 16.8236 35.4514 18.1939 34.3277 20.1051H34.3254Z" fill="#F36A4F"/>
<path d="M44.2483 15.5293C44.4789 15.5297 44.7057 15.4701 44.906 15.3564C45.1063 15.2426 45.2731 15.0788 45.39 14.881C46.8824 12.3573 48.0871 10.5332 48.8197 9.44231C49.1044 9.05613 49.3577 8.648 49.5772 8.22179C49.7086 7.90528 49.7106 7.55026 49.5828 7.23228C49.4551 6.9143 49.2076 6.65847 48.893 6.51924C48.5785 6.38 48.2217 6.36835 47.8987 6.48677C47.5756 6.60518 47.3118 6.84432 47.1633 7.15327C47.0959 7.26951 46.8509 7.63612 46.6149 7.99378C45.8755 9.11147 44.6394 10.9668 43.111 13.5487C42.9932 13.7486 42.9304 13.9758 42.9291 14.2075C42.9278 14.4392 42.988 14.6671 43.1036 14.8682C43.2192 15.0694 43.3861 15.2366 43.5875 15.3531C43.7889 15.4695 44.0176 15.5311 44.2505 15.5315L44.2483 15.5293Z" fill="#F36A4F"/>
<path d="M53.0408 36.8012C53.212 36.801 53.3815 36.7676 53.5398 36.7029C55.4755 35.9362 57.1669 34.6633 58.4349 33.0189C60.8195 29.8648 60.1363 26.3128 59.2755 23.5789C58.4146 20.845 56.6616 18.0664 55.113 15.6187L54.6433 14.8743L54.0927 13.9802C52.9689 12.1673 51.2698 9.42891 49.4223 6.92527C49.2137 6.64426 48.9014 6.45718 48.5541 6.4052C48.2067 6.35322 47.8529 6.44058 47.5704 6.64809C47.2878 6.85559 47.0997 7.16622 47.0475 7.51166C46.9952 7.85709 47.083 8.20903 47.2917 8.49004C49.0739 10.9065 50.7416 13.5912 51.8429 15.3683L52.4003 16.2625L52.8723 17.0136C54.4073 19.4479 55.9918 21.9493 56.7515 24.3658C57.7786 27.6294 57.6505 29.6793 56.3222 31.4408C55.3419 32.7051 54.0366 33.6828 52.5441 34.2707C52.2635 34.388 52.0321 34.5978 51.8888 34.8648C51.7456 35.1319 51.6992 35.4399 51.7575 35.7369C51.8158 36.034 51.9753 36.3021 52.209 36.4959C52.4427 36.6897 52.7365 36.7976 53.0408 36.8012Z" fill="#F36A4F"/>
<path d="M21.0607 36.9868C21.3717 36.9869 21.6727 36.8779 21.9109 36.679C22.149 36.4801 22.309 36.204 22.3627 35.8994C22.4164 35.5947 22.3604 35.281 22.2044 35.0133C22.0485 34.7457 21.8027 34.5414 21.5102 34.4363C18.8131 33.4482 17.0264 31.4274 16.4645 28.7427C16.0779 26.8918 17.3073 22.0947 25.3647 9.74195C26.0682 8.66449 26.221 8.42754 26.3109 8.21294C26.4166 7.90218 26.4017 7.56333 26.269 7.26296C26.1364 6.9626 25.8956 6.72243 25.5939 6.58966C25.2923 6.45688 24.9516 6.4411 24.6389 6.5454C24.3262 6.64971 24.064 6.86657 23.9038 7.15337C23.8229 7.29644 23.4835 7.82399 23.1531 8.32024C18.3389 15.697 12.9336 24.7503 13.8843 29.2837C14.6395 32.8871 17.0309 35.5964 20.6022 36.9086C20.7491 36.9616 20.9044 36.9881 21.0607 36.9868Z" fill="#F36A4F"/>
<path d="M29.8215 16.1931C30.0705 16.1909 30.3151 16.1279 30.534 16.0098C30.685 15.9189 30.8161 15.7988 30.9197 15.6566C31.0233 15.5143 31.0971 15.3529 31.1369 15.1819C31.1767 15.0108 31.1817 14.8335 31.1515 14.6605C31.1212 14.4875 31.0565 14.3223 30.961 14.1746V14.1612L30.8981 14.0606V14.0315C29.826 12.3058 27.8167 9.1338 26.1917 6.93418C26.0884 6.79503 25.9586 6.67749 25.8096 6.58825C25.6606 6.49902 25.4954 6.43984 25.3235 6.4141C24.9762 6.36212 24.6223 6.44949 24.3398 6.65699C24.0572 6.86449 23.8691 7.17513 23.8169 7.52056C23.7646 7.866 23.8525 8.21793 24.0611 8.49895C25.6343 10.6427 27.6302 13.7834 28.6752 15.4644L28.7135 15.5248V15.5426C28.7684 15.6289 28.8332 15.7084 28.9067 15.7796C29.0219 15.9081 29.1627 16.0112 29.3202 16.0824C29.4777 16.1536 29.6485 16.1913 29.8215 16.1931Z" fill="#F36A4F"/>
<path d="M36.573 40.8115C37.6748 40.8077 38.7649 40.5866 39.7802 40.161C39.9401 40.0939 40.0853 39.9962 40.2073 39.8733C40.3292 39.7504 40.4257 39.6049 40.4911 39.445C40.5566 39.285 40.5897 39.1138 40.5886 38.9412C40.5875 38.7685 40.5522 38.5977 40.4848 38.4386C40.4173 38.2795 40.319 38.1352 40.1955 38.0139C40.072 37.8925 39.9257 37.7966 39.7648 37.7315C39.604 37.6664 39.4319 37.6335 39.2583 37.6346C39.0847 37.6357 38.913 37.6708 38.7531 37.7378C37.3394 38.3302 34.7075 38.5716 33.6557 36.6984C32.6937 34.9838 33.087 33.542 34.267 31.1502C34.4214 30.8368 34.4443 30.4753 34.3307 30.1452C34.2171 29.8151 33.9763 29.5433 33.6613 29.3898C33.3463 29.2362 32.9828 29.2134 32.6509 29.3264C32.319 29.4394 32.0457 29.6789 31.8914 29.9922C30.7024 32.4042 29.6798 35.0084 31.3452 37.9793C32.46 39.971 34.4895 40.8115 36.573 40.8115Z" fill="#F36A4F"/>
<path d="M35.1054 28.4207C35.3855 28.4182 35.6577 28.329 35.8845 28.1656C36.1112 28.0022 36.2812 27.7726 36.3708 27.5087C36.4463 27.3406 36.4854 27.1586 36.4854 26.9744C36.4764 26.7983 36.4326 26.6257 36.3565 26.4664C36.2805 26.3071 36.1736 26.1642 36.042 26.046C35.9104 25.9278 35.7567 25.8365 35.5896 25.7774C35.4226 25.7183 35.2455 25.6924 35.0684 25.7014C34.8913 25.7103 34.7177 25.7539 34.5575 25.8296C34.3974 25.9053 34.2538 26.0116 34.1349 26.1424C34.016 26.2733 33.9243 26.4262 33.8648 26.5924C33.8054 26.7585 33.7794 26.9347 33.7884 27.1108C33.7896 27.4579 33.9287 27.7904 34.1755 28.0358C34.4222 28.2812 34.7565 28.4196 35.1054 28.4207Z" fill="#F36A4F"/>
<path d="M25.7468 31.966C26.0538 31.9664 26.3602 31.9372 26.6615 31.8789C26.832 31.8455 26.9942 31.7792 27.1388 31.6835C27.2835 31.5878 27.4078 31.4648 27.5046 31.3213C27.6014 31.1779 27.6689 31.0169 27.7032 30.8475C27.7375 30.6782 27.7379 30.5037 27.7044 30.3342C27.6709 30.1647 27.6041 30.0034 27.508 29.8595C27.4118 29.7156 27.2881 29.592 27.1439 29.4957C26.9996 29.3994 26.8378 29.3323 26.6675 29.2982C26.4972 29.2641 26.3218 29.2637 26.1514 29.297C25.8234 29.3563 25.4863 29.3424 25.1644 29.2562C24.8426 29.17 24.544 29.0136 24.2904 28.7985C23.9663 28.524 23.7084 28.1807 23.5357 27.7938C23.3629 27.4068 23.2798 26.9863 23.2925 26.5631C23.2925 26.2142 23.1531 25.8796 22.9051 25.6329C22.6571 25.3862 22.3206 25.2476 21.9698 25.2476C21.619 25.2476 21.2826 25.3862 21.0346 25.6329C20.7865 25.8796 20.6472 26.2142 20.6472 26.5631C20.6359 27.3749 20.8061 28.179 21.1454 28.9174C21.4847 29.6558 21.9847 30.31 22.6093 30.8327C23.4914 31.5608 24.6005 31.9614 25.7468 31.966Z" fill="#F36A4F"/>
<path d="M48.3568 32.0264C49.605 32.0341 50.8131 31.5891 51.7551 30.7746C52.337 30.2534 52.7962 29.6109 53.1 28.8931C53.4038 28.1752 53.5447 27.3995 53.5127 26.6213C53.5034 26.2727 53.3553 25.942 53.101 25.702C52.8466 25.462 52.5068 25.3323 52.1563 25.3415C51.8058 25.3507 51.4733 25.498 51.232 25.751C50.9907 26.004 50.8603 26.342 50.8696 26.6906C50.893 27.083 50.828 27.4756 50.6795 27.8399C50.531 28.2042 50.3026 28.5309 50.011 28.7963C49.7254 29.0399 49.3887 29.2168 49.0255 29.3143C48.6623 29.4118 48.2818 29.4272 47.9118 29.3596C47.7398 29.3327 47.5641 29.3399 47.3947 29.3805C47.2254 29.4212 47.0658 29.4947 46.9251 29.5967C46.7843 29.6987 46.6651 29.8273 46.5743 29.9751C46.4835 30.123 46.4229 30.2872 46.3959 30.4583C46.3689 30.6294 46.376 30.8042 46.4169 30.9726C46.4578 31.141 46.5317 31.2997 46.6342 31.4397C46.7368 31.5797 46.8661 31.6983 47.0148 31.7886C47.1634 31.8789 47.3285 31.9392 47.5005 31.9661C47.7839 32.0084 48.0703 32.0286 48.3568 32.0264Z" fill="#F36A4F"/>
</svg>
